<svg xmlns="http://www.w3.org/2000/svg" width="26" height="26" viewBox="0 0 26 26">
  <g id="Group_62213fg" data-name="Group 62213fg" transform="translate(-129 -450)">
    <path id="check_1_" data-name="check (1)" d="M15,28A13,13,0,1,0,2,15,13,13,0,0,0,15,28Z" transform="translate(127 448)" fill="none" fill-rule="evenodd"/>
    <path id="check_1_2" data-name="check (1)" d="M15,28A13,13,0,1,0,2,15,13,13,0,0,0,15,28Zm4.6-17.6a1.3,1.3,0,1,1,1.838,1.841l-7.349,7.349-.005.005a1.3,1.3,0,0,1-1.838,0l-.005-.005L8.565,15.92A1.3,1.3,0,1,1,10.4,14.082l2.758,2.757L19.6,10.4Z" transform="translate(127 448)" fill="#8c8cf6" fill-rule="evenodd"/>
  </g>
</svg>
