<svg xmlns="http://www.w3.org/2000/svg" width="20.003" height="20" viewBox="0 0 20.003 20">
  <path id="account-service" d="M22.386,11.965h-.033c-.521,0-1.058-.016-1.579,0a.5.5,0,0,1-.163-.016A8.136,8.136,0,0,0,19.392,9a1.631,1.631,0,0,1,.179-.2c.358-.358.7-.716,1.074-1.058a10.047,10.047,0,0,0-2.311-2.311c-.374.374-.765.749-1.123,1.139a.894.894,0,0,1-.146.114,8.108,8.108,0,0,0-2.945-1.2c0-.033-.016-.065-.016-.114.016-.277,0-.57,0-.846h0v-.8h0a9.833,9.833,0,0,0-3.19,0h0c.016.26,0,.537,0,.8h0v.846a.241.241,0,0,1-.016.114,8.057,8.057,0,0,0-2.945,1.2.449.449,0,0,1-.146-.114c-.374-.391-.749-.749-1.123-1.139A10.377,10.377,0,0,0,4.371,7.75c.358.342.716.716,1.074,1.058a1.631,1.631,0,0,1,.179.2A8.136,8.136,0,0,0,4.4,11.948a.5.5,0,0,1-.163.016c-.521-.016-1.058,0-1.579,0H2.63a10.236,10.236,0,0,0,0,3.255H4.388A7.954,7.954,0,0,0,5.641,18.2c-.016.033-.049.049-.081.081-.358.342-.716.7-1.058,1.058l-.114.114a10.161,10.161,0,0,0,2.295,2.278l.033-.033c.374-.391.765-.765,1.139-1.155a.286.286,0,0,1,.081-.065A8.213,8.213,0,0,0,10.9,21.7a.361.361,0,0,1,.016.146c-.016.537,0,1.058,0,1.595v.033a9.833,9.833,0,0,0,3.19,0v-.033c0-.537,0-1.058-.016-1.595A.451.451,0,0,1,14.1,21.7a8.213,8.213,0,0,0,2.962-1.221c.033.016.049.049.081.065.374.391.765.765,1.139,1.155l.033.033a10.161,10.161,0,0,0,2.295-2.278l-.114-.114c-.358-.358-.7-.716-1.058-1.058-.033-.033-.049-.065-.081-.081a8.474,8.474,0,0,0,1.253-2.978H22.37a10.8,10.8,0,0,0,.13-1.627A8.917,8.917,0,0,0,22.386,11.965ZM8.358,18.295a20.5,20.5,0,0,1,.163-2.148.883.883,0,0,1,.456-.618c.8-.391,2.555-.993,2.555-.993v-.57l-.049-.033a1.641,1.641,0,0,1-.635-1.058l-.016-.065h-.049a.639.639,0,0,1-.6-.407.756.756,0,0,1-.081-.342.653.653,0,0,1,.049-.244.362.362,0,0,1,.13-.212l.163-.1-.049-.163A2.021,2.021,0,0,1,12.41,8.905h.2a2.028,2.028,0,0,1,2.018,2.441l-.033.179.163.1a.362.362,0,0,1,.13.212.653.653,0,0,1,.049.244.812.812,0,0,1-.081.342.639.639,0,0,1-.6.407H14.2v.065a1.6,1.6,0,0,1-.635,1.058l-.081.016v.57a26.068,26.068,0,0,1,2.555.993.823.823,0,0,1,.456.618,20.5,20.5,0,0,1,.163,2.148Z" transform="translate(-2.5 -3.6)" fill="#c3c3c3"/>
</svg>
