<svg width="15" height="15" viewBox="0 0 15 15" fill="none" xmlns="http://www.w3.org/2000/svg">
<g clip-path="url(#clip0_5_6)">
<path d="M12.1154 0H2.88462C1.29149 0 0 1.31681 0 2.94118V12.0588C0 13.6832 1.29149 15 2.88462 15H12.1154C13.7085 15 15 13.6832 15 12.0588V2.94118C15 1.31681 13.7085 0 12.1154 0Z" fill="#E44531"/>
<path d="M7.20864 10.7908V8.39649H4.86151C4.70613 8.39649 4.55728 8.33331 4.44741 8.22129C4.33754 8.10926 4.27557 7.95749 4.27557 7.79907C4.27557 7.64064 4.33754 7.48887 4.44741 7.37685C4.55728 7.26482 4.70613 7.20164 4.86151 7.20164L7.20864 7.19992V4.80332C7.20864 4.6445 7.27034 4.49225 7.38048 4.37995C7.49062 4.26765 7.63994 4.20474 7.79571 4.20474C7.95147 4.20474 8.10136 4.26765 8.2115 4.37995C8.32164 4.49225 8.38333 4.6445 8.38333 4.80332V7.19992H10.7305C10.8861 7.19992 11.0351 7.26293 11.1451 7.37512C11.2552 7.48731 11.317 7.63983 11.317 7.79849C11.317 7.95715 11.2552 8.1091 11.1451 8.22129C11.0351 8.33348 10.8861 8.39649 10.7305 8.39649H8.38333V10.7908C8.38333 10.9496 8.32164 11.1019 8.2115 11.2142C8.10136 11.3265 7.95147 11.3899 7.79571 11.3899C7.63994 11.3899 7.49062 11.3265 7.38048 11.2142C7.27034 11.1019 7.20864 10.9496 7.20864 10.7908Z" fill="white"/>
</g>
<defs>
<clipPath id="clip0_5_6">
<rect width="15" height="15" fill="white"/>
</clipPath>
</defs>
</svg>
