<svg width="25" height="25" viewBox="0 0 25 25" fill="none" xmlns="http://www.w3.org/2000/svg">
<g clip-path="url(#clip0_5_6)">
<path d="M20.1923 0H4.80769C2.15248 0 0 2.19468 0 4.90196V20.098C0 22.8053 2.15248 25 4.80769 25H20.1923C22.8475 25 25 22.8053 25 20.098V4.90196C25 2.19468 22.8475 0 20.1923 0Z" fill="#E44531"/>
<path d="M12.0144 17.9847V13.9942H8.10248C7.84351 13.9942 7.59543 13.8889 7.41231 13.7021C7.22919 13.5154 7.12592 13.2625 7.12592 12.9984C7.12592 12.7344 7.22919 12.4815 7.41231 12.2947C7.59543 12.108 7.84351 12.0027 8.10248 12.0027L12.0144 11.9999V8.00553C12.0144 7.74083 12.1172 7.48708 12.3008 7.29992C12.4843 7.11275 12.7332 7.0079 12.9928 7.0079C13.2524 7.0079 13.5022 7.11275 13.6858 7.29992C13.8694 7.48708 13.9722 7.74083 13.9722 8.00553V11.9999H17.8841C18.1434 11.9999 18.3918 12.1049 18.5752 12.2919C18.7586 12.4789 18.8616 12.7331 18.8616 12.9975C18.8616 13.2619 18.7586 13.5152 18.5752 13.7021C18.3918 13.8891 18.1434 13.9942 17.8841 13.9942H13.9722V17.9847C13.9722 18.2494 13.8694 18.5031 13.6858 18.6903C13.5022 18.8774 13.2524 18.9832 12.9928 18.9832C12.7332 18.9832 12.4843 18.8774 12.3008 18.6903C12.1172 18.5031 12.0144 18.2494 12.0144 17.9847Z" fill="white"/>
</g>
<defs>
<clipPath id="clip0_5_6">
<rect width="25" height="25" fill="white"/>
</clipPath>
</defs>
</svg>
