<svg xmlns="http://www.w3.org/2000/svg" xmlns:xlink="http://www.w3.org/1999/xlink" width="44" height="44" viewBox="0 0 44 44">
  <defs>
    <linearGradient id="linear-gradient" x1="0.5" x2="0.5" y2="1" gradientUnits="objectBoundingBox">
      <stop offset="0" stop-color="#ffcc74"/>
      <stop offset="1" stop-color="#ffb061"/>
    </linearGradient>
  </defs>
  <g id="Group_62646" data-name="Group 62646" transform="translate(-342 -719)">
    <rect id="Rectangle_2466" data-name="Rectangle 2466" width="44" height="44" rx="10" transform="translate(342 719)" fill="url(#linear-gradient)"/>
    <path id="home-location" d="M10.519.529A5.661,5.661,0,0,0,4.861,6.185c0,2.114,1.378,4.469,2.725,6.333a30.969,30.969,0,0,0,2.694,3.232.333.333,0,0,0,.474,0,30.831,30.831,0,0,0,2.7-3.232C14.8,10.653,16.177,8.3,16.177,6.185A5.662,5.662,0,0,0,10.519.529Zm0,2A3.662,3.662,0,1,1,6.857,6.192,3.667,3.667,0,0,1,10.519,2.53Zm0,.666a3,3,0,1,0,3,3A2.99,2.99,0,0,0,10.519,3.2Zm0,1a.333.333,0,0,1,.189.056l2,1.332a.333.333,0,1,1-.368.553l-.15-.1V7.524a.333.333,0,0,1-.332.332H9.187a.333.333,0,0,1-.332-.332V6.035l-.15.1a.333.333,0,1,1-.369-.553l2-1.332a.333.333,0,0,1,.179-.056Zm0,.732-1,.665v1.6h2v-1.6ZM7.047,12.908c-.31-.428-.622-.886-.924-1.36l-.776.326a.333.333,0,0,0-.16.14L.574,20.007a.333.333,0,0,0,.413.474l4.866-1.946,4.534,1.944a.333.333,0,0,0,.261,0l4.534-1.944,4.865,1.946a.333.333,0,0,0,.418-.467l-4.328-7.99a.333.333,0,0,0-.177-.155l-1.009-.378c-.313.5-.639.971-.962,1.417a31.467,31.467,0,0,1-2.762,3.309,1.01,1.01,0,0,1-1.422,0,31.631,31.631,0,0,1-2.759-3.309Z" transform="translate(353.471 730.471)" fill="#fff"/>
  </g>
</svg>
