<svg xmlns="http://www.w3.org/2000/svg" width="24.502" height="20" viewBox="0 0 24.502 20">
  <path id="archive" d="M17.426,2H7.473A1.221,1.221,0,0,0,6.228,3.25H18.671A1.221,1.221,0,0,0,17.426,2ZM21.16,5.75A1.22,1.22,0,0,0,19.916,4.5H4.984A1.22,1.22,0,0,0,3.74,5.75V7H21.16ZM23.648,7l-.735-.74V8.25H1.988V6.26L1.251,7c-.736.74-1.264.937-.967,2.5S2.008,19.595,2.22,20.75A1.536,1.536,0,0,0,3.741,22h17.42a1.537,1.537,0,0,0,1.521-1.25c.212-1.155,1.64-9.692,1.936-11.25S24.385,7.74,23.648,7Zm-6.2,7.5A1.254,1.254,0,0,1,16.2,15.75H8.7A1.254,1.254,0,0,1,7.45,14.5V12H8.7v2.5h7.5V12h1.25Z" transform="translate(-0.2 -2)" fill="#c3c3c3"/>
</svg>
