<svg xmlns="http://www.w3.org/2000/svg" width="20.445" height="13.47" viewBox="0 0 20.445 13.47">
  <path id="Path_25951" data-name="Path 25951" d="M23.323,10.772H7.524L11.6,6.578a.872.872,0,0,0-.146-1.356,1.256,1.256,0,0,0-1.582.125L4.258,11.119a1.126,1.126,0,0,0-.1.144c0,.048,0,.077-.079.125a.8.8,0,0,0,0,.693c0,.048,0,.077.079.125a1.126,1.126,0,0,0,.1.144l5.611,5.772a1.205,1.205,0,0,0,.864.346,1.242,1.242,0,0,0,.718-.221.929.929,0,0,0,.4-.652.873.873,0,0,0-.255-.7L7.524,12.7h15.8a1.051,1.051,0,0,0,1.122-.962A1.051,1.051,0,0,0,23.323,10.772Z" transform="translate(-4 -4.999)"/>
</svg>
