<svg xmlns="http://www.w3.org/2000/svg" width="27.704" height="18.252" viewBox="0 0 27.704 18.252">
  <path id="Path_25951" data-name="Path 25951" d="M30.183,12.822H8.775L14.3,7.138A1.182,1.182,0,0,0,14.1,5.3a1.7,1.7,0,0,0-2.144.169l-7.6,7.822a1.525,1.525,0,0,0-.137.2c0,.065,0,.1-.106.169a1.088,1.088,0,0,0,0,.939c0,.065,0,.1.106.169a1.525,1.525,0,0,0,.137.2l7.6,7.822a1.633,1.633,0,0,0,1.171.469,1.682,1.682,0,0,0,.973-.3,1.259,1.259,0,0,0,.544-.884,1.183,1.183,0,0,0-.346-.954l-5.52-5.684H30.183a1.425,1.425,0,0,0,1.521-1.3A1.425,1.425,0,0,0,30.183,12.822Z" transform="translate(-4 -4.999)" fill="#303c42"/>
</svg>
