<svg xmlns="http://www.w3.org/2000/svg" xmlns:xlink="http://www.w3.org/1999/xlink" width="1920" height="1080" viewBox="0 0 1920 1080">
  <defs>
    <clipPath id="clip-Mailbox_application_6">
      <rect width="1920" height="1080"/>
    </clipPath>
  </defs>
  <g id="Mailbox_application_6" data-name="Mailbox application – 6" clip-path="url(#clip-Mailbox_application_6)">
    <rect width="1920" height="1080" fill="#fff"/>
    <path id="Path_25838" data-name="Path 25838" d="M1035-12H2957V1067.5H1035Z" transform="translate(-1034.5 12)" fill="#d1dbff" opacity="0.1"/>
    <g id="delivery-person-holding-package" transform="translate(717.777 -58.463)" opacity="0.1">
      <path id="Path_25839" data-name="Path 25839" d="M174.437,1251.869s-184.9-216.083,78.014-285.507S584.642,837.5,708.935,657.611s659.073-131.779,441.548,602.565Z" transform="translate(0 -122.953)" fill="#e2eefc"/>
      <path id="Path_25840" data-name="Path 25840" d="M284.851,774.789c172.351,4.16,343.665-90.6,431.73-238.8,17-28.619,10.235-69.086-15.156-90.612s-66.423-21.581-91.87-.117c-42.124,35.522-97.981,49.525-152.175,59.392s-110.137,17.034-159.146,42.241-90.7,73.425-89.931,128.521S266.014,774.335,284.851,774.789Z" transform="translate(-37.487 -68.688)" fill="#e2eefc"/>
      <rect id="Rectangle_20303" data-name="Rectangle 20303" width="201.264" height="241.45" transform="translate(931.633 879.87)" fill="#ccdeff"/>
      <rect id="Rectangle_20304" data-name="Rectangle 20304" width="49.702" height="9.204" transform="translate(944.261 892.504)" fill="#e2eefc"/>
      <rect id="Rectangle_20305" data-name="Rectangle 20305" width="49.702" height="9.204" transform="translate(1004.395 892.504)" fill="#e2eefc"/>
      <rect id="Rectangle_20306" data-name="Rectangle 20306" width="49.702" height="9.204" transform="translate(1063.301 892.504)" fill="#e2eefc"/>
      <rect id="Rectangle_20307" data-name="Rectangle 20307" width="49.702" height="9.204" transform="translate(944.874 909.071)" fill="#e2eefc"/>
      <rect id="Rectangle_20308" data-name="Rectangle 20308" width="49.702" height="9.204" transform="translate(1005.008 909.071)" fill="#e2eefc"/>
      <rect id="Rectangle_20309" data-name="Rectangle 20309" width="49.702" height="9.204" transform="translate(1063.915 909.071)" fill="#e2eefc"/>
      <rect id="Rectangle_20310" data-name="Rectangle 20310" width="49.702" height="9.204" transform="translate(944.874 925.639)" fill="#e2eefc"/>
      <rect id="Rectangle_20311" data-name="Rectangle 20311" width="49.702" height="9.204" transform="translate(1005.008 925.639)" fill="#e2eefc"/>
      <rect id="Rectangle_20312" data-name="Rectangle 20312" width="49.702" height="9.204" transform="translate(1063.915 925.639)" fill="#e2eefc"/>
      <rect id="Rectangle_20313" data-name="Rectangle 20313" width="49.702" height="9.204" transform="translate(945.488 942.206)" fill="#e2eefc"/>
      <rect id="Rectangle_20314" data-name="Rectangle 20314" width="49.702" height="9.204" transform="translate(1005.622 942.206)" fill="#e2eefc"/>
      <rect id="Rectangle_20315" data-name="Rectangle 20315" width="49.702" height="9.204" transform="translate(1064.529 942.206)" fill="#e2eefc"/>
      <rect id="Rectangle_20316" data-name="Rectangle 20316" width="49.702" height="9.204" transform="translate(946.102 958.774)" fill="#e2eefc"/>
      <rect id="Rectangle_20317" data-name="Rectangle 20317" width="49.702" height="9.204" transform="translate(1006.235 958.774)" fill="#e2eefc"/>
      <rect id="Rectangle_20318" data-name="Rectangle 20318" width="49.702" height="9.204" transform="translate(1065.142 958.774)" fill="#e2eefc"/>
      <rect id="Rectangle_20319" data-name="Rectangle 20319" width="49.702" height="9.204" transform="translate(946.102 975.341)" fill="#e2eefc"/>
      <rect id="Rectangle_20320" data-name="Rectangle 20320" width="49.702" height="9.204" transform="translate(1006.235 975.341)" fill="#e2eefc"/>
      <rect id="Rectangle_20321" data-name="Rectangle 20321" width="49.702" height="9.204" transform="translate(1065.142 975.341)" fill="#e2eefc"/>
      <rect id="Rectangle_20322" data-name="Rectangle 20322" width="168.743" height="61.361" transform="translate(946.102 1000.591)" fill="#e2eefc"/>
      <rect id="Rectangle_20323" data-name="Rectangle 20323" width="62.588" height="295.852" transform="translate(1074.819 825.467)" fill="#ccdeff"/>
      <rect id="Rectangle_20324" data-name="Rectangle 20324" width="18.408" height="268.761" transform="translate(1131.492 852.558)" fill="#ccdeff"/>
      <rect id="Rectangle_20325" data-name="Rectangle 20325" width="96.95" height="155.857" transform="translate(226.539 966.082)" fill="#ccdeff"/>
      <rect id="Rectangle_20326" data-name="Rectangle 20326" width="72.099" height="14.113" transform="translate(236.706 981.471)" fill="#e2eefc"/>
      <rect id="Rectangle_20327" data-name="Rectangle 20327" width="72.099" height="14.113" transform="translate(236.706 1005.046)" fill="#e2eefc"/>
      <rect id="Rectangle_20328" data-name="Rectangle 20328" width="72.099" height="14.113" transform="translate(236.743 1028.615)" fill="#e2eefc"/>
      <rect id="Rectangle_20329" data-name="Rectangle 20329" width="72.099" height="14.113" transform="translate(236.743 1051.705)" fill="#e2eefc"/>
      <rect id="Rectangle_20330" data-name="Rectangle 20330" width="96.95" height="205.56" transform="translate(297.166 916.379)" fill="#ccdeff"/>
      <rect id="Rectangle_20331" data-name="Rectangle 20331" width="216.672" height="165.061" transform="translate(384.912 956.878)" fill="#ccdeff"/>
      <rect id="Rectangle_20332" data-name="Rectangle 20332" width="53.998" height="91.428" transform="translate(172.541 1030.511)" fill="#ccdeff"/>
      <rect id="Rectangle_20333" data-name="Rectangle 20333" width="1.841" height="77.401" transform="translate(420.894 879.477)" fill="#ccdeff"/>
      <rect id="Rectangle_20334" data-name="Rectangle 20334" width="1.841" height="59.582" transform="translate(441.56 897.296)" fill="#ccdeff"/>
      <rect id="Rectangle_20335" data-name="Rectangle 20335" width="4.295" height="89.753" transform="translate(402.124 867.125)" fill="#ccdeff"/>
      <rect id="Rectangle_20336" data-name="Rectangle 20336" width="17.795" height="22.342" transform="translate(237.928 943.74)" fill="#ccdeff"/>
      <rect id="Rectangle_20337" data-name="Rectangle 20337" width="38.657" height="24.139" transform="translate(304.535 892.234)" fill="#ccdeff"/>
      <rect id="Rectangle_20338" data-name="Rectangle 20338" width="16.567" height="49.255" transform="translate(360.435 867.125)" fill="#ccdeff"/>
      <rect id="Rectangle_20339" data-name="Rectangle 20339" width="14.727" height="54.084" transform="translate(265.43 911.998)" fill="#ccdeff"/>
      <rect id="Rectangle_20340" data-name="Rectangle 20340" width="14.42" height="14.42" transform="translate(179.291 1039.408)" fill="#e2eefc"/>
      <rect id="Rectangle_20341" data-name="Rectangle 20341" width="14.42" height="14.42" transform="translate(202.915 1039.408)" fill="#e2eefc"/>
      <rect id="Rectangle_20342" data-name="Rectangle 20342" width="14.42" height="14.42" transform="translate(179.291 1063.646)" fill="#e2eefc"/>
      <rect id="Rectangle_20343" data-name="Rectangle 20343" width="14.42" height="14.42" transform="translate(202.915 1063.646)" fill="#e2eefc"/>
      <rect id="Rectangle_20344" data-name="Rectangle 20344" width="14.42" height="14.42" transform="translate(179.291 1087.883)" fill="#e2eefc"/>
      <rect id="Rectangle_20345" data-name="Rectangle 20345" width="14.42" height="14.42" transform="translate(202.915 1087.883)" fill="#e2eefc"/>
      <rect id="Rectangle_20346" data-name="Rectangle 20346" width="5.522" height="185.924" transform="translate(308.843 929.443)" fill="#e2eefc"/>
      <rect id="Rectangle_20347" data-name="Rectangle 20347" width="5.522" height="185.924" transform="translate(333.387 929.443)" fill="#e2eefc"/>
      <rect id="Rectangle_20348" data-name="Rectangle 20348" width="5.522" height="185.924" transform="translate(355.483 929.443)" fill="#e2eefc"/>
      <rect id="Rectangle_20349" data-name="Rectangle 20349" width="5.522" height="185.924" transform="translate(378.8 929.443)" fill="#e2eefc"/>
      <rect id="Rectangle_20350" data-name="Rectangle 20350" width="96.95" height="155.857" transform="translate(474.849 958.541)" fill="#ccdeff"/>
      <rect id="Rectangle_20351" data-name="Rectangle 20351" width="72.099" height="14.113" transform="translate(485.01 973.936)" fill="#e2eefc"/>
      <rect id="Rectangle_20352" data-name="Rectangle 20352" width="72.099" height="14.113" transform="translate(485.01 997.505)" fill="#e2eefc"/>
      <rect id="Rectangle_20353" data-name="Rectangle 20353" width="72.099" height="14.113" transform="translate(485.053 1021.08)" fill="#e2eefc"/>
      <rect id="Rectangle_20354" data-name="Rectangle 20354" width="72.099" height="14.113" transform="translate(485.053 1044.17)" fill="#e2eefc"/>
      <rect id="Rectangle_20355" data-name="Rectangle 20355" width="96.95" height="205.56" transform="translate(545.475 908.838)" fill="#ccdeff"/>
      <rect id="Rectangle_20356" data-name="Rectangle 20356" width="216.672" height="165.061" transform="translate(633.222 949.336)" fill="#ccdeff"/>
      <rect id="Rectangle_20357" data-name="Rectangle 20357" width="53.998" height="91.428" transform="translate(420.851 1022.97)" fill="#ccdeff"/>
      <rect id="Rectangle_20358" data-name="Rectangle 20358" width="1.841" height="77.401" transform="translate(669.198 871.942)" fill="#ccdeff"/>
      <rect id="Rectangle_20359" data-name="Rectangle 20359" width="1.841" height="59.582" transform="translate(689.87 889.755)" fill="#ccdeff"/>
      <rect id="Rectangle_20360" data-name="Rectangle 20360" width="4.295" height="89.753" transform="translate(650.433 859.583)" fill="#ccdeff"/>
      <rect id="Rectangle_20361" data-name="Rectangle 20361" width="17.795" height="22.342" transform="translate(486.237 936.205)" fill="#ccdeff"/>
      <rect id="Rectangle_20362" data-name="Rectangle 20362" width="38.657" height="24.139" transform="translate(552.839 884.699)" fill="#ccdeff"/>
      <rect id="Rectangle_20363" data-name="Rectangle 20363" width="16.567" height="49.255" transform="translate(608.745 859.583)" fill="#ccdeff"/>
      <rect id="Rectangle_20364" data-name="Rectangle 20364" width="14.727" height="54.084" transform="translate(513.739 904.463)" fill="#ccdeff"/>
      <rect id="Rectangle_20365" data-name="Rectangle 20365" width="14.42" height="14.42" transform="translate(427.601 1031.867)" fill="#e2eefc"/>
      <rect id="Rectangle_20366" data-name="Rectangle 20366" width="14.42" height="14.42" transform="translate(451.225 1031.867)" fill="#e2eefc"/>
      <rect id="Rectangle_20367" data-name="Rectangle 20367" width="14.42" height="14.42" transform="translate(427.601 1056.105)" fill="#e2eefc"/>
      <rect id="Rectangle_20368" data-name="Rectangle 20368" width="14.42" height="14.42" transform="translate(451.225 1056.105)" fill="#e2eefc"/>
      <rect id="Rectangle_20369" data-name="Rectangle 20369" width="14.42" height="14.42" transform="translate(427.601 1080.342)" fill="#e2eefc"/>
      <rect id="Rectangle_20370" data-name="Rectangle 20370" width="14.42" height="14.42" transform="translate(451.225 1080.342)" fill="#e2eefc"/>
      <rect id="Rectangle_20371" data-name="Rectangle 20371" width="5.522" height="185.924" transform="translate(557.152 921.902)" fill="#e2eefc"/>
      <rect id="Rectangle_20372" data-name="Rectangle 20372" width="5.522" height="185.924" transform="translate(581.697 921.902)" fill="#e2eefc"/>
      <rect id="Rectangle_20373" data-name="Rectangle 20373" width="5.522" height="185.924" transform="translate(603.793 921.902)" fill="#e2eefc"/>
      <rect id="Rectangle_20374" data-name="Rectangle 20374" width="5.522" height="185.924" transform="translate(627.11 921.902)" fill="#e2eefc"/>
      <rect id="Rectangle_20375" data-name="Rectangle 20375" width="96.95" height="155.857" transform="translate(723.036 944.943)" fill="#ccdeff"/>
      <rect id="Rectangle_20376" data-name="Rectangle 20376" width="72.099" height="14.113" transform="translate(733.197 960.338)" fill="#e2eefc"/>
      <rect id="Rectangle_20377" data-name="Rectangle 20377" width="72.099" height="14.113" transform="translate(733.197 983.907)" fill="#e2eefc"/>
      <rect id="Rectangle_20378" data-name="Rectangle 20378" width="72.099" height="14.113" transform="translate(733.234 1007.476)" fill="#e2eefc"/>
      <rect id="Rectangle_20379" data-name="Rectangle 20379" width="72.099" height="14.113" transform="translate(733.234 1030.572)" fill="#e2eefc"/>
      <rect id="Rectangle_20380" data-name="Rectangle 20380" width="96.95" height="205.56" transform="translate(793.662 895.24)" fill="#ccdeff"/>
      <rect id="Rectangle_20381" data-name="Rectangle 20381" width="216.672" height="165.061" transform="translate(881.409 935.739)" fill="#ccdeff"/>
      <rect id="Rectangle_20382" data-name="Rectangle 20382" width="53.998" height="91.428" transform="translate(669.038 1009.372)" fill="#ccdeff"/>
      <rect id="Rectangle_20383" data-name="Rectangle 20383" width="1.841" height="77.401" transform="translate(917.385 858.338)" fill="#ccdeff"/>
      <rect id="Rectangle_20384" data-name="Rectangle 20384" width="1.841" height="59.582" transform="translate(938.051 876.157)" fill="#ccdeff"/>
      <rect id="Rectangle_20385" data-name="Rectangle 20385" width="4.295" height="89.753" transform="translate(898.614 845.986)" fill="#ccdeff"/>
      <rect id="Rectangle_20386" data-name="Rectangle 20386" width="17.795" height="22.342" transform="translate(734.418 922.601)" fill="#ccdeff"/>
      <rect id="Rectangle_20387" data-name="Rectangle 20387" width="38.657" height="24.139" transform="translate(801.026 871.101)" fill="#ccdeff"/>
      <rect id="Rectangle_20388" data-name="Rectangle 20388" width="16.567" height="49.255" transform="translate(856.932 845.986)" fill="#ccdeff"/>
      <rect id="Rectangle_20389" data-name="Rectangle 20389" width="14.727" height="54.084" transform="translate(761.92 890.865)" fill="#ccdeff"/>
      <rect id="Rectangle_20390" data-name="Rectangle 20390" width="14.42" height="14.42" transform="translate(675.788 1018.269)" fill="#e2eefc"/>
      <rect id="Rectangle_20391" data-name="Rectangle 20391" width="14.42" height="14.42" transform="translate(699.412 1018.269)" fill="#e2eefc"/>
      <rect id="Rectangle_20392" data-name="Rectangle 20392" width="14.42" height="14.42" transform="translate(675.788 1042.507)" fill="#e2eefc"/>
      <rect id="Rectangle_20393" data-name="Rectangle 20393" width="14.42" height="14.42" transform="translate(699.412 1042.507)" fill="#e2eefc"/>
      <rect id="Rectangle_20394" data-name="Rectangle 20394" width="14.42" height="14.42" transform="translate(675.788 1066.745)" fill="#e2eefc"/>
      <rect id="Rectangle_20395" data-name="Rectangle 20395" width="14.42" height="14.42" transform="translate(699.412 1066.745)" fill="#e2eefc"/>
      <rect id="Rectangle_20396" data-name="Rectangle 20396" width="5.522" height="185.924" transform="translate(805.333 908.304)" fill="#e2eefc"/>
      <rect id="Rectangle_20397" data-name="Rectangle 20397" width="5.522" height="185.924" transform="translate(829.878 908.304)" fill="#e2eefc"/>
      <rect id="Rectangle_20398" data-name="Rectangle 20398" width="5.522" height="185.924" transform="translate(851.974 908.304)" fill="#e2eefc"/>
      <rect id="Rectangle_20399" data-name="Rectangle 20399" width="5.522" height="185.924" transform="translate(875.297 908.304)" fill="#e2eefc"/>
      <rect id="Rectangle_20400" data-name="Rectangle 20400" width="99.405" height="75.664" transform="translate(832.228 1046.183)" fill="#ccdeff"/>
      <rect id="Rectangle_20401" data-name="Rectangle 20401" width="3.682" height="3.682" transform="translate(1021.244 1102.751)" fill="#ccdeff"/>
      <rect id="Rectangle_20402" data-name="Rectangle 20402" width="42.953" height="653.9" transform="translate(243.352 465.032)" fill="#ec7f37"/>
      <rect id="Rectangle_20403" data-name="Rectangle 20403" width="171.369" height="53.924" transform="translate(219.918 537.953)" fill="#febe3d"/>
      <path id="Path_25841" data-name="Path 25841" d="M155.42,722.852l81.555-52.912V775.757Z" transform="translate(-17.057 -161.71)" fill="#febe3d"/>
      <rect id="Rectangle_20404" data-name="Rectangle 20404" width="42.953" height="10.431" transform="translate(243.352 591.878)" fill="#a54545"/>
      <rect id="Rectangle_20405" data-name="Rectangle 20405" width="171.369" height="4.295" transform="translate(219.918 591.141)" fill="#f8a23a"/>
      <rect id="Rectangle_20406" data-name="Rectangle 20406" width="171.369" height="5.7" transform="translate(219.918 537.953)" fill="#fce373"/>
      <path id="Path_25842" data-name="Path 25842" d="M1330.162,460.148l-15.242-4.909c6.136-18.187,33.086-24.833,46.941-11.56-7.271-8.7-1.227-24.5,10-26.134s21.477,11.812,17,22.219c8.682-10.008,27.459-7.676,33.423,4.154,7.161-8.873,22.833-8.591,29.68.515a172.989,172.989,0,0,1,95.9,9.364L1275.87,467C1295.456,463.43,1315.043,459.853,1330.162,460.148Z" transform="translate(-449.987 -64.135)" fill="#e2eefc"/>
      <rect id="Rectangle_20407" data-name="Rectangle 20407" width="269.811" height="131.049" transform="translate(915.255 914.146)" fill="#febe3d"/>
      <rect id="Rectangle_20408" data-name="Rectangle 20408" width="65.816" height="131.049" transform="translate(915.255 914.146)" fill="#f8a23a"/>
      <rect id="Rectangle_20409" data-name="Rectangle 20409" width="158.802" height="123.446" transform="translate(948.163 790.693)" fill="#febe3d"/>
      <rect id="Rectangle_20410" data-name="Rectangle 20410" width="40.087" height="123.446" transform="translate(948.163 790.693)" fill="#f8a23a"/>
      <path id="Path_25843" data-name="Path 25843" d="M1474.48,1329.632l40.492-3.682,82.12,4.246Z" transform="translate(-526.728 -415.185)" fill="#ec7f37"/>
      <rect id="Rectangle_20411" data-name="Rectangle 20411" width="55.121" height="12.125" transform="translate(1121.907 925.387)" fill="#fff"/>
      <rect id="Rectangle_20412" data-name="Rectangle 20412" width="55.121" height="12.125" transform="translate(1122.791 943.888)" fill="#fff"/>
      <rect id="Rectangle_20413" data-name="Rectangle 20413" width="38.547" height="12.125" transform="translate(1062.663 797.805)" fill="#fff"/>
      <rect id="Rectangle_20414" data-name="Rectangle 20414" width="38.547" height="12.125" transform="translate(1062.663 814.379)" fill="#fff"/>
      <rect id="Rectangle_20415" data-name="Rectangle 20415" width="269.811" height="131.049" transform="translate(915.255 914.146)" fill="#febe3d"/>
      <rect id="Rectangle_20416" data-name="Rectangle 20416" width="65.816" height="131.049" transform="translate(915.255 914.146)" fill="#f8a23a"/>
      <rect id="Rectangle_20417" data-name="Rectangle 20417" width="158.802" height="123.446" transform="translate(948.163 790.693)" fill="#febe3d"/>
      <rect id="Rectangle_20418" data-name="Rectangle 20418" width="40.087" height="123.446" transform="translate(948.163 790.693)" fill="#f8a23a"/>
      <path id="Path_25844" data-name="Path 25844" d="M1474.48,1329.632l40.492-3.682,82.12,4.246Z" transform="translate(-526.728 -415.185)" fill="#ec7f37"/>
      <rect id="Rectangle_20419" data-name="Rectangle 20419" width="55.121" height="12.125" transform="translate(1121.907 925.387)" fill="#fff"/>
      <rect id="Rectangle_20420" data-name="Rectangle 20420" width="55.121" height="12.125" transform="translate(1122.791 943.888)" fill="#fff"/>
      <rect id="Rectangle_20421" data-name="Rectangle 20421" width="38.547" height="12.125" transform="translate(1062.663 797.805)" fill="#fff"/>
      <rect id="Rectangle_20422" data-name="Rectangle 20422" width="38.547" height="12.125" transform="translate(1062.663 814.379)" fill="#fff"/>
      <path id="Path_25845" data-name="Path 25845" d="M357.31,271.863l14.9-5.842c-7.241-17.795-34.583-22.7-47.573-8.591,6.707-9.143-.319-24.544-11.622-25.446s-20.716,13.144-15.573,23.244c-9.3-9.443-27.889-5.927-33.1,6.253-7.707-8.406-23.317-7.149-29.588,2.381a172.916,172.916,0,0,0-95.11,15.389l272.284-3.958C392.157,272.93,372.38,270.586,357.31,271.863Z" transform="translate(-10.964 50)" fill="#e2eefc"/>
      <path id="Path_25846" data-name="Path 25846" d="M1512.81,848.123c0-34.362,27.115-62.183,60.569-62.183s60.569,27.84,60.569,62.183-58.1,97.184-58.1,97.184S1512.81,882.467,1512.81,848.123Z" transform="translate(-541.538 -206.531)" fill="#f75c3d"/>
      <circle id="Ellipse_254" data-name="Ellipse 254" cx="32.822" cy="32.822" r="32.822" transform="translate(999.019 608.838)" fill="#1a1a35"/>
      <path id="Path_25847" data-name="Path 25847" d="M1383.86,1553.59h0a8.59,8.59,0,0,1,8.59-8.591h279.193a8.591,8.591,0,0,1,8.591,8.591h0a8.591,8.591,0,0,1-8.591,8.591H1392.451A8.59,8.59,0,0,1,1383.86,1553.59Z" transform="translate(-491.713 -499.824)" fill="#1a1a35"/>
      <path id="Path_25848" data-name="Path 25848" d="M1275.86,902.23h0a8.591,8.591,0,0,1,8.591-8.59h49.089a8.591,8.591,0,0,1,8.591,8.591h0a8.591,8.591,0,0,1-8.591,8.591h-49.089a8.591,8.591,0,0,1-8.591-8.591Z" transform="translate(-449.983 -248.145)" fill="#e44531"/>
      <path id="Path_25849" data-name="Path 25849" d="M1378.451,1303.576h0a8.591,8.591,0,0,1-8.591-8.591V864.23a8.591,8.591,0,0,1,8.591-8.59h0a8.591,8.591,0,0,1,8.59,8.59v430.755A8.591,8.591,0,0,1,1378.451,1303.576Z" transform="translate(-486.304 -233.462)" fill="#1a1a35"/>
      <path id="Path_25850" data-name="Path 25850" d="M1289.86,864.23h0a8.591,8.591,0,0,1,8.591-8.59h49.089a8.591,8.591,0,0,1,8.59,8.59h0a8.591,8.591,0,0,1-8.59,8.591h-49.089A8.591,8.591,0,0,1,1289.86,864.23Z" transform="translate(-455.393 -233.462)" fill="#f75c3d"/>
      <circle id="Ellipse_255" data-name="Ellipse 255" cx="42.339" cy="42.339" r="42.339" transform="translate(850.489 1053.785)" fill="#1a1a35"/>
      <circle id="Ellipse_256" data-name="Ellipse 256" cx="27.183" cy="27.183" r="27.183" transform="translate(860.598 1117.083) rotate(-78.01)" fill="#38385c"/>
      <path id="Path_25851" data-name="Path 25851" d="M824.234,1635.264l-72.774-9.443a83.676,83.676,0,0,1,2.092-11.438q6.59-1.773,13.07-3.958a10.611,10.611,0,0,0,1.528,4.492c1.356,2.025,4.234,3.252,6.308,1.988-.313-2.976-.614-5.94-.927-8.922.9-.325,1.773-.663,2.669-1.013v1.374a16.293,16.293,0,0,0,.233,5.038,4.68,4.68,0,0,0,3.3,3.5c1.663.331,3.583-1.086,3.344-2.755q-.657-4.682-1.325-9.376c.926-.38,1.841-.773,2.749-1.166q.773,5.719,1.534,11.45c1.908,1.227,4.584-.516,5.185-2.7a8.382,8.382,0,0,0-.233-4.443c-.2-.743-.448-1.479-.681-2.2a1.287,1.287,0,0,0-.1-.319,14.24,14.24,0,0,1-.81-3.994h0c.8-.362,1.589-.736,2.375-1.117.147.215.307.423.466.613a27.177,27.177,0,0,0,31.865,8.75,20.61,20.61,0,0,0,2.184-1.006C825.633,1617.285,825,1625.876,824.234,1635.264Z" transform="translate(-247.36 -521.18)" fill="#f75c3d"/>
      <path id="Path_25852" data-name="Path 25852" d="M823.406,1656.9c-24.231-3.651-48.475-7.308-72.866-10.493.178-1.5.368-3.013.564-4.5q36.393,4.731,72.774,9.443C823.719,1653.17,823.566,1655.017,823.406,1656.9Z" transform="translate(-247.005 -537.269)"/>
      <path id="Path_25853" data-name="Path 25853" d="M795.56,1615.733q-.761-5.725-1.534-11.45c1.632-.712,3.264-1.448,4.909-2.2a14.248,14.248,0,0,0,.81,3.995c.031.1.074.215.1.319.233.718.485,1.454.681,2.2a8.383,8.383,0,0,1,.233,4.443C800.144,1615.224,797.468,1616.972,795.56,1615.733Zm-6.3,1.847a4.69,4.69,0,0,1-3.3-3.5,16.09,16.09,0,0,1-.233-5.038v-1.374c1.841-.706,3.682-1.454,5.522-2.221q.675,4.688,1.325,9.376C792.842,1616.494,790.915,1617.9,789.258,1617.58Zm-5.253.025c-2.074,1.27-4.952.037-6.308-1.988a10.521,10.521,0,0,1-1.528-4.491q3.473-1.16,6.909-2.454C783.386,1611.665,783.693,1614.628,784.006,1617.6Z" transform="translate(-256.908 -521.879)" fill="#fff"/>
      <path id="Path_25854" data-name="Path 25854" d="M849.725,1595.807a27.176,27.176,0,0,1-31.865-8.75,61.759,61.759,0,0,0,4.6-22.587c11.566,3.172,23.127,6.332,34.27,9.3Q853.235,1584.786,849.725,1595.807Z" transform="translate(-273.017 -507.347)" fill="#fbb8a5"/>
      <path id="Path_25855" data-name="Path 25855" d="M1090.556,1574.152q-32.343,17.316-64.674,34.662a82.906,82.906,0,0,1-4.952-10.523q4.3-5.283,8.333-10.818a10.591,10.591,0,0,0,3.859,2.768c2.283.859,5.338.184,6.29-2.05l-5.946-6.719c.54-.785,1.055-1.571,1.583-2.375.276.368.528.749.779,1.129a16.249,16.249,0,0,0,3.117,3.964,4.668,4.668,0,0,0,4.719.927c1.54-.7,2.283-2.964,1.117-4.185q-3.258-3.424-6.535-6.854c.534-.847,1.043-1.7,1.559-2.547,2.632,2.8,5.277,5.615,7.9,8.425,2.27-.1,3.43-3.068,2.645-5.209a8.414,8.414,0,0,0-2.773-3.479c-.614-.485-1.227-.945-1.841-1.393l-.27-.2a14.16,14.16,0,0,1-2.982-2.78h0c.436-.761.865-1.522,1.282-2.289.246.086.5.166.749.239a27.17,27.17,0,0,0,31.012-11.413c.423-.681.828-1.375,1.2-2.086C1081.223,1558.7,1085.727,1566.083,1090.556,1574.152Z" transform="translate(-351.481 -502.278)" fill="#f75c3d"/>
      <path id="Path_25856" data-name="Path 25856" d="M1096.47,1593.3c-21.838,11.119-43.677,22.237-65.38,33.841-.73-1.332-1.454-2.669-2.16-3.989l64.693-34.639C1094.58,1590.081,1095.525,1591.67,1096.47,1593.3Z" transform="translate(-354.572 -516.635)"/>
      <path id="Path_25857" data-name="Path 25857" d="M1052.923,1589.688l-7.9-8.425c.914-1.534,1.841-3.068,2.688-4.633a14.309,14.309,0,0,0,2.982,2.78l.27.2c.614.448,1.227.9,1.841,1.393a8.378,8.378,0,0,1,2.773,3.479C1056.36,1586.607,1055.2,1589.583,1052.923,1589.688Zm-4.019,5.167a4.7,4.7,0,0,1-4.719-.927,16.023,16.023,0,0,1-3.117-3.964c-.251-.374-.5-.761-.779-1.129,1.092-1.65,2.16-3.332,3.2-5.019q3.277,3.424,6.535,6.854C1051.156,1591.891,1050.408,1594.155,1048.9,1594.854Zm-4.3,3.074c-.951,2.24-4.007,2.908-6.29,2.05a10.5,10.5,0,0,1-3.86-2.768q2.141-2.963,4.2-6.007Q1041.646,1594.578,1044.609,1597.928Z" transform="translate(-356.709 -512.045)" fill="#fff"/>
      <path id="Path_25858" data-name="Path 25858" d="M1084.456,1540.838a27.171,27.171,0,0,1-31.012,11.413,61.7,61.7,0,0,0-9.394-21.047c11.254-4.148,22.5-8.3,33.288-12.364Q1080.9,1529.83,1084.456,1540.838Z" transform="translate(-360.414 -489.716)" fill="#fbb8a5"/>
      <path id="Path_25859" data-name="Path 25859" d="M962.343,1306.3,869.35,905.02l97.018,30.325,58.808,346.512Z" transform="translate(-292.912 -252.542)" fill="#1a1a35"/>
      <path id="Path_25860" data-name="Path 25860" d="M807.62,1331.259l24.409-389.68,101.583,23.072-67.141,371.83Z" transform="translate(-269.06 -266.669)" fill="#38385c"/>
      <path id="Path_25861" data-name="Path 25861" d="M846.957,603.014c4.136-.239,3.89,1.227,6.922,4.056a13.132,13.132,0,0,1,2.737,4.142,44.389,44.389,0,0,1,3.933,23.317,85.247,85.247,0,0,1,26.416-16.1c-4.338-6.019-6.676-13.223-8.621-20.384a36.854,36.854,0,0,0-2.454-7.155,7.288,7.288,0,0,0-2.135-2.724c-1.6-1.141-3.749-1.147-5.694-.847-5.246.81-10.014,3.467-14.518,6.277q-5.16,3.222-10.094,6.793c-1.148.828,3.608,1.841,3.5,3.264" transform="translate(-282.834 -129.723)" fill="#fbb089"/>
      <path id="Path_25862" data-name="Path 25862" d="M786.7,701.454s-55.372,32.208-69.142,22.581c0,0-41.529-8.051-64.711-113.095q-1.025-4.608-1.994-9.48l15.954-6.59s2.792,3.35,7.234,9.057c12.1,15.524,36.418,48.475,49.856,78.64,0,0,42.266-39.811,68.688-49.169Z" transform="translate(-208.486 -132.704)" fill="#e44531"/>
      <path id="Path_25863" data-name="Path 25863" d="M855.646,659.041c-2.289.074-3.608,3.424-1.988,5.038-3.2.749-4.479,4.522-5.167,7.738-10.143,47.377-8.867,96.337-11.327,144.72-.362,7.093-.81,14.223-2.455,21.139a152.571,152.571,0,0,0,31.607-1.4c8.136-1.227,16.273-3.068,24.483-2.62,7.468.43,14.678,2.78,22.035,4.123a82.9,82.9,0,0,0,34.111-.927c2.632-8.787,2.227-18.181,1.282-27.306-2.688-26.029-9.493-51.433-16.273-76.7-2.884-10.757-5.8-21.581-10.523-31.662a188.827,188.827,0,0,0-9.9-17.715l-23.133-38.136a5.52,5.52,0,0,0-2.663-2.681c-1.755-.571-3.516.706-4.952,1.841a103.388,103.388,0,0,1-27.87,16.113" transform="translate(-279.527 -151.111)" fill="#f75c3d"/>
      <path id="Path_25864" data-name="Path 25864" d="M895.155,625.68a320.715,320.715,0,0,0-37.534,23.274,14.285,14.285,0,0,1,1.019,14.113,252.664,252.664,0,0,1,45.143-30.349,111.022,111.022,0,0,0-9.161-6.7" transform="translate(-288.38 -144.608)" fill="#38385c"/>
      <rect id="Rectangle_20424" data-name="Rectangle 20424" width="241.934" height="129.619" transform="translate(513.236 589.711)" fill="#febe3d"/>
      <rect id="Rectangle_20425" data-name="Rectangle 20425" width="61.073" height="129.619" transform="translate(513.236 589.711)" fill="#f8a23a"/>
      <rect id="Rectangle_20426" data-name="Rectangle 20426" width="58.723" height="12.726" transform="translate(687.68 597.173)" fill="#fff"/>
      <rect id="Rectangle_20427" data-name="Rectangle 20427" width="58.723" height="12.726" transform="translate(687.68 614.575)" fill="#fff"/>
      <path id="Path_25865" data-name="Path 25865" d="M896.759,641.634l12.1-4.3s4.087-4.535,34.049,24.594,74.069,96.809,74.069,96.809l-59.52,101.467-19.47-12.469,26.52-90.2S825.139,611.34,926.151,646.6" transform="translate(-300.667 -149.014)" fill="#e44531"/>
      <path id="Path_25866" data-name="Path 25866" d="M956.636,979.219c-4.59,1.295-8.2,3.774-12.272,6.185a2.829,2.829,0,0,0-1.693,2.369,67.326,67.326,0,0,1-5.67,15.408,68.649,68.649,0,0,0,15.782,2.405,5.252,5.252,0,0,0,2.056-.209,4.793,4.793,0,0,0,2.013-1.755,25.864,25.864,0,0,0,3.129-5.412c6.038-1.227,11.628-1.516,15.862-5.829-5.381-2.553-10.149-7.652-15.217-10.757a34.175,34.175,0,0,0-4.075-2.454" transform="translate(-319.051 -281.193)" fill="#fbb089"/>
      <path id="Path_25867" data-name="Path 25867" d="M923.9,512.56c.614-.129,1.166-.276,1.73-.436l.356-.1h0l-.35.1C925.06,512.278,924.483,512.431,923.9,512.56Z" transform="translate(-313.99 -100.691)" fill="#e1c2b0"/>
      <path id="Path_25868" data-name="Path 25868" d="M815.969,559.326a23.31,23.31,0,0,0,.073,3.921c.583,6.357,2.565,9.462,5.118,10.658a4.827,4.827,0,0,0,.558.227,8.3,8.3,0,0,0,4.608.129c-.614-4.025-1.1-7.891-1.485-11.254-.282-2.4-.5-4.541-.614-6.32-.859.614-3.921-2.878-3.921-2.878C817.644,554.368,816.331,556.694,815.969,559.326Zm41.689,42.192v-.061C857.657,601.4,857.614,601.512,857.657,601.518Zm-12.272-5.087c2.019.614,5.142-4.381,6.75-3.995,2.068.5,3.639.8,4.363.933l.16.031v.092l.117-.074h.135v-.092c.368-.227,1.172-.724,2.24-1.436.724-.472,1.571-1.055,2.5-1.712h0c1.663-1.184,6.351-.957,8.278-2.6.368,3.068-.564,4.344,1.411,8.554a15,15,0,0,1-1.074,1.178,19.252,19.252,0,0,1-3.927,3.068,20.3,20.3,0,0,1-6.6,2.454,20.793,20.793,0,0,1-6.081.233,19.21,19.21,0,0,1-5.731-1.546c-.442-.2-.393-.516-.816-.742.589-2.866,1.172,4.381-1.681-4.344Zm34.258-20.568a10.21,10.21,0,0,0,5.8,1.264,6.028,6.028,0,0,0,1.516-.4c2.516-1.037,4.688-3.9,5.952-9.818,1.35-6.345.037-8.916-2.123-9.658h-.031a3.067,3.067,0,0,1-.939.614c-1.166,1.166-5.743,1.368-6.492,2.669-.129.644-.276,1.331-.436,2.055-.068.319-.141.614-.215.982l-.11.5-.239,1.031a.247.247,0,0,1-.037.153c-.147.614-.295,1.27-.454,1.921-.049.215-.1.442-.16.663v.08c-.08.338-.172.681-.251,1.025s-.129.515-.2.779C880.735,571.684,880.214,573.746,879.643,575.863Z" transform="translate(-272.267 -116.838)" fill="#e88a78"/>
      <path id="Path_25869" data-name="Path 25869" d="M845.36,540.519,860.3,537.53a10.325,10.325,0,0,0-1.362-.613,12.6,12.6,0,0,0-12.156,2.166h0A10.731,10.731,0,0,0,845.36,540.519Z" transform="translate(-283.642 -110.039)" fill="#ffece6"/>
      <path id="Path_25870" data-name="Path 25870" d="M829.37,547.936h0c.141,1.78.362,3.927.614,6.326.38,3.363.9,7.228,1.485,11.254q.4,2.761.841,5.522c.614,3.878,3.645,7.56,7.363,10.732a60.347,60.347,0,0,0,7.535,5.375c1.8,1.1,3.528,2.05,4.989,2.817,1.884.988,3.338,1.657,4.007,1.964l.147.074.129.055.129-.043c.411-.135,1.313-.417,2.522-.853.816-.288,1.779-.614,2.835-1.061h0c1.9-.749,4.117-1.7,6.388-2.835a50.317,50.317,0,0,0,8.094-4.952c3.111-2.4,5.6-5.185,6.48-8.3.657-2.319,1.289-4.633,1.884-6.879.571-2.117,1.092-4.179,1.571-6.136.061-.264.129-.521.2-.779s.172-.693.252-1.025v-.08c.049-.221.11-.448.16-.663.159-.663.313-1.3.454-1.921a1.368,1.368,0,0,0,.037-.153q.123-.534.239-1.031l.11-.5c.074-.338.147-.663.215-.982.16-.724.307-1.417.436-2.056a.96.96,0,0,0-.086.2c-.141-.964-.282-1.933-.43-2.9-1.074-1.841-2.669-4.608-4.51-7.762l-.927-1.694L881.2,537.4l-1.006-1.718-1.031-1.743c-.546-.926-1.1-1.841-1.651-2.78a68.7,68.7,0,0,1-6.664,4.639,10.437,10.437,0,0,0-1.16.092l.546.276a75.473,75.473,0,0,1-36.675,10.566H831.72C831.6,546.746,829.45,548.022,829.37,547.936Z" transform="translate(-277.464 -108.087)" fill="#fbb089"/>
      <path id="Path_25871" data-name="Path 25871" d="M873.916,504.322Zm.792-39.461c-.129-.074-.258-.153-.393-.221a47.1,47.1,0,0,1,8.29,8.683A21.31,21.31,0,0,0,874.708,464.861Zm-20.476,39.48Zm4.3,5.921c-17.046,2.516-37.872,4.731-55.372,4.062.049.086.11.178.166.264h0c1.19,2.2,2.927,6.676,5,9.051a5.17,5.17,0,0,0,1.522,1.264.055.055,0,0,1,0-.031c.387-2.632,1.7-4.958,4.3-5.522,0,0,3.068,3.473,3.927,2.878h0c.08.086,2.2-1.19,2.307-1.19h1.841a75.529,75.529,0,0,0,36.755-10.585Zm-53.28-5.921h.006s-.012-.012-.012-.018Zm1.178-30.84.258.117a47.025,47.025,0,0,1,7.59-8.216,27.962,27.962,0,0,0-7.854,8.081Zm85.3,30.705c-.509,2.16-1.025,4.3-1.6,6.449-.338,1.27-.693,2.522-1.08,3.761q-1.915,3.921-3.817,7.842l-.387.374-.141.135h-.031a2.938,2.938,0,0,1-.939.614c-1.172,1.166-5.749,1.368-6.492,2.669a.833.833,0,0,0-.086.2l-.423-2.9-.166-1.117q-1.074-7.308-2.154-14.61c2.141-.38,4.13-.749,5.94-1.086,4.952-.933,8.541-1.675,10.21-2.031h.068l.982-.209v-.086Z" transform="translate(-266.178 -82.384)" fill="#38385c"/>
      <path id="Path_25872" data-name="Path 25872" d="M907.81,527.184l1.651,2.78,1.031,1.743c.338.577.681,1.148,1.006,1.718l1.338,2.264.994,1.7c1.841,3.154,3.436,5.9,4.51,7.762l-.166-1.117q-1.417-9.6-2.829-19.181h0c-.2-1.319-.393-2.638-.614-3.952-.4.411-.792.822-1.227,1.227A69.473,69.473,0,0,1,907.81,527.184Z" transform="translate(-307.772 -104.122)" fill="#e88a78"/>
      <path id="Path_25873" data-name="Path 25873" d="M884,471.666q.7.055,1.4.147c.393.049.785.1,1.178.172.264.043.528.086.8.141l.828.178.822.2c.362.092.73.19,1.092.3.466.135.933.282,1.387.442l.387.135c.307.11.614.215.908.337.172.061.35.135.515.209l.374.153c.147.055.282.117.423.184.43.19.847.387,1.264.614s.822.411,1.227.614c.221.117.436.233.65.362s.313.178.46.27h0l.129.08a3,3,0,0,1,.264.16l.344.209a35.142,35.142,0,0,1,3.976,2.909l.2.172a36.036,36.036,0,0,1,2.657,2.553c.123.129.245.264.362.4s.374.411.552.614.356.417.521.614.411.509.614.761c.123.153.233.307.344.46.2.264.387.534.577.81l.436.644c.1.147.2.3.282.448a2.363,2.363,0,0,1,.141.233l.159.252c.19.313.374.614.552.945s.35.614.509.97.325.65.479.982.295.663.436.994c.074.166.135.338.2.5.055-.153.11-.307.154-.466s.067-.209.1-.319v-.031a.393.393,0,0,0,.037-.111h0v-.031c.037-.117.067-.233.1-.35.08-.27.141-.54.2-.816a1.887,1.887,0,0,1,.061-.3c.018-.1.043-.2.055-.3s.055-.344.08-.509a.539.539,0,0,0,0-.092v-.135c0-.147.037-.288.049-.43v-.1c0-.221.043-.436.055-.657s0-.374,0-.558v-.939a.85.85,0,0,0,0-.178v-.693a5.771,5.771,0,0,0-.068-.724v-.08a5.031,5.031,0,0,0-.1-.736c-.037-.245-.061-.368-.1-.552s-.068-.368-.11-.552a1.68,1.68,0,0,0-.055-.239,1.631,1.631,0,0,0-.08-.331c-.024-.11-.074-.3-.123-.454s0-.129-.049-.19a2.342,2.342,0,0,1-.123-.417c-.11-.356-.233-.712-.368-1.062-.061-.16-.123-.325-.19-.485-.147-.356-.307-.712-.479-1.062-.061-.123-.117-.245-.184-.368h0c-.1-.209-.221-.417-.331-.614l-.209-.362c-.073-.123-.141-.245-.215-.362q-.221-.356-.46-.7l-.325-.46c-.166-.227-.344-.448-.516-.663a7.631,7.631,0,0,0-.546-.614c-.184-.184-.251-.282-.38-.411s-.368-.368-.558-.552l-.614-.528c-.135-.11-.264-.227-.4-.331l-.558-.43-.387-.276c-.2-.135-.393-.27-.614-.393l-.614-.368c-.141-.08-.276-.16-.423-.233s-.276-.147-.423-.215l-.393-.19-.552-.245-.417-.172-.184-.068-.2-.074-.393-.141-.5-.16c-.405-.123-.816-.233-1.227-.331l-.583-.123-.552-.1-.184-.031h-.092l-.46-.068c-.19,0-.38-.049-.577-.061h-.258l-.436-.031h-1.565c-.4,0-.785.031-1.178.068l-.387.037a5.528,5.528,0,0,0-.779.1h0l-.773.135c-.258.049-.516.1-.767.166s-.5.123-.755.2l-.693.215a1.148,1.148,0,0,0-.154.055l-.387.1-.227.08-.644.264c-.184.074-.356.16-.534.245l-.466.233a.482.482,0,0,0-.123.068l-.442.239A16.373,16.373,0,0,0,884,471.665Zm40.014,33.969v.086l-.982.209.706-.209Z" transform="translate(-298.572 -83.783)" fill="#82635a"/>
      <path id="Path_25874" data-name="Path 25874" d="M884.459,557.179l-14.948-5.67a13.039,13.039,0,0,1,14.948,5.67Zm-36.743-3.988-12.886,3.995A12.119,12.119,0,0,1,847.716,553.19Zm-4.6,4.13c1.7-.534,3.682,1.074,4.492,3.577s.037,4.97-1.663,5.523-3.719-1.074-4.5-3.583S841.408,557.848,843.114,557.32Zm28.244.368c1.779-.16,3.412,1.841,3.645,4.443S874,567,872.217,567.162s-3.406-1.841-3.639-4.449S869.585,557.848,871.358,557.688Z" transform="translate(-279.574 -115.728)" fill="#101029"/>
      <path id="Path_25875" data-name="Path 25875" d="M863.119,558.79q1.074,5.32,2.16,10.634a2.927,2.927,0,1,0-4.5,3.215l7.823,5.522" transform="translate(-289.123 -118.763)" fill="#fb6562"/>
      <path id="Path_25876" data-name="Path 25876" d="M862,593.023a23.207,23.207,0,0,0,25.428-9.492A14.653,14.653,0,0,1,878.31,598.5C872.382,600.723,865.117,598.435,862,593.023Z" transform="translate(-290.072 -128.322)" fill="#fff"/>
      <path id="Path_25877" data-name="Path 25877" d="M660.389,577.3q1.878-12.7,3.749-25.4c.344-2.313-2.246-4.3-4.559-3.952s-4.05,2.454-4.719,4.682a18.8,18.8,0,0,0-.282,6.965,24.174,24.174,0,0,0-7.615-2.111c-2.645-.135-5.486.743-7.057,2.872a13.156,13.156,0,0,0,8.658,20.814c.123.785.245,1.571.362,2.35A31.909,31.909,0,0,1,660.389,577.3Z" transform="translate(-203.267 -114.561)" fill="#fbb089"/>
      <path id="Path_25878" data-name="Path 25878" d="M674.051,547l-21.206,7.014q-1.025-4.608-1.994-9.48l15.954-6.59S669.608,541.3,674.051,547Zm159.981-52.488c0,1.049-.037,2.092-.1,3.117l-.282.086H740.192q-.111-1.583-.11-3.2c0-1.264.049-2.51.147-3.749a46.984,46.984,0,0,1,91.385-11.143c.35,1.037.656,2.092.933,3.16A47.1,47.1,0,0,1,834.031,494.516Z" transform="translate(-208.486 -75.781)" fill="#f75c3d"/>
      <path id="Path_25879" data-name="Path 25879" d="M878.84,529.272l-.706.209h-.068c-1.669.356-5.259,1.1-10.21,2.031-1.841.337-3.8.706-5.94,1.086-4.663.822-10.057,1.718-15.892,2.577-17.046,2.516-37.872,4.731-55.372,4.062-8.719-.325-16.6-1.374-22.8-3.455-.086-.031,0-.061,0-.147-.411-7.529,17.42-6.357,17.42-6.357H878.87Z" transform="translate(-253.681 -107.334)" fill="#e44531"/>
    </g>
  </g>
</svg>
