<svg xmlns="http://www.w3.org/2000/svg" width="21.545" height="21.545" viewBox="0 0 21.545 21.545">
  <g id="bulb" transform="translate(-10.938 -1.481)">
    <g id="Group_62198" data-name="Group 62198" transform="translate(10.938 1.482)">
      <g id="Layer_2" data-name="Layer 2" transform="translate(0 0)">
        <path id="Path_26262" data-name="Path 26262" d="M17.712,10.948a6.747,6.747,0,0,1-2.255,5.031,2.223,2.223,0,0,0-.722,1.233,1.632,1.632,0,0,0-.03.311v1.443a2.754,2.754,0,0,1-2.756,2.756h-2a2.754,2.754,0,0,1-2.756-2.756V17.622a2.734,2.734,0,0,0-.03-.411,2,2,0,0,0-.621-1.142,6.757,6.757,0,1,1,11.174-5.121Z" transform="translate(-0.175 -0.175)" fill="#ffc76c"/>
        <path id="Path_26263" data-name="Path 26263" d="M11.769,4.5a.752.752,0,0,1-.752-.752v-2a.752.752,0,1,1,1.5,0v2A.752.752,0,0,1,11.769,4.5Zm5.669,2.348a.752.752,0,0,1-.531-1.283l1.417-1.416a.752.752,0,0,1,1.061,1.061L17.97,6.632a.748.748,0,0,1-.532.22Zm4.352,5.669h-2a.752.752,0,1,1,0-1.5h2a.752.752,0,0,1,0,1.5ZM6.1,6.852a.744.744,0,0,1-.531-.22L4.153,5.215A.752.752,0,0,1,5.215,4.153L6.632,5.569A.752.752,0,0,1,6.1,6.852ZM3.752,12.521h-2a.752.752,0,1,1,0-1.5h2a.752.752,0,1,1,0,1.5Zm11.775,5.922v1.343a2.754,2.754,0,0,1-2.756,2.756h-2a2.754,2.754,0,0,1-2.756-2.756V18.443Z" transform="translate(-0.997 -0.997)" fill="#fcdca4"/>
      </g>
    </g>
  </g>
</svg>
