<svg id="Group_61969" data-name="Group 61969" xmlns="http://www.w3.org/2000/svg" width="20" height="20" viewBox="0 0 20 20">
  <path id="Path_26103" data-name="Path 26103" d="M11,14a2,2,0,0,0-4,0,.5.5,0,0,0,1,0,1,1,0,0,1,2,0,2.2,2.2,0,0,1-.53,1.43L7.12,18.17A.5.5,0,0,0,7.5,19h3a.5.5,0,0,0,0-1H8.59l1.64-1.92A3.2,3.2,0,0,0,11,14Z" transform="translate(-1.666 -2.467)" fill="#7f7f7f"/>
  <path id="Path_26104" data-name="Path 26104" d="M15.5,13a.5.5,0,0,0,0-1H13a.5.5,0,0,0-.49.42l-.5,3a.5.5,0,0,0,.85.44,1.261,1.261,0,0,1,.94-.35,1.21,1.21,0,0,1,1.2,1.2V17a1,1,0,0,1-2,0,.5.5,0,1,0-1,0,2,2,0,0,0,4,0v-.29A2.29,2.29,0,0,0,13.629,14.5a2.325,2.325,0,0,0-.469.066L13.42,13Z" transform="translate(-2.222 -2.467)" fill="#7f7f7f"/>
  <path id="Path_26105" data-name="Path 26105" d="M19.182,2.818H16.909a.455.455,0,0,0-.455.455V5.545a.909.909,0,1,1-1.209-.855.454.454,0,0,0,.3-.427V1.455a.455.455,0,1,0-.909,0V2.818H7.818a.455.455,0,0,0-.455.455V5.545a.909.909,0,1,1-1.209-.855.454.454,0,0,0,.3-.427V1.455a.455.455,0,1,0-.909,0V2.818H2.818A1.818,1.818,0,0,0,1,4.636V19.182A1.818,1.818,0,0,0,2.818,21H15.809a.908.908,0,0,0,.645-.264l4.282-4.282A.908.908,0,0,0,21,15.809V4.636A1.818,1.818,0,0,0,19.182,2.818ZM2.818,19.182V8.273H19.182v7.164l-.109.109H17.364a1.818,1.818,0,0,0-1.818,1.818v1.709l-.109.109Z" transform="translate(-1 -1)" fill="#7f7f7f"/>
</svg>
