<svg xmlns="http://www.w3.org/2000/svg" width="86.764" height="65.94" viewBox="0 0 86.764 65.94">
  <g id="camera" transform="translate(-2 9)">
    <circle id="Ellipse_17778" data-name="Ellipse 17778" cx="12.5" cy="12.5" r="12.5" transform="translate(32.882 18.47)" fill="#8f95a3"/>
    <path id="Path_31194" data-name="Path 31194" d="M81.823,15.412H70.443a3.471,3.471,0,0,1-3.294-2.375l-1.1-3.293A6.941,6.941,0,0,0,59.465,5H31.295a6.941,6.941,0,0,0-6.584,4.748l-1.1,3.29a3.471,3.471,0,0,1-3.294,2.374H8.941A6.941,6.941,0,0,0,2,22.353V64A6.941,6.941,0,0,0,8.941,70.94H81.823A6.941,6.941,0,0,0,88.764,64V22.353A6.941,6.941,0,0,0,81.823,15.412ZM45.382,64A19.088,19.088,0,1,1,64.47,44.911,19.113,19.113,0,0,1,45.382,64ZM66.205,29.294a3.471,3.471,0,1,1,3.471-3.471A3.471,3.471,0,0,1,66.205,29.294Z" transform="translate(0 -14)" fill="#8f95a3"/>
  </g>
</svg>
