<svg width="244" height="148" viewBox="0 0 244 148" fill="none" xmlns="http://www.w3.org/2000/svg">
<g filter="url(#filter0_d_20_3)">
<path d="M224.368 0.539673H20.5356C15.2162 0.539673 10.904 4.69067 10.904 9.81118V118.082C10.904 123.203 15.2162 127.354 20.5356 127.354H224.368C229.688 127.354 234 123.203 234 118.082V9.81118C234 4.69067 229.688 0.539673 224.368 0.539673Z" fill="url(#paint0_linear_20_3)"/>
</g>
<mask id="mask0_20_3" style="mask-type:luminance" maskUnits="userSpaceOnUse" x="10" y="0" width="224" height="128">
<path d="M224.368 0.325684H20.5356C15.2162 0.325684 10.904 4.47668 10.904 9.59719V117.868C10.904 122.989 15.2162 127.14 20.5356 127.14H224.368C229.688 127.14 234 122.989 234 117.868V9.59719C234 4.47668 229.688 0.325684 224.368 0.325684Z" fill="white"/>
</mask>
<g mask="url(#mask0_20_3)">
<g filter="url(#filter1_d_20_3)">
<path d="M-59.3405 145.668C-59.3405 145.668 -63.6969 53.3708 -39.6328 12.2189C-15.5687 -28.9331 11.4145 3.78111 45.0131 -15.3539C78.6117 -34.4888 67.8569 -51.9827 94.7483 -64.321C121.64 -76.6592 126.126 -56.8403 144.482 -68.292C162.838 -79.7438 178.864 -128.534 178.864 -128.534L284.855 145.668L43.1623 123.666L-59.3405 145.668Z" fill="url(#paint1_linear_20_3)"/>
</g>
<g filter="url(#filter2_d_20_3)">
<path d="M-73.0877 156.321C-73.0877 156.321 -22.1716 92.5023 40.93 55.892C88.5018 28.2914 99.8248 58.968 141.457 39.9165C183.089 20.865 193.404 -6.50523 219.865 -19.1887C249.072 -33.1879 181.498 -33.3812 201.433 -46.3741C221.369 -59.3671 263.729 -97.1749 263.729 -97.1749L310.795 145.961L51.2477 159.44L-73.0877 156.321Z" fill="url(#paint2_linear_20_3)"/>
</g>
<g filter="url(#filter3_d_20_3)">
<path d="M-60.2777 196.057C-60.2777 196.057 11.599 107.427 53.8401 85.8097C96.0812 64.1928 117.621 80.4108 152.263 69.0654C186.905 57.7199 193.387 19.4521 224.722 7.11387C256.057 -5.22436 262.272 5.12691 283.657 -6.32482C305.043 -17.7766 295.518 -49.5621 295.518 -49.5621L289.393 169.018L94.6809 175.246L79.5564 170.978L-60.2777 196.057Z" fill="url(#paint3_linear_20_3)"/>
</g>
<g filter="url(#filter4_d_20_3)">
<path d="M-22.4553 200.607C-22.4553 200.607 38.9711 122.678 77.7212 109.56C116.471 96.4427 138.218 109.703 172.86 98.3591C207.501 87.015 221.554 51.5551 252.886 39.2168C284.218 26.8786 284.06 38.336 305.447 26.8843C326.834 15.4326 369.062 -9.89435 369.062 -9.89435L362.936 208.686L168.224 214.913L153.1 210.646L-22.4553 200.607Z" fill="url(#paint4_linear_20_3)"/>
</g>
<g filter="url(#filter5_d_20_3)">
<path d="M12.5051 33.89C43.4094 33.89 68.4623 9.98476 68.4623 -19.5039C68.4623 -48.9925 43.4094 -72.8978 12.5051 -72.8978C-18.3992 -72.8978 -43.4521 -48.9925 -43.4521 -19.5039C-43.4521 9.98476 -18.3992 33.89 12.5051 33.89Z" fill="#612F30"/>
</g>
</g>
<path d="M28.2 112L26.74 109.35H26.33V112H24.62V104.98H27.49C28.0433 104.98 28.5133 105.077 28.9 105.27C29.2933 105.463 29.5867 105.73 29.78 106.07C29.9733 106.403 30.07 106.777 30.07 107.19C30.07 107.657 29.9367 108.073 29.67 108.44C29.41 108.807 29.0233 109.067 28.51 109.22L30.13 112H28.2ZM26.33 108.14H27.39C27.7033 108.14 27.9367 108.063 28.09 107.91C28.25 107.757 28.33 107.54 28.33 107.26C28.33 106.993 28.25 106.783 28.09 106.63C27.9367 106.477 27.7033 106.4 27.39 106.4H26.33V108.14ZM36.4034 109.12C36.4034 109.28 36.3934 109.447 36.3734 109.62H32.5034C32.5301 109.967 32.6401 110.233 32.8334 110.42C33.0334 110.6 33.2768 110.69 33.5634 110.69C33.9901 110.69 34.2868 110.51 34.4534 110.15H36.2734C36.1801 110.517 36.0101 110.847 35.7634 111.14C35.5234 111.433 35.2201 111.663 34.8534 111.83C34.4868 111.997 34.0768 112.08 33.6234 112.08C33.0768 112.08 32.5901 111.963 32.1634 111.73C31.7368 111.497 31.4034 111.163 31.1634 110.73C30.9234 110.297 30.8034 109.79 30.8034 109.21C30.8034 108.63 30.9201 108.123 31.1534 107.69C31.3934 107.257 31.7268 106.923 32.1534 106.69C32.5801 106.457 33.0701 106.34 33.6234 106.34C34.1634 106.34 34.6434 106.453 35.0634 106.68C35.4834 106.907 35.8101 107.23 36.0434 107.65C36.2834 108.07 36.4034 108.56 36.4034 109.12ZM34.6534 108.67C34.6534 108.377 34.5534 108.143 34.3534 107.97C34.1534 107.797 33.9034 107.71 33.6034 107.71C33.3168 107.71 33.0734 107.793 32.8734 107.96C32.6801 108.127 32.5601 108.363 32.5134 108.67H34.6534ZM39.0155 107.21C39.1755 106.95 39.4055 106.74 39.7055 106.58C40.0055 106.42 40.3489 106.34 40.7355 106.34C41.1955 106.34 41.6122 106.457 41.9855 106.69C42.3589 106.923 42.6522 107.257 42.8655 107.69C43.0855 108.123 43.1955 108.627 43.1955 109.2C43.1955 109.773 43.0855 110.28 42.8655 110.72C42.6522 111.153 42.3589 111.49 41.9855 111.73C41.6122 111.963 41.1955 112.08 40.7355 112.08C40.3422 112.08 39.9989 112.003 39.7055 111.85C39.4122 111.69 39.1822 111.48 39.0155 111.22V112H37.3055V104.6H39.0155V107.21ZM41.4555 109.2C41.4555 108.773 41.3355 108.44 41.0955 108.2C40.8622 107.953 40.5722 107.83 40.2255 107.83C39.8855 107.83 39.5955 107.953 39.3555 108.2C39.1222 108.447 39.0055 108.783 39.0055 109.21C39.0055 109.637 39.1222 109.973 39.3555 110.22C39.5955 110.467 39.8855 110.59 40.2255 110.59C40.5655 110.59 40.8555 110.467 41.0955 110.22C41.3355 109.967 41.4555 109.627 41.4555 109.2ZM43.7527 109.2C43.7527 108.627 43.8593 108.123 44.0727 107.69C44.2927 107.257 44.5893 106.923 44.9627 106.69C45.336 106.457 45.7527 106.34 46.2127 106.34C46.606 106.34 46.9493 106.42 47.2427 106.58C47.5427 106.74 47.7727 106.95 47.9327 107.21V106.42H49.6427V112H47.9327V111.21C47.766 111.47 47.5327 111.68 47.2327 111.84C46.9393 112 46.596 112.08 46.2027 112.08C45.7493 112.08 45.336 111.963 44.9627 111.73C44.5893 111.49 44.2927 111.153 44.0727 110.72C43.8593 110.28 43.7527 109.773 43.7527 109.2ZM47.9327 109.21C47.9327 108.783 47.8127 108.447 47.5727 108.2C47.3393 107.953 47.0527 107.83 46.7127 107.83C46.3727 107.83 46.0827 107.953 45.8427 108.2C45.6093 108.44 45.4927 108.773 45.4927 109.2C45.4927 109.627 45.6093 109.967 45.8427 110.22C46.0827 110.467 46.3727 110.59 46.7127 110.59C47.0527 110.59 47.3393 110.467 47.5727 110.22C47.8127 109.973 47.9327 109.637 47.9327 109.21ZM54.7089 110.68H56.9489V112H52.9989V104.98H54.7089V110.68ZM63.2745 106.42V112H61.5645V111.24C61.3912 111.487 61.1545 111.687 60.8545 111.84C60.5612 111.987 60.2345 112.06 59.8745 112.06C59.4479 112.06 59.0712 111.967 58.7445 111.78C58.4179 111.587 58.1645 111.31 57.9845 110.95C57.8045 110.59 57.7145 110.167 57.7145 109.68V106.42H59.4145V109.45C59.4145 109.823 59.5112 110.113 59.7045 110.32C59.8979 110.527 60.1579 110.63 60.4845 110.63C60.8179 110.63 61.0812 110.527 61.2745 110.32C61.4679 110.113 61.5645 109.823 61.5645 109.45V106.42H63.2745ZM69.7628 109.12C69.7628 109.28 69.7528 109.447 69.7328 109.62H65.8628C65.8895 109.967 65.9995 110.233 66.1928 110.42C66.3928 110.6 66.6361 110.69 66.9228 110.69C67.3495 110.69 67.6461 110.51 67.8128 110.15H69.6328C69.5395 110.517 69.3695 110.847 69.1228 111.14C68.8828 111.433 68.5795 111.663 68.2128 111.83C67.8461 111.997 67.4361 112.08 66.9828 112.08C66.4361 112.08 65.9495 111.963 65.5228 111.73C65.0961 111.497 64.7628 111.163 64.5228 110.73C64.2828 110.297 64.1628 109.79 64.1628 109.21C64.1628 108.63 64.2795 108.123 64.5128 107.69C64.7528 107.257 65.0861 106.923 65.5128 106.69C65.9395 106.457 66.4295 106.34 66.9828 106.34C67.5228 106.34 68.0028 106.453 68.4228 106.68C68.8428 106.907 69.1695 107.23 69.4028 107.65C69.6428 108.07 69.7628 108.56 69.7628 109.12ZM68.0128 108.67C68.0128 108.377 67.9128 108.143 67.7128 107.97C67.5128 107.797 67.2628 107.71 66.9628 107.71C66.6761 107.71 66.4328 107.793 66.2328 107.96C66.0395 108.127 65.9195 108.363 65.8728 108.67H68.0128ZM71.5249 105.84C71.2249 105.84 70.9783 105.753 70.7849 105.58C70.5983 105.4 70.5049 105.18 70.5049 104.92C70.5049 104.653 70.5983 104.433 70.7849 104.26C70.9783 104.08 71.2249 103.99 71.5249 103.99C71.8183 103.99 72.0583 104.08 72.2449 104.26C72.4383 104.433 72.5349 104.653 72.5349 104.92C72.5349 105.18 72.4383 105.4 72.2449 105.58C72.0583 105.753 71.8183 105.84 71.5249 105.84ZM72.3749 106.42V112H70.6649V106.42H72.3749ZM75.3241 104.6V112H73.6141V104.6H75.3241ZM84.5734 106.42L83.0634 112H81.1734L80.2934 108.38L79.3834 112H77.5034L75.9834 106.42H77.6934L78.4834 110.41L79.4234 106.42H81.2334L82.1834 110.39L82.9634 106.42H84.5734ZM86.0855 105.84C85.7855 105.84 85.5388 105.753 85.3455 105.58C85.1588 105.4 85.0655 105.18 85.0655 104.92C85.0655 104.653 85.1588 104.433 85.3455 104.26C85.5388 104.08 85.7855 103.99 86.0855 103.99C86.3788 103.99 86.6188 104.08 86.8055 104.26C86.9988 104.433 87.0955 104.653 87.0955 104.92C87.0955 105.18 86.9988 105.4 86.8055 105.58C86.6188 105.753 86.3788 105.84 86.0855 105.84ZM86.9355 106.42V112H85.2255V106.42H86.9355ZM91.2847 110.55V112H90.4147C89.7947 112 89.3114 111.85 88.9647 111.55C88.618 111.243 88.4447 110.747 88.4447 110.06V107.84H87.7647V106.42H88.4447V105.06H90.1547V106.42H91.2747V107.84H90.1547V110.08C90.1547 110.247 90.1947 110.367 90.2747 110.44C90.3547 110.513 90.488 110.55 90.6747 110.55H91.2847ZM93.8372 110.59H96.2572V112H91.9272V110.64L94.2472 107.83H91.9472V106.42H96.2072V107.78L93.8372 110.59Z" fill="white"/>
<path d="M25.3445 12.6888V14.7768H27.4645V15.2408H25.3445V17.3608H27.7045V17.8248H24.7845V12.2248H27.7045V12.6888H25.3445ZM31.0959 17.8248L29.9679 16.0648L28.8799 17.8248H28.2879L29.6959 15.6408L28.3039 13.4568H28.9359L30.0479 15.1928L31.1279 13.4568H31.7119L30.3199 15.6168L31.7279 17.8248H31.0959ZM33.0396 14.4168C33.1783 14.1234 33.3969 13.8808 33.6956 13.6888C33.9996 13.4914 34.3596 13.3928 34.7756 13.3928C35.1703 13.3928 35.5249 13.4861 35.8396 13.6728C36.1596 13.8541 36.4076 14.1154 36.5836 14.4568C36.7649 14.7928 36.8556 15.1848 36.8556 15.6328C36.8556 16.0808 36.7649 16.4754 36.5836 16.8168C36.4076 17.1581 36.1596 17.4221 35.8396 17.6088C35.5249 17.7954 35.1703 17.8888 34.7756 17.8888C34.3649 17.8888 34.0076 17.7928 33.7036 17.6008C33.3996 17.4034 33.1783 17.1581 33.0396 16.8648V19.8888H32.4876V13.4568H33.0396V14.4168ZM36.2876 15.6328C36.2876 15.2701 36.2156 14.9581 36.0716 14.6968C35.9329 14.4301 35.7409 14.2274 35.4956 14.0888C35.2503 13.9501 34.9729 13.8808 34.6636 13.8808C34.3649 13.8808 34.0903 13.9528 33.8396 14.0968C33.5943 14.2408 33.3996 14.4461 33.2556 14.7128C33.1116 14.9794 33.0396 15.2888 33.0396 15.6408C33.0396 15.9928 33.1116 16.3021 33.2556 16.5688C33.3996 16.8354 33.5943 17.0408 33.8396 17.1848C34.0903 17.3288 34.3649 17.4008 34.6636 17.4008C34.9729 17.4008 35.2503 17.3314 35.4956 17.1928C35.7409 17.0488 35.9329 16.8434 36.0716 16.5768C36.2156 16.3048 36.2876 15.9901 36.2876 15.6328ZM38.166 12.6328C38.054 12.6328 37.958 12.5928 37.878 12.5128C37.798 12.4328 37.758 12.3341 37.758 12.2168C37.758 12.0994 37.798 12.0034 37.878 11.9288C37.958 11.8488 38.054 11.8088 38.166 11.8088C38.278 11.8088 38.374 11.8488 38.454 11.9288C38.534 12.0034 38.574 12.0994 38.574 12.2168C38.574 12.3341 38.534 12.4328 38.454 12.5128C38.374 12.5928 38.278 12.6328 38.166 12.6328ZM38.446 13.4568V17.8248H37.886V13.4568H38.446ZM40.2742 14.2328C40.3968 13.9608 40.5835 13.7501 40.8342 13.6008C41.0902 13.4514 41.4022 13.3768 41.7702 13.3768V13.9608H41.6182C41.2128 13.9608 40.8875 14.0701 40.6422 14.2888C40.3968 14.5074 40.2742 14.8728 40.2742 15.3848V17.8248H39.7142V13.4568H40.2742V14.2328ZM46.5646 15.4168C46.5646 15.6088 46.5593 15.7554 46.5486 15.8568H42.9246C42.9406 16.1874 43.0206 16.4701 43.1646 16.7048C43.3086 16.9394 43.4979 17.1181 43.7326 17.2408C43.9673 17.3581 44.2233 17.4168 44.5006 17.4168C44.8633 17.4168 45.1673 17.3288 45.4126 17.1528C45.6633 16.9768 45.8286 16.7394 45.9086 16.4408H46.5006C46.3939 16.8674 46.1646 17.2168 45.8126 17.4888C45.4659 17.7554 45.0286 17.8888 44.5006 17.8888C44.0899 17.8888 43.7219 17.7981 43.3966 17.6168C43.0713 17.4301 42.8153 17.1688 42.6286 16.8328C42.4473 16.4914 42.3566 16.0941 42.3566 15.6408C42.3566 15.1874 42.4473 14.7901 42.6286 14.4488C42.8099 14.1074 43.0633 13.8461 43.3886 13.6648C43.7139 13.4834 44.0846 13.3928 44.5006 13.3928C44.9166 13.3928 45.2793 13.4834 45.5886 13.6648C45.9033 13.8461 46.1433 14.0914 46.3086 14.4008C46.4793 14.7048 46.5646 15.0434 46.5646 15.4168ZM45.9966 15.4008C46.0019 15.0754 45.9353 14.7981 45.7966 14.5688C45.6633 14.3394 45.4793 14.1661 45.2446 14.0488C45.0099 13.9314 44.7539 13.8728 44.4766 13.8728C44.0606 13.8728 43.7059 14.0061 43.4126 14.2728C43.1193 14.5394 42.9566 14.9154 42.9246 15.4008H45.9966ZM49.0932 17.8888C48.5918 17.8888 48.1812 17.7741 47.8612 17.5448C47.5465 17.3101 47.3705 16.9928 47.3332 16.5928H47.9092C47.9358 16.8381 48.0505 17.0381 48.2532 17.1928C48.4612 17.3421 48.7385 17.4168 49.0852 17.4168C49.3892 17.4168 49.6265 17.3448 49.7972 17.2008C49.9732 17.0568 50.0612 16.8781 50.0612 16.6648C50.0612 16.5154 50.0132 16.3928 49.9172 16.2968C49.8212 16.2008 49.6985 16.1261 49.5492 16.0728C49.4052 16.0141 49.2078 15.9528 48.9572 15.8888C48.6318 15.8034 48.3678 15.7181 48.1652 15.6328C47.9625 15.5474 47.7892 15.4221 47.6452 15.2568C47.5065 15.0861 47.4372 14.8594 47.4372 14.5768C47.4372 14.3634 47.5012 14.1661 47.6292 13.9848C47.7572 13.8034 47.9385 13.6594 48.1732 13.5528C48.4078 13.4461 48.6745 13.3928 48.9732 13.3928C49.4425 13.3928 49.8212 13.5128 50.1092 13.7528C50.3972 13.9874 50.5518 14.3128 50.5732 14.7288H50.0132C49.9972 14.4728 49.8958 14.2674 49.7092 14.1128C49.5278 13.9528 49.2772 13.8728 48.9572 13.8728C48.6745 13.8728 48.4452 13.9394 48.2692 14.0728C48.0932 14.2061 48.0052 14.3714 48.0052 14.5688C48.0052 14.7394 48.0558 14.8808 48.1572 14.9928C48.2638 15.0994 48.3945 15.1848 48.5492 15.2488C48.7038 15.3074 48.9118 15.3741 49.1732 15.4488C49.4878 15.5341 49.7385 15.6168 49.9252 15.6968C50.1118 15.7768 50.2718 15.8941 50.4052 16.0488C50.5385 16.2034 50.6078 16.4088 50.6132 16.6648C50.6132 16.8994 50.5492 17.1101 50.4212 17.2968C50.2932 17.4781 50.1145 17.6221 49.8852 17.7288C49.6558 17.8354 49.3918 17.8888 49.0932 17.8888ZM55.7746 17.8888C55.3639 17.8888 54.9933 17.7981 54.6626 17.6168C54.3373 17.4301 54.0786 17.1688 53.8866 16.8328C53.6999 16.4914 53.6066 16.0941 53.6066 15.6408C53.6066 15.1874 53.7026 14.7928 53.8946 14.4568C54.0866 14.1154 54.3479 13.8541 54.6786 13.6728C55.0093 13.4861 55.3799 13.3928 55.7906 13.3928C56.2013 13.3928 56.5719 13.4861 56.9026 13.6728C57.2386 13.8541 57.4999 14.1154 57.6866 14.4568C57.8786 14.7928 57.9746 15.1874 57.9746 15.6408C57.9746 16.0888 57.8786 16.4834 57.6866 16.8248C57.4946 17.1661 57.2306 17.4301 56.8946 17.6168C56.5586 17.7981 56.1853 17.8888 55.7746 17.8888ZM55.7746 17.4008C56.0626 17.4008 56.3293 17.3368 56.5746 17.2088C56.8199 17.0754 57.0173 16.8781 57.1666 16.6168C57.3213 16.3501 57.3986 16.0248 57.3986 15.6408C57.3986 15.2568 57.3239 14.9341 57.1746 14.6728C57.0253 14.4061 56.8279 14.2088 56.5826 14.0808C56.3373 13.9474 56.0706 13.8808 55.7826 13.8808C55.4946 13.8808 55.2279 13.9474 54.9826 14.0808C54.7373 14.2088 54.5399 14.4061 54.3906 14.6728C54.2466 14.9341 54.1746 15.2568 54.1746 15.6408C54.1746 16.0248 54.2466 16.3501 54.3906 16.6168C54.5399 16.8781 54.7346 17.0754 54.9746 17.2088C55.2199 17.3368 55.4866 17.4008 55.7746 17.4008ZM61.0434 13.3768C61.5661 13.3768 61.9927 13.5394 62.3234 13.8648C62.6541 14.1848 62.8194 14.6514 62.8194 15.2648V17.8248H62.2674V15.3288C62.2674 14.8541 62.1474 14.4914 61.9074 14.2408C61.6727 13.9901 61.3501 13.8648 60.9394 13.8648C60.5181 13.8648 60.1821 13.9981 59.9314 14.2648C59.6807 14.5314 59.5554 14.9234 59.5554 15.4408V17.8248H58.9954V13.4568H59.5554V14.2008C59.6941 13.9341 59.8941 13.7314 60.1554 13.5928C60.4167 13.4488 60.7127 13.3768 61.0434 13.3768Z" fill="white"/>
<path d="M24.6645 25.4924C24.6645 24.5751 24.8058 23.8631 25.0885 23.3564C25.3711 22.8497 25.8778 22.5964 26.6085 22.5964C27.3391 22.5964 27.8458 22.8497 28.1285 23.3564C28.4111 23.8631 28.5525 24.5751 28.5525 25.4924C28.5525 26.4257 28.4111 27.1484 28.1285 27.6604C27.8458 28.1724 27.3391 28.4284 26.6085 28.4284C25.8725 28.4284 25.3631 28.1724 25.0805 27.6604C24.8031 27.1484 24.6645 26.4257 24.6645 25.4924ZM28.0005 25.4924C28.0005 24.9964 27.9658 24.5777 27.8965 24.2364C27.8271 23.8951 27.6911 23.6204 27.4885 23.4124C27.2858 23.2044 26.9925 23.1004 26.6085 23.1004C26.2245 23.1004 25.9311 23.2044 25.7285 23.4124C25.5258 23.6204 25.3898 23.8951 25.3205 24.2364C25.2511 24.5777 25.2165 24.9964 25.2165 25.4924C25.2165 26.0044 25.2511 26.4337 25.3205 26.7804C25.3898 27.1217 25.5258 27.3964 25.7285 27.6044C25.9311 27.8124 26.2245 27.9164 26.6085 27.9164C26.9925 27.9164 27.2858 27.8124 27.4885 27.6044C27.6911 27.3964 27.8271 27.1217 27.8965 26.7804C27.9658 26.4337 28.0005 26.0044 28.0005 25.4924ZM30.7062 25.4364C30.3755 25.3297 30.1222 25.1617 29.9462 24.9324C29.7755 24.7031 29.6902 24.4257 29.6902 24.1004C29.6902 23.8124 29.7622 23.5564 29.9062 23.3324C30.0555 23.1031 30.2715 22.9244 30.5542 22.7964C30.8368 22.6631 31.1755 22.5964 31.5702 22.5964C31.9648 22.5964 32.3035 22.6631 32.5862 22.7964C32.8688 22.9244 33.0822 23.1031 33.2262 23.3324C33.3755 23.5564 33.4502 23.8124 33.4502 24.1004C33.4502 24.4204 33.3622 24.6977 33.1862 24.9324C33.0155 25.1671 32.7648 25.3351 32.4342 25.4364C32.7968 25.5271 33.0822 25.7004 33.2902 25.9564C33.4982 26.2124 33.6022 26.5244 33.6022 26.8924C33.6022 27.2337 33.5168 27.5324 33.3462 27.7884C33.1808 28.0391 32.9435 28.2337 32.6342 28.3724C32.3302 28.5111 31.9755 28.5804 31.5702 28.5804C31.1648 28.5804 30.8075 28.5111 30.4982 28.3724C30.1942 28.2337 29.9568 28.0391 29.7862 27.7884C29.6208 27.5324 29.5382 27.2337 29.5382 26.8924C29.5382 26.5244 29.6422 26.2124 29.8502 25.9564C30.0582 25.7004 30.3435 25.5271 30.7062 25.4364ZM32.9062 24.1644C32.9062 23.8124 32.7862 23.5404 32.5462 23.3484C32.3062 23.1564 31.9808 23.0604 31.5702 23.0604C31.1595 23.0604 30.8342 23.1564 30.5942 23.3484C30.3542 23.5351 30.2342 23.8071 30.2342 24.1644C30.2342 24.4951 30.3568 24.7591 30.6022 24.9564C30.8475 25.1537 31.1702 25.2524 31.5702 25.2524C31.9702 25.2524 32.2928 25.1537 32.5382 24.9564C32.7835 24.7591 32.9062 24.4951 32.9062 24.1644ZM31.5702 25.6844C31.1328 25.6844 30.7755 25.7831 30.4982 25.9804C30.2208 26.1777 30.0822 26.4764 30.0822 26.8764C30.0822 27.2604 30.2155 27.5617 30.4822 27.7804C30.7488 27.9991 31.1115 28.1084 31.5702 28.1084C32.0235 28.1084 32.3835 27.9991 32.6502 27.7804C32.9168 27.5564 33.0502 27.2551 33.0502 26.8764C33.0502 26.4817 32.9115 26.1857 32.6342 25.9884C32.3622 25.7857 32.0075 25.6844 31.5702 25.6844ZM37.1943 20.8924L34.9863 29.7404H34.4343L36.6263 20.8924H37.1943ZM38.0056 27.9724C38.9869 27.2364 39.7443 26.5777 40.2776 25.9964C40.8163 25.4097 41.0856 24.8364 41.0856 24.2764C41.0856 23.9084 40.9923 23.6151 40.8056 23.3964C40.6243 23.1724 40.3256 23.0604 39.9096 23.0604C39.5043 23.0604 39.1896 23.1884 38.9656 23.4444C38.7469 23.6951 38.6243 24.0311 38.5976 24.4524H38.0536C38.0856 23.8604 38.2669 23.4017 38.5976 23.0764C38.9336 22.7457 39.3709 22.5804 39.9096 22.5804C40.4269 22.5804 40.8456 22.7271 41.1656 23.0204C41.4856 23.3084 41.6456 23.7191 41.6456 24.2524C41.6456 24.8977 41.3763 25.5244 40.8376 26.1324C40.3043 26.7351 39.6456 27.3244 38.8616 27.9004H41.8216V28.3724H38.0056V27.9724ZM46.3117 23.1564H43.3837V25.2044C43.5171 25.0177 43.7117 24.8657 43.9677 24.7484C44.2237 24.6257 44.5011 24.5644 44.7997 24.5644C45.2371 24.5644 45.5944 24.6551 45.8717 24.8364C46.1491 25.0124 46.3491 25.2444 46.4717 25.5324C46.5944 25.8151 46.6557 26.1191 46.6557 26.4444C46.6557 26.8177 46.5837 27.1564 46.4397 27.4604C46.3011 27.7591 46.0851 27.9964 45.7917 28.1724C45.5037 28.3484 45.1437 28.4364 44.7117 28.4364C44.1624 28.4364 43.7171 28.2951 43.3757 28.0124C43.0344 27.7244 42.8264 27.3377 42.7517 26.8524H43.3037C43.3731 27.2044 43.5331 27.4764 43.7837 27.6684C44.0344 27.8604 44.3437 27.9564 44.7117 27.9564C45.1757 27.9564 45.5251 27.8204 45.7597 27.5484C45.9997 27.2711 46.1197 26.9057 46.1197 26.4524C46.1197 26.0097 45.9997 25.6657 45.7597 25.4204C45.5197 25.1697 45.1757 25.0444 44.7277 25.0444C44.4184 25.0444 44.1464 25.1164 43.9117 25.2604C43.6771 25.4044 43.5037 25.5991 43.3917 25.8444H42.8637V22.6684H46.3117V23.1564Z" fill="white"/>
<path d="M222.555 114.29V113.818H222.428L222.28 114.141L222.133 113.818H222.005V114.29H222.095V113.933L222.232 114.241H222.328L222.466 113.933V114.29H222.555ZM221.745 114.29V113.898H221.909V113.818H221.491V113.898H221.655V114.29H221.745Z" fill="#F79410"/>
<path d="M208.035 116.315H196.979V97.1894H208.035V116.315Z" fill="#FF5F00"/>
<path d="M197.68 106.753C197.679 104.911 198.112 103.093 198.948 101.436C199.784 99.7792 201.001 98.3273 202.506 97.1901C200.642 95.7796 198.404 94.9025 196.046 94.6589C193.689 94.4153 191.308 94.8151 189.175 95.8126C187.043 96.8101 185.245 98.365 183.987 100.3C182.729 102.234 182.062 104.471 182.062 106.753C182.062 109.035 182.729 111.272 183.987 113.206C185.245 115.141 187.043 116.696 189.175 117.693C191.308 118.691 193.689 119.091 196.046 118.847C198.404 118.603 200.642 117.726 202.506 116.316C201.001 115.179 199.784 113.727 198.948 112.07C198.112 110.413 197.679 108.594 197.68 106.753Z" fill="#EB001B"/>
<path d="M222.95 106.753C222.95 109.035 222.283 111.271 221.025 113.206C219.767 115.14 217.969 116.695 215.837 117.692C213.704 118.69 211.323 119.09 208.966 118.846C206.609 118.602 204.37 117.725 202.506 116.315C204.012 115.178 205.228 113.726 206.064 112.069C206.901 110.413 207.334 108.594 207.332 106.753C207.334 104.911 206.901 103.093 206.064 101.436C205.228 99.7791 204.012 98.3272 202.506 97.1901C204.37 95.7797 206.609 94.9026 208.966 94.6591C211.323 94.4155 213.704 94.8153 215.837 95.8128C217.969 96.8102 219.767 98.3651 221.025 100.3C222.283 102.234 222.95 104.47 222.95 106.753Z" fill="#F79E1B"/>
<path d="M29.0965 53.6612H24.8845V56.3972C25.0685 56.1412 25.3405 55.9332 25.7005 55.7732C26.0605 55.6052 26.4485 55.5212 26.8645 55.5212C27.5285 55.5212 28.0685 55.6612 28.4845 55.9412C28.9005 56.2132 29.1965 56.5692 29.3725 57.0092C29.5565 57.4412 29.6485 57.9012 29.6485 58.3892C29.6485 58.9652 29.5405 59.4812 29.3245 59.9372C29.1085 60.3932 28.7765 60.7532 28.3285 61.0172C27.8885 61.2812 27.3405 61.4132 26.6845 61.4132C25.8445 61.4132 25.1645 61.1972 24.6445 60.7652C24.1245 60.3332 23.8085 59.7572 23.6965 59.0372H24.7645C24.8685 59.4932 25.0885 59.8492 25.4245 60.1052C25.7605 60.3612 26.1845 60.4892 26.6965 60.4892C27.3285 60.4892 27.8045 60.3012 28.1245 59.9252C28.4445 59.5412 28.6045 59.0372 28.6045 58.4132C28.6045 57.7892 28.4445 57.3092 28.1245 56.9732C27.8045 56.6292 27.3325 56.4572 26.7085 56.4572C26.2845 56.4572 25.9125 56.5612 25.5925 56.7692C25.2805 56.9692 25.0525 57.2452 24.9085 57.5972H23.8765V52.7012H29.0965V53.6612ZM36.6317 53.6612H32.4197V56.3972C32.6037 56.1412 32.8757 55.9332 33.2357 55.7732C33.5957 55.6052 33.9837 55.5212 34.3997 55.5212C35.0637 55.5212 35.6037 55.6612 36.0197 55.9412C36.4357 56.2132 36.7317 56.5692 36.9077 57.0092C37.0917 57.4412 37.1837 57.9012 37.1837 58.3892C37.1837 58.9652 37.0757 59.4812 36.8597 59.9372C36.6437 60.3932 36.3117 60.7532 35.8637 61.0172C35.4237 61.2812 34.8757 61.4132 34.2197 61.4132C33.3797 61.4132 32.6997 61.1972 32.1797 60.7652C31.6597 60.3332 31.3437 59.7572 31.2317 59.0372H32.2997C32.4037 59.4932 32.6237 59.8492 32.9597 60.1052C33.2957 60.3612 33.7197 60.4892 34.2317 60.4892C34.8637 60.4892 35.3397 60.3012 35.6597 59.9252C35.9797 59.5412 36.1397 59.0372 36.1397 58.4132C36.1397 57.7892 35.9797 57.3092 35.6597 56.9732C35.3397 56.6292 34.8677 56.4572 34.2437 56.4572C33.8197 56.4572 33.4477 56.5612 33.1277 56.7692C32.8157 56.9692 32.5877 57.2452 32.4437 57.5972H31.4117V52.7012H36.6317V53.6612ZM38.6108 54.8972C38.6668 54.1612 38.9508 53.5852 39.4628 53.1692C39.9748 52.7532 40.6388 52.5452 41.4548 52.5452C41.9988 52.5452 42.4668 52.6452 42.8588 52.8452C43.2588 53.0372 43.5588 53.3012 43.7588 53.6372C43.9668 53.9732 44.0708 54.3532 44.0708 54.7772C44.0708 55.2732 43.9268 55.7012 43.6388 56.0612C43.3588 56.4212 42.9908 56.6532 42.5348 56.7572V56.8172C43.0548 56.9452 43.4668 57.1972 43.7708 57.5732C44.0748 57.9492 44.2268 58.4412 44.2268 59.0492C44.2268 59.5052 44.1228 59.9172 43.9148 60.2852C43.7068 60.6452 43.3948 60.9292 42.9788 61.1372C42.5628 61.3452 42.0628 61.4492 41.4788 61.4492C40.6308 61.4492 39.9348 61.2292 39.3908 60.7892C38.8468 60.3412 38.5428 59.7092 38.4788 58.8932H39.5348C39.5908 59.3732 39.7868 59.7652 40.1228 60.0692C40.4588 60.3732 40.9068 60.5252 41.4668 60.5252C42.0268 60.5252 42.4508 60.3812 42.7388 60.0932C43.0348 59.7972 43.1828 59.4172 43.1828 58.9532C43.1828 58.3532 42.9828 57.9212 42.5828 57.6572C42.1828 57.3932 41.5788 57.2612 40.7708 57.2612H40.4948V56.3492H40.7828C41.5188 56.3412 42.0748 56.2212 42.4508 55.9892C42.8268 55.7492 43.0148 55.3812 43.0148 54.8852C43.0148 54.4612 42.8748 54.1212 42.5948 53.8652C42.3228 53.6092 41.9308 53.4812 41.4188 53.4812C40.9228 53.4812 40.5228 53.6092 40.2188 53.8652C39.9148 54.1212 39.7348 54.4652 39.6788 54.8972H38.6108ZM51.2332 53.6612H47.0212V56.3972C47.2052 56.1412 47.4772 55.9332 47.8372 55.7732C48.1972 55.6052 48.5852 55.5212 49.0012 55.5212C49.6652 55.5212 50.2052 55.6612 50.6212 55.9412C51.0372 56.2132 51.3332 56.5692 51.5092 57.0092C51.6932 57.4412 51.7852 57.9012 51.7852 58.3892C51.7852 58.9652 51.6772 59.4812 51.4612 59.9372C51.2452 60.3932 50.9132 60.7532 50.4652 61.0172C50.0252 61.2812 49.4772 61.4132 48.8212 61.4132C47.9812 61.4132 47.3012 61.1972 46.7812 60.7652C46.2612 60.3332 45.9452 59.7572 45.8332 59.0372H46.9012C47.0052 59.4932 47.2252 59.8492 47.5612 60.1052C47.8972 60.3612 48.3212 60.4892 48.8332 60.4892C49.4652 60.4892 49.9412 60.3012 50.2612 59.9252C50.5812 59.5412 50.7412 59.0372 50.7412 58.4132C50.7412 57.7892 50.5812 57.3092 50.2612 56.9732C49.9412 56.6292 49.4692 56.4572 48.8452 56.4572C48.4212 56.4572 48.0492 56.5612 47.7292 56.7692C47.4172 56.9692 47.1892 57.2452 47.0452 57.5972H46.0132V52.7012H51.2332V53.6612Z" fill="white"/>
<path d="M63.7827 60.3977C63.4389 60.3977 63.125 60.3139 62.8409 60.1463C62.5568 59.9759 62.3295 59.7486 62.1591 59.4645C61.9915 59.1804 61.9077 58.8665 61.9077 58.5227C61.9077 58.1761 61.9915 57.8622 62.1591 57.581C62.3295 57.2969 62.5568 57.071 62.8409 56.9034C63.125 56.733 63.4389 56.6477 63.7827 56.6477C64.1293 56.6477 64.4432 56.733 64.7244 56.9034C65.0085 57.071 65.2344 57.2969 65.402 57.581C65.5724 57.8622 65.6577 58.1761 65.6577 58.5227C65.6577 58.8665 65.5724 59.1804 65.402 59.4645C65.2344 59.7486 65.0085 59.9759 64.7244 60.1463C64.4432 60.3139 64.1293 60.3977 63.7827 60.3977ZM69.3491 60.3977C69.0053 60.3977 68.6914 60.3139 68.4073 60.1463C68.1232 59.9759 67.896 59.7486 67.7255 59.4645C67.5579 59.1804 67.4741 58.8665 67.4741 58.5227C67.4741 58.1761 67.5579 57.8622 67.7255 57.581C67.896 57.2969 68.1232 57.071 68.4073 56.9034C68.6914 56.733 69.0053 56.6477 69.3491 56.6477C69.6957 56.6477 70.0096 56.733 70.2908 56.9034C70.5749 57.071 70.8008 57.2969 70.9684 57.581C71.1388 57.8622 71.2241 58.1761 71.2241 58.5227C71.2241 58.8665 71.1388 59.1804 70.9684 59.4645C70.8008 59.7486 70.5749 59.9759 70.2908 60.1463C70.0096 60.3139 69.6957 60.3977 69.3491 60.3977ZM74.9155 60.3977C74.5717 60.3977 74.2578 60.3139 73.9737 60.1463C73.6896 59.9759 73.4624 59.7486 73.2919 59.4645C73.1243 59.1804 73.0405 58.8665 73.0405 58.5227C73.0405 58.1761 73.1243 57.8622 73.2919 57.581C73.4624 57.2969 73.6896 57.071 73.9737 56.9034C74.2578 56.733 74.5717 56.6477 74.9155 56.6477C75.2621 56.6477 75.576 56.733 75.8572 56.9034C76.1413 57.071 76.3672 57.2969 76.5348 57.581C76.7053 57.8622 76.7905 58.1761 76.7905 58.5227C76.7905 58.8665 76.7053 59.1804 76.5348 59.4645C76.3672 59.7486 76.1413 59.9759 75.8572 60.1463C75.576 60.3139 75.2621 60.3977 74.9155 60.3977ZM80.4819 60.3977C80.1381 60.3977 79.8242 60.3139 79.5401 60.1463C79.256 59.9759 79.0288 59.7486 78.8583 59.4645C78.6907 59.1804 78.6069 58.8665 78.6069 58.5227C78.6069 58.1761 78.6907 57.8622 78.8583 57.581C79.0288 57.2969 79.256 57.071 79.5401 56.9034C79.8242 56.733 80.1381 56.6477 80.4819 56.6477C80.8285 56.6477 81.1424 56.733 81.4237 56.9034C81.7077 57.071 81.9336 57.2969 82.1012 57.581C82.2717 57.8622 82.3569 58.1761 82.3569 58.5227C82.3569 58.8665 82.2717 59.1804 82.1012 59.4645C81.9336 59.7486 81.7077 59.9759 81.4237 60.1463C81.1424 60.3139 80.8285 60.3977 80.4819 60.3977Z" fill="white"/>
<path d="M95.7827 60.3977C95.4389 60.3977 95.125 60.3139 94.8409 60.1463C94.5568 59.9759 94.3295 59.7486 94.1591 59.4645C93.9915 59.1804 93.9077 58.8665 93.9077 58.5227C93.9077 58.1761 93.9915 57.8622 94.1591 57.581C94.3295 57.2969 94.5568 57.071 94.8409 56.9034C95.125 56.733 95.4389 56.6477 95.7827 56.6477C96.1293 56.6477 96.4432 56.733 96.7244 56.9034C97.0085 57.071 97.2344 57.2969 97.402 57.581C97.5724 57.8622 97.6577 58.1761 97.6577 58.5227C97.6577 58.8665 97.5724 59.1804 97.402 59.4645C97.2344 59.7486 97.0085 59.9759 96.7244 60.1463C96.4432 60.3139 96.1293 60.3977 95.7827 60.3977ZM101.349 60.3977C101.005 60.3977 100.691 60.3139 100.407 60.1463C100.123 59.9759 99.896 59.7486 99.7255 59.4645C99.5579 59.1804 99.4741 58.8665 99.4741 58.5227C99.4741 58.1761 99.5579 57.8622 99.7255 57.581C99.896 57.2969 100.123 57.071 100.407 56.9034C100.691 56.733 101.005 56.6477 101.349 56.6477C101.696 56.6477 102.01 56.733 102.291 56.9034C102.575 57.071 102.801 57.2969 102.968 57.581C103.139 57.8622 103.224 58.1761 103.224 58.5227C103.224 58.8665 103.139 59.1804 102.968 59.4645C102.801 59.7486 102.575 59.9759 102.291 60.1463C102.01 60.3139 101.696 60.3977 101.349 60.3977ZM106.915 60.3977C106.572 60.3977 106.258 60.3139 105.974 60.1463C105.69 59.9759 105.462 59.7486 105.292 59.4645C105.124 59.1804 105.04 58.8665 105.04 58.5227C105.04 58.1761 105.124 57.8622 105.292 57.581C105.462 57.2969 105.69 57.071 105.974 56.9034C106.258 56.733 106.572 56.6477 106.915 56.6477C107.262 56.6477 107.576 56.733 107.857 56.9034C108.141 57.071 108.367 57.2969 108.535 57.581C108.705 57.8622 108.79 58.1761 108.79 58.5227C108.79 58.8665 108.705 59.1804 108.535 59.4645C108.367 59.7486 108.141 59.9759 107.857 60.1463C107.576 60.3139 107.262 60.3977 106.915 60.3977ZM112.482 60.3977C112.138 60.3977 111.824 60.3139 111.54 60.1463C111.256 59.9759 111.029 59.7486 110.858 59.4645C110.691 59.1804 110.607 58.8665 110.607 58.5227C110.607 58.1761 110.691 57.8622 110.858 57.581C111.029 57.2969 111.256 57.071 111.54 56.9034C111.824 56.733 112.138 56.6477 112.482 56.6477C112.828 56.6477 113.142 56.733 113.424 56.9034C113.708 57.071 113.934 57.2969 114.101 57.581C114.272 57.8622 114.357 58.1761 114.357 58.5227C114.357 58.8665 114.272 59.1804 114.101 59.4645C113.934 59.7486 113.708 59.9759 113.424 60.1463C113.142 60.3139 112.828 60.3977 112.482 60.3977Z" fill="white"/>
<path d="M127.612 61.124C128.628 60.308 129.424 59.64 130 59.12C130.576 58.592 131.06 58.044 131.452 57.476C131.852 56.9 132.052 56.336 132.052 55.784C132.052 55.264 131.924 54.856 131.668 54.56C131.42 54.256 131.016 54.104 130.456 54.104C129.912 54.104 129.488 54.276 129.184 54.62C128.888 54.956 128.728 55.408 128.704 55.976H127.648C127.68 55.08 127.952 54.388 128.464 53.9C128.976 53.412 129.636 53.168 130.444 53.168C131.268 53.168 131.92 53.396 132.4 53.852C132.888 54.308 133.132 54.936 133.132 55.736C133.132 56.4 132.932 57.048 132.532 57.68C132.14 58.304 131.692 58.856 131.188 59.336C130.684 59.808 130.04 60.36 129.256 60.992H133.384V61.904H127.612V61.124ZM134.514 61.124C135.53 60.308 136.326 59.64 136.902 59.12C137.478 58.592 137.962 58.044 138.354 57.476C138.754 56.9 138.954 56.336 138.954 55.784C138.954 55.264 138.826 54.856 138.57 54.56C138.322 54.256 137.918 54.104 137.358 54.104C136.814 54.104 136.39 54.276 136.086 54.62C135.79 54.956 135.63 55.408 135.606 55.976H134.55C134.582 55.08 134.854 54.388 135.366 53.9C135.878 53.412 136.538 53.168 137.346 53.168C138.17 53.168 138.822 53.396 139.302 53.852C139.79 54.308 140.034 54.936 140.034 55.736C140.034 56.4 139.834 57.048 139.434 57.68C139.042 58.304 138.594 58.856 138.09 59.336C137.586 59.808 136.942 60.36 136.158 60.992H140.286V61.904H134.514V61.124ZM142.953 59.672C143.033 60.128 143.217 60.48 143.505 60.728C143.801 60.976 144.197 61.1 144.693 61.1C145.357 61.1 145.845 60.84 146.157 60.32C146.477 59.8 146.629 58.924 146.613 57.692C146.445 58.052 146.165 58.336 145.773 58.544C145.381 58.744 144.945 58.844 144.465 58.844C143.929 58.844 143.449 58.736 143.025 58.52C142.609 58.296 142.281 57.972 142.041 57.548C141.801 57.124 141.681 56.612 141.681 56.012C141.681 55.156 141.929 54.468 142.425 53.948C142.921 53.42 143.625 53.156 144.537 53.156C145.657 53.156 146.441 53.52 146.889 54.248C147.345 54.976 147.573 56.06 147.573 57.5C147.573 58.508 147.481 59.34 147.297 59.996C147.121 60.652 146.817 61.152 146.385 61.496C145.961 61.84 145.377 62.012 144.633 62.012C143.817 62.012 143.181 61.792 142.725 61.352C142.269 60.912 142.009 60.352 141.945 59.672H142.953ZM144.645 57.92C145.181 57.92 145.621 57.756 145.965 57.428C146.309 57.092 146.481 56.64 146.481 56.072C146.481 55.472 146.313 54.988 145.977 54.62C145.641 54.252 145.169 54.068 144.561 54.068C144.001 54.068 143.553 54.244 143.217 54.596C142.889 54.948 142.725 55.412 142.725 55.988C142.725 56.572 142.889 57.04 143.217 57.392C143.545 57.744 144.021 57.92 144.645 57.92ZM153.943 55.388C153.767 54.5 153.219 54.056 152.299 54.056C151.587 54.056 151.055 54.332 150.703 54.884C150.351 55.428 150.179 56.328 150.187 57.584C150.371 57.168 150.675 56.844 151.099 56.612C151.531 56.372 152.011 56.252 152.539 56.252C153.363 56.252 154.019 56.508 154.507 57.02C155.003 57.532 155.251 58.24 155.251 59.144C155.251 59.688 155.143 60.176 154.927 60.608C154.719 61.04 154.399 61.384 153.967 61.64C153.543 61.896 153.027 62.024 152.419 62.024C151.595 62.024 150.951 61.84 150.487 61.472C150.023 61.104 149.699 60.596 149.515 59.948C149.331 59.3 149.239 58.5 149.239 57.548C149.239 54.612 150.263 53.144 152.311 53.144C153.095 53.144 153.711 53.356 154.159 53.78C154.607 54.204 154.871 54.74 154.951 55.388H153.943ZM152.311 57.176C151.967 57.176 151.643 57.248 151.339 57.392C151.035 57.528 150.787 57.74 150.595 58.028C150.411 58.308 150.319 58.652 150.319 59.06C150.319 59.668 150.495 60.164 150.847 60.548C151.199 60.924 151.703 61.112 152.359 61.112C152.919 61.112 153.363 60.94 153.691 60.596C154.027 60.244 154.195 59.772 154.195 59.18C154.195 58.556 154.035 58.068 153.715 57.716C153.395 57.356 152.927 57.176 152.311 57.176Z" fill="white"/>
<defs>
<filter id="filter0_d_20_3" x="0.904022" y="0.539673" width="243.096" height="146.814" filterUnits="userSpaceOnUse" color-interpolation-filters="sRGB">
<feFlood flood-opacity="0" result="BackgroundImageFix"/>
<feColorMatrix in="SourceAlpha" type="matrix" values="0 0 0 0 0 0 0 0 0 0 0 0 0 0 0 0 0 0 127 0" result="hardAlpha"/>
<feOffset dy="10"/>
<feGaussianBlur stdDeviation="5"/>
<feColorMatrix type="matrix" values="0 0 0 0 0 0 0 0 0 0 0 0 0 0 0 0 0 0 0.09 0"/>
<feBlend mode="normal" in2="BackgroundImageFix" result="effect1_dropShadow_20_3"/>
<feBlend mode="normal" in="SourceGraphic" in2="effect1_dropShadow_20_3" result="shape"/>
</filter>
<filter id="filter1_d_20_3" x="-117.648" y="-200.534" width="460.503" height="390.202" filterUnits="userSpaceOnUse" color-interpolation-filters="sRGB">
<feFlood flood-opacity="0" result="BackgroundImageFix"/>
<feColorMatrix in="SourceAlpha" type="matrix" values="0 0 0 0 0 0 0 0 0 0 0 0 0 0 0 0 0 0 127 0" result="hardAlpha"/>
<feOffset dy="-14"/>
<feGaussianBlur stdDeviation="29"/>
<feColorMatrix type="matrix" values="0 0 0 0 0 0 0 0 0 0 0 0 0 0 0 0 0 0 0.129 0"/>
<feBlend mode="normal" in2="BackgroundImageFix" result="effect1_dropShadow_20_3"/>
<feBlend mode="normal" in="SourceGraphic" in2="effect1_dropShadow_20_3" result="shape"/>
</filter>
<filter id="filter2_d_20_3" x="-131.088" y="-169.175" width="499.883" height="372.615" filterUnits="userSpaceOnUse" color-interpolation-filters="sRGB">
<feFlood flood-opacity="0" result="BackgroundImageFix"/>
<feColorMatrix in="SourceAlpha" type="matrix" values="0 0 0 0 0 0 0 0 0 0 0 0 0 0 0 0 0 0 127 0" result="hardAlpha"/>
<feOffset dy="-14"/>
<feGaussianBlur stdDeviation="29"/>
<feColorMatrix type="matrix" values="0 0 0 0 0 0 0 0 0 0 0 0 0 0 0 0 0 0 0.129 0"/>
<feBlend mode="normal" in2="BackgroundImageFix" result="effect1_dropShadow_20_3"/>
<feBlend mode="normal" in="SourceGraphic" in2="effect1_dropShadow_20_3" result="shape"/>
</filter>
<filter id="filter3_d_20_3" x="-118.278" y="-121.562" width="473.91" height="361.619" filterUnits="userSpaceOnUse" color-interpolation-filters="sRGB">
<feFlood flood-opacity="0" result="BackgroundImageFix"/>
<feColorMatrix in="SourceAlpha" type="matrix" values="0 0 0 0 0 0 0 0 0 0 0 0 0 0 0 0 0 0 127 0" result="hardAlpha"/>
<feOffset dy="-14"/>
<feGaussianBlur stdDeviation="29"/>
<feColorMatrix type="matrix" values="0 0 0 0 0 0 0 0 0 0 0 0 0 0 0 0 0 0 0.129 0"/>
<feBlend mode="normal" in2="BackgroundImageFix" result="effect1_dropShadow_20_3"/>
<feBlend mode="normal" in="SourceGraphic" in2="effect1_dropShadow_20_3" result="shape"/>
</filter>
<filter id="filter4_d_20_3" x="-80.4553" y="-81.8943" width="507.517" height="340.808" filterUnits="userSpaceOnUse" color-interpolation-filters="sRGB">
<feFlood flood-opacity="0" result="BackgroundImageFix"/>
<feColorMatrix in="SourceAlpha" type="matrix" values="0 0 0 0 0 0 0 0 0 0 0 0 0 0 0 0 0 0 127 0" result="hardAlpha"/>
<feOffset dy="-14"/>
<feGaussianBlur stdDeviation="29"/>
<feColorMatrix type="matrix" values="0 0 0 0 0 0 0 0 0 0 0 0 0 0 0 0 0 0 0.129 0"/>
<feBlend mode="normal" in2="BackgroundImageFix" result="effect1_dropShadow_20_3"/>
<feBlend mode="normal" in="SourceGraphic" in2="effect1_dropShadow_20_3" result="shape"/>
</filter>
<filter id="filter5_d_20_3" x="-103.452" y="-129.898" width="231.914" height="226.788" filterUnits="userSpaceOnUse" color-interpolation-filters="sRGB">
<feFlood flood-opacity="0" result="BackgroundImageFix"/>
<feColorMatrix in="SourceAlpha" type="matrix" values="0 0 0 0 0 0 0 0 0 0 0 0 0 0 0 0 0 0 127 0" result="hardAlpha"/>
<feOffset dy="3"/>
<feGaussianBlur stdDeviation="30"/>
<feColorMatrix type="matrix" values="0 0 0 0 0 0 0 0 0 0 0 0 0 0 0 0 0 0 0.2 0"/>
<feBlend mode="normal" in2="BackgroundImageFix" result="effect1_dropShadow_20_3"/>
<feBlend mode="normal" in="SourceGraphic" in2="effect1_dropShadow_20_3" result="shape"/>
</filter>
<linearGradient id="paint0_linear_20_3" x1="52.8461" y1="30.0874" x2="174.393" y2="232.07" gradientUnits="userSpaceOnUse">
<stop stop-color="#B721FF"/>
<stop offset="1" stop-color="#FC00FF"/>
</linearGradient>
<linearGradient id="paint1_linear_20_3" x1="224.222" y1="172.814" x2="177.233" y2="-282.652" gradientUnits="userSpaceOnUse">
<stop stop-color="#160606"/>
<stop offset="1" stop-color="#AB1F21"/>
</linearGradient>
<linearGradient id="paint2_linear_20_3" x1="243.232" y1="184.845" x2="206.184" y2="-242.735" gradientUnits="userSpaceOnUse">
<stop stop-color="#160606"/>
<stop offset="1" stop-color="#AB1F21"/>
</linearGradient>
<linearGradient id="paint3_linear_20_3" x1="234.64" y1="220.374" x2="198.25" y2="-188.72" gradientUnits="userSpaceOnUse">
<stop stop-color="#160606"/>
<stop offset="1" stop-color="#AB1F21"/>
</linearGradient>
<linearGradient id="paint4_linear_20_3" x1="300.155" y1="237.169" x2="272.222" y2="-138.145" gradientUnits="userSpaceOnUse">
<stop stop-color="#160606"/>
<stop offset="1" stop-color="#AB1F21"/>
</linearGradient>
</defs>
</svg>
