<svg xmlns="http://www.w3.org/2000/svg" width="17" height="20.324" viewBox="0 0 17 20.324">
  <g id="Group_1280" data-name="Group 1280" transform="translate(-460 -466.998)">
    <path id="Path_6045" data-name="Path 6045" d="M1121.079,399.332a.765.765,0,0,1-.762-.762v-2.185a3.861,3.861,0,0,0-3.861-3.861h-.01a3.87,3.87,0,0,0-3.871,3.845v2.2a.762.762,0,0,1-1.524,0v-2.183a5.361,5.361,0,0,1,1.6-3.826,5.208,5.208,0,0,1,3.81-1.561,5.394,5.394,0,0,1,5.386,5.385v2.182a.759.759,0,0,1-.762.766Z" transform="translate(-647.951 76)" fill="#474849" fill-rule="evenodd"/>
    <path id="Path_6046" data-name="Path 6046" d="M1112.613,399.153a3.091,3.091,0,0,0-3.089,3.091V406.6a3.091,3.091,0,0,0,3.089,3.091h7.763a3.1,3.1,0,0,0,3.1-3.091v-4.358a3.1,3.1,0,0,0-3.1-3.091Zm7.763,12.062h-7.763A4.621,4.621,0,0,1,1108,406.6v-4.358a4.621,4.621,0,0,1,4.613-4.615h7.763a4.623,4.623,0,0,1,4.623,4.615V406.6A4.623,4.623,0,0,1,1120.376,411.216Z" transform="translate(-648 76.107)" fill="#474849" fill-rule="evenodd"/>
    <path id="Path_6047" data-name="Path 6047" d="M1116.372,406.236a.765.765,0,0,1-.762-.762v-2.262a.762.762,0,1,1,1.524,0v2.257a.758.758,0,0,1-.762.767Z" transform="translate(-647.877 76.185)" fill="#474849" fill-rule="evenodd"/>
  </g>
</svg>
