<svg xmlns="http://www.w3.org/2000/svg" xmlns:xlink="http://www.w3.org/1999/xlink" width="44" height="44" viewBox="0 0 44 44">
  <defs>
    <linearGradient id="linear-gradient" x1="0.5" x2="0.5" y2="1" gradientUnits="objectBoundingBox">
      <stop offset="0" stop-color="#74ffac"/>
      <stop offset="1" stop-color="#4adc40"/>
    </linearGradient>
  </defs>
  <g id="Group_62647" data-name="Group 62647" transform="translate(-342 -790)">
    <rect id="Rectangle_2466" data-name="Rectangle 2466" width="44" height="44" rx="10" transform="translate(342 790)" fill="url(#linear-gradient)"/>
    <path id="Path_31196" data-name="Path 31196" d="M15.9,11.644V6.086a2.114,2.114,0,0,0-.634-1.516L13.428,2.732a1.071,1.071,0,0,0-1.516,0L10.085,4.56A2.157,2.157,0,0,0,9.45,6.086V7.344H5.15A2.156,2.156,0,0,0,3,9.494V20.245A2.156,2.156,0,0,0,5.15,22.4H20.2a2.156,2.156,0,0,0,2.15-2.15v-6.45a2.156,2.156,0,0,0-2.15-2.15Zm-8.6,8.6H5.15v-2.15H7.3Zm0-4.3H5.15v-2.15H7.3Zm0-4.3H5.15V9.494H7.3Zm6.45,8.6H11.6v-2.15h2.15Zm0-4.3H11.6v-2.15h2.15Zm0-4.3H11.6V9.494h2.15Zm0-4.3H11.6V5.194h2.15Zm6.45,12.9h-2.15v-2.15H20.2Zm0-4.3h-2.15v-2.15H20.2Z" transform="translate(351 799.583)" fill="#fff"/>
  </g>
</svg>
