<svg width="11" height="11" viewBox="0 0 11 11" fill="none" xmlns="http://www.w3.org/2000/svg">
<g clip-path="url(#clip0_153_2)">
<path d="M0.848546 10.9055C0.483311 10.8174 0.169639 10.5016 0.0858503 10.1406C0.025694 9.88281 0.0708112 9.57988 0.201866 9.35859C0.231944 9.30918 1.10206 8.42402 2.13546 7.39063L4.01749 5.51074L2.10968 3.59863C0.0557721 1.54043 0.111632 1.60273 0.0321393 1.2998C-0.0301654 1.05273 0.00420964 0.79707 0.133116 0.554296C0.335069 0.174023 0.809874 -0.0107427 1.31261 0.0945308C1.61339 0.158984 1.5339 0.0880855 3.57706 2.1291C4.61691 3.1668 5.47843 4.01758 5.48917 4.01758C5.49991 4.01758 6.36144 3.16895 7.40128 2.1291C9.15441 0.378125 9.30265 0.236328 9.43155 0.176171C9.87628 -0.0300786 10.4134 0.0537104 10.7206 0.378125C11.0107 0.683203 11.0773 1.15156 10.8882 1.54473C10.8259 1.67578 10.6755 1.83047 8.89659 3.60293L6.97159 5.51719L8.84288 7.39492C10.0095 8.56367 10.7357 9.30703 10.77 9.36719C10.8646 9.53477 10.8989 9.69375 10.8882 9.92363C10.8753 10.1707 10.8237 10.3211 10.6884 10.5016C10.4241 10.8518 9.94503 11 9.52823 10.8582C9.28976 10.7787 9.18233 10.6777 7.31749 8.81074L5.49132 6.98457L3.61144 8.85801C1.58976 10.8689 1.63917 10.826 1.34269 10.9033C1.19444 10.942 0.998936 10.942 0.848546 10.9055Z" fill="#3C3B3B"/>
</g>
<defs>
<clipPath id="clip0_153_2">
<rect width="11" height="11" fill="white" transform="matrix(1 0 0 -1 0 11)"/>
</clipPath>
</defs>
</svg>
