<svg xmlns="http://www.w3.org/2000/svg" xmlns:xlink="http://www.w3.org/1999/xlink" width="44" height="44" viewBox="0 0 44 44">
  <defs>
    <linearGradient id="linear-gradient" x1="0.5" x2="0.5" y2="1" gradientUnits="objectBoundingBox">
      <stop offset="0" stop-color="#9c6bff"/>
      <stop offset="1" stop-color="#7d3cff"/>
    </linearGradient>
  </defs>
  <g id="Group_62645" data-name="Group 62645" transform="translate(-342 -648)">
    <rect id="Rectangle_2465" data-name="Rectangle 2465" width="44" height="44" rx="10" transform="translate(342 648)" fill="url(#linear-gradient)"/>
    <path id="company" d="M22.474,21.947H20.895V7.737a.516.516,0,0,0-.358-.526L16.684,5.6V21.947H15.632V3.526A.526.526,0,0,0,15.105,3H5.632a.526.526,0,0,0-.526.526V21.947H3.526a.526.526,0,1,0,0,1.053H22.474a.526.526,0,1,0,0-1.053ZM18.263,9.316h1.053a.526.526,0,0,1,.526.526.537.537,0,0,1-.526.526H18.263a.537.537,0,0,1-.526-.526A.526.526,0,0,1,18.263,9.316Zm0,3.158h1.053a.526.526,0,1,1,0,1.053H18.263a.526.526,0,0,1,0-1.053Zm0,3.158h1.053a.537.537,0,0,1,.526.526.526.526,0,0,1-.526.526H18.263a.526.526,0,0,1-.526-.526.537.537,0,0,1,.526-.526Zm0,3.158h1.053a.526.526,0,0,1,0,1.053H18.263a.526.526,0,0,1,0-1.053ZM11.421,6.158h1.053a.526.526,0,0,1,0,1.053H11.421a.526.526,0,0,1,0-1.053Zm0,3.158h1.053a.526.526,0,0,1,0,1.053H11.421a.526.526,0,1,1,0-1.053Zm0,3.158h1.053a.526.526,0,0,1,0,1.053H11.421a.526.526,0,1,1,0-1.053Zm0,3.158h1.053a.526.526,0,0,1,0,1.053H11.421a.526.526,0,0,1,0-1.053ZM8.2,6.158H9.316a.526.526,0,0,1,0,1.053H8.263a.526.526,0,0,1,0-1.053Zm0,3.158H9.316a.526.526,0,1,1,0,1.053H8.263a.526.526,0,0,1,0-1.053Zm0,3.158H9.316a.526.526,0,0,1,0,1.053H8.263a.526.526,0,0,1,0-1.053Zm0,3.158H9.316a.526.526,0,0,1,0,1.053H8.263a.526.526,0,0,1,0-1.053Zm2.695,6.316V19.842H9.842v2.105H8.789V19.284a.526.526,0,0,1,.526-.495h2.105a.526.526,0,0,1,.526.526v2.632Z" transform="translate(351 657)" fill="#fff"/>
  </g>
</svg>
