<svg width="299" height="315" viewBox="0 0 299 315" fill="none" xmlns="http://www.w3.org/2000/svg">
<g clip-path="url(#clip0_64_2)">
<path d="M169.424 9.53491H22.9854C20.2179 9.53491 17.9744 11.7767 17.9744 14.542V218.587C17.9744 221.352 20.2179 223.594 22.9854 223.594H169.424C172.191 223.594 174.435 221.352 174.435 218.587V14.542C174.435 11.7767 172.191 9.53491 169.424 9.53491Z" fill="#F5F5F5"/>
<path d="M288.206 22.2842L288.5 23.7707L285.553 39.7004C284.507 40.4669 283.316 41.0114 282.051 41.3006C280.787 41.5897 279.477 41.6174 278.202 41.3818L261.53 38.3016C261.53 38.3016 258.881 37.7103 259.618 34.2718C259.618 34.2718 259.749 32.4583 261.305 32.3366C261.305 32.3366 258.073 31.0247 258.431 28.5371C258.789 26.0496 260.622 26.083 260.622 26.083C260.622 26.083 257.595 25.3178 257.907 22.5179C258.219 19.718 259.857 19.7132 259.857 19.7132C259.857 19.7132 256.335 18.8583 257.217 15.753C257.317 15.3416 257.498 14.9541 257.75 14.6132C258.001 14.2722 258.317 13.9844 258.681 13.7666C259.044 13.5488 259.448 13.4053 259.867 13.3444C260.286 13.2834 260.714 13.3062 261.124 13.4115L272.984 15.5993L283.38 17.5192C284.57 17.7389 285.666 18.3106 286.526 19.1603C287.387 20.0099 287.972 21.0982 288.206 22.2842Z" fill="#EBEBEB"/>
<path d="M285.269 18.21C285.269 18.21 281.617 14.9086 280.332 11.3178C279.75 9.52736 279.456 7.65562 279.463 5.77297C279.49 5.63385 279.704 4.37617 279.881 3.35013C279.949 2.94555 279.858 2.5304 279.627 2.19105C279.397 1.85171 279.044 1.61433 278.643 1.5283C277.38 1.34909 276.094 1.63898 275.031 2.34307C273.967 3.04716 273.199 4.11654 272.872 5.34865C271.486 10.1213 272.671 13.3747 272.711 14.8279L272.751 16.281L285.269 18.21Z" fill="#EBEBEB"/>
<path d="M282.98 42.0803L294.626 44.2312L298.999 20.5882L287.353 18.4374L282.98 42.0803Z" fill="#EBEBEB"/>
<path d="M282.98 42.0802C282.955 42.076 283.914 36.7789 285.121 30.2546C286.328 23.7304 287.329 18.4361 287.354 18.4409C287.379 18.4458 286.42 23.7416 285.212 30.2713C284.005 36.8011 283.006 42.0851 282.98 42.0802Z" fill="#E0E0E0"/>
<path d="M294.627 44.2297C294.602 44.2248 295.56 38.9284 296.767 32.4007C297.975 25.873 298.975 20.5828 299 20.5876C299.025 20.5925 298.067 25.8876 296.859 32.4174C295.65 38.9472 294.651 44.236 294.627 44.2297Z" fill="#E0E0E0"/>
<path d="M290.464 24.6082C290.384 25.0388 290.434 25.4832 290.607 25.8854C290.781 26.2876 291.069 26.6294 291.437 26.8677C291.805 27.106 292.235 27.23 292.673 27.224C293.111 27.2181 293.537 27.0825 293.898 26.8343C294.26 26.5862 294.539 26.2366 294.701 25.8299C294.863 25.4231 294.901 24.9775 294.81 24.5492C294.719 24.1209 294.503 23.7293 294.189 23.4238C293.875 23.1183 293.477 22.9127 293.046 22.833C292.76 22.78 292.466 22.7838 292.181 22.8444C291.897 22.9049 291.627 23.021 291.387 23.1858C291.147 23.3507 290.942 23.5611 290.784 23.8052C290.625 24.0493 290.516 24.3221 290.464 24.6082Z" fill="white"/>
<path d="M270.255 15.0957C270.26 15.0707 271.534 15.2849 273.1 15.5736C274.665 15.8623 275.932 16.1183 275.928 16.1433C275.923 16.1684 274.649 15.9541 273.083 15.6655C271.517 15.3768 270.25 15.1187 270.255 15.0957Z" fill="#E0E0E0"/>
<path d="M260.363 26.1526C260.975 26.218 261.583 26.3146 262.185 26.442C262.792 26.5382 263.394 26.665 263.988 26.8218C263.377 26.7558 262.769 26.6593 262.166 26.5324C261.166 26.3481 260.359 26.179 260.363 26.1526Z" fill="#E0E0E0"/>
<path d="M259.637 19.6128C259.642 19.5877 260.798 19.7804 262.218 20.0427C263.638 20.3049 264.787 20.5387 264.782 20.5637C264.777 20.5887 263.621 20.3961 262.201 20.1338C260.781 19.8716 259.632 19.6378 259.637 19.6128Z" fill="#E0E0E0"/>
<path d="M260.569 32.2322C260.573 32.2071 261.729 32.3998 263.149 32.6621C264.57 32.9243 265.718 33.158 265.713 33.1831C265.709 33.2081 264.553 33.0154 263.133 32.7532C261.713 32.4909 260.564 32.2572 260.569 32.2322Z" fill="#E0E0E0"/>
<path d="M289.976 19.6144C289.981 19.5893 291.612 19.869 293.619 20.2404C295.626 20.6119 297.25 20.9319 297.246 20.9576C297.241 20.9833 295.61 20.703 293.603 20.3315C291.596 19.9601 289.971 19.6394 289.976 19.6144Z" fill="white"/>
<path d="M259.02 23.7131C258.995 23.672 258.977 23.6268 258.968 23.5796C258.93 23.4546 258.904 23.3263 258.89 23.1963C258.868 23.0029 258.866 22.8078 258.884 22.614C258.929 22.137 259.089 21.6778 259.35 21.2757C259.455 21.112 259.578 20.9602 259.716 20.8228C259.807 20.7293 259.908 20.6447 260.015 20.5703C260.092 20.5188 260.135 20.4917 260.138 20.5007C260.142 20.5098 259.983 20.6322 259.764 20.8715C259.636 21.0116 259.522 21.1632 259.422 21.3244C259.177 21.72 259.023 22.1645 258.969 22.6266C258.948 22.8148 258.943 23.0045 258.956 23.1935C258.979 23.5128 259.035 23.7089 259.02 23.7131Z" fill="white"/>
<path d="M258.403 17.4052C258.305 17.3238 258.226 17.2216 258.172 17.1061C258.027 16.8324 257.954 16.5265 257.96 16.217C257.966 15.9076 258.05 15.6046 258.205 15.3364C258.263 15.2228 258.346 15.1235 258.447 15.0457C258.459 15.0568 258.365 15.1653 258.262 15.3677C258.129 15.6322 258.058 15.923 258.052 16.2187C258.047 16.5145 258.108 16.8077 258.23 17.0769C258.326 17.2828 258.417 17.3955 258.403 17.4052Z" fill="white"/>
<path d="M259.889 30.4974C259.758 30.4281 259.647 30.328 259.564 30.2059C259.342 29.9227 259.224 29.5721 259.229 29.2124C259.234 28.8527 259.363 28.5057 259.593 28.229C259.679 28.1094 259.793 28.0125 259.925 27.9465C259.935 27.9597 259.799 28.0571 259.646 28.2686C259.441 28.5415 259.328 28.8723 259.324 29.2134C259.319 29.5545 259.422 29.8883 259.619 30.167C259.766 30.384 259.899 30.4849 259.889 30.4974Z" fill="white"/>
<path d="M261.22 36.5486C261.124 36.4595 261.048 36.3512 260.996 36.2307C260.855 35.9463 260.781 35.6334 260.78 35.316C260.779 34.9986 260.851 34.6852 260.99 34.3999C261.041 34.2794 261.117 34.1707 261.212 34.0806C261.225 34.0903 261.142 34.2113 261.05 34.4284C260.933 34.7096 260.873 35.0115 260.874 35.3162C260.875 35.6209 260.937 35.9224 261.056 36.2029C261.148 36.4185 261.234 36.5396 261.22 36.5486Z" fill="white"/>
<path d="M272.999 10.8755C272.965 10.7902 272.938 10.7023 272.918 10.6125C272.894 10.5269 272.867 10.4219 272.844 10.2981C272.82 10.1743 272.787 10.0344 272.767 9.87654C272.711 9.50806 272.68 9.13621 272.674 8.76355C272.66 7.85026 272.792 6.94057 273.067 6.06941C273.179 5.71446 273.315 5.36749 273.474 5.03085C273.538 4.88546 273.609 4.76095 273.667 4.64895C273.726 4.53696 273.781 4.44374 273.828 4.3707C273.872 4.2902 273.923 4.21363 273.98 4.14185C273.948 4.22768 273.907 4.31034 273.859 4.38879C273.817 4.466 273.765 4.56131 273.713 4.67539C273.661 4.78947 273.593 4.91398 273.533 5.06006C273.384 5.39751 273.256 5.74364 273.148 6.09654C273.02 6.52985 272.921 6.97144 272.853 7.41822C272.791 7.86512 272.759 8.3158 272.759 8.76703C272.76 9.13562 272.783 9.50381 272.829 9.86959C272.844 10.0268 272.872 10.1666 272.892 10.287C272.911 10.4073 272.931 10.5172 272.951 10.6035C272.975 10.6925 272.991 10.7835 272.999 10.8755Z" fill="white"/>
<path d="M270.179 167.931L270.969 168.835L275.256 180.922C274.842 181.861 274.241 182.705 273.489 183.403C272.737 184.101 271.849 184.638 270.882 184.981L258.23 189.462C258.23 189.462 256.179 190.104 255.324 187.455C255.324 187.455 254.697 186.16 255.714 185.461C255.714 185.461 252.979 185.84 252.239 183.994C251.499 182.147 252.77 181.445 252.77 181.445C252.77 181.445 250.392 182.118 249.498 180.073C248.604 178.029 249.724 177.379 249.724 177.379C249.724 177.379 246.971 178.184 246.345 175.709C246.25 175.387 246.22 175.05 246.256 174.716C246.293 174.382 246.396 174.059 246.559 173.765C246.722 173.472 246.941 173.213 247.205 173.005C247.469 172.797 247.772 172.644 248.096 172.554L257.093 169.365L264.981 166.572C265.884 166.252 266.863 166.21 267.789 166.452C268.716 166.695 269.549 167.21 270.179 167.931Z" fill="#EBEBEB"/>
<path d="M266.553 166.298C266.553 166.298 262.742 165.479 260.439 163.525C259.331 162.528 258.389 161.361 257.648 160.067C257.611 159.96 257.26 159.015 256.974 158.242C256.86 157.937 256.634 157.689 256.341 157.547C256.049 157.406 255.713 157.382 255.404 157.482C254.467 157.858 253.701 158.565 253.25 159.468C252.8 160.371 252.696 161.408 252.96 162.382C253.899 166.203 256.001 167.965 256.603 168.945L257.205 169.926L266.553 166.298Z" fill="#EBEBEB"/>
<path d="M274.43 183.568L283.271 180.439L276.909 162.492L268.068 165.621L274.43 183.568Z" fill="#EBEBEB"/>
<path d="M274.435 183.569C274.416 183.576 272.973 179.565 271.219 174.612C269.464 169.66 268.053 165.639 268.071 165.63C268.09 165.621 269.533 169.633 271.288 174.587C273.042 179.542 274.454 183.562 274.435 183.569Z" fill="#E0E0E0"/>
<path d="M283.271 180.44C283.252 180.446 281.809 176.436 280.055 171.483C278.302 166.53 276.889 162.509 276.908 162.5C276.927 162.491 278.37 166.504 280.124 171.458C281.878 176.412 283.29 180.433 283.271 180.44Z" fill="#E0E0E0"/>
<path d="M272.648 168.632C272.764 168.959 272.974 169.244 273.252 169.451C273.53 169.659 273.864 169.779 274.21 169.797C274.557 169.815 274.901 169.73 275.199 169.553C275.497 169.376 275.736 169.114 275.885 168.801C276.035 168.488 276.088 168.138 276.038 167.795C275.988 167.451 275.837 167.131 275.605 166.873C275.373 166.616 275.069 166.433 274.733 166.347C274.396 166.262 274.042 166.279 273.715 166.395C273.498 166.471 273.298 166.59 273.127 166.744C272.956 166.898 272.817 167.085 272.718 167.292C272.619 167.5 272.562 167.725 272.55 167.955C272.538 168.185 272.571 168.415 272.648 168.632Z" fill="white"/>
<path d="M255.024 170.098C255.018 170.079 255.976 169.723 257.164 169.301C258.351 168.88 259.322 168.555 259.328 168.574C259.334 168.593 258.377 168.949 257.189 169.37C256 169.791 255.031 170.118 255.024 170.098Z" fill="#E0E0E0"/>
<path d="M252.621 181.591C253.066 181.394 253.521 181.22 253.984 181.069C254.744 180.8 255.365 180.598 255.372 180.616C254.472 180.987 253.554 181.312 252.621 181.59V181.591Z" fill="#E0E0E0"/>
<path d="M249.534 177.394C249.528 177.375 250.396 177.05 251.475 176.667C252.553 176.285 253.432 175.992 253.439 176.011C253.446 176.029 252.577 176.358 251.499 176.737C250.421 177.115 249.541 177.413 249.534 177.394Z" fill="#E0E0E0"/>
<path d="M255.17 185.678C255.163 185.659 256.032 185.334 257.109 184.951C258.187 184.569 259.068 184.276 259.074 184.295C259.08 184.314 258.212 184.643 257.134 185.021C256.055 185.399 255.176 185.697 255.17 185.678Z" fill="#E0E0E0"/>
<path d="M270.335 165.401C270.328 165.382 271.558 164.929 273.081 164.39C274.604 163.85 275.844 163.428 275.851 163.448C275.858 163.467 274.629 163.919 273.105 164.458C271.582 164.998 270.342 165.42 270.335 165.401Z" fill="white"/>
<path d="M250.735 180.452C250.731 180.455 250.701 180.43 250.646 180.382C250.57 180.311 250.502 180.234 250.441 180.15C250.349 180.026 250.271 179.893 250.206 179.753C250.048 179.408 249.977 179.03 249.997 178.651C250.004 178.497 250.028 178.344 250.067 178.196C250.092 178.095 250.127 177.998 250.171 177.904C250.185 177.868 250.204 177.835 250.228 177.805C250.241 177.81 250.174 177.956 250.118 178.208C250.085 178.355 250.067 178.504 250.062 178.653C250.051 179.021 250.121 179.387 250.267 179.725C250.327 179.863 250.399 179.995 250.483 180.12C250.625 180.328 250.744 180.439 250.735 180.452Z" fill="white"/>
<path d="M247.816 176.368C247.716 176.351 247.62 176.312 247.537 176.254C247.33 176.124 247.159 175.943 247.04 175.729C246.921 175.514 246.859 175.273 246.859 175.029C246.854 174.927 246.871 174.826 246.91 174.733C246.923 174.733 246.902 174.848 246.91 175.027C246.924 175.261 246.99 175.488 247.103 175.693C247.217 175.897 247.374 176.074 247.565 176.21C247.714 176.314 247.821 176.356 247.816 176.368Z" fill="white"/>
<path d="M254.017 184.757C253.901 184.761 253.785 184.737 253.679 184.687C253.415 184.581 253.194 184.388 253.055 184.139C252.915 183.89 252.865 183.601 252.914 183.32C252.926 183.204 252.966 183.093 253.03 182.995C253.042 183 252.987 183.121 252.965 183.327C252.933 183.595 252.986 183.867 253.118 184.103C253.25 184.339 253.453 184.527 253.698 184.64C253.888 184.727 254.019 184.743 254.017 184.757Z" fill="white"/>
<path d="M257.325 188.379C257.225 188.356 257.13 188.312 257.047 188.25C256.838 188.111 256.663 187.926 256.537 187.709C256.41 187.492 256.336 187.248 256.318 186.998C256.305 186.895 256.314 186.791 256.343 186.691C256.356 186.691 256.347 186.809 256.369 186.993C256.4 187.232 256.478 187.463 256.6 187.672C256.721 187.88 256.883 188.063 257.075 188.208C257.224 188.319 257.331 188.368 257.325 188.379Z" fill="white"/>
<path d="M255.241 166.12C255.183 166.076 255.13 166.027 255.081 165.973C255.031 165.924 254.97 165.862 254.905 165.786C254.841 165.711 254.762 165.628 254.686 165.528C254.502 165.298 254.333 165.055 254.182 164.802C253.999 164.491 253.838 164.168 253.703 163.833C253.572 163.497 253.465 163.151 253.384 162.799C253.32 162.512 253.276 162.221 253.252 161.927C253.238 161.802 253.237 161.688 253.233 161.588C253.229 161.488 253.23 161.403 253.233 161.333C253.206 161.329 253.18 161.316 253.163 161.294C253.145 161.273 253.136 161.245 253.138 161.218C253.14 161.19 253.152 161.164 253.172 161.145C253.193 161.126 253.219 161.115 253.247 161.115C253.275 161.115 253.302 161.126 253.322 161.145C253.342 161.164 253.354 161.19 253.356 161.218C253.358 161.245 253.349 161.273 253.331 161.294C253.314 161.316 253.289 161.329 253.261 161.333C253.261 161.403 253.265 161.487 253.274 161.587C253.283 161.686 253.286 161.796 253.303 161.922C253.335 162.212 253.384 162.5 253.45 162.785C253.613 163.482 253.879 164.15 254.24 164.768C254.388 165.02 254.55 165.263 254.727 165.496C254.797 165.598 254.875 165.683 254.936 165.759C254.997 165.836 255.054 165.898 255.101 165.953C255.152 166.005 255.199 166.061 255.241 166.12Z" fill="white"/>
<path d="M160.852 253.998H126.616C121.499 253.998 117.352 258.143 117.352 263.256V297.464C117.352 302.577 121.499 306.721 126.616 306.721H160.852C165.968 306.721 170.116 302.577 170.116 297.464V263.256C170.116 258.143 165.968 253.998 160.852 253.998Z" fill="#E0E0E0"/>
<path d="M151.378 253.998H117.142C112.025 253.998 107.877 258.143 107.877 263.256V297.464C107.877 302.577 112.025 306.721 117.142 306.721H151.378C156.494 306.721 160.642 302.577 160.642 297.464V263.256C160.642 258.143 156.494 253.998 151.378 253.998Z" fill="#EBEBEB"/>
<path d="M116.041 281.12L121.357 275.809L131.607 284.913L148.724 267.743L153.66 273.054L130.847 295.155L116.041 281.12Z" fill="white"/>
<path d="M39.0202 265.315H16.6147C11.498 265.315 7.3501 269.459 7.3501 274.572V296.96C7.3501 302.073 11.498 306.217 16.6147 306.217H39.0202C44.1369 306.217 48.2848 302.073 48.2848 296.96V274.572C48.2848 269.459 44.1369 265.315 39.0202 265.315Z" fill="#E0E0E0"/>
<path d="M31.6701 265.315H9.2646C4.1479 265.315 0 269.459 0 274.572V296.96C0 302.073 4.1479 306.217 9.2646 306.217H31.6701C36.7868 306.217 40.9347 302.073 40.9347 296.96V274.572C40.9347 269.459 36.7868 265.315 31.6701 265.315Z" fill="#EBEBEB"/>
<path d="M6.33167 286.354L10.4551 282.234L18.4074 289.298L31.6868 275.977L35.5157 280.097L17.8184 297.241L6.33167 286.354Z" fill="white"/>
<path d="M289.378 305.011C289.378 305.112 226.354 305.194 148.63 305.194C70.8769 305.194 7.86462 305.112 7.86462 305.011C7.86462 304.91 70.8741 304.829 148.63 304.829C226.354 304.829 289.378 304.911 289.378 305.011Z" fill="#263238"/>
<path d="M261.167 284.96C261.167 284.96 258.246 264.899 258.49 253.228C258.734 241.556 258.476 228.425 258.476 228.425H259.822C259.822 228.425 258.911 251.593 259.903 265.565C260.895 279.537 263.505 284.96 263.505 284.96H261.167" fill="#263238"/>
<path d="M269.866 205.853C269.656 205.142 269.227 204.515 268.64 204.06C267.787 203.519 266.667 203.744 265.716 204.081C261.651 205.517 258.046 213.092 256.402 217.076L261.8 235.25C271.542 226.218 273.229 214.37 269.866 205.853Z" fill="#455A64"/>
<path d="M268.324 204.795C268.308 204.877 268.282 204.956 268.246 205.031C268.177 205.206 268.089 205.425 267.982 205.694C267.745 206.265 267.414 207.097 267.016 208.128C266.221 210.192 265.206 213.077 264.301 216.327C263.396 219.577 262.778 222.574 262.396 224.752C262.203 225.841 262.059 226.725 261.966 227.337C261.919 227.623 261.881 227.856 261.851 228.04C261.843 228.123 261.824 228.205 261.796 228.283C261.79 228.2 261.793 228.117 261.807 228.034C261.826 227.848 261.85 227.617 261.881 227.325C261.947 226.709 262.068 225.821 262.241 224.727C263.155 219.019 264.707 213.432 266.868 208.071C267.285 207.045 267.639 206.22 267.9 205.658C268.023 205.396 268.123 205.182 268.203 205.013C268.234 204.935 268.275 204.862 268.324 204.795Z" fill="#263238"/>
<path d="M259.4 239.607C256.943 238.211 254.887 236.206 253.43 233.786C251.973 231.366 251.163 228.612 251.08 225.789C250.885 221.754 252.124 217.798 253.531 214.013C253.616 213.671 253.817 213.368 254.101 213.158C254.331 213.075 254.578 213.051 254.819 213.089C255.06 213.126 255.288 213.224 255.481 213.373C259.158 215.464 261.385 219.453 262.57 223.511C263.422 226.203 263.706 229.041 263.406 231.848C262.943 234.798 261.539 237.52 259.403 239.607" fill="#455A64"/>
<path d="M259.4 239.607C259.383 239.527 259.377 239.445 259.38 239.363C259.377 239.179 259.372 238.946 259.366 238.668C259.366 238.062 259.341 237.187 259.291 236.106C259.146 233.291 258.833 230.487 258.351 227.71C257.79 224.455 257.109 221.54 256.607 219.432C256.36 218.401 256.156 217.554 256.008 216.937C255.945 216.659 255.894 216.436 255.853 216.257C255.831 216.178 255.817 216.098 255.813 216.016C255.85 216.089 255.878 216.166 255.897 216.246C255.948 216.423 256.013 216.644 256.093 216.916C256.259 217.498 256.489 218.345 256.761 219.394C257.302 221.493 258.008 224.407 258.571 227.672C259.057 230.457 259.35 233.273 259.448 236.099C259.477 237.183 259.478 238.062 259.453 238.668L259.425 239.363C259.427 239.445 259.418 239.527 259.4 239.607Z" fill="#263238"/>
<g opacity="0.3">
<path d="M259.4 239.607C256.943 238.211 254.887 236.206 253.43 233.786C251.973 231.366 251.163 228.612 251.08 225.789C250.885 221.754 252.124 217.798 253.531 214.013C253.616 213.671 253.817 213.368 254.101 213.158C254.331 213.075 254.578 213.051 254.819 213.089C255.06 213.126 255.288 213.224 255.481 213.373C259.158 215.464 261.385 219.453 262.57 223.511C263.422 226.203 263.706 229.041 263.406 231.848C262.943 234.798 261.539 237.52 259.403 239.607" fill="black"/>
</g>
<path d="M265.109 270.302C270.088 271.394 274.188 274.904 278.992 276.61C282.17 277.739 285.765 278.14 288.302 280.36C287.693 278.823 286.249 277.8 284.848 276.925C280.892 274.457 276.671 272.443 272.264 270.922C270.003 270.142 267.551 269.49 265.248 270.132" fill="#455A64"/>
<path d="M257.909 274.735C251.672 274.634 245.107 269.329 238.899 269.013C245.395 266.917 254.696 268.629 257.909 274.735Z" fill="#455A64"/>
<path d="M260.345 259.787C263.56 258.734 266.988 258.501 270.316 259.108C273.628 259.718 276.883 260.602 280.048 261.752C279.728 259.59 277.976 257.965 276.33 256.525C275.125 255.403 273.816 254.398 272.421 253.524C271.016 252.647 269.39 252.188 267.734 252.202C266.741 252.267 265.771 252.531 264.882 252.979C263.993 253.427 263.204 254.048 262.56 254.807C261.3 256.183 260.523 257.93 260.345 259.787Z" fill="#455A64"/>
<path d="M247.546 252.904C243.62 249.555 237.674 249.883 232.514 249.999C240.806 253.948 248.626 258.818 255.827 264.515C256.036 260.872 252.505 257.136 247.546 252.904Z" fill="#455A64"/>
<g opacity="0.3">
<path d="M247.546 252.904C243.62 249.555 237.674 249.883 232.514 249.999C240.806 253.948 248.626 258.818 255.827 264.515C256.036 260.872 252.505 257.136 247.546 252.904Z" fill="black"/>
</g>
<path d="M262.11 248.283C264.026 246.955 266.044 245.783 268.147 244.777C270.214 243.839 272.141 242.342 274.134 241.265C276.722 239.865 278.964 237.918 281.338 236.183C283.713 234.447 286.323 232.88 289.229 232.421C286.836 231.996 284.376 232.139 282.048 232.838C279.73 233.537 277.471 234.415 275.29 235.466C272.227 236.844 269.112 238.256 266.609 240.495C264.105 242.733 261.843 244.941 262.107 248.286" fill="#455A64"/>
<path d="M278.878 274.735C278.809 274.715 278.742 274.686 278.68 274.649L278.137 274.371C277.667 274.121 276.993 273.751 276.143 273.328C275.726 273.106 275.257 272.875 274.751 272.638C274.251 272.39 273.707 272.145 273.131 271.896C271.892 271.341 270.607 270.894 269.292 270.558C267.987 270.197 266.613 270.163 265.292 270.458C264.714 270.583 264.148 270.752 263.596 270.964C262.426 271.44 261.373 272.163 260.509 273.085C260.148 273.472 259.972 273.711 259.956 273.697C259.985 273.631 260.022 273.569 260.068 273.513C260.184 273.345 260.31 273.182 260.444 273.026C260.937 272.451 261.509 271.948 262.143 271.532C262.58 271.244 263.043 270.996 263.526 270.792C264.084 270.568 264.658 270.39 265.244 270.257C266.596 269.943 268.005 269.972 269.343 270.341C270.672 270.679 271.968 271.136 273.214 271.707C273.79 271.961 274.333 272.215 274.832 272.472C275.337 272.717 275.8 272.959 276.216 273.188C277.058 273.634 277.722 274.023 278.178 274.301L278.703 274.62C278.766 274.65 278.825 274.689 278.878 274.735Z" fill="#263238"/>
<path d="M253.257 271.646C253.392 271.665 253.523 271.704 253.647 271.76C253.995 271.886 254.334 272.033 254.663 272.201C256.86 273.312 258.674 275.054 259.873 277.203C260.055 277.524 260.215 277.857 260.354 278.2C260.416 278.322 260.46 278.452 260.485 278.586C260.448 278.601 260.216 278.074 259.736 277.282C258.483 275.214 256.708 273.51 254.589 272.343C253.778 271.892 253.242 271.684 253.257 271.646Z" fill="#263238"/>
<path d="M239.459 252.594C239.55 252.611 239.639 252.637 239.725 252.673L240.473 252.938L241.657 253.373C242.116 253.545 242.616 253.796 243.181 254.045C246.107 255.397 248.837 257.136 251.3 259.214C252.643 260.369 253.907 261.614 255.084 262.939C256.038 264.025 256.934 265.16 257.77 266.34C258.482 267.348 259.023 268.188 259.392 268.769L259.819 269.436C259.874 269.512 259.92 269.592 259.958 269.677C259.892 269.612 259.833 269.54 259.783 269.462C259.673 269.317 259.515 269.1 259.321 268.816C258.928 268.25 258.369 267.425 257.643 266.431C256.918 265.438 256.005 264.292 254.928 263.074C253.749 261.764 252.488 260.53 251.152 259.381C248.701 257.318 245.999 255.573 243.11 254.188C242.553 253.931 242.058 253.669 241.604 253.489L240.44 253.02L239.707 252.715C239.621 252.683 239.537 252.643 239.459 252.594Z" fill="#263238"/>
<path d="M269.702 256.281C269.534 256.279 269.367 256.258 269.205 256.217L268.632 256.111C268.409 256.069 268.149 256.067 267.866 256.037C266.386 255.908 264.9 256.201 263.58 256.882C262.859 257.259 262.201 257.747 261.631 258.329C261.156 258.796 260.736 259.315 260.378 259.877C260.054 260.401 259.767 260.948 259.52 261.512C259.54 261.345 259.583 261.181 259.647 261.026C259.805 260.596 260.005 260.184 260.244 259.794C260.59 259.208 261.007 258.667 261.485 258.183C262.298 257.329 263.3 256.675 264.41 256.276C265.52 255.876 266.709 255.74 267.881 255.879C268.167 255.919 268.431 255.932 268.654 255.987L269.225 256.13C269.389 256.162 269.549 256.212 269.702 256.281Z" fill="#263238"/>
<path d="M275.97 236.855C275.897 236.911 275.818 236.96 275.735 237L275.039 237.377C274.433 237.703 273.563 238.183 272.505 238.806C271.446 239.429 270.211 240.212 268.892 241.155C267.452 242.161 266.102 243.291 264.858 244.532C264.217 245.167 263.662 245.885 263.209 246.666C262.8 247.45 262.41 248.207 262.05 248.935C261.404 250.217 260.825 251.533 260.318 252.876C259.981 253.783 259.699 254.71 259.474 255.651C259.315 256.318 259.257 256.695 259.235 256.69C259.233 256.597 259.242 256.504 259.26 256.412C259.282 256.232 259.321 255.968 259.39 255.63C259.582 254.676 259.843 253.737 260.169 252.82C260.658 251.463 261.225 250.135 261.865 248.842C262.22 248.109 262.608 247.348 263.013 246.563C263.474 245.761 264.04 245.025 264.696 244.374C265.949 243.123 267.313 241.989 268.771 240.985C270.104 240.046 271.358 239.283 272.423 238.668C273.488 238.052 274.378 237.6 274.999 237.297L275.715 236.956C275.796 236.913 275.882 236.879 275.97 236.855Z" fill="#263238"/>
<path d="M258.484 255.723C258.424 255.553 258.382 255.376 258.36 255.197L258.087 253.758C257.506 250.588 256.51 247.509 255.126 244.599C254.885 244.068 254.681 243.621 254.518 243.265C254.434 243.105 254.367 242.937 254.318 242.763C254.427 242.907 254.521 243.062 254.596 243.226C254.762 243.531 254.995 243.975 255.269 244.531C256.739 247.421 257.743 250.526 258.242 253.73C258.34 254.343 258.41 254.843 258.445 255.184C258.477 255.362 258.49 255.543 258.484 255.723Z" fill="#263238"/>
<path d="M258.032 241.545C257.835 239.186 257.144 236.894 256.004 234.818C254.466 231.961 252.32 229.475 249.718 227.535C247.115 225.596 244.119 224.25 240.94 223.591L254.884 244.364L256.684 248.071C257.82 246.096 258.292 243.809 258.032 241.545Z" fill="#455A64"/>
<path d="M278.037 282.479H245.607V288.222H278.037V282.479Z" fill="#F9C438"/>
<path d="M248.029 287.086L250.791 304.906H272.32L275.615 287.086H248.029Z" fill="#F6AB36"/>
<path d="M278.02 288.229C278.02 288.292 270.705 288.343 261.683 288.343C252.662 288.343 245.346 288.292 245.346 288.229C245.346 288.165 252.659 288.115 261.683 288.115C270.708 288.115 278.02 288.165 278.02 288.229Z" fill="#263238"/>
<path d="M76.6223 257.629H47.7327C42.616 257.629 38.4681 261.774 38.4681 266.887V295.754C38.4681 300.866 42.616 305.011 47.7327 305.011H76.6223C81.739 305.011 85.8869 300.866 85.8869 295.754V266.887C85.8869 261.774 81.739 257.629 76.6223 257.629Z" fill="#FF725E"/>
<path d="M76.6223 257.629H47.7327C42.616 257.629 38.4681 261.774 38.4681 266.887V295.754C38.4681 300.866 42.616 305.011 47.7327 305.011H76.6223C81.739 305.011 85.8869 300.866 85.8869 295.754V266.887C85.8869 261.774 81.739 257.629 76.6223 257.629Z" fill="#D40221"/>
<path d="M68.1082 257.629H39.2186C34.1019 257.629 29.954 261.774 29.954 266.887V295.754C29.954 300.866 34.1019 305.011 39.2186 305.011H68.1082C73.2249 305.011 77.3728 300.866 77.3728 295.754V266.887C77.3728 261.774 73.2249 257.629 68.1082 257.629Z" fill="#E44531"/>
<path d="M37.2909 282.002L42.0673 277.229L51.279 285.411L66.6643 269.981L71.0996 274.753L50.5954 294.615L37.2909 282.002Z" fill="white"/>
<path d="M101.504 274.703H82.6254C79.4626 274.703 76.8987 277.265 76.8987 280.425V299.289C76.8987 302.449 79.4626 305.011 82.6254 305.011H101.504C104.667 305.011 107.231 302.449 107.231 299.289V280.425C107.231 277.265 104.667 274.703 101.504 274.703Z" fill="#F8A23A"/>
<path d="M96.0579 274.703H77.1792C74.0164 274.703 71.4525 277.265 71.4525 280.425V299.289C71.4525 302.449 74.0164 305.011 77.1792 305.011H96.0579C99.2206 305.011 101.785 302.449 101.785 299.289V280.425C101.785 277.265 99.2206 274.703 96.0579 274.703Z" fill="#F9C438"/>
<path d="M76.1454 290.293L79.2009 287.24L85.0932 292.474L94.9336 282.605L97.7705 285.658L84.6567 298.363L76.1454 290.293Z" fill="white"/>
<path d="M176.464 0.182373H30.0257C27.2582 0.182373 25.0146 2.42412 25.0146 5.18945V209.234C25.0146 212 27.2582 214.242 30.0257 214.242H176.464C179.231 214.242 181.475 212 181.475 209.234V5.18945C181.475 2.42412 179.231 0.182373 176.464 0.182373Z" fill="white"/>
<path d="M176.432 214.241C177.062 214.228 177.685 214.102 178.272 213.871C179.131 213.527 179.878 212.953 180.432 212.213C180.986 211.473 181.326 210.594 181.414 209.674C181.45 204.805 181.404 197.607 181.404 188.346C181.39 169.819 181.371 143.015 181.345 109.894C181.339 93.3329 181.331 75.1925 181.323 55.7186C181.32 45.9799 181.317 35.9196 181.314 25.5377C181.314 20.3512 181.313 15.0902 181.31 9.75479C181.31 8.42105 181.31 7.08314 181.31 5.74106C181.422 4.41905 181.01 3.10586 180.163 2.08418C179.74 1.58148 179.218 1.16971 178.631 0.873705C178.044 0.577697 177.402 0.403572 176.746 0.361823C175.407 0.329825 174.026 0.353476 172.661 0.34652L30.0758 0.361128C29.3117 0.360927 28.5583 0.540256 27.8764 0.88464C27.1944 1.22902 26.6031 1.72881 26.1501 2.34365C25.6925 2.95333 25.3907 3.66537 25.2709 4.41799C25.1962 5.18982 25.173 5.96575 25.2012 6.74067C25.2012 9.88116 25.2012 13.0115 25.2012 16.1315C25.2012 22.3717 25.2012 28.5695 25.2012 34.7248C25.2012 47.0331 25.2012 59.1506 25.2012 71.0772C25.1978 94.9099 25.1943 117.899 25.1908 139.799C25.1873 161.699 25.1797 182.51 25.1741 201.984C25.1741 204.418 25.1741 206.832 25.1741 209.224C25.1832 210.391 25.6068 211.517 26.3694 212.401C27.1246 213.279 28.1696 213.857 29.3149 214.031C29.8903 214.095 30.4697 214.117 31.0484 214.096H36.2759H43.1283L69.1448 214.108L147.654 214.166L169 214.2L174.55 214.219C175.803 214.225 176.442 214.237 176.442 214.237C176.442 214.237 175.8 214.249 174.55 214.255L169 214.274L147.654 214.308L69.1448 214.365L43.1283 214.376H36.2759H32.7985H31.0379C30.4443 214.398 29.85 214.374 29.2599 214.307C28.046 214.123 26.9381 213.511 26.1369 212.581C25.327 211.644 24.8769 210.45 24.8671 209.212C24.8671 206.819 24.8657 204.405 24.8629 201.971C24.858 182.493 24.8525 161.685 24.8462 139.786C24.8399 117.886 24.8392 94.8967 24.8358 71.064C24.8358 59.1457 24.8358 47.0282 24.8358 34.7116C24.8358 28.5581 24.8358 22.3604 24.8358 16.1183V6.72745C24.8078 5.93222 24.8336 5.136 24.913 4.34425C25.0429 3.53525 25.3676 2.76991 25.8591 2.11409C26.3474 1.45643 26.9833 0.922344 27.7156 0.554723C28.4479 0.187102 29.2563 -0.0038087 30.0758 -0.00268058L172.661 0.0112295C174.035 0.0188813 175.386 -0.00476909 176.769 0.0293163C177.471 0.0748864 178.156 0.261946 178.784 0.579229C179.411 0.896512 179.968 1.33745 180.421 1.87549C181.315 2.95694 181.754 4.34382 181.643 5.74245C181.643 7.08732 181.643 8.42523 181.643 9.75618C181.643 15.0893 181.641 20.3502 181.639 25.5391C181.635 35.9122 181.632 45.9725 181.63 55.72C181.621 75.1939 181.614 93.3343 181.607 109.896C181.583 143.016 181.563 169.82 181.549 188.348C181.528 197.611 181.549 204.799 181.491 209.682C181.385 210.766 180.931 211.787 180.197 212.592C179.348 213.532 178.175 214.116 176.912 214.228C176.592 214.239 176.432 214.241 176.432 214.241Z" fill="#263238"/>
<path d="M152.885 63.8477H83.4747C81.0509 63.8477 79.0861 65.811 79.0861 68.2328V68.7093C79.0861 71.1312 81.0509 73.0945 83.4747 73.0945H152.885C155.309 73.0945 157.274 71.1312 157.274 68.7093V68.2328C157.274 65.811 155.309 63.8477 152.885 63.8477Z" fill="#E0E0E0"/>
<path d="M67.0792 58.3342H52.7918C50.8163 58.3342 49.2148 59.9344 49.2148 61.9083V76.1845C49.2148 78.1585 50.8163 79.7586 52.7918 79.7586H67.0792C69.0547 79.7586 70.6561 78.1585 70.6561 76.1845V61.9083C70.6561 59.9344 69.0547 58.3342 67.0792 58.3342Z" fill="#E44531"/>
<path d="M52.5321 69.3548L54.6902 67.1984L58.8554 70.8977L65.8115 63.9207L67.8172 66.0771L58.5477 75.0582L52.5321 69.3548Z" fill="white"/>
<path d="M152.885 97.0815H83.4747C81.0509 97.0815 79.0861 99.0449 79.0861 101.467V101.943C79.0861 104.365 81.0509 106.328 83.4747 106.328H152.885C155.309 106.328 157.274 104.365 157.274 101.943V101.467C157.274 99.0449 155.309 97.0815 152.885 97.0815Z" fill="#E0E0E0"/>
<path d="M67.0792 91.5681H52.7918C50.8163 91.5681 49.2148 93.1683 49.2148 95.1422V109.418C49.2148 111.392 50.8163 112.993 52.7918 112.993H67.0792C69.0547 112.993 70.6561 111.392 70.6561 109.418V95.1422C70.6561 93.1683 69.0547 91.5681 67.0792 91.5681Z" fill="#E44531"/>
<path d="M52.5321 102.589L54.6902 100.432L58.8554 104.132L65.8115 97.1553L67.8172 99.3117L58.5484 108.293L52.5321 102.589Z" fill="white"/>
<path d="M152.885 130.316H83.4747C81.0509 130.316 79.0861 132.279 79.0861 134.701V135.178C79.0861 137.6 81.0509 139.563 83.4747 139.563H152.885C155.309 139.563 157.274 137.6 157.274 135.178V134.701C157.274 132.279 155.309 130.316 152.885 130.316Z" fill="#E0E0E0"/>
<path d="M67.0792 124.803H52.7918C50.8163 124.803 49.2148 126.403 49.2148 128.377V142.653C49.2148 144.627 50.8163 146.227 52.7918 146.227H67.0792C69.0547 146.227 70.6561 144.627 70.6561 142.653V128.377C70.6561 126.403 69.0547 124.803 67.0792 124.803Z" fill="#E44531"/>
<path d="M52.5321 135.823L54.6902 133.667L58.8554 137.367L65.8115 130.39L67.8172 132.546L58.5477 141.527L52.5321 135.823Z" fill="white"/>
<path d="M152.885 163.55H83.4747C81.0509 163.55 79.0861 165.514 79.0861 167.935V168.412C79.0861 170.834 81.0509 172.797 83.4747 172.797H152.885C155.309 172.797 157.274 170.834 157.274 168.412V167.935C157.274 165.514 155.309 163.55 152.885 163.55Z" fill="#E0E0E0"/>
<path d="M67.0792 158.037H52.7918C50.8163 158.037 49.2148 159.637 49.2148 161.611V175.887C49.2148 177.861 50.8163 179.461 52.7918 179.461H67.0792C69.0547 179.461 70.6561 177.861 70.6561 175.887V161.611C70.6561 159.637 69.0547 158.037 67.0792 158.037Z" fill="#E44531"/>
<path d="M52.5321 169.057L54.6902 166.901L58.8554 170.6L65.8115 163.623L67.8172 165.779L58.5477 174.76L52.5321 169.057Z" fill="white"/>
<path d="M209.02 280.284L208.419 296.09C208.419 296.09 224.291 302.009 224.468 304.939L193.757 304.875L193.683 280.211L209.02 280.284Z" fill="#263238"/>
<path d="M198.924 294.739C198.629 294.829 198.376 295.024 198.216 295.287C198.055 295.551 197.998 295.864 198.054 296.168C198.132 296.466 198.322 296.723 198.585 296.886C198.847 297.049 199.162 297.104 199.464 297.042C199.777 296.947 200.044 296.739 200.213 296.459C200.381 296.179 200.44 295.846 200.377 295.525C200.263 295.222 200.036 294.975 199.744 294.836C199.452 294.697 199.118 294.676 198.81 294.778" fill="#E0E0E0"/>
<path d="M193.757 304.875L193.847 302.388L223.258 303.38C223.258 303.38 224.624 303.977 224.468 304.939L193.757 304.875Z" fill="#455A64"/>
<path d="M208.917 295.933C208.911 296.083 208.161 296.149 207.422 296.629C206.671 297.09 206.289 297.742 206.151 297.678C206.011 297.65 206.238 296.754 207.143 296.188C208.047 295.623 208.95 295.796 208.917 295.933Z" fill="white"/>
<path d="M212.136 297.271C212.169 297.417 211.519 297.671 211.008 298.303C210.479 298.921 210.35 299.606 210.2 299.599C210.061 299.622 209.958 298.744 210.607 297.97C211.257 297.196 212.133 297.128 212.136 297.271Z" fill="white"/>
<path d="M213.956 301.127C213.817 301.159 213.613 300.41 213.999 299.59C214.386 298.77 215.088 298.445 215.151 298.57C215.236 298.693 214.78 299.133 214.472 299.81C214.149 300.482 214.105 301.113 213.956 301.127Z" fill="white"/>
<path d="M208.654 292.317C208.591 292.456 207.903 292.247 207.053 292.301C206.204 292.34 205.544 292.623 205.466 292.494C205.379 292.385 206.023 291.832 207.024 291.781C208.025 291.73 208.728 292.199 208.654 292.317Z" fill="white"/>
<path d="M171.427 278.135L169.764 297.195L172.8 312.651C172.852 312.915 172.849 313.186 172.791 313.449C172.734 313.711 172.623 313.959 172.465 314.177C172.308 314.394 172.107 314.577 171.876 314.715C171.645 314.852 171.388 314.94 171.121 314.974C170.811 315.014 170.496 314.979 170.202 314.872C169.908 314.765 169.645 314.588 169.433 314.358C166.696 311.377 156.682 300.358 156.882 298.969C157.114 297.361 157.3 278.745 157.3 278.745L171.427 278.135Z" fill="#263238"/>
<path d="M171.121 314.977L156.965 297.685L156.914 298.494C156.867 299.193 157.072 299.886 157.49 300.448C158.611 301.951 161.801 306.033 169.376 314.36C169.593 314.599 169.866 314.781 170.171 314.888C170.476 314.996 170.802 315.027 171.122 314.979L171.121 314.977Z" fill="#455A64"/>
<g opacity="0.6">
<path d="M161.282 291.774C161.506 291.962 161.653 292.226 161.694 292.515C161.736 292.804 161.669 293.098 161.507 293.341C161.327 293.572 161.066 293.724 160.778 293.768C160.489 293.812 160.194 293.744 159.954 293.577C159.718 293.378 159.563 293.097 159.521 292.791C159.478 292.484 159.551 292.173 159.725 291.917C159.937 291.695 160.226 291.564 160.532 291.551C160.838 291.538 161.137 291.644 161.367 291.847" fill="white"/>
</g>
<path d="M167.289 306.353C167.744 305.743 168.356 305.267 169.059 304.975C169.763 304.684 170.532 304.587 171.286 304.696C171.306 304.651 171.077 304.487 170.63 304.394C170.046 304.294 169.446 304.361 168.898 304.588C168.351 304.815 167.879 305.192 167.538 305.676C167.29 306.054 167.242 306.335 167.289 306.353Z" fill="white"/>
<path d="M168.485 308.998C169.052 308.727 169.635 308.489 170.23 308.286C170.853 308.209 171.481 308.168 172.11 308.165C172.171 308.071 171.274 307.609 170.134 307.876C168.99 308.133 168.389 308.94 168.485 308.998Z" fill="white"/>
<path d="M164.964 302.914C165.048 303.01 166.048 302.11 167.584 301.632C169.112 301.129 170.449 301.28 170.461 301.153C170.498 301.053 169.096 300.697 167.456 301.232C165.811 301.749 164.877 302.853 164.964 302.914Z" fill="white"/>
<path d="M164.986 297.077C165.029 297.194 166.113 296.821 167.492 296.86C168.87 296.88 169.937 297.298 169.985 297.182C169.24 296.715 168.381 296.458 167.501 296.44C166.621 296.421 165.752 296.641 164.988 297.077H164.986Z" fill="white"/>
<path d="M165.332 291.469C165.384 291.583 166.486 291.014 167.933 291.174C169.384 291.3 170.353 292.074 170.427 291.972C170.46 291.934 170.267 291.68 169.843 291.398C169.279 291.041 168.639 290.82 167.974 290.755C167.309 290.689 166.638 290.78 166.015 291.021C165.545 291.213 165.306 291.421 165.332 291.469Z" fill="white"/>
<path d="M167.967 290.104C168.043 289.871 168.067 289.625 168.037 289.382C168.016 288.716 167.861 288.06 167.584 287.454C167.42 286.992 167.109 286.598 166.698 286.331C166.554 286.256 166.391 286.227 166.23 286.248C166.069 286.269 165.919 286.339 165.799 286.449C165.58 286.676 165.453 286.977 165.442 287.292C165.444 287.937 165.671 288.56 166.084 289.055C166.497 289.55 167.07 289.886 167.704 290.005C168.332 290.11 168.978 290.025 169.559 289.763C170.139 289.5 170.629 289.071 170.965 288.53C171.049 288.393 171.102 288.24 171.122 288.081C171.141 287.921 171.126 287.76 171.077 287.607C171.012 287.458 170.901 287.334 170.761 287.251C170.62 287.169 170.457 287.132 170.295 287.147C169.819 287.221 169.37 287.419 168.994 287.721C168.448 288.101 167.974 288.575 167.595 289.121C167.439 289.308 167.324 289.527 167.259 289.762C167.801 289.074 168.441 288.47 169.159 287.968C169.498 287.719 169.893 287.557 170.31 287.497C170.398 287.486 170.488 287.505 170.565 287.549C170.642 287.594 170.703 287.662 170.737 287.744C170.762 287.847 170.764 287.953 170.746 288.056C170.727 288.16 170.687 288.259 170.628 288.346C170.324 288.804 169.894 289.165 169.39 289.386C168.886 289.607 168.329 289.679 167.786 289.593C167.251 289.489 166.767 289.208 166.413 288.794C166.059 288.381 165.856 287.86 165.836 287.316C165.838 287.096 165.918 286.884 166.061 286.718C166.126 286.656 166.208 286.615 166.297 286.603C166.386 286.59 166.476 286.606 166.556 286.648C166.901 286.875 167.168 287.202 167.321 287.586C167.683 288.381 167.902 289.233 167.967 290.104Z" fill="white"/>
<path d="M223.814 147.049C225.294 153.601 225.794 160.335 225.297 167.033C224.972 171.282 210.631 288.764 210.631 288.764H191.265L196.707 178.348L195.122 178.691C195.122 178.691 184.551 225.785 183.689 233.409C182.914 240.261 173.999 290.05 173.999 290.05L156.294 290.254L161.948 224.397L168.529 161.205L171.004 142.811L223.814 147.049Z" fill="#263238"/>
<path d="M196.003 170.855C195.995 170.865 196.037 170.909 196.129 170.987C196.269 171.092 196.43 171.167 196.6 171.21C196.919 171.277 197.25 171.273 197.567 171.198C197.885 171.123 198.182 170.979 198.437 170.776C198.801 170.462 199.099 170.08 199.314 169.651C199.529 169.221 199.657 168.754 199.69 168.275C199.829 167.223 199.85 166.093 199.928 164.897C200.059 162.507 200.155 160.343 200.207 158.775C200.272 157.93 200.274 157.08 200.212 156.234C200.058 157.069 199.968 157.913 199.941 158.761C199.821 160.325 199.683 162.487 199.552 164.877C199.474 166.068 199.461 167.22 199.344 168.228C199.302 169.116 198.917 169.954 198.271 170.565C198.046 170.757 197.785 170.901 197.502 170.987C197.219 171.074 196.921 171.101 196.628 171.066C196.414 171.015 196.204 170.945 196.003 170.855Z" fill="#455A64"/>
<path d="M167.517 159.495C167.684 159.593 167.868 159.66 168.06 159.692C168.567 159.821 169.085 159.908 169.607 159.95C171.345 160.1 173.093 159.839 174.712 159.189C176.33 158.539 177.773 157.519 178.925 156.21C179.273 155.819 179.587 155.398 179.863 154.954C179.98 154.799 180.067 154.624 180.119 154.438C180.065 154.401 179.632 155.096 178.727 156.029C177.556 157.251 176.139 158.209 174.568 158.839C172.998 159.469 171.311 159.757 169.621 159.684C168.324 159.635 167.531 159.431 167.517 159.495Z" fill="#455A64"/>
<path d="M216.097 154.582C216.093 155.24 216.192 155.896 216.391 156.524C217.211 159.624 219.035 162.366 221.578 164.323C222.08 164.749 222.647 165.094 223.255 165.346C223.343 165.246 220.669 163.723 218.652 160.643C216.593 157.592 216.222 154.539 216.097 154.582Z" fill="#455A64"/>
<path d="M275.246 121.34L279.69 122.744L287.765 118.285L292.346 131.03L281.36 133.642L273.038 132.727L275.246 121.34Z" fill="#FBB089"/>
<path d="M223.562 70.1687C223.562 70.1687 228.102 72.8921 231.862 82.1452C239.248 100.322 243.887 110.134 243.887 110.134L277.797 120.836L275.089 134.417C275.089 134.417 240.716 129.632 236.113 127.907C229.816 125.548 225.145 113.138 225.145 113.138L223.562 70.1687Z" fill="#E0E0E0"/>
<path d="M214.243 29.3894C215.128 29.4459 216.003 29.1718 216.697 28.6203C217.392 28.0687 217.856 27.2791 218.001 26.4045C218.146 25.53 217.96 24.633 217.48 23.8876C217 23.1422 216.26 22.6015 215.403 22.3705C215.92 21.7844 216.24 21.0504 216.315 20.2727C216.391 19.4951 216.22 18.7133 215.826 18.0384C215.432 17.3634 214.836 16.8296 214.121 16.5127C213.406 16.1957 212.61 16.1118 211.845 16.2727C211.773 15.5069 211.505 14.7725 211.065 14.1413C210.625 13.5101 210.029 13.0035 209.335 12.6709C208.641 12.3384 207.872 12.1912 207.104 12.2437C206.336 12.2962 205.595 12.5467 204.953 12.9706C204.051 12.3102 202.955 11.97 201.837 12.0043C200.72 12.0386 199.646 12.4454 198.787 13.1598C198.031 13.0593 197.262 13.2039 196.595 13.5726C195.927 13.9412 195.395 14.5143 195.078 15.2076C194.76 15.9008 194.674 16.6775 194.832 17.4234C194.989 18.1693 195.382 18.8449 195.953 19.3509" fill="#263238"/>
<path d="M198.196 16.7221L198.982 16.6838C202.791 16.4943 206.533 17.7453 209.461 20.1878C212.39 22.6302 214.29 26.085 214.785 29.8644C215.74 37.1545 216.7 45.2209 216.847 49.1498C217.154 57.2823 209.078 58.9518 209.078 58.9518L210.252 68.6905L190.473 69.0592L186.964 33.7216C185.816 25.3109 189.755 17.6361 198.196 16.7221Z" fill="#FBB089"/>
<path d="M209.145 58.9392C205.366 59.1288 201.612 58.2304 198.328 56.3508C198.328 56.3508 201.126 62.0772 209.21 60.9419L209.145 58.9392Z" fill="#6F4439"/>
<path d="M211.861 37.3646C211.879 37.6671 211.778 37.9647 211.579 38.194C211.381 38.4232 211.101 38.5659 210.798 38.5916C210.651 38.611 210.501 38.6007 210.357 38.5613C210.214 38.5218 210.08 38.454 209.963 38.362C209.846 38.2699 209.749 38.1554 209.677 38.0252C209.606 37.895 209.561 37.7517 209.545 37.6039C209.527 37.3015 209.628 37.004 209.827 36.7749C210.025 36.5457 210.305 36.4029 210.607 36.3768C210.754 36.3573 210.904 36.3676 211.048 36.407C211.191 36.4464 211.326 36.5141 211.442 36.6062C211.559 36.6983 211.657 36.8128 211.728 36.9431C211.8 37.0733 211.845 37.2167 211.861 37.3646Z" fill="#263238"/>
<path d="M213.237 33.9291C213.098 34.087 212.187 33.4804 210.94 33.5458C209.687 33.5931 208.804 34.2818 208.66 34.135C208.591 34.0703 208.724 33.7872 209.109 33.4797C209.631 33.078 210.265 32.8476 210.923 32.8203C211.573 32.7856 212.218 32.9586 212.763 33.3142C213.16 33.5903 213.304 33.8574 213.237 33.9291Z" fill="#263238"/>
<path d="M200.453 37.6798C200.471 37.982 200.37 38.2792 200.172 38.5081C199.973 38.737 199.693 38.8796 199.392 38.9055C199.244 38.9249 199.094 38.9146 198.951 38.8752C198.808 38.8358 198.673 38.7681 198.557 38.6761C198.44 38.5841 198.343 38.4696 198.271 38.3395C198.199 38.2094 198.154 38.0662 198.138 37.9184C198.121 37.6159 198.222 37.3184 198.42 37.0892C198.618 36.8599 198.898 36.7169 199.2 36.6906C199.348 36.6713 199.498 36.6816 199.641 36.7212C199.785 36.7607 199.919 36.8286 200.036 36.9208C200.153 37.013 200.25 37.1277 200.321 37.2581C200.393 37.3884 200.438 37.5318 200.453 37.6798Z" fill="#263238"/>
<path d="M200.957 34.772C200.818 34.9306 199.906 34.3234 198.66 34.3895C197.407 34.4368 196.525 35.1254 196.381 34.9786C196.311 34.914 196.443 34.6308 196.83 34.3227C197.352 33.9209 197.986 33.6908 198.645 33.6639C199.295 33.6286 199.94 33.8017 200.485 34.1578C200.879 34.4347 201.023 34.7004 200.957 34.772Z" fill="#263238"/>
<path d="M205.956 43.8123C206.604 43.5728 207.28 43.4158 207.968 43.3448C208.286 43.2968 208.585 43.2182 208.628 42.997C208.638 42.6662 208.548 42.3401 208.368 42.0621C208.029 41.3053 207.674 40.5111 207.303 39.6796C205.819 36.2857 204.727 33.4886 204.866 33.4301C205.005 33.3717 206.318 36.0735 207.801 39.4688C208.159 40.3059 208.501 41.1056 208.827 41.868C209.047 42.243 209.127 42.6833 209.054 43.1118C209.014 43.2266 208.947 43.3306 208.86 43.4159C208.773 43.5012 208.668 43.5657 208.552 43.6043C208.378 43.6608 208.197 43.695 208.014 43.7058C207.335 43.8279 206.644 43.8636 205.956 43.8123Z" fill="#263238"/>
<path d="M201.802 29.911C201.653 30.2359 200.565 29.9458 199.243 29.9687C197.921 29.9618 196.822 30.2658 196.686 29.9423C196.625 29.7886 196.846 29.4922 197.309 29.2147C197.906 28.8764 198.581 28.6993 199.268 28.7006C199.946 28.6879 200.616 28.856 201.208 29.1876C201.659 29.4644 201.868 29.7566 201.802 29.911Z" fill="#263238"/>
<path d="M213.041 28.7744C212.791 29.0714 211.744 28.8273 210.502 28.8753C209.26 28.8871 208.22 29.1799 207.964 28.8947C207.851 28.7556 208.002 28.4635 208.451 28.172C209.068 27.8053 209.771 27.6096 210.489 27.6051C211.203 27.5741 211.912 27.7363 212.542 28.0746C212.991 28.3445 213.15 28.6297 213.041 28.7744Z" fill="#263238"/>
<path d="M213.82 26.1742C213.82 26.1742 211.421 21.1894 208.904 20.1223C205.858 18.8313 204.74 22.157 201.866 21.5066C198.992 20.8562 196.083 19.6166 193.295 21.9504C190.243 24.5047 191.812 26.1123 191.796 29.7295C191.727 44.3946 189.262 48.6636 188.159 41.8125C188.038 41.0612 185.912 40.5652 185.444 37.3918C184.835 33.2772 184.427 28.2639 185.204 25.2838C185.86 22.7713 187.186 20.9925 189.623 18.9836C193.471 15.8109 198.952 15.4742 202.7 15.6648C206.449 15.8554 213.843 19.7822 213.82 26.1742Z" fill="#263238"/>
<path d="M188.663 41.567C188.638 41.2691 188.553 40.9792 188.413 40.715C188.273 40.4507 188.081 40.2177 187.848 40.0299C187.615 39.8422 187.346 39.7036 187.058 39.6226C186.77 39.5416 186.469 39.5199 186.172 39.5588C184.662 39.7779 183.016 40.7233 183.273 43.8515C183.726 49.4011 189.209 47.8012 189.205 47.6405C189.206 47.5306 188.877 43.8862 188.663 41.567Z" fill="#FBB089"/>
<path d="M187.83 45.6496C187.804 45.6336 187.738 45.7254 187.581 45.8131C187.359 45.9298 187.1 45.9562 186.858 45.8868C186.255 45.7192 185.684 44.8295 185.575 43.8312C185.522 43.3565 185.576 42.8758 185.733 42.4247C185.77 42.2471 185.851 42.0814 185.967 41.9418C186.083 41.8022 186.231 41.6929 186.399 41.6233C186.508 41.5848 186.627 41.5856 186.735 41.6255C186.843 41.6654 186.934 41.7419 186.991 41.8418C187.079 41.9906 187.053 42.104 187.083 42.1117C187.099 42.1242 187.195 42.008 187.131 41.7826C187.089 41.6479 187.002 41.5316 186.884 41.4529C186.722 41.3501 186.526 41.3151 186.338 41.3555C186.113 41.4192 185.909 41.5394 185.744 41.7046C185.58 41.8697 185.46 42.0743 185.397 42.2988C185.2 42.7983 185.128 43.3386 185.188 43.8723C185.316 44.9853 185.974 45.9877 186.797 46.1539C186.949 46.1849 187.107 46.1813 187.258 46.1435C187.409 46.1057 187.55 46.0346 187.67 45.9355C187.83 45.7839 187.849 45.6579 187.83 45.6496Z" fill="#6F4439"/>
<path d="M188.242 30.7903C188.952 31.3089 189.78 31.6424 190.652 31.7607C191.088 31.8051 191.526 31.6904 191.884 31.4376C192.242 31.1848 192.497 30.8111 192.601 30.3854C192.648 29.9952 192.532 29.5507 192.771 29.2398C193.057 28.8683 193.623 28.9518 194.094 28.9782C195.72 29.0693 197.52 27.1912 197.853 25.5982C198.08 25.8876 198.409 26.0801 198.773 26.1368C199.137 26.1935 199.509 26.1101 199.813 25.9036C200.31 25.5617 200.743 25.1364 201.094 24.6466C201.296 24.3336 201.571 24.0744 201.896 23.8915C202.22 23.7086 202.584 23.6075 202.957 23.5969C203.355 23.712 203.766 23.782 204.18 23.8056C204.907 23.704 205.224 22.8317 205.294 22.102C205.363 21.3723 205.412 20.5229 206.011 20.0979C206.568 19.7042 207.32 19.8788 207.998 19.9449C208.675 20.011 209.535 19.8099 209.675 19.1442C209.695 18.9666 209.679 18.7867 209.628 18.6155C209.576 18.4443 209.491 18.2853 209.376 18.1481C208.89 17.4985 208.2 17.0316 207.416 16.8227C206.631 16.6138 205.8 16.6752 205.055 16.9968C204.735 16.0854 204.151 15.2892 203.379 14.709C202.606 14.1287 201.678 13.7904 200.713 13.7368C199.748 13.6832 198.788 13.9167 197.956 14.4078C197.123 14.8989 196.455 15.6256 196.036 16.496C195.419 15.9898 194.688 15.64 193.906 15.4763C193.125 15.3126 192.315 15.3398 191.546 15.5557C190.777 15.7715 190.072 16.1696 189.49 16.7161C188.908 17.2626 188.467 17.9414 188.203 18.6948C187.513 18.5493 186.794 18.6101 186.138 18.8697C185.481 19.1293 184.916 19.5762 184.512 20.1547C184.108 20.7332 183.883 21.4177 183.865 22.1229C183.848 22.8282 184.039 23.5229 184.414 24.1207C183.909 24.4032 183.485 24.8089 183.181 25.2998C182.877 25.7907 182.702 26.3507 182.673 26.9275C182.709 28.0788 183.888 29.1695 184.984 28.8119C184.783 29.2761 184.766 29.7993 184.938 30.2753C185.109 30.7513 185.455 31.1444 185.905 31.3747C186.356 31.605 186.877 31.6552 187.364 31.5151C187.85 31.375 188.265 31.0552 188.524 30.6206" fill="#263238"/>
<path d="M205.549 18.6072C205.556 18.6408 205.557 18.6754 205.553 18.7094C205.548 18.779 205.553 18.8778 205.532 19.0079C205.477 19.3882 205.359 19.757 205.184 20.0993C204.905 20.6409 204.506 21.1114 204.016 21.4745C203.371 21.9682 202.582 22.237 201.77 22.2397L201.858 22.1117C202.051 22.6095 202.038 23.1633 201.823 23.6518C201.599 24.1637 201.301 24.6403 200.939 25.0667C200.767 25.3102 200.569 25.5344 200.348 25.7352C200.094 25.9275 199.797 26.0546 199.483 26.1053C199.157 26.169 198.821 26.152 198.503 26.0557C198.185 25.9594 197.896 25.7868 197.661 25.553L197.866 25.4834C197.818 26.065 197.648 26.63 197.368 27.1419C197.088 27.6539 196.703 28.1015 196.239 28.4558C195.731 28.8733 195.1 29.115 194.443 29.1444C193.823 29.146 193.208 29.0428 192.623 28.8391L192.768 28.7695C192.513 29.4565 192.089 30.0687 191.537 30.5503C191.285 30.7901 190.982 30.9708 190.652 31.0791C190.321 31.1874 189.97 31.2206 189.625 31.1763C189.034 31.0793 188.485 30.8118 188.045 30.4067C187.604 30.0017 187.292 29.4769 187.147 28.8968L187.275 28.949C186.705 29.2895 186.035 29.4221 185.378 29.3239C184.888 29.2582 184.421 29.0772 184.015 28.7959C183.761 28.6193 183.539 28.4 183.36 28.1476C183.297 28.0614 183.245 27.968 183.205 27.8694C183.438 28.2037 183.731 28.4923 184.068 28.7208C184.468 28.9781 184.922 29.1395 185.395 29.1924C186.018 29.2721 186.649 29.1364 187.184 28.8078L187.286 28.7431L187.313 28.8599C187.458 29.4002 187.756 29.8869 188.172 30.2613C188.588 30.6356 189.104 30.8814 189.656 30.969C189.971 31.0069 190.29 30.9739 190.59 30.8724C190.89 30.7709 191.164 30.6036 191.391 30.3826C191.91 29.9243 192.308 29.3438 192.547 28.6937L192.586 28.5886L192.692 28.6206C193.252 28.8134 193.84 28.9117 194.433 28.9114C195.041 28.8831 195.623 28.6582 196.092 28.2707C196.529 27.9366 196.892 27.5148 197.157 27.0324C197.422 26.55 197.583 26.0177 197.63 25.4695L197.652 25.2051L197.836 25.3999C198.044 25.6056 198.3 25.7573 198.58 25.8422C198.861 25.927 199.157 25.9424 199.445 25.8868C199.723 25.8435 199.986 25.7332 200.211 25.5655C200.418 25.3766 200.604 25.1668 200.768 24.9394C201.12 24.532 201.412 24.0758 201.634 23.585C201.734 23.3673 201.79 23.1319 201.799 22.8925C201.808 22.653 201.769 22.4142 201.685 22.1896L201.634 22.0595H201.773C202.548 22.0666 203.304 21.8225 203.928 21.3639C204.408 21.0211 204.806 20.5756 205.092 20.0596C205.329 19.6063 205.484 19.1145 205.549 18.6072Z" fill="#455A64"/>
<path d="M205.895 48.1014C205.853 47.8927 204.499 48.2488 203.233 47.3445C201.967 46.4402 201.736 44.9606 201.545 45.0003C201.454 45.0038 201.366 45.3912 201.511 46.0034C201.708 46.7989 202.18 47.4993 202.843 47.981C203.481 48.4429 204.273 48.6391 205.053 48.5285C205.632 48.4311 205.928 48.1925 205.895 48.1014Z" fill="#263238"/>
<path d="M238.916 99.5014C238.792 99.0625 231.548 79.3604 229.239 75.0482C226.475 69.8895 220.662 67.6051 217.056 67.3853C213.45 67.1655 174.841 70.2373 174.841 70.2373C174.841 70.2373 163.306 72.8181 161.836 82.7286C160.144 94.1368 158.661 120.254 158.661 120.254L176.234 111.255L178.511 105.527L214.869 113.632L223.747 100.511L238.916 99.5014Z" fill="#E44531"/>
<path d="M172.285 71.3609L187.364 64.7177L189.055 58.2192L206.657 66.5354L210.347 62.4646L211.891 67.0522L215.748 68.312L224.764 84.1555L224.735 117.917L226.561 147.039L224.605 151.636L208.454 154.017C206.688 154.277 204.894 154.279 203.128 154.023L170.345 148.667L169.5 139.046L173.002 112.526L172.285 71.3609Z" fill="#E44531"/>
<path d="M189.057 58.2192C189.057 58.2192 191.025 58.7883 196.08 61.4838C201.032 64.1237 206.662 66.5354 206.662 66.5354L206.233 74.4773L187.498 65.0794" fill="#E44531"/>
<path d="M210.346 62.4646L206.657 66.5347L208.628 75.0484L211.911 67.3534" fill="#E44531"/>
<g opacity="0.3">
<path d="M206.73 67.4141C206.893 67.5358 207.913 77.239 207.913 77.239L189.136 65.9004L206.23 74.4753L206.73 67.4141Z" fill="black"/>
</g>
<path d="M206.6 103.627C206.322 96.2064 207.489 77.2716 207.489 77.2716L209.936 76.8779C213.053 90.3553 215.152 104.047 216.216 117.839C216.907 126.966 216.907 137.538 216.907 137.538L211.991 148.083L206.558 137.608C206.558 137.608 206.944 112.646 206.6 103.627Z" fill="white"/>
<path d="M171.165 72.5093C171.136 72.5454 171.674 72.9642 172.434 73.7468C174.423 75.7949 175.801 78.3565 176.414 81.144C176.647 82.2097 176.7 82.8879 176.747 82.8831C176.77 82.7243 176.772 82.5629 176.751 82.4038C176.728 81.9686 176.675 81.5354 176.595 81.1071C176.072 78.2487 174.662 75.6273 172.564 73.6146C172.251 73.3111 171.918 73.0286 171.568 72.7687C171.446 72.6637 171.311 72.5764 171.165 72.5093Z" fill="white"/>
<path d="M206.602 70.3328L208.278 69.679L209.867 72.403L210.154 76.8779L207.915 77.2383L206.232 74.4767L206.602 70.3328Z" fill="white"/>
<path d="M224.736 83.6455C224.666 83.6455 224.605 93.332 224.605 105.279C224.605 117.227 224.665 126.913 224.736 126.913C224.807 126.913 224.866 117.228 224.866 105.279C224.866 93.3306 224.808 83.6455 224.736 83.6455Z" fill="#263238"/>
<path d="M206.483 66.4658C206.451 66.4881 206.844 67.0919 207.439 68.0845C208.034 69.0772 208.821 70.4747 209.571 72.0732L209.749 72.4565L209.866 72.7083L209.985 72.4586C210.597 71.1741 211.121 69.8494 211.552 68.4936C211.714 67.9767 211.831 67.5572 211.9 67.2644C211.95 67.1157 211.979 66.9606 211.985 66.8039C211.949 66.7942 211.748 67.4237 211.382 68.4365C211.015 69.4493 210.47 70.8413 209.748 72.348H209.984L209.805 71.9612C209.16 70.5871 208.421 69.2588 207.594 67.9857C207.275 67.4988 207.003 67.1134 206.808 66.8526C206.718 66.7094 206.608 66.5793 206.483 66.4658Z" fill="white"/>
<path d="M187.365 64.7178C187.444 64.7792 187.531 64.831 187.622 64.8722L188.382 65.2694L191.18 66.7177C193.541 67.9448 196.775 69.6929 200.358 71.6058C202.54 72.7675 204.604 73.8436 206.404 74.7431L206.57 74.8258V74.6422C206.593 72.3119 206.612 70.3488 206.626 68.9284C206.626 68.2613 206.626 67.7229 206.626 67.318C206.634 67.127 206.625 66.9357 206.6 66.7462C206.569 66.9347 206.554 67.1255 206.554 67.3166C206.539 67.7215 206.519 68.2592 206.492 68.9263C206.456 70.346 206.404 72.3084 206.343 74.638L206.511 74.5365C204.723 73.6224 202.664 72.5372 200.482 71.3756C196.9 69.4633 193.651 67.7395 191.266 66.5535C190.075 65.9588 189.104 65.4913 188.428 65.1783L187.647 64.8249C187.557 64.7788 187.463 64.7429 187.365 64.7178Z" fill="white"/>
<path d="M222.47 70.842C222.433 70.8649 222.727 71.3644 223.107 72.2124C224.101 74.4279 224.546 76.8498 224.407 79.2736C224.355 80.2009 224.257 80.7727 224.3 80.781C224.36 80.6574 224.4 80.5246 224.417 80.388C224.498 80.0251 224.556 79.6575 224.591 79.2875C224.836 76.8264 224.379 74.3462 223.274 72.133C223.109 71.7999 222.923 71.4772 222.717 71.1668C222.574 70.9449 222.485 70.8295 222.47 70.842Z" fill="white"/>
<path d="M208.325 77.5282C208.363 77.5894 208.788 77.3891 209.276 77.0823C209.763 76.7755 210.126 76.4771 210.087 76.4166C210.048 76.3561 209.623 76.5557 209.136 76.8618C208.648 77.1678 208.286 77.4677 208.325 77.5282Z" fill="#263238"/>
<path d="M207.519 76.4349C207.975 75.7205 208.356 74.9613 208.657 74.1692C209.037 73.4115 209.339 72.6169 209.557 71.7979C209.101 72.5123 208.719 73.2718 208.419 74.0642C208.038 74.8215 207.737 75.6159 207.519 76.4349Z" fill="#263238"/>
<path d="M169.199 73.0256C169.199 73.0256 163.389 77.2049 162.662 79.5137C161.936 81.8225 158.849 119.341 158.304 123.804C157.76 128.267 157.215 136.614 160.664 139.335C164.114 142.056 171.559 144.097 171.559 144.097L178.436 129.901L174.793 122.28L178.436 93.7864L169.199 73.0256Z" fill="#E44531"/>
<path d="M169.901 143.598C170.024 143.576 170.148 143.567 170.273 143.571C170.63 143.568 170.987 143.545 171.342 143.501C172.674 143.374 173.953 142.912 175.059 142.158C176.703 140.935 177.938 139.245 178.605 137.309C179.497 134.861 179.952 132.277 179.949 129.672L179.981 129.769L174.646 122.386L174.604 122.328L174.613 122.258C174.637 122.069 174.663 121.864 174.689 121.659C175.716 113.667 176.645 106.436 177.323 101.159C177.66 98.5632 177.935 96.4506 178.129 94.9487C178.222 94.2415 178.296 93.679 178.351 93.2611C178.364 93.0633 178.393 92.8668 178.437 92.6733C178.447 92.7227 178.449 92.7735 178.443 92.8236C178.443 92.9238 178.438 93.0733 178.424 93.2681C178.387 93.6887 178.336 94.2543 178.271 94.9647C178.124 96.4367 177.887 98.5646 177.58 101.191C176.966 106.445 176.073 113.698 175.051 121.706C175.026 121.911 175 122.116 174.975 122.305L174.942 122.175L180.262 129.569L180.294 129.615V129.666C180.287 132.312 179.807 134.936 178.877 137.414C178.175 139.392 176.885 141.109 175.179 142.334C174.531 142.774 173.816 143.104 173.061 143.313L172.586 143.445L172.137 143.522C171.879 143.574 171.617 143.605 171.353 143.615C170.994 143.647 170.633 143.652 170.273 143.628C170.148 143.631 170.024 143.621 169.901 143.598Z" fill="white"/>
<path d="M162.881 124.911C163.33 124.473 163.845 124.107 164.406 123.827C167.07 122.335 170.143 121.739 173.172 122.126C173.797 122.176 174.411 122.322 174.992 122.56C170.803 121.842 166.495 122.679 162.879 124.911H162.881Z" fill="white"/>
<path d="M208.47 87.5586C208.49 87.5551 208.801 88.8038 209.332 91.0026C210.522 89.2888 212.045 87.8325 213.811 86.7211L213.789 86.7253C213.789 86.7253 222.76 77.8213 225.624 68.4583C227.704 61.6607 227.186 54.1333 227.186 54.1333C227.102 53.7744 226.403 50.5822 225.831 47.9701C225.609 46.9408 225.792 45.8653 226.343 44.9676C226.894 44.07 227.771 43.4195 228.79 43.1516C233.246 41.9516 245.303 39.6039 248.068 47.6995C252.195 59.7748 245.525 72.817 245.597 76.5483C245.61 77.2537 245.621 77.8255 245.63 78.2874C249.166 77.4707 251.907 76.8815 251.921 76.9407H251.917L275.137 71.5273C275.137 71.5273 282.809 69.2074 285.44 77.0652C288.072 84.9229 279.144 87.5364 279.144 87.5364C279.144 87.5364 283.34 87.3513 284.48 94.4981C285.62 101.645 277.949 103.965 277.949 103.965C277.949 103.965 282.648 103.663 283.867 109.999C285.05 116.165 277.38 119.881 276.97 120.075C277.579 119.922 278.197 119.805 278.82 119.728C278.361 119.896 277.891 120.032 277.413 120.132C280.988 120.589 281.507 124.846 281.507 124.846C283.812 133.575 277.087 135.409 277.087 135.409L234.694 145.301C230.468 146.287 226.055 146.129 221.911 144.843C222.318 146.652 222.538 147.664 222.52 147.671L192.911 154.58C192.846 154.595 189.649 141.15 185.77 124.553C181.892 107.956 178.797 94.4835 178.861 94.4689L208.47 87.5586Z" fill="#FF725E"/>
<g opacity="0.3">
<path d="M208.47 87.5586C208.49 87.5551 208.801 88.8038 209.332 91.0026C210.522 89.2888 212.045 87.8325 213.811 86.7211L213.789 86.7253C213.789 86.7253 222.76 77.8213 225.624 68.4583C227.704 61.6607 227.186 54.1333 227.186 54.1333C227.102 53.7744 226.403 50.5822 225.831 47.9701C225.609 46.9408 225.792 45.8653 226.343 44.9676C226.894 44.07 227.771 43.4195 228.79 43.1516C233.246 41.9516 245.303 39.6039 248.068 47.6995C252.195 59.7748 245.525 72.817 245.597 76.5483C245.61 77.2537 245.621 77.8255 245.63 78.2874C249.166 77.4707 251.907 76.8815 251.921 76.9407H251.917L275.137 71.5273C275.137 71.5273 282.809 69.2074 285.44 77.0652C288.072 84.9229 279.144 87.5364 279.144 87.5364C279.144 87.5364 283.34 87.3513 284.48 94.4981C285.62 101.645 277.949 103.965 277.949 103.965C277.949 103.965 282.648 103.663 283.867 109.999C285.05 116.165 277.38 119.881 276.97 120.075C277.579 119.922 278.197 119.805 278.82 119.728C278.361 119.896 277.891 120.032 277.413 120.132C280.988 120.589 281.507 124.846 281.507 124.846C283.812 133.575 277.087 135.409 277.087 135.409L234.694 145.301C230.468 146.287 226.055 146.129 221.911 144.843C222.318 146.652 222.538 147.664 222.52 147.671L192.911 154.58C192.846 154.595 189.649 141.15 185.77 124.553C181.892 107.956 178.797 94.4835 178.861 94.4689L208.47 87.5586Z" fill="#F6AB36"/>
</g>
<path d="M214.195 95.9882L213.621 99.835L223.088 140.335C225.862 142.175 228.984 143.429 232.26 144.02C235.537 144.61 238.9 144.524 242.143 143.768L284.536 133.875C284.536 133.875 291.261 132.04 288.956 123.312C288.956 123.312 288.399 118.676 284.399 118.551C284.399 118.551 292.531 114.8 291.316 108.464C290.1 102.128 285.398 102.431 285.398 102.431C285.398 102.431 293.07 100.111 291.929 92.9644C290.788 85.8176 286.593 86.0026 286.593 86.0026C286.593 86.0026 295.521 83.3891 292.889 75.5314C290.258 67.6737 282.586 69.9929 282.586 69.9929L252.432 77.0249L226.001 83.193C222.977 83.8988 220.234 85.4959 218.129 87.7773C216.024 90.0587 214.654 92.9192 214.195 95.9882Z" fill="#F9C438"/>
<path d="M221.237 85.1879C221.237 85.1879 230.208 76.2839 233.072 66.9209C235.152 60.1233 234.634 52.596 234.634 52.596C234.55 52.237 233.851 49.0448 233.28 46.4321C233.057 45.4027 233.24 44.3273 233.792 43.4297C234.343 42.5321 235.219 41.8815 236.238 41.6135C240.694 40.4142 248.729 42.6263 251.495 50.7192C255.622 62.7945 252.972 71.2803 253.045 75.0116L253.114 78.7436L221.237 85.1879Z" fill="#F6AB36"/>
<path d="M215.919 86.0199L186.309 92.9294L200.359 153.041L229.968 146.132L215.919 86.0199Z" fill="#F9C438"/>
<path d="M229.969 146.134C230.033 146.119 226.939 132.649 223.061 116.053C219.182 99.4558 215.983 86.0074 215.919 86.022C215.855 86.0366 218.948 99.5038 222.828 116.106C226.709 132.709 229.905 146.147 229.969 146.134Z" fill="#263238"/>
<path d="M200.359 153.042C200.423 153.026 197.33 139.557 193.45 122.96C189.571 106.363 186.373 92.9148 186.309 92.9295C186.245 92.9441 189.338 106.411 193.218 123.014C197.098 139.616 200.295 153.056 200.359 153.042Z" fill="#263238"/>
<path d="M208.683 102.219C208.939 103.314 208.864 104.461 208.468 105.513C208.072 106.566 207.372 107.477 206.458 108.133C205.543 108.788 204.455 109.158 203.33 109.195C202.205 109.232 201.095 108.935 200.139 108.342C199.183 107.748 198.425 106.885 197.96 105.861C197.495 104.837 197.345 103.698 197.528 102.588C197.711 101.479 198.219 100.448 198.988 99.6274C199.757 98.8065 200.753 98.2318 201.848 97.9762C203.318 97.6336 204.863 97.8881 206.145 98.6838C207.426 99.4796 208.339 100.751 208.683 102.219Z" fill="white"/>
<path d="M259.371 75.4048C259.355 75.3401 256.115 76.042 252.13 76.9706C248.146 77.8993 244.932 78.7055 244.947 78.7695C244.963 78.8335 248.202 78.1316 252.188 77.203C256.173 76.2743 259.385 75.4688 259.371 75.4048Z" fill="#263238"/>
<path d="M286.065 102.577C286.05 102.513 283.976 102.943 281.429 103.537C279.883 103.857 278.354 104.255 276.847 104.729C279.954 104.166 283.03 103.448 286.065 102.577Z" fill="#263238"/>
<path d="M287.142 85.7209C287.127 85.6562 284.186 86.2878 280.574 87.1309C276.961 87.974 274.045 88.7093 274.059 88.774C274.074 88.8386 277.015 88.2063 280.628 87.3625C284.241 86.5187 287.157 85.7849 287.142 85.7209Z" fill="#263238"/>
<path d="M286.266 118.194C286.251 118.13 283.31 118.762 279.698 119.605C276.086 120.448 273.169 121.183 273.183 121.247C273.198 121.311 276.139 120.681 279.752 119.837C283.365 118.993 286.281 118.259 286.266 118.194Z" fill="#263238"/>
<g opacity="0.3">
<path d="M236.492 44.5909C236.073 45.0631 235.788 45.6394 235.669 46.2593C235.55 46.8792 235.6 47.5197 235.814 48.1135C236.257 49.2932 236.798 50.4334 237.432 51.522C238.646 54.0533 238.994 56.9127 238.423 59.6608C238.247 60.4956 238.016 61.4555 238.549 62.1177C239.306 63.0568 240.832 62.5351 241.787 61.7991C243.58 60.3717 244.931 58.4648 245.682 56.3002C246.433 54.1357 246.554 51.8025 246.029 49.5722C245.612 47.6758 244.557 45.9792 243.041 44.7648C241.495 43.6177 239.118 42.5764 236.492 44.5881" fill="white"/>
</g>
<g opacity="0.3">
<path d="M285.359 71.0411C284.303 70.9195 283.234 71.0299 282.226 71.3646L264.334 75.9049C262.385 76.4009 258.722 76.8412 258.686 78.8307C258.292 79.9179 259.119 81.1443 260.187 81.5895C261.294 81.9461 262.478 81.9902 263.609 81.7168C266.002 81.3342 268.363 80.7777 270.721 80.215C275.486 79.2001 280.163 77.8075 284.706 76.0503C285.387 75.8043 286.022 75.4467 286.586 74.9922C286.866 74.7625 287.091 74.4729 287.245 74.1447C287.398 73.8166 287.476 73.4582 287.473 73.096C287.385 72.5731 287.133 72.0918 286.753 71.7221C286.373 71.3525 285.884 71.1139 285.359 71.0411Z" fill="white"/>
</g>
<path d="M209.335 89.3541C209.32 89.2894 205.17 90.2041 200.068 91.3943C194.965 92.5845 190.838 93.6029 190.853 93.6676C190.868 93.7323 195.017 92.8176 200.121 91.6267C205.225 90.4357 209.35 89.4181 209.335 89.3541Z" fill="white"/>
<path d="M289.215 96.1615C289.274 96.0529 289.313 95.9354 289.332 95.8137C289.415 95.4882 289.466 95.1556 289.485 94.8203C289.52 94.3217 289.502 93.8209 289.431 93.3261C289.258 92.1079 288.794 90.9493 288.077 89.9489C287.786 89.5426 287.453 89.1681 287.083 88.8317C286.838 88.6022 286.571 88.3968 286.286 88.2182C286.083 88.0944 285.968 88.0324 285.959 88.0464C285.934 88.0832 286.377 88.365 286.967 88.9507C287.31 89.2958 287.621 89.6711 287.897 90.072C288.572 91.0572 289.022 92.1789 289.215 93.3574C289.293 93.8375 289.327 94.3236 289.317 94.8099C289.297 95.6453 289.171 96.1517 289.215 96.1615Z" fill="white"/>
<path d="M290.041 79.9109C290.284 79.6906 290.474 79.4187 290.598 79.1151C290.936 78.396 291.086 77.603 291.034 76.8103C290.982 76.0175 290.73 75.2507 290.301 74.5818C290.139 74.2972 289.914 74.0526 289.645 73.866C289.614 73.8952 289.869 74.163 290.158 74.6694C290.529 75.3318 290.748 76.0686 290.797 76.8261C290.847 77.5836 290.726 78.3426 290.445 79.0476C290.224 79.5867 290.006 79.8859 290.041 79.9109Z" fill="white"/>
<path d="M287.801 113.663C288.125 113.47 288.398 113.2 288.594 112.878C289.13 112.125 289.391 111.211 289.335 110.289C289.279 109.367 288.908 108.493 288.285 107.81C288.05 107.514 287.746 107.28 287.399 107.128C287.373 107.162 287.735 107.395 288.157 107.92C288.715 108.595 289.045 109.431 289.099 110.306C289.152 111.181 288.926 112.05 288.454 112.789C288.102 113.357 287.771 113.633 287.801 113.663Z" fill="white"/>
<path d="M285.111 129.342C285.347 129.102 285.53 128.816 285.649 128.501C285.976 127.754 286.128 126.943 286.092 126.129C286.057 125.315 285.836 124.52 285.445 123.805C285.299 123.502 285.092 123.232 284.836 123.013C284.804 123.039 285.036 123.34 285.295 123.882C285.63 124.59 285.82 125.357 285.854 126.139C285.888 126.921 285.765 127.702 285.492 128.436C285.281 129 285.076 129.32 285.111 129.342Z" fill="white"/>
<path d="M251.824 64.9133C251.904 64.6909 251.963 64.4618 252.002 64.2288C252.053 64.0069 252.11 63.7342 252.154 63.4136C252.198 63.0929 252.269 62.7305 252.3 62.3242C252.399 61.374 252.434 60.4181 252.405 59.4631C252.332 57.1188 251.883 54.8014 251.075 52.5994C250.745 51.7027 250.355 50.8291 249.908 49.9846C249.728 49.6194 249.53 49.3071 249.366 49.0281C249.202 48.7492 249.051 48.5148 248.92 48.329C248.797 48.1275 248.658 47.9372 248.502 47.76C248.597 47.9759 248.711 48.1829 248.843 48.3784C248.962 48.5718 249.104 48.8097 249.253 49.0956C249.403 49.3815 249.591 49.6938 249.761 50.0625C250.183 50.9102 250.553 51.7824 250.87 52.6746C251.647 54.8622 252.091 57.1538 252.188 59.4729C252.227 60.4189 252.208 61.3664 252.133 62.3103C252.114 62.7152 252.058 63.0755 252.024 63.3962C251.99 63.7169 251.949 63.9902 251.911 64.2135C251.862 64.4438 251.833 64.678 251.824 64.9133Z" fill="white"/>
<path d="M184.221 135.837C184.221 135.837 186.549 134.036 188.277 133.959C190.005 133.882 192.257 134.559 192.708 134.334C193.16 134.11 194.211 133.122 194.887 133.953C195.563 134.784 196.389 137.787 192.784 138.614H190.306C190.306 138.614 190.607 141.09 191.211 142.065C191.815 143.041 200.224 153.624 200.224 153.624C200.224 153.624 201.276 154.675 200.75 155.725C200.224 156.776 197.971 156.175 197.971 156.175C197.971 156.175 196.394 157.601 194.591 156.926C193.698 156.622 192.841 156.219 192.037 155.725C191.455 156.17 190.742 156.411 190.009 156.411C189.276 156.411 188.563 156.17 187.981 155.725C185.878 154.149 178.865 145.367 178.865 145.367L181.371 135.536L184.221 135.837Z" fill="#FBB089"/>
<path d="M176.92 130.03L184.22 135.838L178.86 145.368L168.17 141.491C168.17 141.491 168.477 130.234 176.92 130.03Z" fill="#FBB089"/>
<path d="M290.785 117.053C290.785 117.053 290.555 114.441 289.094 114.979C287.632 115.516 287.018 118.59 287.018 118.59L290.785 117.053Z" fill="#FBB089"/>
<path d="M285.557 119.629C285.557 119.629 288.095 116.786 291.631 117.017C295.168 117.248 292.938 120.243 292.938 120.243C292.938 120.243 295.556 121.857 293.635 124.161L293.326 124.776C293.326 124.776 295.553 125.622 293.248 128.003C293.481 128.428 293.577 128.915 293.521 129.396C293.466 129.878 293.263 130.33 292.941 130.692C291.788 131.844 288.903 130.308 288.903 130.308C288.903 130.308 286.25 130.923 286.02 129.847C285.934 129.49 285.945 129.116 286.054 128.764C286.162 128.413 286.363 128.097 286.635 127.85C286.866 127.697 288.25 127.158 288.25 127.158C288.25 127.158 285.174 127.543 285.098 126.775C285.021 126.007 284.713 125.161 287.019 124.392L288.249 124.063C288.249 124.063 285.06 124.162 285.04 123.394C285.021 122.626 284.866 122.318 286.02 121.78C286.737 121.443 287.431 121.059 288.096 120.628C288.096 120.628 285.098 121.242 285.557 119.629Z" fill="#FBB089"/>
<path d="M284.992 122.628C286.119 121.735 287.412 121.073 288.796 120.682C290.18 120.291 291.628 120.178 293.057 120.349C292.66 120.182 292.235 120.091 291.804 120.081C289.707 119.905 287.618 120.495 285.925 121.741C285.561 121.976 285.244 122.277 284.992 122.628Z" fill="#6F4439"/>
<path d="M285.347 127.022C285.365 127.001 285.272 126.925 285.198 126.748C285.109 126.489 285.112 126.207 285.206 125.95C285.321 125.558 285.567 125.218 285.902 124.985C286.33 124.702 286.807 124.504 287.309 124.399C288.641 124.153 289.987 123.99 291.339 123.912C290.949 123.799 290.543 123.754 290.138 123.779C289.161 123.768 288.186 123.872 287.234 124.09C286.692 124.203 286.18 124.427 285.73 124.748C285.353 125.027 285.091 125.433 284.99 125.89C284.902 126.195 284.938 126.523 285.09 126.803C285.214 126.995 285.34 127.034 285.347 127.022Z" fill="#6F4439"/>
<path d="M286.641 130.4C286.649 130.375 286.53 130.33 286.374 130.183C286.245 130.056 286.144 129.904 286.077 129.736C286.01 129.568 285.979 129.388 285.986 129.207C285.992 129.026 286.036 128.848 286.115 128.686C286.194 128.523 286.306 128.378 286.444 128.261C286.907 127.951 287.416 127.716 287.953 127.565C288.966 127.354 290.005 127.299 291.034 127.404C291.472 127.456 291.916 127.433 292.346 127.334C291.918 127.253 291.484 127.202 291.049 127.181C289.992 127.007 288.911 127.035 287.864 127.262C287.285 127.424 286.74 127.689 286.255 128.043C286.04 128.223 285.883 128.463 285.804 128.732C285.744 128.963 285.733 129.203 285.772 129.438C285.799 129.607 285.86 129.769 285.95 129.915C286.041 130.06 286.159 130.185 286.299 130.284C286.495 130.413 286.638 130.416 286.641 130.4Z" fill="#6F4439"/>
<path d="M285.511 119.753C285.535 119.753 285.581 119.656 285.737 119.512C285.956 119.307 286.189 119.118 286.433 118.944C287.228 118.351 288.106 117.879 289.04 117.544C289.965 117.192 290.957 117.048 291.944 117.123C292.345 117.213 292.74 117.326 293.128 117.461C292.814 117.161 292.415 116.967 291.986 116.904C290.961 116.756 289.915 116.872 288.949 117.243C286.652 118.065 285.32 119.649 285.511 119.753Z" fill="#6F4439"/>
</g>
<defs>
<clipPath id="clip0_64_2">
<rect width="299" height="315" fill="white"/>
</clipPath>
</defs>
</svg>
