<svg width="326" height="333" viewBox="0 0 326 333" fill="none" xmlns="http://www.w3.org/2000/svg">
<g clip-path="url(#clip0_58_596)">
<path d="M184.723 10.0797H25.0609C22.0435 10.0797 19.5974 12.4496 19.5974 15.3729V231.078C19.5974 234.001 22.0435 236.371 25.0609 236.371H184.723C187.74 236.371 190.186 234.001 190.186 231.078V15.3729C190.186 12.4496 187.74 10.0797 184.723 10.0797Z" fill="#F5F5F5"/>
<path d="M314.231 23.5576L314.552 25.1291L311.339 41.969C310.198 42.7793 308.899 43.3549 307.521 43.6606C306.143 43.9663 304.714 43.9955 303.324 43.7464L285.147 40.4902C285.147 40.4902 282.258 39.8651 283.062 36.2302C283.062 36.2302 283.205 34.3131 284.901 34.1844C284.901 34.1844 281.377 32.7975 281.767 30.1678C282.158 27.5381 284.157 27.5734 284.157 27.5734C284.157 27.5734 280.857 26.7645 281.197 23.8046C281.537 20.8448 283.322 20.8396 283.322 20.8396C283.322 20.8396 279.483 19.9359 280.444 16.6532C280.553 16.2182 280.751 15.8086 281.025 15.4482C281.299 15.0877 281.644 14.7835 282.04 14.5533C282.437 14.3231 282.876 14.1713 283.333 14.1069C283.791 14.0424 284.257 14.0666 284.704 14.1779L297.635 16.4907L308.97 18.5203C310.267 18.7525 311.462 19.3569 312.4 20.2551C313.338 21.1533 313.976 22.3038 314.231 23.5576Z" fill="#EBEBEB"/>
<path d="M311.03 19.2505C311.03 19.2505 307.048 15.7605 305.647 11.9645C305.012 10.0718 304.692 8.09306 304.699 6.10283C304.728 5.95576 304.961 4.62621 305.155 3.54154C305.229 3.11385 305.13 2.67497 304.878 2.31623C304.627 1.9575 304.242 1.70655 303.805 1.61561C302.427 1.42616 301.026 1.73262 299.867 2.47694C298.707 3.22126 297.87 4.35175 297.513 5.65426C296.002 10.6996 297.294 14.139 297.338 15.6752L297.381 17.2113L311.03 19.2505Z" fill="#EBEBEB"/>
<path d="M308.533 44.4848L321.231 46.7585L325.999 21.7646L313.302 19.4908L308.533 44.4848Z" fill="#EBEBEB"/>
<path d="M308.534 44.4847C308.507 44.4803 309.552 38.8805 310.868 31.9834C312.184 25.0864 313.275 19.4895 313.302 19.4946C313.33 19.4998 312.284 25.0982 310.967 32.0011C309.651 38.904 308.561 44.4899 308.534 44.4847Z" fill="#E0E0E0"/>
<path d="M321.232 46.7571C321.205 46.7519 322.25 41.1528 323.566 34.2521C324.882 27.3514 325.973 21.7589 326 21.764C326.028 21.7692 324.983 27.3668 323.665 34.2698C322.348 41.1727 321.259 46.7637 321.232 46.7571Z" fill="#E0E0E0"/>
<path d="M316.693 26.0145C316.606 26.4697 316.661 26.9395 316.85 27.3647C317.039 27.7899 317.353 28.1512 317.754 28.4031C318.155 28.655 318.624 28.7861 319.102 28.7798C319.579 28.7735 320.044 28.6301 320.438 28.3678C320.832 28.1055 321.136 27.736 321.313 27.306C321.49 26.876 321.531 26.4049 321.432 25.9521C321.332 25.4994 321.097 25.0854 320.754 24.7624C320.412 24.4395 319.979 24.2221 319.509 24.1378C319.197 24.0818 318.876 24.0859 318.566 24.1499C318.256 24.2139 317.961 24.3365 317.7 24.5108C317.438 24.6851 317.215 24.9076 317.042 25.1656C316.869 25.4236 316.751 25.7121 316.693 26.0145Z" fill="white"/>
<path d="M294.66 15.9583C294.665 15.9318 296.054 16.1583 297.761 16.4635C299.468 16.7687 300.849 17.0393 300.844 17.0657C300.84 17.0922 299.451 16.8657 297.743 16.5605C296.035 16.2554 294.654 15.9825 294.66 15.9583Z" fill="#E0E0E0"/>
<path d="M283.874 27.647C284.541 27.7162 285.204 27.8183 285.86 27.9529C286.522 28.0547 287.179 28.1887 287.827 28.3544C287.16 28.2847 286.497 28.1826 285.84 28.0485C284.75 27.8536 283.869 27.6749 283.874 27.647Z" fill="#E0E0E0"/>
<path d="M283.083 20.7338C283.088 20.7073 284.348 20.911 285.897 21.1882C287.445 21.4655 288.697 21.7125 288.692 21.739C288.687 21.7655 287.427 21.5618 285.878 21.2845C284.33 21.0073 283.077 20.7602 283.083 20.7338Z" fill="#E0E0E0"/>
<path d="M284.098 34.0741C284.103 34.0476 285.364 34.2513 286.912 34.5286C288.461 34.8058 289.713 35.0529 289.708 35.0793C289.702 35.1058 288.442 34.9021 286.894 34.6249C285.346 34.3476 284.093 34.1006 284.098 34.0741Z" fill="#E0E0E0"/>
<path d="M316.162 20.7352C316.167 20.7087 317.945 21.0043 320.134 21.397C322.322 21.7897 324.092 22.128 324.087 22.1552C324.083 22.1824 322.304 21.886 320.115 21.4933C317.927 21.1006 316.156 20.7616 316.162 20.7352Z" fill="white"/>
<path d="M282.41 25.068C282.383 25.0245 282.364 24.9768 282.354 24.9269C282.312 24.7948 282.283 24.6591 282.269 24.5217C282.244 24.3173 282.242 24.111 282.262 23.9062C282.311 23.4018 282.485 22.9164 282.769 22.4913C282.884 22.3183 283.018 22.1578 283.169 22.0126C283.268 21.9137 283.378 21.8243 283.495 21.7456C283.579 21.6912 283.626 21.6625 283.629 21.6721C283.633 21.6817 283.459 21.8111 283.221 22.0641C283.082 22.2122 282.957 22.3724 282.848 22.5428C282.581 22.961 282.413 23.431 282.354 23.9194C282.331 24.1184 282.326 24.3189 282.34 24.5187C282.365 24.8563 282.426 25.0636 282.41 25.068Z" fill="white"/>
<path d="M281.737 18.3996C281.63 18.3136 281.544 18.2056 281.485 18.0834C281.327 17.7941 281.248 17.4707 281.254 17.1436C281.26 16.8165 281.352 16.4962 281.521 16.2127C281.584 16.0926 281.674 15.9876 281.785 15.9053C281.799 15.917 281.695 16.0318 281.583 16.2458C281.439 16.5254 281.36 16.8328 281.355 17.1454C281.349 17.458 281.415 17.768 281.549 18.0526C281.654 18.2702 281.752 18.3894 281.737 18.3996Z" fill="white"/>
<path d="M283.357 32.2401C283.215 32.1668 283.093 32.0611 283.003 31.9319C282.761 31.6325 282.632 31.2619 282.638 30.8817C282.644 30.5014 282.784 30.1346 283.034 29.842C283.128 29.7156 283.253 29.6132 283.396 29.5435C283.408 29.5574 283.259 29.6604 283.093 29.8839C282.869 30.1724 282.746 30.5221 282.741 30.8827C282.736 31.2433 282.848 31.5962 283.063 31.8908C283.223 32.1202 283.368 32.2268 283.357 32.2401Z" fill="white"/>
<path d="M284.809 38.6371C284.704 38.5428 284.621 38.4283 284.564 38.301C284.411 38.0003 284.33 37.6695 284.329 37.334C284.328 36.9985 284.406 36.6672 284.558 36.3655C284.614 36.2382 284.696 36.1233 284.8 36.028C284.814 36.0382 284.724 36.1662 284.624 36.3956C284.496 36.6929 284.43 37.012 284.431 37.3342C284.432 37.6564 284.5 37.9751 284.63 38.2716C284.73 38.4995 284.823 38.6275 284.809 38.6371Z" fill="white"/>
<path d="M297.652 11.4968C297.614 11.4067 297.585 11.3137 297.563 11.2188C297.537 11.1284 297.508 11.0173 297.482 10.8864C297.456 10.7555 297.42 10.6077 297.398 10.4408C297.337 10.0513 297.304 9.65818 297.297 9.26422C297.281 8.29875 297.426 7.33707 297.725 6.41613C297.848 6.0409 297.996 5.67409 298.169 5.31822C298.239 5.16453 298.316 5.0329 298.38 4.9145C298.444 4.79611 298.503 4.69757 298.555 4.62035C298.603 4.53525 298.659 4.45431 298.721 4.37842C298.686 4.46916 298.641 4.55654 298.589 4.63947C298.543 4.7211 298.487 4.82185 298.43 4.94245C298.373 5.06305 298.299 5.19468 298.233 5.34911C298.071 5.70584 297.931 6.07174 297.814 6.44481C297.674 6.90288 297.567 7.36971 297.492 7.84201C297.424 8.31445 297.39 8.79088 297.39 9.2679C297.391 9.65755 297.416 10.0468 297.466 10.4335C297.482 10.5997 297.513 10.7475 297.534 10.8747C297.555 11.0019 297.577 11.1181 297.599 11.2093C297.625 11.3034 297.643 11.3996 297.652 11.4968Z" fill="white"/>
<path d="M294.577 177.527L295.437 178.483L300.112 191.26C299.661 192.253 299.005 193.146 298.185 193.884C297.365 194.622 296.398 195.189 295.343 195.551L281.549 200.289C281.549 200.289 279.312 200.967 278.38 198.167C278.38 198.167 277.697 196.798 278.806 196.059C278.806 196.059 275.823 196.459 275.016 194.508C274.21 192.556 275.596 191.813 275.596 191.813C275.596 191.813 273.003 192.524 272.028 190.363C271.054 188.202 272.274 187.515 272.274 187.515C272.274 187.515 269.273 188.367 268.59 185.75C268.487 185.41 268.454 185.053 268.494 184.7C268.533 184.347 268.645 184.006 268.823 183.695C269.001 183.385 269.24 183.111 269.528 182.892C269.816 182.672 270.146 182.51 270.499 182.415L280.309 179.044L288.909 176.09C289.894 175.752 290.96 175.708 291.971 175.964C292.982 176.221 293.889 176.765 294.577 177.527Z" fill="#EBEBEB"/>
<path d="M290.623 175.801C290.623 175.801 286.467 174.935 283.957 172.869C282.749 171.815 281.721 170.581 280.914 169.214C280.873 169.101 280.491 168.101 280.179 167.284C280.055 166.963 279.808 166.7 279.489 166.55C279.17 166.4 278.804 166.376 278.467 166.481C277.446 166.879 276.61 167.626 276.119 168.581C275.628 169.535 275.515 170.631 275.802 171.661C276.827 175.701 279.118 177.563 279.774 178.599L280.431 179.636L290.623 175.801Z" fill="#EBEBEB"/>
<path d="M299.211 194.058L308.85 190.75L301.914 171.777L292.275 175.085L299.211 194.058Z" fill="#EBEBEB"/>
<path d="M299.217 194.058C299.196 194.066 297.623 189.826 295.71 184.591C293.797 179.355 292.258 175.104 292.278 175.095C292.299 175.085 293.872 179.326 295.785 184.564C297.698 189.802 299.237 194.052 299.217 194.058Z" fill="#E0E0E0"/>
<path d="M308.85 190.751C308.83 190.757 307.256 186.518 305.344 181.282C303.432 176.046 301.892 171.796 301.913 171.786C301.933 171.777 303.507 176.018 305.42 181.256C307.332 186.493 308.872 190.743 308.85 190.751Z" fill="#E0E0E0"/>
<path d="M297.268 178.268C297.395 178.613 297.624 178.915 297.927 179.134C298.23 179.353 298.594 179.481 298.971 179.5C299.349 179.519 299.725 179.429 300.05 179.242C300.375 179.054 300.635 178.778 300.798 178.447C300.961 178.116 301.019 177.746 300.964 177.383C300.91 177.02 300.746 176.681 300.492 176.409C300.239 176.136 299.908 175.943 299.541 175.853C299.175 175.763 298.789 175.78 298.432 175.903C298.195 175.984 297.977 176.11 297.791 176.272C297.604 176.435 297.453 176.632 297.344 176.852C297.236 177.071 297.174 177.309 297.161 177.552C297.148 177.795 297.184 178.038 297.268 178.268Z" fill="white"/>
<path d="M278.053 179.818C278.046 179.798 279.091 179.421 280.386 178.976C281.681 178.53 282.739 178.187 282.746 178.207C282.752 178.226 281.709 178.604 280.413 179.049C279.117 179.494 278.061 179.839 278.053 179.818Z" fill="#E0E0E0"/>
<path d="M275.433 191.968C275.918 191.759 276.414 191.575 276.919 191.416C277.747 191.132 278.424 190.918 278.432 190.938C277.451 191.329 276.45 191.672 275.433 191.967V191.968Z" fill="#E0E0E0"/>
<path d="M272.068 187.53C272.061 187.511 273.007 187.167 274.183 186.763C275.359 186.358 276.317 186.049 276.325 186.069C276.333 186.088 275.385 186.436 274.21 186.836C273.034 187.236 272.075 187.551 272.068 187.53Z" fill="#E0E0E0"/>
<path d="M278.212 196.288C278.204 196.268 279.152 195.925 280.327 195.52C281.502 195.116 282.462 194.806 282.469 194.826C282.475 194.846 281.529 195.194 280.353 195.594C279.177 195.994 278.219 196.309 278.212 196.288Z" fill="#E0E0E0"/>
<path d="M294.747 174.853C294.739 174.833 296.08 174.354 297.74 173.783C299.401 173.213 300.753 172.767 300.761 172.788C300.768 172.808 299.428 173.286 297.767 173.856C296.106 174.427 294.754 174.873 294.747 174.853Z" fill="white"/>
<path d="M273.376 190.763C273.372 190.767 273.339 190.74 273.28 190.69C273.197 190.615 273.122 190.533 273.056 190.444C272.956 190.313 272.87 190.173 272.8 190.025C272.628 189.66 272.55 189.26 272.572 188.859C272.58 188.697 272.605 188.536 272.648 188.378C272.676 188.272 272.714 188.169 272.762 188.07C272.777 188.032 272.797 187.997 272.824 187.965C272.838 187.971 272.764 188.125 272.704 188.392C272.668 188.546 272.648 188.704 272.643 188.862C272.631 189.251 272.707 189.638 272.867 189.995C272.932 190.141 273.01 190.281 273.102 190.412C273.257 190.632 273.387 190.75 273.376 190.763Z" fill="white"/>
<path d="M270.194 186.447C270.084 186.429 269.981 186.388 269.89 186.326C269.664 186.188 269.477 185.997 269.348 185.771C269.219 185.544 269.151 185.289 269.151 185.03C269.145 184.923 269.164 184.817 269.206 184.718C269.221 184.718 269.197 184.839 269.206 185.029C269.221 185.276 269.293 185.516 269.417 185.732C269.541 185.949 269.713 186.135 269.92 186.279C270.083 186.389 270.2 186.433 270.194 186.447Z" fill="white"/>
<path d="M276.955 195.314C276.828 195.319 276.702 195.294 276.587 195.241C276.298 195.129 276.058 194.924 275.906 194.661C275.754 194.398 275.699 194.093 275.752 193.796C275.765 193.673 275.809 193.555 275.879 193.452C275.892 193.458 275.832 193.585 275.808 193.803C275.773 194.087 275.831 194.374 275.975 194.623C276.118 194.872 276.34 195.071 276.607 195.191C276.815 195.283 276.957 195.3 276.955 195.314Z" fill="white"/>
<path d="M280.562 199.144C280.452 199.119 280.349 199.073 280.258 199.007C280.03 198.86 279.84 198.664 279.702 198.435C279.565 198.205 279.483 197.948 279.464 197.684C279.45 197.575 279.459 197.464 279.491 197.359C279.505 197.359 279.495 197.484 279.519 197.679C279.553 197.932 279.639 198.175 279.771 198.396C279.903 198.617 280.079 198.809 280.289 198.963C280.452 199.08 280.568 199.132 280.562 199.144Z" fill="white"/>
<path d="M278.289 175.613C278.226 175.566 278.168 175.514 278.115 175.457C278.06 175.406 277.994 175.34 277.924 175.26C277.853 175.18 277.767 175.093 277.684 174.987C277.483 174.743 277.3 174.487 277.135 174.22C276.935 173.891 276.76 173.549 276.613 173.195C276.469 172.84 276.353 172.474 276.265 172.102C276.195 171.799 276.147 171.49 276.121 171.18C276.106 171.048 276.105 170.928 276.1 170.822C276.096 170.716 276.097 170.626 276.1 170.552C276.07 170.549 276.043 170.534 276.024 170.511C276.004 170.489 275.995 170.46 275.997 170.43C275.999 170.401 276.012 170.374 276.034 170.354C276.056 170.333 276.085 170.322 276.116 170.322C276.146 170.322 276.175 170.333 276.197 170.354C276.219 170.374 276.232 170.401 276.234 170.43C276.236 170.46 276.227 170.489 276.207 170.511C276.188 170.534 276.161 170.549 276.131 170.552C276.131 170.626 276.135 170.715 276.145 170.821C276.155 170.926 276.158 171.041 276.177 171.175C276.211 171.482 276.264 171.786 276.336 172.087C276.514 172.824 276.804 173.53 277.198 174.183C277.359 174.45 277.537 174.707 277.729 174.953C277.805 175.061 277.89 175.151 277.957 175.231C278.024 175.312 278.086 175.378 278.137 175.437C278.193 175.491 278.244 175.55 278.289 175.613Z" fill="white"/>
<path d="M175.377 268.512H138.05C132.471 268.512 127.948 272.894 127.948 278.299V314.462C127.948 319.867 132.471 324.248 138.05 324.248H175.377C180.955 324.248 185.478 319.867 185.478 314.462V278.299C185.478 272.894 180.955 268.512 175.377 268.512Z" fill="#E0E0E0"/>
<path d="M165.047 268.512H127.72C122.141 268.512 117.619 272.894 117.619 278.299V314.462C117.619 319.867 122.141 324.248 127.72 324.248H165.047C170.626 324.248 175.148 319.867 175.148 314.462V278.299C175.148 272.894 170.626 268.512 165.047 268.512Z" fill="#EBEBEB"/>
<path d="M126.52 297.184L132.315 291.569L143.491 301.194L162.154 283.043L167.535 288.657L142.663 312.021L126.52 297.184Z" fill="white"/>
<path d="M42.5438 280.475H18.1151C12.5364 280.475 8.01392 284.857 8.01392 290.262V313.929C8.01392 319.334 12.5364 323.715 18.1151 323.715H42.5438C48.1226 323.715 52.645 319.334 52.645 313.929V290.262C52.645 284.857 48.1226 280.475 42.5438 280.475Z" fill="#E0E0E0"/>
<path d="M34.5299 280.475H10.1012C4.52246 280.475 0 284.857 0 290.262V313.929C0 319.334 4.52246 323.715 10.1012 323.715H34.5299C40.1087 323.715 44.6311 319.334 44.6311 313.929V290.262C44.6311 284.857 40.1087 280.475 34.5299 280.475Z" fill="#EBEBEB"/>
<path d="M6.90332 302.717L11.3991 298.362L20.0695 305.829L34.548 291.747L38.7227 296.103L19.4274 314.226L6.90332 302.717Z" fill="white"/>
<path d="M315.509 322.44C315.509 322.547 246.794 322.634 162.051 322.634C77.277 322.634 8.57471 322.547 8.57471 322.44C8.57471 322.334 77.274 322.248 162.051 322.248C246.794 322.248 315.509 322.334 315.509 322.44Z" fill="#263238"/>
<path d="M284.75 301.244C284.75 301.244 281.566 280.037 281.832 267.698C282.098 255.359 281.817 241.478 281.817 241.478H283.284C283.284 241.478 282.29 265.97 283.372 280.74C284.454 295.511 287.299 301.244 287.299 301.244H284.751" fill="#263238"/>
<path d="M294.235 217.616C294.006 216.864 293.538 216.201 292.898 215.72C291.968 215.149 290.747 215.386 289.711 215.742C285.278 217.261 281.347 225.269 279.555 229.481L285.441 248.693C296.062 239.145 297.902 226.62 294.235 217.616Z" fill="#455A64"/>
<path d="M292.554 216.498C292.536 216.584 292.508 216.668 292.469 216.748C292.393 216.932 292.298 217.164 292.18 217.448C291.922 218.052 291.561 218.932 291.128 220.021C290.261 222.203 289.154 225.253 288.167 228.689C287.181 232.124 286.507 235.293 286.09 237.595C285.88 238.746 285.723 239.681 285.622 240.328C285.571 240.63 285.529 240.877 285.496 241.071C285.487 241.159 285.467 241.245 285.436 241.328C285.43 241.24 285.433 241.152 285.448 241.065C285.469 240.868 285.496 240.624 285.529 240.315C285.601 239.664 285.733 238.725 285.921 237.568C286.918 231.535 288.61 225.628 290.966 219.96C291.421 218.876 291.807 218.004 292.092 217.41C292.225 217.133 292.335 216.907 292.422 216.728C292.456 216.646 292.5 216.569 292.554 216.498Z" fill="#263238"/>
<path d="M282.824 253.299C280.145 251.823 277.903 249.704 276.315 247.146C274.726 244.587 273.844 241.676 273.753 238.691C273.54 234.426 274.891 230.244 276.424 226.243C276.517 225.881 276.737 225.561 277.047 225.339C277.297 225.251 277.566 225.226 277.829 225.265C278.092 225.305 278.34 225.408 278.551 225.566C282.56 227.777 284.989 231.993 286.28 236.284C287.209 239.129 287.519 242.13 287.191 245.097C286.687 248.215 285.156 251.092 282.827 253.299" fill="#455A64"/>
<path d="M282.824 253.298C282.806 253.214 282.799 253.127 282.803 253.041C282.799 252.846 282.794 252.6 282.787 252.306C282.787 251.666 282.759 250.74 282.705 249.597C282.548 246.622 282.206 243.658 281.681 240.722C281.068 237.281 280.326 234.199 279.779 231.971C279.509 230.881 279.288 229.986 279.126 229.333C279.057 229.039 279.001 228.804 278.957 228.614C278.932 228.531 278.918 228.446 278.913 228.36C278.954 228.437 278.984 228.518 279.004 228.603C279.061 228.79 279.131 229.024 279.218 229.311C279.4 229.927 279.65 230.822 279.946 231.931C280.537 234.149 281.307 237.231 281.92 240.682C282.45 243.626 282.769 246.603 282.876 249.59C282.908 250.736 282.909 251.665 282.882 252.306L282.851 253.041C282.853 253.128 282.844 253.214 282.824 253.298Z" fill="#263238"/>
<g opacity="0.3">
<path d="M282.824 253.299C280.145 251.823 277.903 249.704 276.315 247.146C274.726 244.587 273.844 241.676 273.753 238.691C273.54 234.426 274.891 230.244 276.424 226.243C276.517 225.881 276.737 225.561 277.047 225.339C277.297 225.251 277.566 225.226 277.829 225.265C278.092 225.305 278.34 225.408 278.551 225.566C282.56 227.777 284.989 231.993 286.28 236.284C287.209 239.129 287.519 242.13 287.191 245.097C286.687 248.215 285.156 251.092 282.827 253.299" fill="black"/>
</g>
<path d="M289.048 285.747C294.476 286.903 298.947 290.613 304.185 292.417C307.65 293.61 311.569 294.034 314.336 296.38C313.672 294.756 312.097 293.675 310.569 292.749C306.257 290.14 301.655 288.012 296.849 286.403C294.385 285.579 291.711 284.89 289.2 285.569" fill="#455A64"/>
<path d="M281.198 290.434C274.399 290.327 267.24 284.72 260.472 284.385C267.554 282.169 277.695 283.98 281.198 290.434Z" fill="#455A64"/>
<path d="M283.855 274.632C287.36 273.519 291.097 273.272 294.725 273.915C298.336 274.559 301.886 275.494 305.337 276.709C304.987 274.423 303.077 272.706 301.283 271.184C299.969 269.998 298.542 268.935 297.021 268.011C295.489 267.084 293.716 266.599 291.91 266.614C290.827 266.683 289.77 266.962 288.801 267.435C287.832 267.908 286.971 268.565 286.27 269.368C284.896 270.822 284.048 272.669 283.855 274.632Z" fill="#455A64"/>
<path d="M269.9 267.356C265.619 263.816 259.136 264.162 253.51 264.285C262.55 268.46 271.077 273.608 278.928 279.631C279.156 275.779 275.306 271.83 269.9 267.356Z" fill="#455A64"/>
<g opacity="0.3">
<path d="M269.9 267.356C265.619 263.816 259.136 264.162 253.51 264.285C262.55 268.46 271.077 273.608 278.928 279.631C279.156 275.779 275.306 271.83 269.9 267.356Z" fill="black"/>
</g>
<path d="M285.779 262.471C287.867 261.067 290.069 259.828 292.361 258.764C294.615 257.772 296.716 256.191 298.889 255.052C301.71 253.571 304.154 251.514 306.743 249.679C309.332 247.844 312.178 246.187 315.347 245.702C312.738 245.253 310.056 245.404 307.518 246.143C304.99 246.882 302.527 247.811 300.149 248.922C296.809 250.378 293.413 251.871 290.684 254.238C287.954 256.604 285.488 258.937 285.776 262.474" fill="#455A64"/>
<path d="M304.061 290.434C303.985 290.413 303.913 290.383 303.845 290.343L303.253 290.049C302.74 289.785 302.005 289.393 301.079 288.946C300.624 288.712 300.113 288.468 299.561 288.218C299.016 287.955 298.423 287.696 297.795 287.433C296.444 286.847 295.044 286.373 293.609 286.019C292.186 285.637 290.688 285.601 289.248 285.913C288.618 286.045 288 286.223 287.399 286.448C286.123 286.95 284.975 287.715 284.033 288.69C283.64 289.099 283.448 289.351 283.43 289.337C283.461 289.267 283.502 289.202 283.552 289.143C283.679 288.964 283.816 288.792 283.963 288.628C284.5 288.019 285.123 287.488 285.815 287.048C286.291 286.743 286.796 286.481 287.323 286.266C287.931 286.029 288.557 285.84 289.196 285.7C290.67 285.368 292.206 285.399 293.665 285.789C295.114 286.146 296.526 286.629 297.885 287.233C298.514 287.502 299.106 287.77 299.649 288.042C300.2 288.301 300.705 288.557 301.158 288.799C302.077 289.271 302.8 289.682 303.298 289.976L303.87 290.313C303.939 290.345 304.003 290.385 304.061 290.434Z" fill="#263238"/>
<path d="M276.126 287.169C276.273 287.189 276.416 287.23 276.551 287.29C276.93 287.422 277.3 287.578 277.659 287.756C280.054 288.93 282.032 290.771 283.339 293.043C283.537 293.383 283.713 293.735 283.864 294.097C283.931 294.226 283.979 294.363 284.006 294.505C283.967 294.521 283.713 293.964 283.19 293.127C281.824 290.94 279.889 289.14 277.578 287.906C276.695 287.429 276.11 287.209 276.126 287.169Z" fill="#263238"/>
<path d="M261.082 267.028C261.181 267.045 261.279 267.073 261.372 267.111L262.188 267.392L263.478 267.851C263.979 268.033 264.524 268.299 265.141 268.562C268.33 269.991 271.307 271.829 273.992 274.026C275.457 275.247 276.835 276.563 278.118 277.964C279.158 279.112 280.136 280.312 281.047 281.559C281.823 282.625 282.413 283.513 282.815 284.127L283.281 284.833C283.34 284.912 283.391 284.997 283.432 285.087C283.36 285.018 283.296 284.942 283.241 284.86C283.122 284.706 282.95 284.477 282.738 284.177C282.309 283.578 281.7 282.706 280.909 281.656C280.118 280.606 279.123 279.395 277.949 278.106C276.663 276.721 275.288 275.418 273.831 274.203C271.158 272.022 268.212 270.177 265.062 268.713C264.455 268.441 263.916 268.165 263.421 267.974L262.152 267.479L261.353 267.156C261.258 267.122 261.168 267.079 261.082 267.028Z" fill="#263238"/>
<path d="M294.056 270.925C293.873 270.924 293.691 270.901 293.514 270.858L292.889 270.746C292.646 270.701 292.363 270.7 292.054 270.668C290.441 270.531 288.821 270.841 287.382 271.561C286.595 271.96 285.878 272.476 285.256 273.09C284.739 273.584 284.28 274.133 283.89 274.727C283.536 275.281 283.224 275.859 282.955 276.456C282.977 276.279 283.023 276.106 283.093 275.941C283.265 275.488 283.483 275.051 283.744 274.639C284.121 274.02 284.576 273.448 285.097 272.937C285.984 272.033 287.076 271.343 288.286 270.92C289.497 270.497 290.793 270.354 292.07 270.501C292.383 270.543 292.67 270.557 292.914 270.615L293.536 270.766C293.715 270.8 293.89 270.853 294.056 270.925Z" fill="#263238"/>
<path d="M300.89 250.389C300.811 250.449 300.725 250.501 300.634 250.543L299.875 250.942C299.215 251.287 298.266 251.794 297.112 252.452C295.958 253.11 294.612 253.939 293.173 254.935C291.603 255.999 290.131 257.193 288.775 258.505C288.075 259.177 287.471 259.936 286.977 260.761C286.531 261.59 286.105 262.391 285.714 263.16C285.009 264.516 284.378 265.906 283.824 267.326C283.457 268.285 283.15 269.265 282.905 270.26C282.731 270.965 282.668 271.363 282.644 271.358C282.642 271.26 282.651 271.161 282.671 271.064C282.696 270.874 282.737 270.594 282.813 270.238C283.023 269.229 283.307 268.237 283.662 267.267C284.196 265.832 284.813 264.428 285.512 263.061C285.899 262.287 286.322 261.482 286.763 260.652C287.266 259.805 287.883 259.026 288.599 258.338C289.965 257.016 291.452 255.817 293.041 254.755C294.494 253.763 295.862 252.957 297.023 252.306C298.184 251.655 299.155 251.177 299.832 250.857L300.612 250.497C300.701 250.452 300.794 250.416 300.89 250.389Z" fill="#263238"/>
<path d="M281.825 270.336C281.759 270.156 281.714 269.969 281.69 269.78L281.392 268.258C280.759 264.908 279.673 261.653 278.164 258.576C277.901 258.015 277.678 257.542 277.502 257.166C277.409 256.997 277.336 256.82 277.283 256.636C277.402 256.788 277.504 256.951 277.587 257.125C277.767 257.447 278.021 257.917 278.32 258.504C279.923 261.56 281.017 264.842 281.562 268.229C281.668 268.877 281.745 269.405 281.783 269.767C281.818 269.954 281.832 270.145 281.825 270.336Z" fill="#263238"/>
<path d="M281.332 255.348C281.117 252.854 280.364 250.431 279.121 248.236C277.444 245.216 275.105 242.588 272.267 240.538C269.43 238.487 266.163 237.064 262.697 236.368L277.9 258.328L279.863 262.247C281.101 260.158 281.616 257.741 281.332 255.348Z" fill="#455A64"/>
<path d="M303.144 298.62H267.786V304.691H303.144V298.62Z" fill="#F9C438"/>
<path d="M270.427 303.49L273.438 322.329H296.911L300.503 303.49H270.427Z" fill="#F6AB36"/>
<path d="M303.125 304.699C303.125 304.766 295.15 304.819 285.313 304.819C275.477 304.819 267.5 304.766 267.5 304.699C267.5 304.632 275.474 304.579 285.313 304.579C295.153 304.579 303.125 304.632 303.125 304.699Z" fill="#263238"/>
<path d="M83.5414 272.351H52.0431C46.4644 272.351 41.9419 276.733 41.9419 282.137V312.654C41.9419 318.059 46.4644 322.44 52.0431 322.44H83.5414C89.1202 322.44 93.6426 318.059 93.6426 312.654V282.137C93.6426 276.733 89.1202 272.351 83.5414 272.351Z" fill="#FF725E"/>
<path d="M83.5414 272.351H52.0431C46.4644 272.351 41.9419 276.733 41.9419 282.137V312.654C41.9419 318.059 46.4644 322.44 52.0431 322.44H83.5414C89.1202 322.44 93.6426 318.059 93.6426 312.654V282.137C93.6426 276.733 89.1202 272.351 83.5414 272.351Z" fill="#D40221"/>
<path d="M74.2585 272.351H42.7601C37.1814 272.351 32.6589 276.733 32.6589 282.137V312.654C32.6589 318.059 37.1814 322.44 42.7601 322.44H74.2585C79.8372 322.44 84.3597 318.059 84.3597 312.654V282.137C84.3597 276.733 79.8372 272.351 74.2585 272.351Z" fill="#E44531"/>
<path d="M40.6584 298.116L45.8662 293.071L55.9097 301.72L72.6843 285.408L77.5201 290.454L55.1643 311.451L40.6584 298.116Z" fill="white"/>
<path d="M110.67 290.4H90.0866C86.6382 290.4 83.8428 293.108 83.8428 296.449V316.391C83.8428 319.732 86.6382 322.44 90.0866 322.44H110.67C114.118 322.44 116.914 319.732 116.914 316.391V296.449C116.914 293.108 114.118 290.4 110.67 290.4Z" fill="#F8A23A"/>
<path d="M104.732 290.4H84.1486C80.7002 290.4 77.9048 293.108 77.9048 296.449V316.391C77.9048 319.732 80.7002 322.44 84.1486 322.44H104.732C108.18 322.44 110.976 319.732 110.976 316.391V296.449C110.976 293.108 108.18 290.4 104.732 290.4Z" fill="#F9C438"/>
<path d="M83.0215 306.881L86.3529 303.653L92.7773 309.186L103.506 298.754L106.599 301.981L92.3014 315.412L83.0215 306.881Z" fill="white"/>
<path d="M192.399 0.192627H32.7372C29.7198 0.192627 27.2737 2.56247 27.2737 5.48582V221.191C27.2737 224.114 29.7198 226.484 32.7372 226.484H192.399C195.416 226.484 197.862 224.114 197.862 221.191V5.48582C197.862 2.56247 195.416 0.192627 192.399 0.192627Z" fill="white"/>
<path d="M192.364 226.483C193.051 226.469 193.731 226.336 194.37 226.092C195.306 225.728 196.121 225.122 196.726 224.339C197.33 223.557 197.7 222.628 197.796 221.655C197.835 216.508 197.785 208.899 197.785 199.109C197.77 179.523 197.749 151.187 197.721 116.174C197.714 98.666 197.705 79.489 197.697 58.9023C197.694 48.6071 197.691 37.972 197.687 26.9968C197.687 21.5139 197.686 15.9523 197.683 10.312C197.683 8.90204 197.683 7.48768 197.683 6.06891C197.805 4.67136 197.356 3.28313 196.432 2.20306C195.97 1.67163 195.402 1.23634 194.762 0.923418C194.121 0.610495 193.422 0.426421 192.706 0.382286C191.247 0.348459 189.741 0.373462 188.253 0.366109L32.7918 0.381551C31.9587 0.381338 31.1373 0.570915 30.3938 0.934978C29.6502 1.29904 29.0055 1.82739 28.5116 2.47736C28.0127 3.12188 27.6836 3.87461 27.553 4.67023C27.4716 5.48617 27.4463 6.30644 27.4771 7.12563C27.4771 10.4456 27.4771 13.7548 27.4771 17.0531C27.4771 23.6499 27.4771 30.2018 27.4771 36.7089C27.4771 49.7205 27.4771 62.5304 27.4771 75.1386C27.4733 100.333 27.4695 124.636 27.4657 147.787C27.4619 170.938 27.4535 192.939 27.4475 213.526C27.4475 216.099 27.4475 218.65 27.4475 221.179C27.4574 222.413 27.9192 223.603 28.7507 224.538C29.5741 225.466 30.7135 226.077 31.9622 226.261C32.5895 226.329 33.2213 226.352 33.8522 226.33H39.5518H47.0229L75.3887 226.343L160.988 226.404L184.261 226.44L190.312 226.459C191.679 226.466 192.375 226.479 192.375 226.479C192.375 226.479 191.676 226.492 190.312 226.498L184.261 226.518L160.988 226.554L75.3887 226.615L47.0229 226.626H39.5518H35.7604H33.8408C33.1936 226.649 32.5456 226.624 31.9022 226.553C30.5787 226.358 29.3708 225.711 28.4972 224.728C27.6142 223.738 27.1235 222.476 27.1127 221.167C27.1127 218.637 27.1112 216.086 27.1082 213.512C27.1029 192.921 27.0968 170.924 27.09 147.773C27.0831 124.622 27.0824 100.319 27.0786 75.1246C27.0786 62.5253 27.0786 49.7153 27.0786 36.6949C27.0786 30.1898 27.0786 23.6379 27.0786 17.0392V7.11166C27.048 6.27099 27.0762 5.42928 27.1628 4.59228C27.3044 3.73705 27.6584 2.92798 28.1943 2.23469C28.7267 1.53944 29.42 0.974836 30.2184 0.586209C31.0169 0.197581 31.8983 -0.00423909 32.7918 -0.0030465L188.253 0.0116584C189.751 0.0197475 191.224 -0.00525436 192.731 0.0307788C193.497 0.0789528 194.244 0.276701 194.928 0.612115C195.613 0.947528 196.22 1.41367 196.713 1.98245C197.689 3.1257 198.166 4.59182 198.045 6.07038C198.045 7.49209 198.045 8.90646 198.045 10.3135C198.045 15.9513 198.044 21.5129 198.041 26.9983C198.037 37.9641 198.033 48.5993 198.031 58.9038C198.022 79.4905 198.014 98.6675 198.007 116.175C197.98 151.188 197.959 179.524 197.944 199.11C197.92 208.903 197.944 216.502 197.88 221.664C197.765 222.81 197.27 223.889 196.47 224.739C195.544 225.733 194.264 226.351 192.888 226.469C192.539 226.481 192.364 226.483 192.364 226.483Z" fill="#263238"/>
<path d="M166.691 67.4961H91.0127C88.3701 67.4961 86.2278 69.5716 86.2278 72.1319V72.6356C86.2278 75.1959 88.3701 77.2714 91.0127 77.2714H166.691C169.334 77.2714 171.476 75.1959 171.476 72.6356V72.1319C171.476 69.5716 169.334 67.4961 166.691 67.4961Z" fill="#E0E0E0"/>
<path d="M73.1367 61.6675H57.5591C55.4052 61.6675 53.6592 63.3591 53.6592 65.4458V80.5378C53.6592 82.6245 55.4052 84.3162 57.5591 84.3162H73.1367C75.2906 84.3162 77.0366 82.6245 77.0366 80.5378V65.4458C77.0366 63.3591 75.2906 61.6675 73.1367 61.6675Z" fill="#E44531"/>
<path d="M57.2759 73.318L59.6289 71.0383L64.1702 74.949L71.7544 67.5732L73.9412 69.8529L63.8347 79.3473L57.2759 73.318Z" fill="white"/>
<path d="M166.691 102.629H91.0127C88.3701 102.629 86.2278 104.705 86.2278 107.265V107.769C86.2278 110.329 88.3701 112.404 91.0127 112.404H166.691C169.334 112.404 171.476 110.329 171.476 107.769V107.265C171.476 104.705 169.334 102.629 166.691 102.629Z" fill="#E0E0E0"/>
<path d="M73.1367 96.8005H57.5591C55.4052 96.8005 53.6592 98.4922 53.6592 100.579V115.671C53.6592 117.758 55.4052 119.449 57.5591 119.449H73.1367C75.2906 119.449 77.0366 117.758 77.0366 115.671V100.579C77.0366 98.4922 75.2906 96.8005 73.1367 96.8005Z" fill="#E44531"/>
<path d="M57.2759 108.451L59.6289 106.171L64.1702 110.083L71.7544 102.707L73.9412 104.987L63.8354 114.481L57.2759 108.451Z" fill="white"/>
<path d="M166.691 137.763H91.0127C88.3701 137.763 86.2278 139.838 86.2278 142.399V142.902C86.2278 145.463 88.3701 147.538 91.0127 147.538H166.691C169.334 147.538 171.476 145.463 171.476 142.902V142.399C171.476 139.838 169.334 137.763 166.691 137.763Z" fill="#E0E0E0"/>
<path d="M73.1367 131.934H57.5591C55.4052 131.934 53.6592 133.626 53.6592 135.713V150.805C53.6592 152.891 55.4052 154.583 57.5591 154.583H73.1367C75.2906 154.583 77.0366 152.891 77.0366 150.805V135.713C77.0366 133.626 75.2906 131.934 73.1367 131.934Z" fill="#E44531"/>
<path d="M57.2759 143.585L59.6289 141.305L64.1702 145.217L71.7544 137.841L73.9412 140.12L63.8347 149.615L57.2759 143.585Z" fill="white"/>
<path d="M166.691 172.896H91.0127C88.3701 172.896 86.2278 174.972 86.2278 177.532V178.035C86.2278 180.596 88.3701 182.671 91.0127 182.671H166.691C169.334 182.671 171.476 180.596 171.476 178.035V177.532C171.476 174.972 169.334 172.896 166.691 172.896Z" fill="#E0E0E0"/>
<path d="M73.1367 167.067H57.5591C55.4052 167.067 53.6592 168.759 53.6592 170.846V185.938C53.6592 188.024 55.4052 189.716 57.5591 189.716H73.1367C75.2906 189.716 77.0366 188.024 77.0366 185.938V170.846C77.0366 168.759 75.2906 167.067 73.1367 167.067Z" fill="#E44531"/>
<path d="M57.2759 178.717L59.6289 176.437L64.1702 180.348L71.7544 172.972L73.9412 175.252L63.8347 184.746L57.2759 178.717Z" fill="white"/>
<path d="M227.894 296.301L227.239 313.009C227.239 313.009 244.545 319.266 244.737 322.364L211.254 322.296L211.173 296.223L227.894 296.301Z" fill="#263238"/>
<path d="M216.888 311.582C216.565 311.676 216.29 311.882 216.115 312.16C215.94 312.439 215.877 312.771 215.939 313.091C216.024 313.407 216.231 313.679 216.517 313.851C216.803 314.023 217.146 314.082 217.476 314.016C217.817 313.915 218.108 313.695 218.292 313.399C218.476 313.103 218.54 312.751 218.472 312.412C218.347 312.092 218.1 311.831 217.782 311.684C217.463 311.536 217.098 311.514 216.763 311.622" fill="#E0E0E0"/>
<path d="M211.254 322.296L211.352 319.667L243.419 320.716C243.419 320.716 244.908 321.347 244.737 322.364L211.254 322.296Z" fill="#455A64"/>
<path d="M227.782 312.844C227.776 313.002 226.958 313.072 226.152 313.579C225.333 314.066 224.917 314.755 224.766 314.689C224.614 314.658 224.862 313.711 225.848 313.113C226.834 312.516 227.818 312.699 227.782 312.844Z" fill="white"/>
<path d="M231.292 314.258C231.328 314.412 230.619 314.68 230.063 315.349C229.486 316.002 229.345 316.726 229.182 316.719C229.03 316.743 228.917 315.815 229.626 314.997C230.334 314.178 231.289 314.107 231.292 314.258Z" fill="white"/>
<path d="M233.277 318.334C233.125 318.368 232.902 317.576 233.324 316.709C233.745 315.842 234.511 315.499 234.58 315.631C234.672 315.761 234.175 316.226 233.839 316.942C233.487 317.652 233.439 318.319 233.277 318.334Z" fill="white"/>
<path d="M227.496 309.02C227.427 309.167 226.677 308.947 225.75 309.004C224.824 309.044 224.105 309.344 224.02 309.208C223.925 309.093 224.628 308.508 225.719 308.454C226.81 308.4 227.576 308.896 227.496 309.02Z" fill="white"/>
<path d="M186.907 294.028L185.094 314.177L188.404 330.517C188.461 330.795 188.457 331.082 188.394 331.36C188.332 331.637 188.211 331.899 188.039 332.129C187.867 332.36 187.649 332.553 187.396 332.698C187.144 332.843 186.864 332.936 186.573 332.972C186.235 333.015 185.892 332.978 185.571 332.864C185.251 332.751 184.964 332.565 184.733 332.321C181.749 329.169 170.831 317.521 171.049 316.053C171.302 314.353 171.504 294.673 171.504 294.673L186.907 294.028Z" fill="#263238"/>
<path d="M186.573 332.976L171.139 314.695L171.083 315.55C171.032 316.289 171.255 317.022 171.711 317.616C172.934 319.205 176.411 323.52 184.67 332.323C184.907 332.576 185.205 332.768 185.537 332.882C185.87 332.996 186.226 333.029 186.574 332.977L186.573 332.976Z" fill="#455A64"/>
<g opacity="0.6">
<path d="M175.846 308.447C176.09 308.645 176.25 308.924 176.295 309.23C176.341 309.536 176.268 309.847 176.091 310.104C175.895 310.347 175.611 310.509 175.296 310.555C174.981 310.601 174.66 310.529 174.398 310.353C174.14 310.142 173.972 309.846 173.926 309.522C173.88 309.198 173.959 308.868 174.149 308.598C174.379 308.363 174.694 308.225 175.028 308.211C175.362 308.197 175.688 308.309 175.938 308.524" fill="white"/>
</g>
<path d="M182.395 323.858C182.891 323.214 183.558 322.711 184.325 322.402C185.093 322.094 185.931 321.992 186.753 322.107C186.775 322.059 186.525 321.886 186.038 321.788C185.401 321.682 184.747 321.752 184.15 321.992C183.553 322.232 183.039 322.631 182.667 323.143C182.396 323.543 182.344 323.839 182.395 323.858Z" fill="white"/>
<path d="M183.699 326.655C184.317 326.368 184.953 326.117 185.602 325.902C186.282 325.821 186.966 325.778 187.651 325.774C187.719 325.675 186.74 325.186 185.497 325.469C184.25 325.741 183.594 326.594 183.699 326.655Z" fill="white"/>
<path d="M179.861 320.223C179.952 320.325 181.042 319.374 182.717 318.868C184.383 318.336 185.841 318.496 185.854 318.362C185.894 318.256 184.365 317.88 182.577 318.445C180.784 318.992 179.766 320.159 179.861 320.223Z" fill="white"/>
<path d="M179.884 314.052C179.931 314.177 181.113 313.783 182.617 313.824C184.119 313.844 185.282 314.286 185.335 314.164C184.522 313.67 183.586 313.399 182.627 313.379C181.667 313.359 180.72 313.592 179.886 314.052H179.884Z" fill="white"/>
<path d="M180.261 308.124C180.318 308.245 181.52 307.644 183.098 307.812C184.68 307.946 185.736 308.764 185.817 308.656C185.853 308.616 185.643 308.348 185.181 308.05C184.565 307.671 183.867 307.438 183.142 307.369C182.417 307.3 181.686 307.396 181.006 307.65C180.494 307.853 180.233 308.074 180.261 308.124Z" fill="white"/>
<path d="M183.135 306.681C183.218 306.435 183.244 306.175 183.211 305.919C183.187 305.214 183.019 304.521 182.717 303.88C182.538 303.392 182.199 302.975 181.75 302.693C181.594 302.613 181.416 302.583 181.24 302.605C181.065 302.628 180.901 302.702 180.771 302.818C180.532 303.058 180.393 303.375 180.381 303.709C180.384 304.39 180.632 305.049 181.082 305.573C181.532 306.096 182.156 306.451 182.847 306.577C183.533 306.687 184.237 306.598 184.87 306.32C185.503 306.043 186.037 305.589 186.403 305.017C186.495 304.872 186.553 304.711 186.574 304.542C186.595 304.374 186.578 304.203 186.525 304.042C186.454 303.884 186.333 303.753 186.18 303.666C186.027 303.578 185.85 303.54 185.673 303.556C185.153 303.633 184.664 303.842 184.254 304.162C183.659 304.563 183.142 305.065 182.729 305.642C182.558 305.84 182.433 306.071 182.362 306.319C182.953 305.592 183.651 304.954 184.434 304.424C184.804 304.16 185.235 303.989 185.689 303.925C185.785 303.914 185.883 303.934 185.967 303.981C186.051 304.028 186.117 304.1 186.155 304.187C186.181 304.295 186.184 304.407 186.164 304.517C186.143 304.626 186.1 304.731 186.036 304.823C185.704 305.307 185.235 305.689 184.686 305.923C184.137 306.156 183.529 306.232 182.937 306.141C182.354 306.031 181.826 305.734 181.44 305.297C181.054 304.86 180.833 304.309 180.811 303.734C180.814 303.502 180.901 303.278 181.057 303.101C181.127 303.036 181.217 302.994 181.314 302.98C181.411 302.967 181.509 302.984 181.596 303.028C181.972 303.267 182.264 303.613 182.431 304.019C182.825 304.859 183.064 305.761 183.135 306.681Z" fill="white"/>
<path d="M244.025 155.452C245.638 162.378 246.183 169.497 245.641 176.577C245.287 181.07 229.651 305.265 229.651 305.265H208.536L214.47 188.539L212.742 188.902C212.742 188.902 201.217 238.687 200.276 246.746C199.431 253.99 189.711 306.625 189.711 306.625L170.407 306.84L176.572 237.22L183.747 170.417L186.446 150.972L244.025 155.452Z" fill="#263238"/>
<path d="M213.703 180.618C213.693 180.629 213.739 180.675 213.839 180.758C213.993 180.869 214.167 180.949 214.353 180.993C214.701 181.064 215.061 181.06 215.408 180.981C215.754 180.902 216.078 180.749 216.356 180.534C216.753 180.203 217.078 179.799 217.312 179.345C217.547 178.891 217.686 178.397 217.722 177.891C217.874 176.779 217.896 175.584 217.982 174.32C218.124 171.793 218.229 169.505 218.286 167.848C218.357 166.954 218.358 166.056 218.291 165.162C218.124 166.044 218.025 166.937 217.996 167.833C217.865 169.486 217.714 171.772 217.572 174.298C217.487 175.557 217.473 176.776 217.344 177.841C217.299 178.78 216.88 179.665 216.175 180.311C215.93 180.515 215.645 180.667 215.336 180.758C215.028 180.849 214.704 180.878 214.383 180.842C214.15 180.788 213.922 180.713 213.703 180.618Z" fill="#455A64"/>
<path d="M182.644 168.61C182.826 168.713 183.027 168.783 183.236 168.817C183.789 168.954 184.353 169.046 184.922 169.09C186.817 169.248 188.724 168.972 190.488 168.286C192.253 167.599 193.826 166.52 195.082 165.136C195.461 164.723 195.804 164.278 196.105 163.808C196.233 163.645 196.327 163.46 196.384 163.263C196.325 163.224 195.853 163.958 194.866 164.945C193.59 166.236 192.044 167.249 190.332 167.915C188.62 168.582 186.781 168.886 184.938 168.809C183.524 168.757 182.66 168.542 182.644 168.61Z" fill="#455A64"/>
<path d="M235.611 163.415C235.607 164.111 235.715 164.804 235.931 165.468C236.826 168.746 238.814 171.644 241.587 173.713C242.135 174.163 242.752 174.528 243.416 174.794C243.511 174.689 240.596 173.079 238.396 169.823C236.152 166.598 235.747 163.37 235.611 163.415Z" fill="#455A64"/>
<path d="M300.101 128.273L304.946 129.757L313.751 125.044L318.745 138.517L306.768 141.278L297.694 140.311L300.101 128.273Z" fill="#FBB089"/>
<path d="M243.75 74.1782C243.75 74.1782 248.699 77.0572 252.799 86.8391C260.852 106.054 265.91 116.427 265.91 116.427L302.882 127.741L299.93 142.098C299.93 142.098 262.453 137.039 257.434 135.216C250.569 132.722 245.476 119.603 245.476 119.603L243.75 74.1782Z" fill="#E0E0E0"/>
<path d="M233.589 31.0687C234.554 31.1285 235.508 30.8388 236.265 30.2557C237.022 29.6726 237.529 28.8378 237.687 27.9133C237.844 26.9888 237.642 26.0406 237.118 25.2525C236.595 24.4645 235.788 23.893 234.855 23.6488C235.418 23.0292 235.766 22.2532 235.849 21.4311C235.932 20.6091 235.745 19.7826 235.316 19.0691C234.886 18.3556 234.236 17.7913 233.456 17.4562C232.677 17.1212 231.809 17.0324 230.974 17.2026C230.897 16.3929 230.604 15.6166 230.124 14.9493C229.644 14.2821 228.995 13.7465 228.238 13.395C227.481 13.0434 226.643 12.8878 225.806 12.9433C224.968 12.9988 224.16 13.2636 223.46 13.7118C222.477 13.0136 221.282 12.654 220.063 12.6902C218.845 12.7265 217.675 13.1565 216.738 13.9118C215.913 13.8055 215.075 13.9584 214.347 14.3481C213.619 14.7378 213.04 15.3437 212.694 16.0766C212.348 16.8094 212.253 17.6305 212.425 18.419C212.597 19.2075 213.026 19.9218 213.648 20.4566" fill="#263238"/>
<path d="M216.094 17.6776L216.95 17.6371C221.104 17.4368 225.183 18.7593 228.376 21.3413C231.569 23.9234 233.641 27.5756 234.18 31.5709C235.221 39.2776 236.268 47.805 236.429 51.9584C236.764 60.5556 227.958 62.3205 227.958 62.3205L229.238 72.6156L207.673 73.0054L203.848 35.6486C202.596 26.7572 206.891 18.6439 216.094 17.6776Z" fill="#FBB089"/>
<path d="M228.031 62.3071C223.911 62.5075 219.817 61.5578 216.238 59.5708C216.238 59.5708 219.288 65.6244 228.101 64.4242L228.031 62.3071Z" fill="#6F4439"/>
<path d="M230.992 39.4997C231.012 39.8195 230.902 40.1341 230.685 40.3765C230.469 40.6188 230.163 40.7696 229.834 40.7969C229.673 40.8174 229.51 40.8065 229.353 40.7647C229.197 40.723 229.051 40.6514 228.923 40.5541C228.796 40.4568 228.69 40.3357 228.612 40.198C228.533 40.0604 228.484 39.909 228.468 39.7527C228.448 39.433 228.558 39.1186 228.774 38.8763C228.991 38.6341 229.296 38.4831 229.625 38.4555C229.786 38.4349 229.949 38.4457 230.106 38.4874C230.262 38.529 230.409 38.6006 230.536 38.698C230.664 38.7953 230.77 38.9164 230.848 39.0541C230.926 39.1918 230.975 39.3433 230.992 39.4997Z" fill="#263238"/>
<path d="M232.493 35.8677C232.341 36.0346 231.348 35.3934 229.988 35.4625C228.621 35.5125 227.659 36.2405 227.503 36.0854C227.427 36.017 227.572 35.7177 227.992 35.3927C228.561 34.968 229.252 34.7244 229.97 34.6955C230.679 34.6589 231.381 34.8417 231.976 35.2176C232.409 35.5096 232.565 35.792 232.493 35.8677Z" fill="#263238"/>
<path d="M218.555 39.8328C218.574 40.1523 218.464 40.4664 218.247 40.7084C218.031 40.9504 217.726 41.1011 217.397 41.1285C217.236 41.149 217.073 41.1381 216.917 41.0965C216.76 41.0548 216.614 40.9833 216.487 40.886C216.359 40.7888 216.253 40.6678 216.175 40.5302C216.097 40.3927 216.048 40.2413 216.031 40.0851C216.011 39.7653 216.121 39.4508 216.338 39.2084C216.554 38.9661 216.859 38.8149 217.188 38.7871C217.349 38.7666 217.513 38.7776 217.669 38.8194C217.826 38.8612 217.972 38.933 218.099 39.0304C218.227 39.1279 218.333 39.2492 218.411 39.387C218.489 39.5248 218.538 39.6764 218.555 39.8328Z" fill="#263238"/>
<path d="M219.104 36.759C218.952 36.9266 217.958 36.2847 216.599 36.3545C215.233 36.4045 214.271 37.1325 214.114 36.9774C214.038 36.909 214.182 36.6097 214.604 36.2839C215.173 35.8592 215.864 35.6159 216.582 35.5875C217.291 35.5502 217.994 35.7331 218.589 36.1096C219.019 36.4023 219.176 36.6832 219.104 36.759Z" fill="#263238"/>
<path d="M224.554 46.3159C225.261 46.0627 225.998 45.8967 226.748 45.8217C227.094 45.771 227.421 45.6879 227.467 45.454C227.479 45.1044 227.38 44.7596 227.184 44.4657C226.814 43.6656 226.427 42.826 226.023 41.947C224.405 38.3592 223.214 35.4022 223.366 35.3405C223.518 35.2787 224.949 38.1349 226.566 41.7242C226.956 42.6091 227.329 43.4545 227.684 44.2605C227.924 44.6569 228.012 45.1224 227.932 45.5754C227.888 45.6967 227.816 45.8066 227.721 45.8968C227.626 45.9871 227.511 46.0552 227.385 46.096C227.195 46.1558 226.998 46.1919 226.798 46.2034C226.058 46.3324 225.304 46.3702 224.554 46.3159Z" fill="#263238"/>
<path d="M220.025 31.6202C219.863 31.9636 218.677 31.657 217.235 31.6813C215.793 31.6739 214.595 31.9953 214.447 31.6533C214.38 31.4908 214.621 31.1775 215.126 30.8841C215.777 30.5265 216.513 30.3392 217.262 30.3407C218.002 30.3273 218.732 30.5049 219.377 30.8554C219.869 31.1481 220.097 31.457 220.025 31.6202Z" fill="#263238"/>
<path d="M232.279 30.4186C232.007 30.7326 230.865 30.4745 229.511 30.5252C228.156 30.5377 227.022 30.8473 226.743 30.5458C226.62 30.3987 226.785 30.0899 227.274 29.7817C227.947 29.3941 228.714 29.1872 229.497 29.1824C230.275 29.1497 231.048 29.3212 231.734 29.6788C232.225 29.9641 232.398 30.2656 232.279 30.4186Z" fill="#263238"/>
<path d="M233.128 27.6698C233.128 27.6698 230.512 22.4001 227.768 21.2721C224.447 19.9072 223.228 23.423 220.094 22.7354C216.961 22.0479 213.79 20.7374 210.749 23.2046C207.422 25.9049 209.133 27.6043 209.116 31.4283C209.04 46.9313 206.352 51.4443 205.15 44.2016C205.018 43.4074 202.7 42.8831 202.19 39.5284C201.526 35.1787 201.081 29.8788 201.928 26.7285C202.643 24.0724 204.089 22.192 206.746 20.0683C210.941 16.7142 216.917 16.3583 221.005 16.5598C225.092 16.7613 233.153 20.9125 233.128 27.6698Z" fill="#263238"/>
<path d="M205.699 43.942C205.673 43.627 205.58 43.3206 205.427 43.0413C205.274 42.7619 205.065 42.5156 204.811 42.3171C204.557 42.1186 204.264 41.9721 203.95 41.8865C203.636 41.8009 203.307 41.7779 202.984 41.819C201.337 42.0507 199.542 43.05 199.822 46.357C200.317 52.2238 206.295 50.5324 206.291 50.3625C206.292 50.2464 205.933 46.3937 205.699 43.942Z" fill="#FBB089"/>
<path d="M204.791 48.258C204.763 48.2411 204.691 48.3381 204.52 48.4308C204.278 48.5541 203.995 48.5821 203.732 48.5087C203.074 48.3315 202.452 47.391 202.332 46.3357C202.274 45.8338 202.333 45.3257 202.505 44.8488C202.546 44.6611 202.633 44.4859 202.76 44.3383C202.886 44.1907 203.048 44.0752 203.231 44.0016C203.35 43.9609 203.479 43.9617 203.597 44.0039C203.715 44.0461 203.814 44.127 203.877 44.2326C203.973 44.3899 203.945 44.5098 203.977 44.5179C203.995 44.5311 204.099 44.4083 204.029 44.17C203.983 44.0276 203.888 43.9046 203.76 43.8215C203.583 43.7127 203.369 43.6758 203.164 43.7185C202.92 43.7859 202.697 43.9129 202.517 44.0875C202.338 44.2621 202.208 44.4784 202.139 44.7157C201.924 45.2438 201.846 45.8149 201.911 46.3791C202.05 47.5557 202.768 48.6154 203.665 48.7911C203.831 48.8238 204.003 48.8201 204.167 48.7801C204.332 48.7401 204.486 48.665 204.616 48.5602C204.792 48.3999 204.812 48.2668 204.791 48.258Z" fill="#6F4439"/>
<path d="M205.24 32.5498C206.014 33.098 206.918 33.4506 207.868 33.5756C208.344 33.6226 208.821 33.5013 209.211 33.234C209.602 32.9668 209.88 32.5718 209.993 32.1218C210.044 31.7092 209.917 31.2393 210.178 30.9106C210.49 30.5179 211.108 30.6062 211.621 30.6341C213.394 30.7304 215.357 28.745 215.719 27.061C215.967 27.3669 216.326 27.5704 216.722 27.6303C217.119 27.6903 217.525 27.6021 217.857 27.3838C218.398 27.0224 218.871 26.5728 219.253 26.055C219.473 25.7241 219.773 25.4501 220.127 25.2568C220.481 25.0634 220.878 24.9565 221.284 24.9453C221.718 25.067 222.166 25.141 222.617 25.1659C223.411 25.0585 223.756 24.1364 223.832 23.365C223.908 22.5936 223.961 21.6957 224.615 21.2464C225.222 20.8302 226.041 21.0147 226.78 21.0846C227.519 21.1545 228.457 20.9419 228.609 20.2382C228.631 20.0504 228.614 19.8603 228.558 19.6792C228.501 19.4982 228.408 19.3302 228.283 19.1851C227.753 18.4985 227 18.0049 226.145 17.784C225.29 17.5632 224.384 17.628 223.572 17.9681C223.223 17.0046 222.587 16.1629 221.744 15.5495C220.901 14.9361 219.89 14.5784 218.837 14.5218C217.785 14.4651 216.739 14.7119 215.831 15.2311C214.924 15.7503 214.195 16.5185 213.738 17.4386C213.065 16.9035 212.269 16.5337 211.416 16.3607C210.564 16.1876 209.681 16.2164 208.843 16.4446C208.005 16.6727 207.236 17.0936 206.601 17.6713C205.967 18.2491 205.485 18.9667 205.198 19.7631C204.445 19.6093 203.662 19.6736 202.946 19.948C202.23 20.2224 201.614 20.6949 201.173 21.3064C200.733 21.9179 200.488 22.6416 200.469 23.3871C200.45 24.1326 200.657 24.8671 201.066 25.499C200.517 25.7977 200.054 26.2265 199.722 26.7455C199.391 27.2645 199.2 27.8565 199.169 28.4662C199.208 29.6833 200.493 30.8363 201.689 30.4584C201.469 30.949 201.451 31.5021 201.638 32.0053C201.824 32.5086 202.201 32.9241 202.693 33.1676C203.184 33.411 203.753 33.4641 204.283 33.316C204.813 33.1679 205.265 32.8298 205.548 32.3703" fill="#263238"/>
<path d="M224.11 19.6705C224.118 19.7061 224.119 19.7426 224.114 19.7786C224.11 19.8522 224.114 19.9566 224.092 20.0941C224.032 20.4962 223.904 20.886 223.713 21.2479C223.409 21.8205 222.973 22.3179 222.439 22.7017C221.736 23.2236 220.875 23.5078 219.99 23.5106L220.086 23.3753C220.296 23.9015 220.283 24.487 220.048 25.0034C219.803 25.5446 219.478 26.0484 219.084 26.4992C218.896 26.7566 218.68 26.9936 218.44 27.2059C218.163 27.4091 217.839 27.5435 217.496 27.5971C217.141 27.6644 216.774 27.6464 216.428 27.5447C216.082 27.4429 215.766 27.2604 215.51 27.0132L215.734 26.9397C215.681 27.5545 215.496 28.1518 215.191 28.693C214.885 29.2342 214.466 29.7074 213.96 30.0819C213.405 30.5233 212.718 30.7788 212.001 30.8099C211.325 30.8116 210.655 30.7024 210.017 30.4871L210.175 30.4136C209.897 31.1398 209.435 31.787 208.833 32.2961C208.558 32.5497 208.228 32.7406 207.868 32.8551C207.507 32.9696 207.125 33.0047 206.748 32.9579C206.104 32.8553 205.506 32.5725 205.025 32.1443C204.545 31.7162 204.205 31.1613 204.046 30.5481L204.187 30.6033C203.565 30.9633 202.834 31.1034 202.117 30.9996C201.584 30.9301 201.075 30.7388 200.632 30.4415C200.355 30.2548 200.113 30.0229 199.918 29.7561C199.849 29.665 199.793 29.5663 199.749 29.462C200.003 29.8154 200.322 30.1205 200.69 30.3621C201.126 30.6341 201.621 30.8047 202.136 30.8607C202.816 30.9449 203.504 30.8014 204.087 30.454L204.198 30.3856L204.228 30.5092C204.385 31.0803 204.711 31.5949 205.164 31.9906C205.618 32.3863 206.18 32.6462 206.783 32.7388C207.125 32.7788 207.473 32.7439 207.8 32.6366C208.128 32.5294 208.426 32.3524 208.673 32.1189C209.24 31.6343 209.673 31.0207 209.934 30.3334L209.977 30.2224L210.093 30.2562C210.703 30.46 211.344 30.5639 211.99 30.5636C212.653 30.5336 213.288 30.2959 213.799 29.8863C214.276 29.533 214.672 29.0872 214.96 28.5772C215.249 28.0673 215.425 27.5045 215.476 26.925L215.5 26.6455L215.7 26.8514C215.928 27.0688 216.206 27.2293 216.512 27.319C216.818 27.4087 217.142 27.4249 217.455 27.3662C217.758 27.3204 218.045 27.2037 218.29 27.0264C218.516 26.8268 218.719 26.605 218.897 26.3646C219.282 25.9339 219.6 25.4516 219.842 24.9328C219.951 24.7026 220.012 24.4538 220.021 24.2007C220.031 23.9476 219.989 23.6951 219.898 23.4577L219.842 23.3202H219.993C220.838 23.3277 221.662 23.0696 222.343 22.5848C222.867 22.2224 223.3 21.7514 223.613 21.206C223.871 20.7267 224.039 20.2068 224.11 19.6705Z" fill="#455A64"/>
<path d="M224.488 50.8502C224.442 50.6295 222.965 51.0061 221.585 50.0501C220.205 49.0941 219.953 47.53 219.744 47.5719C219.646 47.5755 219.549 47.9851 219.707 48.6323C219.922 49.4732 220.437 50.2136 221.16 50.7229C221.855 51.2111 222.719 51.4187 223.569 51.3017C224.201 51.1987 224.523 50.9465 224.488 50.8502Z" fill="#263238"/>
<path d="M260.49 105.187C260.355 104.723 252.457 83.8954 249.94 79.3369C246.926 73.8834 240.588 71.4684 236.657 71.236C232.725 71.0036 190.63 74.251 190.63 74.251C190.63 74.251 178.053 76.9793 176.45 87.4561C174.606 99.5162 172.989 127.126 172.989 127.126L192.149 117.612L194.631 111.557L234.272 120.126L243.952 106.254L260.49 105.187Z" fill="#E44531"/>
<path d="M187.843 75.4388L204.284 68.416L206.127 61.5461L225.319 70.3375L229.342 66.0341L231.025 70.8839L235.23 72.2156L245.061 88.9644L245.03 124.655L247.02 155.441L244.888 160.301L227.278 162.818C225.353 163.093 223.397 163.095 221.471 162.824L185.728 157.162L184.806 146.992L188.624 118.957L187.843 75.4388Z" fill="#E44531"/>
<path d="M206.129 61.5461C206.129 61.5461 208.275 62.1477 213.786 64.9972C219.185 67.788 225.324 70.3375 225.324 70.3375L224.857 78.7332L204.43 68.7984" fill="#E44531"/>
<path d="M229.341 66.0342L225.318 70.3368L227.467 79.337L231.048 71.2024" fill="#E44531"/>
<g opacity="0.3">
<path d="M225.398 71.2662C225.575 71.3949 226.688 81.6526 226.688 81.6526L206.216 69.666L224.853 78.7309L225.398 71.2662Z" fill="black"/>
</g>
<path d="M225.257 109.549C224.953 101.704 226.226 81.6872 226.226 81.6872L228.894 81.271C232.292 95.5185 234.581 109.993 235.741 124.573C236.494 134.221 236.494 145.397 236.494 145.397L231.135 156.545L225.21 145.471C225.21 145.471 225.631 119.083 225.257 109.549Z" fill="white"/>
<path d="M186.621 76.6528C186.59 76.6911 187.176 77.1338 188.005 77.9611C190.174 80.1262 191.676 82.8342 192.344 85.781C192.599 86.9076 192.656 87.6246 192.707 87.6194C192.733 87.4516 192.735 87.281 192.712 87.1127C192.687 86.6527 192.63 86.1948 192.542 85.742C191.972 82.7202 190.434 79.949 188.147 77.8213C187.806 77.5005 187.443 77.2018 187.061 76.9271C186.928 76.8161 186.78 76.7238 186.621 76.6528Z" fill="white"/>
<path d="M225.258 74.3519L227.086 73.6606L228.819 76.5404L229.132 81.271L226.691 81.6519L224.855 78.7325L225.258 74.3519Z" fill="white"/>
<path d="M245.03 88.4253C244.954 88.4253 244.888 98.6653 244.888 111.295C244.888 123.925 244.952 134.165 245.03 134.165C245.107 134.165 245.172 123.927 245.172 111.295C245.172 98.6639 245.109 88.4253 245.03 88.4253Z" fill="#263238"/>
<path d="M225.128 70.2639C225.094 70.2874 225.522 70.9257 226.171 71.9751C226.82 73.0245 227.678 74.5019 228.496 76.1917L228.69 76.5969L228.817 76.8631L228.947 76.5991C229.615 75.2413 230.185 73.8408 230.656 72.4075C230.833 71.8611 230.959 71.4177 231.035 71.1081C231.09 70.9509 231.121 70.787 231.128 70.6213C231.088 70.611 230.87 71.2765 230.47 72.3472C230.07 73.4179 229.475 74.8894 228.688 76.4822H228.946L228.751 76.0733C228.047 74.6207 227.242 73.2165 226.34 71.8707C225.992 71.3559 225.695 70.9485 225.483 70.6728C225.385 70.5214 225.265 70.3838 225.128 70.2639Z" fill="white"/>
<path d="M204.285 68.416C204.371 68.4809 204.465 68.5357 204.565 68.5793L205.394 68.9992L208.444 70.5302C211.018 71.8274 214.545 73.6754 218.451 75.6977C220.829 76.9257 223.081 78.0633 225.043 79.0142L225.224 79.1017V78.9075C225.248 76.4441 225.27 74.3688 225.285 72.8672C225.285 72.162 225.285 71.5928 225.285 71.1648C225.293 70.9629 225.284 70.7607 225.257 70.5604C225.223 70.7597 225.206 70.9614 225.207 71.1634C225.19 71.5913 225.168 72.1598 225.139 72.865C225.099 74.3659 225.043 76.4404 224.976 78.9031L225.159 78.7958C223.21 77.8295 220.964 76.6823 218.586 75.4543C214.68 73.4327 211.138 71.6105 208.538 70.3567C207.239 69.7279 206.18 69.2337 205.444 68.9028L204.591 68.5293C204.494 68.4806 204.391 68.4426 204.285 68.416Z" fill="white"/>
<path d="M242.56 74.8901C242.52 74.9144 242.84 75.4424 243.254 76.3388C244.338 78.681 244.824 81.2412 244.671 83.8035C244.614 84.7838 244.507 85.3883 244.555 85.3971C244.621 85.2664 244.664 85.126 244.683 84.9816C244.77 84.5979 244.833 84.2094 244.872 83.8183C245.139 81.2165 244.641 78.5946 243.436 76.255C243.256 75.9027 243.053 75.5616 242.829 75.2335C242.673 74.999 242.577 74.8769 242.56 74.8901Z" fill="white"/>
<path d="M227.137 81.9585C227.179 82.0232 227.642 81.8115 228.174 81.4872C228.705 81.1629 229.101 80.8474 229.059 80.7834C229.016 80.7194 228.552 80.9305 228.021 81.254C227.49 81.5776 227.095 81.8945 227.137 81.9585Z" fill="#263238"/>
<path d="M226.258 80.8026C226.755 80.0475 227.171 79.2449 227.5 78.4075C227.914 77.6065 228.243 76.7665 228.48 75.9006C227.983 76.6559 227.567 77.4588 227.239 78.2965C226.825 79.0971 226.496 79.9369 226.258 80.8026Z" fill="#263238"/>
<path d="M184.478 77.1985C184.478 77.1985 178.143 81.6166 177.351 84.0573C176.56 86.498 173.193 126.16 172.6 130.878C172.006 135.596 171.412 144.42 175.173 147.297C178.934 150.174 187.051 152.331 187.051 152.331L194.549 137.324L190.577 129.268L194.549 99.1456L184.478 77.1985Z" fill="#E44531"/>
<path d="M185.244 151.803C185.377 151.78 185.513 151.771 185.649 151.775C186.039 151.772 186.428 151.748 186.814 151.701C188.267 151.567 189.662 151.079 190.867 150.281C192.659 148.988 194.007 147.202 194.733 145.155C195.706 142.568 196.202 139.835 196.199 137.082L196.234 137.185L190.416 129.38L190.371 129.318L190.381 129.244C190.407 129.044 190.435 128.827 190.464 128.611C191.583 120.162 192.596 112.518 193.336 106.94C193.703 104.195 194.003 101.962 194.215 100.374C194.316 99.6268 194.396 99.0321 194.456 98.5904C194.471 98.3812 194.502 98.1735 194.55 97.969C194.561 98.0212 194.564 98.0749 194.557 98.1278C194.557 98.2337 194.551 98.3918 194.536 98.5977C194.495 99.0424 194.44 99.6403 194.369 100.391C194.209 101.947 193.951 104.197 193.616 106.974C192.946 112.528 191.972 120.196 190.859 128.66C190.831 128.877 190.803 129.094 190.775 129.294L190.74 129.157L196.54 136.973L196.575 137.022V137.075C196.568 139.873 196.044 142.647 195.03 145.267C194.264 147.358 192.858 149.172 190.998 150.467C190.292 150.932 189.512 151.282 188.689 151.502L188.17 151.641L187.682 151.723C187.4 151.778 187.114 151.811 186.827 151.822C186.435 151.856 186.041 151.861 185.649 151.836C185.513 151.839 185.377 151.828 185.244 151.803Z" fill="white"/>
<path d="M177.589 132.049C178.079 131.586 178.64 131.199 179.252 130.903C182.156 129.326 185.507 128.695 188.809 129.105C189.492 129.158 190.161 129.312 190.794 129.564C186.226 128.805 181.53 129.689 177.587 132.049H177.589Z" fill="white"/>
<path d="M227.295 92.5619C227.317 92.5582 227.656 93.8782 228.235 96.2027C229.532 94.3909 231.193 92.8515 233.119 91.6765L233.094 91.6809C233.094 91.6809 242.875 82.2682 245.998 72.3701C248.266 65.1841 247.701 57.2266 247.701 57.2266C247.609 56.8472 246.847 53.4726 246.224 50.7112C245.981 49.6231 246.181 48.4861 246.782 47.5372C247.383 46.5882 248.339 45.9005 249.45 45.6173C254.308 44.3488 267.454 41.8669 270.469 50.4252C274.969 63.1905 267.696 76.9779 267.775 80.9225C267.789 81.6681 267.801 82.2726 267.811 82.7609C271.666 81.8976 274.655 81.2747 274.67 81.3372H274.665L299.982 75.6146C299.982 75.6146 308.347 73.1621 311.216 81.4688C314.085 89.7756 304.351 92.5384 304.351 92.5384C304.351 92.5384 308.926 92.3428 310.169 99.898C311.412 107.453 303.048 109.906 303.048 109.906C303.048 109.906 308.172 109.586 309.5 116.284C310.791 122.803 302.428 126.732 301.981 126.937C302.645 126.774 303.318 126.651 303.998 126.569C303.498 126.747 302.985 126.89 302.463 126.997C306.362 127.48 306.927 131.98 306.927 131.98C309.441 141.207 302.108 143.147 302.108 143.147L255.887 153.604C251.279 154.646 246.468 154.479 241.95 153.12C242.393 155.032 242.633 156.102 242.614 156.109L210.331 163.413C210.26 163.429 206.774 149.216 202.546 131.67C198.317 114.125 194.942 99.8825 195.012 99.8671L227.295 92.5619Z" fill="#FF725E"/>
<g opacity="0.3">
<path d="M227.295 92.5619C227.317 92.5582 227.656 93.8782 228.235 96.2027C229.532 94.3909 231.193 92.8515 233.119 91.6765L233.094 91.6809C233.094 91.6809 242.875 82.2682 245.998 72.3701C248.266 65.1841 247.701 57.2266 247.701 57.2266C247.609 56.8472 246.847 53.4726 246.224 50.7112C245.981 49.6231 246.181 48.4861 246.782 47.5372C247.383 46.5882 248.339 45.9005 249.45 45.6173C254.308 44.3488 267.454 41.8669 270.469 50.4252C274.969 63.1905 267.696 76.9779 267.775 80.9225C267.789 81.6681 267.801 82.2726 267.811 82.7609C271.666 81.8976 274.655 81.2747 274.67 81.3372H274.665L299.982 75.6146C299.982 75.6146 308.347 73.1621 311.216 81.4688C314.085 89.7756 304.351 92.5384 304.351 92.5384C304.351 92.5384 308.926 92.3428 310.169 99.898C311.412 107.453 303.048 109.906 303.048 109.906C303.048 109.906 308.172 109.586 309.5 116.284C310.791 122.803 302.428 126.732 301.981 126.937C302.645 126.774 303.318 126.651 303.998 126.569C303.498 126.747 302.985 126.89 302.463 126.997C306.362 127.48 306.927 131.98 306.927 131.98C309.441 141.207 302.108 143.147 302.108 143.147L255.887 153.604C251.279 154.646 246.468 154.479 241.95 153.12C242.393 155.032 242.633 156.102 242.614 156.109L210.331 163.413C210.26 163.429 206.774 149.216 202.546 131.67C198.317 114.125 194.942 99.8825 195.012 99.8671L227.295 92.5619Z" fill="#F6AB36"/>
</g>
<path d="M233.537 101.473L232.911 105.54L243.233 148.354C246.258 150.299 249.661 151.625 253.234 152.249C256.806 152.873 260.473 152.783 264.008 151.983L310.23 141.524C310.23 141.524 317.563 139.585 315.049 130.358C315.049 130.358 314.441 125.457 310.08 125.325C310.08 125.325 318.947 121.36 317.622 114.662C316.296 107.964 311.17 108.284 311.17 108.284C311.17 108.284 319.535 105.832 318.29 98.2765C317.046 90.7213 312.472 90.9169 312.472 90.9169C312.472 90.9169 322.206 88.1541 319.337 79.8474C316.468 71.5406 308.103 73.9923 308.103 73.9923L275.227 81.4262L246.409 87.9467C243.111 88.6929 240.122 90.3812 237.827 92.793C235.531 95.2048 234.037 98.2288 233.537 101.473Z" fill="#F9C438"/>
<path d="M241.215 90.0558C241.215 90.0558 250.996 80.643 254.119 70.745C256.387 63.5589 255.822 55.6015 255.822 55.6015C255.73 55.222 254.968 51.8474 254.345 49.0854C254.102 47.9972 254.302 46.8603 254.903 45.9114C255.504 44.9626 256.46 44.2748 257.571 43.9915C262.429 42.7237 271.19 45.0622 274.205 53.6175C278.705 66.3828 275.816 75.3535 275.895 79.2981L275.971 83.2433L241.215 90.0558Z" fill="#F6AB36"/>
<path d="M235.417 90.9354L203.133 98.2397L218.451 161.787L250.735 154.482L235.417 90.9354Z" fill="#F9C438"/>
<path d="M250.735 154.485C250.806 154.468 247.432 140.229 243.203 122.684C238.975 105.139 235.487 90.9221 235.417 90.9375C235.347 90.953 238.719 105.19 242.95 122.741C247.181 140.292 250.665 154.498 250.735 154.485Z" fill="#263238"/>
<path d="M218.451 161.787C218.522 161.771 215.149 147.532 210.919 129.986C206.689 112.441 203.203 98.2243 203.133 98.2398C203.063 98.2552 206.435 112.492 210.666 130.043C214.897 147.594 218.381 161.802 218.451 161.787Z" fill="#263238"/>
<path d="M227.527 108.061C227.806 109.218 227.725 110.43 227.293 111.543C226.861 112.655 226.098 113.619 225.101 114.312C224.104 115.004 222.918 115.395 221.691 115.434C220.465 115.474 219.254 115.16 218.212 114.532C217.17 113.905 216.343 112.992 215.836 111.91C215.33 110.827 215.166 109.623 215.365 108.45C215.565 107.277 216.119 106.188 216.957 105.32C217.795 104.452 218.881 103.845 220.076 103.575C221.678 103.213 223.363 103.482 224.76 104.323C226.157 105.164 227.153 106.508 227.527 108.061Z" fill="white"/>
<path d="M282.792 79.7136C282.775 79.6452 279.242 80.3872 274.898 81.3689C270.554 82.3506 267.05 83.2029 267.066 83.2706C267.083 83.3382 270.615 82.5963 274.96 81.6145C279.306 80.6328 282.808 79.7813 282.792 79.7136Z" fill="#263238"/>
<path d="M311.897 108.439C311.881 108.371 309.619 108.825 306.843 109.453C305.157 109.791 303.489 110.212 301.847 110.713C305.234 110.119 308.588 109.36 311.897 108.439Z" fill="#263238"/>
<path d="M313.071 90.6191C313.055 90.5507 309.849 91.2184 305.91 92.1097C301.971 93.0009 298.791 93.7782 298.807 93.8466C298.823 93.915 302.03 93.2466 305.969 92.3546C309.909 91.4625 313.087 90.6867 313.071 90.6191Z" fill="#263238"/>
<path d="M312.117 124.948C312.1 124.881 308.894 125.548 304.955 126.44C301.017 127.331 297.836 128.108 297.852 128.176C297.868 128.244 301.075 127.577 305.014 126.685C308.954 125.793 312.133 125.017 312.117 124.948Z" fill="#263238"/>
<g opacity="0.3">
<path d="M257.847 47.1387C257.39 47.6379 257.08 48.2472 256.95 48.9025C256.82 49.5578 256.875 50.2349 257.109 50.8626C257.591 52.1097 258.181 53.3151 258.873 54.466C260.196 57.1419 260.575 60.1647 259.953 63.0698C259.761 63.9522 259.509 64.9671 260.09 65.6671C260.915 66.6599 262.58 66.1083 263.621 65.3303C265.576 63.8213 267.049 61.8054 267.867 59.5172C268.686 57.2289 268.818 54.7624 268.246 52.4047C267.791 50.3999 266.641 48.6064 264.988 47.3226C263.302 46.1099 260.71 45.0091 257.848 47.1358" fill="white"/>
</g>
<g opacity="0.3">
<path d="M311.127 75.1005C309.976 74.9719 308.81 75.0886 307.711 75.4424L288.204 80.2422C286.079 80.7665 282.085 81.232 282.045 83.3352C281.616 84.4846 282.518 85.781 283.682 86.2516C284.889 86.6286 286.18 86.6752 287.413 86.3862C290.022 85.9818 292.596 85.3935 295.167 84.7986C300.363 83.7257 305.462 82.2535 310.416 80.3959C311.158 80.1358 311.851 79.7578 312.465 79.2774C312.771 79.0345 313.016 78.7284 313.183 78.3814C313.351 78.0345 313.436 77.6557 313.432 77.2728C313.337 76.72 313.062 76.2112 312.647 75.8204C312.232 75.4297 311.7 75.1774 311.127 75.1005Z" fill="white"/>
</g>
<path d="M228.238 94.46C228.222 94.3916 223.697 95.3586 218.134 96.6168C212.571 97.875 208.072 98.9516 208.087 99.02C208.103 99.0884 212.627 98.1214 218.192 96.8624C223.758 95.6035 228.254 94.5276 228.238 94.46Z" fill="white"/>
<path d="M315.332 101.656C315.395 101.542 315.439 101.417 315.459 101.289C315.55 100.945 315.606 100.593 315.626 100.239C315.664 99.7114 315.644 99.182 315.567 98.6589C315.379 97.3711 314.872 96.1463 314.091 95.0887C313.773 94.6592 313.41 94.2633 313.007 93.9077C312.739 93.6651 312.448 93.4479 312.138 93.2591C311.917 93.1282 311.791 93.0628 311.782 93.0775C311.755 93.1164 312.237 93.4143 312.88 94.0335C313.254 94.3983 313.594 94.7951 313.894 95.2189C314.631 96.2603 315.121 97.4461 315.331 98.692C315.416 99.1995 315.453 99.7135 315.443 100.227C315.421 101.111 315.283 101.646 315.332 101.656Z" fill="white"/>
<path d="M316.232 84.4773C316.497 84.2444 316.704 83.9569 316.839 83.636C317.208 82.8758 317.372 82.0375 317.315 81.1994C317.259 80.3614 316.984 79.5508 316.516 78.8436C316.339 78.5428 316.094 78.2843 315.8 78.0869C315.766 78.1178 316.045 78.4009 316.36 78.9363C316.764 79.6365 317.002 80.4154 317.056 81.2162C317.111 82.017 316.979 82.8193 316.672 83.5647C316.432 84.1346 316.193 84.4508 316.232 84.4773Z" fill="white"/>
<path d="M313.789 120.158C314.143 119.953 314.44 119.669 314.655 119.328C315.239 118.532 315.524 117.566 315.462 116.591C315.401 115.617 314.997 114.692 314.317 113.971C314.061 113.657 313.729 113.41 313.352 113.249C313.323 113.285 313.717 113.532 314.177 114.086C314.787 114.8 315.146 115.684 315.205 116.609C315.263 117.534 315.017 118.453 314.501 119.234C314.117 119.835 313.757 120.126 313.789 120.158Z" fill="white"/>
<path d="M310.857 136.733C311.115 136.48 311.314 136.176 311.443 135.844C311.8 135.055 311.965 134.197 311.927 133.337C311.888 132.476 311.647 131.636 311.221 130.88C311.062 130.559 310.836 130.274 310.558 130.042C310.522 130.069 310.775 130.388 311.057 130.961C311.422 131.709 311.63 132.521 311.667 133.347C311.704 134.174 311.57 134.999 311.273 135.775C311.042 136.372 310.819 136.71 310.857 136.733Z" fill="white"/>
<path d="M274.564 68.6226C274.651 68.3875 274.716 68.1453 274.758 67.899C274.814 67.6645 274.876 67.3762 274.924 67.0372C274.972 66.6982 275.049 66.315 275.083 65.8856C275.191 64.881 275.229 63.8706 275.197 62.861C275.118 60.3828 274.629 57.9329 273.748 55.6051C273.388 54.6571 272.963 53.7336 272.475 52.8409C272.279 52.4548 272.062 52.1246 271.884 51.8297C271.706 51.5348 271.54 51.287 271.398 51.0907C271.264 50.8777 271.112 50.6764 270.942 50.4891C271.046 50.7174 271.17 50.9362 271.314 51.1429C271.443 51.3473 271.598 51.5988 271.761 51.9011C271.924 52.2033 272.129 52.5335 272.314 52.9232C272.775 53.8193 273.179 54.7414 273.524 55.6845C274.371 57.9972 274.855 60.4197 274.96 62.8713C275.003 63.8714 274.983 64.8731 274.901 65.8709C274.88 66.2989 274.819 66.6798 274.782 67.0188C274.745 67.3578 274.7 67.6468 274.659 67.8829C274.605 68.1263 274.574 68.3738 274.564 68.6226Z" fill="white"/>
<path d="M200.856 143.6C200.856 143.6 203.394 141.696 205.278 141.614C207.162 141.532 209.618 142.248 210.11 142.01C210.602 141.773 211.748 140.729 212.485 141.607C213.222 142.486 214.123 145.66 210.192 146.534H207.491C207.491 146.534 207.818 149.152 208.477 150.183C209.136 151.214 218.304 162.402 218.304 162.402C218.304 162.402 219.451 163.513 218.878 164.624C218.304 165.734 215.847 165.1 215.847 165.1C215.847 165.1 214.128 166.607 212.162 165.893C211.188 165.572 210.255 165.146 209.378 164.624C208.743 165.094 207.966 165.348 207.167 165.348C206.368 165.348 205.591 165.094 204.955 164.624C202.663 162.957 195.017 153.674 195.017 153.674L197.749 143.281L200.856 143.6Z" fill="#FBB089"/>
<path d="M192.896 137.46L200.855 143.6L195.011 153.675L183.356 149.576C183.356 149.576 183.69 137.675 192.896 137.46Z" fill="#FBB089"/>
<path d="M317.043 123.742C317.043 123.742 316.792 120.98 315.199 121.549C313.606 122.117 312.936 125.366 312.936 125.366L317.043 123.742Z" fill="#FBB089"/>
<path d="M311.343 126.465C311.343 126.465 314.11 123.459 317.966 123.703C321.821 123.947 319.391 127.114 319.391 127.114C319.391 127.114 322.245 128.82 320.15 131.256L319.813 131.906C319.813 131.906 322.242 132.8 319.729 135.318C319.983 135.767 320.087 136.282 320.027 136.79C319.967 137.299 319.745 137.778 319.393 138.16C318.136 139.378 314.991 137.754 314.991 137.754C314.991 137.754 312.099 138.404 311.848 137.267C311.754 136.889 311.767 136.494 311.885 136.122C312.003 135.751 312.222 135.417 312.519 135.155C312.77 134.993 314.279 134.424 314.279 134.424C314.279 134.424 310.926 134.831 310.842 134.019C310.759 133.207 310.423 132.313 312.937 131.5L314.278 131.153C314.278 131.153 310.801 131.257 310.78 130.445C310.759 129.633 310.589 129.308 311.848 128.739C312.63 128.383 313.386 127.976 314.111 127.521C314.111 127.521 310.843 128.17 311.343 126.465Z" fill="#FBB089"/>
<path d="M310.727 129.636C311.955 128.691 313.365 127.992 314.875 127.578C316.384 127.165 317.963 127.045 319.52 127.227C319.087 127.05 318.624 126.953 318.154 126.943C315.868 126.757 313.591 127.38 311.744 128.698C311.347 128.946 311.002 129.264 310.727 129.636Z" fill="#6F4439"/>
<path d="M311.114 134.281C311.134 134.258 311.032 134.178 310.952 133.991C310.855 133.717 310.858 133.419 310.961 133.147C311.086 132.733 311.354 132.373 311.72 132.127C312.186 131.828 312.706 131.618 313.253 131.508C314.705 131.247 316.173 131.075 317.648 130.993C317.223 130.874 316.779 130.826 316.338 130.853C315.273 130.84 314.21 130.95 313.172 131.181C312.581 131.3 312.022 131.537 311.531 131.877C311.121 132.172 310.835 132.6 310.725 133.084C310.629 133.407 310.668 133.753 310.834 134.049C310.969 134.252 311.107 134.293 311.114 134.281Z" fill="#6F4439"/>
<path d="M312.525 137.851C312.534 137.825 312.404 137.778 312.234 137.622C312.094 137.488 311.983 137.327 311.911 137.149C311.838 136.972 311.804 136.781 311.811 136.59C311.818 136.399 311.866 136.211 311.952 136.039C312.038 135.867 312.16 135.714 312.31 135.59C312.815 135.262 313.371 135.014 313.956 134.854C315.06 134.631 316.193 134.573 317.314 134.684C317.792 134.739 318.276 134.714 318.745 134.61C318.278 134.525 317.806 134.471 317.331 134.448C316.178 134.265 315 134.294 313.859 134.535C313.228 134.706 312.634 134.985 312.104 135.36C311.87 135.55 311.698 135.804 311.613 136.088C311.547 136.332 311.535 136.586 311.578 136.835C311.607 137.013 311.673 137.185 311.772 137.338C311.87 137.492 312 137.625 312.152 137.729C312.366 137.865 312.522 137.869 312.525 137.851Z" fill="#6F4439"/>
<path d="M311.293 126.596C311.319 126.596 311.369 126.493 311.54 126.341C311.779 126.125 312.032 125.924 312.299 125.741C313.165 125.114 314.123 124.615 315.141 124.261C316.149 123.888 317.231 123.736 318.307 123.815C318.744 123.911 319.175 124.03 319.598 124.172C319.256 123.856 318.821 123.65 318.353 123.584C317.235 123.427 316.095 123.551 315.041 123.942C312.537 124.812 311.084 126.486 311.293 126.596Z" fill="#6F4439"/>
</g>
<defs>
<clipPath id="clip0_58_596">
<rect width="326" height="333" fill="white"/>
</clipPath>
</defs>
</svg>
