<svg id="control-over-invoices-6" xmlns="http://www.w3.org/2000/svg" width="20" height="20" viewBox="0 0 20 20">
  <path id="Path_26238" data-name="Path 26238" d="M17.437,9.27A6.245,6.245,0,0,0,11.06,19.885a1.008,1.008,0,0,1-1.046-.14L8.594,18.61,7.322,19.745a1,1,0,0,1-1.3,0L4.749,18.612,3.465,19.757A.987.987,0,0,1,2.811,20a.969.969,0,0,1-.65-.24L.671,18.43a.714.714,0,0,1-.122-.137A1.316,1.316,0,0,1,0,17.241V1A1,1,0,0,1,.988,0H16.449a.994.994,0,0,1,.988,1V9.27ZM1.993,8.389a.5.5,0,0,0,.486.492H6.987a.483.483,0,0,0,.486-.492.5.5,0,0,0-.486-.494H2.479a.484.484,0,0,0-.486.494Zm0,3.946a.491.491,0,0,0,.48.494H6a.487.487,0,0,0,.48-.494A.492.492,0,0,0,6,11.842H2.472A.487.487,0,0,0,1.993,12.335Zm0-8.387a.5.5,0,0,0,.491.494H8.975a.49.49,0,0,0,.491-.494.5.5,0,0,0-.491-.494H2.484a.489.489,0,0,0-.491.494Z" transform="translate(0 0)" fill="#c3c3c3"/>
  <path id="Path_26239" data-name="Path 26239" d="M517.124,522.253a5.126,5.126,0,1,1,5.126-5.126A5.126,5.126,0,0,1,517.124,522.253Zm2.418-5.195a.425.425,0,1,0,0-.848h-1.1l1.1-1.1a.423.423,0,0,0,0-.6.429.429,0,0,0-.6,0l-1.567,1.561-1.566-1.56a.429.429,0,0,0-.6,0,.423.423,0,0,0,0,.6l1.1,1.1h-1.033a.425.425,0,0,0,0,.85h1.708v.85h-1.709a.425.425,0,0,0,0,.851h1.709v.991a.427.427,0,1,0,.855,0v-.991h1.708a.425.425,0,0,0,0-.851h-1.708v-.851Z" transform="translate(-502.249 -502.253)" fill="#c3c3c3"/>
</svg>
