<svg xmlns="http://www.w3.org/2000/svg" width="30.641" height="37.092" viewBox="0 0 30.641 37.092">
  <g id="Group_62801" data-name="Group 62801" transform="translate(-1208 -829)">
    <g id="copy-page" transform="translate(1208 829)">
      <path id="Path_26758" data-name="Path 26758" d="M30.69,6.919V9.338H15.37a4.032,4.032,0,0,0-4.032,4.032V35.141H8.919A2.419,2.419,0,0,1,6.5,32.722V6.919A2.419,2.419,0,0,1,8.919,4.5H28.271A2.419,2.419,0,0,1,30.69,6.919Z" transform="translate(-6.5 -4.5)" fill="#c3c3c3"/>
      <path id="Path_26759" data-name="Path 26759" d="M32.271,8.5H12.919A2.419,2.419,0,0,0,10.5,10.919v25.8a2.419,2.419,0,0,0,2.419,2.419H32.271a2.419,2.419,0,0,0,2.419-2.419v-25.8A2.419,2.419,0,0,0,32.271,8.5ZM22.6,29.465H16.144a.806.806,0,0,1,0-1.613H22.6a.806.806,0,0,1,0,1.613Zm6.451-6.451h-12.9a.806.806,0,0,1,0-1.613h12.9a.806.806,0,1,1,0,1.613Zm0-6.451h-12.9a.806.806,0,0,1,0-1.613h12.9a.806.806,0,1,1,0,1.613Z" transform="translate(-4.049 -2.049)" fill="#c3c3c3"/>
    </g>
  </g>
</svg>
