<svg xmlns="http://www.w3.org/2000/svg" width="21.54" height="20.97" viewBox="0 0 21.54 20.97">
  <g id="date" transform="translate(-1.44 -2.15)">
    <rect id="Rectangle_21546" data-name="Rectangle 21546" width="1.09" height="1.17" transform="translate(12.52 17.3)" fill="#808081"/>
    <rect id="Rectangle_21547" data-name="Rectangle 21547" width="1.09" height="1.17" transform="translate(7.3 17.3)" fill="#808081"/>
    <rect id="Rectangle_21548" data-name="Rectangle 21548" width="1.09" height="1.17" transform="translate(12.52 11.86)" fill="#808081"/>
    <rect id="Rectangle_21549" data-name="Rectangle 21549" width="1.09" height="1.17" transform="translate(17.74 17.3)" fill="#808081"/>
    <rect id="Rectangle_21550" data-name="Rectangle 21550" width="1.09" height="1.17" transform="translate(17.74 11.86)" fill="#808081"/>
    <path id="Path_26255" data-name="Path 26255" d="M22.48,4H17.74V2.65a.5.5,0,0,0-.5-.5.51.51,0,0,0-.5.5V4H12.52V2.82a.5.5,0,0,0-1,0V4H9.73a4.55,4.55,0,0,0-.35-.4A3.33,3.33,0,0,0,9,3.19a4,4,0,0,0-.4-.29.2.2,0,0,0-.09,0,3.84,3.84,0,0,0-.39-.22,4.1,4.1,0,0,0-.48-.21,3.06,3.06,0,0,0-.43-.13,1.55,1.55,0,0,0-.31-.06H6.63a4.53,4.53,0,0,0-.52,0A4.729,4.729,0,0,0,1.5,7.76a2.66,2.66,0,0,0,.07.39,4,4,0,0,0,.13.46,3.85,3.85,0,0,0,.19.47,3.59,3.59,0,0,0,.17.34,3,3,0,0,0,.38.58c.09.13.2.24.3.36h0l.38.35V22.62a.5.5,0,0,0,.5.5H22.48a.5.5,0,0,0,.5-.5V4.45A.5.5,0,0,0,22.48,4Zm-11,1v.93a.51.51,0,0,0,.5.5.5.5,0,0,0,.5-.5V5H16.7v.93a.51.51,0,0,0,.5.5.5.5,0,0,0,.5-.5V5H22V8.68H10.49A4.76,4.76,0,0,0,10.79,7a4.71,4.71,0,0,0,0-.53,4.67,4.67,0,0,0-.25-1.12A2.5,2.5,0,0,0,10.36,5h1.12ZM9.39,16.8V19a.5.5,0,0,1-.5.5H6.8a.5.5,0,0,1-.5-.5V16.8a.5.5,0,0,1,.5-.5H8.89A.5.5,0,0,1,9.39,16.8ZM12,16.3h2.09a.5.5,0,0,1,.5.5V19a.5.5,0,0,1-.5.5H12a.5.5,0,0,1-.5-.5V16.8A.5.5,0,0,1,12,16.3Zm-.5-2.77V11.36a.5.5,0,0,1,.5-.5h2.09a.5.5,0,0,1,.5.5v2.17a.5.5,0,0,1-.5.5H12a.5.5,0,0,1-.48-.5ZM16.74,19V16.8a.5.5,0,0,1,.5-.5h2.09a.5.5,0,0,1,.5.5V19a.5.5,0,0,1-.5.5H17.24A.5.5,0,0,1,16.74,19Zm3.09-5.44a.5.5,0,0,1-.5.5H17.24a.5.5,0,0,1-.5-.5v-2.2a.5.5,0,0,1,.5-.5h2.09a.5.5,0,0,1,.5.5ZM2.44,7A3.77,3.77,0,0,1,6.11,3.15a3.62,3.62,0,0,1,3,1.59,4,4,0,0,1,.2,4.16h0a3.66,3.66,0,0,1-3.16,1.88A3.5,3.5,0,0,1,4,10.11H4A3.85,3.85,0,0,1,2.44,7Z" fill="#808081"/>
    <path id="Path_26256" data-name="Path 26256" d="M7,8.52a.48.48,0,0,0,.26.07.5.5,0,0,0,.26-.92l-.87-.54V4.45a.5.5,0,1,0-1,0v3a.49.49,0,0,0,.24.42Z" fill="#808081"/>
  </g>
</svg>
