<svg width="236" height="288" viewBox="0 0 236 288" fill="none" xmlns="http://www.w3.org/2000/svg">
<g clip-path="url(#clip0_18_2)">
<path opacity="0.1" d="M118 236.231C183.17 236.231 236 183.349 236 118.115C236 52.8821 183.17 0 118 0C52.8304 0 0 52.8821 0 118.115C0 183.349 52.8304 236.231 118 236.231Z" fill="#FEBE3D"/>
<path d="M74.8493 147.446H95.4573" stroke="#EE781D" stroke-width="3"/>
<path d="M74.8493 153.391H95.4573" stroke="#EE781D" stroke-width="3"/>
<path d="M74.8493 159.336H95.4573" stroke="#EE781D" stroke-width="3"/>
<path d="M212.017 265.149C217.805 265.149 222.498 260.452 222.498 254.658C222.498 248.864 217.805 244.167 212.017 244.167C206.229 244.167 201.537 248.864 201.537 254.658C201.537 260.452 206.229 265.149 212.017 265.149Z" fill="#FEBE3D"/>
<path d="M197.362 244.551C200.376 244.551 202.82 242.104 202.82 239.086C202.82 236.069 200.376 233.622 197.362 233.622C194.347 233.622 191.903 236.069 191.903 239.086C191.903 242.104 194.347 244.551 197.362 244.551Z" fill="#FEBE3D"/>
<path d="M210.07 227.803C211.809 227.803 213.219 226.392 213.219 224.651C213.219 222.91 211.809 221.499 210.07 221.499C208.331 221.499 206.921 222.91 206.921 224.651C206.921 226.392 208.331 227.803 210.07 227.803Z" fill="#FEBE3D"/>
<path d="M224.716 241.928C228.885 241.928 232.265 238.545 232.265 234.371C232.265 230.198 228.885 226.815 224.716 226.815C220.547 226.815 217.167 230.198 217.167 234.371C217.167 238.545 220.547 241.928 224.716 241.928Z" fill="#FEBE3D"/>
<path d="M83.9509 220.498C89.7392 220.498 94.4315 215.801 94.4315 210.007C94.4315 204.213 89.7392 199.516 83.9509 199.516C78.1627 199.516 73.4704 204.213 73.4704 210.007C73.4704 215.801 78.1627 220.498 83.9509 220.498Z" fill="#EE781D"/>
<path d="M69.2946 199.9C72.3094 199.9 74.7534 197.453 74.7534 194.435C74.7534 191.418 72.3094 188.971 69.2946 188.971C66.2798 188.971 63.8358 191.418 63.8358 194.435C63.8358 197.453 66.2798 199.9 69.2946 199.9Z" fill="#EE781D"/>
<path d="M82.0029 183.151C83.7422 183.151 85.1521 181.74 85.1521 179.999C85.1521 178.258 83.7422 176.847 82.0029 176.847C80.2637 176.847 78.8538 178.258 78.8538 179.999C78.8538 181.74 80.2637 183.151 82.0029 183.151Z" fill="#EE781D"/>
<path d="M96.6491 197.277C100.818 197.277 104.198 193.894 104.198 189.72C104.198 185.547 100.818 182.164 96.6491 182.164C92.4798 182.164 89.1 185.547 89.1 189.72C89.1 193.894 92.4798 197.277 96.6491 197.277Z" fill="#EE781D"/>
<path d="M109.802 74.5251C131.23 44.3 144.533 16.9086 139.518 13.344L133.768 9.26004C128.749 5.69545 107.31 27.3073 85.8824 57.5323C64.4545 87.7573 51.1518 115.149 56.1672 118.713L61.9169 122.797C66.9355 126.362 88.3736 104.75 109.802 74.5251Z" fill="#AB1F21"/>
<path d="M104.082 70.4161C125.52 40.1737 138.828 12.7661 133.807 9.19959C128.785 5.63307 107.336 27.2582 85.8979 57.5006C64.4601 87.7431 51.152 115.151 56.1735 118.717C61.195 122.284 82.6445 100.659 104.082 70.4161Z" fill="#D63437"/>
<path d="M99.2716 47.8796C105.233 52.1138 87.6732 76.8818 81.7121 72.6476C75.751 68.4134 74.8493 59.4358 79.698 52.5962C84.5468 45.7566 93.3081 43.6477 99.2716 47.8796Z" fill="#AB1F21"/>
<path d="M57.0123 141.687L72.7496 279.492H72.9202C72.9202 284.19 95.8134 287.998 124.053 287.998C152.293 287.998 175.186 284.19 175.186 279.492H175.357L191.095 141.687H57.0123Z" fill="#AB1F21"/>
<path d="M124.053 152.842C161.079 152.842 191.094 147.849 191.094 141.689C191.094 135.529 161.079 130.536 124.053 130.536C87.0275 130.536 57.0123 135.529 57.0123 141.689C57.0123 147.849 87.0275 152.842 124.053 152.842Z" fill="#D63437"/>
<path d="M127.243 172.639H124.659C123.791 172.639 123.087 173.343 123.087 174.212V271.165C123.087 272.034 123.791 272.738 124.659 272.738H127.243C128.111 272.738 128.815 272.034 128.815 271.165V174.212C128.815 173.343 128.111 172.639 127.243 172.639Z" fill="white"/>
<path d="M156.497 272.872L152.875 272.371C152.297 272.292 151.86 271.28 151.901 270.114L155.152 174.474C155.191 173.308 155.692 172.428 156.271 172.506L159.892 173.008C160.47 173.086 160.907 174.098 160.867 175.265L157.616 270.906C157.576 272.072 157.078 272.952 156.497 272.872ZM93.3207 272.872L96.9423 272.371C97.5201 272.292 97.9564 271.28 97.9171 270.114L94.6665 174.474C94.6272 173.308 94.1265 172.428 93.5479 172.506L89.9262 173.008C89.3484 173.086 88.9113 174.098 88.9514 175.265L92.202 270.906C92.2421 272.072 92.7429 272.952 93.3238 272.872H93.3207Z" fill="white"/>
<path d="M153.492 124.049L148.775 140.057L108.003 128.018C107.565 127.888 107.196 127.59 106.977 127.189C106.759 126.787 106.709 126.315 106.838 125.876L125.92 61.1158C126.049 60.6773 126.347 60.308 126.748 60.0893C127.15 59.8706 127.621 59.8204 128.059 59.9497L183.237 76.2382C183.675 76.3675 184.044 76.6657 184.262 77.0673C184.481 77.4688 184.531 77.9407 184.402 78.3793L169.55 128.782L153.492 124.049Z" fill="#F8A23A"/>
<path d="M148.774 140.053L153.491 124.046L169.548 128.786L148.774 140.053Z" fill="white"/>
<path d="M152.01 80.4409L131.689 74.4417L128.953 83.7273L149.274 89.7265L152.01 80.4409Z" fill="white"/>
<path d="M155.697 86.5763L171.259 91.1709" stroke="white" stroke-width="3"/>
<path d="M119.971 114.941L135.534 119.535" stroke="white" stroke-width="3"/>
<path d="M126.819 90.971L167.757 103.058" stroke="white" stroke-width="3"/>
<path d="M124.471 98.9414L165.408 111.028" stroke="white" stroke-width="3"/>
<path d="M122.122 106.912L163.059 118.998" stroke="white" stroke-width="3"/>
</g>
<defs>
<clipPath id="clip0_18_2">
<rect width="236" height="288" fill="white"/>
</clipPath>
</defs>
</svg>
