<svg xmlns="http://www.w3.org/2000/svg" width="28" height="27" viewBox="0 0 28 27">
  <g id="Group_10075" data-name="Group 10075" transform="translate(2.061 2)">
    <g id="Ellipse_238" data-name="Ellipse 238" transform="translate(-0.061 0)" fill="#d0333a" stroke="#fff" stroke-width="2">
      <ellipse cx="12" cy="11.5" rx="12" ry="11.5" stroke="none"/>
      <ellipse cx="12" cy="11.5" rx="13" ry="12.5" fill="none"/>
    </g>
    <g id="delete" transform="translate(7.234 6.02)">
      <path id="Path_1581" data-name="Path 1581" d="M73.668,1.035A.6.6,0,0,1,74.3.447h2.6a.6.6,0,0,1,.633.587v.643h.469V1.035A1.057,1.057,0,0,0,76.9,0H74.3a1.057,1.057,0,0,0-1.1,1.035v.643h.469Zm0,0" transform="translate(-71.152)" fill="#fff"/>
      <path id="Path_1582" data-name="Path 1582" d="M29.133,131.915h5.456a.965.965,0,0,0,.934-1.007V124H28.2v6.908a.965.965,0,0,0,.934,1.007Zm4.2-6.846a.231.231,0,0,1,.461,0v5.286a.231.231,0,0,1-.461,0Zm-1.7,0a.231.231,0,0,1,.461,0v5.286a.231.231,0,0,1-.461,0Zm-1.7,0a.231.231,0,0,1,.461,0v5.286a.231.231,0,0,1-.461,0Zm0,0" transform="translate(-27.41 -120.243)" fill="#fff"/>
      <path id="Path_1583" data-name="Path 1583" d="M.574,69.119H8.328a.56.56,0,1,0,0-1.119H.574a.56.56,0,1,0,0,1.119Zm0,0" transform="translate(0 -66.045)" fill="#fff"/>
    </g>
  </g>
</svg>
