<svg xmlns="http://www.w3.org/2000/svg" width="34.679" height="32" viewBox="0 0 34.679 32">
  <g id="delivery-complete" transform="translate(-2 -2.025)">
    <path id="Path_27701" data-name="Path 27701" d="M26.731,7.3V22.861a1.6,1.6,0,0,1-.763,1.373L13,30.642V15.233L25.968,8.826A2.118,2.118,0,0,0,26.731,7.3Z" transform="translate(5.782 2.773)" fill="#18c212"/>
    <path id="Path_27702" data-name="Path 27702" d="M15.731,15.233V30.795L2.763,24.387A2.118,2.118,0,0,1,2,22.861V7.3a1.6,1.6,0,0,0,.763,1.373Z" transform="translate(0 2.773)" fill="#18c212"/>
    <path id="Path_27703" data-name="Path 27703" d="M21.518,4.123,8.092,10.836,4.888,9.31,3.973,8.7A1.459,1.459,0,0,0,2.6,8.7h0l13.731-6.56a2.117,2.117,0,0,1,1.373,0Z" transform="translate(0.315)" fill="#18c212"/>
    <path id="Path_27704" data-name="Path 27704" d="M28.386,7.451a1.144,1.144,0,0,0-1.373,0L20.3,10.808l-4.882,2.441-1.526.763-1.526-.763-1.983-.915L8.4,11.265,21.978,4.4l1.983.915,4.424,2.136Z" transform="translate(3.364 1.248)" fill="#18c212"/>
    <path id="Path_27705" data-name="Path 27705" d="M32.513,9.35a1.6,1.6,0,0,1-.763,1.373l-12.968,6.56V32.845l-.763.305a1.143,1.143,0,0,1-.763.153,1.375,1.375,0,0,1-.763-.153h-.153l-.61-.458V17.283L2.763,10.723A1.6,1.6,0,0,1,2,9.35V8.892H2V8.74c0-.153.153-.153.153-.305l.305-.305H2.61a1.144,1.144,0,0,1,1.373,0l.915.458,3.2,1.526L21.833,3.4l2.136.915,1.373.763L11.764,11.791l1.983,1.068,1.983.915,1.526.763,1.526-.763,4.882-2.441,6.713-3.356a1.459,1.459,0,0,1,1.373,0H31.9a.328.328,0,0,1,.305.305.533.533,0,0,1,.153.305V8.74h0v.153A.56.56,0,0,1,32.513,9.35Z" transform="translate(0 0.723)" fill="#fff"/>
    <path id="Path_27706" data-name="Path 27706" d="M20.577,25.14a1.385,1.385,0,0,1-1.068-.458l-3.051-3.051A1.51,1.51,0,0,1,18.594,19.5l1.831,1.831L23.933,16.6a1.526,1.526,0,0,1,2.441,1.831L21.8,24.53a1.585,1.585,0,0,1-1.221.61Z" transform="translate(9.648 -2.241)" fill="#febe3d" stroke="#fff" stroke-width="0.5"/>
  </g>
</svg>
