<svg xmlns="http://www.w3.org/2000/svg" width="8.406" height="15.75" viewBox="0 0 8.406 15.75">
  <path id="Enter_email_or_phone" data-name="Enter email or phone" d="M4.806,1.566h.972V.108A3.648,3.648,0,0,0,9.486-3.438c0-2.5-1.926-3.024-3.708-3.474V-11.3a2.2,2.2,0,0,1,1.8,1.818H9.324a3.54,3.54,0,0,0-3.546-3.2v-1.494H4.806v1.494c-2.25.144-3.726,1.53-3.726,3.474,0,2.484,1.926,3.006,3.726,3.474v4.5A2.178,2.178,0,0,1,2.844-3.258H1.1C1.134-1.35,2.646-.09,4.806.108ZM7.848-3.348a2.12,2.12,0,0,1-2.07,2.124V-5.472C6.93-5.13,7.848-4.626,7.848-3.348ZM2.754-9.306A1.971,1.971,0,0,1,4.806-11.34v4.158C3.654-7.542,2.754-8.028,2.754-9.306Z" transform="translate(-1.08 14.184)" opacity="0.5"/>
</svg>
