<svg xmlns="http://www.w3.org/2000/svg" width="17.688" height="20" viewBox="0 0 17.688 20">
  <g id="download" transform="translate(-2.292 -0.5)">
    <path id="Path_27497" data-name="Path 27497" d="M13.184.5a1.253,1.253,0,0,0-1.241,1.262v9.392L10.289,9.472a1.191,1.191,0,0,0-1.741.013,1.242,1.242,0,0,0-.01,1.775l3.765,3.83a1.2,1.2,0,0,0,.865.37h.011a1.241,1.241,0,0,0,.883-.367l3.772-3.837a1.243,1.243,0,0,0-.013-1.773,1.194,1.194,0,0,0-1.745-.009l-1.651,1.679V1.762A1.253,1.253,0,0,0,13.184.5Z" transform="translate(-2.048)" fill="#d0333a"/>
    <path id="Path_27498" data-name="Path 27498" d="M3.542,19.6a1.258,1.258,0,0,0-1.25,1.262v1.4a5.077,5.077,0,0,0,5.047,5.1h7.594a5.078,5.078,0,0,0,5.047-5.1v-1.4a1.25,1.25,0,1,0-2.5,0v1.4a2.562,2.562,0,0,1-2.547,2.572H7.339a2.562,2.562,0,0,1-2.547-2.572v-1.4A1.258,1.258,0,0,0,3.542,19.6Z" transform="translate(0 -6.851)" fill="#d0333a"/>
  </g>
</svg>
