<svg xmlns="http://www.w3.org/2000/svg" width="21.225" height="24" viewBox="0 0 21.225 24">
  <g id="Group_64366" data-name="Group 64366" transform="translate(-1784.231 -296.143)">
    <g id="Group_64365" data-name="Group 64365" transform="translate(1784.231 296.143)">
      <g id="download" transform="translate(0 0)">
        <path id="Path_27497" data-name="Path 27497" d="M14.187.5A1.5,1.5,0,0,0,12.7,2.015V13.286l-1.985-2.019a1.43,1.43,0,0,0-2.09.016,1.49,1.49,0,0,0-.012,2.13l4.518,4.6a1.439,1.439,0,0,0,1.038.444h.013a1.49,1.49,0,0,0,1.06-.44l4.527-4.6a1.492,1.492,0,0,0-.015-2.127,1.432,1.432,0,0,0-2.094-.011l-1.981,2.015V2.014A1.5,1.5,0,0,0,14.187.5Z" transform="translate(-3.575 -0.5)" fill="#808081"/>
        <path id="Path_27498" data-name="Path 27498" d="M3.792,19.6a1.509,1.509,0,0,0-1.5,1.514v1.676A6.093,6.093,0,0,0,8.349,28.9h9.112a6.093,6.093,0,0,0,6.057-6.115V21.11a1.5,1.5,0,1,0-3,0v1.676a3.075,3.075,0,0,1-3.057,3.086H8.349a3.075,3.075,0,0,1-3.057-3.086V21.11a1.509,1.509,0,0,0-1.5-1.514Z" transform="translate(-2.292 -4.901)" fill="#808081"/>
      </g>
    </g>
  </g>
</svg>
