<svg xmlns="http://www.w3.org/2000/svg" width="15.279" height="16.457" viewBox="0 0 15.279 16.457">
  <g id="Group_66038" data-name="Group 66038" transform="translate(-114.074 -126.271)">
    <path id="download" d="M1.61,8.192a3.786,3.786,0,0,0,3.78,3.785H8.453v-4a.8.8,0,1,1,1.593,0v4h3.063a3.783,3.783,0,0,0,.8-7.48,4.71,4.71,0,0,0-9.312,0A3.8,3.8,0,0,0,1.61,8.192Zm6.843,6.047-.685-.685A.8.8,0,1,0,6.643,14.68L8.66,16.7a.785.785,0,0,0,.589.26.792.792,0,0,0,.563-.234l2.044-2.044a.8.8,0,0,0-1.125-1.125l-.685.685V11.978H8.453Z" transform="translate(112.464 125.771)" fill="#5e666c"/>
  </g>
</svg>
