<svg xmlns="http://www.w3.org/2000/svg" width="29.931" height="30" viewBox="0 0 29.931 30">
  <g id="employee-carrier" transform="translate(-4.807 -7.807)">
    <path id="Path_27684" data-name="Path 27684" d="M35.921,28.263c0-4.026-.079-8.684,0-8.684V12.158A3.167,3.167,0,0,0,32.763,9H9.158A3.167,3.167,0,0,0,6,12.158V35.842A3.167,3.167,0,0,0,9.158,39H32.842c.553,0,3.274-.816,3.079-4.739C35.939,34.292,35.921,33.079,35.921,28.263Z" transform="translate(-1.193 -1.193)" fill="#471887"/>
    <path id="growth" d="M23.3,6.663A1.086,1.086,0,0,0,22.317,6H16.971a1.069,1.069,0,1,0,0,2.139H19.74l-5.977,5.977-3.518-3.529a1.069,1.069,0,0,0-1.518,0L2.31,17a1.074,1.074,0,1,0,1.518,1.518l5.657-5.667L13,16.383a1.069,1.069,0,0,0,1.518,0l6.726-6.737v2.769a1.069,1.069,0,1,0,2.139,0V7.069A1.069,1.069,0,0,0,23.3,6.663Z" transform="translate(7.083 10.389)" fill="#fff"/>
  </g>
</svg>
