<svg xmlns="http://www.w3.org/2000/svg" width="16.951" height="16.555" viewBox="0 0 16.951 16.555">
  <path id="edit-71" d="M159.365,125.8l5.223-5.1a.669.669,0,0,1,.931,0,.632.632,0,0,1,0,.909l-6.749,6.591a2,2,0,0,1-1.215.557l-3.392.306.313-3.312a1.91,1.91,0,0,1,.57-1.187l11.766-11.492a2.008,2.008,0,0,1,2.791,0l.932.909a1.9,1.9,0,0,1,0,2.727l-2.9,2.837a.669.669,0,0,1-.931,0,.632.632,0,0,1,0-.909l1.04-1.017-1.862-1.819-8.379,8.183Zm-.931.909-1.863-1.819-.594.581a.637.637,0,0,0-.191.4l-.167,1.772,1.814-.163a.665.665,0,0,0,.406-.186Zm10.24-10,.931-.909a.632.632,0,0,0,0-.909l-.931-.909a.669.669,0,0,0-.931,0l-.931.909,1.862,1.818Z" transform="translate(-154.163 -112.503)" fill="#474849"/>
</svg>
