<svg width="15" height="14" viewBox="0 0 15 14" fill="none" xmlns="http://www.w3.org/2000/svg">
<g clip-path="url(#clip0_13_2)">
<path d="M0 11.0827V14H3.12549L12.3475 5.39239L9.22196 2.47582L0 11.0827ZM14.7561 3.14486C14.8331 3.07373 14.8945 2.9883 14.9364 2.89371C14.9783 2.79913 14.9998 2.69735 14.9998 2.59451C14.9998 2.49166 14.9783 2.38988 14.9364 2.2953C14.8945 2.20072 14.8331 2.11529 14.7561 2.04415L12.8102 0.2298C12.6514 0.0846392 12.4408 0.00372314 12.222 0.00372314C12.0031 0.00372314 11.7925 0.0846392 11.6337 0.2298L10.1059 1.65104L13.2314 4.56837L14.7569 3.14486H14.7561Z" fill="#CBCBCB"/>
</g>
<defs>
<clipPath id="clip0_13_2">
<rect width="15" height="14" fill="white"/>
</clipPath>
</defs>
</svg>
