<svg xmlns="http://www.w3.org/2000/svg" width="15.937" height="12.177" viewBox="0 0 15.937 12.177">
  <g id="email_1_" data-name="email (1)" transform="translate(-8.1 -13.8)">
    <path id="Path_26270" data-name="Path 26270" d="M24.071,17.532l-.632-.632-5.856,5.856a1.928,1.928,0,0,1-2.7,0L9.032,16.933l-.632.632,4.359,4.359L8.4,26.283l.632.632,4.359-4.359.865.865a2.732,2.732,0,0,0,3.926,0l.865-.865,4.359,4.359.632-.632-4.359-4.359,4.392-4.392" transform="translate(-0.2 -2.069)" fill="#fff"/>
    <path id="Path_26271" data-name="Path 26271" d="M22.64,25.977H9.5a1.406,1.406,0,0,1-1.4-1.4V15.2a1.406,1.406,0,0,1,1.4-1.4H22.64a1.406,1.406,0,0,1,1.4,1.4V24.58A1.406,1.406,0,0,1,22.64,25.977ZM9.464,14.7A.455.455,0,0,0,9,15.164v9.383a.455.455,0,0,0,.466.466H22.606a.455.455,0,0,0,.466-.466V15.164a.455.455,0,0,0-.466-.466Z" transform="translate(0 0)" fill="#fff"/>
  </g>
</svg>
