<svg width="352" height="258" viewBox="0 0 352 258" fill="none" xmlns="http://www.w3.org/2000/svg">
<path d="M313.15 244.186C295.633 230.878 265.675 197.854 305.126 146.013C353.913 81.9057 295.486 55.6043 239.483 58.3499C194.431 60.558 143.722 3.91589 93.1405 14.0382C26.0036 27.476 69.5963 85.292 24.0764 116.44C-14.7465 143.005 1.92121 223.946 52.4467 244.186H313.15Z" fill="#E2EEFC"/>
<path d="M344.765 126.625C344.495 117.119 335.639 113.432 329.729 120.314C325.535 125.117 323 131.143 322.5 137.499C321.147 154.448 335.974 149.537 341.515 140.461C343.879 136.591 344.902 131.43 344.765 126.625Z" fill="#DCEDF9"/>
<path d="M181.596 10.6843C172.251 8.91291 166.753 16.7783 172.216 24.0243C176.011 29.1473 181.356 32.9115 187.458 34.7593C203.726 39.7068 202.098 24.1691 194.417 16.8162C191.139 13.6797 186.319 11.5779 181.596 10.6843Z" fill="#DCEDF9"/>
<path d="M27.1543 97.7843C30.8931 89.04 24.3984 81.9796 16.1476 85.7514C10.3269 88.354 5.4996 92.7628 2.38116 98.3242C-5.95088 113.146 9.57037 114.901 18.4045 108.985C22.1726 106.461 25.2639 102.203 27.1543 97.7843Z" fill="#DCEDF9"/>
<path d="M176.058 257.321C264.515 257.321 336.223 252.601 336.223 246.778C336.223 240.954 264.515 236.234 176.058 236.234C87.6017 236.234 15.8934 240.954 15.8934 246.778C15.8934 252.601 87.6017 257.321 176.058 257.321Z" fill="#DCEDF9"/>
<path d="M331.907 160.275C322.101 170.078 333.039 170.909 325.843 178.313C319.285 185.06 309.607 178.492 310.251 194.973C310.392 198.577 307.769 201.253 304.087 202.623C301.39 203.65 298.441 203.819 295.643 203.108C292.846 202.397 290.336 200.84 288.456 198.649C288.159 198.316 287.878 197.967 287.612 197.603C286.141 195.62 285.209 193.29 284.906 190.84C284.603 188.39 284.94 185.904 285.885 183.623C287.55 179.504 290.499 175.45 295.725 173.835C307.986 170.048 301.181 153.807 311.545 153.095C324.043 152.234 324.491 147.651 333.361 141.471C342.762 134.92 345.195 146.992 331.907 160.275Z" fill="#FEBE3D"/>
<path d="M327.51 154.919C327.236 155.201 304.499 178.645 288.456 198.649C288.159 198.315 287.878 197.966 287.612 197.602C303.699 177.586 326.294 154.286 326.57 154.004C326.692 153.879 326.858 153.808 327.032 153.806C327.206 153.803 327.374 153.87 327.498 153.992C327.623 154.113 327.694 154.279 327.696 154.453C327.699 154.627 327.632 154.795 327.51 154.92V154.919Z" fill="white"/>
<path d="M334.424 193.001C319.061 202.045 332.409 206.602 321.069 213.501C310.732 219.788 300.8 208.496 296.294 229.218C295.309 233.751 291.182 236.236 286.158 236.756C282.469 237.165 278.744 236.427 275.49 234.64C272.236 232.854 269.613 230.107 267.978 226.775C267.716 226.264 267.478 225.736 267.266 225.201C266.073 222.259 265.663 219.059 266.075 215.912C266.487 212.765 267.708 209.778 269.618 207.243C273.017 202.652 277.993 198.557 285.018 198.229C301.5 197.46 298.258 175.055 311.388 177.505C327.222 180.459 329.255 174.898 342.286 170.062C356.101 164.935 355.246 180.742 334.424 193.001Z" fill="#FEBE3D"/>
<path d="M330.676 184.918C330.244 185.181 294.394 207.04 267.98 226.775C267.718 226.264 267.48 225.736 267.267 225.201C293.737 205.466 329.367 183.739 329.801 183.477C329.895 183.417 330.001 183.377 330.112 183.358C330.222 183.339 330.335 183.343 330.444 183.368C330.554 183.394 330.657 183.441 330.747 183.507C330.838 183.573 330.915 183.656 330.973 183.752C331.031 183.847 331.07 183.954 331.086 184.065C331.103 184.176 331.097 184.289 331.07 184.397C331.042 184.506 330.993 184.608 330.926 184.697C330.858 184.787 330.773 184.862 330.677 184.919L330.676 184.918Z" fill="white"/>
<path d="M287.238 74.019H42.0161V243.41H287.238V74.019Z" fill="#FEBE3D"/>
<path d="M287.231 74.0245V84.8846L164.628 193.552L42.0171 84.8846V74.0245L164.62 183.065L287.231 74.0245Z" fill="white"/>
<path d="M141.003 161.682L49.1184 243.41H42.0159V239.092L135.719 155.747L141.003 161.682Z" fill="white"/>
<path d="M287.238 239.668V243.413H279.493L187.608 161.686L192.892 155.747L287.238 239.668Z" fill="white"/>
<path d="M42.0092 74.0178L164.62 183.065L287.232 74.0178H42.0092Z" fill="#FEBE3D"/>
<path d="M274.389 103.442C272.236 107.452 269.777 111.291 267.035 114.925C265.953 116.343 264.747 117.663 263.431 118.869C261.477 120.599 259.569 121.504 258.016 120.736C252.255 117.891 239.416 95.2507 239.416 95.2507L242.578 91.576C242.578 91.576 248.293 98.0414 252.473 101.912C256.328 105.48 259.291 108.147 259.291 108.147C259.824 107.353 260.39 106.48 260.984 105.557C261.613 104.58 262.267 103.541 262.928 102.474C267.742 94.7327 273.537 86.2651 273.537 86.2651L274.389 103.442Z" fill="#F9AF8B"/>
<path d="M243.414 93.7963C243.414 93.7963 244.718 91.6585 244.214 89.7387C243.71 87.819 243.22 83.4895 241.126 83.6074C240.361 83.6496 241.478 85.46 240.965 87.1367C239.663 86.5039 238.411 85.7721 237.222 84.9475C235.902 83.9703 233.168 82.3883 231.897 81.6644C231.823 81.6203 231.737 81.6016 231.652 81.6112C231.566 81.6207 231.486 81.658 231.424 81.7174C231.361 81.7767 231.32 81.8549 231.306 81.9398C231.293 82.0248 231.307 82.1119 231.348 82.1879C231.674 82.7376 232.471 83.5653 234.315 84.7197C234.315 84.7197 229.734 82.1543 228.968 82.7187C228.202 83.2831 233.986 86.3836 233.986 86.3836C233.986 86.3836 229.314 84.4949 228.931 85.1864C228.699 85.6066 233.281 88.3015 233.281 88.3015C233.281 88.3015 228.729 86.8966 229.574 87.9625C229.819 88.2734 238.466 92.1856 240.268 96.7288C240.268 96.7276 242.787 95.3478 243.414 93.7963Z" fill="#F9AF8B"/>
<path d="M267.035 114.922C265.952 116.341 264.746 117.661 263.431 118.866L260.983 105.554C261.612 104.577 262.265 103.539 262.927 102.472L267.035 114.922Z" fill="#FC8664"/>
<path d="M273.71 85.6652L261.537 103.222L265.41 118.865L274.962 103.627C274.962 103.627 276.751 93.4335 273.71 85.6652Z" fill="#AF412B"/>
<path d="M279.956 235.894V241.437L285.13 241.355L285.468 235.482L279.956 235.894Z" fill="#F9AF8B"/>
<path d="M293.092 154.913C293.057 155.57 292.878 158.734 292.604 163.144C291.875 175.261 290.51 196.791 289.71 201.625C288.889 206.588 289.26 222.861 289.527 231.38C289.547 232.069 289.428 232.754 289.176 233.395C288.924 234.037 288.545 234.62 288.061 235.11C287.706 235.47 287.302 235.779 286.861 236.027C286.065 236.468 285.17 236.699 284.261 236.699H280.317C279.618 236.706 278.926 236.573 278.28 236.308C277.634 236.042 277.049 235.65 276.557 235.153C276.066 234.657 275.68 234.067 275.421 233.419C275.163 232.77 275.037 232.076 275.051 231.378C275.273 224.176 275.544 211.039 275.03 200.888C274.537 191.229 275.251 174.135 275.802 163.483H275.808C276.029 159.227 276.223 156.007 276.302 154.691L293.092 154.913Z" fill="#2E3052"/>
<path d="M276.304 154.694L293.092 154.911C293.057 155.569 292.878 158.733 292.604 163.143C286.903 163.829 280.965 164.116 275.806 163.487C276.031 159.23 276.225 156.012 276.304 154.694Z" fill="#001030"/>
<path d="M287.999 216.189C288.146 221.637 288.299 227.27 288.199 231.81C288.17 233.084 288.125 234.175 288.065 235.109C287.711 235.472 287.305 235.781 286.86 236.025C286.956 234.94 287.031 233.554 287.071 231.783C287.169 227.268 287.017 221.651 286.87 216.216C286.687 209.574 286.52 203.3 286.89 200.63C287.695 194.786 289.496 163.103 289.969 154.645L291.099 154.695C290.626 163.147 288.818 194.894 288.007 200.778C287.651 203.362 287.82 209.594 287.999 216.189Z" fill="#001030"/>
<path d="M281.282 241.23C281.282 241.23 280.212 239.754 279.333 239.797C278.454 239.841 271.575 244.963 269.246 245.348C266.917 245.732 267.331 247.415 267.737 248.28C268.143 249.144 286.229 248.355 286.229 248.355C286.229 248.355 286.843 243.099 286.29 241.476C285.736 239.852 283.086 241.65 281.282 241.23Z" fill="#E44531"/>
<path d="M277.462 244.825C277.504 244.839 277.548 244.844 277.592 244.84C277.636 244.836 277.678 244.823 277.717 244.803C277.754 244.783 277.787 244.757 277.814 244.724C277.841 244.692 277.861 244.655 277.873 244.615C277.885 244.575 277.89 244.532 277.885 244.491C277.881 244.449 277.868 244.408 277.848 244.372C277.453 243.657 276.886 243.051 276.199 242.61C275.846 242.414 275.446 242.316 275.042 242.326C274.638 242.335 274.244 242.453 273.9 242.665C273.865 242.689 273.836 242.719 273.813 242.754C273.79 242.79 273.775 242.829 273.768 242.87C273.761 242.912 273.762 242.954 273.771 242.995C273.781 243.036 273.798 243.074 273.823 243.108C273.874 243.178 273.949 243.224 274.034 243.238C274.119 243.253 274.205 243.233 274.276 243.184C274.521 243.041 274.799 242.964 275.083 242.962C275.367 242.96 275.647 243.032 275.894 243.172C276.469 243.556 276.943 244.071 277.279 244.675C277.319 244.747 277.384 244.801 277.462 244.825Z" fill="white"/>
<path d="M278.45 243.951C278.492 243.965 278.536 243.969 278.58 243.965C278.623 243.961 278.666 243.949 278.705 243.928C278.742 243.909 278.775 243.882 278.802 243.85C278.829 243.818 278.849 243.78 278.861 243.74C278.874 243.7 278.878 243.658 278.873 243.616C278.869 243.574 278.856 243.534 278.836 243.497C278.441 242.782 277.874 242.177 277.187 241.735C276.833 241.539 276.434 241.441 276.03 241.451C275.626 241.461 275.232 241.578 274.888 241.79C274.853 241.814 274.823 241.844 274.801 241.88C274.778 241.915 274.763 241.954 274.755 241.996C274.748 242.037 274.749 242.079 274.759 242.12C274.768 242.161 274.786 242.2 274.811 242.234C274.861 242.303 274.937 242.35 275.022 242.364C275.106 242.378 275.193 242.359 275.263 242.309C275.509 242.166 275.787 242.09 276.071 242.088C276.355 242.086 276.635 242.158 276.882 242.297C277.457 242.681 277.932 243.196 278.267 243.8C278.307 243.872 278.372 243.926 278.45 243.951Z" fill="white"/>
<path d="M276.133 245.524C276.175 245.538 276.219 245.542 276.263 245.539C276.306 245.535 276.349 245.522 276.387 245.502C276.425 245.482 276.458 245.456 276.485 245.423C276.512 245.391 276.532 245.354 276.544 245.314C276.556 245.274 276.561 245.231 276.556 245.19C276.552 245.148 276.539 245.107 276.519 245.07C276.124 244.355 275.557 243.75 274.87 243.308C274.516 243.112 274.117 243.014 273.713 243.024C273.308 243.034 272.914 243.151 272.57 243.364C272.536 243.387 272.506 243.418 272.484 243.453C272.461 243.488 272.446 243.528 272.439 243.569C272.431 243.611 272.432 243.653 272.442 243.694C272.451 243.735 272.469 243.773 272.493 243.807C272.544 243.876 272.62 243.923 272.705 243.937C272.789 243.951 272.876 243.932 272.947 243.883C273.192 243.739 273.47 243.663 273.754 243.661C274.038 243.659 274.317 243.731 274.565 243.871C275.14 244.254 275.614 244.769 275.95 245.373C275.989 245.445 276.055 245.499 276.133 245.524Z" fill="white"/>
<path d="M305.157 235.894L305.714 241.427L310.331 241.355L310.669 235.482L305.157 235.894Z" fill="#F9AF8B"/>
<path d="M314.662 200.891C314.148 211.041 314.418 224.179 314.641 231.381C314.655 232.079 314.529 232.773 314.27 233.421C314.011 234.069 313.624 234.659 313.134 235.155C312.643 235.651 312.057 236.044 311.411 236.309C310.766 236.575 310.074 236.708 309.376 236.702H305.432C304.591 236.702 303.762 236.505 303.011 236.127C302.14 235.682 301.412 235 300.91 234.161C300.407 233.322 300.149 232.359 300.167 231.381C300.431 222.863 300.803 206.589 299.983 201.627C299.169 196.706 297.769 174.516 297.047 162.527C296.812 158.523 296.647 155.66 296.605 154.953L313.422 155.17C313.473 156.025 313.551 157.34 313.645 159.006C314.184 168.595 315.233 189.713 314.662 200.891Z" fill="#2E3052"/>
<path d="M313.641 159.006C308.172 160.461 302.633 161.636 297.044 162.527C296.808 158.523 296.644 155.66 296.602 154.953L313.419 155.17C313.469 156.024 313.548 157.34 313.641 159.006Z" fill="#001030"/>
<path d="M302.795 231.786C302.834 233.61 302.913 235.023 303.012 236.123C302.575 235.902 302.172 235.621 301.815 235.288C301.747 234.315 301.696 233.166 301.666 231.807C301.568 227.266 301.721 221.634 301.867 216.186C302.046 209.589 302.213 203.359 301.857 200.777C301.046 194.892 299.239 163.128 298.769 154.687L299.896 154.637C300.369 163.083 302.17 194.783 302.978 200.63C303.344 203.301 303.175 209.575 302.996 216.217C302.85 221.653 302.697 227.271 302.795 231.786Z" fill="#001030"/>
<path d="M307.517 240.577C308.504 240.306 309.508 240.104 310.523 239.974C311.173 239.987 315.535 244.764 317.003 245.043C319.667 245.555 319.67 249.628 318.049 249.83C313.362 250.416 305.344 248.476 305.344 248.476C305.344 248.476 304.605 243.248 304.926 241.608C305.247 239.967 306.205 241.059 307.517 240.577Z" fill="#E44531"/>
<path d="M311.395 245.04C311.352 245.049 311.308 245.05 311.265 245.042C311.222 245.034 311.181 245.017 311.145 244.993C311.109 244.97 311.079 244.94 311.055 244.906C311.032 244.871 311.015 244.832 311.007 244.791C310.999 244.75 310.999 244.708 311.007 244.666C311.016 244.625 311.032 244.586 311.056 244.552C311.52 243.877 312.144 243.327 312.871 242.953C313.242 242.791 313.648 242.731 314.05 242.778C314.451 242.825 314.832 242.979 315.155 243.223C315.187 243.25 315.213 243.283 315.232 243.32C315.252 243.357 315.263 243.398 315.266 243.44C315.269 243.482 315.264 243.524 315.25 243.564C315.237 243.604 315.216 243.64 315.188 243.672C315.131 243.736 315.051 243.775 314.965 243.781C314.88 243.787 314.795 243.759 314.73 243.704C314.499 243.538 314.229 243.436 313.946 243.407C313.663 243.378 313.378 243.424 313.119 243.54C312.509 243.869 311.986 244.337 311.592 244.907C311.546 244.974 311.475 245.022 311.395 245.04Z" fill="white"/>
<path d="M310.497 244.076C310.454 244.085 310.41 244.086 310.367 244.078C310.324 244.07 310.283 244.054 310.246 244.03C310.211 244.007 310.181 243.977 310.157 243.942C310.134 243.908 310.117 243.869 310.109 243.828C310.101 243.787 310.101 243.744 310.109 243.703C310.117 243.662 310.134 243.623 310.158 243.588C310.621 242.914 311.245 242.364 311.973 241.989C312.343 241.827 312.75 241.766 313.151 241.814C313.553 241.861 313.934 242.015 314.256 242.259C314.288 242.286 314.315 242.319 314.334 242.357C314.353 242.394 314.364 242.435 314.367 242.476C314.37 242.518 314.365 242.56 314.352 242.6C314.338 242.639 314.317 242.676 314.289 242.707C314.232 242.771 314.152 242.811 314.067 242.817C313.981 242.823 313.897 242.795 313.831 242.74C313.601 242.574 313.331 242.472 313.048 242.443C312.766 242.414 312.481 242.46 312.222 242.576C311.611 242.903 311.088 243.372 310.695 243.943C310.648 244.011 310.578 244.059 310.497 244.076Z" fill="white"/>
<path d="M312.649 245.86C312.606 245.869 312.562 245.869 312.519 245.861C312.476 245.853 312.435 245.837 312.398 245.813C312.363 245.79 312.333 245.761 312.309 245.726C312.285 245.691 312.269 245.652 312.261 245.611C312.252 245.57 312.253 245.527 312.261 245.486C312.269 245.445 312.286 245.406 312.31 245.371C312.773 244.697 313.397 244.147 314.125 243.772C314.495 243.61 314.902 243.55 315.303 243.597C315.705 243.645 316.086 243.798 316.408 244.042C316.44 244.069 316.467 244.102 316.486 244.14C316.505 244.177 316.516 244.218 316.519 244.26C316.522 244.302 316.517 244.344 316.504 244.384C316.49 244.423 316.469 244.46 316.441 244.491C316.384 244.555 316.304 244.594 316.219 244.6C316.133 244.606 316.049 244.579 315.983 244.524C315.752 244.358 315.482 244.255 315.2 244.226C314.917 244.198 314.632 244.243 314.372 244.359C313.762 244.687 313.239 245.156 312.845 245.726C312.799 245.794 312.729 245.842 312.649 245.86Z" fill="white"/>
<path d="M317.239 156.611C302.298 160.361 286.661 160.361 271.72 156.611C271.641 151.063 271.561 128.88 271.999 110.671C272.005 110.313 272.015 109.956 272.024 109.601C272.027 109.425 272.033 109.249 272.038 109.077V109.048C272.044 108.821 272.049 108.597 272.057 108.373C272.38 96.3648 272.947 86.5589 273.915 85.2493C276.175 82.205 287.544 77.3418 290.688 75.1709C290.95 75.5845 292.497 77.8805 294.524 78.0503C296.75 78.2433 298.728 75.6773 298.728 75.6773V75.1887C301.886 77.3589 312.184 81.8587 314.442 84.8944C316.913 88.2239 317.34 147.158 317.239 156.611Z" fill="#F65B3C"/>
<path d="M276.626 102.122C275.321 103.85 273.417 107.764 272.562 109.574C272.445 109.822 272.348 110.031 272.275 110.189C272.178 110.397 272.124 110.517 272.12 110.526C272.094 110.586 272.051 110.636 271.997 110.672C272.004 110.314 272.013 109.958 272.023 109.603C272.026 109.427 272.032 109.251 272.037 109.079V109.05C272.212 108.684 272.42 108.248 272.652 107.773C273.629 105.669 274.769 103.643 276.061 101.715C276.118 101.642 276.201 101.593 276.293 101.579C276.384 101.566 276.478 101.589 276.553 101.643C276.59 101.669 276.621 101.703 276.644 101.741C276.668 101.78 276.683 101.823 276.69 101.867C276.697 101.912 276.695 101.957 276.684 102.001C276.673 102.045 276.653 102.086 276.626 102.122Z" fill="white"/>
<path d="M305.712 88.7223H305.7C300.825 88.5329 296.115 86.9047 292.164 84.0429C290.374 82.798 288.764 81.3117 287.381 79.6262C287.354 79.59 287.334 79.5487 287.323 79.5046C287.311 79.4606 287.309 79.4148 287.316 79.3699C287.323 79.325 287.338 79.2819 287.362 79.2431C287.386 79.2044 287.417 79.1708 287.454 79.1443C287.529 79.0895 287.622 79.0661 287.714 79.0793C287.806 79.0924 287.889 79.1409 287.946 79.2145C288.01 79.2994 294.523 87.684 305.72 88.0327C305.812 88.0342 305.899 88.0719 305.962 88.1375C306.026 88.2032 306.061 88.2914 306.059 88.3827C306.058 88.4741 306.02 88.5611 305.954 88.6247C305.889 88.6883 305.801 88.7232 305.709 88.7217L305.712 88.7223Z" fill="white"/>
<path d="M285.378 145.035C285.288 145.036 285.202 145.001 285.137 144.939C285.072 144.877 285.034 144.792 285.031 144.702C285.028 144.612 285.061 144.525 285.121 144.459C285.182 144.392 285.266 144.352 285.355 144.347C295.258 143.711 301.165 138.794 304.376 134.782C306.459 132.206 308.041 129.263 309.038 126.104C309.063 126.016 309.122 125.941 309.202 125.895C309.282 125.849 309.377 125.837 309.466 125.86C309.51 125.871 309.552 125.89 309.589 125.917C309.625 125.944 309.656 125.978 309.68 126.017C309.703 126.056 309.719 126.1 309.726 126.145C309.732 126.19 309.73 126.236 309.719 126.28C308.711 129.526 307.091 132.55 304.947 135.187C301.649 139.32 295.575 144.384 285.402 145.038L285.378 145.035Z" fill="white"/>
<path d="M290.695 138.875C290.618 138.875 290.544 138.85 290.482 138.804C290.421 138.758 290.377 138.693 290.356 138.619C290.344 138.575 290.341 138.529 290.347 138.484C290.353 138.439 290.368 138.395 290.391 138.356C290.414 138.317 290.445 138.282 290.481 138.255C290.518 138.228 290.559 138.208 290.603 138.197C299.209 135.917 300.87 128.876 300.886 128.805C300.906 128.715 300.962 128.637 301.04 128.588C301.118 128.538 301.213 128.522 301.303 128.542C301.348 128.55 301.391 128.568 301.429 128.594C301.466 128.619 301.499 128.652 301.524 128.69C301.549 128.728 301.566 128.77 301.575 128.815C301.583 128.86 301.583 128.906 301.573 128.951C301.174 130.417 300.505 131.795 299.599 133.014C297.445 135.943 294.323 138.015 290.787 138.862C290.757 138.87 290.726 138.874 290.695 138.875Z" fill="white"/>
<path d="M328.382 156.002C328.166 159.019 326.317 161.259 326.306 163.246C326.294 165.232 323.955 163.934 325.039 160.009C326.123 156.083 324.515 152.289 323.657 152.323C322.799 152.358 323.93 156.746 323.028 158.203C322.126 159.66 321.445 156.6 320.654 154.709C319.833 152.744 320.293 148.67 321.037 145.801C321.781 142.931 318.13 124.734 318.608 119.608L317.29 112.956L316.52 109.074L316.376 105.024L323.412 102.293C323.677 103.593 323.948 104.942 324.217 106.297C324.336 106.894 324.452 107.494 324.567 108.091C325.509 112.941 326.354 117.716 326.699 120.779C327.649 129.253 326.088 146.534 326.088 146.534C326.088 146.534 328.586 153.172 328.382 156.002Z" fill="#F9AF8B"/>
<path d="M324.572 108.092C322.984 109.869 320.45 112.13 317.295 112.956L316.525 109.075L316.381 105.025L323.416 102.293C323.682 103.594 323.953 104.942 324.222 106.297C324.339 106.893 324.455 107.494 324.572 108.092Z" fill="#FC8664"/>
<path d="M326.524 104.252C325.829 105.011 325.056 105.697 324.219 106.297C322.009 108.001 319.321 108.973 316.531 109.075C316.142 97.849 315.568 88.3632 314.734 85.5785C316.22 87.3737 323.349 96.2139 326.524 104.252Z" fill="#AF412B"/>
<path d="M311.702 100.996C313.006 102.723 314.911 106.637 315.766 108.448C315.883 108.696 315.979 108.904 316.053 109.063C316.15 109.269 316.204 109.39 316.208 109.399C316.236 109.461 316.282 109.513 316.339 109.549C316.396 109.586 316.463 109.605 316.531 109.604H316.538C316.534 109.428 316.528 109.252 316.523 109.078C316.627 109.078 316.731 109.078 316.828 109.075C316.781 108.973 316.666 108.725 316.503 108.375C316.297 107.936 316.014 107.333 315.676 106.646C314.699 104.541 313.559 102.516 312.267 100.589C312.21 100.515 312.127 100.465 312.035 100.452C311.943 100.438 311.85 100.461 311.774 100.516C311.738 100.542 311.707 100.576 311.683 100.615C311.66 100.653 311.644 100.696 311.638 100.741C311.631 100.785 311.633 100.831 311.644 100.875C311.655 100.919 311.675 100.96 311.702 100.996Z" fill="white"/>
<path d="M305.343 57.1405C305.343 63.2217 301.521 67.4118 295.314 67.4118C289.107 67.4118 284.782 62.9071 284.782 56.8259C284.782 50.7447 288.457 46.1368 294.664 46.1368C302.108 46.138 305.343 51.0605 305.343 57.1405Z" fill="#2E3052"/>
<path d="M303.948 59.759C303.948 59.759 305.672 57.5064 306.954 59.3687C308.236 61.2311 306.424 66.7351 303.284 65.3913L303.948 59.759Z" fill="#FC8664"/>
<path d="M303.97 63.6902C304.028 63.6906 304.083 63.6723 304.129 63.6382C304.176 63.604 304.209 63.5558 304.226 63.5008C304.419 62.9625 304.724 62.471 305.12 62.0585C305.517 61.6461 305.996 61.3219 306.526 61.1071C306.558 61.0954 306.588 61.0774 306.613 61.0541C306.638 61.0309 306.659 61.0028 306.673 60.9716C306.687 60.9404 306.695 60.9067 306.696 60.8724C306.698 60.8381 306.692 60.8039 306.68 60.7718C306.654 60.7071 306.603 60.6551 306.54 60.6269C306.476 60.5987 306.404 60.5966 306.338 60.6209C305.728 60.8605 305.178 61.2296 304.724 61.7026C304.271 62.1757 303.925 62.7415 303.712 63.361C303.703 63.3941 303.7 63.4286 303.704 63.4627C303.709 63.4968 303.72 63.5296 303.737 63.5595C303.754 63.5893 303.776 63.6154 303.804 63.6364C303.831 63.6573 303.862 63.6727 303.895 63.6816C303.92 63.6878 303.945 63.6907 303.97 63.6902Z" fill="#FD664D"/>
<path d="M305.783 62.8363C305.834 62.8363 305.884 62.8222 305.927 62.7954C305.956 62.7772 305.981 62.7534 306.001 62.7255C306.021 62.6975 306.035 62.6659 306.042 62.6324C306.05 62.599 306.05 62.5644 306.044 62.5307C306.038 62.497 306.025 62.4649 306.007 62.4362C305.75 62.0901 305.407 61.8187 305.01 61.6501C304.946 61.6218 304.874 61.6197 304.808 61.6442C304.743 61.6688 304.689 61.718 304.66 61.7814C304.646 61.8127 304.638 61.8465 304.637 61.8809C304.636 61.9152 304.642 61.9493 304.655 61.9813C304.667 62.0133 304.686 62.0425 304.71 62.0671C304.734 62.0917 304.763 62.1113 304.794 62.1247C305.097 62.253 305.361 62.4576 305.561 62.7184C305.585 62.7549 305.618 62.7848 305.657 62.8053C305.696 62.8259 305.739 62.8365 305.783 62.8363Z" fill="#FD664D"/>
<path d="M286.177 59.759C286.177 59.759 284.453 57.5064 283.171 59.3687C281.889 61.2311 283.701 66.7332 286.841 65.3901L286.177 59.759Z" fill="#FC8664"/>
<path d="M286.154 63.6902C286.097 63.6907 286.041 63.6724 285.995 63.6383C285.949 63.6041 285.915 63.5559 285.899 63.5008C285.705 62.9624 285.4 62.4708 285.004 62.0583C284.607 61.6458 284.128 61.3217 283.598 61.1071C283.566 61.0953 283.536 61.0773 283.511 61.054C283.486 61.0307 283.465 61.0027 283.451 60.9715C283.437 60.9403 283.429 60.9066 283.428 60.8723C283.427 60.838 283.432 60.8038 283.445 60.7718C283.471 60.7071 283.521 60.6551 283.585 60.6269C283.648 60.5987 283.721 60.5966 283.786 60.6209C284.395 60.8604 284.945 61.2291 285.398 61.7017C285.851 62.1742 286.196 62.7392 286.409 63.3579C286.419 63.391 286.421 63.4256 286.417 63.4597C286.413 63.4939 286.402 63.5268 286.385 63.5567C286.368 63.5865 286.345 63.6127 286.318 63.6336C286.291 63.6545 286.259 63.6698 286.226 63.6786C286.203 63.6855 286.179 63.6894 286.154 63.6902Z" fill="#FD664D"/>
<path d="M284.341 62.8363C284.291 62.8364 284.241 62.8222 284.198 62.7954C284.169 62.7773 284.143 62.7536 284.123 62.7257C284.104 62.6977 284.09 62.666 284.082 62.6326C284.075 62.5991 284.074 62.5644 284.08 62.5307C284.087 62.497 284.099 62.4649 284.118 62.4362C284.374 62.0899 284.718 61.8184 285.115 61.6501C285.178 61.6216 285.251 61.6195 285.316 61.644C285.382 61.6686 285.435 61.7179 285.465 61.7814C285.479 61.8126 285.487 61.8464 285.488 61.8807C285.489 61.915 285.483 61.9491 285.47 61.9811C285.458 62.0131 285.439 62.0423 285.415 62.0669C285.391 62.0916 285.363 62.1112 285.331 62.1247C285.029 62.253 284.765 62.4576 284.565 62.7184C284.54 62.755 284.507 62.7849 284.468 62.8055C284.429 62.826 284.385 62.8366 284.341 62.8363Z" fill="#FD664D"/>
<path d="M290.818 70.0573V75.5283C290.818 75.5283 292.483 78.3142 294.735 78.5041C296.987 78.6941 298.984 76.1049 298.984 76.1049V70.4421L290.818 70.0573Z" fill="#F9AF8B"/>
<path d="M290.818 70.0573V72.4846C292.329 74.1277 295.012 74.5375 298.984 73.9634V70.4421L290.818 70.0573Z" fill="#FC8664"/>
<path d="M304.87 59.585C304.787 60.7938 304.636 61.997 304.417 63.1887C303.669 67.22 301.982 71.1903 298.347 72.4602C290.12 75.3389 287.178 68.4246 286.003 64.3945C285.874 63.9473 285.759 63.4495 285.655 62.9175C285.469 61.9567 285.323 60.8854 285.21 59.8061C285.075 58.4971 284.986 57.1729 284.931 56.0081C284.878 54.8025 285.211 53.6115 285.88 52.6071C286.548 51.6027 287.519 50.8369 288.652 50.4204C292.025 49.1499 297.151 48.1463 302.008 50.8443C302.885 51.3232 303.619 52.0244 304.139 52.8773C304.658 53.7302 304.944 54.7049 304.968 55.7033C304.988 56.799 304.973 58.1398 304.87 59.585Z" fill="#F9AF8B"/>
<path d="M303.85 59.8048C303.574 60.3008 302.033 64.9613 301.603 65.6142C300.631 63.5173 295.937 65.0407 295.937 65.0407C295.355 65.2272 294.729 65.23 294.145 65.0486L294.122 65.0407C294.122 65.0407 289.372 63.5821 288.437 65.7792C288.002 65.1286 286.665 60.5561 286.413 59.8048H285.211C285.325 60.8841 285.469 61.9555 285.656 62.9163C285.759 63.4483 285.874 63.9461 286.004 64.3932C287.178 68.4246 290.121 75.3377 298.348 72.459C301.983 71.186 303.669 67.22 304.417 63.1875C304.636 61.9958 304.788 60.7926 304.871 59.5837L303.85 59.8048ZM299.426 68.3281H299.423C299.093 68.6491 298.722 68.9251 298.32 69.149C296.235 70.2545 296.008 70.0866 295.186 70.1226C294.075 70.125 292.983 69.8338 292.021 69.2785C291.482 68.9574 290.977 68.581 290.516 68.1552C290.516 68.1552 289.67 65.3229 295.041 66.0326C300.424 65.1286 299.516 67.7753 299.426 68.3281H299.426Z" fill="#2E3052"/>
<path d="M298.591 60.4731C298.591 61.0576 298.896 61.531 299.277 61.531C299.657 61.531 299.963 61.0576 299.963 60.4731C299.963 59.8885 299.657 59.4151 299.277 59.4151C298.896 59.4151 298.591 59.8885 298.591 60.4731Z" fill="#2E3052"/>
<path d="M290.502 60.4517C290.502 61.035 290.808 61.5096 291.188 61.5096C291.569 61.5096 291.876 61.0356 291.876 60.4517C291.876 59.8678 291.57 59.3938 291.188 59.3938C290.807 59.3938 290.502 59.869 290.502 60.4517Z" fill="#2E3052"/>
<path d="M301.999 57.4862C301.999 57.4862 299.37 56.4686 297.346 57.325L297.548 58.4281C297.548 58.4281 300.519 58.1838 302.016 58.7756C302.163 58.3573 302.157 57.9006 301.999 57.4862Z" fill="#2E3052"/>
<path d="M288.924 57.4862C288.924 57.4862 291.55 56.4686 293.577 57.325L293.375 58.4281C293.375 58.4281 290.404 58.1838 288.906 58.7756C288.76 58.3573 288.766 57.9005 288.924 57.4862Z" fill="#2E3052"/>
<path d="M294.971 64.5661C294.642 64.5556 294.318 64.4887 294.012 64.3682C293.98 64.3558 293.95 64.3372 293.926 64.3134C293.901 64.2896 293.881 64.2611 293.868 64.2296C293.854 64.1981 293.847 64.1642 293.847 64.1299C293.846 64.0956 293.853 64.0616 293.866 64.0298C293.893 63.9655 293.945 63.9146 294.01 63.888C294.074 63.8614 294.147 63.8612 294.212 63.8875C294.545 64.0392 294.92 64.0741 295.276 63.9864C295.317 63.9604 295.35 63.9242 295.373 63.8814C295.396 63.8386 295.407 63.7906 295.406 63.7421C295.422 62.4132 295.368 61.0843 295.246 59.7609C295.24 59.6907 295.263 59.6212 295.309 59.5677C295.354 59.5141 295.419 59.4809 295.489 59.4753C295.56 59.4697 295.629 59.4922 295.683 59.5379C295.736 59.5835 295.769 59.6486 295.775 59.7187C295.902 61.0737 295.955 62.4345 295.934 63.7953C295.927 63.9244 295.888 64.0498 295.82 64.1604C295.753 64.271 295.66 64.3635 295.549 64.4299C295.372 64.5258 295.172 64.5728 294.971 64.5661Z" fill="#FC8664"/>
<path d="M298.594 66.4694C298.377 67.5377 297.656 69.5045 295.229 69.5045C292.802 69.5045 292.114 67.7075 291.879 66.4694H298.594Z" fill="white"/>
<path d="M285.21 59.8055H286.413C286.281 58.6229 286.089 56.5401 287.081 56.2414C290.214 55.2983 286.154 53.1263 287.569 52.0482C288.985 50.9701 292.503 51.4282 294.951 51.3506C297.414 51.2731 301.372 51.3067 302.333 51.5247C303.293 51.7428 302.768 53.3071 302.415 54.5214C302.063 55.7356 303.595 57.0739 303.853 58.3291C303.92 58.8189 303.92 59.3157 303.853 59.8055H304.855C304.974 58.2784 304.993 56.8546 304.97 55.702C304.947 54.7035 304.661 53.7287 304.142 52.8755C303.623 52.0223 302.888 51.3207 302.012 50.8412C297.154 48.1433 292.029 49.1493 288.655 50.4204C287.523 50.8367 286.552 51.6021 285.883 52.6059C285.214 53.6098 284.881 54.8003 284.933 56.0056C284.987 57.1704 285.074 58.4959 285.21 59.8055Z" fill="#2E3052"/>
<path d="M108.922 192.947H47.8931C48.9015 186.824 53.7568 182.376 59.4184 182.395L78.4072 182.45L97.396 182.395C103.057 182.376 107.913 186.824 108.922 192.947Z" fill="white"/>
<path d="M56.0187 192.071H52.6934V248.971H56.0187V192.071Z" fill="white"/>
<path d="M104.122 192.071H100.796V248.971H104.122V192.071Z" fill="white"/>
<path d="M100.796 208.014H56.0186V211.221H100.796V208.014Z" fill="#DCEDF9"/>
<path d="M63.4663 116.347C63.4663 116.347 53.2743 129.94 51.9171 141.794C50.9594 150.167 63.4663 162.678 63.4663 162.678L67.7743 160.534L63.4797 150.851C61.9527 146.136 60.0708 144.272 61.461 139.513L64.5706 132.807L63.4663 116.347Z" fill="#AF412B"/>
<path d="M95.5844 116.145C95.5844 116.145 105.644 130.639 106.478 142.542C107.196 152.803 94.8807 162.681 94.8807 162.681L91.324 160.91L96.2502 151.126C97.7772 146.411 98.5041 143.567 96.4212 138.435L93.777 132.809L95.5844 116.145Z" fill="#AF412B"/>
<path d="M65.5418 147.306L58.7856 168.799C58.7856 168.799 88.036 172.529 96.9819 170.116L92.4381 146.708L95.5844 116.145C91.2127 114.28 86.5654 113.143 81.8265 112.779C74.9091 112.279 70.5394 113.42 63.4657 116.35L65.5418 147.306Z" fill="#F65B3C"/>
<path d="M72.8538 122.83C79.307 122.073 85.3112 117.638 85.5836 117.438C85.6229 117.41 85.6562 117.375 85.6816 117.334C85.707 117.293 85.724 117.247 85.7315 117.2C85.739 117.152 85.7369 117.104 85.7254 117.057C85.7138 117.01 85.693 116.966 85.6642 116.928C85.6354 116.889 85.5992 116.857 85.5577 116.833C85.5162 116.808 85.4702 116.792 85.4225 116.786C85.3748 116.78 85.3263 116.783 85.28 116.796C85.2336 116.809 85.1902 116.831 85.1524 116.86C85.0816 116.913 78.017 122.125 71.2223 122.217C71.175 122.218 71.1283 122.228 71.0848 122.246C71.0413 122.265 71.0019 122.292 70.9688 122.326C70.9021 122.394 70.8653 122.487 70.8665 122.582C70.8677 122.678 70.9069 122.769 70.9753 122.836C71.0438 122.902 71.1359 122.939 71.2315 122.938C71.7737 122.929 72.3152 122.893 72.8538 122.83Z" fill="white"/>
<path d="M78.0542 237.977L78.5813 242.722L83.629 242.838L84.0517 238.9L78.0542 237.977Z" fill="#F9AF8B"/>
<path d="M77.262 162.74C77.262 162.74 64.1907 162.022 59.7654 165.645C55.3401 169.268 56.2288 179.659 60.7414 182.496C65.2541 185.333 72.9387 190.91 72.9387 190.91L77.8288 239.524L84.2905 239.744C84.2905 239.744 90.2441 190.91 87.2224 181.452C84.2008 171.994 77.262 162.74 77.262 162.74Z" fill="#001030"/>
<path d="M84.8836 237.332C85.1808 238.432 85.1224 239.597 84.7169 240.662L77.2821 240.497C77.0251 239.429 76.9762 238.322 77.138 237.235L84.8836 237.332Z" fill="#2E3052"/>
<path d="M95.7573 162.372H61.4573L58.2903 143.835C58.2256 143.458 58.2441 143.071 58.3445 142.702C58.4449 142.332 58.6248 141.99 58.8716 141.697C59.1184 141.405 59.4262 141.17 59.7733 141.008C60.1205 140.847 60.4986 140.764 60.8813 140.764H96.3345C96.7172 140.764 97.0953 140.847 97.4425 141.008C97.7896 141.17 98.0973 141.405 98.3441 141.697C98.591 141.99 98.7709 142.332 98.8713 142.702C98.9717 143.071 98.9902 143.458 98.9255 143.835L95.7573 162.372Z" fill="white"/>
<path d="M61.4597 162.372H95.7914V164.191C95.7915 164.481 95.7344 164.769 95.6233 165.037C95.5122 165.306 95.3492 165.55 95.1439 165.755C94.9385 165.961 94.6946 166.124 94.4262 166.235C94.1579 166.346 93.8702 166.403 93.5797 166.403H63.6715C63.381 166.403 63.0933 166.346 62.8249 166.235C62.5566 166.124 62.3127 165.961 62.1073 165.755C61.9019 165.55 61.739 165.306 61.6279 165.037C61.5168 164.769 61.4597 164.481 61.4597 164.191V162.372Z" fill="#DCEDF9"/>
<path d="M81.6641 152.333C81.6641 152.922 81.4894 153.498 81.162 153.988C80.8347 154.478 80.3695 154.86 79.8251 155.085C79.2808 155.311 78.6819 155.37 78.104 155.255C77.5261 155.14 76.9954 154.856 76.5787 154.44C76.1621 154.023 75.8784 153.492 75.7635 152.914C75.6485 152.336 75.7075 151.737 75.933 151.193C76.1585 150.649 76.5403 150.184 77.0302 149.856C77.52 149.529 78.096 149.354 78.6852 149.354C79.4752 149.354 80.2329 149.668 80.7916 150.227C81.3502 150.785 81.6641 151.543 81.6641 152.333Z" fill="#DCEDF9"/>
<path d="M56.6167 224.631L55.4983 229.327L60.0274 230.222L61.8727 226.029L56.6167 224.631Z" fill="#F9AF8B"/>
<path d="M83.9027 161.934C83.9027 161.934 75.1498 158.916 70.0184 165.255C64.887 171.593 56.2948 225.1 56.2948 225.1L62.1854 227.532L81.1205 180.011C81.1205 180.011 96.5403 188.81 98.4063 176.301C99.8857 166.403 83.9027 161.934 83.9027 161.934Z" fill="#2E3052"/>
<path d="M63.5194 225.078C63.4561 226.252 63.0229 227.377 62.2819 228.29L55.042 225.73C55.1338 224.6 55.4426 223.498 55.9515 222.484L63.5194 225.078Z" fill="#524E84"/>
<path d="M58.9536 228.555C57.8073 227.954 56.62 227.436 55.4005 227.003C54.5924 226.843 47.9187 231.578 46.0283 231.532C42.5992 231.447 41.5016 236.482 43.4501 237.167C49.0872 239.149 59.5192 238.903 59.5192 238.903C59.5192 238.903 61.836 232.641 61.8788 230.526C61.9215 228.412 60.444 229.502 58.9536 228.555Z" fill="#F65B3C"/>
<path d="M52.9585 233.028C53.009 233.051 53.0636 233.064 53.1191 233.066C53.1746 233.067 53.2298 233.058 53.2816 233.038C53.3313 233.019 53.3767 232.991 53.4152 232.954C53.4537 232.918 53.4846 232.874 53.5058 232.825C53.5271 232.777 53.5385 232.724 53.5392 232.671C53.5399 232.618 53.53 232.566 53.5101 232.516C53.1172 231.558 52.4929 230.711 51.6929 230.052C51.2787 229.753 50.7922 229.569 50.2835 229.52C49.7747 229.471 49.2621 229.559 48.7983 229.773C48.7512 229.798 48.7095 229.832 48.6758 229.873C48.642 229.914 48.6168 229.961 48.6017 230.012C48.5866 230.063 48.5819 230.116 48.5879 230.169C48.5938 230.222 48.6104 230.273 48.6364 230.319C48.6897 230.414 48.7779 230.484 48.8822 230.514C48.9864 230.545 49.0984 230.533 49.1941 230.482C49.5235 230.339 49.8847 230.285 50.2414 230.325C50.5982 230.366 50.9382 230.499 51.2275 230.711C51.8921 231.281 52.4124 232 52.746 232.81C52.7861 232.907 52.8622 232.985 52.9585 233.028Z" fill="white"/>
<path d="M54.3267 232.079C54.3773 232.102 54.4319 232.114 54.4874 232.116C54.5428 232.117 54.598 232.108 54.6498 232.088C54.6995 232.07 54.7449 232.041 54.7834 232.005C54.8219 231.968 54.8527 231.924 54.874 231.876C54.8953 231.827 54.9067 231.775 54.9074 231.722C54.9081 231.669 54.8982 231.616 54.8783 231.567C54.4862 230.608 53.8627 229.762 53.0636 229.103C52.6495 228.803 52.163 228.619 51.6542 228.57C51.1454 228.521 50.6327 228.608 50.169 228.823C50.1219 228.848 50.0802 228.882 50.0464 228.923C50.0126 228.964 49.9875 229.011 49.9724 229.062C49.9573 229.113 49.9526 229.167 49.9585 229.219C49.9645 229.272 49.981 229.323 50.0071 229.37C50.0604 229.464 50.1486 229.534 50.2528 229.564C50.357 229.595 50.469 229.583 50.5648 229.532C50.8942 229.389 51.2553 229.335 51.6121 229.376C51.9689 229.416 52.3088 229.549 52.5981 229.762C53.2634 230.331 53.7839 231.05 54.1166 231.86C54.1559 231.957 54.2312 232.036 54.3267 232.079Z" fill="white"/>
<path d="M51.189 233.705C51.2395 233.728 51.2941 233.741 51.3496 233.742C51.4051 233.744 51.4603 233.735 51.5121 233.715C51.5618 233.696 51.6072 233.667 51.6456 233.631C51.684 233.594 51.7147 233.55 51.7359 233.501C51.7571 233.453 51.7683 233.4 51.7689 233.347C51.7695 233.294 51.7594 233.241 51.7393 233.192C51.3473 232.233 50.7241 231.387 49.9252 230.728C49.5109 230.428 49.0242 230.244 48.5152 230.195C48.0062 230.146 47.4933 230.234 47.0294 230.449C46.9824 230.474 46.9409 230.507 46.9072 230.548C46.8735 230.589 46.8484 230.637 46.8334 230.688C46.8184 230.739 46.8137 230.792 46.8197 230.845C46.8256 230.898 46.8421 230.949 46.8681 230.995C46.9215 231.089 47.0097 231.159 47.1139 231.19C47.2181 231.22 47.33 231.208 47.4258 231.157C47.7552 231.015 48.1164 230.961 48.4732 231.001C48.8299 231.041 49.1699 231.174 49.4592 231.387C50.1247 231.956 50.645 232.675 50.9771 233.485C51.0168 233.583 51.0927 233.662 51.189 233.705Z" fill="white"/>
<path d="M80.528 242.524C81.7047 242.151 82.9063 241.86 84.1238 241.656C84.9093 241.641 90.3913 247.195 92.1743 247.465C95.4115 247.954 95.6039 252.866 93.6597 253.187C88.0366 254.112 78.2796 252.148 78.2796 252.148C78.2796 252.148 77.1435 245.881 77.4532 243.889C77.7628 241.897 78.9722 243.167 80.528 242.524Z" fill="#F65B3C"/>
<path d="M85.4175 247.721C85.3662 247.734 85.3128 247.737 85.2604 247.729C85.2079 247.722 85.1575 247.704 85.1121 247.677C85.0686 247.651 85.0308 247.616 85.0008 247.576C84.9707 247.535 84.9492 247.488 84.9374 247.439C84.9255 247.39 84.9236 247.339 84.9318 247.289C84.94 247.239 84.9581 247.191 84.985 247.148C85.5121 246.312 86.238 245.62 87.0978 245.133C87.5365 244.92 88.024 244.828 88.51 244.866C88.996 244.905 89.463 245.072 89.8629 245.351C89.9029 245.382 89.9363 245.42 89.9611 245.464C89.9859 245.509 90.0017 245.557 90.0073 245.607C90.013 245.658 90.0086 245.709 89.9943 245.757C89.98 245.806 89.9561 245.851 89.924 245.89C89.8582 245.97 89.7641 246.02 89.6615 246.032C89.5589 246.043 89.4559 246.014 89.3743 245.951C89.0887 245.762 88.7582 245.651 88.4161 245.629C88.074 245.608 87.7323 245.677 87.4252 245.829C86.7067 246.254 86.0987 246.843 85.6508 247.548C85.5984 247.633 85.5147 247.695 85.4175 247.721Z" fill="white"/>
<path d="M84.2899 246.602C84.2387 246.616 84.1852 246.619 84.1328 246.611C84.0804 246.603 84.03 246.586 83.9845 246.558C83.9409 246.533 83.9029 246.498 83.8727 246.458C83.8425 246.417 83.8208 246.37 83.8089 246.321C83.7969 246.272 83.7949 246.221 83.8031 246.171C83.8112 246.121 83.8293 246.073 83.8563 246.03C84.3831 245.194 85.109 244.501 85.9691 244.014C86.4078 243.801 86.8955 243.709 87.3816 243.748C87.8678 243.786 88.3349 243.954 88.7348 244.233C88.7748 244.264 88.8081 244.302 88.8329 244.347C88.8577 244.391 88.8734 244.439 88.8791 244.489C88.8848 244.54 88.8804 244.59 88.8661 244.639C88.8518 244.687 88.8279 244.733 88.7959 244.772C88.7302 244.851 88.636 244.902 88.5334 244.914C88.4308 244.925 88.3277 244.896 88.2461 244.833C87.9605 244.643 87.6301 244.532 87.288 244.511C86.9458 244.489 86.6041 244.558 86.2971 244.711C85.5785 245.135 84.9713 245.724 84.5257 246.429C84.4727 246.515 84.3881 246.577 84.2899 246.602Z" fill="white"/>
<path d="M86.9671 248.651C86.9158 248.664 86.8624 248.667 86.81 248.659C86.7575 248.651 86.7072 248.634 86.6617 248.606C86.6182 248.58 86.5804 248.546 86.5504 248.505C86.5204 248.464 86.4988 248.418 86.487 248.369C86.4751 248.32 86.4733 248.269 86.4815 248.219C86.4896 248.169 86.5077 248.121 86.5347 248.078C87.0622 247.242 87.7885 246.549 88.6487 246.062C89.0872 245.849 89.5748 245.757 90.0609 245.795C90.547 245.834 91.0141 246.001 91.4138 246.28C91.4538 246.311 91.4872 246.35 91.5119 246.394C91.5367 246.438 91.5525 246.487 91.5581 246.537C91.5638 246.587 91.5594 246.638 91.5451 246.686C91.5308 246.735 91.5069 246.78 91.4749 246.819C91.4092 246.899 91.315 246.95 91.2124 246.961C91.1098 246.973 91.0067 246.943 90.9252 246.88C90.6394 246.691 90.309 246.58 89.9669 246.559C89.6249 246.537 89.2832 246.606 88.9761 246.758C88.2574 247.182 87.6502 247.772 87.2047 248.477C87.1509 248.564 87.0658 248.626 86.9671 248.651Z" fill="white"/>
<path d="M88.1582 85.6946C88.1582 85.6946 92.3178 92.138 91.8615 98.8483C91.4052 105.559 92.4723 113.305 86.4699 112.965C80.4675 112.626 69.7545 115.373 66.3499 110.146C62.9452 104.919 88.1582 85.6946 88.1582 85.6946Z" fill="#2E3052"/>
<path d="M89.7005 97.5418C89.7005 97.5418 90.7798 107.269 86.1645 109.947C81.5492 112.626 78.2081 109.636 78.2081 109.636C78.2081 109.636 87.9371 96.0771 89.7005 97.5418Z" fill="#000B29"/>
<path d="M70.5266 97.496C70.5266 97.496 68.8689 95.2867 67.6375 97.1136C66.4061 98.9406 68.1469 104.338 71.1643 103.021L70.5266 97.496Z" fill="#FC8664"/>
<path d="M70.5052 101.353C70.4501 101.353 70.3966 101.335 70.3525 101.302C70.3085 101.269 70.2763 101.222 70.2609 101.169C70.0787 100.644 69.7876 100.163 69.4065 99.7584C69.0254 99.3535 68.5631 99.0338 68.0498 98.8202C68.0185 98.8082 67.9899 98.7901 67.9656 98.767C67.9413 98.7439 67.9218 98.7163 67.9081 98.6857C67.8945 98.655 67.8871 98.622 67.8862 98.5885C67.8854 98.555 67.8911 98.5217 67.9032 98.4904C67.9152 98.4591 67.9333 98.4305 67.9564 98.4062C67.9794 98.3819 68.0071 98.3624 68.0377 98.3488C68.0684 98.3352 68.1014 98.3277 68.1349 98.3269C68.1684 98.326 68.2017 98.3318 68.233 98.3438C68.8229 98.5823 69.354 98.9461 69.7894 99.4102C70.2248 99.8742 70.554 100.427 70.7544 101.031C70.7727 101.096 70.7643 101.166 70.7312 101.225C70.6981 101.284 70.643 101.328 70.5779 101.346C70.5541 101.351 70.5296 101.354 70.5052 101.353Z" fill="#FD664D"/>
<path d="M68.7626 100.513C68.7137 100.513 68.6658 100.499 68.6245 100.472C68.5679 100.436 68.528 100.378 68.5137 100.312C68.4994 100.246 68.5118 100.177 68.5482 100.12C68.7926 99.7817 69.1233 99.5153 69.5059 99.3486C69.5365 99.3349 69.5694 99.3274 69.6029 99.3264C69.6364 99.3255 69.6697 99.3312 69.701 99.3431C69.7323 99.355 69.7609 99.373 69.7852 99.396C69.8096 99.419 69.8291 99.4466 69.8428 99.4772C69.8565 99.5077 69.864 99.5407 69.8649 99.5741C69.8659 99.6076 69.8602 99.6409 69.8483 99.6722C69.8363 99.7035 69.8183 99.7321 69.7953 99.7564C69.7723 99.7808 69.7448 99.8003 69.7142 99.814C69.4222 99.941 69.1682 100.142 68.977 100.396C68.9539 100.432 68.9222 100.462 68.8847 100.482C68.8473 100.502 68.8052 100.513 68.7626 100.513Z" fill="#FD664D"/>
<path d="M87.6066 97.496C87.6066 97.496 89.2644 95.2867 90.497 97.1136C91.7296 98.9406 89.9863 104.338 86.9696 103.021L87.6066 97.496Z" fill="#FC8664"/>
<path d="M87.628 101.353C87.6831 101.353 87.7366 101.335 87.7807 101.302C87.8247 101.269 87.8569 101.222 87.8723 101.169C88.0546 100.644 88.3458 100.163 88.727 99.7583C89.1082 99.3534 89.5706 99.0338 90.0841 98.8202C90.1472 98.7959 90.1982 98.7475 90.2257 98.6857C90.2532 98.6238 90.255 98.5536 90.2307 98.4904C90.2064 98.4272 90.158 98.3763 90.0961 98.3488C90.0343 98.3213 89.964 98.3195 89.9008 98.3438C89.3109 98.5824 88.7799 98.9463 88.3446 99.4103C87.9092 99.8744 87.5799 100.427 87.3794 101.031C87.3613 101.096 87.3698 101.166 87.4028 101.225C87.4359 101.284 87.4909 101.327 87.5559 101.346C87.5795 101.351 87.6038 101.354 87.628 101.353Z" fill="#FD664D"/>
<path d="M89.3707 100.513C89.4164 100.513 89.4614 100.501 89.5009 100.478C89.5403 100.454 89.5727 100.421 89.5947 100.381C89.6166 100.34 89.6273 100.295 89.6256 100.249C89.6239 100.204 89.6099 100.159 89.585 100.121C89.3413 99.7822 89.0109 99.5157 88.6285 99.3492C88.598 99.3355 88.565 99.328 88.5315 99.327C88.4981 99.3261 88.4647 99.3318 88.4335 99.3437C88.4022 99.3557 88.3736 99.3736 88.3492 99.3966C88.3249 99.4196 88.3053 99.4472 88.2917 99.4778C88.278 99.5083 88.2705 99.5413 88.2695 99.5747C88.2686 99.6082 88.2742 99.6415 88.2862 99.6728C88.2981 99.7041 88.3161 99.7327 88.3391 99.7571C88.3621 99.7814 88.3897 99.8009 88.4202 99.8146C88.7118 99.9418 88.9653 100.142 89.1563 100.397C89.1794 100.432 89.2112 100.462 89.2487 100.482C89.2861 100.502 89.3281 100.513 89.3707 100.513Z" fill="#FD664D"/>
<path d="M83.1465 107.599V112.966C83.1465 112.966 81.5462 115.699 79.3815 115.886C77.2168 116.072 75.297 113.532 75.297 113.532V107.974L83.1465 107.599Z" fill="#F9AF8B"/>
<path d="M83.1465 107.599V109.981C81.694 111.593 79.1152 112.164 75.2976 111.601V107.977L83.1465 107.599Z" fill="#FC8664"/>
<path d="M88.8056 93.814C88.7214 96.0868 88.4888 98.3516 88.1093 100.594C88.0098 101.114 87.8974 101.604 87.7722 102.043C86.6428 105.998 83.8172 112.78 75.9078 109.955C72.4146 108.707 70.796 104.817 70.0746 100.86C69.663 98.4345 69.486 95.9752 69.5462 93.516C69.5653 92.5427 69.8375 91.5912 70.336 90.7552C70.8346 89.9191 71.5424 89.2274 72.3896 88.748C77.058 86.1014 81.9841 87.0884 85.2275 88.3351C86.3243 88.7561 87.2605 89.5121 87.9029 90.4958C88.5453 91.4794 88.8612 92.6405 88.8056 93.814Z" fill="#F9AF8B"/>
<path d="M75.5835 98.3249C75.5835 98.8978 75.2885 99.3632 74.9238 99.3632C74.5592 99.3632 74.2647 98.8984 74.2647 98.3249C74.2647 97.7513 74.5598 97.2865 74.9238 97.2865C75.2878 97.2865 75.5835 97.7519 75.5835 98.3249Z" fill="#2E3052"/>
<path d="M83.728 98.3249C83.728 98.8978 83.433 99.3632 83.0683 99.3632C82.7037 99.3632 82.4093 98.8984 82.4093 98.3249C82.4093 97.7513 82.7043 97.2865 83.0683 97.2865C83.4324 97.2865 83.728 97.7519 83.728 98.3249Z" fill="#2E3052"/>
<path d="M73.6179 94.8732C74.5358 94.6105 75.484 94.4682 76.4386 94.4499C76.5107 94.4488 76.5821 94.4636 76.6477 94.4933C76.7133 94.5231 76.7716 94.5669 76.8183 94.6218C76.865 94.6767 76.899 94.7412 76.9178 94.8107C76.9366 94.8803 76.9399 94.9531 76.9273 95.0241V95.032C76.9061 95.1485 76.8433 95.2534 76.7506 95.3271C76.6579 95.4008 76.5416 95.4383 76.4233 95.4327C75.1185 95.386 73.8144 95.5457 72.5594 95.9061C72.5603 95.8082 72.5806 95.7116 72.6191 95.6216C72.6576 95.5317 72.7134 95.4502 72.7835 95.382C73.0058 95.1343 73.2959 94.9574 73.6179 94.8732Z" fill="#2E3052"/>
<path d="M84.2741 94.894C83.356 94.6311 82.4075 94.489 81.4527 94.4713C81.3807 94.4702 81.3093 94.485 81.2436 94.5147C81.178 94.5444 81.1198 94.5883 81.0731 94.6432C81.0264 94.698 80.9924 94.7626 80.9735 94.8321C80.9547 94.9016 80.9515 94.9745 80.9641 95.0454V95.0534C80.9853 95.1699 81.048 95.2747 81.1407 95.3484C81.2334 95.4221 81.3497 95.4597 81.468 95.4541C82.7725 95.4074 84.0761 95.5672 85.3308 95.9274C85.33 95.8295 85.3098 95.7327 85.2713 95.6426C85.2329 95.5525 85.1769 95.471 85.1066 95.4028C84.8849 95.1553 84.5954 94.9783 84.2741 94.894Z" fill="#2E3052"/>
<path d="M79.1549 102.544C78.9616 102.551 78.7703 102.505 78.6009 102.412C78.4933 102.346 78.4033 102.255 78.3387 102.146C78.2741 102.038 78.2368 101.915 78.2301 101.789C78.2101 100.454 78.2613 99.1193 78.3834 97.7898C78.3889 97.7224 78.421 97.66 78.4725 97.6162C78.5241 97.5725 78.5909 97.551 78.6583 97.5565C78.7257 97.562 78.7881 97.594 78.8319 97.6456C78.8756 97.6971 78.8971 97.7639 78.8916 97.8313C78.7746 99.1298 78.7233 100.433 78.7377 101.737C78.7369 101.784 78.7481 101.83 78.7701 101.871C78.7921 101.913 78.8242 101.948 78.8635 101.973C79.2053 102.06 79.5665 102.026 79.886 101.877C79.917 101.864 79.9503 101.858 79.9838 101.858C80.0173 101.858 80.0505 101.865 80.0814 101.878C80.1123 101.891 80.1404 101.91 80.164 101.933C80.1876 101.957 80.2062 101.986 80.2189 102.017C80.2316 102.048 80.238 102.081 80.2378 102.114C80.2377 102.148 80.2309 102.181 80.2179 102.212C80.2049 102.243 80.186 102.271 80.1621 102.295C80.1383 102.318 80.1101 102.337 80.079 102.349C79.7847 102.468 79.4719 102.534 79.1549 102.544Z" fill="#FC8664"/>
<path d="M75.9176 104.154C76.1106 105.124 76.7507 106.909 78.9105 106.909C81.0704 106.909 81.6806 105.278 81.8895 104.154H75.9176Z" fill="white"/>
<path d="M78.8782 108.396C78.4565 108.381 78.0453 108.26 77.6816 108.046C77.6531 108.029 77.6283 108.006 77.6087 107.979C77.5891 107.952 77.575 107.921 77.5672 107.888C77.5516 107.822 77.5627 107.753 77.5982 107.696C77.6337 107.638 77.6906 107.597 77.7564 107.581C77.8222 107.566 77.8915 107.577 77.9491 107.612C78.2325 107.776 78.5511 107.87 78.8782 107.886C79.221 107.873 79.5558 107.779 79.8555 107.612C79.8841 107.594 79.9159 107.583 79.949 107.578C79.982 107.573 80.0158 107.574 80.0483 107.582C80.0808 107.59 80.1114 107.604 80.1384 107.624C80.1653 107.644 80.1881 107.669 80.2055 107.698C80.2228 107.726 80.2343 107.758 80.2393 107.791C80.2444 107.824 80.2429 107.858 80.2349 107.891C80.2269 107.923 80.2126 107.954 80.1927 107.981C80.1729 108.008 80.148 108.03 80.1193 108.048C79.7403 108.264 79.3142 108.383 78.8782 108.396Z" fill="#FC8664"/>
<path d="M89.8318 93.3981C89.775 93.5196 89.6899 93.6258 89.5836 93.7076C89.4773 93.7894 89.353 93.8446 89.221 93.8684C89.2269 94.4988 89.1963 95.129 89.1294 95.7558C88.8142 99.4408 87.8851 100.088 87.6744 99.1763C87.5477 97.4433 87.5273 95.7041 87.6133 93.9686C87.1605 93.9376 86.7098 93.8809 86.2635 93.7988L85.4083 90.2213L85.109 93.7554C83.8263 94.2007 80.8334 93.4867 80.8334 93.4867L79.8298 89.9605L79.2092 93.3535C77.2864 94.2911 74.8829 93.6662 74.8829 93.6662L74.3331 90.0069L73.0578 93.6662C73.0578 93.6662 68.955 95.1377 68.9104 93.6662C68.8829 92.8111 69.5102 90.3978 70.0404 88.5299C70.3133 87.5323 70.7837 86.5996 71.4237 85.787C72.0637 84.9745 72.8603 84.2988 73.7663 83.7999C78.855 81.0677 84.2368 82.5208 86.0833 83.6233C89.9949 85.9603 89.8318 93.3981 89.8318 93.3981Z" fill="#2E3052"/>
<path d="M71.1643 85.9676C71.1643 85.9676 67.7871 89.9843 66.6754 97.1588C65.5638 104.333 64.0258 109.635 68.3491 112.001C73.0285 114.567 72.6247 109.307 72.5557 107.877C72.4867 106.448 68.5085 102.542 71.1643 91.5388C72.0218 87.9876 71.1643 85.9676 71.1643 85.9676Z" fill="#2E3052"/>
<path d="M70.3751 100.794V100.802C70.3751 100.855 70.3806 101.141 70.4008 101.587C70.4118 101.864 70.4283 102.198 70.4539 102.584C70.6127 105.001 71.083 109.175 72.4647 110.623C73.0095 111.196 74.0613 111.484 75.2988 111.6V109.701C74.0068 109.057 72.9274 108.054 72.1898 106.813C71.341 105.147 70.7606 103.357 70.4698 101.51L70.3751 100.794Z" fill="#000B29"/>
<path d="M88.8667 103.142C88.8667 103.26 88.8317 103.375 88.766 103.474C88.7004 103.572 88.6071 103.648 88.4979 103.694C88.3888 103.739 88.2687 103.751 88.1528 103.728C88.0369 103.705 87.9305 103.648 87.8469 103.564C87.7634 103.481 87.7065 103.374 87.6835 103.258C87.6604 103.142 87.6722 103.022 87.7174 102.913C87.7627 102.804 87.8392 102.711 87.9375 102.645C88.0357 102.579 88.1512 102.544 88.2693 102.544C88.3478 102.544 88.4255 102.56 88.4979 102.59C88.5704 102.62 88.6363 102.664 88.6917 102.719C88.7472 102.775 88.7912 102.841 88.8212 102.913C88.8513 102.986 88.8667 103.063 88.8667 103.142Z" fill="white"/>
<path d="M258.558 12.1704C258.649 12.1924 258.744 12.1924 258.835 12.1704C259.826 11.926 260.402 11.8271 260.408 11.8265C260.477 11.8169 260.544 11.7935 260.604 11.7578C260.664 11.7221 260.716 11.6748 260.758 11.6185C260.799 11.5623 260.829 11.4983 260.845 11.4304C260.862 11.3625 260.865 11.292 260.853 11.223C260.822 11.0832 260.737 10.9612 260.617 10.883C260.497 10.8049 260.351 10.7767 260.21 10.8046C260.186 10.8083 259.593 10.9103 258.554 11.1662C258.485 11.1805 258.421 11.2085 258.364 11.2484C258.306 11.2884 258.258 11.3395 258.221 11.3986C258.184 11.4578 258.159 11.5238 258.149 11.5927C258.138 11.6616 258.141 11.732 258.158 11.7996C258.186 11.8915 258.238 11.9743 258.308 12.0395C258.378 12.1047 258.465 12.1499 258.558 12.1704Z" fill="#DCEDF9"/>
<path d="M226.429 35.9668C225.914 36.8489 225.417 37.7632 224.954 38.6843C224.895 38.7956 224.8 38.8838 224.685 38.9349C224.57 38.986 224.441 38.9972 224.318 38.9665C224.284 38.9584 224.25 38.9469 224.218 38.9323C224.153 38.9062 224.095 38.8672 224.047 38.8176C223.998 38.768 223.96 38.709 223.936 38.6442C223.911 38.5794 223.9 38.5103 223.903 38.441C223.906 38.3717 223.923 38.3038 223.954 38.2415C224.426 37.3002 224.931 36.3675 225.459 35.4672C225.535 35.3444 225.655 35.255 225.794 35.2168C225.933 35.1786 226.082 35.1945 226.21 35.2614C226.273 35.2914 226.328 35.3339 226.373 35.3864C226.419 35.4389 226.453 35.5002 226.473 35.5664C226.494 35.6326 226.5 35.7024 226.493 35.7713C226.485 35.8402 226.463 35.9068 226.429 35.9668Z" fill="#DCEDF9"/>
<path d="M223.654 41.4806C223.255 42.4127 222.876 43.3741 222.527 44.3447C222.477 44.4715 222.383 44.5757 222.261 44.6377C222.14 44.6998 222 44.7155 221.868 44.6819C221.854 44.6787 221.84 44.6748 221.826 44.6703C221.759 44.6515 221.697 44.6192 221.642 44.5754C221.588 44.5316 221.544 44.4773 221.511 44.4157C221.479 44.354 221.459 44.2865 221.454 44.217C221.448 44.1476 221.457 44.0777 221.479 44.0118C221.835 43.0247 222.221 42.0438 222.628 41.094C222.689 40.9635 222.798 40.8611 222.931 40.8076C223.065 40.754 223.214 40.7533 223.348 40.8057C223.414 40.8283 223.474 40.864 223.526 40.9107C223.577 40.9574 223.618 41.0141 223.647 41.0773C223.675 41.1404 223.691 41.2088 223.692 41.2781C223.693 41.3475 223.681 41.4164 223.654 41.4806Z" fill="#DCEDF9"/>
<path d="M218.964 56.691C218.837 56.6644 218.724 56.5912 218.648 56.4858C218.572 56.3804 218.538 56.2503 218.552 56.1211C218.693 55.0882 218.858 54.0541 219.047 53.0487C219.078 52.9088 219.162 52.7865 219.282 52.7078C219.401 52.6291 219.547 52.6002 219.688 52.6273C219.757 52.636 219.824 52.6586 219.885 52.6937C219.945 52.7289 219.998 52.7759 220.04 52.832C220.082 52.888 220.112 52.9519 220.129 53.0199C220.146 53.0879 220.149 53.1586 220.137 53.2277C219.954 54.2178 219.789 55.236 219.649 56.2536C219.624 56.3941 219.546 56.5195 219.43 56.6032C219.315 56.687 219.171 56.7226 219.03 56.7026C219.008 56.7002 218.986 56.6964 218.964 56.691Z" fill="#DCEDF9"/>
<path d="M221.185 46.6224C221.253 46.6377 221.317 46.6667 221.374 46.7076C221.43 46.7485 221.478 46.8004 221.514 46.8603C221.55 46.9201 221.573 46.9866 221.583 47.0558C221.592 47.1249 221.588 47.1952 221.569 47.2625C221.434 47.7188 221.303 48.1787 221.181 48.635C221.039 49.1591 220.902 49.6948 220.775 50.228C220.737 50.3662 220.647 50.4842 220.523 50.5573C220.4 50.6304 220.253 50.653 220.114 50.6201L220.099 50.6171C220.032 50.6034 219.968 50.5764 219.911 50.5379C219.854 50.4993 219.806 50.4499 219.768 50.3925C219.731 50.335 219.705 50.2707 219.693 50.2033C219.68 50.1358 219.681 50.0666 219.696 49.9996C219.825 49.4584 219.964 48.9123 220.108 48.3797C220.23 47.9173 220.366 47.4476 220.503 46.9834C220.547 46.849 220.641 46.7364 220.765 46.6684C220.889 46.6003 221.034 46.582 221.171 46.6169L221.185 46.6224Z" fill="#DCEDF9"/>
<path d="M228.078 33.3379C228.012 33.4321 227.919 33.5041 227.811 33.5444C227.703 33.5848 227.586 33.5916 227.474 33.5639C227.419 33.5516 227.365 33.531 227.315 33.5029C227.255 33.4692 227.202 33.4233 227.16 33.3682C227.118 33.313 227.088 33.2498 227.072 33.1826C227.056 33.1153 227.054 33.0454 227.066 32.9773C227.079 32.9092 227.105 32.8444 227.143 32.787C227.733 31.9105 228.359 31.0431 229.004 30.2075C229.095 30.0948 229.225 30.0204 229.368 29.999C229.511 29.9776 229.657 30.0109 229.777 30.0921C229.835 30.1297 229.885 30.1789 229.923 30.2366C229.96 30.2944 229.986 30.3593 229.998 30.4275C230.009 30.4956 230.006 30.5653 229.989 30.6323C229.972 30.6993 229.942 30.762 229.899 30.8165C229.268 31.6313 228.655 32.481 228.078 33.3379Z" fill="#DCEDF9"/>
<path d="M255.73 13.0536C254.721 13.3773 253.698 13.7395 252.687 14.1311C252.576 14.174 252.455 14.1823 252.34 14.1549C252.258 14.1365 252.181 14.0993 252.116 14.0463C252.051 13.9933 251.999 13.9259 251.964 13.8495C251.937 13.7855 251.923 13.7166 251.924 13.647C251.924 13.5775 251.939 13.5088 251.967 13.4451C251.995 13.3815 252.036 13.3244 252.087 13.2772C252.138 13.23 252.198 13.1938 252.264 13.1709C253.296 12.7708 254.341 12.4006 255.372 12.0714C255.509 12.0254 255.657 12.0333 255.788 12.0934C255.918 12.1534 256.021 12.2612 256.075 12.3945C256.097 12.4604 256.106 12.5301 256.101 12.5994C256.096 12.6688 256.076 12.7363 256.044 12.798C256.012 12.8596 255.967 12.9141 255.913 12.958C255.86 13.0019 255.797 13.0345 255.73 13.0536Z" fill="#DCEDF9"/>
<path d="M246.829 16.7899C246.704 16.8547 246.56 16.8723 246.423 16.8394C246.352 16.8233 246.284 16.7928 246.225 16.7499C246.165 16.707 246.115 16.6524 246.077 16.5896C246.041 16.5298 246.019 16.4635 246.011 16.3947C246.003 16.3259 246.009 16.2562 246.029 16.1898C246.049 16.1235 246.082 16.062 246.127 16.0092C246.172 15.9563 246.227 15.9133 246.289 15.8828C247.252 15.3795 248.244 14.8952 249.234 14.445C249.365 14.3845 249.514 14.376 249.651 14.4214C249.788 14.4667 249.903 14.5625 249.972 14.6893C250.003 14.7514 250.022 14.8192 250.025 14.8885C250.029 14.9579 250.019 15.0273 249.994 15.0924C249.97 15.1575 249.933 15.2169 249.885 15.2669C249.837 15.317 249.779 15.3565 249.715 15.3832C248.743 15.8212 247.773 16.2958 246.829 16.7899Z" fill="#DCEDF9"/>
<path d="M236.34 23.9614C236.27 24.0211 236.186 24.0633 236.097 24.0845C236.007 24.1058 235.914 24.1054 235.825 24.0836C235.724 24.0597 235.631 24.0081 235.558 23.9345C235.509 23.8862 235.47 23.8282 235.444 23.7641C235.419 23.7001 235.407 23.6313 235.409 23.5624C235.411 23.4934 235.428 23.4257 235.458 23.3636C235.488 23.3015 235.531 23.2463 235.584 23.2016C236.386 22.4961 237.225 21.804 238.076 21.1437C238.191 21.0557 238.334 21.0139 238.479 21.0268C238.623 21.0397 238.757 21.1063 238.854 21.2134C238.901 21.265 238.936 21.3257 238.957 21.3916C238.978 21.4575 238.986 21.5272 238.979 21.5961C238.972 21.6651 238.951 21.7318 238.917 21.7921C238.882 21.8524 238.836 21.905 238.78 21.9463C237.946 22.5926 237.125 23.2706 236.34 23.9614Z" fill="#DCEDF9"/>
<path d="M241.35 20.0773C241.282 20.1223 241.207 20.1529 241.127 20.1672C241.048 20.1815 240.966 20.1791 240.888 20.1603C240.764 20.1318 240.654 20.062 240.576 19.9624C240.534 19.9078 240.503 19.845 240.486 19.7779C240.469 19.7109 240.466 19.641 240.478 19.5728C240.489 19.5046 240.515 19.4395 240.553 19.3817C240.591 19.3238 240.64 19.2745 240.698 19.2368C241.586 18.6309 242.508 18.0402 243.44 17.4813C243.564 17.4069 243.712 17.3818 243.853 17.4111C243.995 17.4404 244.12 17.522 244.204 17.6395C244.243 17.6968 244.27 17.7616 244.282 17.8297C244.295 17.8977 244.293 17.9677 244.277 18.035C244.261 18.1024 244.232 18.1658 244.19 18.2211C244.149 18.2765 244.096 18.3226 244.036 18.3566C243.123 18.9051 242.219 19.483 241.35 20.0773Z" fill="#DCEDF9"/>
<path d="M231.889 28.4057C231.819 28.4823 231.73 28.5387 231.631 28.5689C231.532 28.5991 231.427 28.602 231.326 28.5773C231.248 28.5588 231.174 28.5236 231.111 28.4741C231.055 28.4328 231.008 28.3804 230.974 28.3201C230.939 28.2598 230.918 28.193 230.911 28.1239C230.904 28.0549 230.912 27.9852 230.933 27.9192C230.955 27.8533 230.99 27.7926 231.037 27.7411C231.739 26.944 232.478 26.1585 233.236 25.4047C233.339 25.3038 233.477 25.2455 233.622 25.2413C233.767 25.2371 233.908 25.2874 234.017 25.3822C234.07 25.427 234.112 25.4823 234.142 25.5445C234.172 25.6067 234.189 25.6744 234.191 25.7434C234.193 25.8123 234.181 25.881 234.155 25.945C234.129 26.009 234.091 26.067 234.041 26.1151C233.3 26.8536 232.576 27.6232 231.889 28.4057Z" fill="#DCEDF9"/>
<path d="M259.109 8.65454L257.99 0L287.309 4.20481L259.109 8.65454Z" fill="#FEBE3D"/>
<path d="M287.312 4.20482L260.225 10.8584L260.154 10.8767L258.793 12.4367L259.109 8.65455L287.312 4.20482Z" fill="#F8A23A"/>
<path d="M258.793 12.4367L261.227 12.4061L260.153 10.8791L258.793 12.4367Z" fill="#F8A23A"/>
<path d="M263.562 10.0393L260.153 10.8767L265.698 18.7714L287.312 4.20543L263.562 10.0393Z" fill="#FEBE3D"/>
<path d="M26.4757 58.6859C24.399 54.227 16.5885 54.9599 16.5885 54.9599C21.4054 52.1178 20.4825 44.9005 20.4244 44.4742C22.5311 50.7655 29.8046 49.3771 30.4563 49.2385C25.6267 50.4302 26.4763 58.6846 26.4763 58.6846L26.4757 58.6859ZM12.9377 67.8352C11.6172 65.001 6.6507 65.4671 6.6507 65.4671C9.79453 63.5986 9.08171 58.7897 9.08171 58.7897V58.8178C10.4304 62.7954 15.0444 61.9134 15.4549 61.8272C12.3978 62.5901 12.9377 67.8352 12.9377 67.8352Z" fill="#EB883B"/>
</svg>
