<svg xmlns="http://www.w3.org/2000/svg" width="575.551" height="421.278" viewBox="0 0 575.551 421.278">
  <g id="Group_66046" data-name="Group 66046" transform="translate(-21.989 -110.879)">
    <g id="Group_62307" data-name="Group 62307" transform="translate(21.989 127.957)">
      <path id="Path_26277" data-name="Path 26277" d="M533.764,506.293c-28.678-21.788-77.725-75.854-13.136-160.727,79.872-104.955-15.783-148.015-107.469-143.52C339.4,205.661,256.381,112.928,173.57,129.5,63.655,151.5,135.024,246.155,60.5,297.15-3.06,340.642,24.228,473.156,106.947,506.293Z" transform="translate(-21.082 -123.596)" fill="#e2eefc"/>
      <path id="Path_26278" data-name="Path 26278" d="M476.808,278.484c-.442-15.563-14.941-21.6-24.618-10.333a48.565,48.565,0,0,0-11.834,28.135c-2.216,27.748,22.059,19.708,31.131,4.85C475.357,294.8,477.031,286.35,476.808,278.484Z" transform="translate(87.634 -88.255)" fill="#dcedf9"/>
      <path id="Path_26279" data-name="Path 26279" d="M261.476,124.823c-15.3-2.9-24.3,9.977-15.357,21.84a48.578,48.578,0,0,0,24.954,17.575c26.633,8.1,23.968-17.338,11.394-29.376C277.1,129.727,269.209,126.286,261.476,124.823Z" transform="translate(35.829 -124.41)" fill="#dcedf9"/>
      <path id="Path_26280" data-name="Path 26280" d="M66.446,242.165c6.121-14.316-4.512-25.875-18.02-19.7a48.569,48.569,0,0,0-22.538,20.584c-13.641,24.265,11.77,27.139,26.233,17.453C58.29,256.37,63.351,249.4,66.446,242.165Z" transform="translate(-21.989 -99.154)" fill="#dcedf9"/>
    </g>
    <ellipse id="Ellipse_17759" data-name="Ellipse 17759" cx="262.218" cy="17.262" rx="262.218" ry="17.262" transform="translate(48.01 497.634)" fill="#dcedf9"/>
    <g id="Group_62318" data-name="Group 62318" transform="translate(457.354 339.483)">
      <g id="Group_62312" data-name="Group 62312" transform="translate(0 0)">
        <g id="Group_62309" data-name="Group 62309" transform="translate(30.9)">
          <path id="Path_26281" data-name="Path 26281" d="M468.545,325.8c-16.054,16.049,1.854,17.41-9.927,29.531-10.737,11.047-26.581.294-25.527,27.276.231,5.9-4.064,10.282-10.091,12.525a22.965,22.965,0,0,1-25.592-6.506q-.729-.82-1.381-1.714a23.39,23.39,0,0,1-2.828-22.887c2.726-6.743,7.555-13.38,16.11-16.024,20.074-6.2,8.932-32.79,25.9-33.956,20.461-1.409,21.195-8.913,35.717-19.03C486.317,284.289,490.3,304.053,468.545,325.8Z" transform="translate(-391.42 -292.007)" fill="#febe3d"/>
          <g id="Group_62308" data-name="Group 62308" transform="translate(4.607 23.202)">
            <path id="Path_26282" data-name="Path 26282" d="M460.391,312.214c-.448.462-37.674,38.843-63.939,71.593q-.729-.82-1.381-1.714c26.337-32.77,63.329-70.916,63.781-71.378a1.074,1.074,0,0,1,1.539,1.5Z" transform="translate(-395.071 -310.391)" fill="#fff"/>
          </g>
        </g>
        <g id="Group_62311" data-name="Group 62311" transform="translate(0 48.191)">
          <path id="Path_26283" data-name="Path 26283" d="M479.085,369.369c-25.153,14.807-3.3,22.268-21.865,33.562-16.924,10.293-33.184-8.194-40.561,25.732-1.613,7.421-8.37,11.489-16.594,12.341A29.527,29.527,0,0,1,370.3,424.663c-.428-.837-.818-1.7-1.166-2.577a30.075,30.075,0,0,1,3.851-29.4c5.565-7.517,13.712-14.221,25.213-14.757,26.984-1.26,21.676-37.94,43.172-33.929,25.923,4.836,29.252-4.268,50.586-12.186C514.573,323.42,513.173,349.3,479.085,369.369Z" transform="translate(-366.938 -330.189)" fill="#febe3d"/>
          <g id="Group_62310" data-name="Group 62310" transform="translate(2.199 23.386)">
            <path id="Path_26284" data-name="Path 26284" d="M472.491,351.28c-.707.43-59.4,36.218-102.645,68.527-.428-.837-.818-1.7-1.166-2.577,43.336-32.31,101.668-67.88,102.378-68.309a1.381,1.381,0,1,1,1.434,2.36Z" transform="translate(-368.68 -348.719)" fill="#fff"/>
          </g>
        </g>
      </g>
    </g>
    <g id="Group_62322" data-name="Group 62322" transform="translate(90.766 232.058)">
      <rect id="Rectangle_21565" data-name="Rectangle 21565" width="401.471" height="277.322" transform="translate(0.011 0.002)" fill="#febe3d"/>
      <path id="Path_26291" data-name="Path 26291" d="M477.951,206.9V224.68L277.228,402.587,76.493,224.68V206.9L277.215,385.418Z" transform="translate(-76.48 -206.889)" fill="#fff"/>
      <g id="Group_62319" data-name="Group 62319" transform="translate(0.011 133.805)">
        <path id="Path_26292" data-name="Path 26292" d="M238.551,322.624,88.12,456.427H76.492v-7.07L229.9,312.907Z" transform="translate(-76.492 -312.907)" fill="#fff"/>
      </g>
      <g id="Group_62321" data-name="Group 62321" transform="translate(238.371 133.805)">
        <g id="Group_62320" data-name="Group 62320">
          <path id="Path_26293" data-name="Path 26293" d="M428.461,450.3v6.131H415.78l-150.431-133.8L274,312.907Z" transform="translate(-265.349 -312.907)" fill="#fff"/>
        </g>
      </g>
      <path id="Path_26294" data-name="Path 26294" d="M76.483,206.891l200.736,178.53,200.736-178.53Z" transform="translate(-76.483 -206.891)" fill="#febe3d"/>
    </g>
    <g id="Group_62427" data-name="Group 62427" transform="translate(396.735 186.414)">
      <g id="Group_62386" data-name="Group 62386" transform="translate(0 58.074)">
        <path id="Path_26344" data-name="Path 26344" d="M389.809,250.9a145.31,145.31,0,0,1-12.039,18.8,49.443,49.443,0,0,1-5.9,6.457c-3.2,2.832-6.323,4.314-8.866,3.057-9.431-4.658-30.452-41.724-30.452-41.724l5.177-6.016s9.356,10.585,16.2,16.921c6.311,5.842,11.162,10.209,11.162,10.209.873-1.3,1.8-2.73,2.772-4.241,1.03-1.6,2.1-3.3,3.183-5.047,7.881-12.674,17.368-26.537,17.368-26.537Z" transform="translate(-315.332 -215.158)" fill="#f9af8b"/>
        <path id="Path_26345" data-name="Path 26345" d="M342.674,236.691s2.134-3.5,1.309-6.643-1.626-10.231-5.055-10.038c-1.252.069.577,3.033-.264,5.778a46.257,46.257,0,0,1-6.128-3.584c-2.161-1.6-6.636-4.19-8.717-5.375a.645.645,0,0,0-.9.857c.534.9,1.84,2.255,4.858,4.145,0,0-7.5-4.2-8.754-3.276s8.216,6,8.216,6-7.65-3.092-8.276-1.96c-.38.688,7.121,5.1,7.121,5.1s-7.452-2.3-6.068-.555c.4.509,14.557,6.914,17.507,14.352C337.523,241.49,341.647,239.231,342.674,236.691Z" transform="translate(-318.908 -216.74)" fill="#f9af8b"/>
        <path id="Path_26346" data-name="Path 26346" d="M370.436,264.185a49.443,49.443,0,0,1-5.9,6.457l-4.008-21.794c1.03-1.6,2.1-3.3,3.183-5.047Z" transform="translate(-307.999 -209.647)" fill="#fc8664"/>
        <path id="Path_26347" data-name="Path 26347" d="M381.175,222l-19.929,28.743,6.342,25.611,15.638-24.947S386.154,234.718,381.175,222Z" transform="translate(-307.81 -215.361)" fill="#af412b"/>
      </g>
      <g id="Group_62396" data-name="Group 62396" transform="translate(63.071 177.649)">
        <path id="Path_26348" data-name="Path 26348" d="M385.14,417.013v9.074l8.471-.133.553-9.615Z" transform="translate(-364.619 -283.998)" fill="#f9af8b"/>
        <g id="Group_62387" data-name="Group 62387" transform="translate(12.188 0.076)">
          <path id="Path_26349" data-name="Path 26349" d="M408.377,311.9c-.058,1.077-.351,6.256-.8,13.477-1.193,19.837-3.427,55.085-4.737,63-1.345,8.124-.737,34.767-.3,48.714a8.35,8.35,0,0,1-2.4,6.107,8.907,8.907,0,0,1-1.965,1.5,8.764,8.764,0,0,1-4.257,1.1h-6.457a8.531,8.531,0,0,1-8.62-8.71c.362-11.792.806-33.3-.035-49.918-.807-15.814.362-43.8,1.263-61.239h.011c.362-6.968.679-12.24.808-14.394Z" transform="translate(-378.538 -311.542)" fill="#2e3052"/>
        </g>
        <path id="Path_26350" data-name="Path 26350" d="M380.57,311.542l27.486.356c-.058,1.077-.351,6.256-.8,13.477-9.333,1.122-19.054,1.593-27.5.562C380.124,318.968,380.441,313.7,380.57,311.542Z" transform="translate(-366.029 -311.466)" fill="#001030"/>
        <g id="Group_62388" data-name="Group 62388" transform="translate(31.511)">
          <path id="Path_26351" data-name="Path 26351" d="M396.024,412.237c.241,8.919.491,18.14.327,25.574-.047,2.086-.12,3.871-.218,5.4a8.38,8.38,0,0,1-1.973,1.5c.156-1.776.28-4.046.345-6.944.16-7.392-.088-16.589-.329-25.487-.3-10.873-.573-21.145.032-25.517,1.319-9.568,4.268-61.438,5.041-75.285l1.85.081c-.774,13.839-3.733,65.814-5.061,75.447C395.455,391.236,395.731,401.439,396.024,412.237Z" transform="translate(-393.847 -311.482)" fill="#001030"/>
        </g>
        <g id="Group_62395" data-name="Group 62395" transform="translate(0 139.403)">
          <g id="Group_62394" data-name="Group 62394">
            <g id="Group_62393" data-name="Group 62393">
              <path id="Path_26352" data-name="Path 26352" d="M391.573,424.282s-1.753-2.417-3.192-2.346-12.7,8.457-16.513,9.087-3.135,3.384-2.471,4.8,30.274.124,30.274.124,1.006-8.605.1-11.263S394.526,424.969,391.573,424.282Z" transform="translate(-368.881 -421.934)" fill="#e44531"/>
              <g id="Group_62392" data-name="Group 62392" transform="translate(8.203 2.711)">
                <g id="Group_62389" data-name="Group 62389" transform="translate(2.174 1.433)">
                  <path id="Path_26353" data-name="Path 26353" d="M383.163,429.307a.536.536,0,0,0,.417-.037.517.517,0,0,0,.215-.706,8.065,8.065,0,0,0-2.7-2.884,3.727,3.727,0,0,0-3.764.09.513.513,0,0,0-.126.726.538.538,0,0,0,.741.124,2.658,2.658,0,0,1,2.65-.02,7.133,7.133,0,0,1,2.267,2.461A.523.523,0,0,0,383.163,429.307Z" transform="translate(-377.102 -425.217)" fill="#fff"/>
                </g>
                <g id="Group_62390" data-name="Group 62390" transform="translate(3.791)">
                  <path id="Path_26354" data-name="Path 26354" d="M384.444,428.174a.543.543,0,0,0,.417-.038.515.515,0,0,0,.215-.706,8.067,8.067,0,0,0-2.7-2.884,3.724,3.724,0,0,0-3.764.09.513.513,0,0,0-.126.726.537.537,0,0,0,.741.124,2.665,2.665,0,0,1,2.65-.02,7.085,7.085,0,0,1,2.267,2.461A.53.53,0,0,0,384.444,428.174Z" transform="translate(-378.383 -424.082)" fill="#fff"/>
                </g>
                <g id="Group_62391" data-name="Group 62391" transform="translate(0 2.575)">
                  <path id="Path_26355" data-name="Path 26355" d="M381.439,430.214a.536.536,0,0,0,.416-.037.516.516,0,0,0,.216-.706,8.078,8.078,0,0,0-2.7-2.885,3.724,3.724,0,0,0-3.765.091.515.515,0,0,0-.126.726.54.54,0,0,0,.742.124,2.656,2.656,0,0,1,2.649-.02,7.1,7.1,0,0,1,2.268,2.46A.523.523,0,0,0,381.439,430.214Z" transform="translate(-375.38 -426.122)" fill="#fff"/>
                </g>
              </g>
            </g>
          </g>
        </g>
      </g>
      <g id="Group_62404" data-name="Group 62404" transform="translate(110.843 177.636)">
        <path id="Path_26356" data-name="Path 26356" d="M417.829,417.013l.912,9.059,7.559-.119.553-9.615Z" transform="translate(-403.822 -283.985)" fill="#f9af8b"/>
        <g id="Group_62397" data-name="Group 62397" transform="translate(0 0.514)">
          <path id="Path_26357" data-name="Path 26357" d="M436.3,387.087c-.842,16.617-.4,38.126-.035,49.918a8.539,8.539,0,0,1-8.62,8.71h-6.457a8.815,8.815,0,0,1-3.964-.94,8.561,8.561,0,0,1-4.656-7.77c.433-13.946,1.041-40.59-.3-48.714-1.333-8.056-3.626-44.384-4.807-64.013-.386-6.555-.655-11.242-.724-12.4l27.533.355c.082,1.4.211,3.553.364,6.28C435.516,334.213,437.235,368.786,436.3,387.087Z" transform="translate(-406.731 -311.879)" fill="#2e3052"/>
        </g>
        <path id="Path_26358" data-name="Path 26358" d="M434.628,318.514a272.345,272.345,0,0,1-27.172,5.764c-.386-6.555-.655-11.242-.724-12.4l27.533.355C434.346,313.632,434.475,315.786,434.628,318.514Z" transform="translate(-406.731 -311.365)" fill="#001030"/>
        <g id="Group_62398" data-name="Group 62398" transform="translate(3.548)">
          <path id="Path_26359" data-name="Path 26359" d="M416.134,437.774c.064,2.986.194,5.3.355,7.1a8.483,8.483,0,0,1-1.96-1.366c-.111-1.594-.194-3.475-.244-5.7-.16-7.434.09-16.655.329-25.574.293-10.8.568-21-.015-25.227-1.328-9.635-4.287-61.638-5.057-75.458l1.846-.082c.774,13.829,3.723,65.727,5.045,75.3.6,4.372.323,14.644.03,25.518C416.224,421.185,415.974,430.382,416.134,437.774Z" transform="translate(-409.542 -311.472)" fill="#001030"/>
        </g>
        <g id="Group_62403" data-name="Group 62403" transform="translate(13.491 139.707)">
          <path id="Path_26360" data-name="Path 26360" d="M421.8,423.153a35.705,35.705,0,0,1,4.921-.988c1.065.021,8.205,7.843,10.609,8.3,4.361.837,4.366,7.506,1.713,7.836-7.674.959-20.8-2.217-20.8-2.217s-1.21-8.558-.685-11.244S419.651,423.942,421.8,423.153Z" transform="translate(-417.42 -422.165)" fill="#e44531"/>
          <g id="Group_62402" data-name="Group 62402" transform="translate(8.613 2.992)">
            <g id="Group_62399" data-name="Group 62399" transform="translate(1.47 1.578)">
              <path id="Path_26361" data-name="Path 26361" d="M426.055,429.509a.537.537,0,0,1-.41-.077.513.513,0,0,1-.145-.722,8.109,8.109,0,0,1,2.972-2.618,3.724,3.724,0,0,1,3.738.442.514.514,0,0,1,.054.735.538.538,0,0,1-.75.053,2.656,2.656,0,0,0-2.637-.268,7.179,7.179,0,0,0-2.5,2.237A.53.53,0,0,1,426.055,429.509Z" transform="translate(-425.409 -425.785)" fill="#fff"/>
            </g>
            <g id="Group_62400" data-name="Group 62400">
              <path id="Path_26362" data-name="Path 26362" d="M424.891,428.259a.534.534,0,0,1-.411-.076.514.514,0,0,1-.145-.722,8.12,8.12,0,0,1,2.972-2.619,3.718,3.718,0,0,1,3.738.443.512.512,0,0,1,.054.733.539.539,0,0,1-.75.054,2.657,2.657,0,0,0-2.635-.269,7.127,7.127,0,0,0-2.5,2.238A.522.522,0,0,1,424.891,428.259Z" transform="translate(-424.245 -424.535)" fill="#fff"/>
            </g>
            <g id="Group_62401" data-name="Group 62401" transform="translate(3.522 2.918)">
              <path id="Path_26363" data-name="Path 26363" d="M427.681,430.573a.542.542,0,0,1-.41-.076.515.515,0,0,1-.145-.723,8.118,8.118,0,0,1,2.972-2.619,3.721,3.721,0,0,1,3.738.443.514.514,0,0,1,.054.735.54.54,0,0,1-.75.053,2.658,2.658,0,0,0-2.637-.269,7.152,7.152,0,0,0-2.5,2.238A.526.526,0,0,1,427.681,430.573Z" transform="translate(-427.035 -426.847)" fill="#fff"/>
            </g>
          </g>
        </g>
      </g>
      <g id="Group_62410" data-name="Group 62410" transform="translate(70.002 47.531)">
        <g id="Group_62405" data-name="Group 62405">
          <path id="Path_26364" data-name="Path 26364" d="M449,341.719a153.059,153.059,0,0,1-74.522,0c-.13-9.083-.261-45.4.456-75.212.011-.586.026-1.169.042-1.751.005-.288.015-.576.023-.858v-.047c.01-.372.018-.738.03-1.106.53-19.659,1.458-35.713,3.043-37.857l0,0c3.7-4.984,22.312-12.946,27.46-16.5.429.677,2.962,4.436,6.28,4.714,3.644.316,6.882-3.885,6.882-3.885v-.8c5.171,3.553,22.03,10.92,25.728,15.89C448.466,229.758,449.166,326.243,449,341.719Z" transform="translate(-374.372 -208.387)" fill="#f65b3c"/>
        </g>
        <g id="Group_62406" data-name="Group 62406" transform="translate(0.558 43.228)">
          <path id="Path_26365" data-name="Path 26365" d="M382.394,243.535c-2.137,2.828-5.254,9.236-6.654,12.2-.191.406-.35.748-.47,1.007-.159.34-.246.536-.254.552a.554.554,0,0,1-.2.239c.011-.586.026-1.169.042-1.751.005-.288.015-.576.023-.858v-.047c.287-.6.626-1.313,1.006-2.09a73.041,73.041,0,0,1,5.582-9.918.585.585,0,0,1,.806-.119A.558.558,0,0,1,382.394,243.535Z" transform="translate(-374.814 -242.638)" fill="#fff"/>
        </g>
        <g id="Group_62407" data-name="Group 62407" transform="translate(25.632 6.394)">
          <path id="Path_26366" data-name="Path 26366" d="M424.805,229.246h-.019a40.458,40.458,0,0,1-22.161-7.661,38.758,38.758,0,0,1-7.83-7.231.557.557,0,0,1,.119-.789.582.582,0,0,1,.805.115c.106.139,10.768,13.866,29.1,14.437a.564.564,0,1,1-.018,1.128Z" transform="translate(-394.681 -213.453)" fill="#fff"/>
        </g>
        <g id="Group_62408" data-name="Group 62408" transform="translate(21.89 82.964)">
          <path id="Path_26367" data-name="Path 26367" d="M392.292,305.538a.564.564,0,0,1-.037-1.127c16.212-1.041,25.883-9.091,31.141-15.66a43.341,43.341,0,0,0,7.632-14.206.576.576,0,0,1,.7-.4.564.564,0,0,1,.414.688,43.619,43.619,0,0,1-7.811,14.582c-5.4,6.766-15.344,15.057-32,16.127Z" transform="translate(-391.716 -274.121)" fill="#fff"/>
        </g>
        <g id="Group_62409" data-name="Group 62409" transform="translate(30.595 87.366)">
          <path id="Path_26368" data-name="Path 26368" d="M399.189,294.538a.575.575,0,0,1-.555-.418.562.562,0,0,1,.405-.692c14.089-3.732,16.808-15.26,16.834-15.375a.575.575,0,0,1,.684-.432.564.564,0,0,1,.442.67,19.949,19.949,0,0,1-3.232,6.653,25.2,25.2,0,0,1-14.427,9.573A.615.615,0,0,1,399.189,294.538Z" transform="translate(-398.613 -277.609)" fill="#fff"/>
        </g>
      </g>
      <g id="Group_62411" data-name="Group 62411" transform="translate(140.531 64.571)">
        <path id="Path_26369" data-name="Path 26369" d="M452.038,331.5c-.355,4.94-3.381,8.608-3.4,11.86s-3.849,1.126-2.074-5.3-.857-12.639-2.262-12.582.447,7.241-1.03,9.626-2.592-2.624-3.886-5.721c-1.344-3.216-.592-9.886.626-14.584s-4.759-34.489-3.976-42.882l-2.158-10.891-1.26-6.354-.237-6.631,11.519-4.472c.434,2.129.878,4.337,1.319,6.555.194.978.385,1.96.573,2.938,1.541,7.941,2.926,15.757,3.49,20.773,1.556,13.872-1,42.164-1,42.164S452.372,326.867,452.038,331.5Z" transform="translate(-429.695 -216.205)" fill="#f9af8b"/>
        <path id="Path_26370" data-name="Path 26370" d="M445.8,253.064c-2.6,2.908-6.748,6.61-11.914,7.963l-1.26-6.354-.237-6.631,11.519-4.472c.434,2.129.878,4.337,1.319,6.555C445.419,251.1,445.609,252.085,445.8,253.064Z" transform="translate(-429.695 -216.205)" fill="#fc8664"/>
        <path id="Path_26371" data-name="Path 26371" d="M449.555,252.459a24.344,24.344,0,0,1-3.774,3.348,21.928,21.928,0,0,1-12.587,4.549c-.637-18.379-1.576-33.909-2.941-38.468C432.685,224.827,444.357,239.3,449.555,252.459Z" transform="translate(-430.254 -221.888)" fill="#af412b"/>
      </g>
      <g id="Group_62412" data-name="Group 62412" transform="translate(135.454 88.913)">
        <path id="Path_26372" data-name="Path 26372" d="M426.343,242.074c2.134,2.827,5.253,9.235,6.653,12.2.191.406.348.747.47,1.007.159.338.247.536.254.55a.573.573,0,0,0,.528.336h.011c-.006-.288-.015-.576-.024-.861.17,0,.341,0,.5-.005-.078-.167-.265-.573-.533-1.146-.337-.719-.8-1.706-1.354-2.83a72.941,72.941,0,0,0-5.581-9.918.583.583,0,0,0-.806-.119A.557.557,0,0,0,426.343,242.074Z" transform="translate(-426.231 -241.175)" fill="#fff"/>
      </g>
      <g id="Group_62426" data-name="Group 62426" transform="translate(88.173)">
        <path id="Path_26373" data-name="Path 26373" d="M425.061,188.74c0,9.956-6.256,16.816-16.418,16.816S391.4,198.181,391.4,188.225s6.017-17.5,16.178-17.5C419.765,170.727,425.061,178.786,425.061,188.74Z" transform="translate(-388.08 -170.727)" fill="#2e3052"/>
        <g id="Group_62419" data-name="Group 62419" transform="translate(33.612 20.454)">
          <path id="Path_26374" data-name="Path 26374" d="M416.486,188.779s2.823-3.688,4.922-.639S420.54,200.2,415.4,198Z" transform="translate(-415.401 -186.933)" fill="#fc8664"/>
          <g id="Group_62415" data-name="Group 62415" transform="translate(0.687 3.229)">
            <g id="Group_62414" data-name="Group 62414">
              <g id="Group_62413" data-name="Group 62413">
                <path id="Path_26375" data-name="Path 26375" d="M416.38,194.544a.433.433,0,0,0,.418-.31,6.658,6.658,0,0,1,3.766-3.919.424.424,0,0,0,.252-.549.438.438,0,0,0-.559-.247,7.418,7.418,0,0,0-4.3,4.486.426.426,0,0,0,.3.525A.469.469,0,0,0,416.38,194.544Z" transform="translate(-415.945 -189.491)" fill="#fd664d"/>
              </g>
            </g>
          </g>
          <g id="Group_62418" data-name="Group 62418" transform="translate(2.213 4.9)">
            <g id="Group_62417" data-name="Group 62417">
              <g id="Group_62416" data-name="Group 62416">
                <path id="Path_26376" data-name="Path 26376" d="M419.031,192.8a.447.447,0,0,0,.236-.067.422.422,0,0,0,.13-.588,3.958,3.958,0,0,0-1.631-1.287.438.438,0,0,0-.574.215.422.422,0,0,0,.22.562,3.114,3.114,0,0,1,1.255.972A.435.435,0,0,0,419.031,192.8Z" transform="translate(-417.154 -190.816)" fill="#fd664d"/>
              </g>
            </g>
          </g>
        </g>
        <g id="Group_62424" data-name="Group 62424" transform="translate(0 20.454)">
          <path id="Path_26377" data-name="Path 26377" d="M394.373,188.779s-2.823-3.688-4.922-.639.868,12.057,6.008,9.858Z" transform="translate(-388.769 -186.933)" fill="#fc8664"/>
          <g id="Group_62420" data-name="Group 62420" transform="translate(1.102 3.229)">
            <path id="Path_26378" data-name="Path 26378" d="M394.107,194.544a.432.432,0,0,1-.418-.31,6.655,6.655,0,0,0-3.767-3.919.424.424,0,0,1-.251-.549.438.438,0,0,1,.559-.247A7.414,7.414,0,0,1,394.525,194a.424.424,0,0,1-.3.525A.468.468,0,0,1,394.107,194.544Z" transform="translate(-389.643 -189.491)" fill="#fd664d"/>
          </g>
          <g id="Group_62423" data-name="Group 62423" transform="translate(2.164 4.9)">
            <g id="Group_62422" data-name="Group 62422">
              <g id="Group_62421" data-name="Group 62421">
                <path id="Path_26379" data-name="Path 26379" d="M390.918,192.8a.443.443,0,0,1-.235-.067.42.42,0,0,1-.13-.588,3.946,3.946,0,0,1,1.631-1.287.436.436,0,0,1,.573.215.421.421,0,0,1-.218.562,3.114,3.114,0,0,0-1.255.972A.437.437,0,0,1,390.918,192.8Z" transform="translate(-390.484 -190.816)" fill="#fd664d"/>
              </g>
            </g>
          </g>
        </g>
        <path id="Path_26380" data-name="Path 26380" d="M399.229,201.754v8.957s2.726,4.561,6.413,4.872,6.957-3.928,6.957-3.928v-9.271Z" transform="translate(-386.028 -162.594)" fill="#f9af8b"/>
        <path id="Path_26381" data-name="Path 26381" d="M399.229,201.754v3.974c2.474,2.69,6.867,3.361,13.37,2.421v-5.765Z" transform="translate(-386.028 -162.594)" fill="#fc8664"/>
        <path id="Path_26382" data-name="Path 26382" d="M424.239,191.723a52.49,52.49,0,0,1-.742,5.9c-1.224,6.6-3.986,13.1-9.937,15.179-13.469,4.713-18.286-6.607-20.209-13.205-.212-.732-.4-1.547-.57-2.418-.305-1.573-.543-3.327-.728-5.094-.221-2.143-.367-4.311-.458-6.218a9.317,9.317,0,0,1,6.092-9.148c5.523-2.08,13.915-3.723,21.867.694a9.315,9.315,0,0,1,4.845,7.955C424.433,187.162,424.408,189.357,424.239,191.723Z" transform="translate(-388.032 -169.708)" fill="#f9af8b"/>
        <path id="Path_26383" data-name="Path 26383" d="M422.472,188.53c-.452.812-2.976,8.442-3.68,9.511-1.591-3.433-9.276-.939-9.276-.939a4.874,4.874,0,0,1-2.933.013l-.039-.013s-7.775-2.388-9.307,1.209c-.712-1.065-2.9-8.551-3.313-9.781h-1.968c.186,1.767.423,3.521.728,5.094.169.871.358,1.686.57,2.418,1.923,6.6,6.74,17.918,20.209,13.205,5.951-2.084,8.712-8.577,9.937-15.179a52.489,52.489,0,0,0,.742-5.9Zm-7.243,13.954v0h-.005a8.562,8.562,0,0,1-1.807,1.344c-3.413,1.81-3.784,1.535-5.13,1.594a10.324,10.324,0,0,1-5.182-1.382,14.764,14.764,0,0,1-2.464-1.839s-1.385-4.637,7.409-3.475C416.863,197.246,415.375,201.579,415.228,202.484Z" transform="translate(-387.934 -166.155)" fill="#2e3052"/>
        <path id="Path_26384" data-name="Path 26384" d="M409.312,189.682c0,.957.5,1.732,1.123,1.732s1.123-.775,1.123-1.732-.5-1.732-1.123-1.732S409.312,188.725,409.312,189.682Z" transform="translate(-383.385 -166.213)" fill="#2e3052"/>
        <path id="Path_26385" data-name="Path 26385" d="M398.82,189.654c0,.955.5,1.732,1.123,1.732s1.125-.776,1.125-1.732-.5-1.732-1.125-1.732S398.82,188.7,398.82,189.654Z" transform="translate(-386.135 -166.22)" fill="#2e3052"/>
        <path id="Path_26386" data-name="Path 26386" d="M415.315,185.619s-4.305-1.666-7.618-.264l.331,1.806s4.864-.4,7.315.569A3.077,3.077,0,0,0,415.315,185.619Z" transform="translate(-383.808 -167.04)" fill="#2e3052"/>
        <path id="Path_26387" data-name="Path 26387" d="M396.814,185.619s4.3-1.666,7.618-.264l-.331,1.806s-4.864-.4-7.315.569A3.076,3.076,0,0,1,396.814,185.619Z" transform="translate(-386.714 -167.04)" fill="#2e3052"/>
        <g id="Group_62425" data-name="Group 62425" transform="translate(18.157 21.846)">
          <path id="Path_26388" data-name="Path 26388" d="M405,196.36a4.7,4.7,0,0,1-1.571-.324.423.423,0,0,1-.239-.554.438.438,0,0,1,.567-.233,2.666,2.666,0,0,0,1.742.162.46.46,0,0,0,.213-.4,62.635,62.635,0,0,0-.262-6.518.434.434,0,0,1,.866-.069,61.642,61.642,0,0,1,.261,6.674,1.3,1.3,0,0,1-.631,1.039A1.857,1.857,0,0,1,405,196.36Z" transform="translate(-403.156 -188.036)" fill="#fc8664"/>
        </g>
        <path id="Path_26389" data-name="Path 26389" d="M411.6,197.1c-.355,1.749-1.535,4.969-5.509,4.969s-5.1-2.942-5.485-4.969Z" transform="translate(-385.668 -163.814)" fill="#fff"/>
        <path id="Path_26390" data-name="Path 26390" d="M392.053,192.084h1.969c-.217-1.936-.53-5.346,1.093-5.835,5.129-1.544-1.517-5.1.8-6.865s8.078-1.015,12.085-1.142c4.032-.127,10.512-.072,12.085.285s.712,2.918.135,4.906,1.932,4.179,2.354,6.234a8.86,8.86,0,0,1,0,2.417h1.641c.194-2.5.225-4.831.188-6.718a9.32,9.32,0,0,0-4.843-7.958c-7.953-4.417-16.343-2.77-21.867-.689a9.32,9.32,0,0,0-6.095,9.144C391.687,187.77,391.83,189.94,392.053,192.084Z" transform="translate(-388.032 -169.708)" fill="#2e3052"/>
      </g>
    </g>
    <g id="Group_62460" data-name="Group 62460" transform="translate(91.555 245.513)">
      <g id="Group_62459" data-name="Group 62459">
        <g id="Group_62430" data-name="Group 62430" transform="translate(8.844 163.977)">
          <g id="Group_62428" data-name="Group 62428">
            <path id="Path_26391" data-name="Path 26391" d="M184.03,364.751H84.115c1.651-10.024,9.6-17.306,18.869-17.276l31.088.091,31.088-.091C174.428,347.445,182.378,354.727,184.03,364.751Z" transform="translate(-84.115 -347.475)" fill="#fff"/>
          </g>
          <g id="Group_62429" data-name="Group 62429" transform="translate(7.859 15.841)">
            <rect id="Rectangle_21566" data-name="Rectangle 21566" width="5.444" height="93.156" fill="#fff"/>
            <rect id="Rectangle_21567" data-name="Rectangle 21567" width="5.444" height="93.156" transform="translate(78.753)" fill="#fff"/>
            <rect id="Rectangle_21568" data-name="Rectangle 21568" width="73.309" height="5.25" transform="translate(5.444 26.103)" fill="#dcedf9"/>
          </g>
        </g>
        <g id="Group_62458" data-name="Group 62458">
          <path id="Path_26392" data-name="Path 26392" d="M108.261,261.8s-16.686,22.254-18.908,41.661c-1.568,13.708,18.908,34.191,18.908,34.191l7.053-3.51-7.031-15.853c-2.5-7.72-5.581-10.772-3.305-18.562l5.091-10.979Z" transform="translate(-73.921 -205.954)" fill="#af412b"/>
          <path id="Path_26393" data-name="Path 26393" d="M147.428,261.538s16.469,23.729,17.834,43.216c1.176,16.8-18.986,32.972-18.986,32.972l-5.823-2.9,8.065-16.018c2.5-7.72,3.69-12.376.28-20.777l-4.329-9.212Z" transform="translate(-60.505 -206.023)" fill="#af412b"/>
          <g id="Group_62432" data-name="Group 62432" transform="translate(26.677 49.818)">
            <path id="Path_26394" data-name="Path 26394" d="M109.306,313.738,98.245,348.925s47.888,6.107,62.534,2.156l-7.439-38.323,5.151-50.037a71.322,71.322,0,0,0-22.524-5.51c-11.325-.818-18.479,1.05-30.06,5.846Z" transform="translate(-98.245 -257.025)" fill="#f65b3c"/>
            <g id="Group_62431" data-name="Group 62431" transform="translate(19.78 6.751)">
              <path id="Path_26395" data-name="Path 26395" d="M117.169,272.264c10.565-1.239,20.395-8.5,20.841-8.828a.59.59,0,1,0-.706-.945c-.116.086-11.682,8.619-22.806,8.77a.59.59,0,0,0,.015,1.18A26.3,26.3,0,0,0,117.169,272.264Z" transform="translate(-113.917 -262.374)" fill="#fff"/>
            </g>
          </g>
          <g id="Group_62434" data-name="Group 62434" transform="translate(23.532 131.702)">
            <path id="Path_26396" data-name="Path 26396" d="M123.239,419.575l.863,7.769,8.264.189.692-6.447Z" transform="translate(-88.548 -296.302)" fill="#f9af8b"/>
            <g id="Group_62433" data-name="Group 62433">
              <path id="Path_26397" data-name="Path 26397" d="M129.147,322s-21.4-1.175-28.645,4.756S94.712,349.7,102.1,354.344s19.969,13.775,19.969,13.775l8.006,79.59,10.579.36s9.747-79.95,4.8-95.434S129.147,322,129.147,322Z" transform="translate(-95.753 -321.903)" fill="#001030"/>
              <path id="Path_26398" data-name="Path 26398" d="M134.763,418.771a8.837,8.837,0,0,1-.273,5.451l-12.172-.27a14,14,0,0,1-.236-5.339Z" transform="translate(-88.891 -296.554)" fill="#2e3052"/>
            </g>
          </g>
          <g id="Group_62435" data-name="Group 62435" transform="translate(25.803 95.823)">
            <path id="Path_26399" data-name="Path 26399" d="M158.955,328.848H102.8L97.615,298.5a4.3,4.3,0,0,1,4.242-5.027H159.9a4.3,4.3,0,0,1,4.242,5.027Z" transform="translate(-97.552 -293.475)" fill="#fff"/>
            <path id="Rectangle_21569" data-name="Rectangle 21569" d="M0,0H56.207a0,0,0,0,1,0,0V2.978A3.621,3.621,0,0,1,52.586,6.6H3.621A3.621,3.621,0,0,1,0,2.978V0A0,0,0,0,1,0,0Z" transform="translate(5.252 35.373)" fill="#dcedf9"/>
            <path id="Path_26400" data-name="Path 26400" d="M129.948,309.493a4.877,4.877,0,1,1-4.877-4.877A4.877,4.877,0,0,1,129.948,309.493Z" transform="translate(-91.618 -290.555)" fill="#dcedf9"/>
          </g>
          <g id="Group_62437" data-name="Group 62437" transform="translate(20.549 129.304)">
            <path id="Path_26401" data-name="Path 26401" d="M95.811,402.262l-1.831,7.689,7.415,1.465,3.021-6.865Z" transform="translate(-93.234 -298.441)" fill="#f9af8b"/>
            <g id="Group_62436" data-name="Group 62436">
              <path id="Path_26402" data-name="Path 26402" d="M140.212,321.178s-14.33-4.941-22.731,5.436-22.468,97.977-22.468,97.977l9.644,3.981,31-77.8s25.245,14.406,28.3-6.073C166.379,328.493,140.212,321.178,140.212,321.178Z" transform="translate(-92.963 -320.002)" fill="#2e3052"/>
              <path id="Path_26403" data-name="Path 26403" d="M107.267,403.724a9.127,9.127,0,0,1-2.026,5.259l-11.853-4.192a14.447,14.447,0,0,1,1.489-5.313Z" transform="translate(-93.389 -299.171)" fill="#524e84"/>
            </g>
          </g>
          <g id="Group_62442" data-name="Group 62442" transform="translate(0 237.002)">
            <path id="Path_26404" data-name="Path 26404" d="M104.06,407.881a45,45,0,0,0-5.817-2.541c-1.323-.261-12.249,7.491-15.344,7.415-5.614-.138-7.411,8.105-4.221,9.226,9.229,3.245,26.308,2.842,26.308,2.842s3.793-10.252,3.863-13.714S106.5,409.432,104.06,407.881Z" transform="translate(-77.108 -405.334)" fill="#f65b3c"/>
            <g id="Group_62441" data-name="Group 62441" transform="translate(7.084 2.552)">
              <g id="Group_62438" data-name="Group 62438" transform="translate(2.897 1.555)">
                <path id="Path_26405" data-name="Path 26405" d="M92.172,414.352a.685.685,0,0,0,.529.016.651.651,0,0,0,.374-.854A10.27,10.27,0,0,0,90.1,409.48a4.711,4.711,0,0,0-4.739-.457.649.649,0,0,0-.265.894.68.68,0,0,0,.913.266,3.362,3.362,0,0,1,3.329.376,9.083,9.083,0,0,1,2.486,3.435A.672.672,0,0,0,92.172,414.352Z" transform="translate(-85.016 -408.588)" fill="#fff"/>
              </g>
              <g id="Group_62439" data-name="Group 62439" transform="translate(5.137)">
                <path id="Path_26406" data-name="Path 26406" d="M93.947,413.121a.691.691,0,0,0,.529.015.65.65,0,0,0,.374-.853,10.27,10.27,0,0,0-2.971-4.035,4.706,4.706,0,0,0-4.739-.457.649.649,0,0,0-.265.894.68.68,0,0,0,.913.266,3.363,3.363,0,0,1,3.329.376,9.044,9.044,0,0,1,2.486,3.435A.67.67,0,0,0,93.947,413.121Z" transform="translate(-86.791 -407.356)" fill="#fff"/>
              </g>
              <g id="Group_62440" data-name="Group 62440" transform="translate(0 2.662)">
                <path id="Path_26407" data-name="Path 26407" d="M89.877,415.23a.684.684,0,0,0,.529.016.652.652,0,0,0,.372-.856,10.27,10.27,0,0,0-2.97-4.034,4.709,4.709,0,0,0-4.741-.457.65.65,0,0,0-.264.894.681.681,0,0,0,.913.266,3.362,3.362,0,0,1,3.329.376,9.02,9.02,0,0,1,2.485,3.435A.672.672,0,0,0,89.877,415.23Z" transform="translate(-82.721 -409.465)" fill="#fff"/>
              </g>
            </g>
          </g>
          <g id="Group_62447" data-name="Group 62447" transform="translate(57.151 260.998)">
            <path id="Path_26408" data-name="Path 26408" d="M127.512,425.768a43.075,43.075,0,0,1,5.887-1.421c1.286-.025,10.261,9.068,13.18,9.511,5.3.8,5.615,8.842,2.432,9.367-9.206,1.515-25.18-1.7-25.18-1.7s-1.86-10.26-1.353-13.522S124.965,426.821,127.512,425.768Z" transform="translate(-122.39 -424.347)" fill="#f65b3c"/>
            <g id="Group_62446" data-name="Group 62446" transform="translate(10.477 3.419)">
              <g id="Group_62443" data-name="Group 62443" transform="translate(1.846 1.833)">
                <path id="Path_26409" data-name="Path 26409" d="M132.957,433.185a.655.655,0,0,1-.5-.072.622.622,0,0,1-.208-.865,9.8,9.8,0,0,1,3.459-3.3,4.49,4.49,0,0,1,4.527.357.62.62,0,0,1,.1.883.651.651,0,0,1-.9.1,3.2,3.2,0,0,0-3.191-.2,8.68,8.68,0,0,0-2.905,2.814A.634.634,0,0,1,132.957,433.185Z" transform="translate(-132.153 -428.508)" fill="#fff"/>
              </g>
              <g id="Group_62444" data-name="Group 62444">
                <path id="Path_26410" data-name="Path 26410" d="M131.494,431.735a.652.652,0,0,1-.5-.072.621.621,0,0,1-.21-.865,9.787,9.787,0,0,1,3.459-3.3,4.487,4.487,0,0,1,4.528.358.619.619,0,0,1,.1.882.65.65,0,0,1-.9.1,3.2,3.2,0,0,0-3.191-.2,8.6,8.6,0,0,0-2.9,2.813A.638.638,0,0,1,131.494,431.735Z" transform="translate(-130.69 -427.056)" fill="#fff"/>
              </g>
              <g id="Group_62445" data-name="Group 62445" transform="translate(4.383 3.353)">
                <path id="Path_26411" data-name="Path 26411" d="M134.967,434.392a.657.657,0,0,1-.5-.073.622.622,0,0,1-.208-.865,9.807,9.807,0,0,1,3.461-3.3,4.483,4.483,0,0,1,4.527.357.619.619,0,0,1,.1.882.65.65,0,0,1-.9.1,3.206,3.206,0,0,0-3.191-.2,8.6,8.6,0,0,0-2.9,2.815A.644.644,0,0,1,134.967,434.392Z" transform="translate(-134.163 -429.712)" fill="#fff"/>
              </g>
            </g>
          </g>
          <g id="Group_62457" data-name="Group 62457" transform="translate(37.627)">
            <path id="Path_26412" data-name="Path 26412" d="M143.868,222.039s6.81,10.549,6.063,21.535,1,23.668-8.827,23.112-27.366,3.942-32.94-4.616S143.868,222.039,143.868,222.039Z" transform="translate(-106.73 -216.377)" fill="#2e3052"/>
            <path id="Path_26413" data-name="Path 26413" d="M142.254,237.444s1.767,15.925-5.789,20.31-13.026-.51-13.026-.51S139.367,235.046,142.254,237.444Z" transform="translate(-102.591 -212.386)" fill="#000b29"/>
            <g id="Group_62456" data-name="Group 62456" transform="translate(2.887 7.919)">
              <g id="Group_62450" data-name="Group 62450" transform="translate(0 15.253)">
                <path id="Path_26414" data-name="Path 26414" d="M114.593,237.723s-2.714-3.617-4.73-.626.834,11.827,5.774,9.672Z" transform="translate(-109.208 -235.912)" fill="#fc8664"/>
                <g id="Group_62448" data-name="Group 62448" transform="translate(1.059 3.168)">
                  <path id="Path_26415" data-name="Path 26415" d="M114.338,243.379a.417.417,0,0,1-.4-.3,6.457,6.457,0,0,0-3.62-3.846.417.417,0,1,1,.3-.78,7.187,7.187,0,0,1,4.128,4.4.418.418,0,0,1-.289.515A.439.439,0,0,1,114.338,243.379Z" transform="translate(-110.047 -238.422)" fill="#fd664d"/>
                </g>
                <g id="Group_62449" data-name="Group 62449" transform="translate(2.08 4.808)">
                  <path id="Path_26416" data-name="Path 26416" d="M111.274,241.664a.426.426,0,0,1-.226-.066.419.419,0,0,1-.125-.577,3.814,3.814,0,0,1,1.568-1.263.417.417,0,1,1,.341.762,3.012,3.012,0,0,0-1.207.953A.415.415,0,0,1,111.274,241.664Z" transform="translate(-110.857 -239.722)" fill="#fd664d"/>
                </g>
              </g>
              <g id="Group_62453" data-name="Group 62453" transform="translate(32.304 15.253)">
                <path id="Path_26417" data-name="Path 26417" d="M135.848,237.723s2.714-3.617,4.732-.626-.836,11.827-5.775,9.672Z" transform="translate(-134.804 -235.912)" fill="#fc8664"/>
                <g id="Group_62451" data-name="Group 62451" transform="translate(0.661 3.168)">
                  <path id="Path_26418" data-name="Path 26418" d="M135.746,243.379a.417.417,0,0,0,.4-.3,6.457,6.457,0,0,1,3.621-3.846.417.417,0,0,0-.3-.78,7.19,7.19,0,0,0-4.128,4.4.419.419,0,0,0,.289.515A.439.439,0,0,0,135.746,243.379Z" transform="translate(-135.328 -238.422)" fill="#fd664d"/>
                </g>
                <g id="Group_62452" data-name="Group 62452" transform="translate(2.128 4.808)">
                  <path id="Path_26419" data-name="Path 26419" d="M138.294,241.664a.416.416,0,0,0,.351-.642,3.8,3.8,0,0,0-1.566-1.263.417.417,0,1,0-.341.762,3.013,3.013,0,0,1,1.205.953A.417.417,0,0,0,138.294,241.664Z" transform="translate(-136.49 -239.722)" fill="#fd664d"/>
                </g>
              </g>
              <path id="Path_26420" data-name="Path 26420" d="M132.514,250.452v8.787s-2.62,4.475-6.164,4.78-6.687-3.853-6.687-3.853v-9.1Z" transform="translate(-106.468 -216.848)" fill="#f9af8b"/>
              <path id="Path_26421" data-name="Path 26421" d="M132.514,250.452v3.9c-2.378,2.639-6.6,3.574-12.85,2.652v-5.933Z" transform="translate(-106.468 -216.848)" fill="#fc8664"/>
              <path id="Path_26422" data-name="Path 26422" d="M143.737,234.863a85.513,85.513,0,0,1-1.14,11.1c-.163.852-.347,1.653-.552,2.372-1.849,6.475-6.475,17.579-19.424,12.953-5.719-2.042-8.369-8.412-9.55-14.89a62.681,62.681,0,0,1-.865-12.023,9.175,9.175,0,0,1,4.655-7.806c7.643-4.333,15.708-2.717,21.018-.676A9.145,9.145,0,0,1,143.737,234.863Z" transform="translate(-108.426 -223.827)" fill="#f9af8b"/>
              <path id="Path_26423" data-name="Path 26423" d="M120.483,238.775c0,.938-.483,1.7-1.08,1.7s-1.079-.761-1.079-1.7.483-1.7,1.079-1.7S120.483,237.837,120.483,238.775Z" transform="translate(-106.819 -220.354)" fill="#2e3052"/>
              <path id="Path_26424" data-name="Path 26424" d="M131.048,238.775c0,.938-.483,1.7-1.08,1.7s-1.079-.761-1.079-1.7.483-1.7,1.079-1.7S131.048,237.837,131.048,238.775Z" transform="translate(-104.05 -220.354)" fill="#2e3052"/>
              <path id="Path_26425" data-name="Path 26425" d="M117.846,234.089a18.046,18.046,0,0,1,4.618-.693.8.8,0,0,1,.8.94l0,.013a.8.8,0,0,1-.825.656,20.293,20.293,0,0,0-6.326.775,1.214,1.214,0,0,1,.367-.858A2.78,2.78,0,0,1,117.846,234.089Z" transform="translate(-107.4 -221.319)" fill="#2e3052"/>
              <path id="Path_26426" data-name="Path 26426" d="M132.436,234.116a18,18,0,0,0-4.619-.692.8.8,0,0,0-.8.94l0,.013a.8.8,0,0,0,.825.656,20.285,20.285,0,0,1,6.324.775,1.21,1.21,0,0,0-.367-.859A2.776,2.776,0,0,0,132.436,234.116Z" transform="translate(-104.544 -221.312)" fill="#2e3052"/>
              <g id="Group_62454" data-name="Group 62454" transform="translate(17.959 17.162)">
                <path id="Path_26427" data-name="Path 26427" d="M124.99,245.592a1.76,1.76,0,0,1-.907-.217,1.275,1.275,0,0,1-.607-1.019,61.485,61.485,0,0,1,.251-6.548.417.417,0,1,1,.832.068,63.455,63.455,0,0,0-.252,6.394.453.453,0,0,0,.206.387,2.505,2.505,0,0,0,1.674-.158.418.418,0,0,1,.316.774A4.443,4.443,0,0,1,124.99,245.592Z" transform="translate(-123.438 -237.425)" fill="#fc8664"/>
              </g>
              <path id="Path_26428" data-name="Path 26428" d="M120.468,245.984c.316,1.588,1.364,4.51,4.9,4.51s4.535-2.669,4.877-4.51Z" transform="translate(-106.257 -218.02)" fill="#fff"/>
              <g id="Group_62455" data-name="Group 62455" transform="translate(16.902 33.565)">
                <path id="Path_26429" data-name="Path 26429" d="M124.757,251.766a4.169,4.169,0,0,1-1.959-.573.417.417,0,0,1,.438-.711h0a3.356,3.356,0,0,0,1.521.448,3.571,3.571,0,0,0,1.6-.449.417.417,0,0,1,.432.714A4.37,4.37,0,0,1,124.757,251.766Z" transform="translate(-122.601 -250.421)" fill="#fc8664"/>
              </g>
            </g>
            <path id="Path_26430" data-name="Path 26430" d="M145.633,235.827a1.373,1.373,0,0,1-1,.77,26.734,26.734,0,0,1-.15,3.09c-.516,6.033-2.037,7.093-2.382,5.6a69.647,69.647,0,0,1-.1-8.526,19.59,19.59,0,0,1-2.21-.278l-1.4-5.857-.49,5.786c-2.1.729-7-.44-7-.44l-1.643-5.773-1.016,5.555c-3.148,1.535-7.083.512-7.083.512l-.9-5.991-2.088,5.991s-6.717,2.409-6.79,0c-.045-1.4.982-5.351,1.85-8.409a12.651,12.651,0,0,1,6.1-7.744c8.331-4.473,17.142-2.094,20.165-.289C145.9,223.65,145.633,235.827,145.633,235.827Z" transform="translate(-105.755 -217.553)" fill="#2e3052"/>
            <path id="Path_26431" data-name="Path 26431" d="M116.237,222.393s-5.529,6.576-7.349,18.322-4.338,20.426,2.74,24.3c7.661,4.2,7-4.412,6.887-6.752s-6.626-8.735-2.278-26.749C117.641,225.7,116.237,222.393,116.237,222.393Z" transform="translate(-106.921 -216.284)" fill="#2e3052"/>
            <path id="Path_26432" data-name="Path 26432" d="M113.278,241.625v.014c0,.087.009.554.042,1.285.018.453.045,1,.087,1.632.26,3.957,1.03,10.791,3.292,13.161.892.938,2.614,1.409,4.64,1.6v-3.11a12.307,12.307,0,0,1-5.09-4.727,29.093,29.093,0,0,1-2.816-8.682Z" transform="translate(-105.254 -211.243)" fill="#000b29"/>
            <path id="Path_26433" data-name="Path 26433" d="M137.671,244.874a.978.978,0,1,1-.978-.978A.978.978,0,0,1,137.671,244.874Z" transform="translate(-99.373 -210.648)" fill="#fff"/>
          </g>
        </g>
      </g>
    </g>
    <g id="Group_62522" data-name="Group 62522" transform="translate(379.79 110.879)">
      <g id="Group_62521" data-name="Group 62521">
        <g id="Group_62518" data-name="Group 62518" transform="translate(0 17.672)">
          <g id="Group_62516" data-name="Group 62516" transform="translate(64.821)">
            <path id="Path_26457" data-name="Path 26457" d="M357.525,127.132a.959.959,0,0,0,.452,0c1.624-.4,2.566-.562,2.576-.563a.858.858,0,0,0,.729-.988.9.9,0,0,0-1.053-.685c-.04.006-1.011.173-2.712.592a.847.847,0,0,0-.647,1.037A.88.88,0,0,0,357.525,127.132Z" transform="translate(-356.841 -124.88)" fill="#dcedf9"/>
          </g>
          <g id="Group_62517" data-name="Group 62517" transform="translate(0 2.043)">
            <path id="Path_26458" data-name="Path 26458" d="M316.565,157.794c-.843,1.444-1.656,2.941-2.414,4.449a.925.925,0,0,1-1.041.462.911.911,0,0,1-.165-.056.828.828,0,0,1-.432-1.131c.774-1.541,1.6-3.068,2.465-4.542a.936.936,0,0,1,1.229-.337A.825.825,0,0,1,316.565,157.794Z" transform="translate(-303.662 -118.626)" fill="#dcedf9"/>
            <path id="Path_26459" data-name="Path 26459" d="M312.856,164.927c-.654,1.526-1.275,3.1-1.845,4.689a.918.918,0,0,1-1.08.552.688.688,0,0,1-.068-.019.839.839,0,0,1-.568-1.078c.582-1.616,1.215-3.222,1.881-4.777a.929.929,0,0,1,1.179-.472A.835.835,0,0,1,312.856,164.927Z" transform="translate(-304.495 -116.732)" fill="#dcedf9"/>
            <path id="Path_26460" data-name="Path 26460" d="M306.164,185.8a.854.854,0,0,1-.674-.933c.231-1.691.5-3.384.81-5.03a.9.9,0,0,1,1.049-.69.853.853,0,0,1,.736.983c-.3,1.621-.57,3.288-.8,4.954a.9.9,0,0,1-1.013.735A.78.78,0,0,1,306.164,185.8Z" transform="translate(-305.482 -112.703)" fill="#dcedf9"/>
            <path id="Path_26461" data-name="Path 26461" d="M309.414,171.361a.845.845,0,0,1,.629,1.048c-.222.747-.435,1.5-.636,2.247-.232.858-.456,1.735-.664,2.608a.908.908,0,0,1-1.083.642l-.024-.005a.849.849,0,0,1-.66-1.011c.212-.886.439-1.78.675-2.652.2-.757.422-1.526.647-2.286a.914.914,0,0,1,1.094-.6Z" transform="translate(-305.096 -114.748)" fill="#dcedf9"/>
            <path id="Path_26462" data-name="Path 26462" d="M318.192,155.261a.933.933,0,0,1-.988.37.943.943,0,0,1-.261-.1.819.819,0,0,1-.281-1.172c.966-1.435,1.99-2.855,3.047-4.223a.944.944,0,0,1,1.265-.189.816.816,0,0,1,.2,1.186C320.14,152.467,319.137,153.858,318.192,155.261Z" transform="translate(-302.589 -120.397)" fill="#dcedf9"/>
            <path id="Path_26463" data-name="Path 26463" d="M355.009,128.154c-1.652.53-3.328,1.123-4.983,1.764a.957.957,0,0,1-.568.039.89.89,0,0,1-.615-.5.832.832,0,0,1,.491-1.111c1.689-.655,3.4-1.261,5.089-1.8a.922.922,0,0,1,1.15.529A.84.84,0,0,1,355.009,128.154Z" transform="translate(-294.134 -126.499)" fill="#dcedf9"/>
            <path id="Path_26464" data-name="Path 26464" d="M342.448,133.472a.956.956,0,0,1-.664.081.892.892,0,0,1-.568-.409.824.824,0,0,1,.348-1.157c1.576-.824,3.2-1.617,4.821-2.354a.932.932,0,0,1,1.209.4.828.828,0,0,1-.422,1.136C345.582,131.886,343.993,132.663,342.448,133.472Z" transform="translate(-296.146 -125.7)" fill="#dcedf9"/>
            <path id="Path_26465" data-name="Path 26465" d="M328.878,142.957a.951.951,0,0,1-.843.2.914.914,0,0,1-.437-.244.813.813,0,0,1,.042-1.2c1.314-1.155,2.687-2.288,4.08-3.369a.946.946,0,0,1,1.275.114.817.817,0,0,1-.121,1.2C331.508,140.716,330.164,141.826,328.878,142.957Z" transform="translate(-299.749 -123.444)" fill="#dcedf9"/>
            <path id="Path_26466" data-name="Path 26466" d="M335.359,137.831a.957.957,0,0,1-.756.136.91.91,0,0,1-.51-.324.818.818,0,0,1,.2-1.188c1.453-.992,2.963-1.959,4.489-2.874a.942.942,0,0,1,1.251.259.82.82,0,0,1-.276,1.174C338.262,135.912,336.782,136.858,335.359,137.831Z" transform="translate(-298.028 -124.677)" fill="#dcedf9"/>
            <path id="Path_26467" data-name="Path 26467" d="M323.121,148.8a.941.941,0,0,1-.921.281.915.915,0,0,1-.353-.169.814.814,0,0,1-.121-1.2c1.15-1.305,2.36-2.591,3.6-3.825a.947.947,0,0,1,1.28-.037.813.813,0,0,1,.039,1.2C325.431,146.259,324.247,147.519,323.121,148.8Z" transform="translate(-301.279 -122.011)" fill="#dcedf9"/>
          </g>
        </g>
        <g id="Group_62520" data-name="Group 62520" transform="translate(64.575)">
          <g id="Group_62519" data-name="Group 62519">
            <path id="Path_26468" data-name="Path 26468" d="M358.477,125.047l-1.831-14.169,48,6.884Z" transform="translate(-356.646 -110.879)" fill="#febe3d"/>
            <path id="Path_26469" data-name="Path 26469" d="M404.378,116.332l-44.346,10.893-.117.03-2.228,2.554.517-6.192Z" transform="translate(-356.373 -109.449)" fill="#f8a23a"/>
            <path id="Path_26470" data-name="Path 26470" d="M357.687,127.541l3.985-.05-1.758-2.5Z" transform="translate(-356.373 -107.181)" fill="#f8a23a"/>
            <path id="Path_26471" data-name="Path 26471" d="M365.032,125.884l-5.581,1.371,9.078,12.925,35.386-23.847Z" transform="translate(-355.911 -109.449)" fill="#febe3d"/>
          </g>
        </g>
      </g>
    </g>
    <path id="Path_26472" data-name="Path 26472" d="M204.657,57.408c-3.4-7.3-16.187-6.1-16.187-6.1,7.886-4.653,6.375-16.469,6.28-17.167,3.449,10.3,15.357,8.027,16.424,7.8-7.907,1.951-6.516,15.465-6.516,15.465ZM182.493,72.387c-2.162-4.64-10.293-3.877-10.293-3.877,5.147-3.059,3.98-10.932,3.98-10.932v.046c2.208,6.512,9.762,5.068,10.434,4.927C181.609,63.8,182.493,72.387,182.493,72.387Z" transform="translate(-139.322 149.549)" fill="#eb883b"/>
  </g>
</svg>
