<svg xmlns="http://www.w3.org/2000/svg" width="33.723" height="30" viewBox="0 0 33.723 30">
  <path id="info" d="M34.76,23.9,24.623,7.009a6.568,6.568,0,0,0-5.592-3.5,6.584,6.584,0,0,0-5.592,3.482L3.3,23.9A7.385,7.385,0,0,0,2.17,27.7a5.594,5.594,0,0,0,.72,2.779A6.448,6.448,0,0,0,8.739,33.51H29.323a6.448,6.448,0,0,0,5.849-3.036,5.388,5.388,0,0,0,.72-2.71A7.252,7.252,0,0,0,34.76,23.9ZM19.031,11.983a2.659,2.659,0,1,1-2.659,2.659A2.672,2.672,0,0,1,19.031,11.983Zm2.9,14.511a4.915,4.915,0,0,1-3.551,1.578h-.257A2.508,2.508,0,0,1,16.1,26.992a3.529,3.529,0,0,1-.206-3.122l.7-2.093c.395-1.166.017-1.355-.189-1.458l-.24-.034a3.21,3.21,0,0,0-1.218.36.431.431,0,0,1-.532-.12.438.438,0,0,1,.017-.549,4.909,4.909,0,0,1,3.808-1.561A2.508,2.508,0,0,1,20.266,19.5a3.506,3.506,0,0,1,.206,3.139l-.7,2.093c-.395,1.166-.017,1.355.189,1.458l.24.034a3.587,3.587,0,0,0,1.218-.343.407.407,0,0,1,.532.12.37.37,0,0,1-.017.5Z" transform="translate(-2.17 -3.51)" fill="#5b59df"/>
</svg>
