<svg id="Icon_ionic-ios-eye" data-name="Icon ionic-ios-eye" xmlns="http://www.w3.org/2000/svg" width="15.339" height="9.86" viewBox="0 0 15.339 9.86">
  <path id="Path_64" data-name="Path 64" d="M9.913,7.875c-2.753,0-4.923,1.732-7.518,4.564a.541.541,0,0,0,0,.729c2.222,2.455,4.18,4.567,7.522,4.567,3.3,0,5.776-2.66,7.535-4.588a.537.537,0,0,0,.017-.709C15.672,10.265,13.189,7.875,9.913,7.875Zm.151,8.008A3.081,3.081,0,1,1,13,12.949,3.083,3.083,0,0,1,10.064,15.883Z" transform="translate(-2.252 -7.875)" fill="#575858"/>
  <path id="Path_65" data-name="Path 65" d="M15.692,14.082A1.609,1.609,0,0,1,15.8,13.5c-.034,0-.068,0-.106,0a2.191,2.191,0,1,0,2.191,2.191c0-.045,0-.089,0-.134a1.518,1.518,0,0,1-.623.134A1.589,1.589,0,0,1,15.692,14.082Z" transform="translate(-8.024 -10.761)" fill="#575858"/>
</svg>
