<svg xmlns="http://www.w3.org/2000/svg" width="16.531" height="13.225" viewBox="0 0 16.531 13.225">
  <path id="ic_eye" d="M8.265,10.331A3.705,3.705,0,0,1,4.574,6.893L1.865,4.8A8.609,8.609,0,0,0,.916,6.235a.836.836,0,0,0,0,.754,8.284,8.284,0,0,0,7.349,4.582,8.023,8.023,0,0,0,2.012-.27l-1.34-1.037A3.723,3.723,0,0,1,8.265,10.331Zm8.106,1.5L13.515,9.625a8.556,8.556,0,0,0,2.1-2.636.836.836,0,0,0,0-.754A8.284,8.284,0,0,0,8.265,1.653a7.959,7.959,0,0,0-3.805.974L1.174.087a.413.413,0,0,0-.58.073L.087.812a.413.413,0,0,0,.073.58l15.2,11.745a.413.413,0,0,0,.58-.073l.507-.653A.413.413,0,0,0,16.371,11.832ZM11.626,8.164,10.611,7.38a2.447,2.447,0,0,0-3-3.149,1.231,1.231,0,0,1,.24.729,1.2,1.2,0,0,1-.04.258l-1.9-1.469a3.676,3.676,0,0,1,2.354-.855,3.717,3.717,0,0,1,3.719,3.719,3.631,3.631,0,0,1-.359,1.553Z" fill="#b7b7b7"/>
</svg>
