<svg xmlns="http://www.w3.org/2000/svg" width="20.366" height="20.38" viewBox="0 0 20.366 20.38">
  <g id="import-36" transform="translate(0 0)">
    <path id="Path_26478" data-name="Path 26478" d="M0,841.265m1.327,0H19.039a1.173,1.173,0,0,1,1.327,1.328v.982a1.173,1.173,0,0,1-1.327,1.328H1.327A1.173,1.173,0,0,1,0,843.574v-.982A1.173,1.173,0,0,1,1.327,841.265Z" transform="translate(0 -824.522)" fill="#fff"/>
    <path id="Path_26479" data-name="Path 26479" d="M223.919,13.892l4.513-5.513a.382.382,0,0,0-.3-.626h-1.982c0-6.437-5.724-7.586-8.812-7.739a.377.377,0,1,0-.2.727c2.295,1.233,3.306,3.328,3.426,6.612a.382.382,0,0,1-.382.386H218.6a.382.382,0,0,0-.295.64l4.513,5.528a.727.727,0,0,0,1.1-.015Z" transform="translate(-212.547 0)" fill="#fff"/>
  </g>
</svg>
