<svg id="Component_69_1" data-name="Component 69 – 1" xmlns="http://www.w3.org/2000/svg" width="21.6" height="24" viewBox="0 0 21.6 24">
  <path id="Path_26487" data-name="Path 26487" d="M25.2,4.4H20.178a3.577,3.577,0,0,0-6.756,0H8.4A2.4,2.4,0,0,0,6,6.8V23.6A2.4,2.4,0,0,0,8.4,26H25.2a2.4,2.4,0,0,0,2.4-2.4V6.8A2.4,2.4,0,0,0,25.2,4.4Zm-8.4,0a1.2,1.2,0,1,1-1.2,1.2A1.2,1.2,0,0,1,16.8,4.4Zm2.4,16.8H10.8V18.8h8.4Zm3.6-4.8h-12V14h12Zm0-4.8h-12V9.2h12Z" transform="translate(-6 -2)" fill="#cbcbcb"/>
</svg>
