<svg xmlns="http://www.w3.org/2000/svg" width="20.382" height="20.38" viewBox="0 0 20.382 20.38">
  <g id="export-47" transform="translate(0 -0.118)">
    <path id="Path_26480" data-name="Path 26480" d="M0,841.143m1.328,0H19.054a1.174,1.174,0,0,1,1.328,1.328v.983a1.174,1.174,0,0,1-1.328,1.328H1.328A1.174,1.174,0,0,1,0,843.454v-.983a1.174,1.174,0,0,1,1.328-1.328Z" transform="translate(0 -824.285)" fill="#cbcbcb"/>
    <path id="Path_26481" data-name="Path 26481" d="M132.632,5.077,126.644.192a.328.328,0,0,0-.535.251v1.82a.331.331,0,0,1-.3.324c-7.753.764-8.735,7.134-8.783,10.148a.328.328,0,0,0,.622.146c1.456-3,4.535-4.586,8.117-4.732a.331.331,0,0,1,.342.331v1.754a.328.328,0,0,0,.535.255l5.987-4.914a.331.331,0,0,0,0-.5Z" transform="translate(-114.699 0)" fill="#cbcbcb"/>
  </g>
</svg>
