<svg id="Layer_2" data-name="Layer 2" xmlns="http://www.w3.org/2000/svg" width="17.722" height="17.722" viewBox="0 0 17.722 17.722">
  <g id="save" transform="translate(0 0)">
    <path id="Path_26476" data-name="Path 26476" d="M10,17h3.938v3.938H10Z" transform="translate(-3.108 -3.216)" fill="#fff"/>
    <path id="Path_26477" data-name="Path 26477" d="M19.856,8.622,15.1,3.866A2.954,2.954,0,0,0,13.013,3H9.892V8.907h4.923a.985.985,0,0,1,0,1.969H8.907a.985.985,0,0,1-.985-.985V3H5.954A2.954,2.954,0,0,0,3,5.954V17.769a2.954,2.954,0,0,0,2.954,2.954H7.923V16.784a1.969,1.969,0,0,1,1.969-1.969H13.83A1.969,1.969,0,0,1,15.8,16.784v3.938h1.969a2.954,2.954,0,0,0,2.954-2.954V10.709a2.954,2.954,0,0,0-.866-2.087Z" transform="translate(-3 -3)" fill="#fff"/>
  </g>
</svg>
