<svg width="334" height="246" viewBox="0 0 334 246" fill="none" xmlns="http://www.w3.org/2000/svg">
<g clip-path="url(#clip0_51_4)">
<g opacity="0.5">
<path opacity="0.5" d="M299.728 241.452C306.866 247.516 27.1311 247.516 34.2387 241.452C27.1336 235.387 306.866 235.387 299.728 241.452Z" fill="#FFD86D"/>
<g opacity="0.3">
<path opacity="0.8" d="M289.087 119.681C286.354 279.257 47.6769 279.225 44.9766 119.681C47.6769 -39.8938 286.386 -39.8938 289.087 119.681Z" fill="#FFD86D"/>
<path opacity="0.6" d="M143.033 169.744C141.425 263.259 1.57512 263.225 0 169.744C1.60742 76.2311 141.457 76.2635 143.033 169.744Z" fill="#FFD86D"/>
<path opacity="0.6" d="M190.967 169.744C192.575 263.259 332.425 263.225 334 169.744C332.392 76.2311 192.542 76.2635 190.967 169.744Z" fill="#FFD86D"/>
<path opacity="0.5" d="M236.009 97.3273C237.102 161.39 332.939 161.39 334 97.3273C332.907 33.2653 237.069 33.2653 236.009 97.3273Z" fill="#FFD86D"/>
<path opacity="0.5" d="M97.9912 97.3273C96.8982 161.39 1.09295 161.357 0 97.3273C1.09295 33.2653 96.8982 33.2653 97.9912 97.3273Z" fill="#FFD86D"/>
</g>
</g>
<g opacity="0.8">
<g opacity="0.5">
<g opacity="0.8">
<path d="M42.4691 154.035C41.1512 153.648 42.63 152.519 43.1762 151.745C48.7701 145.132 56.3574 136.487 62.4658 129.391C60.2476 131.649 57.7722 134.133 55.4254 136.52C39.2865 152.938 39.1256 152.938 38.7074 152.938C38.0003 152.906 38.0979 152.132 38.5148 151.745C45.5858 143.423 55.2967 132.745 62.7554 124.133C56.2288 130.745 47.195 140.035 40.9903 146.293C34.6569 152.357 35.3963 152.357 34.207 152.002C33.7889 151.583 34.0784 151.228 35.3652 149.678C42.4361 141.388 52.597 130.389 60.2488 121.679C54.0118 127.84 29.7389 152.904 31.6359 150.162C31.492 150.157 31.3548 150.1 31.25 150.001C30.8319 149.581 31.0891 149.291 32.5039 147.581C39.4481 139.517 49.1249 128.969 56.7121 120.453C54.2367 122.969 51.504 125.743 48.8677 128.42C30.5423 147.065 29.514 147.968 28.9672 147.968C27.9066 147.581 28.3241 147.258 29.8675 145.355C36.9726 137.129 46.8744 126.324 54.5903 117.649C50.9249 121.327 46.5531 125.746 42.6306 129.713C26.8776 145.615 26.8429 145.615 26.4594 145.615C26.3156 145.61 26.1784 145.552 26.0736 145.453C25.525 144.421 27.2318 143.389 27.9706 142.195C33.7895 135.357 41.473 126.873 48.1283 119.422C42.8555 124.551 27.4561 140.97 24.4022 142.776C24.2583 142.771 24.1211 142.714 24.0163 142.615C23.5018 141.776 24.5948 141.293 25.1093 140.453C32.2467 132.197 42.4697 121.035 50.0569 112.422C47.0701 115.455 43.5303 119.067 40.1868 122.486C23.8871 139.131 22.9868 139.873 22.5046 139.873C21.444 139.518 21.8615 139.131 23.3086 137.389C29.77 129.842 38.6757 120.035 45.7168 112.035C42.9518 114.809 39.804 117.968 36.8117 121.003C21.1227 136.843 21.0587 136.843 20.6729 136.843C19.8048 136.585 19.9658 136.232 20.9941 135.069C27.681 127.328 36.8117 117.135 43.6595 109.167C40.2825 112.392 19.611 133.808 20.3827 132.359C20.2388 132.354 20.1017 132.296 19.9968 132.197C19.4824 131.391 20.6399 130.778 21.155 129.939C26.0096 124.036 32.4716 116.585 37.9369 110.134C36.1692 111.94 34.2716 113.843 32.5356 115.617C19.9328 128.133 20.8978 128.101 19.5793 127.779C18.9362 126.875 21.6049 124.65 22.5662 123.133C25.5238 119.456 29.8962 114.134 33.2073 110.037C16.0719 128.004 18.2578 123.811 26.874 111.521C25.2019 113.198 25.1672 113.199 24.9453 113.199C24.8318 113.2 24.721 113.164 24.6296 113.096C24.5382 113.028 24.4711 112.933 24.4384 112.824C24.4058 112.715 24.4093 112.598 24.4485 112.491C24.4877 112.384 24.5604 112.293 24.6557 112.231C24.913 112.005 26.2955 110.586 27.3561 109.553C29.8316 107.037 29.8316 107.037 30.0888 107.037C31.4713 107.457 29.7029 108.94 29.1885 110.005C27.6134 112.359 25.2342 115.843 23.4982 118.424C25.9736 116.1 39.9266 101.424 39.0908 102.941C39.9912 103.199 39.7662 103.586 38.7696 104.844C34.7831 109.908 29.414 116.36 25.0416 121.779C27.0989 119.715 29.478 117.263 31.7608 114.94C44.43 102.005 44.5586 102.005 44.9768 102.005C45.6522 102.037 45.6199 102.812 45.2017 103.167C40.0899 109.392 33.3707 117.102 27.7444 123.747C66.1628 84.1998 45.8442 109.007 29.9949 126.424C31.9559 124.457 34.0455 122.36 36.0388 120.328C53.0456 103.168 53.1102 103.168 53.5278 103.168C54.5884 103.522 54.1373 103.909 52.6921 105.684C46.1015 113.425 36.9043 123.522 29.7377 131.651C32.6953 128.683 36.1381 125.135 39.4145 121.812C55.682 105.2 56.55 104.458 57.0645 104.458C58.1574 104.878 57.7716 105.103 55.9715 107.296C49.0597 115.361 39.5431 125.78 31.9236 134.36C36.1028 130.296 61.6618 103.909 59.7972 106.522C59.941 106.527 60.0782 106.585 60.183 106.684C60.6652 107.426 59.7648 107.813 59.3473 108.457C51.7277 117.134 41.601 128.263 33.6602 137.295C36.1357 134.779 38.997 131.908 41.8284 129.038C62.436 108.555 61.4716 108.588 62.8218 108.942C63.24 109.362 62.9827 109.684 61.5039 111.426C54.2702 119.781 44.1752 130.814 36.363 139.621C39.9314 136.041 44.2075 131.686 48.0332 127.783C64.2683 111.269 64.3652 111.269 64.8151 111.269C64.959 111.275 65.0961 111.332 65.2009 111.431C65.6191 111.851 65.3296 112.205 63.8831 113.915C57.0675 121.85 47.7119 132.043 40.1893 140.494C42.5056 138.14 45.0439 135.591 47.4553 133.107C65.4271 114.85 66.3591 114.044 66.8395 114.044C67.9324 114.431 67.449 114.85 65.9074 116.721C58.8974 124.947 49.0609 135.656 41.4419 144.301C48.1289 137.656 70.3762 114.399 69.0906 116.754C69.2345 116.759 69.3716 116.816 69.4764 116.915C69.8946 117.335 69.7014 117.625 67.9653 119.689C61.9532 126.818 54.0124 135.624 47.1645 143.398C55.0413 135.56 70.6657 119.173 70.0232 120.722C70.7626 120.818 70.6663 121.496 70.1841 121.98C64.3975 128.947 56.8743 137.431 50.4763 144.882C51.8911 143.463 53.3376 141.946 54.7841 140.527C70.1512 124.786 71.6306 123.431 70.7943 126.238C65.7148 132.528 58.9633 140.399 53.4016 147.076C56.4238 144.14 72.1762 127.722 71.0515 129.496C71.1954 129.501 71.3326 129.558 71.4374 129.657C71.9196 130.367 71.0192 130.851 70.6334 131.561C67.3222 135.819 63.0138 141.141 59.2205 145.883C69.7014 135.27 70.6334 134.14 70.3444 136.335C69.4118 137.013 64.0111 142.528 59.7673 146.818C53.4961 153.135 53.5284 153.135 53.2072 153.135C52.3714 152.877 52.4677 152.585 53.3998 151.457C56.9352 146.941 61.6624 141.135 65.5521 136.265C64.5877 137.232 63.5911 138.232 62.5944 139.261C48.1917 153.808 48.0307 153.808 47.6132 153.808C47.4693 153.803 47.3321 153.745 47.2273 153.646C46.8092 153.227 46.8092 153.227 50.9889 148.195C54.7829 143.647 60.3153 137.099 64.4914 132.099C61.7587 134.873 58.5116 138.163 55.5863 141.131C42.9518 154.036 42.8549 154.036 42.4691 154.036V154.035ZM62.4018 142.843C62.4647 142.904 62.5421 142.949 62.6268 142.972C62.5453 142.941 62.4693 142.898 62.4018 142.843ZM17.6817 118.811C17.8242 118.822 17.9594 118.878 18.0676 118.972C17.9911 118.89 17.8896 118.837 17.7793 118.819C17.6689 118.802 17.5559 118.821 17.458 118.875C17.5276 118.839 17.6036 118.817 17.6817 118.811Z" fill="#DEA629"/>
</g>
<g opacity="0.8">
<path d="M178.203 60.5546C177.239 60.2641 178.332 59.4256 178.718 58.877C182.833 54.0062 188.395 47.6846 192.863 42.4585C186.144 48.9097 173.735 62.9742 175.277 58.877C180.453 52.7481 187.591 44.9422 193.056 38.6194C187.719 43.7483 177.013 55.5866 172.384 59.1694C171.612 58.9113 171.934 58.5889 172.962 57.3627C178.17 51.2986 185.597 43.2016 191.223 36.8127C186.658 41.3288 168.847 59.7479 170.23 57.7156C170.175 57.7185 170.12 57.7083 170.069 57.6859C170.019 57.6635 169.975 57.6294 169.94 57.5865C169.426 56.7798 172.448 54.2643 173.573 52.7157C177.784 47.9415 184.086 41.0065 188.619 35.91C154.38 71.1666 169.072 53.3933 187.075 33.8458C184.375 36.5552 181.163 39.7784 178.298 42.7141C166.756 54.3909 166.724 54.3909 166.434 54.3909C166.38 54.3907 166.326 54.3792 166.276 54.357C166.226 54.3348 166.182 54.3024 166.145 54.2618C165.759 53.4551 166.981 52.7781 167.527 51.8766C171.803 46.8767 177.429 40.6187 182.316 35.1675C178.458 38.9417 167.141 50.9732 164.891 52.2961C163.894 52.0056 165.02 51.1671 165.405 50.5836C170.648 44.5196 178.137 36.3259 183.731 30.0037C154.057 60.7448 159.683 52.616 180.516 29.7132C149.556 61.3571 163.027 45.5838 179.005 27.5842C176.529 29.9389 161.355 45.6804 161.902 44.6162C161.847 44.616 161.793 44.6045 161.743 44.5823C161.693 44.5601 161.649 44.5277 161.612 44.4871C161.226 43.8755 162.094 43.4547 162.448 42.8419C166.016 38.5197 170.742 33.0361 174.761 28.3261C155.921 48.0027 158.719 43.2609 171.321 28.2612C158.783 41.4224 160.358 38.3252 166.659 29.3579C165.44 30.5811 165.405 30.5811 165.245 30.5811C165.161 30.5822 165.08 30.5565 165.013 30.5077C164.945 30.4589 164.895 30.3896 164.87 30.31C164.845 30.2305 164.846 30.1449 164.873 30.066C164.899 29.987 164.951 29.9189 165.02 29.8716C165.405 29.5811 168.974 25.6784 169.006 26.065C170.678 26.0007 164.634 33.2581 164.184 34.4195C165.985 32.707 176.24 21.936 175.629 23.065C176.304 23.2583 176.111 23.5488 175.404 24.4522C172.478 28.1616 168.524 32.9033 165.341 36.8708C166.853 35.3546 168.621 33.5486 170.26 31.8385C179.551 22.355 179.647 22.355 179.969 22.355C180.484 22.3874 180.451 22.9354 180.13 23.1935C176.368 27.742 171.45 33.4189 167.335 38.2897C195.369 9.42196 180.645 27.4839 168.974 40.2573C200.802 7.71008 182.381 29.1933 168.782 44.0957C170.936 41.9025 173.475 39.3215 175.887 36.8702C187.847 24.6772 188.457 24.1286 188.843 24.1286C188.898 24.1257 188.953 24.1359 189.003 24.1583C189.054 24.1808 189.098 24.2148 189.133 24.2577C189.422 24.5482 189.294 24.7739 188.04 26.2252C182.96 32.1284 175.984 39.7729 170.39 46.0957C173.476 43.0988 192.22 23.7415 190.837 25.6772C190.892 25.6774 190.946 25.6889 190.995 25.7111C191.045 25.7334 191.09 25.7658 191.127 25.8063C191.545 26.5806 189.487 28.0319 188.749 29.1285C183.766 34.7088 176.854 42.3863 171.678 48.2571C206.881 12.2262 192.159 29.7738 173.671 49.9347C176.275 47.3219 179.426 44.0963 182.255 41.2579C194.15 29.1291 194.247 29.1291 194.568 29.1291C194.623 29.1262 194.678 29.1364 194.728 29.1588C194.779 29.1812 194.823 29.2153 194.858 29.2582C195.34 30.1291 192.254 32.7095 191.064 34.3223C186.98 38.935 180.969 45.5801 176.5 50.58C210.514 15.5808 194.086 35.2898 177.433 53.3866C203.667 26.0974 204.663 27.194 181.644 52.709C208.135 25.3873 199.648 36.1956 184.056 53.7732C208.907 28.0967 198.041 41.612 186.178 55.3535C188.396 53.1921 199.937 41.1606 199.134 42.4487C200.42 42.771 197.687 45.0939 197.077 46.1581C195.244 48.4822 192.576 51.8032 190.421 54.4484C198.362 46.6424 197.655 46.6424 198.59 46.9005C199.008 47.6424 193.703 51.868 190.841 55.126C186.244 59.7712 186.244 59.7712 186.019 59.7712C185.965 59.771 185.911 59.7595 185.861 59.7373C185.811 59.715 185.766 59.6826 185.73 59.6421C185.472 59.384 185.569 59.255 186.148 58.5131C188.752 55.1909 192.224 50.9329 195.053 47.3519C187.144 55.3193 181.936 60.8684 181.872 60.3179C181.817 60.3209 181.762 60.3107 181.711 60.2883C181.661 60.2658 181.617 60.2318 181.582 60.1889C181.261 59.8984 181.261 59.8984 184.347 56.189C187.112 52.8343 191.195 48.0277 194.249 44.385C192.223 46.4174 189.844 48.8363 187.722 51.0301C178.56 60.5461 178.495 60.5461 178.206 60.5461L178.203 60.5546ZM184.73 40.4261C184.776 40.4699 184.831 40.5029 184.891 40.5227C184.826 40.5227 184.794 40.4909 184.73 40.4261ZM151.905 22.7813C152.009 22.7836 152.11 22.8173 152.195 22.8779C152.136 22.8222 152.061 22.7861 151.98 22.7747C151.9 22.7632 151.818 22.7768 151.745 22.8137C151.799 22.8062 151.853 22.7956 151.905 22.7819V22.7813Z" fill="#DEA629"/>
</g>
<g opacity="0.8">
<path d="M291.08 144.197C290.437 144.004 291.177 143.455 291.434 143.068C294.166 139.843 297.863 135.617 300.853 132.165C279.667 153.906 291.884 139.681 300.982 129.617C297.447 133.036 290.309 140.906 287.254 143.293C286.74 143.132 286.964 142.906 287.64 142.07C291.08 138.038 296.031 132.651 299.76 128.425C278.896 149.908 283.654 143.521 298.024 127.845C275.488 151.07 285.068 139.425 296.995 126.49C295.195 128.297 293.073 130.426 291.144 132.393C283.461 140.165 283.429 140.165 283.268 140.165C282.85 140.101 282.979 139.745 283.268 139.391C286.354 135.649 290.278 131.391 293.845 127.391C291.273 129.907 283.75 137.907 282.271 138.778C281.596 138.584 282.335 138.036 282.625 137.649C286.099 133.616 291.08 128.165 294.81 123.972C275.23 144.261 278.896 138.907 292.688 123.779C272.24 144.682 281.082 134.295 291.691 122.359C290.051 123.94 279.956 134.391 280.342 133.681C279.667 133.488 280.438 132.907 280.728 132.519C283.105 129.648 286.258 126.003 288.896 122.874C276.454 135.874 278.255 132.745 286.613 122.842C278.319 131.583 279.347 129.487 283.527 123.551C282.563 124.455 282.82 124.455 282.402 124.293C282.145 123.777 283.174 123.357 283.752 122.581C284.971 121.357 284.971 121.357 285.102 121.357C286.131 121.551 282.241 126.003 281.887 126.906C294.715 113.584 289.442 120.39 282.659 128.519C298.155 112.455 292.915 119.261 283.977 129.486C302.495 110.39 292.816 122.325 285.07 130.777C305.999 109.358 293.975 123.422 284.941 133.325C306.514 111.002 298.572 120.971 286.002 134.648C288.059 132.648 300.501 119.777 299.601 121.07C300.211 121.231 299.634 121.715 299.376 122.006C295.647 126.231 290.729 131.651 286.838 136.073C310.05 112.299 300.438 123.847 288.156 137.202C308.571 116.106 304.488 121.88 290.021 137.621C312.429 114.558 301.691 127.492 290.63 139.492C307.991 121.428 308.634 122.203 293.428 139.041C310.885 121.009 305.355 128.138 295.035 139.75C311.432 122.783 304.326 131.686 296.45 140.814C297.929 139.395 305.612 131.363 305.066 132.234C306.285 132.331 299.922 139.073 299.279 140.202C304.552 135.008 304.102 135.008 304.713 135.202C304.873 135.847 301.562 138.395 299.568 140.685C296.514 143.782 296.514 143.782 296.386 143.782C295.132 143.749 301.819 136.621 302.398 135.556C286.61 151.846 295.164 141.331 301.849 133.589C300.499 134.944 298.923 136.556 297.509 138.008C291.305 144.201 291.272 144.201 291.08 144.201L291.08 144.197ZM320.047 140.681C320.079 140.713 320.111 140.745 320.143 140.745C320.111 140.745 320.079 140.715 320.047 140.681ZM298.218 128.973C298.286 128.979 298.352 129.001 298.41 129.037C298.376 128.994 298.326 128.967 298.272 128.961C298.218 128.955 298.164 128.971 298.121 129.004C298.133 128.992 298.149 128.983 298.166 128.977C298.182 128.972 298.2 128.97 298.218 128.973Z" fill="#DEA629"/>
</g>
</g>
<g opacity="0.5">
<path opacity="0.5" d="M8.77637 102.166C27.4764 91.2005 47.1506 82 67.5457 74.6833C48.8358 85.6302 29.1634 94.8299 8.77637 102.166Z" fill="#DEA629"/>
<path opacity="0.5" d="M107.443 47.4907C126.452 37.1284 146.079 27.95 166.212 20.0076C147.196 30.3568 127.57 39.5348 107.443 47.4907Z" fill="#DEA629"/>
<path opacity="0.5" d="M285.229 153.358C297.536 146.562 310.284 140.603 323.387 135.52C311.073 142.303 298.326 148.262 285.229 153.358Z" fill="#DEA629"/>
</g>
</g>
<path d="M238.998 142.713L282.593 117.684C282.82 117.554 283.009 117.366 283.14 117.14C283.271 116.913 283.34 116.656 283.34 116.394C283.34 116.132 283.271 115.874 283.14 115.648C283.009 115.421 282.82 115.233 282.593 115.104L238.998 90.0394C238.772 89.9057 238.514 89.8346 238.251 89.833C237.988 89.8315 237.729 89.8996 237.501 90.0305C237.272 90.1615 237.082 90.3506 236.95 90.5787C236.818 90.8069 236.748 91.066 236.748 91.3298V103.91C236.747 104.107 236.708 104.303 236.631 104.485C236.555 104.667 236.443 104.832 236.302 104.97C236.162 105.108 235.995 105.216 235.812 105.289C235.629 105.362 235.433 105.398 235.237 105.394H186.467C186.071 105.391 185.69 105.546 185.407 105.824C185.124 106.102 184.962 106.48 184.956 106.877V125.843C184.956 126.04 184.996 126.236 185.072 126.418C185.149 126.599 185.26 126.764 185.401 126.902C185.542 127.041 185.708 127.149 185.891 127.222C186.074 127.295 186.27 127.33 186.467 127.327H235.269C235.665 127.324 236.046 127.479 236.329 127.757C236.612 128.034 236.774 128.413 236.78 128.81V141.39C236.773 141.654 236.836 141.915 236.963 142.146C237.09 142.377 237.277 142.57 237.503 142.705C237.729 142.839 237.986 142.911 238.249 142.913C238.512 142.914 238.771 142.845 238.998 142.713Z" fill="#FCB316"/>
<path d="M206.657 186.808L234.916 170.583C235.063 170.498 235.184 170.376 235.269 170.228C235.354 170.081 235.398 169.914 235.398 169.744C235.398 169.574 235.354 169.407 235.269 169.26C235.184 169.113 235.063 168.99 234.916 168.905L206.657 152.681C206.51 152.595 206.344 152.549 206.174 152.549C206.004 152.548 205.837 152.593 205.69 152.678C205.544 152.763 205.422 152.886 205.337 153.034C205.253 153.181 205.209 153.349 205.21 153.519V161.648C205.209 161.904 205.107 162.15 204.927 162.331C204.746 162.513 204.501 162.615 204.246 162.616H172.642C172.515 162.613 172.389 162.637 172.27 162.685C172.152 162.732 172.045 162.804 171.955 162.894C171.865 162.984 171.794 163.092 171.747 163.21C171.699 163.329 171.676 163.455 171.678 163.583V175.873C171.679 176.129 171.781 176.375 171.961 176.556C172.142 176.737 172.387 176.84 172.642 176.84H204.245C204.372 176.838 204.499 176.861 204.617 176.909C204.735 176.957 204.842 177.028 204.932 177.119C205.022 177.209 205.093 177.316 205.141 177.435C205.188 177.553 205.212 177.68 205.209 177.808V185.937C205.204 186.109 205.244 186.281 205.326 186.432C205.408 186.584 205.53 186.711 205.677 186.8C205.825 186.889 205.994 186.937 206.166 186.938C206.338 186.94 206.507 186.895 206.657 186.808Z" fill="#FCB316"/>
<path d="M73.9114 116.004C57.483 107.327 90.6933 99.1657 95.323 89.4882C98.6987 81.8432 102.235 72.1339 112.909 76.4244C124.386 80.4567 120.882 91.8754 119.98 98.8752C128.885 107.778 129.014 120.004 115.318 120.391C109.756 120.552 103.455 119.875 99.5302 124.294C95.5436 130.068 91.362 133.52 84.1631 134.713C80.7233 135.359 76.029 135.036 76.8971 130.907C78.5727 122.778 85.9997 121.681 73.9114 116.004Z" fill="#263238"/>
<path d="M114.902 95.4241C114.902 95.4241 114.998 104.553 117.955 105.359C117.955 105.359 114.098 110.585 108.761 104.197C108.761 104.197 109.114 99.3585 107.764 95.7458L114.902 95.4241Z" fill="#F6A89E"/>
<path d="M117.313 84.4568C116.093 89.5857 121.556 94.9403 115.287 100.553C113.294 100.521 104.935 100.714 103.681 93.6498C103.199 92.4566 101.304 92.1337 101.752 90.0047C102.2 87.8757 103.359 89.0371 103.359 89.0371C103.359 89.0371 103.295 87.4567 103.359 86.1014C103.457 84.7791 117.313 84.4568 117.313 84.4568Z" fill="#F6A89E"/>
<path d="M116.863 81.102C118.309 70.1023 101.399 74.6802 99.3735 84.9405L100.081 84.8763L100.756 89.0694C104.035 90.7819 111.719 92.0663 114.999 85.9729C115.351 86.5101 115.852 86.9332 116.44 87.1908C117.027 87.4484 117.677 87.5294 118.31 87.4242C118.382 85.2266 117.883 83.0479 116.863 81.102Z" fill="#263238"/>
<path d="M131.298 233.517C131.298 233.517 135.252 236.387 139.206 235.229C139.174 239.132 125.993 239.778 122.748 237.939C123.743 232.291 126.508 231.711 131.298 233.517Z" fill="#E44531"/>
<path d="M130.977 230.385C130.977 230.385 130.944 232.418 130.977 233.449C131.009 233.901 126.99 234.256 125.222 233.03L125.865 230.578L129.819 229.159L130.977 230.385Z" fill="url(#paint0_linear_51_4)"/>
<path d="M123.646 192.582C121.396 204.646 125.353 230.516 125.864 230.548C129.015 232.097 130.976 230.387 130.976 230.387C131.716 219.097 136.57 159.066 130.428 146.68L122.778 144.455C120.215 147.564 118.409 151.231 117.505 155.164C115.802 163.842 122.296 185.518 123.646 192.582Z" fill="#263238"/>
<path opacity="0.5" d="M117.087 159.164C117.248 166.131 122.391 187.485 123.646 192.582C122.456 187.291 121.363 165.776 125.221 155.97C129.079 146.132 130.943 149.906 130.943 149.906L131.201 149.519C130.991 148.56 130.734 147.613 130.429 146.68L122.778 144.455C122.263 144.455 117.827 154.616 117.505 155.164C117.202 156.475 117.062 157.818 117.087 159.164Z" fill="url(#paint1_linear_51_4)"/>
<path d="M151.455 122.392C152.131 122.359 152.999 121.972 153.609 122.004C154.028 122.359 160.01 118.327 156.31 119.65C155.984 119.854 155.639 120.027 155.281 120.166C156.245 119.746 160.135 116.007 156.92 117.746C155.634 118.714 155.442 119.069 154.67 119.263C155.377 119.166 159.878 113.843 156.567 116.166C155.378 117.359 155.281 117.682 154.477 118.005C155.087 117.714 157.531 111.07 155.217 114.424C154.445 116.424 154.156 116.65 152.966 117.715C152.966 117.715 152.098 118.326 151.906 117.164C151.713 116.002 151.938 115.164 151.552 114.713C151.166 114.262 151.038 114.261 150.909 114.487C151.295 116.003 150.652 115.939 150.266 117.455C149.976 118.551 148.819 118.906 147.823 118.971C148.409 119.469 148.866 120.102 149.157 120.815C149.448 121.528 149.564 122.301 149.495 123.069C150.17 122.843 150.813 122.617 151.456 122.391L151.455 122.392Z" fill="url(#paint2_linear_51_4)"/>
<path d="M103.295 231.777C103.295 231.777 103.424 238.777 108.761 240.357C106.221 243.486 95.1613 235.551 93.7148 231.97C96.9943 229.001 99.791 228.841 103.295 231.777Z" fill="#E44531"/>
<path d="M104.196 228.742C104.196 228.742 103.553 230.742 103.296 231.775C103.167 232.226 99.0842 231.42 97.7017 229.678L99.0518 227.452L103.392 227.227L104.196 228.742Z" fill="url(#paint3_linear_51_4)"/>
<path d="M106.736 192.002C103.425 203.679 99.5987 215.711 98.8916 227.903C100.338 229.032 102.042 230.032 103.939 229.387C113.552 203.904 125.091 174.292 120.592 146.486C118.149 145.712 115.577 144.422 113.133 143.39C109.404 147.228 106.028 151.68 105.418 157.809C104.775 168.486 106.189 181.292 106.736 192.002Z" fill="#263238"/>
<path d="M122.778 106.618C117.312 117.521 122.585 124.65 131.908 129.165C131.972 129.133 132.005 129.101 132.069 129.068C134.095 129.456 136.12 128.552 138.017 127.778C142.26 126.004 146.665 124.714 150.78 122.649C149.9 121.528 149.374 120.169 149.269 118.746C144.221 119.713 134.319 121.488 134.126 121.52C130.011 120.294 122.778 106.618 122.778 106.618Z" fill="#F75C3D"/>
<path d="M101.27 124.068C103.289 132.098 105.923 139.96 109.147 147.584C116.959 149.552 131.555 147.034 130.526 146.746C129.208 142.778 128.05 133.907 128.149 128.649C127.795 125.163 129.724 122.069 129.307 118.585C129.05 115.876 127.153 114.263 125.996 112.038C125.095 110.36 124.195 108.618 123.198 107.005C121.27 105.134 117.829 105.328 116.061 103.199C116.19 103.425 117.604 105.941 115.129 106.263C110.917 106.683 108.796 104.167 108.796 104.167C100.016 106.424 98.6018 116.52 101.27 124.068Z" fill="#E34646"/>
<path opacity="0.3" d="M124.546 123.52C124.414 123.566 124.285 123.62 124.16 123.682C124.293 123.639 124.422 123.585 124.546 123.52Z" fill="url(#paint4_linear_51_4)"/>
<path d="M131.169 116.359L131.394 116.52C131.314 116.474 131.238 116.42 131.169 116.359Z" fill="url(#paint5_linear_51_4)"/>
<path opacity="0.5" d="M108.793 143.907C106.221 139.584 126.764 135.003 128.533 134.907L128.404 134.068C128.308 134.036 118.695 130.746 118.631 130.714C115.834 131.359 110.368 132.455 108.182 132.939C108.098 132.961 108.01 132.96 107.926 132.937C107.842 132.914 107.765 132.869 107.704 132.808C107.642 132.746 107.598 132.669 107.575 132.585C107.552 132.501 107.551 132.412 107.573 132.328C107.83 131.005 107.573 130.393 108.633 130.199C110.177 129.908 111.913 129.747 113.713 129.553L127.312 129.199V124.779C111.881 128.36 108.762 116.005 108.28 118.263C107.798 120.521 110.657 121.425 110.657 121.425L112.974 127.521C107.476 127.328 106.672 119.296 106.126 118.231C105.129 117.008 105.676 127.099 101.85 125.618C103.232 133.069 106.415 140.553 109.147 147.585C116.959 149.552 131.556 147.034 130.527 146.746C116.702 148.325 111.011 146.422 108.793 143.907Z" fill="#E34646"/>
<path d="M108.568 104.198C108.568 104.198 108.44 108.52 114.13 109.682C115.094 109.52 115.255 107.682 115.126 106.262C115.126 106.262 110.529 106.23 108.761 104.037C108.761 104.037 108.6 103.94 108.568 104.198Z" fill="#F75C3D"/>
<path d="M115.126 106.263C115.251 106.733 115.472 107.171 115.777 107.549C116.081 107.927 116.462 108.236 116.894 108.456C116.911 108.465 116.93 108.47 116.949 108.47C116.967 108.469 116.986 108.464 117.002 108.454C117.019 108.444 117.032 108.43 117.041 108.414C117.051 108.397 117.055 108.378 117.055 108.359C117.216 107.65 117.795 104.521 116.091 103.23C116.123 103.23 116.927 105.682 115.126 106.263Z" fill="#F75C3D"/>
<path d="M181.997 95.6821L214.853 130.745C212.184 131.357 168.718 141.616 167.464 141.907L181.997 95.6821Z" fill="url(#paint6_linear_51_4)"/>
<path d="M152.355 155.906C152.034 156.938 138.595 199.743 137.823 202.13L104.999 167.098L152.355 155.906Z" fill="url(#paint7_linear_51_4)"/>
<path d="M214.854 130.746C217.008 132.681 218.999 135.52 216.397 138.036L145.025 204.195C142.389 206.58 139.592 204.453 137.824 202.162C138.628 199.582 151.969 157.164 152.355 155.938C164.636 153.26 163.929 154.034 167.466 141.938C168.526 141.649 212.41 131.326 214.854 130.746Z" fill="url(#paint8_linear_51_4)"/>
<path d="M173.542 86.65L181.997 95.6822C180.29 101.166 166.308 145.616 165.022 149.713C164.688 150.778 164.082 151.738 163.264 152.496C162.446 153.254 161.445 153.785 160.36 154.035C156.341 154.97 110.335 165.839 104.966 167.099L96.511 158.067C96.1646 157.7 95.8944 157.268 95.7163 156.796C95.5382 156.324 95.4557 155.821 95.4736 155.316C95.4915 154.812 95.6095 154.316 95.8207 153.857C96.0319 153.399 96.3321 152.988 96.7036 152.647L168.076 86.4885C168.445 86.1385 168.88 85.865 169.354 85.6836C169.829 85.5022 170.335 85.4166 170.842 85.4316C171.35 85.4466 171.85 85.5619 172.313 85.771C172.776 85.9801 173.194 86.2788 173.542 86.65Z" fill="url(#paint9_linear_51_4)"/>
<g opacity="0.2">
<path d="M181.997 95.6821L184.954 98.8111L172.255 140.778L167.497 141.907L181.997 95.6821Z" fill="url(#paint10_linear_51_4)"/>
<path d="M152.355 155.906L150.908 160.583L107.925 170.228L104.999 167.099L152.355 155.906Z" fill="url(#paint11_linear_51_4)"/>
</g>
<path opacity="0.3" d="M172.255 140.778L170.84 145.487C169.94 147.68 168.622 154.583 166.629 156.068L166.597 156.1C165.022 157.971 157.916 158.81 155.698 159.52L150.876 160.616L152.322 155.971C164.603 153.294 163.896 154.068 167.432 141.971L172.255 140.778Z" fill="#FCB316"/>
<path d="M139.143 128.713C139.978 128.681 141.104 128.197 141.875 128.262C142.711 128.229 145.283 126.616 146.344 125.713C147.373 124.81 146.28 124.681 145.251 125.326C144.836 125.567 144.406 125.782 143.965 125.971C145.154 125.455 150.106 120.711 146.022 122.907C144.415 124.13 144.19 124.585 143.193 124.778C144.19 124.198 146.054 122.133 146.826 121.004C147.662 119.746 146.473 119.971 145.572 120.907C144.094 122.391 143.965 122.81 142.936 123.198C143.91 121.728 144.627 120.103 145.058 118.392C145.411 116.94 144.351 117.521 143.869 118.714C142.872 121.23 142.551 121.456 141.071 122.843C141.071 122.843 139.978 123.617 139.753 122.133C139.528 120.65 139.786 119.65 139.304 119.069C138.821 118.489 138.66 118.489 138.5 118.779C138.982 120.811 138.178 120.491 137.696 122.521C137.342 123.908 135.863 124.327 134.642 124.424C135.382 125.041 135.961 125.832 136.325 126.726C136.689 127.621 136.829 128.592 136.731 129.553C137.567 129.262 138.403 128.972 139.207 128.682L139.143 128.713Z" fill="#F6A89E"/>
<path d="M102.203 108.94C97.5406 116.327 98.8915 129.49 112.523 136.165C115.802 137.971 119.049 136.843 122.232 135.487C127.535 133.262 133.066 131.649 138.21 129.065C137.105 127.655 136.434 125.95 136.282 124.162C129.948 125.355 117.539 127.613 117.281 127.648C112.265 126.1 102.203 108.94 102.203 108.94Z" fill="#F75C3D"/>
</g>
<defs>
<linearGradient id="paint0_linear_51_4" x1="628.411" y1="235.725" x2="627.251" y2="241.801" gradientUnits="userSpaceOnUse">
<stop stop-color="#EF877E"/>
<stop offset="1" stop-color="#FABEB2"/>
</linearGradient>
<linearGradient id="paint1_linear_51_4" x1="403.939" y1="168.518" x2="418.041" y2="168.518" gradientUnits="userSpaceOnUse">
<stop stop-color="#E55E25"/>
<stop offset="1" stop-color="#F9A349"/>
</linearGradient>
<linearGradient id="paint2_linear_51_4" x1="360.379" y1="154.067" x2="342.634" y2="149.518" gradientUnits="userSpaceOnUse">
<stop stop-color="#EF877E"/>
<stop offset="1" stop-color="#FABEB2"/>
</linearGradient>
<linearGradient id="paint3_linear_51_4" x1="507.609" y1="159.885" x2="506.68" y2="166.201" gradientUnits="userSpaceOnUse">
<stop stop-color="#EF877E"/>
<stop offset="1" stop-color="#FABEB2"/>
</linearGradient>
<linearGradient id="paint4_linear_51_4" x1="366.444" y1="167.181" x2="366.439" y2="167.019" gradientUnits="userSpaceOnUse">
<stop stop-color="#E55E25"/>
<stop offset="1" stop-color="#F9A349"/>
</linearGradient>
<linearGradient id="paint5_linear_51_4" x1="358.459" y1="160.83" x2="358.418" y2="161.05" gradientUnits="userSpaceOnUse">
<stop stop-color="#42C1C5"/>
<stop offset="1" stop-color="#0898D0"/>
</linearGradient>
<linearGradient id="paint6_linear_51_4" x1="193.007" y1="-155.225" x2="193.007" y2="-186.057" gradientUnits="userSpaceOnUse">
<stop stop-color="#FFD05D"/>
<stop offset="1" stop-color="#FCB316"/>
</linearGradient>
<linearGradient id="paint7_linear_51_4" x1="130.145" y1="-155.648" x2="130.145" y2="-186.526" gradientUnits="userSpaceOnUse">
<stop stop-color="#FFD05D"/>
<stop offset="1" stop-color="#FCB316"/>
</linearGradient>
<linearGradient id="paint8_linear_51_4" x1="161.686" y1="-115.612" x2="161.686" y2="-155.169" gradientUnits="userSpaceOnUse">
<stop stop-color="#FFD05D"/>
<stop offset="1" stop-color="#FCB430"/>
</linearGradient>
<linearGradient id="paint9_linear_51_4" x1="161.404" y1="-180.565" x2="161.404" y2="-97.3449" gradientUnits="userSpaceOnUse">
<stop stop-color="#FFD05D"/>
<stop offset="1" stop-color="#FCB316"/>
</linearGradient>
<linearGradient id="paint10_linear_51_4" x1="192.897" y1="-145.795" x2="192.897" y2="-179.631" gradientUnits="userSpaceOnUse">
<stop stop-color="#FFD05D"/>
<stop offset="1" stop-color="#FCB316"/>
</linearGradient>
<linearGradient id="paint11_linear_51_4" x1="130.145" y1="-145.758" x2="130.145" y2="-180.045" gradientUnits="userSpaceOnUse">
<stop stop-color="#FFD05D"/>
<stop offset="1" stop-color="#FCB316"/>
</linearGradient>
<clipPath id="clip0_51_4">
<rect width="334" height="246" fill="white"/>
</clipPath>
</defs>
</svg>
