<svg width="402" height="296" viewBox="0 0 402 296" fill="none" xmlns="http://www.w3.org/2000/svg">
<g clip-path="url(#clip0_51_4)">
<g opacity="0.5">
<path opacity="0.5" d="M360.751 290.528C369.341 297.824 32.6546 297.824 41.2091 290.528C32.6575 283.23 369.341 283.23 360.751 290.528Z" fill="#FFD86D"/>
<g opacity="0.3">
<path opacity="0.8" d="M347.943 144.007C344.654 336.016 57.3839 335.978 54.1338 144.007C57.3839 -48.0023 344.693 -48.0023 347.943 144.007Z" fill="#FFD86D"/>
<path opacity="0.6" d="M172.153 204.245C170.218 316.767 1.8958 316.726 0 204.245C1.93468 91.7252 170.257 91.7642 172.153 204.245Z" fill="#FFD86D"/>
<path opacity="0.6" d="M229.847 204.245C231.782 316.767 400.104 316.726 402 204.245C400.065 91.7252 231.743 91.7642 229.847 204.245Z" fill="#FFD86D"/>
<path opacity="0.5" d="M284.059 117.109C285.374 194.193 400.723 194.193 402 117.109C400.685 40.0264 285.335 40.0264 284.059 117.109Z" fill="#FFD86D"/>
<path opacity="0.5" d="M117.941 117.109C116.626 194.193 1.31547 194.154 0 117.109C1.31547 40.0264 116.626 40.0264 117.941 117.109Z" fill="#FFD86D"/>
</g>
</g>
<g opacity="0.8">
<g opacity="0.5">
<g opacity="0.8">
<path d="M51.1153 185.343C49.5291 184.878 51.309 183.519 51.9664 182.587C58.6992 174.631 67.8312 164.228 75.1833 155.69C72.5135 158.407 69.5341 161.395 66.7094 164.267C47.2848 184.023 47.0912 184.023 46.5879 184.023C45.7368 183.984 45.8542 183.053 46.356 182.587C54.8666 172.574 66.5546 159.726 75.5318 149.363C67.6764 157.32 56.8035 168.497 49.3354 176.027C41.7126 183.324 42.6026 183.324 41.1712 182.897C40.6679 182.392 41.0164 181.966 42.5652 180.101C51.0757 170.125 63.3052 156.891 72.5149 146.41C65.0081 153.824 35.7934 183.982 38.0766 180.683C37.9034 180.677 37.7383 180.608 37.6122 180.489C37.1089 179.984 37.4185 179.635 39.1213 177.577C47.4793 167.874 59.1262 155.182 68.2582 144.935C65.2788 147.963 61.9897 151.301 58.8166 154.522C36.7604 176.956 35.5227 178.042 34.8646 178.042C33.588 177.577 34.0906 177.189 35.9482 174.899C44.4998 165.001 56.4175 151.999 65.7043 141.562C61.2928 145.987 56.0309 151.304 51.3097 156.077C32.3496 175.211 32.3078 175.211 31.8463 175.211C31.6731 175.205 31.508 175.136 31.3819 175.017C30.7216 173.775 32.7758 172.533 33.665 171.097C40.6686 162.868 49.9165 152.661 57.9267 143.695C51.5805 149.866 33.0458 169.622 29.3701 171.796C29.197 171.79 29.0319 171.721 28.9057 171.602C28.2865 170.593 29.602 170.011 30.2212 169.001C38.8117 159.066 51.1161 145.636 60.248 135.272C56.653 138.921 52.3926 143.268 48.3685 147.382C28.7502 167.41 27.6666 168.302 27.0862 168.302C25.8097 167.876 26.3122 167.41 28.0539 165.314C35.8308 156.232 46.5497 144.432 55.0243 134.807C51.6964 138.145 47.9077 141.945 44.3062 145.597C25.423 164.657 25.346 164.657 24.8816 164.657C23.8368 164.346 24.0305 163.921 25.2682 162.523C33.3165 153.207 44.3062 140.943 52.5482 131.356C48.4837 135.236 23.6035 161.005 24.5323 159.261C24.3592 159.255 24.1941 159.186 24.0679 159.067C23.4487 158.096 24.842 157.359 25.4619 156.35C31.3048 149.247 39.0824 140.281 45.6605 132.519C43.5329 134.692 41.249 136.982 39.1595 139.117C23.9909 154.177 25.1523 154.138 23.5654 153.75C22.7914 152.663 26.0033 149.985 27.1603 148.16C30.7201 143.735 35.9827 137.332 39.968 132.402C19.3438 154.021 21.9748 148.976 32.3452 134.188C30.3327 136.206 30.2909 136.206 30.0238 136.206C29.8872 136.208 29.7539 136.164 29.6438 136.083C29.5338 136.002 29.4531 135.887 29.4138 135.755C29.3745 135.624 29.3788 135.484 29.4259 135.355C29.4731 135.226 29.5606 135.117 29.6754 135.042C29.985 134.771 31.6489 133.062 32.9255 131.82C35.9049 128.793 35.9049 128.793 36.2145 128.793C37.8785 129.297 35.7501 131.083 35.1309 132.363C33.2351 135.197 30.3716 139.388 28.2821 142.494C31.2615 139.697 48.0552 122.039 47.0493 123.863C48.133 124.174 47.8622 124.64 46.6627 126.154C41.8645 132.247 35.4024 140.01 30.1398 146.53C32.6159 144.047 35.4794 141.096 38.227 138.302C53.4755 122.738 53.6303 122.738 54.1336 122.738C54.9465 122.777 54.9077 123.708 54.4044 124.136C48.2518 131.627 40.1646 140.903 33.3928 148.899C79.633 101.314 55.1776 131.163 36.1016 152.12C38.4618 149.753 40.9768 147.23 43.3759 144.785C63.8452 124.137 63.923 124.137 64.4255 124.137C65.7021 124.563 65.1592 125.029 63.4197 127.164C55.4873 136.479 44.4177 148.628 35.7919 158.409C39.3517 154.838 43.4955 150.568 47.4389 146.571C67.0183 126.582 68.063 125.689 68.6823 125.689C69.9977 126.194 69.5333 126.466 67.3668 129.105C59.0477 138.808 47.5937 151.345 38.4229 161.669C43.4529 156.779 74.2156 125.029 71.9713 128.173C72.1445 128.179 72.3095 128.248 72.4357 128.367C73.016 129.26 71.9324 129.726 71.4298 130.501C62.259 140.942 50.0706 154.333 40.5131 165.201C43.4925 162.173 46.9364 158.719 50.3442 155.266C75.1473 130.619 73.9867 130.658 75.6118 131.085C76.1151 131.59 75.8054 131.978 74.0256 134.074C65.3191 144.126 53.1689 157.402 43.7662 167.999C48.0611 163.691 53.2077 158.452 57.8122 153.755C77.3527 133.885 77.4694 133.885 78.0108 133.885C78.184 133.891 78.3491 133.96 78.4753 134.079C78.9786 134.584 78.6301 135.011 76.8891 137.068C68.6859 146.616 57.4256 158.881 48.3714 169.05C51.1593 166.217 54.2143 163.15 57.1167 160.162C78.7474 138.193 79.8692 137.223 80.4474 137.223C81.7628 137.689 81.181 138.194 79.3256 140.445C70.8884 150.342 59.0492 163.228 49.8791 173.631C57.9274 165.635 84.7041 137.651 83.1568 140.484C83.33 140.49 83.495 140.559 83.6212 140.678C84.1245 141.183 83.8919 141.532 81.8024 144.017C74.5663 152.594 65.0088 163.19 56.7668 172.544C66.2472 163.113 85.0526 143.395 84.2793 145.259C85.1692 145.375 85.0533 146.19 84.473 146.773C77.5083 155.156 68.4534 165.364 60.7528 174.33C62.4556 172.622 64.1966 170.797 65.9376 169.09C84.4334 150.149 86.214 148.519 85.2074 151.896C79.0937 159.465 70.9676 168.935 64.2737 176.969C67.9112 173.437 86.8706 153.681 85.517 155.816C85.6902 155.822 85.8552 155.891 85.9814 156.01C86.5617 156.864 85.4781 157.446 85.0137 158.301C81.0284 163.424 75.8429 169.828 71.2772 175.534C83.8919 162.764 85.0137 161.404 84.6659 164.045C83.5434 164.861 77.0431 171.497 71.9353 176.66C64.3874 184.26 64.4263 184.26 64.0396 184.26C63.0338 183.95 63.1497 183.598 64.2715 182.241C68.5267 176.807 74.2163 169.821 78.8978 163.961C77.7372 165.125 76.5376 166.328 75.3381 167.567C58.003 185.07 57.8093 185.07 57.3067 185.07C57.1336 185.064 56.9685 184.994 56.8423 184.875C56.339 184.37 56.339 184.37 61.3698 178.316C65.9361 172.843 72.5949 164.964 77.6213 158.948C74.3322 162.286 70.424 166.245 66.9031 169.816C51.6964 185.344 51.5797 185.344 51.1153 185.344V185.343ZM75.1063 171.876C75.1819 171.95 75.2751 172.003 75.377 172.031C75.2789 171.994 75.1875 171.942 75.1063 171.876ZM21.2815 142.959C21.453 142.972 21.6157 143.041 21.7459 143.153C21.6538 143.055 21.5317 142.99 21.3989 142.969C21.2661 142.948 21.13 142.972 21.0122 143.037C21.096 142.994 21.1875 142.967 21.2815 142.959Z" fill="#DEA629"/>
</g>
<g opacity="0.8">
<path d="M214.484 72.8623C213.323 72.5127 214.639 71.5038 215.103 70.8436C220.056 64.9828 226.75 57.3764 232.129 51.088C224.042 58.8504 209.105 75.7735 210.962 70.8436C217.192 63.469 225.782 54.0765 232.361 46.4686C225.937 52.64 213.052 66.8844 207.48 71.1954C206.551 70.8848 206.938 70.497 208.176 69.0215C214.444 61.7249 223.383 51.9821 230.154 44.2948C224.66 49.7288 203.223 71.8916 204.887 69.4461C204.821 69.4496 204.755 69.4374 204.694 69.4104C204.633 69.3834 204.58 69.3424 204.538 69.2908C203.919 68.3202 207.557 65.2934 208.911 63.43C213.98 57.6855 221.565 49.3409 227.02 43.2085C185.81 85.6311 203.494 64.2454 225.163 40.7248C221.912 43.9849 218.046 47.8632 214.598 51.3956C200.706 65.4457 200.668 65.4457 200.319 65.4457C200.253 65.4455 200.189 65.4316 200.129 65.4049C200.069 65.3782 200.015 65.3392 199.971 65.2904C199.506 64.3198 200.976 63.5051 201.635 62.4203C206.781 56.4042 213.552 48.8744 219.434 42.3151C214.791 46.8565 201.17 61.3334 198.461 62.9252C197.262 62.5756 198.616 61.5667 199.081 60.8646C205.39 53.568 214.404 43.7089 221.137 36.1018C185.422 73.0911 192.193 63.3101 217.268 35.7522C180.005 73.8278 196.218 54.8485 215.449 33.1905C212.469 36.0238 194.205 54.9648 194.864 53.6843C194.798 53.6841 194.733 53.6702 194.673 53.6435C194.613 53.6167 194.559 53.5778 194.515 53.529C194.051 52.7931 195.095 52.2868 195.521 51.5494C199.816 46.3487 205.504 39.7505 210.341 34.0832C187.666 57.7591 191.032 52.0535 206.201 34.0052C191.11 49.8413 193.006 46.1147 200.59 35.3247C199.122 36.7965 199.081 36.7965 198.887 36.7965C198.787 36.7979 198.689 36.7669 198.608 36.7082C198.527 36.6494 198.466 36.5661 198.436 36.4704C198.406 36.3747 198.407 36.2717 198.439 36.1767C198.472 36.0817 198.534 35.9997 198.616 35.9428C199.081 35.5933 203.376 30.8974 203.414 31.3625C205.427 31.2852 198.152 40.0176 197.61 41.4151C199.778 39.3545 212.121 26.3943 211.386 27.7528C212.199 27.9854 211.966 28.3349 211.115 29.4219C207.593 33.8852 202.834 39.5908 199.004 44.3646C200.822 42.5403 202.951 40.3672 204.924 38.3095C216.106 26.8984 216.222 26.8984 216.609 26.8984C217.229 26.9374 217.19 27.5968 216.803 27.9074C212.276 33.3804 206.356 40.2111 201.403 46.072C235.145 11.3368 217.422 33.0698 203.376 48.4394C241.684 9.27693 219.512 35.1267 203.144 53.058C205.737 50.419 208.794 47.3135 211.696 44.3639C226.091 29.6927 226.826 29.0326 227.29 29.0326C227.356 29.0291 227.422 29.0413 227.483 29.0683C227.544 29.0953 227.597 29.1363 227.639 29.1879C227.987 29.5374 227.832 29.809 226.323 31.5553C220.21 38.6584 211.813 47.8566 205.08 55.4645C208.794 51.8585 231.354 28.5668 229.69 30.8959C229.756 30.8961 229.821 30.91 229.881 30.9367C229.941 30.9635 229.994 31.0025 230.038 31.0512C230.542 31.9829 228.065 33.7292 227.177 35.0487C221.179 41.7632 212.86 51.0011 206.63 58.0652C249.001 14.7109 231.281 35.8251 209.029 60.0838C212.163 56.94 215.956 53.0588 219.361 49.6434C233.677 35.0494 233.794 35.0494 234.181 35.0494C234.247 35.0459 234.313 35.0582 234.374 35.0852C234.434 35.1121 234.487 35.1531 234.529 35.2047C235.11 36.2527 231.395 39.3575 229.963 41.2981C225.047 46.8484 217.813 54.8441 212.434 60.8602C253.373 18.7474 233.6 42.4623 213.557 64.2373C245.131 31.4015 246.331 32.721 218.626 63.4219C250.51 30.5471 240.294 43.5522 221.528 64.7024C251.439 33.8072 238.36 50.0695 224.082 66.604C226.752 64.0033 240.643 49.5264 239.676 51.0762C241.224 51.464 237.935 54.2591 237.2 55.5395C234.994 58.336 231.782 62.332 229.19 65.5149C238.747 56.1224 237.896 56.1224 239.021 56.4329C239.524 57.3256 233.139 62.41 229.695 66.3303C224.162 71.9196 224.162 71.9196 223.891 71.9196C223.825 71.9194 223.761 71.9055 223.701 71.8787C223.641 71.852 223.587 71.813 223.543 71.7643C223.233 71.4537 223.349 71.2984 224.046 70.4058C227.18 66.4083 231.359 61.2848 234.764 56.976C225.245 66.5628 218.977 73.2398 218.899 72.5774C218.833 72.5809 218.767 72.5687 218.706 72.5417C218.646 72.5148 218.592 72.4738 218.551 72.4222C218.164 72.0726 218.164 72.0726 221.879 67.6093C225.207 63.5728 230.121 57.7892 233.796 53.4061C231.358 55.8516 228.495 58.7621 225.941 61.4018C214.913 72.8519 214.835 72.852 214.488 72.852L214.484 72.8623ZM222.339 48.6425C222.395 48.6952 222.461 48.7349 222.533 48.7588C222.455 48.7588 222.416 48.7205 222.339 48.6425ZM182.832 27.4114C182.957 27.4142 183.079 27.4547 183.181 27.5276C183.109 27.4606 183.019 27.4172 182.922 27.4034C182.825 27.3896 182.726 27.406 182.639 27.4504C182.704 27.4414 182.769 27.4286 182.832 27.4121V27.4114Z" fill="#DEA629"/>
</g>
<g opacity="0.8">
<path d="M350.342 173.505C349.568 173.273 350.458 172.613 350.767 172.147C354.056 168.265 358.506 163.181 362.105 159.028C336.604 185.188 351.309 168.071 362.259 155.961C358.004 160.076 349.413 169.545 345.736 172.418C345.117 172.223 345.388 171.952 346.201 170.946C350.341 166.094 356.3 159.613 360.789 154.527C335.676 180.377 341.403 172.692 358.7 153.829C331.574 181.775 343.105 167.763 357.461 152.199C355.295 154.373 352.741 156.935 350.418 159.302C341.171 168.653 341.133 168.653 340.939 168.653C340.436 168.576 340.59 168.148 340.939 167.722C344.653 163.219 349.376 158.096 353.67 153.283C350.574 156.311 341.519 165.936 339.739 166.984C338.926 166.752 339.816 166.092 340.165 165.626C344.347 160.774 350.342 154.215 354.83 149.169C331.265 173.583 335.676 167.14 352.276 148.937C327.666 174.088 338.307 161.59 351.077 147.229C349.103 149.13 336.953 161.706 337.417 160.852C336.604 160.619 337.533 159.92 337.882 159.454C340.743 155.999 344.538 151.613 347.713 147.848C332.738 163.49 334.905 159.725 344.965 147.809C334.982 158.328 336.22 155.805 341.251 148.663C340.09 149.75 340.4 149.75 339.896 149.556C339.587 148.934 340.825 148.43 341.521 147.495C342.989 146.023 342.989 146.023 343.147 146.023C344.385 146.256 339.703 151.612 339.277 152.699C354.716 136.67 348.37 144.859 340.206 154.64C358.857 135.311 352.55 143.5 341.792 155.804C364.08 132.827 352.43 147.187 343.108 157.357C368.298 131.585 353.826 148.508 342.953 160.424C368.917 133.563 359.359 145.558 344.229 162.015C346.706 159.608 361.68 144.122 360.598 145.677C361.331 145.872 360.636 146.454 360.327 146.803C355.838 151.888 349.918 158.409 345.236 163.729C373.173 135.124 361.604 149.019 346.822 165.088C371.393 139.704 366.479 146.652 349.067 165.593C376.037 137.841 363.113 153.405 349.8 167.844C370.695 146.109 371.469 147.04 353.167 167.301C374.178 145.604 367.523 154.182 355.102 168.154C374.837 147.739 366.284 158.451 356.804 169.435C358.584 167.727 367.832 158.063 367.175 159.111C368.642 159.227 360.983 167.339 360.21 168.697C366.556 162.449 366.014 162.449 366.749 162.681C366.943 163.458 362.957 166.524 360.558 169.28C356.882 173.006 356.882 173.006 356.727 173.006C355.218 172.967 363.267 164.389 363.964 163.108C344.962 182.709 355.257 170.056 363.303 160.741C361.678 162.371 359.782 164.311 358.08 166.058C350.612 173.51 350.573 173.51 350.341 173.51L350.342 173.505ZM385.205 169.274C385.244 169.313 385.283 169.352 385.321 169.352C385.283 169.352 385.244 169.316 385.205 169.274ZM358.932 155.186C359.014 155.194 359.093 155.22 359.164 155.263C359.123 155.212 359.063 155.18 358.998 155.172C358.932 155.165 358.867 155.184 358.815 155.224C358.831 155.21 358.849 155.199 358.869 155.192C358.89 155.185 358.911 155.183 358.932 155.186Z" fill="#DEA629"/>
</g>
</g>
<g opacity="0.5">
<path opacity="0.5" d="M10.5635 122.932C33.0707 109.737 56.7504 98.6664 81.2978 89.8625C58.7787 103.034 35.1012 114.104 10.5635 122.932Z" fill="#DEA629"/>
<path opacity="0.5" d="M129.318 57.1431C152.197 44.6747 175.82 33.6308 200.052 24.074C177.165 36.5267 153.543 47.5701 129.318 57.1431Z" fill="#DEA629"/>
<path opacity="0.5" d="M343.299 184.528C358.113 176.351 373.456 169.18 389.227 163.064C374.406 171.226 359.063 178.396 343.299 184.528Z" fill="#DEA629"/>
</g>
</g>
<path d="M287.656 171.72L340.127 141.603C340.4 141.447 340.627 141.221 340.785 140.949C340.943 140.676 341.026 140.366 341.026 140.051C341.026 139.736 340.943 139.426 340.785 139.153C340.627 138.881 340.4 138.655 340.127 138.499L287.656 108.34C287.383 108.179 287.073 108.094 286.756 108.092C286.44 108.09 286.128 108.172 285.854 108.329C285.579 108.487 285.35 108.715 285.191 108.989C285.032 109.264 284.948 109.575 284.948 109.893V125.03C284.947 125.268 284.899 125.503 284.807 125.722C284.715 125.94 284.581 126.139 284.411 126.305C284.242 126.471 284.041 126.602 283.821 126.689C283.601 126.777 283.366 126.82 283.129 126.815H224.43C223.953 126.812 223.495 126.998 223.154 127.333C222.814 127.667 222.618 128.123 222.611 128.601V151.421C222.611 151.658 222.659 151.893 222.751 152.112C222.843 152.331 222.978 152.529 223.147 152.696C223.316 152.862 223.517 152.993 223.737 153.08C223.957 153.168 224.193 153.211 224.43 153.206H283.168C283.644 153.203 284.103 153.389 284.443 153.723C284.784 154.058 284.979 154.513 284.987 154.991V170.128C284.978 170.446 285.054 170.759 285.207 171.037C285.36 171.315 285.584 171.547 285.856 171.71C286.128 171.872 286.438 171.958 286.755 171.96C287.071 171.962 287.382 171.879 287.656 171.72Z" fill="#FCB316"/>
<path d="M248.73 224.777L282.743 205.254C282.92 205.152 283.066 205.005 283.168 204.828C283.27 204.651 283.324 204.45 283.324 204.245C283.324 204.041 283.27 203.84 283.168 203.662C283.066 203.485 282.92 203.338 282.743 203.236L248.73 183.713C248.554 183.61 248.353 183.555 248.149 183.555C247.945 183.554 247.744 183.608 247.567 183.71C247.39 183.813 247.244 183.96 247.142 184.138C247.041 184.316 246.988 184.517 246.989 184.722V194.503C246.988 194.812 246.866 195.107 246.648 195.326C246.431 195.544 246.136 195.667 245.828 195.668H207.791C207.638 195.665 207.485 195.693 207.343 195.751C207.201 195.808 207.072 195.894 206.964 196.002C206.855 196.111 206.77 196.24 206.713 196.383C206.655 196.526 206.627 196.678 206.63 196.832V211.619C206.631 211.928 206.754 212.223 206.971 212.441C207.189 212.66 207.483 212.783 207.791 212.784H245.828C245.981 212.781 246.133 212.809 246.275 212.866C246.417 212.924 246.546 213.01 246.655 213.118C246.763 213.227 246.848 213.356 246.906 213.499C246.963 213.641 246.991 213.794 246.988 213.948V223.729C246.981 223.937 247.03 224.143 247.129 224.325C247.228 224.508 247.374 224.661 247.551 224.768C247.729 224.875 247.932 224.932 248.139 224.934C248.347 224.935 248.551 224.881 248.73 224.777Z" fill="#FCB316"/>
<path d="M88.9593 139.582C69.1862 129.141 109.158 119.321 114.73 107.677C118.793 98.478 123.049 86.7953 135.896 91.9578C149.711 96.8097 145.493 110.549 144.407 118.972C155.125 129.684 155.28 144.395 138.796 144.861C132.102 145.055 124.517 144.239 119.794 149.557C114.996 156.505 109.963 160.658 101.298 162.094C97.158 162.871 91.508 162.482 92.5528 157.514C94.5696 147.733 103.509 146.413 88.9593 139.582Z" fill="#263238"/>
<path d="M138.295 114.819C138.295 114.819 138.411 125.803 141.971 126.773C141.971 126.773 137.327 133.061 130.904 125.375C130.904 125.375 131.33 119.553 129.705 115.206L138.295 114.819Z" fill="#F6A89E"/>
<path d="M141.197 101.623C139.729 107.794 146.304 114.237 138.759 120.99C136.36 120.951 126.299 121.185 124.79 112.684C124.209 111.248 121.928 110.86 122.468 108.298C123.007 105.736 124.402 107.134 124.402 107.134C124.402 107.134 124.325 105.232 124.402 103.601C124.52 102.01 141.197 101.623 141.197 101.623Z" fill="#F6A89E"/>
<path d="M140.655 97.5862C142.396 84.3507 122.043 89.8591 119.605 102.205L120.457 102.128L121.269 107.173C125.217 109.234 134.464 110.779 138.412 103.447C138.836 104.093 139.439 104.603 140.146 104.912C140.854 105.222 141.635 105.32 142.397 105.193C142.484 102.549 141.883 99.9275 140.655 97.5862Z" fill="#263238"/>
<path d="M158.029 280.979C158.029 280.979 162.788 284.434 167.547 283.04C167.508 287.736 151.644 288.513 147.738 286.3C148.936 279.504 152.264 278.806 158.029 280.979Z" fill="#E44531"/>
<path d="M157.642 277.211C157.642 277.211 157.603 279.657 157.642 280.898C157.681 281.441 152.844 281.869 150.715 280.393L151.489 277.444L156.249 275.736L157.642 277.211Z" fill="url(#paint0_linear_51_4)"/>
<path d="M148.82 231.724C146.111 246.24 150.874 277.369 151.49 277.408C155.282 279.271 157.642 277.214 157.642 277.214C158.532 263.629 164.375 191.397 156.982 176.493L147.775 173.815C144.69 177.557 142.517 181.969 141.429 186.701C139.378 197.144 147.195 223.225 148.82 231.724Z" fill="#263238"/>
<path opacity="0.5" d="M140.926 191.514C141.12 199.897 147.309 225.592 148.819 231.724C147.388 225.359 146.072 199.471 150.715 187.671C155.359 175.833 157.603 180.374 157.603 180.374L157.912 179.909C157.66 178.755 157.35 177.615 156.984 176.493L147.775 173.815C147.155 173.815 141.816 186.042 141.428 186.701C141.064 188.279 140.895 189.895 140.926 191.514Z" fill="url(#paint1_linear_51_4)"/>
<path d="M182.29 147.268C183.103 147.229 184.148 146.763 184.883 146.802C185.386 147.229 192.587 142.377 188.133 143.969C187.741 144.214 187.326 144.422 186.895 144.59C188.056 144.085 192.738 139.586 188.868 141.678C187.32 142.843 187.089 143.27 186.16 143.503C187.011 143.387 192.428 136.982 188.443 139.777C187.012 141.213 186.895 141.601 185.928 141.989C186.662 141.639 189.604 133.644 186.818 137.681C185.889 140.087 185.541 140.359 184.109 141.64C184.109 141.64 183.064 142.376 182.833 140.978C182.601 139.58 182.871 138.571 182.407 138.028C181.943 137.485 181.788 137.485 181.633 137.757C182.097 139.581 181.323 139.503 180.859 141.327C180.511 142.647 179.118 143.074 177.918 143.152C178.624 143.751 179.175 144.512 179.525 145.371C179.875 146.229 180.014 147.159 179.931 148.082C180.744 147.811 181.517 147.539 182.291 147.267L182.29 147.268Z" fill="url(#paint2_linear_51_4)"/>
<path d="M124.325 278.886C124.325 278.886 124.48 287.309 130.904 289.21C127.846 292.975 114.535 283.427 112.794 279.119C116.742 275.545 120.108 275.354 124.325 278.886Z" fill="#E44531"/>
<path d="M125.409 275.235C125.409 275.235 124.635 277.641 124.326 278.883C124.171 279.426 119.257 278.457 117.593 276.361L119.218 273.683L124.442 273.411L125.409 275.235Z" fill="url(#paint3_linear_51_4)"/>
<path d="M128.466 231.027C124.481 245.077 119.876 259.555 119.025 274.225C120.766 275.584 122.817 276.787 125.1 276.01C136.67 245.348 150.558 209.717 145.143 176.26C142.203 175.328 139.107 173.776 136.166 172.534C131.678 177.153 127.615 182.509 126.88 189.884C126.106 202.732 127.808 218.14 128.466 231.027Z" fill="#263238"/>
<path d="M147.774 128.288C141.196 141.407 147.543 149.985 158.764 155.418C158.841 155.379 158.88 155.341 158.958 155.302C161.396 155.768 163.833 154.681 166.116 153.749C171.224 151.615 176.525 150.062 181.478 147.578C180.419 146.229 179.785 144.593 179.659 142.881C173.584 144.045 161.666 146.18 161.434 146.219C156.481 144.744 147.774 128.288 147.774 128.288Z" fill="#F75C3D"/>
<path d="M121.888 149.286C124.318 158.948 127.488 168.408 131.368 177.581C140.771 179.948 158.338 176.919 157.1 176.572C155.514 171.798 154.121 161.124 154.239 154.798C153.813 150.603 156.134 146.88 155.633 142.688C155.323 139.428 153.04 137.488 151.647 134.81C150.564 132.791 149.48 130.695 148.281 128.754C145.959 126.503 141.818 126.736 139.69 124.175C139.845 124.446 141.548 127.474 138.568 127.862C133.499 128.367 130.945 125.339 130.945 125.339C120.378 128.055 118.676 140.203 121.888 149.286Z" fill="#E34646"/>
<path opacity="0.3" d="M149.903 148.625C149.744 148.68 149.589 148.745 149.438 148.82C149.599 148.769 149.754 148.704 149.903 148.625Z" fill="url(#paint4_linear_51_4)"/>
<path d="M157.874 140.009L158.145 140.203C158.048 140.148 157.957 140.083 157.874 140.009Z" fill="url(#paint5_linear_51_4)"/>
<path opacity="0.5" d="M130.943 173.156C127.847 167.955 152.573 162.443 154.701 162.327L154.546 161.318C154.43 161.279 142.86 157.32 142.783 157.281C139.417 158.058 132.838 159.377 130.208 159.959C130.106 159.985 130 159.984 129.899 159.957C129.798 159.929 129.706 159.875 129.632 159.801C129.558 159.727 129.504 159.635 129.477 159.533C129.449 159.432 129.448 159.325 129.474 159.223C129.783 157.632 129.474 156.895 130.75 156.662C132.608 156.312 134.698 156.119 136.864 155.885L153.232 155.459V150.141C134.659 154.449 130.905 139.583 130.325 142.3C129.745 145.017 133.186 146.104 133.186 146.104L135.974 153.44C129.357 153.207 128.39 143.543 127.732 142.261C126.533 140.79 127.191 152.932 122.585 151.15C124.249 160.115 128.08 169.12 131.369 177.582C140.772 179.949 158.339 176.919 157.101 176.573C140.462 178.473 133.612 176.183 130.943 173.156Z" fill="#E34646"/>
<path d="M130.672 125.376C130.672 125.376 130.517 130.577 137.366 131.975C138.527 131.78 138.721 129.568 138.566 127.86C138.566 127.86 133.032 127.821 130.904 125.182C130.904 125.182 130.71 125.066 130.672 125.376Z" fill="#F75C3D"/>
<path d="M138.565 127.861C138.715 128.426 138.981 128.954 139.348 129.409C139.715 129.863 140.173 130.235 140.693 130.5C140.713 130.511 140.736 130.517 140.758 130.516C140.781 130.516 140.804 130.51 140.823 130.498C140.843 130.486 140.859 130.469 140.87 130.449C140.881 130.429 140.887 130.407 140.887 130.384C141.08 129.53 141.777 125.765 139.726 124.212C139.765 124.212 140.733 127.162 138.565 127.861Z" fill="#F75C3D"/>
<path d="M219.05 115.13L258.595 157.32C255.383 158.056 203.068 170.4 201.559 170.749L219.05 115.13Z" fill="url(#paint6_linear_51_4)"/>
<path d="M183.374 187.594C182.987 188.836 166.813 240.341 165.884 243.214L126.376 201.061L183.374 187.594Z" fill="url(#paint7_linear_51_4)"/>
<path d="M258.597 157.32C261.189 159.648 263.586 163.064 260.454 166.092L174.551 245.697C171.378 248.567 168.012 246.008 165.884 243.252C166.851 240.147 182.909 189.108 183.374 187.632C198.155 184.41 197.304 185.342 201.561 170.787C202.837 170.439 255.655 158.018 258.597 157.32Z" fill="url(#paint8_linear_51_4)"/>
<path d="M208.874 104.262L219.05 115.13C216.996 121.728 200.167 175.213 198.619 180.142C198.217 181.424 197.488 182.579 196.503 183.491C195.519 184.403 194.314 185.042 193.008 185.343C188.171 186.468 132.799 199.546 126.337 201.062L116.16 190.194C115.743 189.753 115.418 189.234 115.204 188.665C114.989 188.097 114.89 187.492 114.912 186.885C114.933 186.277 115.075 185.681 115.329 185.129C115.584 184.578 115.945 184.083 116.392 183.673L202.296 104.067C202.74 103.646 203.263 103.317 203.834 103.099C204.405 102.881 205.014 102.778 205.625 102.796C206.236 102.814 206.837 102.953 207.395 103.204C207.952 103.456 208.455 103.815 208.874 104.262Z" fill="url(#paint9_linear_51_4)"/>
<g opacity="0.2">
<path d="M219.05 115.13L222.61 118.895L207.326 169.391L201.599 170.749L219.05 115.13Z" fill="url(#paint10_linear_51_4)"/>
<path d="M183.374 187.594L181.633 193.221L129.898 204.827L126.376 201.062L183.374 187.594Z" fill="url(#paint11_linear_51_4)"/>
</g>
<path opacity="0.3" d="M207.326 169.391L205.623 175.057C204.539 177.696 202.953 186.003 200.554 187.789L200.515 187.828C198.619 190.079 190.068 191.088 187.398 191.942L181.594 193.262L183.335 187.673C198.116 184.451 197.265 185.382 201.521 170.827L207.326 169.391Z" fill="#FCB316"/>
<path d="M167.472 154.874C168.477 154.835 169.832 154.253 170.761 154.331C171.766 154.292 174.863 152.351 176.139 151.264C177.378 150.177 176.062 150.022 174.824 150.799C174.324 151.088 173.807 151.348 173.276 151.575C174.707 150.954 180.667 145.246 175.752 147.888C173.817 149.36 173.546 149.907 172.347 150.139C173.546 149.441 175.791 146.956 176.719 145.598C177.725 144.084 176.294 144.356 175.21 145.482C173.43 147.267 173.276 147.772 172.037 148.238C173.209 146.469 174.073 144.514 174.591 142.455C175.017 140.708 173.74 141.407 173.16 142.843C171.96 145.87 171.574 146.142 169.793 147.811C169.793 147.811 168.477 148.742 168.207 146.957C167.936 145.172 168.246 143.969 167.665 143.27C167.085 142.572 166.891 142.572 166.698 142.921C167.278 145.366 166.311 144.981 165.73 147.423C165.304 149.092 163.524 149.597 162.054 149.713C162.946 150.456 163.642 151.407 164.08 152.484C164.519 153.56 164.687 154.728 164.569 155.885C165.575 155.535 166.582 155.186 167.549 154.837L167.472 154.874Z" fill="#F6A89E"/>
<path d="M123.01 131.082C117.399 139.97 119.025 155.809 135.431 163.841C139.379 166.014 143.287 164.656 147.117 163.025C153.5 160.347 160.157 158.407 166.349 155.298C165.018 153.6 164.212 151.55 164.028 149.398C156.405 150.834 141.469 153.551 141.159 153.593C135.122 151.73 123.01 131.082 123.01 131.082Z" fill="#F75C3D"/>
</g>
<defs>
<linearGradient id="paint0_linear_51_4" x1="756.351" y1="283.636" x2="754.955" y2="290.947" gradientUnits="userSpaceOnUse">
<stop stop-color="#EF877E"/>
<stop offset="1" stop-color="#FABEB2"/>
</linearGradient>
<linearGradient id="paint1_linear_51_4" x1="486.178" y1="202.77" x2="503.151" y2="202.77" gradientUnits="userSpaceOnUse">
<stop stop-color="#E55E25"/>
<stop offset="1" stop-color="#F9A349"/>
</linearGradient>
<linearGradient id="paint2_linear_51_4" x1="433.749" y1="185.381" x2="412.392" y2="179.904" gradientUnits="userSpaceOnUse">
<stop stop-color="#EF877E"/>
<stop offset="1" stop-color="#FABEB2"/>
</linearGradient>
<linearGradient id="paint3_linear_51_4" x1="610.954" y1="192.382" x2="609.837" y2="199.982" gradientUnits="userSpaceOnUse">
<stop stop-color="#EF877E"/>
<stop offset="1" stop-color="#FABEB2"/>
</linearGradient>
<linearGradient id="paint4_linear_51_4" x1="441.049" y1="201.16" x2="441.044" y2="200.965" gradientUnits="userSpaceOnUse">
<stop stop-color="#E55E25"/>
<stop offset="1" stop-color="#F9A349"/>
</linearGradient>
<linearGradient id="paint5_linear_51_4" x1="431.439" y1="193.519" x2="431.39" y2="193.784" gradientUnits="userSpaceOnUse">
<stop stop-color="#42C1C5"/>
<stop offset="1" stop-color="#0898D0"/>
</linearGradient>
<linearGradient id="paint6_linear_51_4" x1="232.302" y1="-186.775" x2="232.302" y2="-223.873" gradientUnits="userSpaceOnUse">
<stop stop-color="#FFD05D"/>
<stop offset="1" stop-color="#FCB316"/>
</linearGradient>
<linearGradient id="paint7_linear_51_4" x1="156.642" y1="-187.283" x2="156.642" y2="-224.437" gradientUnits="userSpaceOnUse">
<stop stop-color="#FFD05D"/>
<stop offset="1" stop-color="#FCB316"/>
</linearGradient>
<linearGradient id="paint8_linear_51_4" x1="194.605" y1="-139.111" x2="194.605" y2="-186.708" gradientUnits="userSpaceOnUse">
<stop stop-color="#FFD05D"/>
<stop offset="1" stop-color="#FCB430"/>
</linearGradient>
<linearGradient id="paint9_linear_51_4" x1="194.265" y1="-217.266" x2="194.265" y2="-117.13" gradientUnits="userSpaceOnUse">
<stop stop-color="#FFD05D"/>
<stop offset="1" stop-color="#FCB316"/>
</linearGradient>
<linearGradient id="paint10_linear_51_4" x1="232.17" y1="-175.428" x2="232.17" y2="-216.142" gradientUnits="userSpaceOnUse">
<stop stop-color="#FFD05D"/>
<stop offset="1" stop-color="#FCB316"/>
</linearGradient>
<linearGradient id="paint11_linear_51_4" x1="156.642" y1="-175.383" x2="156.642" y2="-216.639" gradientUnits="userSpaceOnUse">
<stop stop-color="#FFD05D"/>
<stop offset="1" stop-color="#FCB316"/>
</linearGradient>
<clipPath id="clip0_51_4">
<rect width="402" height="296" fill="white"/>
</clipPath>
</defs>
</svg>
