<svg width="331" height="264" viewBox="0 0 331 264" fill="none" xmlns="http://www.w3.org/2000/svg">
<g clip-path="url(#clip0_54_378)">
<path opacity="0.28" d="M312.292 3.02258H180.288V135.04H312.292V3.02258Z" fill="#988B99"/>
<path d="M315.314 0H183.31V132.018H315.314V0Z" fill="white"/>
<path d="M234.003 7.80774H227.887V13.9244H240.156V7.80774H234.003Z" fill="#173A64"/>
<path d="M270.737 7.80774H264.621V13.9244H270.737V7.80774Z" fill="#173A64"/>
<path d="M258.505 13.9244H252.389V7.80774H246.273V13.9244H240.157V26.1586H234.003V32.2753H240.156V38.392H252.389V32.2753H246.273V20.0419H264.622V13.9252L258.505 13.9244Z" fill="#173A64"/>
<path d="M270.737 26.1585V20.0419H264.621V32.276H270.737V26.1585Z" fill="#173A64"/>
<path d="M227.887 38.3919V44.5452H234.003V32.2753H227.887V38.3919Z" fill="#173A64"/>
<path d="M264.621 32.2753H258.505V38.392H264.621V32.2753Z" fill="#173A64"/>
<path d="M240.119 75.1304H234.003V81.2471H240.119V75.1304Z" fill="#173A64"/>
<path d="M197.305 44.5452H191.189V50.6619H197.305V44.5452Z" fill="#173A64"/>
<path d="M258.505 50.6628H264.621V56.7795H270.737V50.6628H276.853V44.5461H270.736V38.3928H264.62V44.5461H240.156V50.6628H252.389V56.7795H258.505V50.6628Z" fill="#173A64"/>
<path d="M301.319 50.6618V44.5452H295.203V56.7793H301.319V50.6618Z" fill="#173A64"/>
<path d="M197.305 56.7795H191.189V62.8962H197.305V56.7795Z" fill="#173A64"/>
<path d="M221.77 62.896H227.886V56.7793H234.002V50.6627H221.77V44.5452H215.654V56.7793H221.77V62.896Z" fill="#173A64"/>
<path d="M252.388 56.7795H246.272V62.8962H252.388V56.7795Z" fill="#173A64"/>
<path d="M289.086 56.7793V44.5452H282.97V56.7793H270.737V62.896H282.97V69.0127H289.086V62.896H295.202V56.7793H289.086Z" fill="#173A64"/>
<path d="M221.77 62.896H215.654V56.7793H209.538V44.5452H203.422V50.6618H197.305V56.7785H203.421V62.8952H209.537V69.0119H215.653V75.1286H221.769V62.896H221.77Z" fill="#173A64"/>
<path d="M234.003 69.0137H240.156V75.1304H246.272V62.8962H240.156V56.7795H234.003V69.0137Z" fill="#173A64"/>
<path d="M301.319 62.8962H295.203V75.1304H289.086V81.2471H295.202V87.3638H301.318V99.598H307.47V81.2471H301.318V75.1304H307.47V69.0137H301.318L301.319 62.8962Z" fill="#173A64"/>
<path d="M197.305 69.0129H191.189V81.2471H197.305V87.3638H203.421V75.1296H197.305V69.0129Z" fill="#173A64"/>
<path d="M209.538 69.0127H203.422V75.1294H209.538V69.0127Z" fill="#173A64"/>
<path d="M270.737 69.0129V62.8962H252.388V75.1304H258.504V69.0137H264.62V75.1304H270.736V81.2471H276.852V75.1304H282.968V69.0137H270.737V69.0129Z" fill="#173A64"/>
<path d="M215.654 75.1304H209.538V81.2471H215.654V75.1304Z" fill="#173A64"/>
<path d="M227.887 75.1304H221.771V87.3645H227.887V99.5987H234.003V81.247H227.887V75.1304Z" fill="#173A64"/>
<path d="M252.388 75.1304H246.272V81.2471H252.388V75.1304Z" fill="#173A64"/>
<path d="M246.272 81.2471H240.156V87.3638H246.272V81.2471Z" fill="#173A64"/>
<path d="M264.621 93.4812V81.2471H258.505V87.3637H252.388V93.4804H264.621V93.4812Z" fill="#173A64"/>
<path d="M246.272 93.4812H240.156V99.5979H246.272V93.4812Z" fill="#173A64"/>
<path d="M258.504 99.5979H252.388V105.715H258.504V99.5979Z" fill="#173A64"/>
<path d="M289.194 99.5979V81.2471H264.585V105.859H270.701V111.868H276.817V105.859H282.933V111.868H289.049V105.859H289.157V105.75H295.165V111.867H307.398V105.75H301.282V99.6337H289.194V99.5979ZM269.334 85.9647H284.624V101.256H269.334V85.9647Z" fill="#173A64"/>
<path d="M234.003 111.868V117.985H240.156V99.5979H234.003V111.868Z" fill="#173A64"/>
<path d="M258.505 111.868V117.985H270.738V111.868H258.505Z" fill="#173A64"/>
<path d="M234.003 117.985H227.887V124.101H234.003V117.985Z" fill="#173A64"/>
<path d="M246.272 124.101H252.388V117.985H240.156V124.101H246.272Z" fill="#173A64"/>
<path d="M295.203 117.985V124.101H307.471V117.985H295.203Z" fill="#173A64"/>
<path d="M280.019 90.5303H273.903V96.647H280.019V90.5303Z" fill="#173A64"/>
<path d="M221.769 7.80774H191.189V38.3912H221.769V7.80774ZM217.2 33.8224H195.794V12.4131H217.201L217.2 33.8224Z" fill="#173A64"/>
<path d="M212.596 16.9828H200.363V29.217H212.596V16.9828Z" fill="#173A64"/>
<path d="M276.854 7.80774V38.3912H307.434V7.80774H276.854ZM302.866 33.8224H281.459V12.4131H302.866V33.8224Z" fill="#173A64"/>
<path d="M298.261 16.9828H286.028V29.217H298.261V16.9828Z" fill="#173A64"/>
<path d="M191.189 124.172H221.769V93.5886H191.189V124.172ZM195.758 98.1574H217.165V119.567H195.758V98.1574Z" fill="#173A64"/>
<path d="M212.596 102.764H200.363V114.999H212.596V102.764Z" fill="#173A64"/>
<path opacity="0.57" d="M303.405 212.546C304.377 210.906 305.231 209.198 305.959 207.436C313.442 189.517 304.556 167.136 301.066 149.469C300.095 144.432 302.002 126.189 292 127.484C286.351 128.204 285.272 139.142 284.768 142.992C284.84 137.775 284.912 132.521 284.983 127.304C285.019 124.929 285.019 122.447 284.012 120.252C283.573 119.087 282.792 118.081 281.771 117.368C280.751 116.654 279.538 116.266 278.293 116.254C277.047 116.243 275.828 116.608 274.794 117.302C273.76 117.996 272.96 118.987 272.499 120.144C271.528 122.195 271.456 124.461 271.384 126.657C271.168 133.314 270.197 136.048 270.017 142.741C269.261 135.796 268.829 132.09 268.074 125.146C267.714 121.871 267.283 118.453 265.304 115.683C263.325 112.912 259.223 111.077 255.878 112.444C254.909 112.888 254.052 113.542 253.368 114.358C252.683 115.174 252.189 116.131 251.92 117.162C251.446 119.152 251.312 121.208 251.524 123.243C251.92 132.455 251.056 134.649 251.452 143.861C249.989 136.169 247.821 128.629 244.975 121.336C245.264 120.49 245.41 119.603 245.407 118.709V54.0854C245.407 49.0839 240.874 45.0568 235.334 45.0568H124.736C125.601 44.8529 126.454 44.6007 127.291 44.3012C114.59 36.2413 94.6946 26.7783 78.5741 23.2157C59.0735 30.8079 46.0135 35.0912 27.305 45.884C23.3117 48.1868 19.8576 51.1377 19.1021 55.3112C12.8779 89.7818 7.15707 124.469 6.90251 159.407C6.86672 163.077 6.93829 166.89 8.12246 170.346L0 264H72.4963L76.7417 167.029C80.4641 162.046 83.1217 156.351 84.5494 150.297C84.9998 148.553 85.9237 146.968 87.2191 145.717C88.5144 144.466 90.1305 143.598 91.8887 143.208C106.712 139.503 106.963 132.558 122.11 130.438C121.902 129.447 121.458 128.521 120.815 127.739H227.601C229.868 137.167 231.955 147.386 234.041 161.022C235.193 168.579 235.732 166.635 236.884 174.624C237.243 177.106 236.558 185.167 234.185 183.871C228.069 180.597 223.644 176.135 219.038 170.776C220.424 165.055 220.52 159.097 219.319 153.334C218.118 147.571 215.65 142.147 212.094 137.456C206.482 149.51 202.416 157.642 200.005 170.524C197.235 185.276 214.001 189.127 226.09 207.334C230.807 214.422 241.272 220.791 252.57 224.533L251.167 263.969H323.339L303.405 212.546ZM63.7533 66.5669V68.8338C61.5224 69.7334 59.3281 70.633 57.0972 71.6042C59.2898 69.9132 61.5232 68.2221 63.7533 66.5669ZM63.7533 91.7543V93.1598C62.2779 93.7715 60.8034 94.3799 59.2923 95.0306C60.8392 93.8415 62.3145 92.7613 63.7533 91.7543ZM63.2856 122.267C62.5658 118.669 61.4866 115.574 59.9397 113.808C61.2353 112.8 62.53 111.937 63.7533 111.145V118.701C63.7565 119.99 64.0647 121.26 64.6528 122.407C64.1851 122.375 63.7175 122.339 63.2856 122.267ZM91.5284 45.0495C87.679 43.574 83.8646 42.2791 80.1234 41.2355C81.2385 40.6596 82.3543 40.0838 83.5051 39.4721C87.2463 42.0269 92.6434 43.8978 98.5797 45.0495H91.5284Z" fill="#988B99"/>
<path d="M91.3135 36.1982C101.136 43.6814 122.831 45.8775 134.38 41.4852C121.895 32.6339 102.323 22.3071 86.4923 18.4208C67.3162 26.7328 54.4717 31.4464 36.0869 43.2487C33.9895 44.5286 32.1173 46.1456 30.5459 48.0347L52.8166 69.4081C53.9316 66.0992 80.3038 42.6394 91.3135 36.1982Z" fill="#F9AA92"/>
<path d="M70.806 79.3054C82.355 69.3007 91.2061 65.0565 102.179 58.616C112.001 66.0992 133.696 68.2954 145.245 63.9031C132.761 55.0518 113.189 44.725 97.358 40.8386C78.1819 49.1506 65.3374 53.8642 46.9527 65.6665C44.8552 66.9464 42.9831 68.5634 41.4116 70.4525L59.5808 91.9341C60.7316 88.6602 67.9253 81.8237 70.806 79.3054Z" fill="#F9AA92"/>
<path d="M71.957 99.4903C83.5059 89.4857 93.3281 90.7464 104.301 84.306C114.124 91.7892 135.818 93.9853 147.367 89.593C134.883 80.7417 115.311 70.4149 99.48 66.5286C80.3039 74.8406 67.4594 79.5542 49.0746 91.3565C46.9773 92.6369 45.1055 94.2545 43.5344 96.1441L75.7713 134.933C76.8864 131.622 77.354 106.291 71.957 99.4903Z" fill="#F9AA92"/>
<path d="M252.783 36.522V102.333C252.785 103.751 252.507 105.156 251.965 106.466C251.424 107.777 250.629 108.968 249.626 109.97C248.623 110.973 247.433 111.768 246.122 112.31C244.812 112.852 243.407 113.13 241.99 113.128H88.1466C85.2848 113.125 82.5408 111.987 80.5172 109.964C78.4936 107.94 77.3556 105.195 77.3533 102.333V36.522C77.3578 33.9052 78.3125 31.3791 80.0398 29.4134C81.7671 27.4478 84.1494 26.1764 86.7437 25.8357C87.2079 25.764 87.6769 25.7278 88.1466 25.7275H241.99C243.61 25.7264 245.21 26.0956 246.667 26.8069C248.494 27.6909 250.036 29.0702 251.117 30.7879C252.198 32.5055 252.776 34.4923 252.783 36.522Z" fill="#FDBD2D"/>
<path opacity="0.35" d="M88.1466 27.2745C87.6769 27.2748 87.2079 27.3109 86.7437 27.3827C84.1494 27.7234 81.7671 28.9947 80.0398 30.9604C78.3125 32.926 77.3578 35.4522 77.3533 38.069V97.1154H90.8809V27.2745H88.1466Z" fill="#988B99"/>
<path opacity="0.35" d="M208.997 25.7275H108.69V39.4738H212.019V25.7275H208.997Z" fill="#988B99"/>
<path d="M90.8809 25.7275V95.5684H77.3533V36.522C77.3578 33.9052 78.3125 31.3791 80.0398 29.4134C81.7671 27.4478 84.1494 26.1764 86.7437 25.8357C87.2079 25.764 87.6769 25.7278 88.1466 25.7275H90.8809Z" fill="#173A64"/>
<path d="M86.7437 25.8357V90.1747H77.3533V36.522C77.3578 33.9052 78.3125 31.379 80.0398 29.4134C81.7671 27.4477 84.1494 26.1763 86.7437 25.8357Z" fill="#D23940"/>
<path d="M212.019 25.7275H110.237V37.638H212.019V25.7275Z" fill="#173A64"/>
<path d="M208.997 25.7275H113.223V34.1111H208.997V25.7275Z" fill="#988B99"/>
<path d="M254.402 34.0029V104.816C254.403 106.115 254.147 107.402 253.651 108.603C253.154 109.804 252.425 110.895 251.506 111.814C250.587 112.733 249.496 113.462 248.295 113.959C247.095 114.456 245.808 114.711 244.508 114.711H85.6277C84.3282 114.711 83.0414 114.456 81.8406 113.959C80.6399 113.462 79.5489 112.733 78.6301 111.814C77.7112 110.895 76.9824 109.804 76.4855 108.603C75.9885 107.402 75.7331 106.115 75.7339 104.816V34.0029C75.7331 32.7033 75.9885 31.4163 76.4855 30.2154C76.9824 29.0146 77.7112 27.9235 78.6301 27.0045C79.5489 26.0855 80.6399 25.3567 81.8406 24.8597C83.0414 24.3627 84.3282 24.1073 85.6277 24.108H244.508C247.129 24.1187 249.639 25.1647 251.492 27.018C253.346 28.8714 254.391 31.3819 254.402 34.0029ZM79.0083 104.849C79.0104 106.614 79.7124 108.306 80.9601 109.554C82.2079 110.802 83.8997 111.504 85.6643 111.506H244.544C246.309 111.504 248 110.802 249.248 109.554C250.496 108.306 251.198 106.614 251.2 104.849V34.0029C251.198 32.2381 250.496 30.5462 249.248 29.2983C248 28.0503 246.309 27.3483 244.544 27.3461H85.6245C83.8598 27.3483 82.1681 28.0503 80.9203 29.2983C79.6725 30.5462 78.9705 32.2381 78.9684 34.0029V104.849H79.0083Z" fill="#010101"/>
<path d="M82.2094 61.9225V76.9295C82.2094 77.7492 81.8837 78.5354 81.3041 79.1151C80.7246 79.6947 79.9385 80.0204 79.1188 80.0204H78.8667C78.047 80.0204 77.2609 79.6947 76.6813 79.1151C76.1017 78.5354 75.7761 77.7492 75.7761 76.9295V61.9225C75.7761 61.1027 76.1017 60.3165 76.6813 59.7369C77.2609 59.1572 78.047 58.8316 78.8667 58.8316H79.1188C79.5262 58.826 79.9306 58.9022 80.3081 59.0555C80.6856 59.2089 81.0285 59.4363 81.3166 59.7245C81.6047 60.0126 81.8321 60.3556 81.9855 60.7331C82.1388 61.1106 82.2149 61.515 82.2094 61.9225Z" fill="#010101"/>
<path d="M80.9661 103.612C80.9661 103.418 81.0061 103.251 81.0861 103.111C81.1661 102.971 81.2831 102.863 81.4371 102.787C81.5891 102.711 81.7791 102.673 82.0071 102.673C82.2491 102.673 82.4541 102.719 82.6221 102.811C82.7901 102.901 82.9181 103.026 83.0061 103.186C83.0941 103.346 83.1381 103.532 83.1381 103.744C83.1381 103.854 83.1261 103.96 83.1021 104.062C83.0781 104.164 83.0421 104.252 82.9941 104.326L82.6371 104.146C82.6771 104.088 82.7051 104.026 82.7211 103.96C82.7351 103.894 82.7421 103.825 82.7421 103.753C82.7421 103.573 82.6871 103.43 82.5771 103.324C82.4671 103.216 82.3041 103.162 82.0881 103.162C82.0521 103.162 82.0121 103.163 81.9681 103.165C81.9241 103.167 81.8801 103.172 81.8361 103.18L81.9621 103.048C82.0401 103.082 82.1061 103.13 82.1601 103.192C82.2121 103.254 82.2521 103.326 82.2801 103.408C82.3061 103.49 82.3191 103.582 82.3191 103.684C82.3191 103.818 82.2921 103.94 82.2381 104.05C82.1841 104.158 82.1081 104.245 82.0101 104.311C81.9121 104.375 81.7971 104.407 81.6651 104.407C81.5211 104.407 81.3971 104.372 81.2931 104.302C81.1891 104.23 81.1091 104.134 81.0531 104.014C80.9951 103.892 80.9661 103.758 80.9661 103.612ZM81.3291 103.582C81.3291 103.652 81.3421 103.713 81.3681 103.765C81.3921 103.817 81.4281 103.858 81.4761 103.888C81.5221 103.918 81.5771 103.933 81.6411 103.933C81.7371 103.933 81.8141 103.901 81.8721 103.837C81.9281 103.771 81.9561 103.684 81.9561 103.576C81.9561 103.506 81.9431 103.444 81.9171 103.39C81.8891 103.334 81.8511 103.291 81.8031 103.261C81.7551 103.231 81.7011 103.216 81.6411 103.216C81.5811 103.216 81.5281 103.231 81.4821 103.261C81.4341 103.289 81.3971 103.33 81.3711 103.384C81.3431 103.438 81.3291 103.504 81.3291 103.582ZM82.0491 102.164C82.0491 102.244 82.0221 102.313 81.9681 102.371C81.9121 102.427 81.8411 102.455 81.7551 102.455C81.6691 102.455 81.6001 102.427 81.5481 102.371C81.4941 102.313 81.4671 102.244 81.4671 102.164C81.4671 102.082 81.4941 102.013 81.5481 101.957C81.6001 101.901 81.6691 101.873 81.7551 101.873C81.8411 101.873 81.9121 101.901 81.9681 101.957C82.0221 102.013 82.0491 102.082 82.0491 102.164ZM83.1261 102.164C83.1261 102.244 83.0991 102.313 83.0451 102.371C82.9891 102.427 82.9181 102.455 82.8321 102.455C82.7461 102.455 82.6771 102.427 82.6251 102.371C82.5711 102.313 82.5441 102.244 82.5441 102.164C82.5441 102.082 82.5711 102.013 82.6251 101.957C82.6771 101.901 82.7461 101.873 82.8321 101.873C82.9181 101.873 82.9891 101.901 83.0451 101.957C83.0991 102.013 83.1261 102.082 83.1261 102.164ZM83.1021 101.672H82.7871L82.0221 100.862C81.9641 100.798 81.9121 100.751 81.8661 100.721C81.8201 100.691 81.7781 100.671 81.7401 100.661C81.7021 100.649 81.6671 100.643 81.6351 100.643C81.5511 100.643 81.4871 100.672 81.4431 100.73C81.3971 100.786 81.3741 100.869 81.3741 100.979C81.3741 101.067 81.3911 101.149 81.4251 101.225C81.4591 101.299 81.5121 101.362 81.5841 101.414L81.3561 101.768C81.2361 101.688 81.1411 101.576 81.0711 101.432C81.0011 101.288 80.9661 101.122 80.9661 100.934C80.9661 100.778 80.9921 100.642 81.0441 100.526C81.0941 100.408 81.1651 100.317 81.2571 100.253C81.3491 100.187 81.4591 100.154 81.5871 100.154C81.6551 100.154 81.7231 100.163 81.7911 100.181C81.8571 100.197 81.9271 100.231 82.0011 100.283C82.0751 100.333 82.1581 100.407 82.2501 100.505L82.8831 101.177L82.7061 101.27V100.085H83.1021V101.672ZM87.1021 104.026H85.1821L85.3921 103.816V104.446H85.0021V103.54H87.1021V104.026Z" fill="white"/>
<path d="M81.4717 47.8925V48.4326H82.9104V47.8925H81.4717Z" fill="white"/>
<path d="M80.8975 47.1638V47.7039H82.912V47.1638H80.8975Z" fill="white"/>
<path d="M80.5273 46.4218V46.9619H82.938V46.4218H80.5273Z" fill="white"/>
<path d="M82.4214 42.8543L82.7467 42.529C82.685 42.463 82.637 42.3855 82.6053 42.3008C82.5737 42.2162 82.5592 42.1262 82.5625 42.0359C82.5658 41.9456 82.587 41.8569 82.6247 41.7749C82.6625 41.6928 82.7161 41.619 82.7825 41.5578L82.4572 41.2324C82.3473 41.336 82.2592 41.4603 82.1979 41.5983C82.1365 41.7362 82.1032 41.885 82.0999 42.0359C82.0966 42.1868 82.1232 42.3369 82.1784 42.4774C82.2336 42.6179 82.3162 42.746 82.4214 42.8543Z" fill="white"/>
<path d="M81.8855 43.3944L82.2109 43.069C82.0807 42.9345 81.9783 42.7756 81.9096 42.6015C81.8409 42.4274 81.8073 42.2414 81.8106 42.0542C81.8139 41.867 81.8541 41.6824 81.9289 41.5108C82.0038 41.3392 82.1117 41.184 82.2466 41.0543L81.9213 40.7289C81.5696 41.0811 81.3692 41.5566 81.3625 42.0544C81.3558 42.5521 81.5434 43.0328 81.8855 43.3944Z" fill="white"/>
<path d="M81.3837 43.8979L81.709 43.5725C81.3244 43.1683 81.113 42.6298 81.1196 42.0718C81.1263 41.5139 81.3506 40.9807 81.7448 40.5858L81.4194 40.2604C80.9461 40.7453 80.6782 41.3943 80.6715 42.0719C80.6648 42.7496 80.92 43.4037 81.3837 43.8979Z" fill="white"/>
<path d="M81.2024 33.2473V33.898H80.6624V37.4241H82.929V33.898H82.389V33.2473H81.2024Z" fill="white"/>
<path d="M142.654 34.687V36.3423H132.65V46.347H131.032V34.687H142.654Z" fill="#F9F9FA"/>
<path d="M188.813 104.204V102.551H198.817V92.5459H200.472V104.204H188.813Z" fill="#F9F9FA"/>
<path d="M200.506 46.3811H198.853V36.3764H188.849V34.7228H200.506V46.3811Z" fill="#F9F9FA"/>
<path d="M130.996 92.51H132.651V102.515H142.618V104.17H130.996V92.51Z" fill="#F9F9FA"/>
<path opacity="0.35" d="M185.072 47.1724H137.365V94.8849H185.072V47.1724Z" fill="#988B99"/>
<path d="M186.151 46.093H138.444V93.8056H186.151V46.093Z" fill="white"/>
<path d="M156.793 48.9358H154.562V51.132H158.988V48.9358H156.793Z" fill="#173A64"/>
<path d="M170.032 48.9358H167.838V51.1303H170.032V48.9358Z" fill="#173A64"/>
<path d="M165.643 51.132H163.413V48.9358H161.217V51.132H158.988V55.5576H156.792V57.7537H158.988V59.9849H163.414V57.7537H161.218V53.3614H167.838V51.132H165.643Z" fill="#173A64"/>
<path d="M170.069 55.5575V53.3613H167.838V57.7536H170.069V55.5575Z" fill="#173A64"/>
<path d="M154.562 59.9824V62.1785H156.793V57.7512H154.562V59.9824Z" fill="#173A64"/>
<path d="M167.838 57.7512H165.644V59.9457H167.838V57.7512Z" fill="#173A64"/>
<path d="M158.987 73.2593H156.792V75.4538H158.987V73.2593Z" fill="#173A64"/>
<path d="M143.48 62.177H141.286V64.3715H143.48V62.177Z" fill="#173A64"/>
<path d="M165.644 64.4081H167.84V66.6042H170.071V64.4081H172.267V62.1786H170.071V59.9824H167.84V62.1786H158.988V64.4097H163.413V66.6059H165.644V64.4081Z" fill="#173A64"/>
<path d="M181.114 64.4081V62.177H178.884V66.6026H181.114V64.4081Z" fill="#173A64"/>
<path d="M143.48 66.6025H141.286V68.7971H143.48V66.6025Z" fill="#173A64"/>
<path d="M152.367 68.8338H154.563V66.6026H156.794V64.4065H152.369V62.177H150.136V66.6026H152.367V68.8338Z" fill="#173A64"/>
<path d="M163.412 66.6025H161.218V68.7971H163.412V66.6025Z" fill="#173A64"/>
<path d="M176.689 66.6026V62.177H174.493V66.6026H170.069V68.8338H174.494V71.0299H176.69V68.8338H178.886V66.6026H176.689Z" fill="#173A64"/>
<path d="M152.367 68.8338H150.137V66.6026H147.941V62.177H145.713V64.4081H143.517V66.6043H145.713V68.8354H147.944V71.0315H150.14V73.2627H152.371V68.837L152.367 68.8338Z" fill="#173A64"/>
<path d="M156.792 71.0282H158.988V73.2593H161.219V68.8337H158.988V66.6025H156.792V71.0282Z" fill="#173A64"/>
<path d="M181.114 68.8337H178.884V73.2594H176.688V75.4555H178.884V77.6867H181.115V82.1123H183.311V75.4547H181.115V73.2586H183.311V71.0299H181.115L181.114 68.8337Z" fill="#173A64"/>
<path d="M143.517 71.0291H141.286V75.4547H143.517V77.6858H145.713V73.2602H143.517V71.0291Z" fill="#173A64"/>
<path d="M147.906 71.0291H145.711V73.2236H147.906V71.0291Z" fill="#173A64"/>
<path d="M170.069 71.0299V68.8337H163.413V73.2594H165.644V71.0299H167.84V73.261H170.071V75.4571H172.266V73.261H174.497V71.0299H170.072H170.069Z" fill="#173A64"/>
<path d="M150.136 73.2593H147.942V75.4538H150.136V73.2593Z" fill="#173A64"/>
<path d="M154.563 73.2593H152.367V77.6849H154.563V82.1106H156.794V75.4554H154.563V73.2593Z" fill="#173A64"/>
<path d="M163.412 73.2593H161.218V75.4538H163.412V73.2593Z" fill="#173A64"/>
<path d="M161.182 75.4546H158.988V77.6491H161.182V75.4546Z" fill="#173A64"/>
<path d="M167.838 79.8802V75.4546H165.642V77.6857H163.413V79.8819H167.838V79.8802Z" fill="#173A64"/>
<path d="M161.182 79.8804H158.988V82.0749H161.182V79.8804Z" fill="#173A64"/>
<path d="M165.607 82.1116H163.413V84.3061H165.607V82.1116Z" fill="#173A64"/>
<path d="M176.725 82.1114V75.4546H167.838V84.3425H170.069V86.5012H172.265V84.3425H174.461V86.5012H176.657V84.3425H176.693V84.3067H178.851V86.5029H183.243V84.3067H181.047V82.1105H176.73L176.725 82.1114ZM169.53 77.1822H175.071V82.7238H169.53V77.1822Z" fill="#173A64"/>
<path d="M156.792 86.5372V88.7334H158.988V82.1116H156.792V86.5372Z" fill="#173A64"/>
<path d="M165.644 86.5371V88.7332H170.069V86.5371H165.644Z" fill="#173A64"/>
<path d="M156.757 88.7317H154.562V90.9262H156.757V88.7317Z" fill="#173A64"/>
<path d="M161.219 90.9628H163.415V88.7317H158.988V90.9628H161.219Z" fill="#173A64"/>
<path d="M178.884 88.7317V90.9628H183.309V88.7317H178.884Z" fill="#173A64"/>
<path d="M173.378 78.8367H171.184V81.0312H173.378V78.8367Z" fill="#173A64"/>
<path d="M152.368 48.9358H141.322V59.9824H152.368V48.9358ZM150.712 58.3272H142.977V50.591H150.712V58.3272Z" fill="#173A64"/>
<path d="M149.057 52.2463H144.632V56.672H149.057V52.2463Z" fill="#173A64"/>
<path d="M172.263 48.9358V59.9824H183.309V48.9358H172.263ZM181.654 58.3272H173.918V50.591H181.654V58.3272Z" fill="#173A64"/>
<path d="M179.999 52.2463H175.573V56.672H179.999V52.2463Z" fill="#173A64"/>
<path d="M141.286 90.9629H152.332V79.9163H141.286V90.9629ZM142.941 81.5715H150.677V89.3076H142.941V81.5715Z" fill="#173A64"/>
<path d="M149.057 83.2266H144.632V87.6522H149.057V83.2266Z" fill="#173A64"/>
<path d="M126.823 54.5491H204.608" stroke="#BE3B26" stroke-width="1.894"/>
<path d="M125.815 34.687V104.204" stroke="white" stroke-width="1.894"/>
<path d="M206.083 34.687V104.204" stroke="white" stroke-width="1.894"/>
<path d="M229.397 79.1964C234.583 79.1964 238.787 74.9917 238.787 69.805C238.787 64.6182 234.583 60.4136 229.397 60.4136C224.211 60.4136 220.007 64.6182 220.007 69.805C220.007 74.9917 224.211 79.1964 229.397 79.1964Z" fill="#F9F9FA"/>
<path d="M126.644 110.753C123.082 109.026 118.656 108.09 115.166 107.478C113.594 107.243 112.007 107.123 110.417 107.118C110.129 108.093 109.936 109.093 109.842 110.105C115.346 109.601 121.103 110.285 126.644 110.753Z" fill="#FBCCBD"/>
<path d="M59.328 171.85C76.8498 166.021 79.0099 159.328 84.2964 136.66C85.1601 132.954 91.7438 126.981 95.4135 125.974C107.767 122.36 120.352 119.595 133.082 117.697C131.862 111.109 121.859 108.63 115.13 107.479C107.358 106.147 84.3322 108.666 80.5902 108.774C78.0916 109.14 75.5445 108.989 73.1069 108.33C70.6692 107.67 68.3931 106.517 66.4195 104.941C64.446 103.366 62.8173 101.401 61.6343 99.1703C60.4514 96.939 59.7394 94.4885 59.5427 91.9707C58.391 76.679 55.6567 63.6168 56.1268 49.1864C56.2708 44.4688 60.1567 41.774 63.7182 38.7157C75.2671 28.711 84.1175 24.4667 95.0914 18.0263C104.914 25.5095 126.609 27.7056 138.157 23.3133C125.673 14.462 106.101 4.13527 90.2701 0.248901C71.094 8.56092 58.2495 13.2745 39.8648 25.0768C35.943 27.5983 32.5613 30.834 31.8058 35.4068C25.6531 73.1879 20.0405 111.185 19.825 149.434C19.7892 155.012 19.9332 160.984 22.9912 165.626C25.5816 169.584 30.0067 172.067 34.5759 173.254C39.1442 174.513 54.5791 171.815 59.328 171.85Z" fill="#FBCCBD"/>
<path opacity="0.43" d="M87.6075 108.99C78.2005 109.825 68.7268 108.509 59.9039 105.14C58.2488 104.529 57.5291 107.155 59.1483 107.767C68.2103 111.182 77.9227 112.523 87.5709 111.689C89.2983 111.581 89.3699 108.846 87.6075 108.99Z" fill="#F9AA92"/>
<path opacity="0.43" d="M60.839 45.5539C58.7921 43.389 56.4111 41.5666 53.7869 40.1562C52.2416 39.329 50.837 41.6675 52.3839 42.4947C54.8123 43.7799 57.0124 45.4562 58.896 47.4564C60.0835 48.7546 62.0264 46.8496 60.839 45.5539Z" fill="#F9AA92"/>
<path opacity="0.43" d="M94.4067 10.6147C94.3709 12.7018 94.3343 14.789 94.2627 16.8778C94.2694 17.233 94.414 17.5717 94.6659 17.8222C94.9178 18.0727 95.2573 18.2154 95.6125 18.2201C95.9678 18.2247 96.3109 18.091 96.5692 17.8471C96.8276 17.6033 96.981 17.2685 96.997 16.9136L97.141 10.6505C97.1343 10.2953 96.9897 9.95656 96.7378 9.70606C96.4859 9.45555 96.1464 9.31287 95.7911 9.30822C95.4359 9.30357 95.0928 9.43731 94.8344 9.68113C94.576 9.92496 94.4226 10.2598 94.4067 10.6147Z" fill="#F9AA92"/>
<path d="M135.062 21.8777C135.272 21.7667 135.489 21.6705 135.713 21.5898C131.899 19.0349 127.58 16.3727 123.012 13.8536C121.887 14.9376 120.918 16.1728 120.134 17.5236C122.509 18.6388 124.811 19.8621 127.185 21.0139C129.881 22.3129 132.148 23.1011 135.062 21.8777Z" fill="#FDE4DB"/>
<path d="M127.506 116.69C121.822 116.331 115.705 115.287 109.985 115.935C110.164 117.554 110.416 119.101 110.669 120.396C110.741 120.9 110.848 121.404 110.957 121.942C116.354 120.683 121.498 119.639 127.759 118.595C127.65 117.95 127.579 117.302 127.506 116.69Z" fill="#FDE4DB"/>
<path d="M72.9996 147.779L84.2964 264.001H13.0242L22.918 137.164L72.9996 147.779Z" fill="#FBCCBD"/>
<path d="M282.716 224.673C266.093 225.428 243.031 214.778 235.368 201.968C223.494 182.034 207.018 177.824 209.716 161.668C211.912 148.606 215.473 140.006 220.402 128.312C220.517 128.029 220.709 127.784 220.957 127.606C221.205 127.428 221.498 127.323 221.802 127.304C222.107 127.285 222.411 127.353 222.679 127.5C222.947 127.646 223.168 127.866 223.316 128.132C229.126 138.393 230.946 150.437 228.425 161.955C232.959 167.784 237.312 172.678 243.32 176.276C245.658 177.679 246.307 168.828 245.946 166.129C244.831 157.385 244.327 159.508 243.176 151.233C239.435 124.21 235.8 109.565 230.908 89.8835C229 82.1831 223.82 72.612 227.274 65.4875C227.738 64.5213 228.471 63.7098 229.386 63.1504C230.3 62.591 231.357 62.3076 232.428 62.3342C233.5 62.3609 234.541 62.6964 235.426 63.3005C236.312 63.9046 237.004 64.7516 237.42 65.7397C247.062 88.3722 256.236 108.055 260.302 132.451C259.906 122.339 260.77 119.965 260.374 109.854C260.181 107.627 260.314 105.385 260.77 103.197C261.634 99.815 264.368 96.6842 268.721 97.7278C270.601 98.1877 272.258 99.2974 273.399 100.861C275.81 103.992 276.242 108.057 276.637 111.943C277.393 119.571 277.789 123.602 278.544 131.23C278.76 123.925 279.696 120.939 279.912 113.634C279.984 111.224 280.055 108.741 280.991 106.51C281.926 104.279 283.977 102.336 286.388 102.228C289.014 102.12 291.317 104.207 292.325 106.621C293.333 109.034 293.296 111.73 293.296 114.357C293.224 120.078 293.152 125.799 293.08 131.556C293.548 127.346 294.592 115.364 300.168 114.572C310.027 113.169 308.119 133.175 309.091 138.645C312.507 158.003 321.252 182.507 313.877 202.153C308.298 216.972 298.26 223.953 282.716 224.673Z" fill="#FBCCBD"/>
<path d="M235.658 64.552C232.783 65.1793 229.976 66.0831 227.275 67.2508C227.37 72.1001 228.257 76.9012 229.902 81.464C233.895 80.9239 237.601 79.1255 241.091 76.8586C239.58 72.6477 237.565 68.6189 235.658 64.552Z" fill="#FDE4DB"/>
<path d="M220.871 145.404C221.807 141.626 222.526 137.776 223.282 133.962C223.44 133.141 223.362 132.293 223.056 131.515C222.75 130.737 222.23 130.063 221.555 129.57C221.124 129.244 220.692 128.958 220.224 128.67C217.742 134.608 215.582 139.752 213.82 145.113C216.158 145.296 218.536 145.368 220.871 145.404Z" fill="#FDE4DB"/>
<path d="M261.095 217.584L265.487 264.001H331.003L311.177 206.969L261.095 217.584Z" fill="#FBCCBD"/>
<path opacity="0.43" d="M249.906 176.42C246.857 177.084 243.673 176.691 240.878 175.305C239.295 174.549 237.891 176.888 239.475 177.643C242.909 179.375 246.835 179.87 250.592 179.046C252.316 178.687 251.632 176.061 249.906 176.42Z" fill="#F9AA92"/>
<path opacity="0.43" d="M304.089 218.807C295.842 220.918 287.827 223.847 280.163 227.551C278.58 228.307 279.947 230.682 281.494 229.926C288.955 226.343 296.752 223.51 304.773 221.467C305.104 221.358 305.382 221.126 305.549 220.82C305.716 220.514 305.761 220.155 305.674 219.817C305.587 219.479 305.375 219.187 305.081 218.999C304.786 218.812 304.432 218.743 304.089 218.807Z" fill="#F9AA92"/>
<path opacity="0.29" d="M257.605 129.392C256.741 127.881 254.367 129.213 255.23 130.724C257.716 135.012 258.821 139.962 258.393 144.9C258.249 146.664 260.984 146.664 261.128 144.936C261.56 139.517 260.331 134.095 257.605 129.392Z" fill="#F9AA92"/>
<path opacity="0.29" d="M276.637 131.191C275.773 129.68 273.399 131.012 274.262 132.523C275.341 134.399 276.002 136.485 276.2 138.64C276.399 140.795 276.131 142.967 275.414 145.008C274.838 146.664 277.465 147.419 278.04 145.764C278.86 143.376 279.159 140.839 278.917 138.326C278.675 135.812 277.898 133.379 276.637 131.191Z" fill="#F9AA92"/>
<path opacity="0.29" d="M292.972 133.386C292.396 131.731 289.734 132.415 290.346 134.07C291.578 137.395 291.488 141.065 290.093 144.325C289.443 145.945 292.072 146.7 292.72 145.081C294.24 141.347 294.33 137.182 292.972 133.386Z" fill="#F9AA92"/>
<path opacity="0.29" d="M306.535 138.315C306.355 136.588 303.621 136.552 303.801 138.279C304.159 141.479 303.41 144.705 301.678 147.419C300.743 148.894 303.081 150.297 304.016 148.822C306.007 145.7 306.894 142.001 306.535 138.315Z" fill="#F9AA92"/>
</g>
<defs>
<clipPath id="clip0_54_378">
<rect width="331" height="264" fill="white"/>
</clipPath>
</defs>
</svg>
