<svg xmlns="http://www.w3.org/2000/svg" width="16" height="16" viewBox="0 0 16 16">
  <g id="Group_66054" data-name="Group 66054" transform="translate(-24 -12)">
    <g id="Rectangle_7" data-name="Rectangle 7" transform="translate(24 12)" fill="none" stroke="#fff" stroke-width="1">
      <rect width="16" height="16" rx="8" stroke="none"/>
      <rect x="0.5" y="0.5" width="15" height="15" rx="7.5" fill="none"/>
    </g>
    <g id="Group_62261" data-name="Group 62261" transform="translate(28.557 14.836)">
      <path id="Path_26272" data-name="Path 26272" d="M13.788,7.394A3.394,3.394,0,1,0,7,7.394a.679.679,0,0,0,1.358,0A2.036,2.036,0,1,1,10.394,9.43a.679.679,0,0,0-.679.679v1.358a.679.679,0,1,0,1.358,0V10.72A3.394,3.394,0,0,0,13.788,7.394Z" transform="translate(-6.999 -4)" fill="#fff"/>
      <circle id="Ellipse_17756" data-name="Ellipse 17756" cx="1" cy="1" r="1" transform="translate(2.443 9.164)" fill="#fff"/>
    </g>
  </g>
</svg>
