<svg width="496" height="310" viewBox="0 0 496 310" fill="none" xmlns="http://www.w3.org/2000/svg">
<g clip-path="url(#clip0_53_190)">
<path d="M193.338 75.1198C177.028 84.7737 157.459 87.4736 138.508 86.9167C117.248 86.2784 106.258 76.1921 100.649 56.1047C98.8146 49.5672 97.2472 42.6786 98.5458 36.0174C100.093 28.1187 105.578 21.436 112.114 16.7343C135.642 -0.115347 169.418 -3.353 196.991 3.14304C205.569 5.16398 216.23 8.83487 220.849 16.9402C222.752 20.5398 223.643 24.5882 223.427 28.6541C223.011 47.0061 208.7 66.0243 193.338 75.1198Z" fill="#FFFCF4"/>
<path d="M3.67095 310H470.684C483.633 285.746 493.345 257.946 495.531 230.535C496.582 217.171 496.211 203.291 490.768 191.042C479.983 166.83 451.609 153.672 442.042 128.964C435.855 113.021 438.66 95.1201 436.059 78.209C432.12 52.7386 415.418 30.0735 393.477 16.5436C371.537 3.0138 344.854 -1.79081 319.203 0.581179C309.078 1.50907 298.954 3.5715 289.839 8.06735C274.992 15.4075 264.022 28.6294 253.918 41.746C241.381 58.022 228.926 75.1756 211.192 85.5476C191.685 96.9528 168.054 98.7264 145.495 97.7363C122.937 96.7461 100.357 93.2819 77.8602 95.2821C55.363 97.2823 32.1446 105.759 18.597 123.826C-0.765948 149.667 5.07015 186.109 14.9882 216.839C19.5248 230.881 24.7825 245.651 21.5661 260.066C17.5696 277.869 1.58811 291.893 3.67095 310Z" fill="#FFFCF4"/>
<mask id="mask0_53_190" style="mask-type:luminance" maskUnits="userSpaceOnUse" x="3" y="0" width="493" height="311">
<path d="M3.67095 310H470.684C483.633 285.746 493.345 257.946 495.531 230.535C496.582 217.171 496.211 203.291 490.768 191.042C479.983 166.83 451.609 153.672 442.042 128.964C435.855 113.021 438.66 95.1201 436.059 78.209C432.12 52.7386 415.418 30.0735 393.477 16.5436C371.537 3.0138 344.854 -1.79081 319.203 0.581179C309.078 1.50907 298.954 3.5715 289.839 8.06735C274.992 15.4075 264.022 28.6294 253.918 41.746C241.381 58.022 228.926 75.1756 211.192 85.5476C191.685 96.9528 168.054 98.7264 145.495 97.7363C122.937 96.7461 100.357 93.2819 77.8602 95.2821C55.363 97.2823 32.1446 105.759 18.597 123.826C-0.765948 149.667 5.07015 186.109 14.9882 216.839C19.5248 230.881 24.7825 245.651 21.5661 260.066C17.5696 277.869 1.58811 291.893 3.67095 310Z" fill="white"/>
</mask>
<g mask="url(#mask0_53_190)">
<path opacity="0.996" d="M-16.9907 175.657C-2.45953 155.521 21.4097 144.282 46.2945 141.155C54.1047 140.175 61.9934 139.981 69.8423 140.576C102.381 143.05 132.838 157.137 161.5 172.708C190.163 188.3 218.144 205.748 249.116 215.977C280.088 226.227 315.247 228.599 344.506 214.142C368.53 202.263 386.139 180.422 408.924 166.294C433.752 150.909 463.488 145.423 492.623 143.67C497.16 150.909 498.912 159.797 499.944 168.274C505.888 216.463 506.206 265.181 500.892 313.445H-8.24774C-10.66 268.258 -16.7019 220.947 -16.9907 175.657Z" fill="#FFFAED"/>
</g>
<path d="M345.867 310.001H192.472C191.115 310.002 189.771 309.736 188.517 309.217C187.263 308.698 186.124 307.937 185.164 306.977C184.205 306.017 183.444 304.878 182.925 303.624C182.406 302.37 182.14 301.025 182.141 299.668V47.0891C182.14 45.7318 182.406 44.3877 182.925 43.1335C183.444 41.8794 184.205 40.7398 185.164 39.7801C186.124 38.8204 187.263 38.0593 188.517 37.5404C189.771 37.0215 191.115 36.7551 192.472 36.7562H345.868C347.225 36.7552 348.569 37.0217 349.823 37.5406C351.077 38.0595 352.216 38.8206 353.176 39.7803C354.135 40.74 354.896 41.8795 355.415 43.1337C355.934 44.3878 356.2 45.7319 356.199 47.0891V299.668C356.195 302.407 355.104 305.033 353.168 306.97C351.231 308.906 348.606 309.996 345.867 310.001Z" fill="#FFD05D"/>
<path d="M339.703 284.658H198.782C198.023 284.659 197.272 284.51 196.571 284.221C195.87 283.931 195.233 283.506 194.696 282.969C194.16 282.433 193.735 281.795 193.445 281.094C193.155 280.393 193.007 279.642 193.008 278.883V55.6268C193.007 54.8681 193.155 54.1166 193.445 53.4154C193.735 52.7142 194.16 52.0772 194.696 51.5407C195.233 51.0042 195.87 50.5788 196.571 50.2891C197.272 49.9993 198.023 49.8508 198.782 49.8521H339.703C340.461 49.8508 341.213 49.9993 341.914 50.2891C342.615 50.5788 343.252 51.0042 343.788 51.5407C344.325 52.0772 344.75 52.7142 345.039 53.4154C345.329 54.1166 345.478 54.8681 345.476 55.6268V278.88C345.478 279.639 345.33 280.39 345.04 281.092C344.751 281.794 344.326 282.431 343.789 282.968C343.253 283.505 342.616 283.93 341.914 284.22C341.213 284.51 340.461 284.659 339.703 284.658Z" fill="#FFE8BE"/>
<mask id="mask1_53_190" style="mask-type:luminance" maskUnits="userSpaceOnUse" x="193" y="49" width="153" height="236">
<path d="M339.703 284.658H198.782C198.023 284.659 197.272 284.51 196.571 284.221C195.87 283.931 195.233 283.506 194.696 282.969C194.16 282.433 193.735 281.795 193.445 281.094C193.155 280.393 193.007 279.642 193.008 278.883V55.6268C193.007 54.8681 193.155 54.1166 193.445 53.4154C193.735 52.7142 194.16 52.0772 194.696 51.5407C195.233 51.0042 195.87 50.5788 196.571 50.2891C197.272 49.9993 198.023 49.8508 198.782 49.8521H339.703C340.461 49.8508 341.213 49.9993 341.914 50.2891C342.615 50.5788 343.252 51.0042 343.788 51.5407C344.325 52.0772 344.75 52.7142 345.039 53.4154C345.329 54.1166 345.478 54.8681 345.476 55.6268V278.88C345.478 279.639 345.33 280.39 345.04 281.092C344.751 281.794 344.326 282.431 343.789 282.968C343.253 283.505 342.616 283.93 341.914 284.22C341.213 284.51 340.461 284.659 339.703 284.658Z" fill="white"/>
</mask>
<g mask="url(#mask1_53_190)">
<path opacity="0.34" d="M241.383 45.1288L182.141 123.747V199.251L269.159 119.418L185.543 244.6V298.428H277.016L329.062 200.28L299.987 292.777H345.476L356.178 281.723L360.199 126.983L299.843 193.124L352.157 89.1187L349.353 43.6224L241.383 45.1288Z" fill="#D33E45"/>
</g>
<path d="M281.944 302.12H256.54C255.321 302.119 254.152 301.634 253.29 300.772C252.428 299.91 251.943 298.741 251.942 297.521V294.51C251.943 293.291 252.428 292.122 253.29 291.26C254.152 290.398 255.321 289.913 256.54 289.911H281.944C283.163 289.913 284.332 290.398 285.194 291.26C286.056 292.122 286.541 293.291 286.542 294.51V297.521C286.545 298.126 286.428 298.725 286.198 299.285C285.968 299.844 285.629 300.352 285.202 300.779C284.774 301.207 284.266 301.546 283.707 301.776C283.148 302.006 282.549 302.123 281.944 302.12Z" fill="#D33D44"/>
<path d="M223.114 177.163H218.351V193.106H223.114V177.163Z" fill="#D33E45"/>
<path d="M231.26 177.163H226.496V193.106H231.26V177.163Z" fill="#D33E45"/>
<path d="M239.404 177.163H234.641V193.106H239.404V177.163Z" fill="#D33E45"/>
<path d="M244.003 177.163H241.611V193.106H244.003V177.163Z" fill="#D33E45"/>
<path d="M248.663 177.163H246.271V193.106H248.663V177.163Z" fill="#D33E45"/>
<path d="M255.715 177.163H250.952V193.106H255.715V177.163Z" fill="#D33E45"/>
<path d="M263.86 177.163H259.097V193.106H263.86V177.163Z" fill="#D33E45"/>
<path d="M272.005 177.163H267.242V193.106H272.005V177.163Z" fill="#D33E45"/>
<path d="M281.017 177.163H278.625V193.106H281.017V177.163Z" fill="#D33E45"/>
<path d="M276.522 177.163H274.13V193.106H276.522V177.163Z" fill="#D33E45"/>
<path d="M288.316 177.163H283.553V193.106H288.316V177.163Z" fill="#D33E45"/>
<path d="M296.461 177.163H291.698V193.106H296.461V177.163Z" fill="#D33E45"/>
<path d="M304.606 177.163H299.843V193.106H304.606V177.163Z" fill="#D33E45"/>
<path d="M309.575 177.163H307.988V193.106H309.575V177.163Z" fill="#D33E45"/>
<path d="M313.658 177.163H312.071V193.106H313.658V177.163Z" fill="#D33E45"/>
<path d="M320.917 177.163H316.154V193.106H320.917V177.163Z" fill="#D33E45"/>
<path d="M317.493 164.682H220.825C219.923 164.681 219.058 164.322 218.42 163.684C217.782 163.046 217.423 162.181 217.422 161.279V77.5293C217.423 76.6271 217.782 75.762 218.42 75.1241C219.058 74.4861 219.923 74.1273 220.825 74.1265H317.493C318.396 74.1273 319.26 74.4861 319.898 75.1241C320.536 75.762 320.895 76.6271 320.896 77.5293V161.283C320.898 161.73 320.812 162.174 320.642 162.588C320.472 163.001 320.221 163.377 319.905 163.693C319.588 164.01 319.212 164.26 318.798 164.429C318.384 164.599 317.941 164.685 317.493 164.682Z" fill="#FFD05D"/>
<path d="M243.776 80.2722H222.907V101.144H243.776V80.2722Z" fill="#D33D44"/>
<path d="M267.241 115.126H222.907V159.467H267.241V115.126Z" fill="#D33D44"/>
<path d="M257.714 123.748H232.434V149.032H257.714V123.748Z" fill="#F0AE94"/>
<path d="M315.267 138.596H294.399V159.468H315.267V138.596Z" fill="#D33D44"/>
<path d="M315.267 80.2722H294.399V101.144H315.267V80.2722Z" fill="#D33D44"/>
<path d="M280.315 80.2722H272.912V87.6762H280.315V80.2722Z" fill="#D33D44"/>
<path d="M230.31 104.03H222.907V111.434H230.31V104.03Z" fill="#D33D44"/>
<path d="M241.383 104.03H233.98V111.434H241.383V104.03Z" fill="#D33D44"/>
<path d="M252.457 104.03H245.054V111.434H252.457V104.03Z" fill="#D33D44"/>
<path d="M263.51 104.03H256.107V111.434H263.51V104.03Z" fill="#D33D44"/>
<path d="M285.223 96.2554H280.315V101.164H285.223V96.2554Z" fill="#D33D44"/>
<path d="M274.066 92.275H269.159V97.1834H274.066V92.275Z" fill="#D33D44"/>
<path d="M297.801 114.714H292.894V119.622H297.801V114.714Z" fill="#D33D44"/>
<path d="M279.449 106.526H274.541V111.434H279.449V106.526Z" fill="#D33D44"/>
<path d="M286.645 114.714H281.738V119.622H286.645V114.714Z" fill="#D33D44"/>
<path d="M299.987 130.863H295.079V135.771H299.987V130.863Z" fill="#D33D44"/>
<path d="M307.616 130.863H302.708V135.771H307.616V130.863Z" fill="#D33D44"/>
<path d="M315.266 130.863H310.359V135.771H315.266V130.863Z" fill="#D33D44"/>
<path d="M264.87 89.1195H252.848V101.143H264.87V89.1195Z" fill="#D33D44"/>
<path d="M288.11 123.748H276.088V135.771H288.11V123.748Z" fill="#D33D44"/>
<path d="M275.593 153.961H270.087V159.468H275.593V153.961Z" fill="#D33D44"/>
<path d="M291.038 147.403H278.954V159.489H291.038V147.403Z" fill="#D33D44"/>
<path d="M315.287 115.126H306.276V124.139H315.287V115.126Z" fill="#D33D44"/>
<path d="M298.873 104.691H292.894V110.672H298.873V104.691Z" fill="#D33D44"/>
<path d="M307.08 104.691H301.1V110.672H307.08V104.691Z" fill="#D33D44"/>
<path d="M315.287 104.691H309.307V110.672H315.287V104.691Z" fill="#D33D44"/>
<path d="M310.565 143.299H299.1V154.765H310.565V143.299Z" fill="#F0AE94"/>
<path d="M239.095 84.9955H227.63V96.4621H239.095V84.9955Z" fill="#F0AE94"/>
<path d="M310.565 84.9955H299.1V96.4621H310.565V84.9955Z" fill="#F0AE94"/>
<path d="M309.431 248.439H228.91C227.641 248.439 226.423 247.934 225.526 247.037C224.628 246.139 224.124 244.921 224.124 243.652V220.475C224.124 219.205 224.628 217.988 225.526 217.09C226.423 216.192 227.641 215.688 228.91 215.688H309.433C310.703 215.688 311.92 216.192 312.818 217.09C313.715 217.988 314.219 219.205 314.219 220.475V243.656C314.22 244.285 314.097 244.908 313.857 245.489C313.616 246.07 313.264 246.598 312.819 247.043C312.374 247.487 311.845 247.839 311.264 248.079C310.682 248.318 310.06 248.441 309.431 248.439Z" fill="#D33E45"/>
<mask id="mask2_53_190" style="mask-type:luminance" maskUnits="userSpaceOnUse" x="224" y="215" width="91" height="34">
<path d="M309.431 248.439H228.91C227.641 248.439 226.423 247.934 225.526 247.037C224.628 246.139 224.124 244.921 224.124 243.652V220.475C224.124 219.205 224.628 217.988 225.526 217.09C226.423 216.192 227.641 215.688 228.91 215.688H309.433C310.703 215.688 311.92 216.192 312.818 217.09C313.715 217.988 314.219 219.205 314.219 220.475V243.656C314.22 244.285 314.097 244.908 313.857 245.489C313.616 246.07 313.264 246.598 312.819 247.043C312.374 247.487 311.845 247.839 311.264 248.079C310.682 248.318 310.06 248.441 309.431 248.439Z" fill="white"/>
</mask>
<g mask="url(#mask2_53_190)">
<path opacity="0.15" d="M313.204 252.481H231.506C230.456 252.481 229.449 252.064 228.706 251.321C227.964 250.579 227.547 249.572 227.547 248.522V222.021C227.547 220.97 227.964 219.963 228.706 219.221C229.449 218.478 230.456 218.061 231.506 218.061H313.204C314.254 218.061 315.261 218.478 316.003 219.221C316.745 219.963 317.163 220.97 317.163 222.021V248.522C317.164 249.042 317.063 249.558 316.865 250.039C316.666 250.52 316.375 250.957 316.007 251.325C315.639 251.693 315.202 251.985 314.721 252.183C314.24 252.382 313.724 252.483 313.204 252.481Z" fill="#D33E45"/>
</g>
<path d="M251.364 227.897C251.41 228.012 251.427 228.136 251.413 228.258C251.399 228.381 251.355 228.498 251.285 228.599C251.133 228.787 250.922 228.917 250.686 228.97C250.415 229.032 250.133 229.032 249.861 228.97C249.568 228.909 249.301 228.757 249.098 228.536C249.072 228.188 248.989 227.846 248.851 227.526C248.714 227.189 248.526 226.876 248.292 226.598C248.062 226.322 247.782 226.091 247.467 225.917C247.157 225.732 246.797 225.646 246.437 225.67C245.963 225.68 245.501 225.815 245.097 226.062C244.714 226.296 244.395 226.622 244.169 227.01C243.941 227.415 243.807 227.866 243.777 228.33C243.742 228.85 243.849 229.371 244.087 229.835C244.166 230.042 244.396 230.186 244.788 230.289C245.159 230.392 245.613 230.516 246.128 230.639C246.643 230.763 247.2 230.908 247.798 231.094C248.402 231.285 248.978 231.555 249.51 231.898C250.065 232.26 250.542 232.73 250.913 233.28C251.341 233.947 251.615 234.7 251.717 235.486C251.836 236.13 251.776 236.793 251.544 237.404C251.311 238.015 250.914 238.551 250.397 238.952C249.877 239.357 249.291 239.671 248.666 239.879C248.001 240.108 247.306 240.233 246.603 240.25C245.896 240.276 245.189 240.206 244.501 240.044C243.841 239.893 243.213 239.628 242.644 239.26C242.098 238.899 241.64 238.42 241.304 237.858C240.949 237.244 240.764 236.546 240.768 235.837C240.768 235.631 240.789 235.424 240.81 235.218C240.823 235.031 240.872 234.849 240.954 234.681C241.033 234.527 241.138 234.388 241.264 234.269C241.428 234.151 241.621 234.08 241.822 234.062C242.007 234.04 242.194 234.076 242.358 234.165C242.504 234.249 242.624 234.37 242.708 234.515C242.798 234.676 242.861 234.85 242.894 235.031C242.915 235.243 242.915 235.457 242.894 235.669C242.828 236.08 242.9 236.501 243.1 236.866C243.28 237.201 243.543 237.485 243.863 237.691C244.193 237.919 244.564 238.08 244.955 238.166C245.339 238.266 245.735 238.307 246.13 238.289C246.526 238.263 246.918 238.208 247.305 238.124C247.686 238.045 248.049 237.898 248.378 237.691C248.691 237.494 248.952 237.226 249.14 236.907C249.337 236.541 249.416 236.123 249.367 235.711C249.332 235.435 249.263 235.165 249.16 234.906C249.03 234.625 248.864 234.361 248.666 234.123C248.465 233.884 248.236 233.67 247.985 233.485C247.737 233.299 247.458 233.159 247.16 233.072C246.727 232.949 246.294 232.825 245.841 232.701C245.388 232.577 244.934 232.454 244.501 232.309C244.08 232.168 243.672 231.989 243.284 231.773C242.911 231.579 242.571 231.328 242.274 231.03C241.977 230.718 241.74 230.355 241.572 229.958C241.389 229.478 241.298 228.967 241.304 228.453C241.28 227.785 241.414 227.12 241.696 226.514C242.21 225.41 243.135 224.552 244.273 224.12C244.796 223.902 245.357 223.79 245.923 223.79C246.614 223.786 247.302 223.883 247.964 224.079C248.551 224.257 249.102 224.536 249.593 224.904C250.057 225.268 250.449 225.716 250.748 226.224C251.066 226.734 251.276 227.303 251.364 227.897Z" fill="white"/>
<path d="M265.447 224.556C265.396 224.27 265.455 223.975 265.612 223.731C265.749 223.541 265.946 223.403 266.171 223.339C266.398 223.299 266.633 223.343 266.83 223.463C266.954 223.541 267.059 223.643 267.141 223.764C267.222 223.885 267.278 224.021 267.304 224.164C267.403 224.717 267.472 225.275 267.511 225.835C267.552 226.393 267.573 226.952 267.573 227.526C267.565 227.836 267.44 228.131 267.223 228.351C267.033 228.538 266.786 228.654 266.522 228.682C266.268 228.7 266.016 228.635 265.804 228.496C265.686 228.41 265.589 228.299 265.521 228.17C265.453 228.041 265.416 227.899 265.412 227.753V227.629C264.968 227.003 264.361 226.511 263.657 226.206C263.019 225.937 262.328 225.817 261.636 225.856C260.925 225.912 260.231 226.109 259.595 226.433C258.921 226.768 258.307 227.214 257.78 227.753C257.425 228.11 257.138 228.53 256.935 228.99C256.705 229.476 256.539 229.989 256.44 230.517C256.336 231.061 256.274 231.613 256.254 232.167C256.239 232.704 256.265 233.242 256.334 233.775C256.399 234.257 256.502 234.733 256.644 235.198C256.761 235.58 256.935 235.941 257.159 236.271C257.47 236.706 257.862 237.077 258.314 237.364C258.775 237.647 259.275 237.862 259.799 238.002C260.336 238.149 260.891 238.226 261.448 238.229C262.01 238.229 262.571 238.167 263.119 238.043C263.638 237.919 264.137 237.724 264.603 237.465C265.048 237.204 265.446 236.869 265.778 236.475C265.922 236.284 266.027 236.067 266.088 235.837C266.148 235.596 266.231 235.361 266.335 235.135C266.454 234.881 266.658 234.676 266.913 234.558C267.004 234.515 267.103 234.495 267.204 234.498C267.304 234.502 267.402 234.529 267.49 234.578C267.679 234.698 267.83 234.87 267.923 235.073C268.039 235.353 268.089 235.657 268.068 235.96C268.056 236.701 267.786 237.416 267.305 237.98C266.785 238.604 266.138 239.11 265.408 239.465C264.595 239.869 263.726 240.147 262.831 240.29C261.891 240.451 260.933 240.477 259.985 240.37C259.059 240.27 258.158 240.005 257.326 239.587C256.514 239.185 255.813 238.59 255.284 237.854C254.965 237.373 254.709 236.853 254.522 236.307C254.303 235.67 254.144 235.014 254.047 234.348C253.946 233.631 253.898 232.907 253.903 232.183C253.916 231.442 253.992 230.704 254.129 229.976C254.264 229.273 254.478 228.588 254.767 227.934C255.256 226.814 256.077 225.871 257.118 225.232C257.621 224.909 258.152 224.633 258.706 224.408C259.279 224.18 259.873 224.008 260.479 223.892C261.076 223.773 261.685 223.725 262.294 223.748C262.876 223.767 263.453 223.871 264.005 224.057C264.541 224.237 265.037 224.517 265.469 224.882C265.448 224.82 265.448 224.759 265.427 224.696C265.467 224.68 265.467 224.618 265.447 224.556Z" fill="white"/>
<path d="M269.757 239.137C269.978 238.588 270.157 238.022 270.293 237.446C270.458 236.765 270.643 236.023 270.809 235.218C270.974 234.413 271.159 233.568 271.345 232.681C271.53 231.794 271.736 230.926 271.964 230.062C272.191 229.198 272.418 228.391 272.682 227.608C272.921 226.904 273.217 226.221 273.569 225.566C273.856 225.043 274.225 224.57 274.662 224.163C275.037 223.83 275.521 223.647 276.022 223.648C276.194 223.662 276.36 223.715 276.507 223.805C276.654 223.894 276.777 224.017 276.868 224.163C277.2 224.588 277.477 225.052 277.693 225.545C277.961 226.123 278.229 226.803 278.518 227.566C278.784 228.329 279.052 229.134 279.322 229.979C279.59 230.825 279.858 231.67 280.126 232.557C280.394 233.423 280.662 234.269 280.909 235.052C281.177 235.836 281.425 236.558 281.693 237.218C281.904 237.777 282.166 238.315 282.476 238.826C282.521 238.949 282.541 239.081 282.534 239.212C282.527 239.343 282.493 239.471 282.435 239.589C282.334 239.794 282.177 239.966 281.981 240.084C281.771 240.191 281.532 240.227 281.3 240.186C281.033 240.139 280.788 240.009 280.599 239.816C280.341 239.41 280.107 238.99 279.898 238.557C279.691 238.104 279.505 237.67 279.339 237.258C279.195 236.845 279.051 236.474 278.968 236.123C278.883 235.868 278.821 235.606 278.783 235.34H274.349C273.854 235.34 273.359 235.319 272.802 235.319C272.678 235.814 272.576 236.247 272.513 236.595C272.451 236.966 272.369 237.313 272.307 237.668C272.245 238.023 272.162 238.374 272.06 238.719C271.948 239.14 271.81 239.553 271.648 239.957C271.481 240.169 271.249 240.321 270.988 240.39C270.761 240.454 270.519 240.431 270.308 240.328C270.098 240.235 269.924 240.075 269.813 239.874C269.72 239.64 269.7 239.383 269.757 239.137ZM275.86 226.144C275.716 226.103 275.572 226.207 275.407 226.433C275.231 226.734 275.086 227.052 274.973 227.382C274.829 227.794 274.685 228.248 274.54 228.764C274.396 229.279 274.272 229.815 274.128 230.351C274.004 230.888 273.86 231.382 273.757 231.878C273.633 232.372 273.53 232.785 273.427 233.115C273.881 233.136 274.314 233.136 274.703 233.157C275.092 233.177 275.466 233.177 275.858 233.198C276.229 233.219 276.621 233.24 277.013 233.24C277.405 233.26 277.817 233.26 278.271 233.281C278.025 232.682 277.812 232.069 277.633 231.446C277.447 230.848 277.283 230.271 277.118 229.672C276.953 229.095 276.768 228.497 276.582 227.917C276.373 227.314 276.132 226.722 275.86 226.144Z" fill="white"/>
<path d="M297.554 239.015C297.551 239.135 297.525 239.254 297.475 239.363C297.425 239.473 297.354 239.572 297.265 239.653C297.083 239.814 296.864 239.927 296.627 239.982C296.383 240.044 296.128 240.044 295.884 239.982C295.65 239.938 295.439 239.814 295.286 239.632C294.997 239.261 294.668 238.828 294.255 238.312C293.863 237.797 293.43 237.24 292.979 236.621C292.527 236.002 292.051 235.363 291.576 234.706C291.081 234.046 290.607 233.386 290.153 232.726C289.679 232.066 289.246 231.449 288.813 230.849C288.38 230.249 288.009 229.715 287.679 229.262C287.348 228.787 287.06 228.395 286.854 228.087C286.627 227.777 286.503 227.591 286.442 227.509C286.532 228.069 286.594 228.634 286.627 229.2C286.669 229.839 286.707 230.52 286.751 231.221C286.795 231.923 286.813 232.645 286.831 233.387C286.848 234.129 286.872 234.851 286.893 235.552C286.914 236.253 286.914 236.913 286.934 237.552C286.934 238.17 286.955 238.727 286.955 239.202C286.956 239.35 286.925 239.496 286.865 239.631C286.804 239.767 286.716 239.887 286.605 239.986C286.443 240.111 286.25 240.191 286.047 240.216C285.843 240.241 285.637 240.211 285.449 240.128C285.261 240.046 285.099 239.915 284.98 239.748C284.86 239.581 284.788 239.386 284.77 239.181C284.75 238.563 284.729 237.861 284.708 237.077C284.667 236.294 284.646 235.469 284.605 234.604C284.565 233.739 284.543 232.849 284.525 231.944C284.508 231.039 284.484 230.15 284.484 229.283C284.484 228.417 284.505 227.592 284.525 226.81C284.567 226.026 284.629 225.325 284.711 224.706C284.729 224.586 284.771 224.472 284.835 224.369C284.899 224.266 284.983 224.177 285.082 224.108C285.292 224.002 285.529 223.959 285.763 223.984C286.026 224.009 286.28 224.094 286.505 224.231C286.737 224.354 286.952 224.506 287.143 224.685C287.556 225.098 287.989 225.613 288.484 226.212C288.978 226.81 289.494 227.47 290.01 228.171C290.546 228.872 291.061 229.594 291.597 230.336C292.133 231.078 292.628 231.8 293.102 232.502C293.577 233.203 294.009 233.863 294.379 234.482C294.748 235.101 295.059 235.617 295.307 236.049C295.174 235.507 295.084 234.955 295.039 234.399C294.976 233.761 294.936 233.1 294.894 232.378C294.853 231.677 294.853 230.955 294.833 230.213V228.084C294.853 227.404 294.853 226.785 294.874 226.208C294.895 225.63 294.895 225.156 294.916 224.784C294.969 224.516 295.115 224.275 295.328 224.104C295.536 223.961 295.778 223.876 296.029 223.856C296.283 223.855 296.533 223.927 296.747 224.063C296.981 224.208 297.15 224.436 297.222 224.701C297.201 225.3 297.201 225.978 297.222 226.764C297.222 227.547 297.243 228.372 297.243 229.259C297.263 230.147 297.263 231.033 297.284 231.94C297.305 232.847 297.326 233.734 297.346 234.601C297.367 235.467 297.388 236.272 297.426 237.014C297.472 237.818 297.513 238.456 297.554 239.015Z" fill="white"/>
<path d="M84.6056 234.704C84.6056 234.704 80.0076 246.666 82.317 259.782C84.6471 272.878 88.6269 309.919 88.6269 309.919H158.035C158.035 309.919 155.747 246.377 147.272 234.704H84.6056Z" fill="#38385C"/>
<mask id="mask3_53_190" style="mask-type:luminance" maskUnits="userSpaceOnUse" x="81" y="234" width="78" height="76">
<path d="M84.6056 234.704C84.6056 234.704 80.0076 246.666 82.317 259.782C84.6471 272.878 88.6269 309.919 88.6269 309.919H158.035C158.035 309.919 155.747 246.377 147.272 234.704H84.6056Z" fill="white"/>
</mask>
<g mask="url(#mask3_53_190)">
<path d="M130.59 312.167L127.682 254.667C127.682 254.667 131.93 272.053 131.93 276.735C131.93 281.417 134.941 312.847 134.941 312.847L130.59 312.167Z" fill="#1C056D"/>
</g>
<mask id="mask4_53_190" style="mask-type:luminance" maskUnits="userSpaceOnUse" x="81" y="234" width="78" height="76">
<path d="M84.6056 234.704C84.6056 234.704 80.0076 246.666 82.317 259.782C84.6471 272.878 88.6269 309.919 88.6269 309.919H158.035C158.035 309.919 155.747 246.377 147.272 234.704H84.6056Z" fill="white"/>
</mask>
<g mask="url(#mask4_53_190)">
<path d="M79.7395 238.437C79.7395 238.437 135.659 258.607 155.602 255.864L152.303 227.837L79.9661 228.126L79.7395 238.437Z" fill="#1A1A35"/>
</g>
<path d="M157.273 176.194L161.933 200.653L147.375 204.304L145.147 177.472L157.273 176.194Z" fill="#FBB089"/>
<mask id="mask5_53_190" style="mask-type:luminance" maskUnits="userSpaceOnUse" x="145" y="176" width="17" height="29">
<path d="M157.273 176.194L161.933 200.653L147.375 204.304L145.147 177.472L157.273 176.194Z" fill="white"/>
</mask>
<g mask="url(#mask5_53_190)">
<path d="M152.241 175.595L150.921 206.902L145.168 207.748C145.168 207.748 138.632 178.173 141.291 176.173C143.931 174.193 152.241 175.595 152.241 175.595Z" fill="#FBB089"/>
</g>
<path d="M160.263 174.234L141.086 134.388C137.683 125.851 112.588 117.745 112.588 117.745L90.9985 121.396C90.9985 121.396 66.7903 130.305 63.1583 134.78C59.5494 139.235 47.322 187.226 47.322 187.226C47.322 187.226 71.922 186.835 81.6964 190.732V234.87C81.6964 234.87 133.64 238.376 149.641 231.735C149.641 231.735 147.352 203.459 145.187 177.453L160.263 174.234Z" fill="#E44531"/>
<mask id="mask6_53_190" style="mask-type:luminance" maskUnits="userSpaceOnUse" x="47" y="117" width="114" height="119">
<path d="M160.263 174.234L141.086 134.388C137.683 125.851 112.588 117.745 112.588 117.745L90.9985 121.396C90.9985 121.396 66.7903 130.305 63.1583 134.78C59.5494 139.235 47.322 187.226 47.322 187.226C47.322 187.226 71.922 186.835 81.6964 190.732V234.87C81.6964 234.87 133.64 238.376 149.641 231.735C149.641 231.735 147.352 203.459 145.187 177.453L160.263 174.234Z" fill="white"/>
</mask>
<g mask="url(#mask6_53_190)">
<path d="M145.148 177.473L138.57 146.146C138.57 146.146 150.51 175.019 152.221 175.596C153.953 176.174 145.148 177.473 145.148 177.473Z" fill="#E44531"/>
</g>
<mask id="mask7_53_190" style="mask-type:luminance" maskUnits="userSpaceOnUse" x="47" y="117" width="114" height="119">
<path d="M160.263 174.234L141.086 134.388C137.683 125.851 112.588 117.745 112.588 117.745L90.9985 121.396C90.9985 121.396 66.7903 130.305 63.1583 134.78C59.5494 139.235 47.322 187.226 47.322 187.226C47.322 187.226 71.922 186.835 81.6964 190.732V234.87C81.6964 234.87 133.64 238.376 149.641 231.735C149.641 231.735 147.352 203.459 145.187 177.453L160.263 174.234Z" fill="white"/>
</mask>
<g mask="url(#mask7_53_190)">
<path d="M103.783 236.994C105.103 235.777 114.632 202.882 120.695 201.603C126.758 200.324 153.543 197.891 153.543 197.891C153.543 197.891 155.131 232.085 150.987 234.704C146.839 237.302 103.787 236.993 103.787 236.993" fill="#E44531"/>
</g>
<path d="M87.7813 78.3542C89.616 74.9099 97.9266 69.7543 105.491 69.5277C107.58 69.481 109.638 70.0506 111.406 71.1655C113.174 72.2804 114.575 73.8912 115.434 75.7971C119.455 84.583 128.198 105.477 122.074 108.898C119.352 110.424 115.764 110.486 112.136 109.765C112.694 115.519 112.837 128.883 112.734 130.698C112.589 133.255 94.794 128.635 91.4946 126.222C88.1953 123.829 97.0419 102.175 97.0419 102.175C94.6687 98.7304 85.2246 83.1596 87.7813 78.3542Z" fill="#FBB089"/>
<mask id="mask8_53_190" style="mask-type:luminance" maskUnits="userSpaceOnUse" x="87" y="69" width="38" height="63">
<path d="M87.7813 78.3542C89.616 74.9099 97.9266 69.7543 105.491 69.5277C107.58 69.481 109.638 70.0506 111.406 71.1655C113.174 72.2804 114.575 73.8912 115.434 75.7971C119.455 84.583 128.198 105.477 122.074 108.898C119.352 110.424 115.764 110.486 112.136 109.765C112.694 115.519 112.837 128.883 112.734 130.698C112.589 133.255 94.794 128.635 91.4946 126.222C88.1953 123.829 97.0419 102.175 97.0419 102.175C94.6687 98.7304 85.2246 83.1596 87.7813 78.3542Z" fill="white"/>
</mask>
<g mask="url(#mask8_53_190)">
<path d="M112.135 109.765C108.917 108.433 105.808 106.853 102.835 105.041C102.835 105.041 106.567 117.044 114.073 116.735L112.135 109.765Z" fill="#FBB089"/>
</g>
<mask id="mask9_53_190" style="mask-type:luminance" maskUnits="userSpaceOnUse" x="87" y="69" width="38" height="63">
<path d="M87.7813 78.3542C89.616 74.9099 97.9266 69.7543 105.491 69.5277C107.58 69.481 109.638 70.0506 111.406 71.1655C113.174 72.2804 114.575 73.8912 115.434 75.7971C119.455 84.583 128.198 105.477 122.074 108.898C119.352 110.424 115.764 110.486 112.136 109.765C112.694 115.519 112.837 128.883 112.734 130.698C112.589 133.255 94.794 128.635 91.4946 126.222C88.1953 123.829 97.0419 102.175 97.0419 102.175C94.6687 98.7304 85.2246 83.1596 87.7813 78.3542Z" fill="white"/>
</mask>
<g mask="url(#mask9_53_190)">
<path d="M109.433 78.0861C110.01 80.3999 107.598 82.5613 105.227 82.6849C102.855 82.8086 100.648 81.5296 98.6055 80.3129C98.8592 81.1393 98.9461 82.0079 98.8612 82.8682C98.7763 83.7285 98.5212 84.5634 98.1108 85.3242C96.4842 83.5393 95.0977 81.5493 93.9867 79.405C92.8802 77.2277 92.6656 74.7049 93.3884 72.372C94.3991 69.6705 97.0172 67.8554 99.7597 66.9467C101.427 66.3688 103.197 66.1441 104.956 66.2868C108.235 66.5964 111.204 68.4522 113.472 70.8034C114.417 71.7954 115.286 72.8572 116.071 73.9797C116.873 75.0108 117.564 76.1238 118.133 77.3003C118.504 78.1667 118.524 79.1154 117.617 79.6308C116.38 80.2126 114.975 80.3299 113.658 79.9611C112.174 79.5243 110.753 78.8939 109.433 78.0861Z" fill="#FBB089"/>
</g>
<path d="M109.887 84.2734C109.887 84.2734 119.806 89.7179 119.084 91.162C118.362 92.6061 111.331 90.6259 110.609 90.9761C109.887 91.3264 112.032 93.0386 113.002 92.9564C113.971 92.8941 120.694 93.0593 120.694 91.2649C120.694 89.4706 117.537 86.8928 109.887 84.2734Z" fill="#E57492"/>
<path d="M120.736 95.472C120.736 95.472 118.385 99.0815 112.918 96.5236C113.17 97.4196 113.72 98.2026 114.478 98.7427C115.235 99.2828 116.155 99.5477 117.084 99.4932C121.475 99.2051 120.736 95.472 120.736 95.472Z" fill="white"/>
<path d="M112.238 64.8252C112.772 64.5213 113.231 64.103 113.584 63.6001C113.937 63.0973 114.175 62.5225 114.279 61.917C114.325 61.6671 114.316 61.4101 114.252 61.1642C114.188 60.9183 114.07 60.6893 113.908 60.4937C113.529 60.2012 113.067 60.0354 112.589 60.0198C110.897 59.8131 109.186 59.5866 107.495 59.3815C103.906 58.9275 100.236 58.4951 96.7109 59.3193C96.525 59.3608 96.3399 59.4222 96.1333 59.4637C94.4725 59.9193 92.9266 60.7205 91.5968 61.8149C90.9549 62.3497 90.3863 62.9667 89.9055 63.65C89.5005 64.0795 89.2482 64.6305 89.1876 65.2177H89.2084C89.2056 65.2176 89.2029 65.2181 89.2003 65.2191C89.1977 65.2201 89.1954 65.2216 89.1935 65.2236C89.1915 65.2255 89.19 65.2278 89.189 65.2304C89.188 65.233 89.1875 65.2357 89.1876 65.2385V65.2177C86.2185 63.9803 82.5889 66.0842 80.8156 68.5384C78.7328 71.405 78.1552 75.0759 77.7843 78.6032C77.4854 81.149 77.3615 83.7124 77.4133 86.2753C77.393 86.44 77.4103 86.6073 77.4639 86.7644C77.5175 86.9215 77.606 87.0645 77.7228 87.1824C77.9107 87.3083 78.1357 87.3665 78.361 87.3475C80.1758 87.3683 81.7633 86.2306 83.042 84.9141C86.0941 92.4003 95.6204 99.9934 95.6204 99.9934C95.6204 99.9934 96.817 91.4349 95.8677 89.6812C95.8677 89.6812 91.146 90.6921 90.5063 87.1034C89.1868 79.7816 97.4759 84.3397 97.4759 84.3397L95.4944 77.1375C95.4944 77.1375 101.846 80.1693 105.805 79.0141C109.764 77.8588 105.392 74.7448 105.392 74.7448C105.392 74.7448 113.517 75.9415 114.878 75.8793C116.239 75.8378 113.311 70.4756 113.311 70.4756C113.311 70.4756 115.517 72.6616 119.932 71.6101C122.65 70.9295 118.628 67.3823 112.238 64.8252Z" fill="#1A1A35"/>
<path d="M107.082 131.089C107.082 131.089 94.0092 133.173 92.1322 137.442C92.1322 137.442 82.7702 127.542 90.9771 121.417C90.9779 121.396 98.0098 129.935 107.082 131.089Z" fill="white"/>
<path d="M112.732 130.698C112.732 130.698 118.754 124.45 123.393 125.934C120.362 122.53 116.691 119.754 112.588 117.767L112.732 130.698Z" fill="white"/>
<path d="M112.732 130.698C112.732 130.698 109.66 137.112 109.763 139.132C109.867 141.153 111.887 165.449 111.887 165.449L112.732 166.707C112.732 166.707 110.402 139.772 110.691 138.514C110.98 137.235 112.732 130.698 112.732 130.698Z" fill="#D40221"/>
<path d="M113.393 143.113C114.088 143.113 114.651 142.162 114.651 140.989C114.651 139.816 114.088 138.865 113.393 138.865C112.698 138.865 112.135 139.816 112.135 140.989C112.135 142.162 112.698 143.113 113.393 143.113Z" fill="white"/>
<path d="M115.517 150.229C115.517 151.404 114.959 152.353 114.259 152.353C113.578 152.353 113.001 151.404 113.001 150.229C113.001 149.054 113.559 148.105 114.259 148.105C114.959 148.105 115.517 149.054 115.517 150.229Z" fill="white"/>
<path d="M116.321 159.468C116.321 160.643 115.763 161.592 115.063 161.592C114.364 161.592 113.805 160.643 113.805 159.468C113.805 158.293 114.364 157.344 115.063 157.344C115.763 157.344 116.321 158.293 116.321 159.468Z" fill="white"/>
<path d="M81.678 190.754C81.678 190.754 81.0589 152.064 80.8739 150.228C80.6681 148.393 75.2651 185.082 73.6569 185.082C72.0487 185.082 58.6455 187.412 58.6455 187.412C58.6455 187.412 78.8732 188.588 81.678 190.754Z" fill="#D40221"/>
<path d="M127.847 191.599C129.888 188.217 136.59 177.307 139.167 175.616C139.167 175.616 135.126 170.646 139.167 169.429C143.208 168.212 160.262 174.255 160.262 174.255C160.262 174.255 162.86 179.844 156.282 182.897L147.56 179.535C147.56 179.535 136.711 187.785 134.94 192.982C134.94 192.982 136.095 195.581 134.548 195.725C133.414 195.828 129.991 194.096 128.238 193.168C128.108 193.093 127.993 192.992 127.902 192.871C127.812 192.751 127.746 192.613 127.709 192.467C127.673 192.321 127.666 192.168 127.69 192.019C127.713 191.87 127.767 191.727 127.847 191.599Z" fill="#F8A23A"/>
<mask id="mask10_53_190" style="mask-type:luminance" maskUnits="userSpaceOnUse" x="127" y="169" width="34" height="27">
<path d="M127.847 191.599C129.888 188.217 136.59 177.307 139.167 175.616C139.167 175.616 135.126 170.646 139.167 169.429C143.208 168.212 160.262 174.255 160.262 174.255C160.262 174.255 162.86 179.844 156.282 182.897L147.56 179.535C147.56 179.535 136.711 187.785 134.94 192.982C134.94 192.982 136.095 195.581 134.548 195.725C133.414 195.828 129.991 194.096 128.238 193.168C128.108 193.093 127.993 192.992 127.902 192.871C127.812 192.751 127.746 192.613 127.709 192.467C127.673 192.321 127.666 192.168 127.69 192.019C127.713 191.87 127.767 191.727 127.847 191.599Z" fill="white"/>
</mask>
<g mask="url(#mask10_53_190)">
<path d="M139.147 175.616C139.147 175.616 149.56 180.298 149.358 180.215C149.131 180.135 143.584 186.051 141.254 185.618C138.94 185.185 133.995 180.359 133.995 180.359L139.149 175.615" fill="#303C42"/>
</g>
<mask id="mask11_53_190" style="mask-type:luminance" maskUnits="userSpaceOnUse" x="127" y="169" width="34" height="27">
<path d="M127.847 191.599C129.888 188.217 136.59 177.307 139.167 175.616C139.167 175.616 135.126 170.646 139.167 169.429C143.208 168.212 160.262 174.255 160.262 174.255C160.262 174.255 162.86 179.844 156.282 182.897L147.56 179.535C147.56 179.535 136.711 187.785 134.94 192.982C134.94 192.982 136.095 195.581 134.548 195.725C133.414 195.828 129.991 194.096 128.238 193.168C128.108 193.093 127.993 192.992 127.902 192.871C127.812 192.751 127.746 192.613 127.709 192.467C127.673 192.321 127.666 192.168 127.69 192.019C127.713 191.87 127.767 191.727 127.847 191.599Z" fill="white"/>
</mask>
<g mask="url(#mask11_53_190)">
<path d="M143.436 169.264C143.436 169.264 142.817 172.13 143.683 173.368C144.549 174.605 161.478 178.833 161.478 178.833C161.478 178.833 160.984 174.502 160.761 173.886C160.53 173.244 143.436 169.264 143.436 169.264Z" fill="#303C42"/>
</g>
<path d="M144.302 183.102C142.895 182.958 141.505 182.675 140.154 182.257C138.703 181.373 137.316 180.386 136.006 179.305L136.913 177.902C135.796 177.1 134.536 176.519 133.201 176.19C131.881 176.004 127.736 177.613 126.005 178.334C82.7014 179.964 62.0813 187.656 62.0813 187.656L51.0904 187.223C46.884 201.904 56.6991 210.178 62.0813 212.158C66.8676 213.913 117.509 193.08 128.479 188.523C129.819 189.451 133.242 191.72 135.057 192.152C137.325 192.688 137.387 190.894 137.387 190.894C137.718 190.973 138.061 190.981 138.394 190.919C138.728 190.856 139.045 190.725 139.325 190.532C139.605 190.34 139.841 190.091 140.019 189.802C140.196 189.512 140.311 189.189 140.356 188.852C142.852 189.389 143.264 186.687 143.264 186.687C145.807 186.402 144.302 183.102 144.302 183.102Z" fill="#FBB089"/>
<mask id="mask12_53_190" style="mask-type:luminance" maskUnits="userSpaceOnUse" x="50" y="176" width="95" height="37">
<path d="M144.302 183.102C142.895 182.958 141.505 182.675 140.154 182.257C138.703 181.373 137.316 180.386 136.006 179.305L136.913 177.902C135.796 177.1 134.536 176.519 133.201 176.19C131.881 176.004 127.736 177.613 126.005 178.334C82.7014 179.964 62.0813 187.656 62.0813 187.656L51.0904 187.223C46.884 201.904 56.6991 210.178 62.0813 212.158C66.8676 213.913 117.509 193.08 128.479 188.523C129.819 189.451 133.242 191.72 135.057 192.152C137.325 192.688 137.387 190.894 137.387 190.894C137.718 190.973 138.061 190.981 138.394 190.919C138.728 190.856 139.045 190.725 139.325 190.532C139.605 190.34 139.841 190.091 140.019 189.802C140.196 189.512 140.311 189.189 140.356 188.852C142.852 189.389 143.264 186.687 143.264 186.687C145.807 186.402 144.302 183.102 144.302 183.102Z" fill="white"/>
</mask>
<g mask="url(#mask12_53_190)">
<path d="M48.9119 200.138C48.9119 200.138 62.418 204.592 70.1511 202.452C77.8833 200.328 128.507 188.531 128.507 188.531C128.507 188.531 78.8533 218.683 66.6842 217.343C54.4999 215.977 48.9119 200.138 48.9119 200.138Z" fill="#FBB089"/>
</g>
<path d="M124.177 210.264C124.177 210.264 191.584 192.569 192.658 194.219C193.709 195.869 199.71 219.854 199.71 219.854L124.177 232.559V210.264Z" fill="#D33E45"/>
<mask id="mask13_53_190" style="mask-type:luminance" maskUnits="userSpaceOnUse" x="124" y="194" width="76" height="39">
<path d="M124.177 210.264C124.177 210.264 191.584 192.569 192.658 194.219C193.709 195.869 199.71 219.854 199.71 219.854L124.177 232.559V210.264Z" fill="white"/>
</mask>
<g mask="url(#mask13_53_190)">
<path opacity="0.43" d="M149.623 201.169C149.891 201.623 141.646 229.217 126.489 234.703L118.512 235.734L122.389 206.922L149.623 201.169Z" fill="#8C9EF4"/>
</g>
<path d="M124.177 232.558C124.177 232.558 139.993 247.325 143.003 249.305C145.87 251.203 212.33 240.437 212.33 240.437L199.689 219.853L124.177 232.558Z" fill="#F0AE94"/>
<path d="M192.658 194.219L206.371 217.338L212.354 240.436L199.713 219.852L192.658 194.219Z" fill="#D33E45"/>
<path d="M187.668 197.89L164.717 203.562L166.821 215.936L191.029 211.729L187.668 197.89Z" fill="#F0AE94"/>
<path d="M196.678 242.912C196.678 242.912 197.441 244.851 198.885 244.562C199.714 244.41 200.494 244.056 201.154 243.531C201.154 243.531 204.845 243.861 205.422 243.778C206 243.696 207.319 242.023 207.319 242.023C208.041 242.226 208.804 242.226 209.526 242.023C210.97 241.714 212.804 239.094 212.804 239.094L210.763 239.548L196.678 242.912Z" fill="#E57492"/>
<path d="M212.948 239.777C213.008 239.669 213.027 239.542 213 239.42C212.973 239.299 212.903 239.191 212.803 239.118C211.752 238.375 208.7 236.272 208.185 236.663C207.566 237.117 207.36 237.839 208.185 238.87C209.009 239.902 209.731 242.046 210.948 241.737C211.855 241.509 212.597 240.376 212.948 239.777Z" fill="#FE8E9C"/>
<path d="M209.566 240.994C209.566 240.994 205.649 236.725 204.906 236.622C204.697 236.59 204.483 236.614 204.287 236.691C204.09 236.768 203.917 236.895 203.785 237.061C203.653 237.226 203.568 237.423 203.536 237.632C203.505 237.841 203.53 238.054 203.607 238.251C203.875 239.406 206.205 243.262 207.669 243.53C209.092 243.778 210.474 242.437 209.566 240.994Z" fill="#FE8E9C"/>
<path d="M205.422 243.798C205.422 243.798 202.949 236.601 201.793 236.601C200.637 236.601 199.834 239.489 200.185 241.2C200.535 242.932 201.856 245.057 203.114 245.057C204.015 244.944 204.839 244.495 205.422 243.798Z" fill="#FE8E9C"/>
<path d="M199.668 244.087C199.606 243.922 198.452 238.498 197.648 238.436C196.843 238.374 196.328 239.653 196.492 241.261C196.657 242.87 196.719 244.768 197.585 245.056C197.785 245.139 197.999 245.18 198.215 245.176C198.432 245.172 198.644 245.122 198.84 245.031C199.036 244.94 199.211 244.809 199.354 244.647C199.496 244.484 199.603 244.294 199.668 244.087Z" fill="#FE8E9C"/>
<path d="M63.7373 216.842H11.1758V309.917H63.7373V216.842Z" fill="#F9C438"/>
<path d="M97.3283 216.842H63.7373V309.917H97.3283V216.842Z" fill="#F6AB36"/>
<path d="M42.8492 216.842H36.0032V309.917H42.8492V216.842Z" fill="#F6AB36"/>
<path d="M85.1002 216.842H78.2542V309.917H85.1002V216.842Z" fill="#F9C438"/>
<path d="M74.9351 270.464H0V281.745H74.9351V270.464Z" fill="#D33E45"/>
<path d="M71.7802 281.724H3.13428V309.896H71.7802V281.724Z" fill="#F0AE94"/>
<path d="M42.8494 270.464H32.1887V281.745H42.8494V270.464Z" fill="#F0AE94"/>
<path opacity="0.5" d="M71.7802 281.724H3.13428V287.148H71.7802V281.724Z" fill="#F0AE94"/>
<path d="M42.7871 281.518H32.1265V287.148H42.7871V281.518Z" fill="#D33E45"/>
<path d="M42.8494 287.148H32.1887V298.43H42.8494V287.148Z" fill="#D33E45"/>
</g>
<defs>
<clipPath id="clip0_53_190">
<rect width="496" height="310" fill="white"/>
</clipPath>
</defs>
</svg>
