<svg xmlns="http://www.w3.org/2000/svg" width="30" height="30" viewBox="0 0 30 30">
  <path id="home-delivery-icon" d="M0,21.715H14.313V23.2H0ZM24.048,1.982H22.361c-.073,0-.11.074-.129.156l-.244,1.048a.135.135,0,0,0,.129.156h1.269a4.474,4.474,0,0,0-.168,1.189A3.441,3.441,0,0,0,26.378,8.2a3.441,3.441,0,0,0,3.16-3.666,4.061,4.061,0,0,0-.912-2.651A3.015,3.015,0,0,0,26.365.756a2.936,2.936,0,0,0-2.317,1.226Zm5.219,18.466L30,28.015c-.02,2.4-2.8,2.631-3.105.654l-.53-7.323-.732,6.9c-.657,2.682-3.364,1.679-3.105-.362l.464-3.115.4-5.233c-.654-2.036-.081-3.4-.12-5.783-1.174,1.379-2.085,2.384-3.869,2.45-.564-.025-1.465-.074-2.029-.147-.688-.091-1.172-.057-1.6-.779-.679-1.133.217-2.45,1.091-2.237.976.1,2.773.36,3.445-.6.7-.773,1.238-1.855,2.148-2.2,5.127-1.931,6.4-1.175,6.835.951.127.6.288,5.259.244,6.457a14.992,14.992,0,0,1-.244,2.8ZM15.431,7.581v4.684a2.494,2.494,0,0,0-.464.566,2.705,2.705,0,0,0-.286.722l-1.34-.929.039-6.556,2.051,1.5Zm.859-2.13L18.326,6.8l-2.649.388L13.822,5.828l2.468-.377Zm-.437,6.513V7.646l2.761-.408L18.7,10.3l.976-.765.976.634-.2-3.2,1.655-.218V9.062A5.4,5.4,0,0,0,20.56,10.67a9.1,9.1,0,0,1-.583.748l-.068.085c-.427.583-1.892.428-2.82.328-.376-.04.488.045-.193-.023a1.589,1.589,0,0,0-1.045.161Zm4.331-5.451L18.209,5.157l.832-.1,2.512,1.28ZM12.592,21.046V0H1.721V21.046ZM3.63,10.195l1.152-.6v4.168L3.63,13.392v-3.2Z" fill="#fff" fill-rule="evenodd"/>
</svg>
