<svg xmlns="http://www.w3.org/2000/svg" width="20" height="20.002" viewBox="0 0 20 20.002">
  <g id="home" transform="translate(1.525)">
    <path id="Shape" d="M12.51,20a.586.586,0,0,1-.586-.586V14.708a.984.984,0,0,0-.983-.983H9.058a.984.984,0,0,0-.983.983v4.708A.586.586,0,0,1,7.489,20H4.3a2.157,2.157,0,0,1-2.155-2.155v-6H1.817a.52.52,0,0,1-.057,0A1.84,1.84,0,0,1,.534,8.7l.008-.008L8.7.539a1.842,1.842,0,0,1,2.6,0L19.461,8.7h0a1.841,1.841,0,0,1-1.3,3.143h-.3v6A2.157,2.157,0,0,1,15.7,20Z" transform="translate(-1.525 0)" fill="#fff"/>
  </g>
</svg>
