<svg xmlns="http://www.w3.org/2000/svg" width="21.332" height="20" viewBox="0 0 21.332 20">
  <g id="inbox_1_" data-name="inbox (1)" transform="translate(-2.334 -0.999)">
    <g id="inbox_1_2" data-name="inbox (1)" transform="translate(2.334)">
      <path id="Path_26482" data-name="Path 26482" d="M21.088,9.151,11.5,1.292A1.328,1.328,0,0,0,9.828,1.3L.244,9.151A.667.667,0,0,0,0,9.666v10A1.335,1.335,0,0,0,1.333,21H20a1.333,1.333,0,0,0,1.333-1.333v-10a.667.667,0,0,0-.244-.516Z" transform="translate(0)" fill="#f8f0f0"/>
      <path id="Path_26483" data-name="Path 26483" d="M8.9,12.12,5.293,8.511,7.178,6.626,8.9,8.35l7.057-7.057,1.885,1.885Z" transform="translate(1.764 0.098)" fill="#586268"/>
      <path id="Path_26484" data-name="Path 26484" d="M0,7.5,18.666,18.833H1.333A1.333,1.333,0,0,1,0,17.5Z" transform="translate(0 2.166)" fill="#fff"/>
      <path id="Path_26485" data-name="Path 26485" d="M20.666,7.5,2,18.833H19.332A1.333,1.333,0,0,0,20.666,17.5Z" transform="translate(0.667 2.166)" fill="#fff"/>
    </g>
  </g>
</svg>
