<svg xmlns="http://www.w3.org/2000/svg" width="290.742" height="79.5" viewBox="0 0 290.742 79.5">
  <g id="Group_66049" data-name="Group 66049" transform="translate(-504.25 -417.25)">
    <g id="Group_62526" data-name="Group 62526" transform="translate(438.58 352)">
      <path id="Path_20282" data-name="Path 20282" d="M220.989,101.627H207.365V88a.72.72,0,0,0-.718-.717h-4.3a.72.72,0,0,0-.718.717v13.625H188a.719.719,0,0,0-.717.718v4.3a.719.719,0,0,0,.717.718h13.625v13.625a.719.719,0,0,0,.718.717h4.3a.719.719,0,0,0,.718-.717V107.365h13.625a.719.719,0,0,0,.717-.718v-4.3A.719.719,0,0,0,220.989,101.627Z" transform="translate(-98.425 0.952)" fill="#f09030"/>
      <path id="Path_25780" data-name="Path 25780" d="M37.5,0h3A37.5,37.5,0,0,1,78,37.5v3A37.5,37.5,0,0,1,40.5,78h-3A37.5,37.5,0,0,1,0,40.5v-3A37.5,37.5,0,0,1,37.5,0Z" transform="translate(66.42 66)" fill="none" stroke="#f09030" stroke-width="1.5" stroke-dasharray="5 2"/>
    </g>
    <g id="Group_62527" data-name="Group 62527" transform="translate(-386 40)">
      <path id="Path_26034" data-name="Path 26034" d="M403.986,252.77H255.564a2.665,2.665,0,1,1,0-5.25H403.986a2.665,2.665,0,1,1,0,5.25Z" transform="translate(773.882 132.48)" fill="#cbcbcb"/>
      <path id="Path_26473" data-name="Path 26473" d="M403.986,252.77H255.564a2.665,2.665,0,1,1,0-5.25H403.986a2.665,2.665,0,1,1,0,5.25Z" transform="translate(773.882 155.48)" fill="#cbcbcb"/>
      <path id="Path_26474" data-name="Path 26474" d="M403.986,252.77H255.564a2.665,2.665,0,1,1,0-5.25H403.986a2.665,2.665,0,1,1,0,5.25Z" transform="translate(773.882 178.48)" fill="#cbcbcb"/>
      <path id="Path_26475" data-name="Path 26475" d="M403.986,252.77H255.564a2.665,2.665,0,1,1,0-5.25H403.986a2.665,2.665,0,1,1,0,5.25Z" transform="translate(773.882 201.48)" fill="#cbcbcb"/>
    </g>
  </g>
</svg>
