<svg xmlns="http://www.w3.org/2000/svg" width="20.942" height="20" viewBox="0 0 20.942 20">
  <g id="logistics" transform="translate(4.901)">
    <path id="Path_26240" data-name="Path 26240" d="M4.94,13.277,6.5,12.619a.427.427,0,0,1,.123,0,.3.3,0,0,1,.224.108l1.5,1.764V10.06L4.94,8.78Z" transform="translate(-1.766 -3.698)" fill="#c3c3c3"/>
    <path id="Path_26241" data-name="Path 26241" d="M11.639,7.934,8.755,6.77,5.74,7.811,8.87,8.982Z" transform="translate(-2.118 -2.857)" fill="#c3c3c3"/>
    <path id="Path_26242" data-name="Path 26242" d="M10.471.72.5,4.4l2.467.923L6.407,4.136H6.6L9.935,5.484a.265.265,0,0,1-.007.5l-2.579.982,3.122,1.178L20.445,4.4Zm9.162,4.548L10.74,8.613V20.72l10.2-3.815V4.778Zm-2.4,9.692a.242.242,0,0,1-.183.072.255.255,0,0,1-.2-.085l-.5-.543v1.963a.268.268,0,0,1-.537,0V14.411l-.5.537a.242.242,0,0,1-.2.085.281.281,0,0,1-.183-.072.268.268,0,0,1-.085-.19.3.3,0,0,1,.072-.19l.949-1.021h.046v-.039a.262.262,0,0,1,.36,0h0l.949,1.027a.236.236,0,0,1,.072.19A.242.242,0,0,1,17.238,14.961ZM14.3,10.275h-.092a.275.275,0,0,1-.255-.177.268.268,0,0,1,.164-.347l3.272-1.2a.236.236,0,0,1,.092,0,.275.275,0,0,1,.255.177.242.242,0,0,1,0,.2.281.281,0,0,1-.151.137ZM20,14.3a.268.268,0,0,1-.183.072.281.281,0,0,1-.2-.085l-.5-.543v1.931a.268.268,0,1,1-.537,0V13.744l-.5.543a.275.275,0,0,1-.2.085A.281.281,0,0,1,17.7,14.3a.3.3,0,0,1-.085-.19.288.288,0,0,1,.072-.19l.975-1.047.052-.033h0v-.065h0l.039.059h.209a.065.065,0,0,1,.033,0l.969,1.041a.236.236,0,0,1,.072.2A.268.268,0,0,1,20,14.3ZM6.859,11.859a.275.275,0,0,1-.177.255H6.59a.268.268,0,0,1-.2-.085L4.679,10.066l-1.61.654a.275.275,0,0,1-.1,0,.288.288,0,0,1-.144,0,.275.275,0,0,1-.124-.229v-4.7L0,4.778V16.9L10.2,20.72V8.613L6.859,7.356Z" transform="translate(-4.901 -0.72)" fill="#c3c3c3"/>
  </g>
</svg>
