<svg xmlns="http://www.w3.org/2000/svg" width="19.972" height="20" viewBox="0 0 19.972 20">
  <g id="logout" transform="translate(-3 -3)">
    <path id="Path_20223" data-name="Path 20223" d="M21.889,12c-.111-.111-.111-.222-.222-.333L18.333,8.333a1.1,1.1,0,1,0-1.556,1.556l1.444,1.444H13.111A1.05,1.05,0,0,0,12,12.444a1.05,1.05,0,0,0,1.111,1.111h5.111L16.778,15a1.074,1.074,0,0,0,0,1.556,1.074,1.074,0,0,0,1.556,0l3.333-3.333c.111-.111.222-.222.222-.333A1.227,1.227,0,0,0,21.889,12Z" transform="translate(1 0.556)" fill="#fff"/>
    <path id="Path_20224" data-name="Path 20224" d="M16.889,19.778a8.107,8.107,0,0,1-3.889,1A7.778,7.778,0,1,1,13,5.222a8.107,8.107,0,0,1,3.889,1,1.144,1.144,0,1,0,1.111-2A11.077,11.077,0,0,0,13,3a10,10,0,1,0,5,18.667,1.23,1.23,0,0,0,.444-1.556A1.2,1.2,0,0,0,16.889,19.778Z" transform="translate(0 0)" fill="#fff"/>
  </g>
</svg>
