<svg xmlns="http://www.w3.org/2000/svg" width="31.625" height="46" viewBox="0 0 31.625 46">
  <path id="trash" d="M34.75,2.875H29A2.875,2.875,0,0,0,26.125,0H17.5a2.875,2.875,0,0,0-2.875,2.875H8.875A2.875,2.875,0,0,0,6,5.75H37.625A2.875,2.875,0,0,0,34.75,2.875ZM6,43.125A2.875,2.875,0,0,0,8.875,46H34.75a2.875,2.875,0,0,0,2.875-2.875V8.625H6ZM29,15.813a1.438,1.438,0,0,1,2.875,0v23a1.438,1.438,0,0,1-2.875,0Zm-8.625,0a1.438,1.438,0,0,1,2.875,0v23a1.438,1.438,0,0,1-2.875,0Zm-8.625,0a1.438,1.438,0,0,1,2.875,0v23a1.438,1.438,0,0,1-2.875,0Z" transform="translate(-6)" fill="#fff"/>
</svg>
