<svg xmlns="http://www.w3.org/2000/svg" width="30" height="23" viewBox="0 0 30 23">
  <g id="Group_62653" data-name="Group 62653" transform="translate(-1587 -532)">
    <g id="mail" transform="translate(1587 532)">
      <path id="Path_26532" data-name="Path 26532" d="M14.962,14.81,26.7,6.6A2.614,2.614,0,0,0,25.069,6H4.855a2.614,2.614,0,0,0-1.635.6Z" transform="translate(-2 -6)" fill="#fff"/>
      <path id="Path_26533" data-name="Path 26533" d="M15.462,16.84h0l-.157.08h-.074a.873.873,0,0,1-.269.08h0a.858.858,0,0,1-.231,0h-.074l-.157-.08h0L2.093,8.26A3.226,3.226,0,0,0,2,9V23a2.9,2.9,0,0,0,2.778,3H25.147a2.9,2.9,0,0,0,2.778-3V9a3.226,3.226,0,0,0-.093-.74Z" transform="translate(-2 -6)" fill="#fff"/>
    </g>
    <path id="mail-close-icon" d="M24.6,8.746a7.127,7.127,0,1,1-7.128,7.127A7.128,7.128,0,0,1,24.6,8.746Zm3.012,5.375-1.751,1.751,1.752,1.751-1.261,1.262L24.6,17.132,22.85,18.885l-1.261-1.26,1.753-1.753L21.59,14.12l1.262-1.262L24.6,14.611l1.751-1.751,1.261,1.261Z" transform="translate(1585.27 532)" fill="#0e609f" fill-rule="evenodd"/>
  </g>
</svg>
