<svg xmlns="http://www.w3.org/2000/svg" width="100" height="100" viewBox="0 0 100 100">
  <g id="Group_66036" data-name="Group 66036" transform="translate(-735 -407)">
    <circle id="Ellipse_340" data-name="Ellipse 340" cx="50" cy="50" r="50" transform="translate(735 407)" fill="#e44531"/>
    <g id="mailbox-34" transform="translate(760.725 434.44)">
      <path id="Path_26023" data-name="Path 26023" d="M99.793,135.23h30.126a3.615,3.615,0,0,1,0,7.23H99.793v25.306a3.615,3.615,0,0,1-7.23,0V142.46H88.948a3.615,3.615,0,1,1,0-7.23h3.615v-3.615a3.615,3.615,0,1,1,7.23,0Z" transform="translate(-85.333 -128)" fill="#fff"/>
      <path id="Path_26024" data-name="Path 26024" d="M426.667,469.333h25.306a3.615,3.615,0,0,1,3.615,3.615v6.025a9.64,9.64,0,0,1-9.64,9.64H430.282A3.615,3.615,0,0,1,426.667,485Zm24.1,2.41a2.41,2.41,0,0,0-2.41,2.41v7.23a2.41,2.41,0,1,0,4.82,0v-7.23A2.41,2.41,0,0,0,450.768,471.743Z" transform="translate(-408.035 -450.053)" fill="#fff" opacity="0.7"/>
    </g>
  </g>
</svg>
