<svg id="mailbox-34f" xmlns="http://www.w3.org/2000/svg" width="22.222" height="20" viewBox="0 0 22.222 20">
  <path id="Path_26023" data-name="Path 26023" d="M92,131.333h13.889a1.667,1.667,0,0,1,0,3.333H92v11.667a1.667,1.667,0,0,1-3.333,0V134.667H87a1.667,1.667,0,1,1,0-3.333h1.667v-1.667a1.667,1.667,0,0,1,3.333,0Z" transform="translate(-85.333 -128)" fill="#7f7f7f"/>
  <path id="Path_26024" data-name="Path 26024" d="M426.667,469.333h11.961a1.709,1.709,0,0,1,1.709,1.709v2.848a4.557,4.557,0,0,1-4.557,4.557h-7.4a1.709,1.709,0,0,1-1.709-1.709Zm11.392,1.139a1.139,1.139,0,0,0-1.139,1.139v3.417a1.139,1.139,0,0,0,2.278,0v-3.417A1.139,1.139,0,0,0,438.059,470.472Z" transform="translate(-418.421 -460.725)" fill="#7f7f7f" opacity="0.7"/>
</svg>
