<svg id="inbox_1_" data-name="inbox (1)" xmlns="http://www.w3.org/2000/svg" width="49.065" height="46.001" viewBox="0 0 49.065 46.001">
  <path id="Path_26482" data-name="Path 26482" d="M48.5,19.747,26.446,1.673a3.054,3.054,0,0,0-3.842.012L.561,19.747A1.533,1.533,0,0,0,0,20.934v23A3.07,3.07,0,0,0,3.067,47H46a3.067,3.067,0,0,0,3.067-3.067v-23a1.533,1.533,0,0,0-.561-1.187Z" transform="translate(0 -0.999)" fill="#ebe7e7"/>
  <path id="Path_26483" data-name="Path 26483" d="M13.594,26.2l-8.3-8.3,4.336-4.336,3.965,3.965L29.826,1.293l4.336,4.336Z" transform="translate(10.938 -0.392)" fill="#e84393"/>
  <path id="Path_26484" data-name="Path 26484" d="M0,7.5,42.932,33.566H3.067A3.067,3.067,0,0,1,0,30.5Z" transform="translate(0 12.435)" fill="#fff"/>
  <path id="Path_26485" data-name="Path 26485" d="M44.932,7.5,2,33.566H41.865A3.067,3.067,0,0,0,44.932,30.5Z" transform="translate(4.133 12.435)" fill="#fff"/>
</svg>
