<svg xmlns="http://www.w3.org/2000/svg" width="52.678" height="43" viewBox="0 0 52.678 43">
  <path id="archive" d="M37.237,2h-21.4a2.625,2.625,0,0,0-2.677,2.687H39.913A2.625,2.625,0,0,0,37.237,2Zm8.028,8.062A2.623,2.623,0,0,0,42.59,7.375h-32.1a2.623,2.623,0,0,0-2.674,2.687V12.75H45.264Zm5.348,2.687-1.58-1.591v4.278H4.043V11.159L2.46,12.75C.877,14.341-.257,14.766.38,18.125s3.706,21.7,4.163,24.187A3.3,3.3,0,0,0,7.814,45H45.267a3.3,3.3,0,0,0,3.271-2.687c.457-2.483,3.526-20.839,4.163-24.187S52.2,14.341,50.612,12.75ZM37.288,28.867a2.7,2.7,0,0,1-2.7,2.7H18.483a2.7,2.7,0,0,1-2.7-2.7V23.5h2.687v5.375H34.6V23.5h2.687Z" transform="translate(-0.2 -2)" fill="#fff"/>
</svg>
