<svg width="36" height="36" viewBox="0 0 36 36" fill="none" xmlns="http://www.w3.org/2000/svg">
<g clip-path="url(#clip0_5_2)">
<path d="M29.0769 0H6.92308C3.09957 0 0 3.16034 0 7.05882V28.9412C0 32.8397 3.09957 36 6.92308 36H29.0769C32.9004 36 36 32.8397 36 28.9412V7.05882C36 3.16034 32.9004 0 29.0769 0Z" fill="#7F7F7F"/>
<path d="M16.7025 19.5753H11.0694C10.6775 19.5163 10.3196 19.3158 10.0607 19.01C9.8018 18.7042 9.65912 18.3138 9.65912 17.9098C9.65912 17.5059 9.8018 17.1154 10.0607 16.8096C10.3196 16.5039 10.6775 16.3033 11.0694 16.2444L16.7025 16.2389H25.1617C25.5535 16.2989 25.9118 16.5007 26.1704 16.8069C26.4289 17.113 26.5706 17.503 26.5706 17.9071C26.5706 18.3111 26.4289 18.7025 26.1704 19.0086C25.9118 19.3148 25.5535 19.5153 25.1617 19.5753H16.7025Z" fill="white"/>
</g>
<defs>
<clipPath id="clip0_5_2">
<rect width="36" height="36" fill="white"/>
</clipPath>
</defs>
</svg>
