<svg xmlns="http://www.w3.org/2000/svg" xmlns:xlink="http://www.w3.org/1999/xlink" width="270.859" height="196.327" viewBox="0 0 270.859 196.327">
  <defs>
    <linearGradient id="linear-gradient" x1="0.046" y1="2.121" x2="1.153" y2="-1.808" gradientUnits="objectBoundingBox">
      <stop offset="0.36" stop-color="#00272e"/>
      <stop offset="0.75" stop-color="#3f80a1" stop-opacity="0.251"/>
      <stop offset="1" stop-color="#69b9eb" stop-opacity="0"/>
    </linearGradient>
    <linearGradient id="linear-gradient-2" y1="0.5" x2="1" y2="0.5" gradientUnits="objectBoundingBox">
      <stop offset="0" stop-color="#ecc4d7"/>
      <stop offset="0.42" stop-color="#efd4d1"/>
      <stop offset="1" stop-color="#f2eac9"/>
    </linearGradient>
    <linearGradient id="linear-gradient-3" x1="0.508" y1="0.287" x2="0.293" y2="2.414" xlink:href="#linear-gradient-2"/>
    <linearGradient id="linear-gradient-4" x1="0" y1="0.5" x2="1" y2="0.5" xlink:href="#linear-gradient-2"/>
    <linearGradient id="linear-gradient-5" x1="0" y1="0.5" x2="1" y2="0.5" xlink:href="#linear-gradient-2"/>
    <linearGradient id="linear-gradient-6" x1="0.65" y1="2.827" x2="0.187" y2="-3.489" xlink:href="#linear-gradient-2"/>
    <linearGradient id="linear-gradient-7" x1="-23.268" y1="-1.887" x2="-20.913" y2="-1.887" xlink:href="#linear-gradient-2"/>
    <linearGradient id="linear-gradient-8" x1="-43.933" y1="-21.636" x2="-44.417" y2="-27.224" xlink:href="#linear-gradient-2"/>
    <linearGradient id="linear-gradient-9" x1="0.426" y1="-0.319" x2="0.561" y2="1.309" gradientUnits="objectBoundingBox">
      <stop offset="0" stop-color="#68e1fd"/>
      <stop offset="0.01" stop-color="#67ddf9"/>
      <stop offset="0.12" stop-color="#5cb3ce"/>
      <stop offset="0.24" stop-color="#538ea9"/>
      <stop offset="0.37" stop-color="#4c718b"/>
      <stop offset="0.5" stop-color="#465a73"/>
      <stop offset="0.63" stop-color="#424a63"/>
      <stop offset="0.79" stop-color="#404059"/>
      <stop offset="0.99" stop-color="#3f3d56"/>
    </linearGradient>
    <linearGradient id="linear-gradient-10" x1="0.368" y1="0.349" x2="0.648" y2="0.971" xlink:href="#linear-gradient-9"/>
    <linearGradient id="linear-gradient-11" x1="0.901" y1="0.631" x2="0.107" y2="0.354" gradientUnits="objectBoundingBox">
      <stop offset="0"/>
      <stop offset="0.98" stop-opacity="0"/>
    </linearGradient>
  </defs>
  <g id="new-messages" transform="translate(-0.003 0.003)">
    <path id="Path_26025" data-name="Path 26025" d="M43.181,84.567c-8,1.7-16.324,3.538-22.75,8.606C15,97.448,6.55,105.341,3.988,111.754-6.864,138.841,5.405,171.8,29.221,188.66c11.2,7.929,25.161,11.766,35.227,21.1,6.367,5.9,10.826,13.717,17.6,19.143,9.9,7.922,23.263,9.675,35.911,10.523,8.787.6,17.916.852,26.068-2.489,5.893-2.414,10.885-6.554,15.785-10.635l32.461-27.107c5.216-4.351,10.093-11.28,16.883-11.234,61.121.437,65.241-71.493-28.564-103.352-8.267-2.808-13.937-10.615-21.7-14.618-16.045-8.271-34.51-5.591-50.693.132C87.648,77.4,64.5,80.032,43.181,84.567Z" transform="translate(0 -43.462)" fill="#e2eefc"/>
    <path id="Path_26026" data-name="Path 26026" d="M560.237,470.009c2.559.043,5.854.681,6.248,3.206a5.008,5.008,0,0,1-1.355,3.657c-5.1,6.666-13.552,10.037-21.892,10.941s-16.745-.362-25.072-1.388q-18.047-2.23-36.24-2.96c-8.623-.349-17.692-.566-25.118-4.959a7.9,7.9,0,0,1-3.394-3.289c-1.315-2.9.763-6.439,3.617-7.85s6.209-1.273,9.392-1.1C497.686,467.951,528.924,470.009,560.237,470.009Z" transform="translate(-304.035 -312.865)" fill="#000405" opacity="0.05"/>
    <path id="Path_26027" data-name="Path 26027" d="M322.415,121.576v85.686a8.175,8.175,0,0,1-8.179,8.172H186.085a8.175,8.175,0,0,1-8.175-8.179v-85.68a8.172,8.172,0,0,1,8.175-8.179H314.237A8.179,8.179,0,0,1,322.415,121.576Z" transform="translate(-119.401 -55.613)" fill="#febe3d"/>
    <path id="Path_26266" data-name="Path 26266" d="M375.713,97.178s-11.125,14.387-13.236,16.8a44.118,44.118,0,0,0-6.334,10.125l-5.591,23.789-6.248-1.667-13.585-3.617s4.828-13,2.489-16.949c-3.118-5.262-.421-8.55.289-10.809,1.315-4.186-5.4-11.839-5.4-11.839l-4.3-19.281,6.5-.868L335,98.49l8.08,7.212,5.755.306s4.341.894,7.5-.566c3.019-1.4,13.684-13.427,13.684-13.427l4.351,3.946Z" transform="translate(-119.401 -55.855)" fill="#f65b3c"/>
    <path id="Path_26028" data-name="Path 26028" d="M324.273,73.931H183.98l1.138-.871a2.013,2.013,0,0,1,.164-.128L252.02,21.775l2.108-1.615,67.9,52.051Z" transform="translate(-123.475 -13.532)" fill="#d0333a"/>
    <path id="Path_26029" data-name="Path 26029" d="M322.415,183.9l-1.707,1.233-12.427,9-60.335,43.7L189.92,193.146,177.91,183.9l.155-1.588a8.12,8.12,0,0,1,2.032-3.976,7.669,7.669,0,0,1,.947-.871,2.015,2.015,0,0,1,.164-.128,8.136,8.136,0,0,1,4.877-1.615H314.237a8.182,8.182,0,0,1,8.139,7.389,7.817,7.817,0,0,1,.039.789Z" transform="translate(-119.401 -117.935)" fill="#db3f46"/>
    <path id="Path_26030" data-name="Path 26030" d="M185.448,181a8.221,8.221,0,0,0-.947.871h-.191Z" transform="translate(-123.805 -121.479)" opacity="0.61" fill="url(#linear-gradient)"/>
    <path id="Path_26031" data-name="Path 26031" d="M322.745,79.5l-1.707,1.236-12.427,9-60.335,43.7L190.25,88.746,178.24,79.5l.155-1.585a8.133,8.133,0,0,1,2.032-3.979,8.222,8.222,0,0,1,.947-.871l.164-.125,66.738-51.16,2.108-1.615,67.9,52.051a8.166,8.166,0,0,1,4.423,6.5A7.77,7.77,0,0,1,322.745,79.5Z" transform="translate(-119.731 -13.532)" fill="#febe3d" opacity="0.61"/>
    <path id="Path_26032" data-name="Path 26032" d="M332.791,171.427v16.568l-22.267,16.114-5.107,3.709-32.961,23.875-31-23.875-4.8-3.7-22.227-17.1V171.427a4.857,4.857,0,0,1,4.857-4.857h108.65a4.857,4.857,0,0,1,4.854,4.857Z" transform="translate(-143.912 -111.795)" fill="#fff"/>
    <path id="Path_26033" data-name="Path 26033" d="M342.092,217.966h-87.8a1.848,1.848,0,1,1,0-3.7h87.8a1.848,1.848,0,1,1,0,3.7Z" transform="translate(-169.53 -143.808)" fill="#d2c1c2"/>
    <path id="Path_26034" data-name="Path 26034" d="M342.092,251.216h-87.8a1.848,1.848,0,0,1,0-3.7h87.8a1.848,1.848,0,1,1,0,3.7Z" transform="translate(-169.53 -166.124)" fill="#d2c1c2"/>
    <path id="Path_26035" data-name="Path 26035" d="M355.881,280.76l-5.107,3.7H286.811l-4.8-3.7h73.871Z" transform="translate(-189.268 -188.433)" fill="#d2c1c2"/>
    <path id="Path_26036" data-name="Path 26036" d="M281.577,364.6,228.02,404.53H336.239Z" transform="translate(-153.033 -244.701)" fill="#f3b536"/>
    <path id="Path_26037" data-name="Path 26037" d="M197.916,52.576c-2.7-5.785-12.825-4.834-12.825-4.834,6.248-3.686,5.051-13.049,4.976-13.6,2.733,8.162,12.168,6.36,13.013,6.182-6.265,1.546-5.163,12.253-5.163,12.253ZM180.356,64.444c-1.713-3.677-8.156-3.072-8.156-3.072,4.078-2.424,3.154-8.662,3.154-8.662v.036c1.75,5.16,7.735,4.015,8.267,3.9C179.655,57.637,180.356,64.444,180.356,64.444Z" transform="translate(-115.569 -22.915)" fill="#eb883b"/>
    <path id="Path_26038" data-name="Path 26038" d="M719.863,90.87a4.065,4.065,0,0,1,2.815-.888,2.959,2.959,0,0,1,2.039.7,3.249,3.249,0,0,1,.8,1.753,10.058,10.058,0,0,1,.181,2.453c-.072,1.509-.464,3.108.187,4.472a3.2,3.2,0,0,0,.618.875,1.72,1.72,0,0,0,1.144.569.917.917,0,0,0,.94-.737,3.492,3.492,0,0,1-5.38,1.286l.572,1.161a6.664,6.664,0,0,1-1.368-.52,5.748,5.748,0,0,1-2.552-3.861c-.329-1.431-.395-2.907-.7-4.344a2.8,2.8,0,0,1,.71-2.924Z" transform="translate(-482.573 -60.387)" fill="#3f3d56"/>
    <path id="Path_26039" data-name="Path 26039" d="M717.041,97.492a2.3,2.3,0,0,1,.835.128,1.316,1.316,0,0,1,.806,1.1A1.243,1.243,0,0,1,718,99.9a2.085,2.085,0,0,1-.888.155c-.276,0-.556,0-.832-.026a.484.484,0,0,1-.227-.056.5.5,0,0,1-.155-.22,4.969,4.969,0,0,1-.4-1.128C715.265,97.409,716.081,97.482,717.041,97.492Z" transform="translate(-480.171 -65.43)" fill="#d0333a"/>
    <path id="Path_26040" data-name="Path 26040" d="M690.248,132.61s-.053.95-.118,2.187c-.056,1.042-.125,2.3-.181,3.348a7.034,7.034,0,0,1-2.128,4.67c-.743.76-2.516,2.177-3.867,1.674-.658-.243-.681-1.072-.543-1.569a9.742,9.742,0,0,0,.5-2.805,9.844,9.844,0,0,0-.207-2.3C682.859,135.7,690.248,132.61,690.248,132.61Z" transform="translate(-458.729 -89.002)" fill="url(#linear-gradient-2)"/>
    <path id="Path_26041" data-name="Path 26041" d="M690.87,132.61s-.053.95-.118,2.187c-.52,1.158-1.006,2.1-1.273,2.572a7.821,7.821,0,0,1-4.933,2.746,9.841,9.841,0,0,0-.207-2.3c-.858-2.115,6.531-5.2,6.531-5.2Z" transform="translate(-459.351 -89.002)" fill="url(#linear-gradient-3)"/>
    <path id="Path_26042" data-name="Path 26042" d="M671.222,94.309a7.067,7.067,0,0,0-6.577,7.981,23.9,23.9,0,0,0,2.177,8.294c2.3,3.946,8.136.7,9.06-.924s4.469-8.951,2.979-11.026C677.836,97.233,674.991,94.158,671.222,94.309Z" transform="translate(-446.139 -63.293)" fill="url(#linear-gradient-4)"/>
    <path id="Path_26043" data-name="Path 26043" d="M664.275,81.128a12.24,12.24,0,0,1,7.544.22,9.218,9.218,0,0,1,5.364,5.166,9.4,9.4,0,0,1-.21,6.807,13.3,13.3,0,0,1-4.275,5.4c-.483-1.48,1.006-2.8,1.585-4.239a1.193,1.193,0,0,0,.082-.862.981.981,0,0,0-1.47-.247,2.815,2.815,0,0,0-.825,1.486c.444-2.351.773-5.114-.891-6.837a5.441,5.441,0,0,0-3.9-1.414,9.536,9.536,0,0,0-6.968,3c-.523.562-1.266,1.253-1.93.865a1.315,1.315,0,0,1-.467-.569c-1.963-3.887,3.193-7.909,6.36-8.777Z" transform="translate(-441.263 -54.121)" fill="#3f3d56"/>
    <path id="Path_26044" data-name="Path 26044" d="M660.228,92.655a12.964,12.964,0,0,0-5.156-1.315,6.4,6.4,0,0,0-4.818,1.947,6.766,6.766,0,0,0-1.315,2.555,4.6,4.6,0,0,0-.23,1.822,7.851,7.851,0,0,0,.329,1.315,3.632,3.632,0,0,1-.233,3.2,1.441,1.441,0,0,1-1.1.612.9.9,0,0,1-.9-.766,1.937,1.937,0,0,0,.937,2.21,3.078,3.078,0,0,0,2.522.122,2.733,2.733,0,0,0,.931-.51,3.2,3.2,0,0,0,.658-.9,30.636,30.636,0,0,0,1.546-3.976,6.587,6.587,0,0,1,2.47-3.387,6.38,6.38,0,0,1,3.137-.779c1.089-.036,2.184.053,3.269-.046s.3-.743-.168-1.082a10.368,10.368,0,0,0-1.878-1.013Z" transform="translate(-434.04 -61.304)" fill="#3f3d56"/>
    <path id="Path_26045" data-name="Path 26045" d="M783.514,51.481c.28.217-2.338,2.256-2.338,2.256a8.057,8.057,0,0,1-2.466,2.693c-1.243.585-10.583,15.834-10.583,15.834l-3.686-3.341,7.952-10.7s2.631-5.041,2.338-7.235c0,0,.158-2.591.95-1.388.559.858.2,2.21.862,2.355a.358.358,0,0,0,.21-.046,7.44,7.44,0,0,0,1.5-1.2c1.315-1.253,2.887-3,2.887-3s.862-.365.753,0-1.69,2.828-1.779,2.96c.148-.135,2.575-2.3,2.96-2.134s-1.881,2.664-2.013,2.808c.141-.1,2.729-1.9,2.924-1.74.365.306-1.973,2.335-2.167,2.489C781.961,52.024,783.247,51.271,783.514,51.481Z" transform="translate(-513.157 -31.919)" fill="url(#linear-gradient-5)"/>
    <path id="Path_26046" data-name="Path 26046" d="M805.846,59.482a1.315,1.315,0,0,1-.608.049,16.771,16.771,0,0,0-1.993-.033c-.447.02-1.371.329-1.394-.365,0-.184.046-.365.036-.549a1.475,1.475,0,0,0-.033-.237,7.442,7.442,0,0,0,1.5-1.2,2.181,2.181,0,0,1,.566.286l1.3.839c.23.151.46.3.681.467a.592.592,0,0,1,.224.253.424.424,0,0,1-.27.487Z" transform="translate(-538.265 -38.358)" fill="url(#linear-gradient-6)"/>
    <path id="Path_26047" data-name="Path 26047" d="M618.591,2.438c-.355.039.8,3.15.8,3.15a8.057,8.057,0,0,0,.674,3.588c.746,1.151.641,18.794.641,18.794l4.893-.658-1.111-13.289s.424-5.669,1.828-7.376c0,0,1.23-2.286-.076-1.68-.927.434-1.339,1.769-1.973,1.546a.348.348,0,0,1-.155-.151,7.231,7.231,0,0,1-.658-1.805C622.988,2.8,622.58.488,622.58.488s-.526-.756-.612-.391-.056,3.289-.053,3.456c-.056-.187-.97-3.318-1.4-3.374s.194,3.256.233,3.446c-.072-.158-1.315-3.052-1.572-3.019-.47.069.464,3.035.533,3.256-.092-.145-.786-1.457-1.121-1.424Z" transform="translate(-415.225 0)" fill="url(#linear-gradient-7)"/>
    <path id="Path_26048" data-name="Path 26048" d="M623.162,14.431a1.315,1.315,0,0,0,.49.358,16.694,16.694,0,0,1,1.71,1.026c.372.253.987,1.01,1.378.424.105-.151.155-.329.26-.483a2.139,2.139,0,0,1,.155-.187,7.228,7.228,0,0,1-.658-1.805,2.135,2.135,0,0,0-.631-.053l-1.542.03a6.353,6.353,0,0,0-.829.036.588.588,0,0,0-.329.1.424.424,0,0,0,0,.556Z" transform="translate(-418.27 -9.2)" fill="url(#linear-gradient-8)"/>
    <path id="Path_26049" data-name="Path 26049" d="M527.584,477.324c-1.315,2.687-2.272,4.775-2.272,4.775l-16.551.789s2.743-7.258,7.205-5.383c1.509.631,6.978-.556,6.978-.556l.171-.549Z" transform="translate(-341.558 -319.736)" fill="url(#linear-gradient-9)"/>
    <path id="Path_26050" data-name="Path 26050" d="M615.217,335.974l-2.535,1.421-21.7-22.816-2.394-30.459-19.79,17.952s.529,12.362-6.39,22.033a108.978,108.978,0,0,0-5.669,10.7c-.059.122-.118.247-.174.368l-.372-.076-1.292-.27-2.805-.579,9.1-36.766,20.669-32.905,13.585,3.617,6.248,1.667s4.216,8.448,0,30.314l-2.8,12.516s11.267,6.008,14.739,17.893l1.582,5.38Z" transform="translate(-370.531 -177.573)" fill="#3f3d56"/>
    <path id="Path_26051" data-name="Path 26051" d="M718.85,481.68l2.575,2.693-6.534,6.814h-8.55a8.05,8.05,0,0,1,5.466-3.486c3.644-.477,4.515-4.6,4.515-4.6Z" transform="translate(-474.163 -323.279)" fill="url(#linear-gradient-10)"/>
    <path id="Path_26052" data-name="Path 26052" d="M186.9,47.268l-1.444.474c6.248-3.686,5.051-13.049,4.976-13.6.1.444,1.552,6.623.76,8.652C190.2,45.328,186.9,47.268,186.9,47.268ZM176.572,58.574c-.763,1.056-3.795,2.683-4,2.792,4.078-2.424,3.154-8.662,3.154-8.662v.036C175.885,53.168,177.315,57.541,176.572,58.574Z" transform="translate(-115.926 -22.915)" fill="#fff" opacity="0.22"/>
    <path id="Path_26053" data-name="Path 26053" d="M178.153,205.089l66.978,51.535,2.815-2.1L177.91,200.59Zm72.009,51.2,72.253-52.005v-3.548L247.946,254.67Z" transform="translate(-119.401 -134.627)" fill="#fff" opacity="0.22"/>
    <path id="Path_26054" data-name="Path 26054" d="M465.64,79.156l-.2.552-1.47,1.47c1.033-1.782-1.884-5.919-1.884-5.919l-1.164-.871-3.5-2.631L391.21,22.225l2.108-1.615,67.9,52.048a8.175,8.175,0,0,1,4.423,6.5Z" transform="translate(-262.665 -13.834)" fill="#fff" opacity="0.22"/>
    <path id="Path_26055" data-name="Path 26055" d="M715.629,123.91s-11.125,14.387-13.236,16.8a44.119,44.119,0,0,0-6.334,10.125l-5.591,23.789-6.248-1.667s5.834-21.813,8.179-26.443,21.882-23.822,21.882-23.822Z" transform="translate(-459.318 -82.345)" opacity="0.61" fill="url(#linear-gradient-11)"/>
    <path id="Path_26056" data-name="Path 26056" d="M620.939,343.323c-.115-.329-3.828-10.642-9.4-14.966a37.7,37.7,0,0,1-8.948-10.458c-1.332-11.641-1.424-42.36-1.424-42.36l6.248,1.667s4.216,8.448,0,30.314l-2.8,12.516s11.267,6.021,14.739,17.906Zm-46.421-33.9s.529,12.362-6.39,22.033a108.986,108.986,0,0,0-5.669,10.7l-.546.293-1.292-.27,10.727-33.836s12.993-15.394,15.371-16.867,7.59,0,7.59,0Z" transform="translate(-376.256 -184.929)" fill="#25233a"/>
  </g>
</svg>
