<svg width="472" height="353" viewBox="0 0 472 353" fill="none" xmlns="http://www.w3.org/2000/svg">
<g clip-path="url(#clip0_56_541)">
<g opacity="0.5">
<path opacity="0.5" d="M423.569 342.176C433.654 350.769 38.3446 350.769 48.3859 342.176C38.3454 333.582 433.658 333.582 423.569 342.176Z" fill="#FFD86D"/>
<g opacity="0.3">
<path opacity="0.8" d="M408.53 169.577C404.669 395.702 67.3797 395.653 63.5601 169.577C67.3762 -56.549 404.711 -56.5034 408.53 169.577Z" fill="#FFD86D"/>
<path opacity="0.6" d="M202.13 240.564C199.859 373.076 2.22618 373.031 0 240.564C2.27144 108.051 199.904 108.096 202.13 240.564Z" fill="#FFD86D"/>
<path opacity="0.6" d="M269.87 240.564C272.142 373.076 469.774 373.031 472 240.564C469.729 108.051 272.096 108.096 269.87 240.564Z" fill="#FFD86D"/>
<path opacity="0.5" d="M333.521 137.945C335.066 228.724 470.504 228.724 472 137.945C470.456 47.1653 335.021 47.1653 333.521 137.945Z" fill="#FFD86D"/>
<path opacity="0.5" d="M138.479 137.945C136.934 228.724 1.54475 228.679 0 137.945C1.54475 47.1653 136.934 47.1653 138.479 137.945Z" fill="#FFD86D"/>
</g>
</g>
<g opacity="0.8">
<g opacity="0.5">
<g opacity="0.8">
<path d="M60.0166 218.303C58.1542 217.755 60.2437 216.155 61.0156 215.058C68.9213 205.69 79.6397 193.437 88.2755 183.381C85.1425 186.581 81.6422 190.101 78.3255 193.483C55.5181 216.749 55.2909 216.749 54.7009 216.749C53.7018 216.703 53.8376 215.606 54.4285 215.057C64.4237 203.264 78.1445 188.135 88.6845 175.93C79.4595 185.299 66.6951 198.465 57.927 207.333C48.977 215.926 50.0214 215.926 48.3409 215.423C47.7499 214.829 48.159 214.326 49.9761 212.132C59.9713 200.384 74.3283 184.798 85.1407 172.456C76.3265 181.186 42.0252 216.703 44.7057 212.82C44.5025 212.813 44.3089 212.732 44.1609 212.592C43.57 211.997 43.9337 211.586 45.9328 209.164C55.7461 197.737 69.4217 182.789 80.1436 170.726C76.645 174.291 72.7836 178.222 69.0579 182.016C43.1609 208.436 41.7076 209.716 40.9348 209.716C39.4353 209.168 40.0262 208.711 42.2071 206.013C52.2476 194.358 66.2408 179.045 77.1446 166.749C71.9655 171.959 65.7865 178.219 60.2437 183.844C37.9819 206.379 37.9366 206.379 37.391 206.379C37.1878 206.372 36.9942 206.291 36.8462 206.151C36.0742 204.689 38.4814 203.226 39.5266 201.534C47.7499 191.844 58.6084 179.819 68.0127 169.263C60.5614 176.531 38.7991 199.798 34.4834 202.361C34.2802 202.353 34.0866 202.272 33.9386 202.132C33.2119 200.944 34.7566 200.258 35.4833 199.067C45.569 187.366 60.0166 171.55 70.7393 159.346C66.5141 163.642 61.5143 168.762 56.7913 173.607C33.7567 197.186 32.4843 198.236 31.8064 198.236C30.3069 197.734 30.8978 197.186 32.9421 194.717C42.074 184.02 54.6591 170.125 64.609 158.789C60.7015 162.72 56.2491 167.2 52.0239 171.496C29.8526 193.939 29.7621 193.939 29.2164 193.939C27.9893 193.573 28.2173 193.071 29.6707 191.425C39.1211 180.455 52.0239 166.011 61.6971 154.721C56.9271 159.291 27.7134 189.643 28.8004 187.586C28.5973 187.579 28.4037 187.497 28.2556 187.357C27.5289 186.215 29.1642 185.343 29.8909 184.158C36.7513 175.793 45.8832 165.234 53.6069 156.092C51.1084 158.652 48.4279 161.345 45.9746 163.863C28.1651 181.598 29.5262 181.55 27.6656 181.095C26.757 179.815 30.5279 176.661 31.8908 174.513C36.0681 169.303 42.2471 161.76 46.9293 155.951C22.7163 181.416 25.8058 175.473 37.9854 158.058C35.6226 160.435 35.5773 160.435 35.2596 160.435C35.0994 160.436 34.9432 160.384 34.8144 160.289C34.6856 160.193 34.591 160.058 34.545 159.903C34.4989 159.749 34.5038 159.584 34.5589 159.432C34.614 159.281 34.7163 159.152 34.8506 159.064C35.2144 158.744 37.1673 156.733 38.6668 155.27C42.1653 151.704 42.1653 151.704 42.5282 151.704C44.482 152.299 41.9834 154.401 41.2559 155.907C39.0297 159.244 35.6678 164.181 33.2145 167.837C36.713 164.546 56.431 143.748 55.2492 145.897C56.5215 146.263 56.2065 146.811 54.7949 148.593C49.1615 155.773 41.5735 164.912 35.3954 172.591C38.303 169.665 41.6614 166.191 44.8911 162.9C62.7884 144.573 62.9694 144.573 63.5603 144.573C64.5176 144.619 64.4689 145.716 63.878 146.219C56.6547 155.04 47.159 165.965 39.2081 175.381C93.4998 119.343 64.7866 154.492 42.3881 179.175C45.1591 176.386 48.1128 173.415 50.9291 170.536C74.9628 146.218 75.0542 146.218 75.6451 146.218C77.1446 146.72 76.5084 147.269 74.4641 149.783C65.1521 160.753 52.157 175.061 42.0252 186.58C46.2026 182.377 51.0666 177.347 55.7008 172.639C78.6902 149.099 79.9164 148.047 80.6431 148.047C82.1879 148.641 81.6431 148.961 79.0983 152.069C69.3303 163.497 55.8818 178.261 45.1147 190.42C51.0213 184.66 87.1398 147.27 84.5045 150.973C84.7077 150.98 84.9013 151.062 85.0493 151.202C85.7308 152.252 84.4584 152.801 83.8684 153.716C73.1012 166.011 58.7895 181.782 47.568 194.58C51.0666 191.015 55.1099 186.947 59.108 182.879C88.2302 153.853 86.87 153.897 88.7759 154.402C89.3668 154.996 89.003 155.453 86.9135 157.922C76.6912 169.761 62.4255 185.393 51.3851 197.872C56.4284 192.798 62.4707 186.628 67.8769 181.097C90.8202 157.693 90.9568 157.693 91.593 157.693C91.7961 157.7 91.9897 157.782 92.1378 157.922C92.7287 158.516 92.3197 159.019 90.2754 161.442C80.6431 172.685 67.4218 187.127 56.7913 199.105C60.0627 195.768 63.6517 192.157 67.0606 188.637C92.4572 162.766 93.7783 161.623 94.4562 161.623C96.001 162.171 95.3195 162.766 93.1386 165.417C83.2339 177.073 69.3321 192.248 58.5641 204.499C68.0144 195.083 99.4534 162.126 97.6397 165.462C97.8428 165.47 98.0365 165.551 98.1845 165.691C98.7754 166.285 98.5022 166.696 96.0488 169.622C87.5531 179.724 76.3309 192.203 66.6542 203.219C77.7851 192.111 99.8659 168.89 98.9564 171.085C100.001 171.222 99.865 172.182 99.1836 172.867C91.0029 182.74 80.3742 194.762 71.3346 205.321C73.3362 203.307 75.3779 201.161 77.4265 199.15C99.1436 176.843 101.233 174.924 100.054 178.9C92.8758 187.813 83.3349 198.967 75.4745 208.428C79.745 204.268 102.007 181.002 100.417 183.516C100.62 183.523 100.814 183.605 100.962 183.745C101.643 184.75 100.371 185.436 99.8259 186.441C95.1463 192.475 89.0587 200.013 83.6969 206.737C98.5083 191.698 99.8259 190.101 99.4168 193.206C98.0992 194.169 90.4668 201.982 84.4697 208.061C75.6103 217.02 75.6555 217.02 75.2012 217.02C74.0203 216.654 74.1569 216.244 75.4736 214.643C80.4717 208.244 87.1502 200.017 92.6469 193.114C91.284 194.485 89.8759 195.903 88.4695 197.365C68.1154 217.98 67.8883 217.98 67.2982 217.98C67.0951 217.973 66.9014 217.892 66.7534 217.752C66.1625 217.157 66.1625 217.157 72.0691 210.026C77.43 203.581 85.2443 194.302 91.1509 187.217C87.2894 191.149 82.7004 195.81 78.5657 200.016C60.711 218.3 60.5744 218.3 60.0287 218.3L60.0166 218.303ZM88.185 202.442C88.2738 202.529 88.383 202.592 88.5026 202.625C88.3876 202.582 88.2804 202.52 88.185 202.442ZM24.9877 168.389C25.1889 168.405 25.3799 168.485 25.5325 168.618C25.4243 168.502 25.2806 168.425 25.1243 168.4C24.9679 168.375 24.8078 168.404 24.6692 168.481C24.7593 168.409 24.8738 168.376 24.9877 168.389Z" fill="#DEA629"/>
</g>
<g opacity="0.8">
<path d="M251.834 85.8365C250.471 85.4249 252.015 84.2368 252.56 83.4593C258.375 76.557 266.236 67.598 272.551 60.1932C270.234 62.524 267.689 65.1297 265.24 67.598C248.476 84.6474 248.339 84.6474 247.885 84.6474C247.158 84.6019 247.249 83.7788 247.658 83.4128C254.968 74.7279 265.058 63.6666 272.782 54.7076C265.24 61.975 250.111 78.7512 243.568 83.8244C242.478 83.4584 242.932 83.0013 244.387 81.265C251.746 72.672 262.241 61.1983 270.192 52.1483C263.741 58.5479 238.571 84.6474 240.524 81.7685C240.446 81.7726 240.369 81.7582 240.298 81.7264C240.227 81.6946 240.164 81.6463 240.115 81.5855C239.388 80.4429 243.659 76.8775 245.25 74.6832C251.202 67.9185 260.106 58.0909 266.513 50.8673C218.125 100.828 238.89 75.642 264.332 47.9419C260.515 51.7814 255.972 56.3528 251.928 60.5119C235.618 77.0605 235.572 77.0605 235.164 77.0605C235.087 77.0602 235.011 77.0438 234.94 77.0123C234.87 76.9808 234.807 76.9349 234.755 76.8775C234.21 75.7348 235.936 74.7761 236.709 73.4951C242.751 66.4098 250.702 57.5428 257.608 49.8174C252.155 55.1655 236.163 72.215 232.983 74.0896C231.575 73.6781 233.165 72.4899 233.71 71.6669C241.115 63.0738 251.701 51.4636 259.607 42.5037C217.672 86.065 225.623 74.5502 255.064 42.0921C211.312 86.9336 230.348 64.5816 252.928 39.0757C249.43 42.4126 227.986 64.7191 228.758 63.2104C228.681 63.2102 228.605 63.1938 228.534 63.1622C228.464 63.1307 228.401 63.0848 228.349 63.0274C227.804 62.1589 229.03 61.5643 229.53 60.6966C234.573 54.5675 241.252 46.8011 246.93 40.1273C220.307 68.0104 224.259 61.2911 242.069 40.0398C224.35 58.6898 226.578 54.3013 235.481 41.5939C233.754 43.3311 233.709 43.3311 233.479 43.3311C233.362 43.3323 233.247 43.2956 233.152 43.2264C233.057 43.1572 232.987 43.0592 232.951 42.9466C232.916 42.8341 232.917 42.7131 232.955 42.6014C232.993 42.4897 233.065 42.3931 233.162 42.3259C233.706 41.9144 238.75 36.3833 238.795 36.9323C241.158 36.8447 232.616 47.1259 231.98 48.7711C234.524 46.3484 249.017 31.0843 248.154 32.6813C249.111 32.9554 248.835 33.3669 247.836 34.647C243.702 39.9005 238.113 46.6233 233.616 52.2463C235.752 50.0976 238.25 47.5383 240.567 45.1155C253.692 31.6709 253.833 31.6709 254.287 31.6709C255.014 31.7164 254.968 32.494 254.514 32.8591C249.198 39.3043 242.243 47.3492 236.432 54.2514C276.049 13.3414 255.242 38.9383 238.749 57.0393C283.727 10.9186 257.694 41.361 238.476 62.4784C241.522 59.3701 245.11 55.7136 248.517 52.2393C265.418 34.9614 266.281 34.1838 266.826 34.1838C266.904 34.1797 266.981 34.1942 267.052 34.226C267.123 34.2578 267.186 34.3061 267.235 34.3668C267.644 34.7784 267.462 35.0979 265.69 37.1547C258.512 45.5192 248.653 56.3528 240.748 65.3119C246.245 60.4208 270.416 33.8178 270.052 36.5147C270.643 37.6118 267.735 39.6668 266.69 41.2227C259.648 49.1301 249.88 60.0093 242.565 68.3282C292.314 17.271 271.505 42.1368 245.382 70.7054C249.062 67.0026 253.515 62.432 257.513 58.4096C274.323 41.2227 274.459 41.2227 274.913 41.2227C274.991 41.2186 275.069 41.233 275.14 41.2648C275.211 41.2966 275.273 41.3449 275.322 41.4057C276.004 42.6403 271.642 46.2967 269.961 48.5855C264.191 55.1217 255.696 64.5378 249.38 71.6231C297.448 22.0281 274.232 49.9567 250.698 75.6C287.772 36.9297 289.179 38.4839 256.65 74.6369C294.087 35.921 282.092 51.2333 260.057 76.1455C295.176 39.7605 279.82 58.9131 263.055 78.3852C266.188 75.3207 282.5 58.273 281.364 60.1012C283.181 60.5583 279.32 63.8496 278.456 65.3547C275.866 68.6461 272.095 73.3541 269.052 77.1025C280.274 66.0403 279.274 66.0403 280.592 66.4063C281.183 67.457 273.686 73.4452 269.643 78.0621C263.146 84.6439 263.146 84.6439 262.828 84.6439C262.751 84.6437 262.675 84.6273 262.604 84.5957C262.534 84.5642 262.471 84.5183 262.419 84.4609C262.055 84.0949 262.192 83.9128 263.01 82.8612C266.69 78.1532 271.597 72.1195 275.595 67.0455C264.419 78.3362 257.058 86.1981 256.971 85.4206C256.893 85.4247 256.816 85.4102 256.744 85.3784C256.673 85.3466 256.611 85.2984 256.562 85.2376C256.107 84.8261 256.107 84.8261 260.469 79.5699C264.377 74.8163 270.147 68.0051 274.463 62.84C271.6 65.7199 268.238 69.1443 265.238 72.2561C252.335 85.8277 252.244 85.8277 251.835 85.8277L251.834 85.8365ZM261.058 57.3134C261.123 57.3755 261.201 57.4225 261.286 57.4508C261.192 57.4053 261.147 57.3598 261.057 57.3142L261.058 57.3134ZM214.672 32.3101C214.819 32.3136 214.962 32.3615 215.082 32.4476C214.997 32.369 214.891 32.3185 214.777 32.3028C214.663 32.2872 214.547 32.3071 214.445 32.36C214.521 32.3481 214.596 32.3317 214.67 32.311L214.672 32.3101Z" fill="#DEA629"/>
</g>
<g opacity="0.8">
<path d="M411.348 204.361C410.439 204.087 411.484 203.31 411.847 202.761C415.709 198.19 420.934 192.203 425.163 187.312C395.225 218.12 412.487 197.962 425.344 183.701C420.347 188.546 410.261 199.699 405.945 203.082C405.218 202.853 405.536 202.534 406.49 201.345C411.351 195.631 418.347 187.997 423.618 182.009C394.132 212.452 400.856 203.401 421.164 181.186C389.312 214.097 402.856 197.596 419.71 179.266C417.166 181.825 414.167 184.843 411.443 187.63C400.584 198.646 400.539 198.646 400.312 198.646C399.721 198.559 399.903 198.052 400.312 197.549C404.674 192.246 410.216 186.213 415.259 180.545C411.624 184.111 400.993 195.447 398.903 196.68C397.945 196.406 398.99 195.63 399.402 195.081C404.309 189.367 411.351 181.642 416.622 175.7C388.953 204.451 394.133 196.863 413.624 175.426C384.73 205.046 397.222 190.327 412.215 173.412C409.899 175.651 395.632 190.461 396.178 189.456C395.221 189.182 396.314 188.359 396.723 187.811C400.085 183.743 404.537 178.578 408.263 174.144C390.683 192.564 393.224 188.131 405.036 174.098C393.315 186.485 394.767 183.514 400.675 175.103C399.312 176.383 399.676 176.383 399.085 176.154C398.721 175.423 400.175 174.828 400.993 173.731C402.72 171.994 402.72 171.994 402.902 171.994C404.356 172.268 398.858 178.576 398.359 179.856C416.487 160.977 409.035 170.623 399.449 182.141C421.348 159.376 413.942 169.022 401.312 183.513C427.481 156.452 413.805 173.365 402.856 185.341C432.433 154.989 415.442 174.921 402.674 188.952C433.16 157.32 421.938 171.445 404.174 190.825C407.082 187.991 424.664 169.754 423.392 171.582C424.256 171.81 423.438 172.496 423.075 172.907C417.804 178.896 410.853 186.574 405.356 192.837C438.158 159.148 424.574 175.512 407.218 194.436C436.068 164.542 430.298 172.722 409.853 195.031C441.52 162.349 426.345 180.678 410.717 197.682C435.25 172.084 436.159 173.181 414.67 197.042C439.339 171.491 431.525 181.592 416.941 198.047C440.111 174.004 430.071 186.62 418.943 199.556C421.031 197.542 431.891 186.159 431.119 187.398C432.845 187.535 423.849 197.088 422.938 198.687C430.389 191.332 429.753 191.332 430.617 191.602C430.844 192.516 426.164 196.127 423.347 199.373C419.031 203.761 419.031 203.761 418.85 203.761C417.078 203.716 426.528 193.614 427.345 192.106C405.038 215.189 417.123 200.288 426.573 189.318C424.665 191.238 422.439 193.52 420.44 195.58C411.671 204.356 411.625 204.356 411.353 204.356L411.348 204.361ZM452.282 199.379C452.328 199.425 452.369 199.467 452.419 199.467C452.377 199.47 452.328 199.425 452.282 199.379ZM421.433 182.787C421.53 182.795 421.623 182.825 421.706 182.874C421.657 182.814 421.587 182.776 421.511 182.767C421.434 182.759 421.357 182.781 421.297 182.829C421.315 182.812 421.337 182.799 421.361 182.792C421.385 182.785 421.409 182.783 421.433 182.787Z" fill="#DEA629"/>
</g>
</g>
<g opacity="0.5">
<path opacity="0.5" d="M12.4033 144.756C38.8296 129.217 66.6325 116.18 95.4543 105.812C69.0332 121.361 41.2293 134.399 12.4033 144.756Z" fill="#DEA629"/>
<path opacity="0.5" d="M151.836 67.2784C178.7 52.5947 206.436 39.5886 234.887 28.334C208.034 43.0361 180.296 56.0427 151.836 67.2784Z" fill="#DEA629"/>
<path opacity="0.5" d="M403.079 217.344C420.473 207.713 438.489 199.268 457.008 192.066C439.604 201.678 421.589 210.122 403.079 217.344Z" fill="#DEA629"/>
</g>
</g>
<path d="M378.318 194.443V324.349C371.911 320.693 266.964 261.133 263.918 259.396L378.318 194.443Z" fill="url(#paint0_linear_56_541)"/>
<path d="M208.082 259.396C205.538 260.859 99.5881 321.013 93.6824 324.35V194.443L208.082 259.396Z" fill="url(#paint1_linear_56_541)"/>
<path d="M208.082 259.396C205.492 260.905 99.6342 321.013 93.6824 324.395V324.35C100.089 320.693 205.038 261.088 208.082 259.396Z" fill="url(#paint2_linear_56_541)"/>
<path d="M378.315 324.35C371.864 320.739 266.96 261.179 263.873 259.396H263.918C266.463 260.813 372.412 320.968 378.315 324.35Z" fill="url(#paint3_linear_56_541)"/>
<g opacity="0.2">
<path d="M378.319 194.443V206.053L275.459 265.933L263.919 259.396L378.319 194.443Z" fill="url(#paint4_linear_56_541)"/>
<path d="M208.082 259.396L196.542 265.933L93.6824 206.053V194.443L208.082 259.396Z" fill="url(#paint5_linear_56_541)"/>
</g>
<path d="M378.319 150.562V194.443C367.914 200.293 276.822 252.128 263.919 259.396C263.874 259.484 244.61 248.426 244.61 248.472C233.388 240.793 217.714 254.825 208.083 259.442C194.816 251.9 104.678 200.659 93.6833 194.443V150.562C107.222 142.836 217.263 80.3974 227.392 74.6378C230.022 73.1541 232.986 72.375 236.001 72.375C239.017 72.375 241.981 73.1541 244.611 74.6378C254.337 80.1689 365.37 143.202 378.319 150.562Z" fill="url(#paint6_linear_56_541)"/>
<path d="M378.318 324.395C378.863 332.577 378 341.125 367.868 341.627H104.086C94.0906 341.125 93.0454 332.623 93.6363 324.395C100.088 320.738 204.992 261.177 208.078 259.396C237.792 241.935 234.248 241.98 263.87 259.396C266.508 260.904 372.366 320.967 378.318 324.395Z" fill="url(#paint7_linear_56_541)"/>
<path opacity="0.3" d="M208.082 259.396C208.082 259.442 196.633 265.933 196.587 265.979H196.542L208.082 259.396Z" fill="url(#paint8_linear_56_541)"/>
<path opacity="0.3" d="M275.458 265.933C275.413 265.933 263.918 259.442 263.918 259.396H263.963L275.458 265.933Z" fill="url(#paint9_linear_56_541)"/>
<path d="M359.554 163.086V205.093C328.251 222.875 295.176 241.661 263.92 259.396C232.662 241.661 239.295 241.71 208.129 259.396C176.871 241.661 143.796 222.828 112.493 205.093V163.086C112.502 161.239 113.239 159.47 114.542 158.168C115.845 156.866 117.607 156.136 119.444 156.138H352.602C354.438 156.136 356.201 156.865 357.504 158.168C358.807 159.47 359.544 161.238 359.554 163.086Z" fill="#FFE8BE"/>
<g opacity="0.8">
<path d="M208.037 176.434H127.985V184.159H208.037V176.434Z" fill="#FFE8BE"/>
<path d="M344.335 194.444H127.621V198.283H344.335V194.444Z" fill="#FFE8BE"/>
<path d="M344.335 205.871H127.621V209.71H344.335V205.871Z" fill="#FFE8BE"/>
<path d="M338.111 217.298L331.296 221.138H140.704L133.89 217.298H338.111Z" fill="#FFE8BE"/>
<path d="M317.984 228.726L311.168 232.566H160.833L154.017 228.726H317.984Z" fill="#FFE8BE"/>
<path d="M297.857 240.107L291.042 243.992H180.959L174.144 240.107H297.857Z" fill="#FFE8BE"/>
<path d="M194.271 251.581H221.893L215.124 255.42H201.086L194.271 251.581Z" fill="#FFE8BE"/>
<path d="M277.73 251.581L270.915 255.42H256.877L250.108 251.581H277.73Z" fill="#FFE8BE"/>
</g>
<path d="M351.312 348.202C382.313 348.202 407.445 322.917 407.445 291.726C407.445 260.536 382.313 235.251 351.312 235.251C320.31 235.251 295.179 260.536 295.179 291.726C295.179 322.917 320.31 348.202 351.312 348.202Z" fill="white"/>
<path d="M351.312 347.764C382.073 347.764 407.01 322.675 407.01 291.726C407.01 260.778 382.073 235.689 351.312 235.689C320.551 235.689 295.614 260.778 295.614 291.726C295.614 322.675 320.551 347.764 351.312 347.764Z" stroke="#707070"/>
<path fill-rule="evenodd" clip-rule="evenodd" d="M350.743 229.41C362.89 229.411 374.764 233.037 384.864 239.828C394.963 246.619 402.834 256.27 407.482 267.562C412.13 278.853 413.345 291.277 410.974 303.264C408.604 315.25 402.754 326.26 394.164 334.902C385.574 343.543 374.63 349.428 362.716 351.812C350.802 354.196 338.453 352.972 327.231 348.295C316.008 343.618 306.416 335.698 299.667 325.537C292.918 315.375 289.315 303.428 289.315 291.207C289.315 283.091 290.904 275.055 293.991 267.557C297.079 260.06 301.603 253.247 307.308 247.509C313.012 241.77 319.783 237.218 327.236 234.113C334.689 231.008 342.676 229.409 350.743 229.41ZM376.704 276.011L361.612 291.197L376.713 306.381L365.845 317.321L350.748 302.126L335.636 317.326L324.777 306.402L339.885 291.202L324.777 276.006L335.65 265.066L350.754 280.267L365.841 265.082L376.704 276.011Z" fill="#D33E45"/>
</g>
<defs>
<linearGradient id="paint0_linear_56_541" x1="321.118" y1="271.607" x2="321.118" y2="188.337" gradientUnits="userSpaceOnUse">
<stop stop-color="#FFD05D"/>
<stop offset="1" stop-color="#FCB316"/>
</linearGradient>
<linearGradient id="paint1_linear_56_541" x1="150.882" y1="271.608" x2="150.882" y2="188.337" gradientUnits="userSpaceOnUse">
<stop stop-color="#FFD05D"/>
<stop offset="1" stop-color="#FCB316"/>
</linearGradient>
<linearGradient id="paint2_linear_56_541" x1="150.882" y1="353.255" x2="150.882" y2="269.601" gradientUnits="userSpaceOnUse">
<stop stop-color="#FFD05D"/>
<stop offset="1" stop-color="#FCB430"/>
</linearGradient>
<linearGradient id="paint3_linear_56_541" x1="321.094" y1="353.254" x2="321.094" y2="269.594" gradientUnits="userSpaceOnUse">
<stop stop-color="#FFD05D"/>
<stop offset="1" stop-color="#FCB430"/>
</linearGradient>
<linearGradient id="paint4_linear_56_541" x1="321.119" y1="297.674" x2="321.119" y2="205.667" gradientUnits="userSpaceOnUse">
<stop stop-color="#FFD05D"/>
<stop offset="1" stop-color="#FCB316"/>
</linearGradient>
<linearGradient id="paint5_linear_56_541" x1="150.882" y1="297.674" x2="150.882" y2="205.667" gradientUnits="userSpaceOnUse">
<stop stop-color="#FFD05D"/>
<stop offset="1" stop-color="#FCB316"/>
</linearGradient>
<linearGradient id="paint6_linear_56_541" x1="236.286" y1="155.994" x2="233.458" y2="429.337" gradientUnits="userSpaceOnUse">
<stop stop-color="#FFD05D"/>
<stop offset="1" stop-color="#FCB316"/>
</linearGradient>
<linearGradient id="paint7_linear_56_541" x1="233.694" y1="215.627" x2="233.949" y2="325.81" gradientUnits="userSpaceOnUse">
<stop stop-color="#FFD05D"/>
<stop offset="1" stop-color="#FCB316"/>
</linearGradient>
<linearGradient id="paint8_linear_56_541" x1="202.312" y1="259.383" x2="202.312" y2="265.946" gradientUnits="userSpaceOnUse">
<stop stop-color="#FFD05D"/>
<stop offset="1" stop-color="#FCB316"/>
</linearGradient>
<linearGradient id="paint9_linear_56_541" x1="269.677" y1="259.383" x2="269.677" y2="265.946" gradientUnits="userSpaceOnUse">
<stop stop-color="#FFD05D"/>
<stop offset="1" stop-color="#FCB316"/>
</linearGradient>
<clipPath id="clip0_56_541">
<rect width="472" height="353" fill="white"/>
</clipPath>
</defs>
</svg>
