<svg width="422" height="315" viewBox="0 0 422 315" fill="none" xmlns="http://www.w3.org/2000/svg">
<g clip-path="url(#clip0_56_541)">
<g opacity="0.5">
<path opacity="0.5" d="M378.699 305.341C387.716 313.009 34.2826 313.009 43.2602 305.341C34.2834 297.672 387.72 297.672 378.699 305.341Z" fill="#FFD86D"/>
<g opacity="0.3">
<path opacity="0.8" d="M365.254 151.322C361.801 353.106 60.2422 353.062 56.8271 151.322C60.2391 -50.4615 361.839 -50.4209 365.254 151.322Z" fill="#FFD86D"/>
<path opacity="0.6" d="M180.718 214.668C178.687 332.915 1.99036 332.875 0 214.668C2.03082 96.4195 178.728 96.4602 180.718 214.668Z" fill="#FFD86D"/>
<path opacity="0.6" d="M241.282 214.668C243.313 332.915 420.01 332.875 422 214.668C419.969 96.4195 243.273 96.4602 241.282 214.668Z" fill="#FFD86D"/>
<path opacity="0.5" d="M298.191 123.096C299.572 204.102 420.662 204.102 422 123.096C420.62 42.0879 299.532 42.0879 298.191 123.096Z" fill="#FFD86D"/>
<path opacity="0.5" d="M123.81 123.096C122.429 204.102 1.38111 204.062 0 123.096C1.38111 42.0879 122.429 42.0879 123.81 123.096Z" fill="#FFD86D"/>
</g>
</g>
<g opacity="0.8">
<g opacity="0.5">
<g opacity="0.8">
<path d="M53.6586 194.803C51.9935 194.314 53.8617 192.886 54.5519 191.907C61.62 183.547 71.203 172.614 78.924 163.64C76.1229 166.495 72.9934 169.636 70.0281 172.655C49.6366 193.416 49.4336 193.416 48.906 193.416C48.0128 193.376 48.1342 192.397 48.6625 191.907C57.5989 181.383 69.8662 167.882 79.2897 156.991C71.0419 165.352 59.6297 177.1 51.7904 185.014C43.7885 192.682 44.7222 192.682 43.2197 192.233C42.6914 191.703 43.0571 191.254 44.6818 189.296C53.6181 178.813 66.4543 164.905 76.1213 153.891C68.2408 161.682 37.5731 193.375 39.9696 189.91C39.788 189.904 39.6149 189.831 39.4826 189.706C38.9542 189.176 39.2795 188.809 41.0668 186.648C49.8405 176.45 62.0674 163.112 71.6535 152.347C68.5256 155.529 65.0732 159.037 61.7422 162.422C38.5885 185.998 37.2891 187.141 36.5982 187.141C35.2575 186.651 35.7859 186.244 37.7358 183.836C46.7126 173.435 59.2235 159.771 68.9722 148.798C64.3418 153.448 58.8173 159.034 53.8617 164.054C33.9581 184.163 33.9177 184.163 33.4298 184.163C33.2482 184.156 33.0751 184.084 32.9427 183.959C32.2525 182.654 34.4047 181.349 35.3392 179.839C42.6914 171.192 52.3997 160.462 60.8077 151.042C54.1457 157.527 34.6887 178.29 30.8302 180.577C30.6486 180.57 30.4755 180.498 30.3431 180.373C29.6934 179.312 31.0745 178.701 31.7242 177.638C40.7415 167.196 53.6586 153.083 63.2455 142.192C59.4678 146.026 54.9977 150.595 50.775 154.918C30.1805 175.959 29.0429 176.896 28.4368 176.896C27.0961 176.448 27.6245 175.959 29.4522 173.756C37.6167 164.211 48.8687 151.811 57.7646 141.695C54.271 145.203 50.2902 149.201 46.5126 153.035C26.69 173.062 26.6091 173.062 26.1212 173.062C25.0241 172.735 25.2279 172.287 26.5274 170.819C34.9766 161.029 46.5126 148.14 55.1611 138.065C50.8964 142.144 24.7774 169.228 25.7493 167.392C25.5676 167.386 25.3945 167.313 25.2622 167.188C24.6125 166.169 26.0745 165.391 26.7242 164.333C32.8579 156.869 41.0224 147.447 47.928 139.289C45.6941 141.573 43.2975 143.977 41.1041 146.223C25.1813 162.049 26.3982 162.006 24.7346 161.6C23.9223 160.458 27.2938 157.644 28.5123 155.727C32.2471 151.077 37.7715 144.347 41.9577 139.163C20.3096 161.886 23.0718 156.583 33.9612 141.043C31.8487 143.164 31.8083 143.164 31.5243 143.164C31.381 143.165 31.2413 143.119 31.1262 143.034C31.011 142.948 30.9265 142.828 30.8853 142.69C30.8441 142.552 30.8485 142.405 30.8977 142.269C30.947 142.134 31.0385 142.019 31.1585 141.941C31.4838 141.655 33.2298 139.861 34.5705 138.555C37.6984 135.373 37.6984 135.373 38.0229 135.373C39.7697 135.904 37.5358 137.78 36.8853 139.124C34.8949 142.101 31.8892 146.507 29.6957 149.769C32.8237 146.832 50.4529 128.273 49.3962 130.191C50.5338 130.517 50.2521 131.007 48.9901 132.597C43.9535 139.004 37.1693 147.159 31.6456 154.011C34.2452 151.401 37.2479 148.301 40.1354 145.364C56.1368 129.01 56.2987 129.01 56.827 129.01C57.6829 129.051 57.6393 130.03 57.111 130.478C50.6528 138.35 42.1631 148.099 35.0545 156.501C83.5949 106.496 57.9233 137.861 37.8976 159.887C40.375 157.398 43.0159 154.747 45.5338 152.178C67.0215 130.478 67.1032 130.478 67.6316 130.478C68.9722 130.926 68.4034 131.415 66.5757 133.659C58.2501 143.448 46.6317 156.215 37.5731 166.495C41.308 162.744 45.6567 158.255 49.8001 154.054C70.3541 133.048 71.4504 132.11 72.1001 132.11C73.4813 132.64 72.9942 132.926 70.719 135.699C61.9857 145.896 49.9619 159.071 40.3354 169.922C45.6163 164.782 77.9086 131.417 75.5525 134.721C75.7341 134.727 75.9073 134.8 76.0396 134.925C76.6489 135.863 75.5113 136.352 74.9837 137.168C65.3572 148.14 52.5615 162.213 42.5288 173.634C45.6567 170.452 49.2717 166.822 52.8463 163.192C78.8835 137.291 77.6674 137.33 79.3714 137.781C79.8997 138.311 79.5745 138.718 77.7063 140.922C68.5668 151.486 55.8124 165.436 45.9415 176.571C50.4505 172.044 55.8528 166.538 60.6863 161.602C81.1991 140.718 81.3213 140.718 81.8901 140.718C82.0717 140.724 82.2448 140.797 82.3772 140.922C82.9055 141.452 82.5398 141.901 80.712 144.063C72.1001 154.096 60.2794 166.983 50.775 177.672C53.6998 174.694 56.9087 171.472 59.9565 168.331C82.6627 145.244 83.8439 144.224 84.45 144.224C85.8311 144.713 85.2219 145.244 83.272 147.61C74.4165 158.011 61.9873 171.553 52.36 182.485C60.8093 174.082 88.9178 144.673 87.2963 147.65C87.4779 147.657 87.651 147.729 87.7833 147.854C88.3117 148.385 88.0673 148.751 85.8739 151.363C78.2782 160.377 68.2447 171.512 59.5931 181.342C69.5449 171.43 89.2866 150.709 88.4735 152.667C89.4072 152.79 89.2858 153.646 88.6766 154.258C81.3625 163.068 71.8597 173.796 63.7777 183.218C65.5673 181.421 67.3927 179.506 69.2243 177.711C88.6408 157.806 90.509 156.094 89.4547 159.642C83.037 167.596 74.5068 177.548 67.4791 185.991C71.2971 182.279 91.2007 161.518 89.7791 163.761C89.9608 163.767 90.1339 163.84 90.2662 163.965C90.8755 164.862 89.7379 165.474 89.2508 166.371C85.067 171.755 79.6243 178.482 74.8305 184.482C88.0728 171.062 89.2508 169.636 88.8851 172.408C87.7071 173.267 80.8832 180.239 75.5214 185.664C67.6004 193.658 67.6409 193.658 67.2347 193.658C66.1789 193.332 66.301 192.965 67.4783 191.537C71.9469 185.826 77.9179 178.485 82.8323 172.326C81.6139 173.549 80.3549 174.814 79.0975 176.119C60.8995 194.515 60.6964 194.515 60.1689 194.515C59.9873 194.508 59.8142 194.436 59.6818 194.311C59.1535 193.78 59.1535 193.78 64.4344 187.417C69.2274 181.666 76.2139 173.386 81.4948 167.063C78.0424 170.572 73.9395 174.731 70.2428 178.484C54.2795 194.8 54.1574 194.8 53.6695 194.8L53.6586 194.803ZM78.8431 180.649C78.9225 180.727 79.0202 180.783 79.1271 180.813C79.0243 180.774 78.9284 180.719 78.8431 180.649ZM22.3404 150.262C22.5203 150.276 22.6911 150.348 22.8275 150.466C22.7308 150.363 22.6023 150.294 22.4625 150.272C22.3228 150.25 22.1796 150.275 22.0557 150.344C22.1362 150.28 22.2386 150.251 22.3404 150.262Z" fill="#DEA629"/>
</g>
<g opacity="0.8">
<path d="M225.156 76.5963C223.938 76.2291 225.319 75.1688 225.806 74.475C231.005 68.3158 238.033 60.3212 243.679 53.7135C241.607 55.7934 239.332 58.1186 237.143 60.3212C222.154 75.5353 222.032 75.5353 221.626 75.5353C220.976 75.4946 221.057 74.7602 221.423 74.4336C227.959 66.6836 236.98 56.813 243.886 48.8184C237.143 55.3035 223.616 70.2738 217.767 74.8008C216.792 74.4742 217.198 74.0664 218.498 72.517C225.078 64.849 234.461 54.6104 241.57 46.5346C235.802 52.2453 213.299 75.5353 215.045 72.9663C214.975 72.9699 214.906 72.957 214.842 72.9287C214.779 72.9003 214.723 72.8572 214.679 72.803C214.029 71.7833 217.847 68.6017 219.27 66.6437C224.591 60.6071 232.553 51.8375 238.28 45.3915C195.018 89.9743 213.584 67.4993 236.33 42.7811C232.918 46.2072 228.856 50.2865 225.241 53.9979C210.659 68.765 210.617 68.765 210.253 68.765C210.184 68.7648 210.116 68.7501 210.053 68.722C209.99 68.6939 209.933 68.653 209.887 68.6017C209.4 67.5821 210.943 66.7265 211.634 65.5835C217.036 59.2609 224.145 51.3484 230.319 44.4547C225.444 49.2271 211.146 64.4412 208.303 66.114C207.044 65.7468 208.465 64.6865 208.952 63.952C215.573 56.2841 225.038 45.9236 232.106 37.9282C194.614 76.8003 201.722 66.525 228.044 37.561C188.927 77.5753 205.947 57.6295 226.135 34.8693C223.007 37.847 203.835 57.7522 204.525 56.4059C204.456 56.4057 204.388 56.3911 204.325 56.3629C204.262 56.3348 204.206 56.2939 204.159 56.2426C203.672 55.4676 204.769 54.937 205.215 54.1627C209.724 48.6934 215.695 41.763 220.772 35.8077C196.969 60.6892 200.503 54.6933 216.426 35.7296C200.584 52.3719 202.576 48.4559 210.536 37.1164C208.992 38.6666 208.952 38.6666 208.746 38.6666C208.641 38.6677 208.539 38.6349 208.454 38.5732C208.369 38.5114 208.306 38.4239 208.274 38.3235C208.242 38.2231 208.243 38.1151 208.277 38.0154C208.311 37.9157 208.376 37.8296 208.462 37.7696C208.949 37.4024 213.458 32.4667 213.499 32.9566C215.611 32.8785 207.974 42.0529 207.405 43.521C209.68 41.3591 222.638 27.7381 221.866 29.1633C222.722 29.4078 222.476 29.775 221.582 30.9173C217.886 35.6053 212.889 41.6044 208.868 46.6221C210.778 44.7047 213.012 42.4209 215.083 40.2589C226.818 28.2616 226.943 28.2616 227.35 28.2616C227.999 28.3022 227.959 28.9961 227.553 29.3219C222.8 35.0733 216.582 42.2521 211.386 48.4114C246.806 11.9052 228.203 34.7466 213.457 50.8991C253.671 9.74326 230.396 36.9086 213.214 55.7527C215.937 52.979 219.145 49.7162 222.191 46.6158C237.301 31.1978 238.073 30.504 238.56 30.504C238.63 30.5004 238.699 30.5132 238.763 30.5416C238.826 30.57 238.882 30.6131 238.926 30.6673C239.292 31.0345 239.129 31.3197 237.545 33.1551C231.127 40.6191 222.312 50.2866 215.245 58.2811C220.16 53.9166 241.77 30.1774 241.445 32.5839C241.973 33.5629 239.373 35.3967 238.439 36.7851C232.143 43.8414 223.409 53.5494 216.869 60.9728C261.348 15.4118 242.744 37.6008 219.388 63.0941C222.678 59.7899 226.659 55.7113 230.234 52.1219C245.264 36.7851 245.385 36.7851 245.791 36.7851C245.861 36.7815 245.93 36.7944 245.993 36.8228C246.057 36.8511 246.113 36.8942 246.157 36.9484C246.766 38.0501 242.866 41.313 241.364 43.3554C236.205 49.188 228.609 57.5904 222.963 63.913C265.938 19.6568 245.182 44.5789 224.141 67.4618C257.287 32.9543 258.546 34.3411 229.462 66.6023C262.933 32.0542 252.21 45.7181 232.508 67.9485C263.907 35.4803 250.178 52.5712 235.189 69.9472C237.99 67.2125 252.574 52 251.558 53.6314C253.183 54.0393 249.731 56.9763 248.959 58.3194C246.643 61.2564 243.272 65.4577 240.551 68.8025C250.584 58.9312 249.69 58.9312 250.868 59.2578C251.396 60.1954 244.694 65.5389 241.079 69.6589C235.271 75.5321 235.271 75.5321 234.986 75.5321C234.917 75.5319 234.849 75.5173 234.786 75.4892C234.723 75.461 234.666 75.4201 234.62 75.3689C234.295 75.0423 234.417 74.8797 235.148 73.9414C238.439 69.7402 242.826 64.356 246.4 59.8282C236.408 69.9034 229.827 76.919 229.749 76.2252C229.68 76.2288 229.61 76.216 229.547 76.1876C229.483 76.1592 229.427 76.1161 229.383 76.0619C228.977 75.6947 228.977 75.6947 232.877 71.0043C236.371 66.7625 241.529 60.6845 245.388 56.0754C242.829 58.6452 239.823 61.701 237.14 64.4779C225.604 76.5885 225.523 76.5885 225.158 76.5885L225.156 76.5963ZM233.404 51.1437C233.462 51.1992 233.531 51.241 233.607 51.2663C233.524 51.2257 233.483 51.1851 233.402 51.1445L233.404 51.1437ZM191.932 28.832C192.063 28.8351 192.19 28.8778 192.297 28.9546C192.222 28.8846 192.127 28.8395 192.025 28.8255C191.923 28.8115 191.82 28.8293 191.729 28.8765C191.796 28.8659 191.863 28.8513 191.929 28.8328L191.932 28.832Z" fill="#DEA629"/>
</g>
<g opacity="0.8">
<path d="M367.772 182.362C366.96 182.117 367.895 181.424 368.219 180.935C371.671 176.855 376.343 171.512 380.124 167.148C353.357 194.64 368.791 176.652 380.286 163.926C375.819 168.25 366.801 178.202 362.942 181.22C362.292 181.017 362.576 180.731 363.429 179.67C367.775 174.571 374.031 167.76 378.743 162.416C352.38 189.582 358.392 181.506 376.549 161.682C348.071 191.05 360.18 176.325 375.249 159.968C372.974 162.252 370.293 164.945 367.857 167.432C358.149 177.262 358.108 177.262 357.905 177.262C357.377 177.184 357.54 176.732 357.905 176.283C361.805 171.552 366.761 166.167 371.269 161.11C368.02 164.291 358.515 174.407 356.646 175.508C355.79 175.264 356.723 174.571 357.092 174.081C361.479 168.982 367.775 162.089 372.488 156.786C347.75 182.443 352.381 175.671 369.807 156.541C343.974 182.973 355.143 169.839 368.548 154.744C366.477 156.743 353.722 169.958 354.209 169.061C353.354 168.817 354.332 168.082 354.697 167.593C357.702 163.963 361.683 159.354 365.014 155.397C349.297 171.835 351.569 167.879 362.13 155.357C351.65 166.41 352.948 163.759 358.23 156.254C357.011 157.396 357.337 157.396 356.808 157.191C356.483 156.539 357.783 156.008 358.515 155.029C360.058 153.479 360.058 153.479 360.221 153.479C361.521 153.724 356.606 159.353 356.159 160.495C372.367 143.649 365.705 152.256 357.134 162.534C376.713 142.22 370.092 150.827 358.799 163.758C382.197 139.611 369.97 154.703 360.181 165.389C386.624 138.305 371.433 156.091 360.018 168.611C387.274 140.385 377.241 152.989 361.359 170.283C363.958 167.754 379.678 151.48 378.541 153.111C379.313 153.315 378.582 153.927 378.257 154.294C373.545 159.638 367.33 166.49 362.415 172.078C391.743 142.016 379.598 156.619 364.08 173.506C389.874 146.829 384.715 154.129 366.436 174.036C394.749 144.872 381.181 161.229 367.208 176.402C389.143 153.56 389.955 154.539 370.742 175.831C392.799 153.03 385.812 162.044 372.773 176.728C393.489 155.272 384.512 166.531 374.563 178.074C376.43 176.277 386.139 166.12 385.449 167.225C386.993 167.347 378.95 175.871 378.135 177.299C384.797 170.736 384.228 170.736 385 170.976C385.203 171.792 381.019 175.014 378.501 177.911C374.642 181.827 374.642 181.827 374.48 181.827C372.895 181.786 381.345 172.772 382.075 171.426C362.131 192.024 372.936 178.727 381.385 168.938C379.679 170.651 377.688 172.688 375.901 174.526C368.061 182.357 368.021 182.357 367.777 182.357L367.772 182.362ZM404.371 177.916C404.411 177.957 404.448 177.994 404.493 177.994C404.455 177.998 404.411 177.957 404.371 177.916ZM376.79 163.11C376.876 163.117 376.959 163.144 377.033 163.188C376.99 163.135 376.927 163.101 376.859 163.093C376.79 163.085 376.722 163.105 376.668 163.148C376.684 163.132 376.703 163.121 376.725 163.115C376.746 163.108 376.768 163.107 376.79 163.11Z" fill="#DEA629"/>
</g>
</g>
<g opacity="0.5">
<path opacity="0.5" d="M11.0894 129.174C34.7162 115.307 59.574 103.674 85.3426 94.4216C61.7203 108.297 36.8617 119.931 11.0894 129.174Z" fill="#DEA629"/>
<path opacity="0.5" d="M135.752 60.036C159.769 46.933 184.567 35.327 210.005 25.2839C185.996 38.4034 161.197 50.0099 135.752 60.036Z" fill="#DEA629"/>
<path opacity="0.5" d="M360.38 193.947C375.931 185.353 392.039 177.818 408.596 171.391C393.036 179.968 376.929 187.503 360.38 193.947Z" fill="#DEA629"/>
</g>
</g>
<path d="M338.242 173.511V289.433C332.514 286.171 238.684 233.022 235.961 231.473L338.242 173.511Z" fill="url(#paint0_linear_56_541)"/>
<path d="M186.039 231.473C183.765 232.778 89.0384 286.457 83.7583 289.434V173.511L186.039 231.473Z" fill="url(#paint1_linear_56_541)"/>
<path d="M186.039 231.473C183.724 232.819 89.0797 286.457 83.7583 289.475V289.434C89.4858 286.171 183.317 232.982 186.039 231.473Z" fill="url(#paint2_linear_56_541)"/>
<path d="M338.239 289.434C332.471 286.212 238.68 233.063 235.92 231.473H235.961C238.236 232.737 332.961 286.416 338.239 289.434Z" fill="url(#paint3_linear_56_541)"/>
<g opacity="0.2">
<path d="M338.242 173.511V183.872L246.279 237.305L235.961 231.473L338.242 173.511Z" fill="url(#paint4_linear_56_541)"/>
<path d="M186.039 231.473L175.722 237.305L83.7583 183.872V173.511L186.039 231.473Z" fill="url(#paint5_linear_56_541)"/>
</g>
<path d="M338.242 134.354V173.511C328.94 178.732 247.497 224.987 235.961 231.473C235.921 231.551 218.698 221.683 218.698 221.724C208.664 214.872 194.651 227.393 186.04 231.513C174.179 224.783 93.5887 179.059 83.759 173.511V134.354C95.8638 127.46 194.248 71.7428 203.303 66.6032C205.655 65.2793 208.305 64.584 211.001 64.584C213.697 64.584 216.347 65.2793 218.699 66.6032C227.394 71.5388 326.665 127.787 338.242 134.354Z" fill="url(#paint6_linear_56_541)"/>
<path d="M338.242 289.474C338.729 296.776 337.958 304.403 328.899 304.852H93.0596C84.1232 304.403 83.1888 296.816 83.7171 289.474C89.4851 286.211 183.276 233.062 186.036 231.472C212.602 215.891 209.433 215.931 235.917 231.472C238.276 232.818 332.92 286.415 338.242 289.474Z" fill="url(#paint7_linear_56_541)"/>
<path opacity="0.3" d="M186.039 231.473C186.039 231.513 175.803 237.305 175.762 237.347H175.722L186.039 231.473Z" fill="url(#paint8_linear_56_541)"/>
<path opacity="0.3" d="M246.278 237.305C246.238 237.305 235.961 231.513 235.961 231.473H236.001L246.278 237.305Z" fill="url(#paint9_linear_56_541)"/>
<path d="M321.465 145.53V183.015C293.479 198.883 263.907 215.647 235.962 231.473C208.016 215.647 213.946 215.69 186.081 231.473C158.134 215.647 128.563 198.841 100.576 183.015V145.53C100.584 143.881 101.243 142.303 102.408 141.141C103.573 139.979 105.149 139.328 106.791 139.33H315.25C316.892 139.328 318.468 139.979 319.633 141.141C320.798 142.303 321.457 143.881 321.465 145.53Z" fill="#FFE8BE"/>
<g opacity="0.8">
<path d="M185.999 157.441H114.427V164.334H185.999V157.441Z" fill="#FFE8BE"/>
<path d="M307.859 173.512H114.102V176.938H307.859V173.512Z" fill="#FFE8BE"/>
<path d="M307.859 183.709H114.102V187.135H307.859V183.709Z" fill="#FFE8BE"/>
<path d="M302.294 193.906L296.201 197.332H125.799L119.707 193.906H302.294Z" fill="#FFE8BE"/>
<path d="M284.299 204.104L278.206 207.53H143.795L137.702 204.104H284.299Z" fill="#FFE8BE"/>
<path d="M266.305 214.26L260.212 217.727H161.79L155.697 214.26H266.305Z" fill="#FFE8BE"/>
<path d="M173.691 224.499H198.388L192.336 227.925H179.784L173.691 224.499Z" fill="#FFE8BE"/>
<path d="M248.31 224.499L242.217 227.925H229.665L223.613 224.499H248.31Z" fill="#FFE8BE"/>
</g>
<path d="M314.097 310.718C341.814 310.718 364.283 288.155 364.283 260.322C364.283 232.49 341.814 209.927 314.097 209.927C286.379 209.927 263.91 232.49 263.91 260.322C263.91 288.155 286.379 310.718 314.097 310.718Z" fill="white"/>
<path d="M314.097 310.328C341.599 310.328 363.894 287.939 363.894 260.322C363.894 232.705 341.599 210.317 314.097 210.317C286.594 210.317 264.299 232.705 264.299 260.322C264.299 287.939 286.594 310.328 314.097 310.328Z" stroke="#707070"/>
<path fill-rule="evenodd" clip-rule="evenodd" d="M313.588 204.714C324.448 204.716 335.065 207.951 344.094 214.011C353.124 220.071 360.161 228.683 364.316 238.759C368.472 248.835 369.558 259.922 367.439 270.618C365.319 281.314 360.089 291.139 352.409 298.85C344.729 306.561 334.945 311.813 324.293 313.94C313.641 316.067 302.6 314.975 292.566 310.802C282.532 306.628 273.956 299.561 267.922 290.493C261.888 281.426 258.667 270.765 258.667 259.859C258.667 252.617 260.088 245.446 262.848 238.755C265.608 232.065 269.654 225.985 274.754 220.865C279.854 215.744 285.908 211.682 292.571 208.911C299.234 206.14 306.376 204.714 313.588 204.714ZM336.799 246.299L323.305 259.85L336.807 273.4L327.09 283.162L313.592 269.602L300.081 283.166L290.373 273.418L303.88 259.854L290.373 246.294L300.094 236.533L313.598 250.096L327.087 236.547L336.799 246.299Z" fill="#D33E45"/>
</g>
<defs>
<linearGradient id="paint0_linear_56_541" x1="287.101" y1="242.369" x2="287.101" y2="168.063" gradientUnits="userSpaceOnUse">
<stop stop-color="#FFD05D"/>
<stop offset="1" stop-color="#FCB316"/>
</linearGradient>
<linearGradient id="paint1_linear_56_541" x1="134.899" y1="242.37" x2="134.899" y2="168.063" gradientUnits="userSpaceOnUse">
<stop stop-color="#FFD05D"/>
<stop offset="1" stop-color="#FCB316"/>
</linearGradient>
<linearGradient id="paint2_linear_56_541" x1="134.899" y1="315.228" x2="134.899" y2="240.579" gradientUnits="userSpaceOnUse">
<stop stop-color="#FFD05D"/>
<stop offset="1" stop-color="#FCB430"/>
</linearGradient>
<linearGradient id="paint3_linear_56_541" x1="287.08" y1="315.227" x2="287.08" y2="240.573" gradientUnits="userSpaceOnUse">
<stop stop-color="#FFD05D"/>
<stop offset="1" stop-color="#FCB430"/>
</linearGradient>
<linearGradient id="paint4_linear_56_541" x1="287.102" y1="265.63" x2="287.102" y2="183.527" gradientUnits="userSpaceOnUse">
<stop stop-color="#FFD05D"/>
<stop offset="1" stop-color="#FCB316"/>
</linearGradient>
<linearGradient id="paint5_linear_56_541" x1="134.899" y1="265.63" x2="134.899" y2="183.527" gradientUnits="userSpaceOnUse">
<stop stop-color="#FFD05D"/>
<stop offset="1" stop-color="#FCB316"/>
</linearGradient>
<linearGradient id="paint6_linear_56_541" x1="211.255" y1="139.201" x2="208.736" y2="383.12" gradientUnits="userSpaceOnUse">
<stop stop-color="#FFD05D"/>
<stop offset="1" stop-color="#FCB316"/>
</linearGradient>
<linearGradient id="paint7_linear_56_541" x1="208.938" y1="192.415" x2="209.165" y2="290.737" gradientUnits="userSpaceOnUse">
<stop stop-color="#FFD05D"/>
<stop offset="1" stop-color="#FCB316"/>
</linearGradient>
<linearGradient id="paint8_linear_56_541" x1="180.88" y1="231.461" x2="180.88" y2="237.317" gradientUnits="userSpaceOnUse">
<stop stop-color="#FFD05D"/>
<stop offset="1" stop-color="#FCB316"/>
</linearGradient>
<linearGradient id="paint9_linear_56_541" x1="241.109" y1="231.461" x2="241.109" y2="237.317" gradientUnits="userSpaceOnUse">
<stop stop-color="#FFD05D"/>
<stop offset="1" stop-color="#FCB316"/>
</linearGradient>
<clipPath id="clip0_56_541">
<rect width="422" height="315" fill="white"/>
</clipPath>
</defs>
</svg>
