<svg width="326" height="243" viewBox="0 0 326 243" fill="none" xmlns="http://www.w3.org/2000/svg">
<g clip-path="url(#clip0_56_541)">
<g opacity="0.5">
<path opacity="0.5" d="M292.55 235.549C299.516 241.464 26.4837 241.464 33.419 235.549C26.4843 229.633 299.518 229.633 292.55 235.549Z" fill="#FFD86D"/>
<g opacity="0.3">
<path opacity="0.8" d="M282.163 116.734C279.496 272.396 46.5378 272.362 43.8997 116.734C46.5354 -38.9274 279.525 -38.896 282.163 116.734Z" fill="#FFD86D"/>
<path opacity="0.6" d="M139.607 165.601C138.038 256.82 1.53757 256.789 0 165.601C1.56883 74.3807 138.069 74.4121 139.607 165.601Z" fill="#FFD86D"/>
<path opacity="0.6" d="M186.393 165.601C187.962 256.82 324.462 256.789 326 165.601C324.431 74.3807 187.931 74.4121 186.393 165.601Z" fill="#FFD86D"/>
<path opacity="0.5" d="M230.356 94.9595C231.423 157.451 324.967 157.451 326 94.9595C324.934 32.4679 231.392 32.4679 230.356 94.9595Z" fill="#FFD86D"/>
<path opacity="0.5" d="M95.6446 94.9595C94.5776 157.451 1.06692 157.419 0 94.9595C1.06692 32.4679 94.5776 32.4679 95.6446 94.9595Z" fill="#FFD86D"/>
</g>
</g>
<g opacity="0.8">
<g opacity="0.5">
<g opacity="0.8">
<path d="M41.452 150.277C40.1657 149.899 41.6089 148.798 42.142 148.043C47.6023 141.594 55.0052 133.159 60.9698 126.237C58.8059 128.439 56.3883 130.862 54.0976 133.191C38.345 149.207 38.1881 149.207 37.7806 149.207C37.0905 149.175 37.1843 148.42 37.5924 148.042C44.4959 139.924 53.9726 129.509 61.2523 121.108C54.8808 127.557 46.0647 136.62 40.0088 142.725C33.8272 148.64 34.5485 148.64 33.3878 148.294C32.9797 147.885 33.2622 147.539 34.5173 146.029C41.4207 137.942 51.3368 127.212 58.8047 118.716C52.7169 124.726 29.0258 149.175 30.8771 146.502C30.7368 146.497 30.6031 146.441 30.5008 146.345C30.0927 145.936 30.3439 145.652 31.7246 143.985C38.5025 136.119 47.9479 125.829 55.3533 117.525C52.9369 119.979 50.2699 122.686 47.6966 125.297C29.8102 143.484 28.8064 144.366 28.2726 144.366C27.2369 143.988 27.6451 143.674 29.1514 141.817C36.0861 133.793 45.7509 123.252 53.2819 114.787C49.7049 118.374 45.4372 122.683 41.6089 126.556C26.2331 142.069 26.2019 142.069 25.825 142.069C25.6847 142.064 25.551 142.008 25.4487 141.911C24.9155 140.905 26.5781 139.897 27.3 138.733C32.9797 132.062 40.4794 123.785 46.9747 116.518C41.8283 121.521 26.7975 137.538 23.8168 139.302C23.6765 139.297 23.5427 139.241 23.4405 139.145C22.9386 138.327 24.0055 137.855 24.5074 137.035C31.4734 128.98 41.452 118.093 48.8579 109.691C45.9397 112.649 42.4864 116.173 39.2244 119.509C23.3149 135.74 22.4361 136.463 21.9678 136.463C20.9322 136.117 21.3403 135.74 22.7522 134.04C29.0594 126.677 37.7517 117.111 44.6239 109.308C41.925 112.014 38.8499 115.098 35.9316 118.055C20.6184 133.505 20.5559 133.505 20.179 133.505C19.3315 133.253 19.489 132.907 20.4928 131.774C27.0199 124.223 35.9316 114.279 42.6127 106.507C39.3181 109.654 19.1409 130.547 19.8917 129.131C19.7514 129.126 19.6176 129.07 19.5154 128.974C19.0135 128.187 20.1429 127.588 20.6448 126.772C25.3832 121.014 31.6904 113.745 37.025 107.451C35.2993 109.214 33.4479 111.068 31.7535 112.801C19.4529 125.009 20.393 124.976 19.1079 124.663C18.4803 123.782 21.0848 121.611 22.0261 120.132C24.9113 116.545 29.179 111.353 32.4129 107.354C15.6895 124.884 17.8233 120.793 26.2355 108.804C24.6036 110.441 24.5723 110.441 24.3529 110.441C24.2423 110.442 24.1344 110.406 24.0454 110.34C23.9564 110.274 23.8911 110.181 23.8593 110.075C23.8275 109.969 23.8309 109.855 23.8689 109.751C23.907 109.647 23.9777 109.558 24.0704 109.497C24.3217 109.277 25.6705 107.892 26.7062 106.885C29.1225 104.431 29.1225 104.431 29.3732 104.431C30.7226 104.84 28.9969 106.287 28.4944 107.324C26.9568 109.621 24.6348 113.019 22.9404 115.536C25.3567 113.271 38.9755 98.9538 38.1592 100.433C39.038 100.685 38.8204 101.062 37.8455 102.289C33.9547 107.232 28.7138 113.523 24.4467 118.809C26.4549 116.795 28.7745 114.403 31.0051 112.138C43.3664 99.5222 43.4915 99.5222 43.8996 99.5222C44.5608 99.5536 44.5271 100.309 44.119 100.655C39.13 106.727 32.5716 114.248 27.08 120.73C64.5781 82.1542 44.7465 106.35 29.2764 123.341C31.1903 121.422 33.2303 119.377 35.1755 117.394C51.775 100.654 51.8381 100.654 52.2463 100.654C53.2819 101 52.8425 101.377 51.4306 103.109C44.999 110.66 36.0236 120.509 29.0258 128.439C31.911 125.546 35.2704 122.083 38.4712 118.842C54.3494 102.637 55.1964 101.913 55.6983 101.913C56.7652 102.323 56.3889 102.543 54.6314 104.682C47.8848 112.549 38.5962 122.712 31.1596 131.082C35.2392 127.118 60.1854 101.379 58.3653 103.928C58.5056 103.933 58.6393 103.989 58.7416 104.085C59.2122 104.808 58.3334 105.186 57.9259 105.815C50.4893 114.28 40.6044 125.136 32.8541 133.946C35.2704 131.492 38.0631 128.691 40.8244 125.891C60.9385 105.91 59.999 105.94 61.3154 106.288C61.7236 106.697 61.4723 107.011 60.0291 108.711C52.9688 116.861 43.1158 127.622 35.4904 136.212C38.9737 132.719 43.147 128.472 46.881 124.664C62.7274 108.554 62.8217 108.554 63.2611 108.554C63.4014 108.559 63.5352 108.615 63.6374 108.711C64.0455 109.12 63.763 109.466 62.3511 111.134C55.6983 118.874 46.5666 128.815 39.2244 137.061C41.4838 134.764 43.9627 132.278 46.3172 129.855C63.858 112.045 64.7704 111.259 65.2387 111.259C66.3056 111.636 65.835 112.045 64.3287 113.87C57.4877 121.894 47.886 132.341 40.4488 140.774C46.9759 134.292 68.6901 111.605 67.4375 113.902C67.5778 113.907 67.7115 113.963 67.8137 114.059C68.2219 114.468 68.0331 114.751 66.3387 116.765C60.4709 123.719 52.7199 132.31 46.0364 139.893C53.7243 132.246 68.975 116.262 68.3469 117.772C69.0682 117.867 68.9744 118.527 68.5038 118.999C62.8536 125.796 55.5126 134.071 49.2691 141.34C50.6516 139.954 52.0617 138.476 53.4767 137.092C68.4761 121.736 69.9193 120.415 69.1049 123.152C64.1471 129.288 57.5574 136.966 52.1284 143.479C55.078 140.615 70.4537 124.599 69.3555 126.33C69.4958 126.335 69.6296 126.391 69.7318 126.487C70.2025 127.179 69.3237 127.652 68.9474 128.343C65.7154 132.497 61.5108 137.686 57.8075 142.314C68.0373 131.962 68.9474 130.862 68.6649 133C67.7548 133.663 62.4833 139.042 58.3413 143.226C52.2222 149.394 52.2535 149.394 51.9397 149.394C51.124 149.142 51.2184 148.859 52.1278 147.757C55.5799 143.352 60.1926 137.688 63.989 132.937C63.0477 133.881 62.0752 134.857 61.1038 135.863C47.0457 150.054 46.8888 150.054 46.4813 150.054C46.341 150.049 46.2072 149.993 46.105 149.897C45.6968 149.488 45.6968 149.488 49.7764 144.579C53.4791 140.142 58.8762 133.755 62.9558 128.878C60.2888 131.584 57.1192 134.793 54.2635 137.688C41.9316 150.274 41.8373 150.274 41.4604 150.274L41.452 150.277ZM60.9073 139.358C60.9686 139.418 61.0441 139.461 61.1267 139.484C61.0472 139.454 60.9732 139.412 60.9073 139.358ZM17.2583 115.917C17.3973 115.928 17.5292 115.983 17.6346 116.074C17.5599 115.994 17.4606 115.941 17.3527 115.924C17.2447 115.907 17.1341 115.927 17.0383 115.979C17.1006 115.93 17.1796 115.908 17.2583 115.917Z" fill="#DEA629"/>
</g>
<g opacity="0.8">
<path d="M173.936 59.0885C172.994 58.8053 174.061 57.9873 174.438 57.4521C178.454 52.7007 183.883 46.5334 188.245 41.4361C186.644 43.0406 184.887 44.8343 183.195 46.5334C171.617 58.27 171.522 58.27 171.209 58.27C170.707 58.2387 170.769 57.6721 171.052 57.4202C176.101 51.4416 183.07 43.8271 188.404 37.6599C183.195 42.6626 172.746 54.2112 168.227 57.7034C167.474 57.4515 167.788 57.1369 168.792 55.9416C173.876 50.0263 181.124 42.128 186.616 35.8981C182.16 40.3035 164.776 58.27 166.125 56.2882C166.071 56.291 166.017 56.2811 165.968 56.2592C165.919 56.2373 165.876 56.2041 165.842 56.1622C165.34 55.3757 168.29 52.9213 169.389 51.4108C173.499 46.754 179.65 39.9889 184.074 35.0163C150.654 69.4087 164.996 52.0708 182.568 33.0025C179.932 35.6455 176.794 38.7924 174.001 41.6555C162.736 53.0473 162.704 53.0473 162.423 53.0473C162.369 53.0471 162.317 53.0358 162.268 53.0141C162.219 52.9924 162.176 52.9608 162.14 52.9213C161.764 52.1347 162.956 51.4747 163.489 50.5929C167.663 45.7155 173.154 39.6116 177.924 34.2936C174.158 37.9751 163.113 49.7117 160.916 51.0022C159.944 50.7189 161.042 49.901 161.418 49.3344C166.533 43.4191 173.844 35.4267 179.305 29.2589C150.341 59.2459 155.833 51.3192 176.167 28.9756C145.949 59.8438 159.096 44.457 174.692 26.8991C172.276 29.1962 157.465 44.5516 157.998 43.5131C157.945 43.5129 157.892 43.5016 157.844 43.4799C157.795 43.4582 157.751 43.4266 157.715 43.3871C157.339 42.7892 158.186 42.3799 158.531 41.7826C162.014 37.5634 166.627 32.2171 170.549 27.623C152.161 46.8173 154.891 42.1919 167.192 27.5628C154.953 40.4011 156.492 37.3802 162.641 28.6326C161.449 29.8285 161.418 29.8285 161.259 29.8285C161.178 29.8293 161.099 29.804 161.033 29.7564C160.967 29.7088 160.919 29.6413 160.894 29.5638C160.87 29.4864 160.87 29.4031 160.897 29.3261C160.923 29.2492 160.973 29.1828 161.039 29.1365C161.416 28.8532 164.899 25.0457 164.93 25.4236C166.562 25.3634 160.663 32.4407 160.223 33.5733C161.98 31.9055 171.991 21.3979 171.394 22.4973C172.056 22.686 171.865 22.9693 171.175 23.8505C168.319 27.4669 164.46 32.0948 161.353 35.9656C162.828 34.4864 164.554 32.7246 166.154 31.0569C175.22 21.8018 175.316 21.8018 175.63 21.8018C176.132 21.8331 176.101 22.3683 175.787 22.6197C172.116 27.0565 167.312 32.5944 163.298 37.3459C190.661 9.18397 176.29 26.8045 164.898 39.265C195.964 7.51618 177.983 28.4723 164.71 43.0092C166.814 40.8695 169.292 38.3524 171.645 35.9608C183.318 24.0669 183.914 23.5316 184.291 23.5316C184.344 23.5288 184.398 23.5387 184.447 23.5606C184.496 23.5825 184.539 23.6158 184.573 23.6576C184.856 23.9409 184.73 24.1609 183.506 25.5767C178.548 31.3347 171.739 38.7924 166.279 44.9597C170.076 41.5928 186.77 23.2797 186.519 25.1361C186.927 25.8914 184.919 27.306 184.197 28.3771C179.333 33.8204 172.586 41.3095 167.534 47.0361C201.895 11.8891 187.523 29.0063 169.48 48.6726C172.021 46.1236 175.097 42.9773 177.858 40.2083C189.469 28.3771 189.563 28.3771 189.876 28.3771C189.93 28.3742 189.984 28.3842 190.033 28.4061C190.082 28.428 190.125 28.4612 190.159 28.503C190.63 29.3529 187.617 31.8699 186.456 33.4455C182.471 37.945 176.603 44.4269 172.241 49.3042C205.44 15.1638 189.406 34.3894 173.151 52.0419C198.758 25.4218 199.729 26.4917 177.262 51.3789C203.119 24.7275 194.835 35.2682 179.615 52.4174C203.872 27.3705 193.265 40.5549 181.686 53.9592C183.85 51.8496 195.117 40.1142 194.332 41.3728C195.587 41.6874 192.92 43.9531 192.324 44.9892C190.535 47.2549 187.93 50.4959 185.828 53.0762C193.579 45.4612 192.889 45.4612 193.799 45.7131C194.207 46.4364 189.029 50.5585 186.236 53.7368C181.749 58.2676 181.749 58.2676 181.529 58.2676C181.476 58.2674 181.423 58.2561 181.375 58.2344C181.326 58.2128 181.283 58.1812 181.247 58.1416C180.995 57.8897 181.09 57.7643 181.655 57.0404C184.197 53.7995 187.586 49.646 190.347 46.1531C182.628 53.9255 177.544 59.3375 177.484 58.8022C177.43 58.8051 177.377 58.7951 177.328 58.7732C177.279 58.7513 177.235 58.7181 177.201 58.6763C176.888 58.393 176.888 58.393 179.9 54.7747C182.599 51.5025 186.584 46.8137 189.565 43.2581C187.588 45.2406 185.266 47.5979 183.194 49.74C174.282 59.0825 174.219 59.0825 173.937 59.0825L173.936 59.0885ZM180.307 39.4536C180.352 39.4965 180.405 39.5288 180.464 39.5483C180.4 39.5169 180.369 39.4856 180.306 39.4543L180.307 39.4536ZM148.269 22.2418C148.371 22.2442 148.469 22.2771 148.552 22.3364C148.494 22.2823 148.42 22.2476 148.342 22.2368C148.263 22.226 148.183 22.2397 148.113 22.2761C148.165 22.2679 148.217 22.2566 148.268 22.2424L148.269 22.2418Z" fill="#DEA629"/>
</g>
<g opacity="0.8">
<path d="M284.109 140.679C283.481 140.49 284.203 139.956 284.454 139.578C287.121 136.431 290.73 132.309 293.65 128.943C272.973 150.151 284.895 136.274 293.776 126.457C290.324 129.792 283.358 137.47 280.377 139.799C279.875 139.641 280.095 139.421 280.753 138.603C284.111 134.669 288.943 129.415 292.583 125.292C272.218 146.249 276.863 140.019 290.889 124.726C268.889 147.381 278.243 136.022 289.884 123.404C288.127 125.166 286.056 127.243 284.174 129.162C276.674 136.745 276.643 136.745 276.486 136.745C276.078 136.685 276.204 136.336 276.486 135.99C279.499 132.34 283.327 128.186 286.81 124.285C284.3 126.739 276.957 134.543 275.513 135.392C274.852 135.203 275.573 134.669 275.858 134.291C279.247 130.357 284.111 125.04 287.751 120.949C268.641 140.741 272.219 135.518 285.68 120.76C265.724 141.15 274.352 131.018 284.708 119.374C283.108 120.916 273.254 131.111 273.631 130.419C272.97 130.23 273.726 129.663 274.007 129.286C276.329 126.486 279.405 122.93 281.978 119.878C269.836 132.558 271.591 129.507 279.75 119.847C271.654 128.374 272.657 126.328 276.737 120.539C275.796 121.42 276.047 121.42 275.639 121.262C275.388 120.759 276.392 120.349 276.957 119.594C278.15 118.398 278.15 118.398 278.275 118.398C279.28 118.587 275.483 122.929 275.137 123.81C287.658 110.815 282.512 117.454 275.891 125.383C291.016 109.712 285.9 116.353 277.177 126.327C295.252 107.7 285.806 119.342 278.244 127.586C298.672 106.692 286.936 120.413 278.118 130.072C299.174 108.297 291.423 118.02 279.154 131.361C281.162 129.41 293.306 116.856 292.428 118.114C293.024 118.272 292.459 118.744 292.208 119.027C288.568 123.149 283.767 128.435 279.97 132.746C302.626 109.555 293.244 120.82 281.257 133.847C301.182 113.268 297.197 118.899 283.077 134.256C304.948 111.758 294.467 124.376 283.673 136.081C300.617 118.46 301.245 119.216 286.403 135.641C303.442 118.052 298.045 125.005 287.972 136.333C303.975 119.782 297.04 128.466 289.354 137.371C290.797 135.985 298.297 128.149 297.764 129.002C298.957 129.096 292.743 135.672 292.114 136.773C297.26 131.71 296.821 131.71 297.417 131.896C297.574 132.525 294.342 135.011 292.396 137.245C289.416 140.266 289.416 140.266 289.29 140.266C288.066 140.235 294.593 133.281 295.158 132.243C279.751 148.133 288.097 137.875 294.625 130.323C293.306 131.645 291.769 133.217 290.388 134.634C284.332 140.676 284.3 140.676 284.112 140.676L284.109 140.679ZM312.381 137.25C312.413 137.281 312.441 137.31 312.476 137.31C312.447 137.312 312.413 137.281 312.381 137.25ZM291.075 125.828C291.141 125.833 291.205 125.854 291.263 125.888C291.229 125.847 291.181 125.82 291.128 125.814C291.075 125.809 291.022 125.824 290.98 125.857C290.993 125.845 291.008 125.836 291.024 125.831C291.041 125.826 291.058 125.825 291.075 125.828Z" fill="#DEA629"/>
</g>
</g>
<g opacity="0.5">
<path opacity="0.5" d="M8.56665 99.6483C26.8187 88.9515 46.0216 79.9768 65.9281 72.8396C47.6796 83.5432 28.4761 92.5182 8.56665 99.6483Z" fill="#DEA629"/>
<path opacity="0.5" d="M104.87 46.3135C123.424 36.2055 142.581 27.2523 162.232 19.5048C143.684 29.6255 124.527 38.579 104.87 46.3135Z" fill="#DEA629"/>
<path opacity="0.5" d="M278.398 149.616C290.411 142.987 302.855 137.174 315.645 132.216C303.625 138.832 291.182 144.645 278.398 149.616Z" fill="#DEA629"/>
</g>
</g>
<path d="M261.296 133.851V223.277C256.871 220.76 184.386 179.76 182.282 178.564L261.296 133.851Z" fill="url(#paint0_linear_56_541)"/>
<path d="M143.718 178.564C141.961 179.572 68.7833 220.981 64.7043 223.278V133.851L143.718 178.564Z" fill="url(#paint1_linear_56_541)"/>
<path d="M143.718 178.564C141.929 179.603 68.8152 220.981 64.7043 223.309V223.278C69.1289 220.76 141.615 179.729 143.718 178.564Z" fill="url(#paint2_linear_56_541)"/>
<path d="M261.294 223.278C256.838 220.792 184.383 179.792 182.251 178.564H182.282C184.04 179.54 257.217 220.949 261.294 223.278Z" fill="url(#paint3_linear_56_541)"/>
<g opacity="0.2">
<path d="M261.296 133.851V141.844L190.254 183.064L182.283 178.564L261.296 133.851Z" fill="url(#paint4_linear_56_541)"/>
<path d="M143.718 178.564L135.747 183.064L64.7043 141.844V133.851L143.718 178.564Z" fill="url(#paint5_linear_56_541)"/>
</g>
<path d="M261.296 103.644V133.851C254.11 137.879 191.195 173.561 182.283 178.564C182.252 178.625 168.947 171.013 168.947 171.044C161.196 165.758 150.37 175.418 143.718 178.596C134.555 173.404 72.2983 138.131 64.7048 133.851V103.644C74.0559 98.3264 150.059 55.3443 157.054 51.3794C158.871 50.3581 160.918 49.8218 163.001 49.8218C165.083 49.8218 167.131 50.3581 168.947 51.3794C175.664 55.187 252.353 98.5783 261.296 103.644Z" fill="url(#paint6_linear_56_541)"/>
<path d="M261.296 223.308C261.672 228.941 261.076 234.825 254.078 235.171H71.8896C64.9862 234.825 64.2643 228.972 64.6724 223.308C69.1283 220.791 141.583 179.791 143.715 178.564C164.237 166.544 161.79 166.575 182.249 178.564C184.071 179.602 257.185 220.949 261.296 223.308Z" fill="url(#paint7_linear_56_541)"/>
<path opacity="0.3" d="M143.717 178.564C143.717 178.596 135.81 183.064 135.778 183.096H135.747L143.717 178.564Z" fill="url(#paint8_linear_56_541)"/>
<path opacity="0.3" d="M190.253 183.064C190.222 183.064 182.282 178.596 182.282 178.564H182.314L190.253 183.064Z" fill="url(#paint9_linear_56_541)"/>
<path d="M248.336 112.266V141.183C226.716 153.424 203.871 166.356 182.284 178.564C160.694 166.356 165.276 166.389 143.75 178.564C122.161 166.356 99.3165 153.392 77.696 141.183V112.266C77.7026 110.994 78.2115 109.777 79.1113 108.88C80.0111 107.984 81.2285 107.481 82.4969 107.483H243.534C244.803 107.481 246.02 107.983 246.92 108.88C247.82 109.776 248.329 110.994 248.336 112.266Z" fill="#FFE8BE"/>
<g opacity="0.8">
<path d="M143.686 121.454H88.396V126.772H143.686V121.454Z" fill="#FFE8BE"/>
<path d="M237.824 133.852H88.1448V136.495H237.824V133.852Z" fill="#FFE8BE"/>
<path d="M237.824 141.718H88.1448V144.361H237.824V141.718Z" fill="#FFE8BE"/>
<path d="M233.526 149.584L228.819 152.227H97.181L92.4751 149.584H233.526Z" fill="#FFE8BE"/>
<path d="M219.624 157.452L214.917 160.095H111.083L106.376 157.452H219.624Z" fill="#FFE8BE"/>
<path d="M205.724 165.286L201.016 167.96H124.985L120.278 165.286H205.724Z" fill="#FFE8BE"/>
<path d="M134.178 173.184H153.257L148.581 175.827H138.885L134.178 173.184Z" fill="#FFE8BE"/>
<path d="M191.822 173.184L187.115 175.827H177.419L172.744 173.184H191.822Z" fill="#FFE8BE"/>
</g>
<path d="M242.643 239.697C264.055 239.697 281.413 222.291 281.413 200.82C281.413 179.349 264.055 161.943 242.643 161.943C221.231 161.943 203.873 179.349 203.873 200.82C203.873 222.291 221.231 239.697 242.643 239.697Z" fill="white"/>
<path d="M242.643 239.396C263.889 239.396 281.113 222.125 281.113 200.82C281.113 179.515 263.889 162.245 242.643 162.245C221.397 162.245 204.174 179.515 204.174 200.82C204.174 222.125 221.397 239.396 242.643 239.396Z" stroke="#707070"/>
<path fill-rule="evenodd" clip-rule="evenodd" d="M242.25 157.922C250.64 157.923 258.841 160.419 265.817 165.094C272.792 169.769 278.229 176.413 281.439 184.185C284.649 191.958 285.488 200.511 283.851 208.762C282.213 217.014 278.173 224.593 272.24 230.541C266.307 236.49 258.749 240.541 250.52 242.182C242.291 243.823 233.762 242.981 226.011 239.761C218.26 236.542 211.634 231.09 206.973 224.095C202.312 217.1 199.824 208.876 199.823 200.463C199.823 194.876 200.921 189.344 203.053 184.183C205.185 179.021 208.311 174.331 212.25 170.381C216.19 166.431 220.867 163.298 226.015 161.16C231.162 159.022 236.679 157.922 242.25 157.922ZM260.181 190.002L249.757 200.455L260.187 210.908L252.681 218.439L242.254 207.979L231.816 218.442L224.316 210.923L234.751 200.459L224.316 189.998L231.826 182.468L242.258 192.931L252.678 182.479L260.181 190.002Z" fill="#D33E45"/>
</g>
<defs>
<linearGradient id="paint0_linear_56_541" x1="221.789" y1="186.97" x2="221.789" y2="129.648" gradientUnits="userSpaceOnUse">
<stop stop-color="#FFD05D"/>
<stop offset="1" stop-color="#FCB316"/>
</linearGradient>
<linearGradient id="paint1_linear_56_541" x1="104.211" y1="186.971" x2="104.211" y2="129.648" gradientUnits="userSpaceOnUse">
<stop stop-color="#FFD05D"/>
<stop offset="1" stop-color="#FCB316"/>
</linearGradient>
<linearGradient id="paint2_linear_56_541" x1="104.211" y1="243.176" x2="104.211" y2="185.589" gradientUnits="userSpaceOnUse">
<stop stop-color="#FFD05D"/>
<stop offset="1" stop-color="#FCB430"/>
</linearGradient>
<linearGradient id="paint3_linear_56_541" x1="221.773" y1="243.175" x2="221.773" y2="185.584" gradientUnits="userSpaceOnUse">
<stop stop-color="#FFD05D"/>
<stop offset="1" stop-color="#FCB430"/>
</linearGradient>
<linearGradient id="paint4_linear_56_541" x1="221.79" y1="204.914" x2="221.79" y2="141.578" gradientUnits="userSpaceOnUse">
<stop stop-color="#FFD05D"/>
<stop offset="1" stop-color="#FCB316"/>
</linearGradient>
<linearGradient id="paint5_linear_56_541" x1="104.211" y1="204.914" x2="104.211" y2="141.578" gradientUnits="userSpaceOnUse">
<stop stop-color="#FFD05D"/>
<stop offset="1" stop-color="#FCB316"/>
</linearGradient>
<linearGradient id="paint6_linear_56_541" x1="163.197" y1="107.384" x2="161.257" y2="295.549" gradientUnits="userSpaceOnUse">
<stop stop-color="#FFD05D"/>
<stop offset="1" stop-color="#FCB316"/>
</linearGradient>
<linearGradient id="paint7_linear_56_541" x1="161.407" y1="148.434" x2="161.582" y2="224.283" gradientUnits="userSpaceOnUse">
<stop stop-color="#FFD05D"/>
<stop offset="1" stop-color="#FCB316"/>
</linearGradient>
<linearGradient id="paint8_linear_56_541" x1="139.732" y1="178.555" x2="139.732" y2="183.073" gradientUnits="userSpaceOnUse">
<stop stop-color="#FFD05D"/>
<stop offset="1" stop-color="#FCB316"/>
</linearGradient>
<linearGradient id="paint9_linear_56_541" x1="186.26" y1="178.555" x2="186.26" y2="183.073" gradientUnits="userSpaceOnUse">
<stop stop-color="#FFD05D"/>
<stop offset="1" stop-color="#FCB316"/>
</linearGradient>
<clipPath id="clip0_56_541">
<rect width="326" height="243" fill="white"/>
</clipPath>
</defs>
</svg>
