<svg xmlns="http://www.w3.org/2000/svg" width="30" height="30" viewBox="0 0 30 30">
  <g id="time" transform="translate(-2 -2)">
    <path id="Path_27699" data-name="Path 27699" d="M17,4.143A13.929,13.929,0,1,0,30.929,18.071,13.9,13.9,0,0,0,17,4.143Zm0,25.821A11.893,11.893,0,1,1,28.893,18.071,11.935,11.935,0,0,1,17,29.964ZM3.821,8.107,8.107,3.821a1.036,1.036,0,0,0,0-1.5,1.036,1.036,0,0,0-1.5,0L2.321,6.607a1.036,1.036,0,0,0,0,1.5.973.973,0,0,0,.75.321.973.973,0,0,0,.75-.321Zm27.857-1.5L27.393,2.321a1.036,1.036,0,0,0-1.5,0,1.036,1.036,0,0,0,0,1.5l4.286,4.286a1.036,1.036,0,0,0,1.5,0,1.036,1.036,0,0,0,0-1.5Z" transform="translate(0)" fill="#00cec9"/>
    <path id="Path_27700" data-name="Path 27700" d="M25.107,18.714H25a1.077,1.077,0,0,1,0-2.143h1.286A9.788,9.788,0,0,0,17.714,8V9.286a1.077,1.077,0,0,1-2.143,0V8A9.788,9.788,0,0,0,7,16.571H8.286a1.077,1.077,0,0,1,0,2.143H7a9.788,9.788,0,0,0,8.571,8.571V26a1.077,1.077,0,0,1,2.143,0v1.286a9.788,9.788,0,0,0,8.571-8.571Zm-4.179,0H16.643a1.152,1.152,0,0,1-1.071-1.071V12.286a1.071,1.071,0,1,1,2.143,0v4.286h3.214a1.071,1.071,0,1,1,0,2.143Z" transform="translate(0.357 0.429)" fill="#00cec9"/>
  </g>
</svg>
