<svg xmlns="http://www.w3.org/2000/svg" width="17.873" height="20" viewBox="0 0 17.873 20">
  <g id="pdf-file" transform="translate(-11.58 -9.15)">
    <path id="Path_27710" data-name="Path 27710" d="M18.827,10.052v4.284a.438.438,0,0,1-.438.438H15.326Zm-6.81,16.324a.438.438,0,0,1-.438-.438V21.561a.438.438,0,0,1,.438-.438H23.974a.438.438,0,0,1,.438.438v4.376a.438.438,0,0,1-.438.438Zm17.435,2.337a.438.438,0,0,1-.438.438H15.326a.438.438,0,0,1-.438-.438V27.251h9.085a1.313,1.313,0,0,0,1.313-1.313V21.561a1.313,1.313,0,0,0-1.313-1.313H14.889v-4.6h3.5A1.313,1.313,0,0,0,19.7,14.336V9.15h9.313a.438.438,0,0,1,.438.438Z" fill="#5e666c"/>
    <path id="Path_27711" data-name="Path 27711" d="M19.761,41.176v.945H19v-2.6h1.05a1.436,1.436,0,0,1,.6.1.748.748,0,0,1,.328.289.832.832,0,0,1,.118.438.77.77,0,0,1-.245.6.932.932,0,0,1-.661.228Zm0-.556h.254c.223,0,.333-.088.333-.258s-.1-.245-.306-.245h-.28Zm1.619,1.5v-2.6h.958a1.12,1.12,0,0,1,.932.385,1.383,1.383,0,0,1,.311.9,1.313,1.313,0,0,1-.333.945,1.116,1.116,0,0,1-.875.368Zm.761-.6h.2a.372.372,0,0,0,.319-.193.945.945,0,0,0,.127-.521,1.024,1.024,0,0,0-.114-.49.363.363,0,0,0-.333-.2h-.2Zm3.309-.372h-.805v.972h-.74v-2.6H25.7v.617h-1.05v.438h.805Z" transform="translate(-4.173 -17.081)" fill="#fff"/>
  </g>
</svg>
