<svg xmlns="http://www.w3.org/2000/svg" xmlns:xlink="http://www.w3.org/1999/xlink" width="44" height="44" viewBox="0 0 44 44">
  <defs>
    <linearGradient id="linear-gradient" x1="0.5" x2="0.5" y2="1" gradientUnits="objectBoundingBox">
      <stop offset="0" stop-color="#9c6bff"/>
      <stop offset="1" stop-color="#7d3cff"/>
    </linearGradient>
  </defs>
  <g id="Group_62645" data-name="Group 62645" transform="translate(-342 -648)">
    <rect id="Rectangle_2465" data-name="Rectangle 2465" width="44" height="44" rx="10" transform="translate(342 648)" fill="url(#linear-gradient)"/>
    <g id="Group_69266" data-name="Group 69266">
      <path id="price" d="M19.412.405A.606.606,0,0,0,18.27.8c.93,2.673-.916,4.67-2.324,5.739l-.569-.815a1.328,1.328,0,0,0-.951-.5l-3.192.014a2.165,2.165,0,0,0-1.1.338L.73,12.172a1.011,1.011,0,0,0-.247,1.406l4.274,6.116c.32.456.832.4,1.289.082l9.406-6.6a2.217,2.217,0,0,0,.693-.919l1-3.149A1.33,1.33,0,0,0,17,8.044l-.346-.5C18.539,6.1,20.5,3.538,19.412.405Zm-4.377,9.37a1.613,1.613,0,1,1,.023-2.628c-.272.164-.46.26-.495.275a.606.606,0,1,0,.517,1.1c.194-.092.4-.2.62-.33A1.617,1.617,0,0,1,15.036,9.775Z" transform="translate(353.699 659.975)" fill="#fff"/>
      <path id="Path_88732" data-name="Path 88732" d="M11.856,12.108a.448.448,0,0,0,.9,0v-.233a1.272,1.272,0,0,0,1.082-1.189c.016-.625-.466-1.053-1.432-1.273-.67-.152-.733-.316-.728-.379.024-.361.751-.427,1.088-.418a.448.448,0,1,0,.9,0,.92.92,0,0,0-.28-.659.875.875,0,0,0-.626-.253V7.591a.448.448,0,1,0-.9,0v.234A1.277,1.277,0,0,0,10.78,8.973c-.044.647.435,1.089,1.423,1.313.72.164.736.355.735.376-.01.383-.892.434-1.088.434h0a.016.016,0,0,1-.006-.013.448.448,0,0,0-.9,0,.906.906,0,0,0,.279.657.924.924,0,0,0,.629.257v.11Z" transform="translate(349.877 662.291)" fill="#894fff"/>
    </g>
  </g>
</svg>
