<svg xmlns="http://www.w3.org/2000/svg" xmlns:xlink="http://www.w3.org/1999/xlink" width="44" height="44" viewBox="0 0 44 44">
  <defs>
    <linearGradient id="linear-gradient" x1="0.5" x2="0.5" y2="1" gradientUnits="objectBoundingBox">
      <stop offset="0" stop-color="#058bf7"/>
      <stop offset="1" stop-color="#1aadfd"/>
    </linearGradient>
  </defs>
  <g id="Group_62644" data-name="Group 62644" transform="translate(-342 -600)">
    <rect id="Rectangle_2464" data-name="Rectangle 2464" width="44" height="44" rx="10" transform="translate(342 600)" fill="url(#linear-gradient)"/>
    <g id="subscription" transform="translate(351.114 609.424)">
      <circle id="Ellipse_17804" data-name="Ellipse 17804" cx="7.221" cy="7.221" r="7.221" transform="translate(4.042 2.778)" fill="#fff" opacity="0.5"/>
      <path id="Path_88728" data-name="Path 88728" d="M12.411,14.662a.678.678,0,0,0,1.357,0v-.353a1.927,1.927,0,0,0,1.638-1.8c.024-.946-.705-1.595-2.168-1.928-1.015-.231-1.109-.479-1.1-.574.037-.547,1.137-.647,1.647-.632a.678.678,0,0,0,1.357,0,1.394,1.394,0,0,0-.424-1,1.326,1.326,0,0,0-.947-.384V7.821a.678.678,0,1,0-1.357,0v.355a1.934,1.934,0,0,0-1.629,1.738c-.067.98.659,1.649,2.155,1.989,1.09.248,1.114.537,1.113.57-.015.58-1.351.658-1.647.658h0a.025.025,0,0,1-.009-.02.678.678,0,0,0-1.357,0,1.372,1.372,0,0,0,.423,1,1.4,1.4,0,0,0,.953.389v.167Z" transform="translate(-1.827 -1.242)" fill="#fff"/>
      <path id="Path_88729" data-name="Path 88729" d="M8.631,15.987a6.543,6.543,0,1,1,9.145-6.659.678.678,0,1,0,1.35-.136A7.9,7.9,0,1,0,8.087,17.229a.667.667,0,0,0,.271.057.678.678,0,0,0,.273-1.3Z" transform="translate(0 0)" fill="#fff"/>
      <path id="Path_88730" data-name="Path 88730" d="M22.134,25.459H18.179a1.192,1.192,0,0,1-.895-.4l-3.146-3.572a1.2,1.2,0,0,1-.049-1.531h0a1.205,1.205,0,0,1,1.586-.288l1.734,1.074V15.863a1.238,1.238,0,0,1,1.238-1.238h0a1.238,1.238,0,0,1,1.238,1.238v3.088l3.125.383a1.481,1.481,0,0,1,1.244,1.88L23.28,24.6A1.194,1.194,0,0,1,22.134,25.459Z" transform="translate(-2.581 -3.086)" fill="#86cbfc"/>
      <path id="Path_88731" data-name="Path 88731" d="M24.412,19.391a2.158,2.158,0,0,0-1.539-.953l-2.529-.31V15.641a1.916,1.916,0,1,0-3.832,0V19.3l-.7-.433a1.882,1.882,0,0,0-2.4,2.844l3.146,3.573a1.873,1.873,0,0,0,1.4.634h3.955a1.879,1.879,0,0,0,1.8-1.353l.974-3.383A2.158,2.158,0,0,0,24.412,19.391ZM23.382,20.8l-.974,3.383a.516.516,0,0,1-.494.372H17.96a.515.515,0,0,1-.386-.174l-3.146-3.572a.525.525,0,0,1,.671-.794l1.734,1.074a.678.678,0,0,0,1.036-.577V15.641a.56.56,0,1,1,1.12,0v3.088a.679.679,0,0,0,.6.674l3.125.383a.8.8,0,0,1,.674,1.017Z" transform="translate(-2.36 -2.864)" fill="#fff"/>
    </g>
  </g>
</svg>
