<svg width="36" height="36" viewBox="0 0 36 36" fill="none" xmlns="http://www.w3.org/2000/svg">
<g clip-path="url(#clip0_5_6)">
<path d="M29.0769 0H6.92308C3.09957 0 0 3.16034 0 7.05882V28.9412C0 32.8397 3.09957 36 6.92308 36H29.0769C32.9004 36 36 32.8397 36 28.9412V7.05882C36 3.16034 32.9004 0 29.0769 0Z" fill="#E44531"/>
<path d="M17.3007 25.8979V20.1516H11.6675C11.2946 20.1516 10.9374 20 10.6737 19.7311C10.41 19.4622 10.2613 19.098 10.2613 18.7178C10.2613 18.3376 10.41 17.9733 10.6737 17.7045C10.9374 17.4356 11.2946 17.284 11.6675 17.284L17.3007 17.2798V11.528C17.3007 11.1468 17.4487 10.7814 17.7131 10.5119C17.9774 10.2424 18.3358 10.0914 18.7096 10.0914C19.0834 10.0914 19.4432 10.2424 19.7075 10.5119C19.9718 10.7814 20.1199 11.1468 20.1199 11.528V17.2798H25.753C26.1265 17.2798 26.4841 17.4311 26.7482 17.7003C27.0123 17.9696 27.1606 18.3356 27.1606 18.7164C27.1606 19.0972 27.0123 19.4618 26.7482 19.7311C26.4841 20.0004 26.1265 20.1516 25.753 20.1516H20.1199V25.8979C20.1199 26.2791 19.9718 26.6445 19.7075 26.914C19.4432 27.1835 19.0834 27.3359 18.7096 27.3359C18.3358 27.3359 17.9774 27.1835 17.7131 26.914C17.4487 26.6445 17.3007 26.2791 17.3007 25.8979Z" fill="white"/>
</g>
<defs>
<clipPath id="clip0_5_6">
<rect width="36" height="36" fill="white"/>
</clipPath>
</defs>
</svg>
