<svg xmlns="http://www.w3.org/2000/svg" width="62" height="39" viewBox="0 0 62 39">
  <g id="Group_62043" data-name="Group 62043" transform="translate(-479 -215)">
    <path id="Rectangle_21503" data-name="Rectangle 21503" d="M19.5,0H62a0,0,0,0,1,0,0V39a0,0,0,0,1,0,0H19.5A19.5,19.5,0,0,1,0,19.5v0A19.5,19.5,0,0,1,19.5,0Z" transform="translate(479 215)" fill="#38385c"/>
    <g id="refresh" transform="translate(498 222.508)">
      <path id="Path_26108" data-name="Path 26108" d="M21,21a1,1,0,0,1-1-1V16H16a1,1,0,0,1,0-2h5a1,1,0,0,1,1,1v5A1,1,0,0,1,21,21ZM8,10H3A1,1,0,0,1,2,9V4A1,1,0,0,1,4,4V8H8a1,1,0,0,1,0,2Z" fill="#fff"/>
      <path id="Path_26109" data-name="Path 26109" d="M12,22a10,10,0,0,1-9.94-8.892,1.006,1.006,0,1,1,2-.218,8,8,0,0,0,15.5,1.78,1,1,0,1,1,1.88.67A10,10,0,0,1,12,22Zm8.94-10a1,1,0,0,1-1-.89A8,8,0,0,0,4.46,9.33a1,1,0,1,1-1.88-.67,10,10,0,0,1,19.37,2.22,1,1,0,0,1-.88,1.1Z" fill="#fff"/>
    </g>
  </g>
</svg>
