<svg width="18" height="18" viewBox="0 0 18 18" fill="none" xmlns="http://www.w3.org/2000/svg">
<g clip-path="url(#clip0_31_2)">
<path d="M6.78513 0.0386668C5.04841 0.217964 3.44177 0.98437 2.19373 2.2289C1.32888 3.09374 0.745288 4.03593 0.372632 5.16796C-0.123071 6.67265 -0.123071 8.23359 0.372632 9.73828C0.745288 10.8738 1.3324 11.8195 2.20076 12.6809C3.91638 14.3859 6.25427 15.1594 8.66599 14.8184C9.90701 14.6426 11.1515 14.1328 12.1289 13.398C12.2344 13.3172 12.3293 13.2574 12.3433 13.2609C12.3574 13.268 13.4226 14.3086 14.7094 15.5742C16.1754 17.0156 17.1 17.898 17.1844 17.9367C17.5289 18.0984 17.9156 17.8945 17.9859 17.5148C18.0422 17.2195 18.239 17.4305 14.3859 13.6266L13.1836 12.4383L13.3875 12.1992C14.2664 11.1832 14.8465 9.89648 15.0679 8.49023C15.1523 7.94179 15.1523 6.93632 15.0679 6.38086C14.8183 4.76718 14.1117 3.38203 12.934 2.21132C11.3168 0.604682 9.06326 -0.193364 6.78513 0.0386668ZM8.46912 1.2164C9.88943 1.42382 11.1375 2.04257 12.1254 3.02695C13.3347 4.23984 13.964 5.74804 13.964 7.45312C13.964 8.08242 13.9078 8.51484 13.7601 9.05976C13.0148 11.8301 10.4871 13.7461 7.57615 13.7461C5.84294 13.7461 4.23279 13.0887 3.03044 11.8863C2.21482 11.0707 1.6699 10.1285 1.37459 9.03515C1.11443 8.06132 1.11443 6.84492 1.37459 5.87109C1.96521 3.67031 3.71248 1.9371 5.91677 1.36757C6.71834 1.16015 7.6992 1.10039 8.46912 1.2164Z" fill="#404B5B"/>
</g>
<defs>
<clipPath id="clip0_31_2">
<rect width="18" height="18" fill="white"/>
</clipPath>
</defs>
</svg>
