<svg xmlns="http://www.w3.org/2000/svg" width="20.563" height="24.001" viewBox="0 0 20.563 24.001">
  <path id="delete-icon" d="M2.178,7.266H18.5a1.642,1.642,0,0,1,.391.031,1.159,1.159,0,0,1,.563.305,1.062,1.062,0,0,1,.321.653,1.5,1.5,0,0,1-.012.282l-1.39,14.4h0v.08h0a1.381,1.381,0,0,1-.039.176h0V23.2h0a1.152,1.152,0,0,1-1.07.8H3.38a1.206,1.206,0,0,1-.244-.037,1.206,1.206,0,0,1-.227-.094h0a1.208,1.208,0,0,1-.6-.954L.938,8.546a1.5,1.5,0,0,1-.012-.325,1.05,1.05,0,0,1,.319-.643,1.173,1.173,0,0,1,.587-.309,1.748,1.748,0,0,1,.35-.025ZM1.1,1.721H7.252V1.173h0a.477.477,0,0,1,0-.053A1.173,1.173,0,0,1,7.6.338h0A1.173,1.173,0,0,1,8.419,0h3.846a1.173,1.173,0,0,1,1.114,1.173h0v.547h6.333a.919.919,0,0,1,.843.866c0,.035,0,.063,0,.1V4.612a.506.506,0,0,1-.506.506H.5a.506.506,0,0,1-.506-.5V2.645h0a.305.305,0,0,1,0-.061h0a.923.923,0,0,1,.759-.849A2.033,2.033,0,0,1,1.1,1.721Zm8.232,10.3a.933.933,0,0,1,1.856,0v7.234a.933.933,0,0,1-1.856,0Zm4.64-.039a.9.9,0,0,1,.978-.794.874.874,0,0,1,.882.872L15.438,19.3a.894.894,0,0,1-.978.794.874.874,0,0,1-.882-.872l.391-7.234Zm-9.088.078a.872.872,0,0,1,.88-.872.9.9,0,0,1,.978.794L7.13,19.22a.874.874,0,0,1-.882.872.894.894,0,0,1-.978-.794L4.88,12.064Z" transform="translate(0.008)" fill="#d8545a" fill-rule="evenodd"/>
</svg>
