<svg width="25" height="20" viewBox="0 0 25 20" fill="none" xmlns="http://www.w3.org/2000/svg">
<g clip-path="url(#clip0_0_5)">
<path d="M24.375 13.75H23.75V9.527C23.75 9.28052 23.7015 9.03644 23.6071 8.80874C23.5127 8.58104 23.3744 8.37418 23.2 8.2L19.3 4.3C18.9491 3.94815 18.4729 3.74997 17.976 3.749H16.25V1.875C16.25 1.37772 16.0525 0.900805 15.7008 0.549175C15.3492 0.197544 14.8723 0 14.375 0H4.375C3.87772 0 3.40081 0.197544 3.04917 0.549175C2.69754 0.900805 2.5 1.37772 2.5 1.875V3.75H0.313C0.229987 3.75 0.150374 3.78298 0.0916756 3.84168C0.0329767 3.90037 0 3.97999 0 4.063L0 4.688C0.000264664 4.77084 0.0333582 4.8502 0.0920284 4.90868C0.150699 4.96716 0.23016 5 0.313 5H10.938C11.021 5 11.1006 5.03298 11.1593 5.09168C11.218 5.15037 11.251 5.22999 11.251 5.313V5.938C11.251 6.02084 11.2182 6.1003 11.1597 6.15897C11.1012 6.21764 11.0218 6.25074 10.939 6.251H1.563C1.48016 6.25126 1.4008 6.28436 1.34232 6.34303C1.28384 6.4017 1.251 6.48116 1.251 6.564V7.189C1.251 7.27201 1.28398 7.35163 1.34268 7.41032C1.40137 7.46902 1.48099 7.502 1.564 7.502H9.688C9.77049 7.50226 9.84955 7.53508 9.90798 7.59332C9.9664 7.65156 9.99947 7.73051 10 7.813V8.438C10 8.52084 9.96716 8.6003 9.90868 8.65897C9.85019 8.71764 9.77084 8.75074 9.688 8.751H0.313C0.23016 8.751 0.150699 8.78384 0.0920284 8.84232C0.0333582 8.9008 0.000264664 8.98016 0 9.063L0 9.688C0.000264664 9.77084 0.0333582 9.85019 0.0920284 9.90868C0.150699 9.96716 0.23016 10 0.313 10H8.438C8.4791 10 8.5198 10.0081 8.55778 10.0238C8.59576 10.0396 8.63026 10.0626 8.65932 10.0917C8.68839 10.1207 8.71144 10.1552 8.72717 10.1932C8.7429 10.2312 8.751 10.2719 8.751 10.313V10.938C8.751 11.0208 8.71816 11.1003 8.65968 11.159C8.6012 11.2176 8.52184 11.2507 8.439 11.251H2.5V16.251C2.5 17.2456 2.89509 18.1994 3.59835 18.9027C4.30161 19.6059 5.25544 20.001 6.25 20.001C7.24456 20.001 8.19839 19.6059 8.90165 18.9027C9.60491 18.1994 10 17.2456 10 16.251H15C15 17.2456 15.3951 18.1994 16.0983 18.9027C16.8016 19.6059 17.7554 20.001 18.75 20.001C19.7446 20.001 20.6984 19.6059 21.4017 18.9027C22.1049 18.1994 22.5 17.2456 22.5 16.251H24.375C24.5408 16.2505 24.6996 16.1843 24.8167 16.067C24.9338 15.9497 24.9997 15.7908 25 15.625V14.375C24.9995 14.2094 24.9335 14.0507 24.8164 13.9336C24.6993 13.8165 24.5406 13.7505 24.375 13.75ZM6.25 18.125C5.87916 18.125 5.51665 18.015 5.20831 17.809C4.89996 17.603 4.65964 17.3101 4.51773 16.9675C4.37581 16.6249 4.33868 16.2479 4.41103 15.8842C4.48337 15.5205 4.66195 15.1864 4.92417 14.9242C5.1864 14.662 5.52049 14.4834 5.88421 14.411C6.24792 14.3387 6.62492 14.3758 6.96753 14.5177C7.31014 14.6596 7.60298 14.9 7.80901 15.2083C8.01503 15.5166 8.125 15.8792 8.125 16.25C8.125 16.7473 7.92746 17.2242 7.57583 17.5758C7.22419 17.9275 6.74728 18.125 6.25 18.125ZM18.75 18.125C18.3792 18.125 18.0166 18.015 17.7083 17.809C17.4 17.603 17.1596 17.3101 17.0177 16.9675C16.8758 16.6249 16.8387 16.2479 16.911 15.8842C16.9834 15.5205 17.162 15.1864 17.4242 14.9242C17.6864 14.662 18.0205 14.4834 18.3842 14.411C18.7479 14.3387 19.1249 14.3758 19.4675 14.5177C19.8101 14.6596 20.103 14.9 20.309 15.2083C20.515 15.5166 20.625 15.8792 20.625 16.25C20.625 16.7473 20.4275 17.2242 20.0758 17.5758C19.7242 17.9275 19.2473 18.125 18.75 18.125ZM21.875 10H16.25V5.625H17.973L21.873 9.525L21.875 10Z" fill="#7F7F7F"/>
</g>
<defs>
<clipPath id="clip0_0_5">
<rect width="25" height="20" fill="white"/>
</clipPath>
</defs>
</svg>
