<svg xmlns="http://www.w3.org/2000/svg" width="100" height="100" viewBox="0 0 100 100">
  <g id="Group_66037" data-name="Group 66037" transform="translate(-353.992 -374.992)">
    <circle id="Ellipse_340" data-name="Ellipse 340" cx="50" cy="50" r="50" transform="translate(353.992 374.992)" fill="#e44531"/>
    <path id="shipping-fast" d="M50.485,28.479H49.19V19.733A3.884,3.884,0,0,0,48.05,16.99L39.967,8.908a3.884,3.884,0,0,0-2.743-1.141H33.657V3.883A3.884,3.884,0,0,0,29.773,0H9.061A3.884,3.884,0,0,0,5.178,3.883V7.767H.647A.649.649,0,0,0,0,8.414V9.709a.649.649,0,0,0,.647.647H22.653A.649.649,0,0,1,23.3,11V12.3a.649.649,0,0,1-.647.647H3.236a.649.649,0,0,0-.647.647v1.294a.649.649,0,0,0,.647.647H20.064a.649.649,0,0,1,.647.647v1.294a.649.649,0,0,1-.647.647H.647A.649.649,0,0,0,0,18.77v1.294a.649.649,0,0,0,.647.647H17.476a.649.649,0,0,1,.647.647v1.294a.649.649,0,0,1-.647.647H5.178V33.657a7.767,7.767,0,0,0,15.534,0H31.068a7.767,7.767,0,0,0,15.534,0h3.883a1.3,1.3,0,0,0,1.294-1.294V29.773A1.3,1.3,0,0,0,50.485,28.479ZM12.945,37.54a3.883,3.883,0,1,1,3.883-3.883A3.884,3.884,0,0,1,12.945,37.54Zm25.89,0a3.883,3.883,0,1,1,3.883-3.883A3.884,3.884,0,0,1,38.834,37.54Zm6.472-16.828H33.657V11.65h3.568l8.082,8.082Z" transform="translate(378.102 404.28)" fill="#fff"/>
  </g>
</svg>
