<svg width="8" height="10" viewBox="0 0 8 10" fill="none" xmlns="http://www.w3.org/2000/svg">
<g clip-path="url(#clip0_155_2)">
<path d="M7.20022 3.73906C7.17521 3.79806 7.13348 3.84844 7.08016 3.88398C7.02685 3.91952 6.96429 3.93867 6.90022 3.93906H0.328216C0.263331 3.93881 0.199969 3.91938 0.146099 3.88321C0.0922286 3.84704 0.0502591 3.79575 0.0254627 3.73579C0.000666298 3.67583 -0.00584958 3.60988 0.00674017 3.54623C0.0193299 3.48257 0.0504623 3.42407 0.0962177 3.37806L3.38122 0.10006C3.4117 0.0694311 3.44792 0.045126 3.48782 0.0285416C3.52772 0.0119571 3.57051 0.00341797 3.61372 0.00341797C3.65692 0.00341797 3.69971 0.0119571 3.73961 0.0285416C3.77951 0.045126 3.81574 0.0694311 3.84622 0.10006L7.13122 3.38506C7.17594 3.43094 7.20629 3.48888 7.21855 3.55177C7.2308 3.61465 7.22443 3.67974 7.20022 3.73906Z" fill="#303C42"/>
</g>
<g clip-path="url(#clip1_155_2)">
<path d="M7.20017 6.2C7.17506 6.14108 7.1333 6.09077 7.08001 6.05524C7.02672 6.01972 6.96421 6.00052 6.90017 6H0.33017C0.265285 6.00025 0.201923 6.01968 0.148053 6.05585C0.0941827 6.09202 0.0522094 6.14331 0.027413 6.20327C0.00261659 6.26323 -0.00389547 6.32919 0.00869428 6.39284C0.021284 6.45649 0.0524126 6.51499 0.098168 6.561L3.38317 9.846C3.41365 9.87663 3.44988 9.90093 3.48978 9.91752C3.52968 9.9341 3.57246 9.94264 3.61567 9.94264C3.65888 9.94264 3.70166 9.9341 3.74156 9.91752C3.78146 9.90093 3.81769 9.87663 3.84817 9.846L7.13317 6.561C7.17895 6.5143 7.20978 6.45502 7.22171 6.39072C7.23364 6.32642 7.22615 6.26001 7.20017 6.2Z" fill="#303C42"/>
</g>
<defs>
<clipPath id="clip0_155_2">
<rect width="7.226" height="3.942" fill="white"/>
</clipPath>
<clipPath id="clip1_155_2">
<rect width="7.227" height="3.942" fill="white" transform="translate(0 6)"/>
</clipPath>
</defs>
</svg>
