<svg xmlns="http://www.w3.org/2000/svg" width="1067.715" height="838.498" viewBox="0 0 1067.715 838.498">
  <g id="Group_66041" data-name="Group 66041" transform="translate(9252.715 -16698.48)">
    <path id="Path_25839" data-name="Path 25839" d="M173.108,1237.514S-7.9,1025.978,249.481,958.015,574.682,831.868,696.36,655.76s645.206-129.006,432.258,589.888Z" transform="translate(-9363.99 16290.118)" fill="#e2eefc"/>
    <path id="Path_25840" data-name="Path 25840" d="M283.241,767.517c168.725,4.073,336.434-88.693,422.647-233.78,16.645-28.017,10.02-67.633-14.837-88.705s-65.026-21.127-89.937-.114c-41.238,34.775-95.92,48.483-148.974,58.142s-107.82,16.675-155.8,41.352-88.789,71.88-88.039,125.817S264.8,767.073,283.241,767.517Z" transform="translate(-9402.729 16346.196)" fill="#e2eefc"/>
    <rect id="Rectangle_20303" data-name="Rectangle 20303" width="197.03" height="236.37" transform="translate(-8449.618 17283.826)" fill="#ccdeff"/>
    <rect id="Rectangle_20304" data-name="Rectangle 20304" width="48.657" height="9.011" transform="translate(-8437.255 17296.195)" fill="#e2eefc"/>
    <rect id="Rectangle_20305" data-name="Rectangle 20305" width="48.657" height="9.011" transform="translate(-8378.387 17296.195)" fill="#e2eefc"/>
    <rect id="Rectangle_20306" data-name="Rectangle 20306" width="48.657" height="9.011" transform="translate(-8320.72 17296.195)" fill="#e2eefc"/>
    <rect id="Rectangle_20307" data-name="Rectangle 20307" width="48.657" height="9.011" transform="translate(-8436.654 17312.414)" fill="#e2eefc"/>
    <rect id="Rectangle_20308" data-name="Rectangle 20308" width="48.657" height="9.011" transform="translate(-8377.786 17312.414)" fill="#e2eefc"/>
    <rect id="Rectangle_20309" data-name="Rectangle 20309" width="48.657" height="9.011" transform="translate(-8320.119 17312.414)" fill="#e2eefc"/>
    <rect id="Rectangle_20310" data-name="Rectangle 20310" width="48.657" height="9.011" transform="translate(-8436.654 17328.633)" fill="#e2eefc"/>
    <rect id="Rectangle_20311" data-name="Rectangle 20311" width="48.657" height="9.011" transform="translate(-8377.786 17328.633)" fill="#e2eefc"/>
    <rect id="Rectangle_20312" data-name="Rectangle 20312" width="48.657" height="9.011" transform="translate(-8320.119 17328.633)" fill="#e2eefc"/>
    <rect id="Rectangle_20313" data-name="Rectangle 20313" width="48.657" height="9.011" transform="translate(-8436.054 17344.852)" fill="#e2eefc"/>
    <rect id="Rectangle_20314" data-name="Rectangle 20314" width="48.657" height="9.011" transform="translate(-8377.186 17344.852)" fill="#e2eefc"/>
    <rect id="Rectangle_20315" data-name="Rectangle 20315" width="48.657" height="9.011" transform="translate(-8319.518 17344.852)" fill="#e2eefc"/>
    <rect id="Rectangle_20316" data-name="Rectangle 20316" width="48.657" height="9.011" transform="translate(-8435.453 17361.07)" fill="#e2eefc"/>
    <rect id="Rectangle_20317" data-name="Rectangle 20317" width="48.657" height="9.011" transform="translate(-8376.585 17361.07)" fill="#e2eefc"/>
    <rect id="Rectangle_20318" data-name="Rectangle 20318" width="48.657" height="9.011" transform="translate(-8318.917 17361.07)" fill="#e2eefc"/>
    <rect id="Rectangle_20319" data-name="Rectangle 20319" width="48.657" height="9.011" transform="translate(-8435.453 17377.289)" fill="#e2eefc"/>
    <rect id="Rectangle_20320" data-name="Rectangle 20320" width="48.657" height="9.011" transform="translate(-8376.585 17377.289)" fill="#e2eefc"/>
    <rect id="Rectangle_20321" data-name="Rectangle 20321" width="48.657" height="9.011" transform="translate(-8318.917 17377.289)" fill="#e2eefc"/>
    <rect id="Rectangle_20322" data-name="Rectangle 20322" width="165.193" height="60.07" transform="translate(-8435.453 17402.008)" fill="#e2eefc"/>
    <rect id="Rectangle_20323" data-name="Rectangle 20323" width="61.271" height="289.628" transform="translate(-8309.444 17230.568)" fill="#ccdeff"/>
    <rect id="Rectangle_20324" data-name="Rectangle 20324" width="18.021" height="263.107" transform="translate(-8253.964 17257.09)" fill="#ccdeff"/>
    <rect id="Rectangle_20325" data-name="Rectangle 20325" width="94.911" height="152.578" transform="translate(-9139.876 17368.225)" fill="#ccdeff"/>
    <rect id="Rectangle_20326" data-name="Rectangle 20326" width="70.582" height="13.816" transform="translate(-9129.923 17383.291)" fill="#e2eefc"/>
    <rect id="Rectangle_20327" data-name="Rectangle 20327" width="70.582" height="13.816" transform="translate(-9129.923 17406.369)" fill="#e2eefc"/>
    <rect id="Rectangle_20328" data-name="Rectangle 20328" width="70.582" height="13.816" transform="translate(-9129.887 17429.441)" fill="#e2eefc"/>
    <rect id="Rectangle_20329" data-name="Rectangle 20329" width="70.582" height="13.816" transform="translate(-9129.887 17452.047)" fill="#e2eefc"/>
    <rect id="Rectangle_20330" data-name="Rectangle 20330" width="94.911" height="201.235" transform="translate(-9070.735 17319.568)" fill="#ccdeff"/>
    <rect id="Rectangle_20331" data-name="Rectangle 20331" width="212.113" height="161.588" transform="translate(-8984.836 17359.215)" fill="#ccdeff"/>
    <rect id="Rectangle_20332" data-name="Rectangle 20332" width="52.862" height="89.504" transform="translate(-9192.738 17431.299)" fill="#ccdeff"/>
    <rect id="Rectangle_20333" data-name="Rectangle 20333" width="1.802" height="75.772" transform="translate(-8949.61 17283.441)" fill="#ccdeff"/>
    <rect id="Rectangle_20334" data-name="Rectangle 20334" width="1.802" height="58.328" transform="translate(-8929.379 17300.887)" fill="#ccdeff"/>
    <rect id="Rectangle_20335" data-name="Rectangle 20335" width="4.205" height="87.864" transform="translate(-8967.986 17271.35)" fill="#ccdeff"/>
    <rect id="Rectangle_20336" data-name="Rectangle 20336" width="17.42" height="21.871" transform="translate(-9128.728 17346.354)" fill="#ccdeff"/>
    <rect id="Rectangle_20337" data-name="Rectangle 20337" width="37.844" height="23.632" transform="translate(-9063.521 17295.93)" fill="#ccdeff"/>
    <rect id="Rectangle_20338" data-name="Rectangle 20338" width="16.219" height="48.218" transform="translate(-9008.798 17271.35)" fill="#ccdeff"/>
    <rect id="Rectangle_20339" data-name="Rectangle 20339" width="14.417" height="52.946" transform="translate(-9101.804 17315.279)" fill="#ccdeff"/>
    <rect id="Rectangle_20340" data-name="Rectangle 20340" width="14.116" height="14.116" transform="translate(-9186.13 17440.008)" fill="#e2eefc"/>
    <rect id="Rectangle_20341" data-name="Rectangle 20341" width="14.116" height="14.116" transform="translate(-9163.003 17440.008)" fill="#e2eefc"/>
    <rect id="Rectangle_20342" data-name="Rectangle 20342" width="14.116" height="14.116" transform="translate(-9186.13 17463.736)" fill="#e2eefc"/>
    <rect id="Rectangle_20343" data-name="Rectangle 20343" width="14.116" height="14.116" transform="translate(-9163.003 17463.736)" fill="#e2eefc"/>
    <rect id="Rectangle_20344" data-name="Rectangle 20344" width="14.116" height="14.116" transform="translate(-9186.13 17487.463)" fill="#e2eefc"/>
    <rect id="Rectangle_20345" data-name="Rectangle 20345" width="14.116" height="14.116" transform="translate(-9163.003 17487.463)" fill="#e2eefc"/>
    <rect id="Rectangle_20346" data-name="Rectangle 20346" width="5.406" height="182.012" transform="translate(-9059.305 17332.357)" fill="#e2eefc"/>
    <rect id="Rectangle_20347" data-name="Rectangle 20347" width="5.406" height="182.012" transform="translate(-9035.276 17332.357)" fill="#e2eefc"/>
    <rect id="Rectangle_20348" data-name="Rectangle 20348" width="5.406" height="182.012" transform="translate(-9013.646 17332.357)" fill="#e2eefc"/>
    <rect id="Rectangle_20349" data-name="Rectangle 20349" width="5.406" height="182.012" transform="translate(-8990.818 17332.357)" fill="#e2eefc"/>
    <rect id="Rectangle_20350" data-name="Rectangle 20350" width="94.911" height="152.578" transform="translate(-8896.791 17360.842)" fill="#ccdeff"/>
    <rect id="Rectangle_20351" data-name="Rectangle 20351" width="70.582" height="13.816" transform="translate(-8886.844 17375.914)" fill="#e2eefc"/>
    <rect id="Rectangle_20352" data-name="Rectangle 20352" width="70.582" height="13.816" transform="translate(-8886.844 17398.986)" fill="#e2eefc"/>
    <rect id="Rectangle_20353" data-name="Rectangle 20353" width="70.582" height="13.816" transform="translate(-8886.802 17422.066)" fill="#e2eefc"/>
    <rect id="Rectangle_20354" data-name="Rectangle 20354" width="70.582" height="13.816" transform="translate(-8886.802 17444.67)" fill="#e2eefc"/>
    <rect id="Rectangle_20355" data-name="Rectangle 20355" width="94.911" height="201.235" transform="translate(-8827.65 17312.186)" fill="#ccdeff"/>
    <rect id="Rectangle_20356" data-name="Rectangle 20356" width="212.113" height="161.588" transform="translate(-8741.75 17351.832)" fill="#ccdeff"/>
    <rect id="Rectangle_20357" data-name="Rectangle 20357" width="52.862" height="89.504" transform="translate(-8949.652 17423.916)" fill="#ccdeff"/>
    <rect id="Rectangle_20358" data-name="Rectangle 20358" width="1.802" height="75.772" transform="translate(-8706.531 17276.064)" fill="#ccdeff"/>
    <rect id="Rectangle_20359" data-name="Rectangle 20359" width="1.802" height="58.328" transform="translate(-8686.294 17293.504)" fill="#ccdeff"/>
    <rect id="Rectangle_20360" data-name="Rectangle 20360" width="4.205" height="87.864" transform="translate(-8724.9 17263.967)" fill="#ccdeff"/>
    <rect id="Rectangle_20361" data-name="Rectangle 20361" width="17.42" height="21.871" transform="translate(-8885.642 17338.977)" fill="#ccdeff"/>
    <rect id="Rectangle_20362" data-name="Rectangle 20362" width="37.844" height="23.632" transform="translate(-8820.442 17288.555)" fill="#ccdeff"/>
    <rect id="Rectangle_20363" data-name="Rectangle 20363" width="16.219" height="48.218" transform="translate(-8765.712 17263.967)" fill="#ccdeff"/>
    <rect id="Rectangle_20364" data-name="Rectangle 20364" width="14.417" height="52.946" transform="translate(-8858.719 17307.902)" fill="#ccdeff"/>
    <rect id="Rectangle_20365" data-name="Rectangle 20365" width="14.116" height="14.116" transform="translate(-8943.045 17432.625)" fill="#e2eefc"/>
    <rect id="Rectangle_20366" data-name="Rectangle 20366" width="14.116" height="14.116" transform="translate(-8919.918 17432.625)" fill="#e2eefc"/>
    <rect id="Rectangle_20367" data-name="Rectangle 20367" width="14.116" height="14.116" transform="translate(-8943.045 17456.354)" fill="#e2eefc"/>
    <rect id="Rectangle_20368" data-name="Rectangle 20368" width="14.116" height="14.116" transform="translate(-8919.918 17456.354)" fill="#e2eefc"/>
    <rect id="Rectangle_20369" data-name="Rectangle 20369" width="14.116" height="14.116" transform="translate(-8943.045 17480.082)" fill="#e2eefc"/>
    <rect id="Rectangle_20370" data-name="Rectangle 20370" width="14.116" height="14.116" transform="translate(-8919.918 17480.082)" fill="#e2eefc"/>
    <rect id="Rectangle_20371" data-name="Rectangle 20371" width="5.406" height="182.012" transform="translate(-8816.219 17324.975)" fill="#e2eefc"/>
    <rect id="Rectangle_20372" data-name="Rectangle 20372" width="5.406" height="182.012" transform="translate(-8792.191 17324.975)" fill="#e2eefc"/>
    <rect id="Rectangle_20373" data-name="Rectangle 20373" width="5.406" height="182.012" transform="translate(-8770.56 17324.975)" fill="#e2eefc"/>
    <rect id="Rectangle_20374" data-name="Rectangle 20374" width="5.406" height="182.012" transform="translate(-8747.733 17324.975)" fill="#e2eefc"/>
    <rect id="Rectangle_20375" data-name="Rectangle 20375" width="94.911" height="152.578" transform="translate(-8653.826 17347.531)" fill="#ccdeff"/>
    <rect id="Rectangle_20376" data-name="Rectangle 20376" width="70.582" height="13.816" transform="translate(-8643.878 17362.602)" fill="#e2eefc"/>
    <rect id="Rectangle_20377" data-name="Rectangle 20377" width="70.582" height="13.816" transform="translate(-8643.878 17385.676)" fill="#e2eefc"/>
    <rect id="Rectangle_20378" data-name="Rectangle 20378" width="70.582" height="13.816" transform="translate(-8643.842 17408.748)" fill="#e2eefc"/>
    <rect id="Rectangle_20379" data-name="Rectangle 20379" width="70.582" height="13.816" transform="translate(-8643.842 17431.359)" fill="#e2eefc"/>
    <rect id="Rectangle_20380" data-name="Rectangle 20380" width="94.911" height="201.235" transform="translate(-8584.686 17298.873)" fill="#ccdeff"/>
    <rect id="Rectangle_20381" data-name="Rectangle 20381" width="212.113" height="161.588" transform="translate(-8498.785 17338.52)" fill="#ccdeff"/>
    <rect id="Rectangle_20382" data-name="Rectangle 20382" width="52.862" height="89.504" transform="translate(-8706.688 17410.604)" fill="#ccdeff"/>
    <rect id="Rectangle_20383" data-name="Rectangle 20383" width="1.802" height="75.772" transform="translate(-8463.566 17262.748)" fill="#ccdeff"/>
    <rect id="Rectangle_20384" data-name="Rectangle 20384" width="1.802" height="58.328" transform="translate(-8443.334 17280.191)" fill="#ccdeff"/>
    <rect id="Rectangle_20385" data-name="Rectangle 20385" width="4.205" height="87.864" transform="translate(-8481.941 17250.656)" fill="#ccdeff"/>
    <rect id="Rectangle_20386" data-name="Rectangle 20386" width="17.42" height="21.871" transform="translate(-8642.683 17325.658)" fill="#ccdeff"/>
    <rect id="Rectangle_20387" data-name="Rectangle 20387" width="37.844" height="23.632" transform="translate(-8577.477 17275.242)" fill="#ccdeff"/>
    <rect id="Rectangle_20388" data-name="Rectangle 20388" width="16.219" height="48.218" transform="translate(-8522.747 17250.656)" fill="#ccdeff"/>
    <rect id="Rectangle_20389" data-name="Rectangle 20389" width="14.417" height="52.946" transform="translate(-8615.76 17294.592)" fill="#ccdeff"/>
    <rect id="Rectangle_20390" data-name="Rectangle 20390" width="14.116" height="14.116" transform="translate(-8700.08 17419.314)" fill="#e2eefc"/>
    <rect id="Rectangle_20391" data-name="Rectangle 20391" width="14.116" height="14.116" transform="translate(-8676.953 17419.314)" fill="#e2eefc"/>
    <rect id="Rectangle_20392" data-name="Rectangle 20392" width="14.116" height="14.116" transform="translate(-8700.08 17443.043)" fill="#e2eefc"/>
    <rect id="Rectangle_20393" data-name="Rectangle 20393" width="14.116" height="14.116" transform="translate(-8676.953 17443.043)" fill="#e2eefc"/>
    <rect id="Rectangle_20394" data-name="Rectangle 20394" width="14.116" height="14.116" transform="translate(-8700.08 17466.77)" fill="#e2eefc"/>
    <rect id="Rectangle_20395" data-name="Rectangle 20395" width="14.116" height="14.116" transform="translate(-8676.953 17466.77)" fill="#e2eefc"/>
    <rect id="Rectangle_20396" data-name="Rectangle 20396" width="5.406" height="182.012" transform="translate(-8573.26 17311.662)" fill="#e2eefc"/>
    <rect id="Rectangle_20397" data-name="Rectangle 20397" width="5.406" height="182.012" transform="translate(-8549.231 17311.662)" fill="#e2eefc"/>
    <rect id="Rectangle_20398" data-name="Rectangle 20398" width="5.406" height="182.012" transform="translate(-8527.601 17311.662)" fill="#e2eefc"/>
    <rect id="Rectangle_20399" data-name="Rectangle 20399" width="5.406" height="182.012" transform="translate(-8504.768 17311.662)" fill="#e2eefc"/>
    <rect id="Rectangle_20400" data-name="Rectangle 20400" width="97.313" height="74.072" transform="translate(-8546.932 17446.641)" fill="#ccdeff"/>
    <rect id="Rectangle_20401" data-name="Rectangle 20401" width="3.604" height="3.604" transform="translate(-8361.892 17502.02)" fill="#ccdeff"/>
    <rect id="Rectangle_20402" data-name="Rectangle 20402" width="42.049" height="640.142" transform="translate(-9123.417 16877.717)" fill="#ec7f37"/>
    <rect id="Rectangle_20403" data-name="Rectangle 20403" width="167.764" height="52.79" transform="translate(-9146.358 16949.104)" fill="#febe3d"/>
    <path id="Path_25841" data-name="Path 25841" d="M155.42,721.738l79.839-51.8V773.531Z" transform="translate(-9381.617 16250.066)" fill="#febe3d"/>
    <rect id="Rectangle_20404" data-name="Rectangle 20404" width="42.049" height="10.212" transform="translate(-9123.417 17001.895)" fill="#a54545"/>
    <rect id="Rectangle_20405" data-name="Rectangle 20405" width="167.764" height="4.205" transform="translate(-9146.358 17001.172)" fill="#f8a23a"/>
    <rect id="Rectangle_20406" data-name="Rectangle 20406" width="167.764" height="5.581" transform="translate(-9146.358 16949.104)" fill="#fce373"/>
    <path id="Path_25842" data-name="Path 25842" d="M1329.02,459.248l-14.922-4.806c6.007-17.8,32.39-24.31,45.954-11.317-7.118-8.518-1.2-23.986,9.785-25.584s21.025,11.564,16.646,21.751c8.5-9.8,26.881-7.515,32.72,4.067,7.01-8.686,22.352-8.41,29.056.5a169.349,169.349,0,0,1,93.878,9.167L1275.87,465.952C1295.044,462.462,1314.219,458.96,1329.02,459.248Z" transform="translate(-9829.012 16350.901)" fill="#e2eefc"/>
    <rect id="Rectangle_20407" data-name="Rectangle 20407" width="264.134" height="128.292" transform="translate(-8465.65 17317.381)" fill="#febe3d"/>
    <rect id="Rectangle_20408" data-name="Rectangle 20408" width="64.431" height="128.292" transform="translate(-8465.65 17317.381)" fill="#f8a23a"/>
    <rect id="Rectangle_20409" data-name="Rectangle 20409" width="155.461" height="120.849" transform="translate(-8433.435 17196.527)" fill="#febe3d"/>
    <rect id="Rectangle_20410" data-name="Rectangle 20410" width="39.244" height="120.849" transform="translate(-8433.435 17196.527)" fill="#f8a23a"/>
    <path id="Path_25843" data-name="Path 25843" d="M1474.48,1329.554l39.64-3.6,80.392,4.157Z" transform="translate(-9908.317 15988.122)" fill="#ec7f37"/>
    <rect id="Rectangle_20411" data-name="Rectangle 20411" width="53.961" height="11.87" transform="translate(-8263.347 17328.387)" fill="#fff"/>
    <rect id="Rectangle_20412" data-name="Rectangle 20412" width="53.961" height="11.87" transform="translate(-8262.481 17346.498)" fill="#fff"/>
    <rect id="Rectangle_20413" data-name="Rectangle 20413" width="37.736" height="11.87" transform="translate(-8321.344 17203.488)" fill="#fff"/>
    <rect id="Rectangle_20414" data-name="Rectangle 20414" width="37.736" height="11.87" transform="translate(-8321.344 17219.713)" fill="#fff"/>
    <rect id="Rectangle_20415" data-name="Rectangle 20415" width="264.134" height="128.292" transform="translate(-8465.65 17317.381)" fill="#febe3d"/>
    <rect id="Rectangle_20416" data-name="Rectangle 20416" width="64.431" height="128.292" transform="translate(-8465.65 17317.381)" fill="#f8a23a"/>
    <rect id="Rectangle_20417" data-name="Rectangle 20417" width="155.461" height="120.849" transform="translate(-8433.435 17196.527)" fill="#febe3d"/>
    <rect id="Rectangle_20418" data-name="Rectangle 20418" width="39.244" height="120.849" transform="translate(-8433.435 17196.527)" fill="#f8a23a"/>
    <path id="Path_25844" data-name="Path 25844" d="M1474.48,1329.554l39.64-3.6,80.392,4.157Z" transform="translate(-9908.317 15988.122)" fill="#ec7f37"/>
    <rect id="Rectangle_20419" data-name="Rectangle 20419" width="53.961" height="11.87" transform="translate(-8263.347 17328.387)" fill="#fff"/>
    <rect id="Rectangle_20420" data-name="Rectangle 20420" width="53.961" height="11.87" transform="translate(-8262.481 17346.498)" fill="#fff"/>
    <rect id="Rectangle_20421" data-name="Rectangle 20421" width="37.736" height="11.87" transform="translate(-8321.344 17203.488)" fill="#fff"/>
    <rect id="Rectangle_20422" data-name="Rectangle 20422" width="37.736" height="11.87" transform="translate(-8321.344 17219.713)" fill="#fff"/>
    <path id="Path_25845" data-name="Path 25845" d="M352.73,271.023l14.591-5.719c-7.088-17.42-33.855-22.226-46.572-8.41,6.566-8.95-.312-24.028-11.377-24.911s-20.28,12.867-15.246,22.755c-9.1-9.245-27.3-5.8-32.4,6.121-7.545-8.23-22.827-7-28.966,2.331a169.277,169.277,0,0,0-93.109,15.065L406.2,274.381C386.844,272.068,367.484,269.773,352.73,271.023Z" transform="translate(-9375.32 16466.537)" fill="#e2eefc"/>
    <path id="Path_25846" data-name="Path 25846" d="M1512.81,846.815c0-33.639,26.545-60.875,59.3-60.875s59.3,27.254,59.3,60.875-56.874,95.139-56.874,95.139S1512.81,880.436,1512.81,846.815Z" transform="translate(-9923.622 16203.747)" fill="#f75c3d"/>
    <circle id="Ellipse_254" data-name="Ellipse 254" cx="32.131" cy="32.131" r="32.131" transform="translate(-8383.648 17018.496)" fill="#1a1a35"/>
    <path id="Path_25847" data-name="Path 25847" d="M1383.86,1553.41h0a8.41,8.41,0,0,1,8.41-8.41h273.319a8.41,8.41,0,0,1,8.41,8.41h0a8.41,8.41,0,0,1-8.41,8.41H1392.27A8.41,8.41,0,0,1,1383.86,1553.41Z" transform="translate(-9872.133 15900.655)" fill="#1a1a35"/>
    <path id="Path_25848" data-name="Path 25848" d="M1275.86,902.05h0a8.41,8.41,0,0,1,8.41-8.41h48.056a8.41,8.41,0,0,1,8.41,8.41h0a8.41,8.41,0,0,1-8.41,8.41H1284.27a8.41,8.41,0,0,1-8.41-8.41Z" transform="translate(-9829.009 16160.743)" fill="#e44531"/>
    <path id="Path_25849" data-name="Path 25849" d="M1378.27,1294.151h0a8.41,8.41,0,0,1-8.41-8.41V864.05a8.41,8.41,0,0,1,8.41-8.41h0a8.41,8.41,0,0,1,8.41,8.41v421.692A8.41,8.41,0,0,1,1378.27,1294.151Z" transform="translate(-9866.542 16175.916)" fill="#1a1a35"/>
    <path id="Path_25850" data-name="Path 25850" d="M1289.86,864.05h0a8.41,8.41,0,0,1,8.41-8.41h48.056a8.41,8.41,0,0,1,8.41,8.41h0a8.41,8.41,0,0,1-8.41,8.41H1298.27A8.41,8.41,0,0,1,1289.86,864.05Z" transform="translate(-9834.599 16175.916)" fill="#f75c3d"/>
    <circle id="Ellipse_255" data-name="Ellipse 255" cx="41.448" cy="41.448" r="41.448" transform="translate(-8529.055 17454.082)" fill="#1a1a35"/>
    <circle id="Ellipse_256" data-name="Ellipse 256" cx="26.611" cy="26.611" r="26.611" transform="translate(-8519.158 17516.049) rotate(-78.01)" fill="#38385c"/>
    <path id="Path_25851" data-name="Path 25851" d="M822.7,1634.528l-71.243-9.245a81.906,81.906,0,0,1,2.048-11.2q6.452-1.736,12.795-3.875a10.388,10.388,0,0,0,1.5,4.4c1.328,1.983,4.145,3.184,6.175,1.946-.306-2.913-.6-5.815-.907-8.734.877-.318,1.736-.649,2.613-.991v1.345a15.95,15.95,0,0,0,.228,4.932,4.582,4.582,0,0,0,3.232,3.43c1.628.324,3.508-1.063,3.274-2.7q-.643-4.583-1.3-9.179c.907-.372,1.8-.757,2.691-1.141q.757,5.6,1.5,11.209c1.868,1.2,4.487-.5,5.076-2.643a8.206,8.206,0,0,0-.228-4.349c-.192-.727-.438-1.448-.667-2.151a1.26,1.26,0,0,0-.1-.312,13.94,13.94,0,0,1-.793-3.91h0c.781-.354,1.556-.721,2.325-1.093.144.21.3.414.457.6a26.605,26.605,0,0,0,31.194,8.566,20.207,20.207,0,0,0,2.138-.985C824.073,1616.927,823.448,1625.337,822.7,1634.528Z" transform="translate(-9619.615 15878.586)" fill="#f75c3d"/>
    <path id="Path_25852" data-name="Path 25852" d="M821.873,1656.585c-23.722-3.574-47.455-7.154-71.333-10.272.174-1.472.36-2.949.553-4.4q35.628,4.631,71.243,9.245C822.18,1652.933,822.029,1654.741,821.873,1656.585Z" transform="translate(-9619.248 15861.959)"/>
    <path id="Path_25853" data-name="Path 25853" d="M795.152,1615.446q-.745-5.6-1.5-11.209c1.6-.7,3.2-1.418,4.806-2.156a13.948,13.948,0,0,0,.793,3.91c.03.1.072.21.1.312.228.7.474,1.424.667,2.151a8.206,8.206,0,0,1,.228,4.349C799.639,1614.947,797.02,1616.659,795.152,1615.446Zm-6.169,1.808a4.592,4.592,0,0,1-3.232-3.43,15.752,15.752,0,0,1-.228-4.932v-1.345c1.8-.691,3.6-1.424,5.406-2.174q.661,4.589,1.3,9.178C792.491,1616.19,790.6,1617.566,788.983,1617.254Zm-5.142.024c-2.03,1.243-4.848.036-6.175-1.947a10.3,10.3,0,0,1-1.5-4.4q3.4-1.135,6.764-2.4C783.234,1611.463,783.535,1614.364,783.841,1617.278Z" transform="translate(-9629.482 15877.863)" fill="#fff"/>
    <path id="Path_25854" data-name="Path 25854" d="M849.054,1595.148a26.6,26.6,0,0,1-31.194-8.566,60.459,60.459,0,0,0,4.5-22.111c11.323,3.106,22.64,6.2,33.549,9.106Q852.49,1584.359,849.054,1595.148Z" transform="translate(-9646.129 15892.881)" fill="#fbb8a5"/>
    <path id="Path_25855" data-name="Path 25855" d="M1089.091,1573.672q-31.663,16.952-63.314,33.933a81.146,81.146,0,0,1-4.848-10.3q4.205-5.172,8.158-10.591a10.368,10.368,0,0,0,3.778,2.709c2.235.841,5.226.18,6.157-2.006l-5.821-6.578c.529-.769,1.033-1.538,1.55-2.325.27.36.517.733.763,1.105a15.907,15.907,0,0,0,3.052,3.881,4.57,4.57,0,0,0,4.619.907c1.508-.685,2.235-2.9,1.093-4.1q-3.19-3.352-6.4-6.71c.523-.829,1.021-1.664,1.526-2.493,2.577,2.739,5.166,5.5,7.737,8.248,2.223-.1,3.358-3,2.589-5.1a8.237,8.237,0,0,0-2.715-3.406c-.6-.474-1.2-.925-1.8-1.364l-.264-.192a13.862,13.862,0,0,1-2.919-2.721h0c.427-.745.847-1.49,1.255-2.241.24.084.487.162.733.234a26.6,26.6,0,0,0,30.359-11.173c.414-.667.811-1.346,1.171-2.042C1079.954,1558.541,1084.364,1565.773,1089.091,1573.672Z" transform="translate(-9727.215 15898.119)" fill="#f75c3d"/>
    <path id="Path_25856" data-name="Path 25856" d="M1095.049,1593.2c-21.379,10.885-42.758,21.769-64,33.129-.715-1.3-1.424-2.613-2.114-3.9l63.332-33.91C1093.2,1590.048,1094.124,1591.6,1095.049,1593.2Z" transform="translate(-9730.409 15883.282)"/>
    <path id="Path_25857" data-name="Path 25857" d="M1052.535,1589.413l-7.737-8.248c.9-1.5,1.8-3,2.631-4.536a14,14,0,0,0,2.919,2.721l.264.192c.6.439,1.2.883,1.8,1.364a8.2,8.2,0,0,1,2.715,3.406C1055.9,1586.4,1054.764,1589.311,1052.535,1589.413Zm-3.935,5.058a4.6,4.6,0,0,1-4.619-.907,15.686,15.686,0,0,1-3.052-3.88c-.246-.366-.492-.745-.763-1.105,1.069-1.616,2.114-3.262,3.136-4.914q3.208,3.352,6.4,6.71C1050.8,1591.569,1050.072,1593.786,1048.6,1594.471Zm-4.2,3.01c-.931,2.193-3.923,2.847-6.157,2.006a10.281,10.281,0,0,1-3.778-2.709q2.1-2.9,4.115-5.881Q1041.494,1594.2,1044.4,1597.48Z" transform="translate(-9732.617 15888.025)" fill="#fff"/>
    <path id="Path_25858" data-name="Path 25858" d="M1083.606,1540.375a26.6,26.6,0,0,1-30.359,11.173,60.405,60.405,0,0,0-9.2-20.6c11.017-4.061,22.028-8.128,32.588-12.1Q1080.128,1529.6,1083.606,1540.375Z" transform="translate(-9736.446 15911.101)" fill="#fbb8a5"/>
    <path id="Path_25859" data-name="Path 25859" d="M960.386,1297.86,869.35,905.02l94.977,29.687,57.571,339.221Z" transform="translate(-9666.688 16156.199)" fill="#1a1a35"/>
    <path id="Path_25860" data-name="Path 25860" d="M807.62,1323.061l23.9-381.481,99.446,22.586-65.729,364.006Z" transform="translate(-9642.04 16141.601)" fill="#38385c"/>
    <path id="Path_25861" data-name="Path 25861" d="M846.88,602.681c4.049-.234,3.808,1.2,6.776,3.971a12.856,12.856,0,0,1,2.679,4.055,43.455,43.455,0,0,1,3.851,22.827,83.454,83.454,0,0,1,25.86-15.756c-4.247-5.893-6.536-12.945-8.44-19.955a36.077,36.077,0,0,0-2.4-7,7.133,7.133,0,0,0-2.09-2.667c-1.568-1.117-3.67-1.123-5.575-.829-5.136.793-9.8,3.394-14.213,6.145q-5.052,3.154-9.881,6.65c-1.123.811,3.532,1.8,3.424,3.2" transform="translate(-9656.274 16283.121)" fill="#fbb089"/>
    <path id="Path_25862" data-name="Path 25862" d="M783.839,699.212s-54.207,31.531-67.687,22.106c0,0-40.655-7.881-63.35-110.715q-1-4.511-1.952-9.281l15.618-6.451s2.733,3.28,7.082,8.866c11.846,15.2,35.651,47.455,48.807,76.986,0,0,41.376-38.974,67.242-48.134Z" transform="translate(-9579.442 16280.042)" fill="#e44531"/>
    <path id="Path_25863" data-name="Path 25863" d="M855.206,658.693c-2.241.072-3.532,3.352-1.946,4.932-3.13.733-4.385,4.427-5.058,7.575-9.929,46.38-8.68,94.31-11.089,141.675-.354,6.944-.793,13.924-2.4,20.694a149.364,149.364,0,0,0,30.942-1.37c7.965-1.2,15.931-3,23.968-2.565,7.311.42,14.369,2.721,21.571,4.037a81.154,81.154,0,0,0,33.393-.907c2.577-8.6,2.181-17.8,1.255-26.731-2.631-25.482-9.293-50.351-15.931-75.087-2.823-10.53-5.677-21.127-10.3-31a184.857,184.857,0,0,0-9.7-17.342l-22.646-37.334a5.4,5.4,0,0,0-2.607-2.625c-1.718-.559-3.442.691-4.848,1.8a101.213,101.213,0,0,1-27.284,15.774" transform="translate(-9652.857 16261.019)" fill="#f75c3d"/>
    <path id="Path_25864" data-name="Path 25864" d="M894.365,625.68a313.974,313.974,0,0,0-36.745,22.785,13.985,13.985,0,0,1,1,13.816,247.352,247.352,0,0,1,44.194-29.711,108.7,108.7,0,0,0-8.968-6.56" transform="translate(-9662.005 16267.739)" fill="#38385c"/>
    <rect id="Rectangle_20424" data-name="Rectangle 20424" width="236.844" height="126.892" transform="translate(-8859.211 16999.773)" fill="#febe3d"/>
    <rect id="Rectangle_20425" data-name="Rectangle 20425" width="59.788" height="126.892" transform="translate(-8859.211 16999.773)" fill="#f8a23a"/>
    <rect id="Rectangle_20426" data-name="Rectangle 20426" width="57.487" height="12.459" transform="translate(-8688.438 17007.078)" fill="#fff"/>
    <rect id="Rectangle_20427" data-name="Rectangle 20427" width="57.487" height="12.459" transform="translate(-8688.438 17024.113)" fill="#fff"/>
    <path id="Path_25865" data-name="Path 25865" d="M896.6,641.539l11.846-4.2s4-4.439,33.333,24.076,72.511,94.772,72.511,94.772l-58.268,99.332-19.06-12.206L962.928,755S826.491,611.882,925.378,646.4" transform="translate(-9674.703 16263.186)" fill="#e44531"/>
    <path id="Path_25866" data-name="Path 25866" d="M956.222,979.218c-4.493,1.267-8.031,3.694-12.014,6.055a2.769,2.769,0,0,0-1.658,2.319A65.906,65.906,0,0,1,937,1002.675a67.2,67.2,0,0,0,15.45,2.355,5.141,5.141,0,0,0,2.012-.2,4.692,4.692,0,0,0,1.97-1.718,25.32,25.32,0,0,0,3.064-5.3c5.911-1.2,11.383-1.484,15.528-5.707-5.268-2.5-9.936-7.491-14.9-10.53a33.454,33.454,0,0,0-3.989-2.4" transform="translate(-9693.701 16126.591)" fill="#fbb089"/>
    <path id="Path_25867" data-name="Path 25867" d="M923.9,512.549c.6-.126,1.141-.27,1.694-.427l.348-.1h0l-.342.1C925.035,512.272,924.471,512.422,923.9,512.549Z" transform="translate(-9688.471 16313.124)" fill="#e1c2b0"/>
    <path id="Path_25868" data-name="Path 25868" d="M815.968,559.21a22.82,22.82,0,0,0,.072,3.838c.571,6.223,2.511,9.263,5.01,10.434a4.724,4.724,0,0,0,.547.222,8.128,8.128,0,0,0,4.511.126c-.6-3.941-1.081-7.725-1.454-11.017-.276-2.349-.487-4.445-.6-6.187-.841.6-3.838-2.817-3.838-2.817C817.607,554.357,816.322,556.633,815.968,559.21Zm40.811,41.3v-.06C856.779,600.394,856.737,600.508,856.779,600.514Zm-12.014-4.98c1.976.6,5.034-4.289,6.608-3.911,2.024.493,3.562.787,4.271.913l.156.03v.09l.114-.072h.132v-.09c.36-.222,1.147-.709,2.193-1.406.709-.462,1.538-1.033,2.445-1.676h0c1.628-1.159,6.217-.937,8.1-2.547.36,3-.552,4.253,1.382,8.374a14.678,14.678,0,0,1-1.051,1.153,18.845,18.845,0,0,1-3.844,3,19.874,19.874,0,0,1-6.464,2.4,20.355,20.355,0,0,1-5.953.228,18.806,18.806,0,0,1-5.61-1.514c-.432-.192-.385-.5-.8-.727.577-2.805,1.147,4.289-1.646-4.253ZM878.3,575.4a10,10,0,0,0,5.683,1.237,5.9,5.9,0,0,0,1.484-.4c2.463-1.015,4.589-3.82,5.827-9.611,1.322-6.211.036-8.728-2.078-9.455h-.03a3,3,0,0,1-.919.6c-1.141,1.141-5.623,1.339-6.355,2.613-.126.631-.27,1.3-.427,2.012-.066.312-.138.6-.21.961l-.108.492-.234,1.009a.242.242,0,0,1-.036.15c-.144.6-.288,1.243-.445,1.88-.048.21-.1.433-.156.649v.078c-.078.33-.168.667-.246,1s-.126.5-.192.763C879.371,571.308,878.861,573.327,878.3,575.4Z" transform="translate(-9645.354 16296.437)" fill="#e88a78"/>
    <path id="Path_25869" data-name="Path 25869" d="M845.36,540.428l14.627-2.925a10.113,10.113,0,0,0-1.333-.6,12.332,12.332,0,0,0-11.9,2.12h0A10.5,10.5,0,0,0,845.36,540.428Z" transform="translate(-9657.109 16303.464)" fill="#ffece6"/>
    <path id="Path_25870" data-name="Path 25870" d="M829.37,547.583h0c.138,1.742.354,3.845.6,6.193.372,3.292.877,7.076,1.454,11.017q.387,2.7.823,5.406c.6,3.8,3.568,7.4,7.208,10.506a59.077,59.077,0,0,0,7.377,5.262c1.766,1.081,3.454,2.006,4.884,2.757,1.844.967,3.268,1.622,3.923,1.922l.144.072.126.054.126-.042c.4-.132,1.286-.408,2.469-.835.8-.282,1.742-.6,2.775-1.039h0c1.856-.733,4.031-1.664,6.253-2.775a49.261,49.261,0,0,0,7.923-4.848c3.046-2.349,5.478-5.076,6.343-8.128.643-2.271,1.262-4.535,1.844-6.734.559-2.073,1.069-4.091,1.538-6.007.06-.258.126-.51.192-.763s.168-.679.246-1v-.078c.048-.216.108-.438.156-.649.156-.649.306-1.273.445-1.88a1.354,1.354,0,0,0,.036-.15q.12-.523.234-1.009l.108-.492c.072-.33.144-.649.21-.961.156-.709.3-1.388.426-2.012a.941.941,0,0,0-.084.2c-.138-.943-.276-1.892-.421-2.835-1.051-1.8-2.613-4.511-4.415-7.6l-.907-1.658-1.3-2.2-.985-1.682-1.009-1.706c-.535-.907-1.075-1.8-1.616-2.721a67.25,67.25,0,0,1-6.524,4.541,10.219,10.219,0,0,0-1.135.09l.535.27a73.885,73.885,0,0,1-35.9,10.344h-1.8C831.551,546.418,829.448,547.667,829.37,547.583Z" transform="translate(-9650.725 16305.481)" fill="#fbb089"/>
    <path id="Path_25871" data-name="Path 25871" d="M872.364,503.487Zm.775-38.631c-.126-.072-.252-.15-.385-.216a46.107,46.107,0,0,1,8.115,8.5A20.862,20.862,0,0,0,873.139,464.856Zm-20.045,38.649Zm4.2,5.8c-16.687,2.463-37.075,4.631-54.207,3.977.048.084.108.174.162.258h0c1.165,2.151,2.865,6.536,4.9,8.86a5.061,5.061,0,0,0,1.49,1.237.054.054,0,0,1,0-.03c.378-2.577,1.664-4.854,4.2-5.406,0,0,3,3.4,3.845,2.817h0c.078.084,2.15-1.165,2.259-1.165h1.8a73.94,73.94,0,0,0,35.982-10.362Zm-52.159-5.8h.006s-.012-.012-.012-.018Zm1.153-30.191.252.114a46.034,46.034,0,0,1,7.431-8.043,27.373,27.373,0,0,0-7.689,7.911Zm83.5,30.059c-.5,2.115-1,4.2-1.562,6.313-.33,1.243-.679,2.469-1.057,3.682q-1.874,3.839-3.736,7.677l-.378.366-.138.132h-.03a2.876,2.876,0,0,1-.919.6c-1.147,1.141-5.628,1.34-6.355,2.613a.814.814,0,0,0-.084.2l-.414-2.835-.162-1.093q-1.051-7.154-2.108-14.3c2.1-.372,4.043-.733,5.815-1.063,4.848-.913,8.362-1.64,10-1.988h.066l.961-.2v-.084Z" transform="translate(-9639.062 16332.042)" fill="#38385c"/>
    <path id="Path_25872" data-name="Path 25872" d="M907.81,527.051l1.616,2.721,1.009,1.706c.33.565.667,1.123.985,1.682l1.31,2.216.973,1.664c1.8,3.088,3.364,5.773,4.415,7.6l-.162-1.093q-1.388-9.4-2.769-18.778h0c-.2-1.292-.385-2.583-.6-3.868-.391.4-.775.8-1.2,1.2A68,68,0,0,1,907.81,527.051Z" transform="translate(-9682.046 16309.578)" fill="#e88a78"/>
    <path id="Path_25873" data-name="Path 25873" d="M884,471.594q.685.054,1.37.144c.385.048.769.1,1.153.168.258.042.517.084.781.138l.811.174.805.192c.354.09.715.186,1.069.294.457.132.913.276,1.358.432l.379.132c.3.108.6.21.889.33.168.06.342.132.5.2l.366.15c.144.054.276.114.414.18.42.186.829.378,1.237.6s.8.4,1.2.6c.216.114.427.228.637.354s.306.174.451.264h0l.126.078a2.937,2.937,0,0,1,.258.156l.336.2a34.4,34.4,0,0,1,3.893,2.847l.2.168a35.281,35.281,0,0,1,2.6,2.5c.12.126.24.258.354.39s.366.4.541.6.348.409.51.6.4.5.6.745c.12.15.228.3.336.451.2.258.378.523.565.793l.427.631c.1.144.192.294.276.439a2.313,2.313,0,0,1,.138.228l.156.246c.186.306.366.6.541.925s.342.6.5.949.318.637.469.961.288.649.427.973c.072.162.132.33.2.493.054-.15.108-.3.15-.457s.066-.2.1-.312v-.03a.385.385,0,0,0,.036-.108h0v-.03c.036-.114.066-.228.1-.342.078-.264.138-.529.192-.8a1.844,1.844,0,0,1,.06-.294c.018-.1.042-.2.054-.294s.054-.336.078-.5a.529.529,0,0,0,0-.09v-.132c0-.144.036-.282.048-.421v-.1c0-.216.042-.426.054-.643s0-.366,0-.547v-.919a.831.831,0,0,0,0-.174v-.679a5.654,5.654,0,0,0-.066-.709v-.078a4.928,4.928,0,0,0-.1-.721c-.036-.24-.06-.36-.1-.541s-.066-.36-.108-.541a1.637,1.637,0,0,0-.054-.234,1.6,1.6,0,0,0-.078-.324c-.024-.108-.072-.294-.12-.444s0-.126-.048-.186a2.293,2.293,0,0,1-.12-.408c-.108-.348-.228-.7-.36-1.039-.06-.156-.12-.318-.186-.475-.144-.348-.3-.7-.469-1.039-.06-.12-.114-.24-.18-.36h0c-.1-.2-.216-.408-.324-.6l-.2-.354c-.072-.12-.138-.24-.21-.354q-.216-.348-.451-.685l-.318-.451c-.162-.222-.336-.439-.5-.649a7.468,7.468,0,0,0-.535-.6c-.18-.18-.246-.276-.372-.4s-.36-.36-.547-.541l-.6-.517c-.132-.108-.258-.222-.391-.324l-.547-.421-.379-.27c-.192-.132-.384-.264-.6-.384l-.6-.36c-.138-.078-.27-.156-.414-.228s-.27-.144-.414-.21l-.385-.186-.541-.24-.409-.168-.18-.066-.192-.072-.384-.138-.493-.156c-.4-.12-.8-.228-1.2-.324l-.571-.12-.541-.1-.18-.03h-.09l-.451-.066c-.186,0-.372-.048-.565-.06h-.252l-.426-.03h-1.532c-.391,0-.769.03-1.153.066l-.378.036a5.414,5.414,0,0,0-.763.1h0l-.757.132c-.252.048-.5.1-.751.162s-.493.12-.739.192l-.679.21a1.116,1.116,0,0,0-.15.054l-.378.1-.222.078-.631.258c-.18.072-.348.156-.523.24l-.457.228a.472.472,0,0,0-.12.066l-.432.234a16.029,16.029,0,0,0-1.82,1.183Zm39.172,33.255v.084l-.961.2.691-.2Z" transform="translate(-9672.539 16330.597)" fill="#82635a"/>
    <path id="Path_25874" data-name="Path 25874" d="M883.415,557.047,868.781,551.5a12.765,12.765,0,0,1,14.633,5.551Zm-35.97-3.9-12.615,3.911A11.864,11.864,0,0,1,847.445,553.143Zm-4.505,4.043c1.664-.523,3.6,1.051,4.4,3.5s.036,4.866-1.628,5.406-3.64-1.051-4.4-3.508S841.269,557.7,842.94,557.185Zm27.65.361c1.742-.156,3.34,1.8,3.568,4.349s-.985,4.763-2.727,4.926-3.334-1.8-3.562-4.355S868.854,557.7,870.59,557.546Z" transform="translate(-9652.905 16297.585)" fill="#101029"/>
    <path id="Path_25875" data-name="Path 25875" d="M863.043,558.79q1.051,5.208,2.114,10.41a2.865,2.865,0,1,0-4.4,3.148l7.659,5.406" transform="translate(-9662.773 16294.448)" fill="#fb6562"/>
    <path id="Path_25876" data-name="Path 25876" d="M862,592.823a22.718,22.718,0,0,0,24.893-9.293,14.345,14.345,0,0,1-8.926,14.657C872.164,600.362,865.051,598.121,862,592.823Z" transform="translate(-9663.754 16284.569)" fill="#fff"/>
    <path id="Path_25877" data-name="Path 25877" d="M659.9,576.686q1.838-12.434,3.67-24.863c.336-2.265-2.2-4.2-4.463-3.869s-3.965,2.4-4.619,4.583a18.406,18.406,0,0,0-.276,6.818,23.665,23.665,0,0,0-7.455-2.066,8.028,8.028,0,0,0-6.908,2.811,12.879,12.879,0,0,0,8.476,20.376c.12.769.24,1.538.354,2.3A31.237,31.237,0,0,1,659.9,576.686Z" transform="translate(-9574.049 16298.79)" fill="#fbb089"/>
    <path id="Path_25878" data-name="Path 25878" d="M673.562,544.912l-20.76,6.866q-1-4.511-1.952-9.281l15.618-6.452S669.213,539.325,673.562,544.912Zm156.615-51.384c0,1.027-.036,2.048-.1,3.051l-.276.084H738.312q-.108-1.55-.108-3.136c0-1.237.048-2.457.144-3.67a46,46,0,0,1,89.462-10.909c.342,1.015.643,2.048.913,3.094A46.108,46.108,0,0,1,830.177,493.528Z" transform="translate(-9579.442 16338.866)" fill="#f75c3d"/>
    <path id="Path_25879" data-name="Path 25879" d="M876.5,529.271l-.691.2h-.066c-1.634.349-5.148,1.075-10,1.988-1.8.33-3.718.691-5.815,1.063-4.565.8-9.845,1.682-15.558,2.523-16.687,2.463-37.075,4.631-54.207,3.977-8.536-.318-16.255-1.346-22.316-3.382-.084-.03,0-.06,0-.144-.4-7.371,17.054-6.223,17.054-6.223h91.625Z" transform="translate(-9626.147 16306.259)" fill="#e44531"/>
  </g>
</svg>
