<svg width="12" height="12" viewBox="0 0 12 12" fill="none" xmlns="http://www.w3.org/2000/svg">
<g clip-path="url(#clip0_5_10)">
<g opacity="0.2">
<path d="M6 11.999C9.31371 11.999 12 9.31273 12 5.99902C12 2.68531 9.31371 -0.000976562 6 -0.000976562C2.68629 -0.000976562 0 2.68531 0 5.99902C0 9.31273 2.68629 11.999 6 11.999Z" fill="black"/>
<path d="M5.41052 5.55075H5.92952V9.18225H6.44852" fill="white"/>
<path d="M5.41052 5.55075H5.92952V9.18225H6.44852" stroke="white" stroke-width="2" stroke-linecap="round" stroke-linejoin="round"/>
<path d="M5.92954 3.99375C6.33878 3.99375 6.67054 3.66199 6.67054 3.25275C6.67054 2.84351 6.33878 2.51175 5.92954 2.51175C5.52029 2.51175 5.18854 2.84351 5.18854 3.25275C5.18854 3.66199 5.52029 3.99375 5.92954 3.99375Z" fill="white"/>
</g>
</g>
<defs>
<clipPath id="clip0_5_10">
<rect width="12" height="12" fill="white"/>
</clipPath>
</defs>
</svg>
