<svg xmlns="http://www.w3.org/2000/svg" xmlns:xlink="http://www.w3.org/1999/xlink" width="44" height="44" viewBox="0 0 44 44">
  <defs>
    <linearGradient id="linear-gradient" x1="0.5" x2="0.5" y2="1" gradientUnits="objectBoundingBox">
      <stop offset="0" stop-color="#74ffac"/>
      <stop offset="1" stop-color="#4adc40"/>
    </linearGradient>
  </defs>
  <g id="Group_62647" data-name="Group 62647" transform="translate(-342 -790)">
    <rect id="Rectangle_2466" data-name="Rectangle 2466" width="44" height="44" rx="10" transform="translate(342 790)" fill="url(#linear-gradient)"/>
    <path id="scan_1_" data-name="scan (1)" d="M23.526,10.252a.8.8,0,0,1,.768.363.78.78,0,0,1,0,.841.8.8,0,0,1-.768.363H22.4v2.955a5.16,5.16,0,0,1-1.537,3.68,5.3,5.3,0,0,1-3.725,1.525h-.863a.789.789,0,1,1,0-1.577h.863a3.651,3.651,0,0,0,3.632-3.627h0V11.818H17.774V13a2.455,2.455,0,0,1-.733,1.747,2.52,2.52,0,0,1-1.77.724H9.178A2.487,2.487,0,0,1,6.675,13h0V11.818H3.724v2.955A3.651,3.651,0,0,0,7.4,18.4h.916a.789.789,0,1,1,0,1.577H7.452a5.293,5.293,0,0,1-5.326-5.2h0V11.818H.891a.8.8,0,0,1-.768-.363.78.78,0,0,1,0-.841.8.8,0,0,1,.768-.363H23.526ZM15.26,4.511a2.52,2.52,0,0,1,1.77.724,2.455,2.455,0,0,1,.733,1.747h0V8.338a.282.282,0,0,1-.084.211.29.29,0,0,1-.214.083H6.973a.29.29,0,0,1-.214-.083.282.282,0,0,1-.084-.211h0V6.982a2.487,2.487,0,0,1,2.5-2.471H15.26ZM17.135,0a5.29,5.29,0,0,1,5.23,5.257h0V6.382a.8.8,0,0,1-1.6,0h0V5.257a3.6,3.6,0,0,0-1.042-2.584,3.7,3.7,0,0,0-2.59-1.1h-.863a.794.794,0,0,1-.8-.789.794.794,0,0,1,.8-.789h.863ZM8.262,0a.8.8,0,0,1,.8.789.8.8,0,0,1-.8.789H7.4A3.7,3.7,0,0,0,4.782,2.658a3.6,3.6,0,0,0-1.057,2.6h0V6.382a.8.8,0,0,1-.8.789H2.915l-.107-.008a.792.792,0,0,1-.681-.78h0V5.257A5.291,5.291,0,0,1,7.4,0h.863Z" transform="translate(351.792 802.011)" fill="#fff"/>
  </g>
</svg>
