<svg xmlns="http://www.w3.org/2000/svg" width="13.75" height="20" viewBox="0 0 13.75 20">
  <path id="trash" d="M18.5,1.25H16A1.25,1.25,0,0,0,14.75,0H11A1.25,1.25,0,0,0,9.75,1.25H7.25A1.25,1.25,0,0,0,6,2.5H19.75A1.25,1.25,0,0,0,18.5,1.25ZM6,18.75A1.25,1.25,0,0,0,7.25,20H18.5a1.25,1.25,0,0,0,1.25-1.25v-15H6ZM16,6.875a.625.625,0,0,1,1.25,0v10a.625.625,0,0,1-1.25,0Zm-3.75,0a.625.625,0,0,1,1.25,0v10a.625.625,0,0,1-1.25,0Zm-3.75,0a.625.625,0,0,1,1.25,0v10a.625.625,0,0,1-1.25,0Z" transform="translate(-6)" fill="#fff"/>
</svg>
