<svg xmlns="http://www.w3.org/2000/svg" width="36.747" height="23.623" viewBox="0 0 36.747 23.623">
  <g id="Group_66039" data-name="Group 66039" transform="translate(-26)">
    <path id="upload" d="M62.029,121.941c0-.1.016-.2.016-.3A9.566,9.566,0,0,0,52.555,112,9.461,9.461,0,0,0,44,117.5a4.859,4.859,0,0,0-2.2-.533,4.921,4.921,0,0,0-4.823,4.142,7.474,7.474,0,0,0,2.362,14.518h8.408v-6.562H43.8l6.578-6.865,6.578,6.857H53v6.562h9.047a6.838,6.838,0,0,0-.016-13.674Z" transform="translate(-6 -112)" fill="#5e666c"/>
  </g>
</svg>
