<svg xmlns="http://www.w3.org/2000/svg" width="79.5" height="79.5" viewBox="0 0 79.5 79.5">
  <g id="Group_66040" data-name="Group 66040" transform="translate(-65.67 -65.25)">
    <path id="Path_20282" data-name="Path 20282" d="M220.989,101.627H207.365V88a.72.72,0,0,0-.718-.717h-4.3a.72.72,0,0,0-.718.717v13.625H188a.719.719,0,0,0-.717.718v4.3a.719.719,0,0,0,.717.718h13.625v13.625a.719.719,0,0,0,.718.717h4.3a.719.719,0,0,0,.718-.717V107.365h13.625a.719.719,0,0,0,.717-.718v-4.3A.719.719,0,0,0,220.989,101.627Z" transform="translate(-98.425 0.952)" fill="#f09030"/>
    <path id="Path_25780" data-name="Path 25780" d="M37.5,0h3A37.5,37.5,0,0,1,78,37.5v3A37.5,37.5,0,0,1,40.5,78h-3A37.5,37.5,0,0,1,0,40.5v-3A37.5,37.5,0,0,1,37.5,0Z" transform="translate(66.42 66)" fill="none" stroke="#f09030" stroke-width="1.5" stroke-dasharray="5 2"/>
  </g>
</svg>
