<svg width="365" height="307" viewBox="0 0 365 307" fill="none" xmlns="http://www.w3.org/2000/svg">
<g clip-path="url(#clip0_30_25)">
<path d="M242.636 234.023C202.848 266.577 191.833 243.439 148.24 213.426C130.004 200.87 88.882 196.598 58.3708 179.186C-4.96778 143.04 18.8216 76.0463 75.2547 29.8704C102.355 7.69718 137.162 -2.81358 172.02 0.650395C206.877 4.11437 238.93 21.2693 261.126 48.3414C283.322 75.4134 293.843 110.185 290.376 145.007C286.908 179.828 269.736 211.848 242.636 234.021V234.023Z" fill="#E2EEFC"/>
<path d="M308.672 262.783C311.049 256.747 313.446 250.036 311.218 243.942C310.677 242.462 309.862 240.894 310.351 239.396C311.011 237.372 313.676 236.65 314.577 234.721C315.569 232.601 314.013 230.103 314.416 227.799C314.826 225.456 317.122 223.936 319.348 223.092C321.574 222.248 324.021 221.736 325.816 220.173C329.267 217.164 328.852 211.779 328.093 207.266C327.333 202.753 326.765 197.428 330.067 194.256C323.993 195.416 317.771 196.632 312.489 199.844C307.207 203.057 302.982 208.742 303.291 214.911C303.446 218.006 304.672 221.307 303.254 224.063C301.724 227.041 297.601 228.196 296.562 231.377C295.367 235.032 298.933 238.342 300.343 241.921C301.665 245.282 301.039 249.051 301.335 252.65C301.632 256.248 303.522 260.321 307.097 260.859L308.672 262.783Z" fill="#303C42"/>
<path d="M306.211 254.846C306.152 237.286 309.541 200.537 329.851 194.402" stroke="white" stroke-width="0.75" stroke-linecap="round"/>
<path d="M294.514 261.311C290.898 254.569 287.168 247.042 288.936 239.601C289.365 237.793 290.104 235.846 289.326 234.158C288.278 231.88 285.056 231.4 283.733 229.267C282.282 226.92 283.755 223.782 282.965 221.138C282.159 218.45 279.265 216.988 276.542 216.304C273.819 215.62 270.884 215.359 268.566 213.774C264.109 210.727 263.854 204.364 264.122 198.976C264.389 193.588 264.32 187.274 260.017 184.015C267.29 184.538 274.741 185.105 281.368 188.141C287.995 191.177 293.728 197.251 294.215 204.518C294.456 208.163 293.477 212.197 295.518 215.228C297.721 218.503 302.706 219.29 304.362 222.875C306.264 226.99 302.545 231.355 301.388 235.739C300.302 239.856 301.555 244.184 301.703 248.439C301.852 252.694 300.2 257.721 296.089 258.842L294.514 261.311Z" fill="#303C42"/>
<path d="M296.303 251.679C293.953 231.111 284.922 188.548 260.297 184.158" stroke="white" stroke-width="0.75" stroke-linecap="round"/>
<path d="M317.346 300.861H285.603C284.54 300.858 283.522 300.435 282.771 299.685C282.019 298.934 281.596 297.917 281.593 296.856L278.919 251.123C278.923 250.062 279.346 249.045 280.097 248.294C280.849 247.544 281.867 247.121 282.929 247.117H320.02C321.082 247.121 322.1 247.544 322.852 248.294C323.603 249.045 324.026 250.062 324.03 251.123L321.356 296.856C321.353 297.917 320.93 298.934 320.178 299.685C319.427 300.435 318.409 300.858 317.346 300.861Z" fill="#4B5E68"/>
<path d="M37.7341 274.907C36.1139 270.792 34.4799 266.219 35.9978 262.065C36.366 261.056 36.9228 259.988 36.5892 258.966C36.1397 257.587 34.3228 257.094 33.7081 255.781C33.0321 254.332 34.0916 252.633 33.8169 251.062C33.5373 249.465 31.9727 248.429 30.4556 247.853C28.9385 247.277 27.2699 246.929 26.0469 245.863C23.6943 243.813 23.9771 240.142 24.4951 237.066C25.0132 233.991 25.3999 230.361 23.1497 228.199C27.2892 228.989 31.5287 229.817 35.1301 232.007C38.7315 234.197 41.6118 238.072 41.3999 242.277C41.2936 244.387 40.4581 246.636 41.4249 248.515C42.4723 250.543 45.2785 251.332 45.9867 253.499C46.8012 255.994 44.3697 258.248 43.4085 260.686C42.507 262.976 42.934 265.546 42.7317 267.999C42.5295 270.452 41.242 273.231 38.8048 273.594L37.7325 274.906L37.7341 274.907Z" fill="#303C42"/>
<path d="M39.4116 269.497C39.4519 257.529 37.142 232.48 23.298 228.299" stroke="white" stroke-width="0.75" stroke-linecap="round"/>
<path d="M47.3845 273.904C49.8483 269.308 52.3919 264.178 51.1866 259.106C50.8933 257.873 50.3905 256.546 50.9207 255.396C51.6369 253.843 53.8324 253.516 54.7332 252.062C55.7233 250.462 54.7179 248.323 55.2561 246.522C55.8039 244.69 57.7778 243.693 59.6341 243.227C61.4904 242.761 63.4909 242.583 65.0701 241.503C68.1075 239.425 68.2815 235.089 68.0986 231.416C67.9157 227.744 67.9633 223.44 70.8959 221.218C65.9402 221.575 60.8604 221.962 56.3429 224.031C51.8255 226.1 47.9179 230.24 47.5868 235.194C47.4208 237.678 48.0895 240.425 46.7005 242.494C45.1987 244.725 41.8012 245.261 40.6724 247.703C39.3753 250.507 41.9116 253.483 42.6995 256.471C43.4399 259.277 42.5859 262.228 42.4844 265.128C42.3829 268.027 43.5092 271.454 46.3114 272.218L47.3845 273.904Z" fill="#303C42"/>
<path d="M46.1655 267.339C47.7672 253.32 53.9226 224.309 70.7074 221.317" stroke="white" stroke-width="0.75" stroke-linecap="round"/>
<path d="M31.8212 300.861H53.4602C54.1846 300.859 54.8789 300.571 55.3912 300.059C55.9036 299.548 56.1921 298.854 56.1938 298.131L58.0163 266.959C58.0146 266.236 57.726 265.542 57.2137 265.031C56.7014 264.519 56.007 264.231 55.2826 264.229H29.9995C29.2751 264.231 28.5808 264.519 28.0685 265.031C27.5562 265.542 27.2676 266.236 27.2659 266.959L29.0883 298.131C29.09 298.854 29.3785 299.547 29.8906 300.059C30.4028 300.571 31.0969 300.859 31.8212 300.861Z" fill="#4B5E68"/>
<path d="M316.742 14.3537V167.758C316.738 169.389 316.088 170.951 314.935 172.104C313.781 173.257 312.218 173.907 310.586 173.912H66.5452C64.9123 173.908 63.3472 173.259 62.1921 172.106C61.037 170.953 60.3859 169.39 60.381 167.758V14.3537C60.3861 12.7236 61.0369 11.1617 62.1912 10.0093C63.3454 8.85698 64.9094 8.20789 66.5412 8.20386H310.582C312.214 8.20704 313.778 8.85587 314.933 10.0084C316.087 11.1609 316.738 12.7233 316.742 14.3537Z" stroke="#E08488" stroke-width="2"/>
<path d="M324.747 6.35751V159.762C324.747 160.642 324.557 161.512 324.19 162.312C323.824 163.113 323.289 163.825 322.623 164.4C322.429 164.573 322.224 164.733 322.008 164.877C320.999 165.556 319.809 165.918 318.592 165.917H74.5513C73.334 165.918 72.1442 165.556 71.1344 164.877C70.2911 164.315 69.5993 163.555 69.12 162.663C68.6407 161.771 68.3887 160.775 68.3862 159.762V6.35751C68.3913 4.72734 69.0421 3.16544 70.1964 2.0131C71.3507 0.860768 72.9146 0.211675 74.5465 0.207642H318.587C320.219 0.210828 321.784 0.859652 322.938 2.01217C324.093 3.16469 324.743 4.72708 324.747 6.35751Z" fill="#E2EEFC"/>
<path opacity="0.1" d="M192.066 133.049C218.534 133.049 239.991 111.614 239.991 85.1734C239.991 58.7323 218.534 37.2976 192.066 37.2976C165.597 37.2976 144.14 58.7323 144.14 85.1734C144.14 111.614 165.597 133.049 192.066 133.049Z" fill="#CA3F3F"/>
<path d="M196.276 137.255C222.744 137.255 244.201 115.821 244.201 89.3795C244.201 62.9384 222.744 41.5037 196.276 41.5037C169.808 41.5037 148.351 62.9384 148.351 89.3795C148.351 115.821 169.808 137.255 196.276 137.255Z" stroke="#EFE7EB"/>
<path opacity="0.55" d="M175.007 50.7225C174.743 50.6946 174.479 50.6775 174.213 50.671L173.661 50.659C171.75 50.548 169.865 51.1398 168.361 52.3226L163.833 56.136C165.337 54.9532 167.222 54.3614 169.133 54.4723L169.685 54.4844C169.951 54.4909 170.216 54.508 170.479 54.5359C172.793 54.7519 174.948 55.8083 176.534 57.505L191.808 74.6741L196.336 70.8607L181.062 53.6916C179.476 51.9947 177.321 50.9382 175.007 50.7225ZM227.497 102.849L207.131 81.0799L222.149 61.551C225.124 57.6821 221.358 52.3049 215.553 51.6956C215.277 51.6666 214.997 51.6481 214.705 51.6409C212.787 51.545 210.898 52.1453 209.388 53.3311L204.86 57.1445C206.37 55.9588 208.259 55.3585 210.177 55.4543C210.46 55.4612 210.743 55.4795 211.025 55.509C216.826 56.1183 220.596 61.4955 217.621 65.3644L202.603 84.8933L222.969 106.662C225.521 109.391 225.117 112.66 222.822 114.592L227.35 110.778C229.644 108.846 230.048 105.577 227.497 102.849Z" fill="#D63437"/>
<path d="M211.025 55.5082C216.826 56.1174 220.596 61.4946 217.621 65.3636L202.603 84.8925L222.969 106.661C226.917 110.885 223.786 116.4 217.523 116.254L216.948 116.24C216.68 116.233 216.414 116.216 216.151 116.188C213.856 115.972 211.718 114.933 210.132 113.263L193.554 94.8959L180.554 112.569C179.801 113.472 178.844 114.184 177.762 114.644C176.68 115.105 175.503 115.302 174.33 115.218C174.05 115.211 173.77 115.193 173.491 115.165C167.683 114.554 163.917 109.176 166.898 105.304L182.86 84.5931L163.685 64.0581C159.737 59.835 162.872 54.3194 169.133 54.4707L169.686 54.4828C169.951 54.4892 170.216 54.5064 170.48 54.5343C172.794 54.7504 174.948 55.8068 176.535 57.5034L191.808 74.6725L203.945 58.1118C204.698 57.2062 205.656 56.4928 206.74 56.0309C207.823 55.569 209.002 55.3718 210.177 55.4558C210.46 55.4617 210.743 55.4792 211.025 55.5082Z" fill="#CA3F3F"/>
<path d="M324.747 6.35751V14.0342H68.3862V6.35751C68.3913 4.72734 69.0421 3.16544 70.1964 2.0131C71.3507 0.860768 72.9146 0.211675 74.5465 0.207642H318.587C320.219 0.210828 321.784 0.859652 322.938 2.01217C324.093 3.16469 324.743 4.72708 324.747 6.35751ZM158.527 32.4121H80.6326C79.9131 32.41 79.2238 32.1236 78.715 31.6154C78.2063 31.1072 77.9196 30.4185 77.9174 29.6998V28.0136C77.9196 27.2949 78.2063 26.6063 78.715 26.0981C79.2238 25.5899 79.9131 25.3034 80.6326 25.3013H158.526C159.245 25.3034 159.935 25.5899 160.443 26.0981C160.952 26.6063 161.239 27.2949 161.241 28.0136V29.6982C161.239 30.4173 160.953 31.1065 160.445 31.6153C159.936 32.1242 159.246 32.4112 158.527 32.4138L158.527 32.4121ZM136.722 43.841H80.2434C79.6277 43.8381 79.038 43.5924 78.6026 43.1574C78.1671 42.7225 77.9212 42.1334 77.9182 41.5182V39.0546C77.9212 38.4395 78.1671 37.8504 78.6026 37.4154C79.038 36.9804 79.6277 36.7348 80.2434 36.7318H136.722C137.337 36.7348 137.927 36.9804 138.363 37.4154C138.798 37.8504 139.044 38.4395 139.047 39.0546V41.5182C139.044 42.1332 138.798 42.7221 138.362 43.1569C137.927 43.5917 137.337 43.8381 136.722 43.841ZM142.792 55.1089H80.3603C79.7136 55.107 79.094 54.8496 78.6367 54.3928C78.1795 53.936 77.9218 53.317 77.9198 52.6711V50.436C77.9218 49.79 78.1795 49.171 78.6367 48.7142C79.094 48.2575 79.7136 48 80.3603 47.9981H142.793C143.44 48 144.06 48.2575 144.517 48.7142C144.974 49.171 145.232 49.79 145.234 50.436V52.6711C145.232 53.3172 144.974 53.9362 144.516 54.3928C144.058 54.8495 143.438 55.1067 142.792 55.1082L142.792 55.1089ZM315.153 159.427H275.128C273.971 159.424 272.863 158.963 272.044 158.146C271.226 157.329 270.765 156.222 270.762 155.066V120.538C270.765 119.382 271.226 118.275 272.044 117.457C272.863 116.64 273.971 116.18 275.128 116.176H315.152C316.309 116.18 317.417 116.64 318.235 117.457C319.053 118.275 319.514 119.382 319.518 120.538V155.066C319.514 156.221 319.053 157.329 318.236 158.146C317.418 158.963 316.309 159.424 315.153 159.427Z" fill="#CA3F3F"/>
<path d="M158.527 32.4129H80.6342C79.9148 32.4108 79.2254 32.1243 78.7167 31.6161C78.2079 31.1079 77.9212 30.4193 77.9191 29.7006V28.0152C77.9212 27.2965 78.2079 26.6078 78.7167 26.0996C79.2254 25.5914 79.9148 25.305 80.6342 25.3029H158.527C159.247 25.305 159.936 25.5914 160.445 26.0996C160.954 26.6078 161.24 27.2965 161.243 28.0152V29.7014C161.24 30.42 160.953 31.1085 160.444 31.6165C159.935 32.1245 159.246 32.4108 158.527 32.4129ZM136.721 43.8418H80.2427C79.6269 43.8384 79.0373 43.5923 78.6022 43.1571C78.1671 42.7218 77.9216 42.1325 77.9191 41.5174V39.0529C77.922 38.4378 78.168 37.8487 78.6034 37.4137C79.0388 36.9788 79.6285 36.7331 80.2443 36.7301H136.722C137.338 36.7331 137.928 36.9788 138.363 37.4137C138.799 37.8487 139.045 38.4378 139.048 39.0529V41.5174C139.045 42.1328 138.799 42.7221 138.363 43.1572C137.927 43.5922 137.337 43.8377 136.721 43.8402V43.8418ZM142.792 55.1097H80.3595C79.7121 55.1078 79.0919 54.8498 78.6345 54.3921C78.1772 53.9345 77.9199 53.3145 77.9191 52.6678V50.4335C77.921 49.7875 78.1787 49.1686 78.636 48.7118C79.0932 48.255 79.7128 47.9976 80.3595 47.9956H142.792C143.439 47.9976 144.059 48.255 144.516 48.7118C144.973 49.1686 145.231 49.7875 145.233 50.4335V52.6678C145.232 53.3143 144.974 53.934 144.517 54.3914C144.059 54.8487 143.439 55.1064 142.792 55.1081V55.1097ZM315.153 159.427H275.128C273.971 159.424 272.863 158.963 272.045 158.146C271.226 157.329 270.765 156.221 270.762 155.066V120.538C270.765 119.382 271.226 118.275 272.045 117.457C272.863 116.64 273.971 116.18 275.128 116.176H315.152C316.309 116.18 317.417 116.64 318.235 117.457C319.053 118.275 319.514 119.382 319.518 120.538V155.066C319.514 156.221 319.053 157.329 318.236 158.146C317.418 158.963 316.309 159.424 315.153 159.427Z" fill="#FEBE3D"/>
<path opacity="0.1" d="M361.468 307H3.52807C2.59308 306.997 1.69718 306.625 1.03612 305.964C0.37505 305.304 0.00255055 304.409 0 303.475V293.62C0.00255055 292.686 0.37505 291.791 1.03612 291.13C1.69718 290.47 2.59308 290.098 3.52807 290.095H361.468C362.403 290.098 363.299 290.47 363.96 291.13C364.621 291.791 364.994 292.686 364.997 293.62V303.471C364.994 304.406 364.621 305.301 363.96 305.961C363.299 306.622 362.403 306.994 361.468 306.997V307Z" fill="#E44531"/>
<path d="M308.672 262.783C311.049 256.747 313.446 250.036 311.218 243.942C310.677 242.462 309.862 240.894 310.351 239.396C311.01 237.372 313.676 236.65 314.577 234.721C315.569 232.601 314.013 230.103 314.416 227.799C314.826 225.456 317.122 223.936 319.348 223.092C321.574 222.248 324.021 221.736 325.816 220.173C329.267 217.164 328.852 211.779 328.093 207.266C327.333 202.753 326.765 197.428 330.066 194.256C323.992 195.416 317.771 196.632 312.489 199.844C307.207 203.057 302.982 208.742 303.29 214.911C303.446 218.006 304.672 221.307 303.254 224.063C301.723 227.041 297.601 228.196 296.561 231.377C295.367 235.032 298.933 238.342 300.342 241.921C301.665 245.282 301.039 249.051 301.335 252.65C301.632 256.248 303.522 260.321 307.096 260.859L308.672 262.783Z" fill="#38385C"/>
<path d="M306.211 254.846C306.152 237.286 309.541 200.537 329.851 194.402" stroke="white" stroke-width="0.75" stroke-linecap="round"/>
<path d="M294.513 261.311C290.898 254.569 287.168 247.042 288.936 239.601C289.365 237.793 290.104 235.846 289.326 234.159C288.278 231.88 285.055 231.4 283.733 229.267C282.282 226.921 283.755 223.782 282.965 221.138C282.159 218.45 279.265 216.988 276.542 216.304C273.819 215.62 270.884 215.359 268.566 213.774C264.109 210.727 263.854 204.364 264.121 198.976C264.389 193.588 264.32 187.274 260.017 184.015C267.289 184.538 274.741 185.105 281.368 188.141C287.995 191.177 293.728 197.251 294.214 204.518C294.456 208.163 293.477 212.197 295.518 215.228C297.721 218.503 302.706 219.29 304.362 222.875C306.264 226.99 302.544 231.355 301.388 235.739C300.302 239.856 301.555 244.184 301.703 248.439C301.851 252.694 300.2 257.721 296.088 258.842L294.513 261.311Z" fill="#38385C"/>
<path d="M296.303 251.679C293.953 231.111 284.922 188.548 260.297 184.158" stroke="white" stroke-width="0.75" stroke-linecap="round"/>
<path d="M317.346 300.861H285.603C284.54 300.858 283.522 300.435 282.771 299.685C282.019 298.934 281.596 297.917 281.593 296.856L278.919 251.123C278.923 250.062 279.346 249.045 280.097 248.294C280.849 247.544 281.867 247.121 282.929 247.117H320.02C321.082 247.121 322.1 247.544 322.852 248.294C323.603 249.045 324.026 250.062 324.029 251.123L321.356 296.856C321.353 297.917 320.93 298.934 320.178 299.685C319.427 300.435 318.409 300.858 317.346 300.861Z" fill="#465C75"/>
<path d="M37.7341 274.907C36.1139 270.792 34.4799 266.219 35.9978 262.065C36.366 261.056 36.9228 259.988 36.5892 258.966C36.1397 257.587 34.3228 257.094 33.7081 255.781C33.0321 254.332 34.0916 252.633 33.8169 251.062C33.5373 249.465 31.9727 248.429 30.4556 247.853C28.9385 247.277 27.2699 246.929 26.0469 245.863C23.6943 243.813 23.9771 240.142 24.4951 237.066C25.0132 233.991 25.3999 230.361 23.1497 228.199C27.2892 228.989 31.5287 229.817 35.1301 232.007C38.7315 234.197 41.6118 238.072 41.3999 242.277C41.2936 244.387 40.4581 246.636 41.4249 248.515C42.4723 250.543 45.2785 251.332 45.9867 253.499C46.8012 255.994 44.3697 258.248 43.4085 260.686C42.507 262.976 42.934 265.546 42.7317 267.999C42.5295 270.452 41.242 273.231 38.8048 273.594L37.7325 274.906L37.7341 274.907Z" fill="#38385C"/>
<path d="M39.4115 269.497C39.4518 257.529 37.1419 232.48 23.2979 228.299" stroke="white" stroke-width="0.75" stroke-linecap="round"/>
<path d="M47.3845 273.904C49.8483 269.308 52.3919 264.178 51.1866 259.106C50.8933 257.873 50.3905 256.546 50.9207 255.396C51.6369 253.843 53.8324 253.516 54.7332 252.062C55.7233 250.462 54.7179 248.323 55.2561 246.522C55.8039 244.69 57.7778 243.693 59.6341 243.227C61.4904 242.761 63.4909 242.583 65.0701 241.503C68.1075 239.425 68.2815 235.089 68.0986 231.416C67.9157 227.744 67.9633 223.44 70.8959 221.218C65.9402 221.575 60.8604 221.962 56.3429 224.031C51.8255 226.1 47.9179 230.24 47.5868 235.194C47.4208 237.678 48.0895 240.425 46.7005 242.494C45.1987 244.725 41.8012 245.261 40.6724 247.703C39.3753 250.507 41.9116 253.483 42.6995 256.471C43.4399 259.277 42.5859 262.228 42.4844 265.128C42.3829 268.027 43.5092 271.454 46.3114 272.218L47.3845 273.904Z" fill="#38385C"/>
<path d="M46.1655 267.339C47.7672 253.32 53.9226 224.309 70.7074 221.317" stroke="white" stroke-width="0.75" stroke-linecap="round"/>
<path d="M31.8212 300.861H53.4602C54.1846 300.859 54.8789 300.571 55.3912 300.059C55.9036 299.548 56.1921 298.854 56.1938 298.131L58.0163 266.959C58.0146 266.236 57.726 265.542 57.2137 265.031C56.7014 264.519 56.007 264.231 55.2826 264.229H29.9995C29.2751 264.231 28.5808 264.519 28.0685 265.031C27.5562 265.542 27.2676 266.236 27.2659 266.959L29.0883 298.131C29.09 298.854 29.3785 299.547 29.8906 300.059C30.4028 300.571 31.0969 300.859 31.8212 300.861Z" fill="#465C75"/>
<path d="M316.742 14.3537V167.758C316.738 169.389 316.088 170.951 314.935 172.104C313.781 173.257 312.218 173.907 310.586 173.912H66.5452C64.9123 173.908 63.3472 173.259 62.1921 172.106C61.037 170.953 60.3859 169.39 60.381 167.758V14.3537C60.3861 12.7236 61.0369 11.1617 62.1912 10.0093C63.3454 8.85698 64.9094 8.20789 66.5412 8.20386H310.582C312.214 8.20704 313.778 8.85587 314.933 10.0084C316.087 11.1609 316.738 12.7233 316.742 14.3537Z" stroke="#EB883B" stroke-width="2"/>
<path d="M324.747 6.35751V159.762C324.747 160.642 324.557 161.512 324.19 162.312C323.824 163.113 323.289 163.825 322.623 164.4C322.429 164.573 322.224 164.733 322.008 164.877C320.999 165.556 319.809 165.918 318.592 165.917H74.5513C73.334 165.918 72.1442 165.556 71.1344 164.877C70.2911 164.315 69.5993 163.555 69.12 162.663C68.6407 161.771 68.3887 160.775 68.3862 159.762V6.35751C68.3913 4.72734 69.0421 3.16544 70.1964 2.0131C71.3507 0.860768 72.9146 0.211675 74.5465 0.207642H318.587C320.219 0.210828 321.784 0.859652 322.938 2.01217C324.093 3.16469 324.743 4.72708 324.747 6.35751Z" fill="#FEBE3D"/>
<path d="M192.065 133.049C218.534 133.049 239.991 111.614 239.991 85.1734C239.991 58.7323 218.534 37.2976 192.065 37.2976C165.597 37.2976 144.14 58.7323 144.14 85.1734C144.14 111.614 165.597 133.049 192.065 133.049Z" fill="white"/>
<path d="M196.276 137.255C222.744 137.255 244.201 115.821 244.201 89.3795C244.201 62.9384 222.744 41.5037 196.276 41.5037C169.808 41.5037 148.351 62.9384 148.351 89.3795C148.351 115.821 169.808 137.255 196.276 137.255Z" stroke="#EFE7EB"/>
<path opacity="0.55" d="M175.007 50.7225C174.743 50.6946 174.478 50.6775 174.213 50.671L173.66 50.659C171.75 50.548 169.864 51.1398 168.361 52.3226L163.833 56.136C165.337 54.9532 167.222 54.3614 169.133 54.4723L169.685 54.4844C169.951 54.4909 170.216 54.508 170.479 54.5359C172.793 54.7519 174.948 55.8083 176.534 57.505L191.808 74.6741L196.336 70.8607L181.062 53.6916C179.476 51.9947 177.321 50.9382 175.007 50.7225ZM227.497 102.849L207.131 81.0799L222.149 61.551C225.124 57.6821 221.358 52.3049 215.553 51.6956C215.277 51.6666 214.997 51.6481 214.705 51.6409C212.787 51.545 210.898 52.1453 209.388 53.3311L204.86 57.1445C206.37 55.9588 208.259 55.3585 210.177 55.4543C210.46 55.4612 210.743 55.4795 211.025 55.509C216.826 56.1183 220.596 61.4955 217.621 65.3644L202.603 84.8933L222.969 106.662C225.521 109.391 225.117 112.66 222.822 114.592L227.35 110.778C229.644 108.846 230.048 105.577 227.497 102.849Z" fill="#E44531"/>
<path d="M211.025 55.5082C216.826 56.1174 220.596 61.4946 217.621 65.3636L202.603 84.8925L222.969 106.661C226.917 110.885 223.786 116.4 217.523 116.254L216.948 116.24C216.68 116.233 216.414 116.216 216.15 116.188C213.856 115.972 211.718 114.933 210.132 113.263L193.554 94.8959L180.554 112.569C179.801 113.472 178.844 114.184 177.762 114.644C176.68 115.105 175.503 115.302 174.33 115.218C174.05 115.211 173.77 115.193 173.49 115.165C167.683 114.554 163.917 109.176 166.898 105.304L182.86 84.5931L163.685 64.0581C159.737 59.835 162.872 54.3194 169.133 54.4707L169.686 54.4828C169.951 54.4892 170.216 54.5064 170.48 54.5343C172.794 54.7504 174.948 55.8068 176.535 57.5034L191.808 74.6725L203.945 58.1118C204.698 57.2062 205.656 56.4928 206.74 56.0309C207.823 55.569 209.002 55.3718 210.177 55.4558C210.46 55.4617 210.743 55.4792 211.025 55.5082Z" fill="#E44531"/>
<path d="M324.747 6.35751V14.0342H68.3862V6.35751C68.3913 4.72734 69.0421 3.16544 70.1964 2.0131C71.3507 0.860768 72.9146 0.211675 74.5465 0.207642H318.587C320.219 0.210828 321.784 0.859652 322.938 2.01217C324.093 3.16469 324.743 4.72708 324.747 6.35751Z" fill="#EB883B"/>
<path d="M315.153 159.427H275.128C273.971 159.424 272.863 158.963 272.044 158.146C271.226 157.329 270.765 156.222 270.762 155.066V120.538C270.765 119.382 271.226 118.275 272.044 117.457C272.863 116.64 273.971 116.18 275.128 116.176H315.152C316.309 116.18 317.417 116.64 318.235 117.457C319.053 118.275 319.514 119.382 319.518 120.538V155.066C319.514 156.221 319.053 157.329 318.236 158.146C317.418 158.963 316.309 159.424 315.153 159.427Z" fill="#FEBE3D"/>
<path d="M158.527 32.413H80.6341C79.9146 32.4109 79.2253 32.1244 78.7165 31.6162C78.2078 31.108 77.9211 30.4193 77.9189 29.7006V28.0153C77.9211 27.2966 78.2078 26.6079 78.7165 26.0997C79.2253 25.5915 79.9146 25.305 80.6341 25.3029H158.527C159.247 25.305 159.936 25.5915 160.445 26.0997C160.954 26.6079 161.24 27.2966 161.242 28.0153V29.7014C161.24 30.4201 160.953 31.1085 160.444 31.6165C159.935 32.1245 159.246 32.4109 158.527 32.413ZM136.721 43.8419H80.2425C79.6268 43.8385 79.0372 43.5924 78.6021 43.1571C78.167 42.7218 77.9215 42.1326 77.9189 41.5174V39.053C77.9219 38.4379 78.1678 37.8488 78.6033 37.4138C79.0387 36.9788 79.6284 36.7332 80.2441 36.7302H136.722C137.338 36.7332 137.928 36.9788 138.363 37.4138C138.799 37.8488 139.045 38.4379 139.048 39.053V41.5174C139.045 42.1329 138.798 42.7222 138.363 43.1572C137.927 43.5922 137.337 43.8377 136.721 43.8403V43.8419ZM142.792 55.1098H80.3593C79.712 55.1079 79.0918 54.8498 78.6344 54.3922C78.177 53.9345 77.9198 53.3145 77.9189 52.6679V50.4336C77.9209 49.7876 78.1786 49.1686 78.6358 48.7119C79.0931 48.2551 79.7127 47.9976 80.3593 47.9957H142.792C143.439 47.9976 144.059 48.2551 144.516 48.7119C144.973 49.1686 145.231 49.7876 145.233 50.4336V52.6679C145.232 53.3144 144.974 53.9341 144.516 54.3914C144.059 54.8488 143.439 55.1065 142.792 55.1082V55.1098Z" fill="white"/>
</g>
<defs>
<clipPath id="clip0_30_25">
<rect width="365" height="307" fill="white"/>
</clipPath>
</defs>
</svg>
