<svg xmlns="http://www.w3.org/2000/svg" width="30" height="30" viewBox="0 0 30 30">
  <g id="Group_62660" data-name="Group 62660" transform="translate(-1286.053 -622.053)">
    <path id="Path_26549" data-name="Path 26549" d="M15,0A15,15,0,1,1,0,15,15,15,0,0,1,15,0Z" transform="translate(1286.053 622.053)" fill="#fc4149" opacity="0.881"/>
    <path id="move_1_" data-name="move (1)" d="M17.626,8.595a.72.72,0,0,1-.238.553L14.6,11.915a.761.761,0,0,1-.552.219A.741.741,0,0,1,13.5,11.9a.8.8,0,0,1,0-1.123l1.443-1.463-5.6.018-.018,5.6,1.443-1.443a.792.792,0,1,1,1.12,1.12L9.1,17.391a.794.794,0,0,1-.572.238.741.741,0,0,1-.551-.235l-2.77-2.75a.785.785,0,0,1,0-1.123.762.762,0,0,1,1.1,0l1.434,1.434.018-5.6-5.577.018,1.434,1.454a.809.809,0,0,1,0,1.143.783.783,0,0,1-.553.238.773.773,0,0,1-.551-.235L-.269,9.2A.711.711,0,0,1-.5,8.653.72.72,0,0,1-.265,8.1L2.523,5.313a.785.785,0,1,1,1.12,1.1L2.2,7.8l5.577-.018.018-5.6L6.351,3.626a.779.779,0,0,1-1.1,0,.8.8,0,0,1,0-1.123L8.038-.262a.762.762,0,0,1,1.1,0l2.789,2.75a.8.8,0,0,1-.556,1.361.741.741,0,0,1-.551-.235L9.371,2.177l-.018,5.6,5.577-.018L13.5,6.361a.739.739,0,0,1,0-1.084.785.785,0,0,1,1.123,0l2.77,2.77a.711.711,0,0,1,.235.551Z" transform="translate(1300.89 624.778) rotate(45)" fill="#fff"/>
  </g>
</svg>
