<svg xmlns="http://www.w3.org/2000/svg" width="45.78" height="46" viewBox="0 0 45.78 46">
  <path id="after-draft-click" d="M45.627,23.81,36.1,35.31a10.972,10.972,0,0,1,7.252,6.08l9.156-12.013a7.765,7.765,0,0,0-6.885-5.567Zm4.615-5.787L47.824,20.88a10.837,10.837,0,0,1,3.882,1.978,10.26,10.26,0,0,1,2.857,3.516l2.417-3.223A6.017,6.017,0,0,0,50.241,18.024ZM41.012,43.441a7.676,7.676,0,0,0-6.519-5.2l-2.124,8.936,8.643-3.736Zm-8.643-7.325L46.726,18.024V11.578A1.969,1.969,0,0,0,44.748,9.6H13.178A2.017,2.017,0,0,0,11.2,11.578V53.622A2.017,2.017,0,0,0,13.178,55.6H44.821A1.969,1.969,0,0,0,46.8,53.622V43.441L30.025,50.18l2.344-14.064ZM18.891,21.466h14.8a1.554,1.554,0,1,1,.439,3.076H18.891a1.514,1.514,0,0,1-1.318-1.758,1.481,1.481,0,0,1,1.318-1.318Zm0,8.057h14.8a1.538,1.538,0,0,1,0,3.076h-14.8a1.538,1.538,0,0,1,0-3.076ZM25.63,40.877H18.891a1.538,1.538,0,1,1,0-3.076H25.63a1.487,1.487,0,0,1,1.538,1.465,1.564,1.564,0,0,1-1.538,1.611Z" transform="translate(-11.2 -9.6)" fill="#fff"/>
</svg>
