<svg xmlns="http://www.w3.org/2000/svg" width="24.314" height="20" viewBox="0 0 24.314 20">
  <g id="analytics_1_" data-name="analytics (1)" transform="translate(-2 -13)">
    <path id="Path_26496" data-name="Path 26496" d="M48.405,85.84H50.03v-4.9l-1.625.562Z" transform="translate(-37.307 -54.632)" fill="#c3c3c3"/>
    <path id="Path_26497" data-name="Path 26497" d="M86.165,72.771H87.79v-8.1l-1.625.562Z" transform="translate(-67.665 -41.564)" fill="#c3c3c3"/>
    <path id="Path_26498" data-name="Path 26498" d="M67.285,79.306H68.91v-6.5l-1.625.562Z" transform="translate(-52.486 -48.098)" fill="#c3c3c3"/>
    <path id="Path_26499" data-name="Path 26499" d="M27.848,30.143a1.529,1.529,0,0,0,1.089-.452,1.55,1.55,0,0,0,0-2.186,1.539,1.539,0,0,0-2.179,0,1.55,1.55,0,0,0,0,2.186A1.53,1.53,0,0,0,27.848,30.143Z" transform="translate(-19.543 -11.291)" fill="#c3c3c3"/>
    <path id="Path_26500" data-name="Path 26500" d="M29.524,91.9h1.625V88.477l-1.625.562Z" transform="translate(-22.128 -60.689)" fill="#c3c3c3"/>
    <path id="Path_26501" data-name="Path 26501" d="M30.947,15.916a.945.945,0,1,0,.667,1.613.947.947,0,0,0,0-1.336A.934.934,0,0,0,30.947,15.916ZM13.523,18.333a3.231,3.231,0,0,0,.171.416.209.209,0,0,1-.039.242l-.733.737,1.291,1.3.294-.127c.076-.048.155-.093.234-.137.044-.025.09-.048.135-.071.08-.04.161-.079.243-.114h0c.056-.024.112-.046.169-.068s.1-.036.147-.052q.138-.047.279-.086l.124-.031q.147-.035.3-.061l.151-.023q.127-.017.256-.027.108-.008.216-.011l.052,0a1.426,1.426,0,0,1,.166,0l.149.006c.057,0,.114.008.171.014l.127.015c.074.01.148.021.222.034.058.01.116.021.174.034l.132.032.08.02.021,0a.208.208,0,0,1,.139.03l.108.068.045-.12c.018-.047.038-.094.057-.14l.055-.133c.016-.04.032-.081.05-.12s.044-.092.067-.137l.064-.13c.019-.04.039-.081.06-.12s.047-.084.072-.125l.072-.125c.023-.041.046-.082.071-.122s.054-.082.082-.123l.08-.119c.025-.039.051-.077.078-.115s.064-.085.1-.127l.086-.112c.026-.034.051-.068.078-.1.044-.054.092-.106.139-.158l.083-.094c.02-.024.041-.047.062-.07a6.569,6.569,0,0,1,.634-.589l-.066-.082.084.067c.145-.117.3-.231.459-.337l.047-.031V16.42L19.838,16.4a.21.21,0,0,1-.2-.144,1.761,1.761,0,0,0-.123-.265c-.023-.042-.046-.085-.068-.13a.209.209,0,0,1,.039-.242l.733-.737-1.242-1.249-.712.715a.209.209,0,0,1-.242.039,1.972,1.972,0,0,0-.3-.109l-.135-.043a.21.21,0,0,1-.143-.2V13H15.695v1.042a.21.21,0,0,1-.143.2,3.193,3.193,0,0,0-.413.172.209.209,0,0,1-.242-.039l-.732-.736-1.242,1.249.733.737a.21.21,0,0,1,.039.242,2,2,0,0,0-.108.3c-.014.046-.028.092-.042.135a.224.224,0,0,1-.2.144l-1.053-.017V18.19h1.036A.208.208,0,0,1,13.523,18.333Zm1.593-2.49a2.054,2.054,0,0,1,2.914,0,2.079,2.079,0,0,1,0,2.927,2.054,2.054,0,0,1-2.914,0A2.079,2.079,0,0,1,15.116,15.843Z" transform="translate(-8.267)" fill="#c3c3c3"/>
    <path id="Path_26502" data-name="Path 26502" d="M95.424,17a.21.21,0,0,1-.2-.144h0a1.471,1.471,0,0,0-.1-.221c-.02-.037-.039-.074-.059-.112a.21.21,0,0,1,.039-.242l.606-.607-1.02-1.022-.587.589a.208.208,0,0,1-.243.039,1.688,1.688,0,0,0-.251-.091l-.116-.037a.21.21,0,0,1-.143-.2V14.1H91.909v.858a.21.21,0,0,1-.143.2,2.686,2.686,0,0,0-.35.145.209.209,0,0,1-.242-.039l-.6-.606-1.02,1.022.606.607a.209.209,0,0,1,.039.242,1.762,1.762,0,0,0-.093.259c-.011.037-.022.073-.034.109a.211.211,0,0,1-.2.144l-.87-.014v.7l.057.029a6.442,6.442,0,0,1,3.117,3.569l.025.07h1.158v-.858a.21.21,0,0,1,.143-.2,1.441,1.441,0,0,0,.221-.1c.036-.02.073-.039.111-.059a.21.21,0,0,1,.242.039l.622.624,1.02-1.022-.606-.607a.209.209,0,0,1-.039-.242,2.782,2.782,0,0,0,.145-.351.209.209,0,0,1,.2-.143h.855v-1.45Zm-1.755,1.779a1.469,1.469,0,1,1,0-2.078A1.461,1.461,0,0,1,93.669,18.783Z" transform="translate(-69.952 -0.883)" fill="#c3c3c3"/>
    <path id="Path_26503" data-name="Path 26503" d="M22.3,37.714a.315.315,0,0,1-.226-.291,6.055,6.055,0,0,0-.273-1.587c0-.007-.008-.013-.01-.021a6.009,6.009,0,0,0-3.082-3.551.309.309,0,0,1-.045-.03,5.934,5.934,0,0,0-5.7.359h0c-.092.058-.175.113-.254.167-.107.076-.215.152-.317.236s-.223.188-.329.287a5.976,5.976,0,0,0-1.6,2.542.315.315,0,0,1-.166.189c-.008,0-.016.006-.024.008a.31.31,0,0,1-.208,0l-.019-.005c-.088-.035-.178-.064-.268-.093l0,0c-.028-.009-.055-.021-.084-.029l-.012,0a3.844,3.844,0,0,0-.4-.092l-.05-.007c-.117-.019-.234-.034-.351-.043l-.068,0c-.112-.006-.224-.008-.335,0l-.081,0c-.113.006-.226.015-.338.031l-.053.008c-.119.018-.237.041-.353.07l-.043.011q-.175.046-.345.107L7.217,36c-.109.041-.216.088-.322.139l-.058.028c-.1.052-.2.109-.3.17A3.951,3.951,0,0,0,4.665,39.66a.315.315,0,0,1-.184.284,4.244,4.244,0,0,0,1.739,8.1H20.847A5.273,5.273,0,0,0,22.3,37.714ZM7.038,40.643c4.7-.447,10.119-4.283,11.781-5.54l-.759-.155a.315.315,0,0,1,.125-.617l1.439.293a.315.315,0,0,1,.245.371l-.295,1.459a.315.315,0,0,1-.308.253A.308.308,0,0,1,19.2,36.7a.315.315,0,0,1-.246-.371l.128-.635c-.141.1-.306.225-.506.37-.661.478-1.713,1.2-2.973,1.956A22.305,22.305,0,0,1,7.1,41.27h-.03a.315.315,0,0,1-.029-.628ZM9.647,46.57a.314.314,0,0,1-.314.315H7.082a.315.315,0,0,1-.314-.315v-3.4a.315.315,0,0,1,.212-.3l2.25-.78a.314.314,0,0,1,.417.3Zm3.7,0a.314.314,0,0,1-.314.315h-2.25a.315.315,0,0,1-.314-.315V41.692a.315.315,0,0,1,.212-.3l2.25-.78a.314.314,0,0,1,.417.3V46.57Zm3.7,0a.315.315,0,0,1-.314.315h-2.25a.315.315,0,0,1-.314-.315V40.094a.315.315,0,0,1,.212-.3l2.25-.78a.314.314,0,0,1,.417.3Zm3.7,0a.315.315,0,0,1-.314.315h-2.25a.315.315,0,0,1-.314-.315V38.5a.315.315,0,0,1,.212-.3l2.25-.78a.314.314,0,0,1,.417.3S20.753,46.57,20.753,46.57Z" transform="translate(0 -15.048)" fill="#c3c3c3"/>
  </g>
</svg>
