<svg id="Group_61969" data-name="Group 61969" xmlns="http://www.w3.org/2000/svg" width="18" height="18" viewBox="0 0 18 18">
  <path id="Path_26103" data-name="Path 26103" d="M11.236,14.118a2.118,2.118,0,0,0-4.235,0,.529.529,0,0,0,1.059,0,1.059,1.059,0,1,1,2.118,0,2.328,2.328,0,0,1-.561,1.514l-2.488,2.9a.529.529,0,0,0,.4.879h3.176a.529.529,0,0,0,0-1.059H8.684L10.42,16.32A3.393,3.393,0,0,0,11.236,14.118Z" transform="translate(-2.411 -4.235)" fill="#8f95a3"/>
  <path id="Path_26104" data-name="Path 26104" d="M15.706,13.059a.529.529,0,1,0,0-1.059H13.059a.529.529,0,0,0-.519.445l-.529,3.176a.529.529,0,0,0,.9.466,1.335,1.335,0,0,1,1-.371,1.281,1.281,0,0,1,1.271,1.271v.307a1.059,1.059,0,0,1-2.118,0,.529.529,0,1,0-1.059,0,2.118,2.118,0,0,0,4.235,0v-.307a2.425,2.425,0,0,0-2.51-2.336,2.462,2.462,0,0,0-.5.07l.275-1.662Z" transform="translate(-3.588 -4.235)" fill="#8f95a3"/>
  <path id="Path_26105" data-name="Path 26105" d="M17.364,2.636H15.318a.409.409,0,0,0-.409.409V5.091a.818.818,0,1,1-1.088-.769.409.409,0,0,0,.27-.385V1.409a.409.409,0,1,0-.818,0V2.636H7.136a.409.409,0,0,0-.409.409V5.091a.818.818,0,1,1-1.088-.769.409.409,0,0,0,.27-.385V1.409a.409.409,0,1,0-.818,0V2.636H2.636A1.636,1.636,0,0,0,1,4.273V17.364A1.636,1.636,0,0,0,2.636,19H14.328a.817.817,0,0,0,.581-.237l3.854-3.854A.817.817,0,0,0,19,14.328V4.273A1.636,1.636,0,0,0,17.364,2.636ZM2.636,17.364V7.545H17.364v6.447l-.1.1H15.727a1.636,1.636,0,0,0-1.636,1.636v1.538l-.1.1Z" transform="translate(-1 -1)" fill="#8f95a3"/>
</svg>
