<svg xmlns="http://www.w3.org/2000/svg" width="15.221" height="20" viewBox="0 0 15.221 20">
  <g id="_Group_" data-name="&lt;Group&gt;" transform="translate(-84 -30)">
    <path id="_Path_" data-name="&lt;Path&gt;" d="M180.392,234.785c0-.006,0-.011,0-.017a1.211,1.211,0,0,0-.359-1.046,2.613,2.613,0,1,1,3.581,0,1.183,1.183,0,0,0-.355.934v.008l0,.117a3.435,3.435,0,1,0-2.873,0Z" transform="translate(-90.213 -189.458)" fill="#c3c3c3"/>
    <path id="_Path_2" data-name="&lt;Path&gt;" d="M214.959,52.324a1.994,1.994,0,1,0-3.358,1.454,1.832,1.832,0,0,1,.548,1.569l-.01.157a3.4,3.4,0,0,0,.515.086v-2H212.5a.31.31,0,0,1,0-.619h.929a.31.31,0,0,1,0,.619h-.156v2a3.418,3.418,0,0,0,.517-.086l-.009-.31a1.8,1.8,0,0,1,.549-1.415A2,2,0,0,0,214.959,52.324Zm.735-7.272h4.381l-4.943-4.627v4.137A.526.526,0,0,0,215.694,45.051Z" transform="translate(-121.353 -9.963)" fill="#c3c3c3"/>
    <path id="_Compound_Path_" data-name="&lt;Compound Path&gt;" d="M124.336,179.858a4.526,4.526,0,0,0,.655,1.549.31.31,0,0,1-.019.369l-.681.822.885.883L126,182.8a.31.31,0,0,1,.365-.022,4.686,4.686,0,0,0,1.555.654.309.309,0,0,1,.244.272l.1,1.066h1.257l.1-1.066a.308.308,0,0,1,.243-.272,4.524,4.524,0,0,0,1.552-.653.31.31,0,0,1,.369.02l.822.681.885-.883-.681-.822a.31.31,0,0,1-.021-.367,4.712,4.712,0,0,0,.656-1.553.308.308,0,0,1,.271-.241l1.051-.1v-1.255l-1.066-.1a.306.306,0,0,1-.269-.242,4.526,4.526,0,0,0-.655-1.549.31.31,0,0,1,.019-.369l.682-.823-.872-.881-.821.68a.31.31,0,0,1-.365.022,4.686,4.686,0,0,0-1.555-.654.309.309,0,0,1-.244-.272l-.1-1.066h-1.257l-.1,1.066a.308.308,0,0,1-.243.272,4.525,4.525,0,0,0-1.552.653.31.31,0,0,1-.369-.02l-.822-.681-.885.883.681.822a.31.31,0,0,1,.022.367,4.711,4.711,0,0,0-.656,1.553.308.308,0,0,1-.271.241l-1.066.1v1.255l1.066.1a.306.306,0,0,1,.27.242Zm4.55-5.022a4.049,4.049,0,1,1-4.054,4.049A4.049,4.049,0,0,1,128.886,174.836Z" transform="translate(-37.274 -136.673)" fill="#c3c3c3"/>
    <path id="_Compound_Path_2" data-name="&lt;Compound Path&gt;" d="M85.42,50H97.8a1.377,1.377,0,0,0,1.42-1.326V35.708H94.341a1.144,1.144,0,0,1-1.181-1.11V30H85.42A1.376,1.376,0,0,0,84,31.326V48.674A1.376,1.376,0,0,0,85.42,50Zm-.313-8.7A.307.307,0,0,1,85.383,41l1.128-.109a5.322,5.322,0,0,1,.567-1.342l-.719-.867a.31.31,0,0,1,.02-.417l1.284-1.282a.31.31,0,0,1,.416-.019l.866.718a5.132,5.132,0,0,1,1.346-.565l.109-1.126a.309.309,0,0,1,.308-.278h1.82a.309.309,0,0,1,.308.278l.109,1.126a5.3,5.3,0,0,1,1.344.567l.868-.72a.31.31,0,0,1,.418.021l1.269,1.282a.31.31,0,0,1,.018.416l-.718.866a5.131,5.131,0,0,1,.566,1.343L97.839,41a.307.307,0,0,1,.277.308v1.817a.307.307,0,0,1-.276.308l-1.112.109a5.324,5.324,0,0,1-.567,1.342l.719.867a.31.31,0,0,1-.02.417l-1.284,1.282a.31.31,0,0,1-.416.019l-.866-.718a5.132,5.132,0,0,1-1.346.565l-.109,1.126a.309.309,0,0,1-.308.278h-1.82a.309.309,0,0,1-.308-.278l-.109-1.126a5.3,5.3,0,0,1-1.344-.567l-.868.72a.31.31,0,0,1-.416-.019l-1.284-1.282a.31.31,0,0,1-.019-.417l.718-.866a5.131,5.131,0,0,1-.566-1.343l-1.128-.109a.307.307,0,0,1-.277-.308Z" fill="#c3c3c3"/>
  </g>
</svg>
