<svg id="delete" xmlns="http://www.w3.org/2000/svg" width="20" height="20" viewBox="0 0 20 20">
  <path id="Path_27716" data-name="Path 27716" d="M0,0H20V20H0Z" fill="none"/>
  <path id="Path_27717" data-name="Path 27717" d="M5.833,16.333A1.672,1.672,0,0,0,7.5,18h6.667a1.672,1.672,0,0,0,1.667-1.667V8a1.672,1.672,0,0,0-1.667-1.667H7.5A1.672,1.672,0,0,0,5.833,8Zm10-12.5H13.75l-.592-.592A.841.841,0,0,0,12.575,3H9.092a.841.841,0,0,0-.583.242l-.592.592H5.833a.833.833,0,1,0,0,1.667h10a.833.833,0,0,0,0-1.667Z" transform="translate(-0.833 -0.5)" fill="#e44531"/>
</svg>
