<svg xmlns="http://www.w3.org/2000/svg" width="20.811" height="23.531" viewBox="0 0 20.811 23.531">
  <g id="download_2_" data-name="download (2)" transform="translate(-2.292 -0.5)">
    <path id="Path_26505" data-name="Path 26505" d="M14.113.5a1.473,1.473,0,0,0-1.471,1.471V12.915l-1.961-1.961a1.471,1.471,0,0,0-2.075,2.084L13.069,17.5a1.433,1.433,0,0,0,1.025.431h.013a1.484,1.484,0,0,0,1.047-.427l4.471-4.471a1.471,1.471,0,0,0-2.084-2.076l-1.957,1.957V1.97A1.473,1.473,0,0,0,14.113.5Z" transform="translate(-1.416)" fill="#808081"/>
    <path id="Path_26506" data-name="Path 26506" d="M3.763,19.6a1.473,1.473,0,0,0-1.471,1.47v1.627A5.945,5.945,0,0,0,8.23,28.632h8.934A5.945,5.945,0,0,0,23.1,22.694V21.066a1.471,1.471,0,0,0-2.941,0v1.627a3,3,0,0,1-3,3H8.23a3,3,0,0,1-3-3V21.066A1.473,1.473,0,0,0,3.762,19.6Z" transform="translate(0 -4.601)" fill="#808081"/>
  </g>
</svg>
