<svg width="15" height="15" viewBox="0 0 15 15" fill="none" xmlns="http://www.w3.org/2000/svg">
<g clip-path="url(#clip0_137_4)">
<path d="M7.50023 0C7.21886 0.00237683 6.95004 0.103362 6.75274 0.280802C6.55545 0.458242 6.44579 0.697647 6.44782 0.9465V7.9905L5.04518 6.729C4.94993 6.64012 4.83503 6.56951 4.70763 6.52156C4.58022 6.4736 4.44303 6.44933 4.30457 6.45024C4.16611 6.45116 4.02934 6.47724 3.90276 6.52687C3.77618 6.5765 3.66249 6.64862 3.56875 6.73875C3.46802 6.82499 3.38776 6.92815 3.33269 7.04217C3.27763 7.1562 3.24885 7.27881 3.24806 7.4028C3.24727 7.52679 3.27448 7.64967 3.32809 7.76424C3.3817 7.87881 3.46064 7.98276 3.56027 8.07L6.75311 10.9425C6.84794 11.0301 6.9618 11.0998 7.08786 11.1475C7.21391 11.1952 7.34956 11.2198 7.48666 11.22H7.49599C7.63518 11.2202 7.77304 11.196 7.90158 11.1487C8.03011 11.1015 8.14677 11.0321 8.2448 10.9448L11.4436 8.067C11.5427 7.97959 11.6211 7.8756 11.6743 7.76109C11.7275 7.64659 11.7543 7.52386 11.7533 7.40008C11.7523 7.2763 11.7234 7.15394 11.6683 7.04013C11.6132 6.92633 11.5331 6.82337 11.4326 6.73725C11.3384 6.64714 11.2242 6.57511 11.0972 6.52564C10.9702 6.47618 10.8331 6.45032 10.6943 6.44969C10.5555 6.44906 10.4181 6.47366 10.2905 6.52196C10.163 6.57027 10.048 6.64125 9.95274 6.7305L8.55264 7.98975V0.9465C8.55467 0.697647 8.44501 0.458242 8.24772 0.280802C8.05042 0.103362 7.7816 0.00237683 7.50023 0Z" fill="#D0333A"/>
<path d="M1.06009 9.18677C0.777734 9.18835 0.50761 9.28887 0.30891 9.46629C0.11021 9.64371 -0.000858912 9.88355 4.4583e-05 10.1333V11.1833C-0.00514368 12.1922 0.442687 13.1618 1.24518 13.879C2.04767 14.5961 3.13921 15.0023 4.28007 15.0083H10.72C11.8608 15.0021 12.9522 14.5959 13.7547 13.8788C14.5571 13.1616 15.005 12.1922 15 11.1833V10.1333C15 9.88463 14.8884 9.64617 14.6896 9.47036C14.4908 9.29454 14.2211 9.19577 13.94 9.19577C13.6589 9.19577 13.3892 9.29454 13.1904 9.47036C12.9916 9.64617 12.88 9.88463 12.88 10.1333V11.1833C12.8822 11.6922 12.6561 12.1812 12.2511 12.5429C11.8462 12.9045 11.2955 13.1093 10.72 13.1123H4.28007C3.70458 13.1093 3.15393 12.9045 2.74898 12.5429C2.34403 12.1812 2.11787 11.6922 2.12013 11.1833V10.1333C2.12103 9.88355 2.00996 9.64371 1.81126 9.46629C1.61256 9.28887 1.34244 9.18835 1.06009 9.18677Z" fill="#D0333A"/>
</g>
<defs>
<clipPath id="clip0_137_4">
<rect width="15" height="15" fill="white"/>
</clipPath>
</defs>
</svg>
