<svg width="18" height="18" viewBox="0 0 18 18" fill="none" xmlns="http://www.w3.org/2000/svg">
<g clip-path="url(#clip0_132_2)">
<path d="M4.39943e-05 14.461V17.5003C-0.00054982 17.5661 0.0119688 17.6313 0.036869 17.6922C0.0617692 17.7531 0.0985518 17.8084 0.145069 17.8549C0.191586 17.9014 0.246905 17.9382 0.307795 17.9631C0.368685 17.988 0.433926 18.0005 0.499709 17.9999H3.53965C3.60528 18.0008 3.67037 17.9879 3.73071 17.9621C3.79104 17.9363 3.84528 17.898 3.88993 17.8499L14.8088 6.94122L11.0581 3.19055L0.150071 14.1012C0.101811 14.1477 0.0636015 14.2037 0.0377984 14.2655C0.0119953 14.3274 -0.000853705 14.3939 4.39943e-05 14.461ZM17.7076 4.0424C17.8004 3.94992 17.874 3.84004 17.9242 3.71906C17.9744 3.59809 18.0003 3.46839 18.0003 3.3374C18.0003 3.20642 17.9744 3.07672 17.9242 2.95574C17.874 2.83476 17.8004 2.72489 17.7076 2.63241L15.3682 0.293009C15.2757 0.200249 15.1659 0.126651 15.0449 0.0764331C14.9239 0.0262157 14.7942 0.000366211 14.6632 0.000366211C14.5322 0.000366211 14.4025 0.0262157 14.2816 0.0764331C14.1606 0.126651 14.0507 0.200249 13.9582 0.293009L12.1287 2.12257L15.8793 5.87323L17.7089 4.04367L17.7076 4.0424Z" fill="#586268"/>
</g>
<defs>
<clipPath id="clip0_132_2">
<rect width="18" height="18" fill="white"/>
</clipPath>
</defs>
</svg>
