<svg id="edit" xmlns="http://www.w3.org/2000/svg" width="20" height="20" viewBox="0 0 20 20">
  <path id="Path_27714" data-name="Path 27714" d="M0,0H20V20H0Z" fill="none"/>
  <path id="Path_27715" data-name="Path 27715" d="M3,15.05v2.533A.413.413,0,0,0,3.417,18H5.95a.391.391,0,0,0,.292-.125l9.1-9.092L12.217,5.658,3.125,14.75a.409.409,0,0,0-.125.3ZM17.758,6.366a.83.83,0,0,0,0-1.175l-1.95-1.95a.83.83,0,0,0-1.175,0L13.108,4.766l3.125,3.125,1.525-1.525Z" transform="translate(-0.5 -0.5)" fill="#586268"/>
</svg>
