<svg xmlns="http://www.w3.org/2000/svg" width="20.055" height="20.101" viewBox="0 0 20.055 20.101">
  <g id="employee-carrier" transform="translate(-4.807 -7.807)">
    <path id="Path_27684" data-name="Path 27684" d="M26.048,21.907c0-2.7-.053-5.819,0-5.819V11.116A2.122,2.122,0,0,0,23.932,9H8.116A2.122,2.122,0,0,0,6,11.116V26.985A2.122,2.122,0,0,0,8.116,29.1H23.985c.37,0,2.194-.547,2.063-3.175C26.06,25.946,26.048,25.134,26.048,21.907Z" transform="translate(-1.193 -1.193)" fill="#c3c3c3"/>
    <path id="growth" d="M16.27,6.444A.728.728,0,0,0,15.611,6H12.029a.716.716,0,1,0,0,1.433h1.856L9.879,11.438,7.522,9.074a.716.716,0,0,0-1.017,0l-4.3,4.3A.719.719,0,1,0,3.224,14.39l3.79-3.8,2.357,2.364a.716.716,0,0,0,1.017,0l4.507-4.514V10.3a.716.716,0,1,0,1.433,0V6.716A.717.717,0,0,0,16.27,6.444Z" transform="translate(5.674 7.557)" fill="#303c42"/>
  </g>
</svg>
