<svg xmlns="http://www.w3.org/2000/svg" width="19.382" height="20.456" viewBox="0 0 19.382 20.456">
  <g id="Layer_2" data-name="Layer 2" transform="translate(-2.987 -1.999)">
    <path id="attach" d="M9.773,22.455A6.707,6.707,0,0,1,5,20.431a6.459,6.459,0,0,1-.237-9.14l7.924-8A4.425,4.425,0,0,1,15.92,2a4.823,4.823,0,0,1,3.434,1.453,4.694,4.694,0,0,1,.161,6.6l-7.967,8a2.735,2.735,0,0,1-1.949.807,2.928,2.928,0,0,1-2.1-.883,2.885,2.885,0,0,1-.086-4.059l7.353-7.385A1.077,1.077,0,0,1,16.243,8.05L8.89,15.436a.732.732,0,0,0,.086,1.023.84.84,0,0,0,.571.248.6.6,0,0,0,.431-.172l7.956-8a2.541,2.541,0,0,0-.161-3.563,2.562,2.562,0,0,0-3.52-.161L6.3,12.766a4.306,4.306,0,0,0,.237,6.1,4.543,4.543,0,0,0,3.23,1.389,3.951,3.951,0,0,0,2.81-1.141l7.956-8a1.077,1.077,0,1,1,1.529,1.518l-7.956,8a6.083,6.083,0,0,1-4.328,1.819Z" transform="translate(0)" fill="#303c42"/>
  </g>
</svg>
