<svg id="mailbox-34" xmlns="http://www.w3.org/2000/svg" width="22.222" height="20" viewBox="0 0 22.222 20">
  <path id="Path_26023" data-name="Path 26023" d="M92,131.333h13.889a1.667,1.667,0,0,1,0,3.333H92v11.667a1.667,1.667,0,0,1-3.333,0V134.667H87a1.667,1.667,0,1,1,0-3.333h1.667v-1.667a1.667,1.667,0,1,1,3.333,0Z" transform="translate(-85.333 -128)" fill="#c3c3c3"/>
  <path id="Path_26024" data-name="Path 26024" d="M426.667,469.333h11.667A1.667,1.667,0,0,1,440,471v2.778a4.444,4.444,0,0,1-4.444,4.444h-7.222a1.667,1.667,0,0,1-1.667-1.667Zm11.111,1.111a1.111,1.111,0,0,0-1.111,1.111v3.333a1.111,1.111,0,1,0,2.222,0v-3.333A1.111,1.111,0,0,0,437.778,470.444Z" transform="translate(-418.077 -460.444)" fill="#c3c3c3" opacity="0.7"/>
</svg>
