<svg xmlns="http://www.w3.org/2000/svg" width="29.81" height="23.422" viewBox="0 0 29.81 23.422">
  <path id="mail-unread" d="M1,10.11l13.364,6.682a1.065,1.065,0,0,0,.952,0l9.057-4.527a6.418,6.418,0,0,0,4.309.017l0,8.881a4.258,4.258,0,0,1-4.259,4.259H5.259A4.259,4.259,0,0,1,1,21.163ZM5.259,4.129l15.27,0a6.4,6.4,0,0,0,1.7,6.832L14.84,14.65,1.047,7.752A4.259,4.259,0,0,1,5.259,4.129ZM26.551,2a4.259,4.259,0,1,1-4.259,4.259A4.258,4.258,0,0,1,26.551,2Z" transform="translate(-1 -2)" fill="#808081"/>
</svg>
