<svg xmlns="http://www.w3.org/2000/svg" width="19.984" height="20" viewBox="0 0 19.984 20">
  <path id="margin" d="M3.018-.006A.632.632,0,0,0,2.6.2L1.418,1.456a.631.631,0,0,0-.169.395V.009H0V19.993H5V5.005H1.249V1.911a.631.631,0,0,0,.169.4L2.6,3.568c.448.476,1.358-.375.912-.853l-.195-.207H5.433l-.2.207c-.445.478.465,1.329.912.853L7.325,2.31a.647.647,0,0,0,0-.854L6.15.2a.634.634,0,0,0-.5-.2.661.661,0,0,0-.41,1.057l.2.207H3.312l.2-.207A.66.66,0,0,0,3.019-.006Zm7.494,0a.632.632,0,0,0-.422.2L8.912,1.456a.631.631,0,0,0-.169.395V.009H7.494V11.875h3.747V5.005h-2.5V1.911a.631.631,0,0,0,.169.4l1.178,1.258c.447.481,1.361-.376.912-.853l-.195-.207h2.121l-.2.207c-.445.478.465,1.329.912.853L14.819,2.31a.647.647,0,0,0,0-.854L13.644.2a.634.634,0,0,0-.5-.2.661.661,0,0,0-.41,1.057l.2.207H10.806l.2-.207a.66.66,0,0,0-.491-1.057Zm4.476.015V11.875h5V5.005H16.237v-5Z" transform="translate(0 0.007)" fill="#fff"/>
</svg>
