<svg xmlns="http://www.w3.org/2000/svg" width="19.509" height="21.83" viewBox="0 0 19.509 21.83">
  <g id="pdf-file" transform="translate(-11.58 -9.15)">
    <path id="Path_27710" data-name="Path 27710" d="M19.491,10.134v4.677a.478.478,0,0,1-.478.478H15.669ZM12.058,27.952a.478.478,0,0,1-.478-.478V22.7a.478.478,0,0,1,.478-.478H25.108a.478.478,0,0,1,.478.478v4.777a.478.478,0,0,1-.478.478ZM31.089,30.5a.478.478,0,0,1-.478.478H15.669a.478.478,0,0,1-.478-.478v-1.6h9.917a1.433,1.433,0,0,0,1.433-1.433V22.7a1.433,1.433,0,0,0-1.433-1.433H15.191V16.244h3.822a1.433,1.433,0,0,0,1.433-1.433V9.15H30.611a.478.478,0,0,1,.478.478Z" transform="translate(0 0)" fill="#7f7f7f"/>
    <path id="Path_27711" data-name="Path 27711" d="M19.831,41.327v1.032H19V39.526h1.146a1.567,1.567,0,0,1,.654.105.817.817,0,0,1,.358.315.908.908,0,0,1,.129.478.841.841,0,0,1-.268.654,1.018,1.018,0,0,1-.721.248Zm0-.607h.277c.244,0,.363-.1.363-.282s-.11-.268-.334-.268h-.306ZM21.6,42.359V39.526h1.046a1.223,1.223,0,0,1,1.017.42,1.509,1.509,0,0,1,.339.979,1.433,1.433,0,0,1-.363,1.032,1.218,1.218,0,0,1-.955.4Zm.831-.654h.215a.406.406,0,0,0,.349-.21,1.032,1.032,0,0,0,.139-.568,1.118,1.118,0,0,0-.124-.535.4.4,0,0,0-.363-.22H22.43Zm3.611-.406h-.879v1.06h-.807V39.526h1.954V40.2H25.162v.478h.879Z" transform="translate(-3.876 -15.864)" fill="#fff"/>
  </g>
</svg>
