<svg xmlns="http://www.w3.org/2000/svg" width="79" height="110" viewBox="0 0 79 110">
  <g id="Group_65811" data-name="Group 65811" transform="translate(-1772 -149)">
    <g id="pdf-file" transform="translate(1764.42 139.85)">
      <path id="Path_27710" data-name="Path 27710" d="M40.363,12.73V29.746a1.738,1.738,0,0,1-1.738,1.738H26.458ZM13.318,77.562a1.738,1.738,0,0,1-1.738-1.738V58.442A1.738,1.738,0,0,1,13.318,56.7H60.8a1.738,1.738,0,0,1,1.738,1.738V75.823A1.738,1.738,0,0,1,60.8,77.562Zm69.246,9.281a1.738,1.738,0,0,1-1.738,1.738H26.458a1.738,1.738,0,0,1-1.738-1.738V81.038H60.8a5.214,5.214,0,0,0,5.214-5.214V58.442A5.214,5.214,0,0,0,60.8,53.228H24.72V34.961h13.9a5.214,5.214,0,0,0,5.214-5.214V9.15H80.826a1.738,1.738,0,0,1,1.738,1.738Z" transform="translate(0 0)" fill="#d0333a"/>
      <path id="Path_27711" data-name="Path 27711" d="M22.024,46.088v3.754H19V39.535h4.171a5.7,5.7,0,0,1,2.381.382,2.972,2.972,0,0,1,1.3,1.147,3.3,3.3,0,0,1,.469,1.738,3.059,3.059,0,0,1-.973,2.381,3.7,3.7,0,0,1-2.625.9Zm0-2.207h1.008c.886,0,1.321-.348,1.321-1.025s-.4-.973-1.217-.973H22.024Zm6.431,5.962V39.535h3.806a4.45,4.45,0,0,1,3.7,1.53A5.492,5.492,0,0,1,37.2,44.628a5.214,5.214,0,0,1-1.321,3.754,4.432,4.432,0,0,1-3.476,1.46Zm3.024-2.381h.782A1.477,1.477,0,0,0,33.53,46.7a3.754,3.754,0,0,0,.5-2.068,4.067,4.067,0,0,0-.452-1.947,1.443,1.443,0,0,0-1.321-.8H31.48Zm13.14-1.477h-3.2v3.859H38.484V39.535h7.109v2.451H41.421v1.738h3.2Z" transform="translate(5.477 22.418)" fill="#fff"/>
    </g>
    <text id="form.PDF" transform="translate(1772 253)" font-size="18" font-family="Poppins-Regular, Poppins" opacity="0.7"><tspan x="0" y="0">form.PDF</tspan></text>
  </g>
</svg>
