<svg xmlns="http://www.w3.org/2000/svg" width="15.636" height="20" viewBox="0 0 15.636 20">
  <g id="plan" transform="translate(-24.2 -17)">
    <path id="Path_27685" data-name="Path 27685" d="M36.9,17H27.139A2.962,2.962,0,0,0,24.2,19.939V34.061A2.962,2.962,0,0,0,27.139,37H36.9a2.962,2.962,0,0,0,2.939-2.939V19.939A2.942,2.942,0,0,0,36.9,17Z" fill="#c3c3c3"/>
    <path id="Path_27686" data-name="Path 27686" d="M42.458,31.218H37.064a.3.3,0,0,0,0,.606h5.394a.3.3,0,1,0,0-.606Zm-5.394,2.333h3.273a.3.3,0,1,0,0-.606H37.064a.3.3,0,0,0,0,.606Zm-2.455,2.394H32.821a1.086,1.086,0,0,0-1.091,1.091v1.788a1.086,1.086,0,0,0,1.091,1.091h1.788A1.086,1.086,0,0,0,35.7,38.824V37.036A1.086,1.086,0,0,0,34.609,35.945Zm-.152,1.879-.788.667a.431.431,0,0,1-.182.061h-.03a.307.307,0,0,1-.212-.121l-.3-.424a.3.3,0,0,1,.091-.424.3.3,0,0,1,.424.091l.091.152.545-.455a.3.3,0,0,1,.424.03.373.373,0,0,1-.061.424Zm-1.576-8.909h8.7a1.183,1.183,0,0,0,1.182-1.182V25.582A1.183,1.183,0,0,0,41.579,24.4h-8.7A1.183,1.183,0,0,0,31.7,25.582v2.152A1.225,1.225,0,0,0,32.882,28.915ZM34.609,30.4H32.821a1.086,1.086,0,0,0-1.091,1.091v1.788a1.086,1.086,0,0,0,1.091,1.091h1.788A1.086,1.086,0,0,0,35.7,33.279V31.491A1.086,1.086,0,0,0,34.609,30.4Zm-.152,1.879-.788.667a.223.223,0,0,1-.182.061h-.03a.307.307,0,0,1-.212-.121l-.3-.424a.307.307,0,1,1,.515-.333l.091.152.545-.455a.325.325,0,0,1,.424.03.373.373,0,0,1-.061.424Zm8,4.485H37.064a.3.3,0,0,0,0,.606h5.394a.3.3,0,1,0,0-.606Zm-2.121,1.727H37.064a.3.3,0,0,0,0,.606h3.273a.286.286,0,0,0,.3-.3A.3.3,0,0,0,40.336,38.491Z" transform="translate(-5.227 -5.158)" fill="#303c42"/>
  </g>
</svg>
