<svg xmlns="http://www.w3.org/2000/svg" width="57.501" height="46" viewBox="0 0 57.501 46">
  <path id="shipping-fast" d="M56.063,31.625H54.626V21.913a4.313,4.313,0,0,0-1.267-3.046L44.383,9.892a4.313,4.313,0,0,0-3.046-1.267H37.375V4.313A4.314,4.314,0,0,0,33.063,0h-23A4.314,4.314,0,0,0,5.75,4.313V8.625H.719A.721.721,0,0,0,0,9.344v1.438a.721.721,0,0,0,.719.719H25.157a.721.721,0,0,1,.719.719v1.438a.721.721,0,0,1-.719.719H3.594a.721.721,0,0,0-.719.719v1.438a.721.721,0,0,0,.719.719H22.281a.721.721,0,0,1,.719.719v1.438a.721.721,0,0,1-.719.719H.719A.721.721,0,0,0,0,20.844v1.438A.721.721,0,0,0,.719,23H19.406a.721.721,0,0,1,.719.719v1.438a.721.721,0,0,1-.719.719H5.75v11.5a8.625,8.625,0,1,0,17.25,0H34.5a8.625,8.625,0,1,0,17.25,0h4.313A1.442,1.442,0,0,0,57.5,35.938V33.063A1.442,1.442,0,0,0,56.063,31.625ZM14.375,41.688a4.313,4.313,0,1,1,4.313-4.313A4.314,4.314,0,0,1,14.375,41.688Zm28.75,0a4.313,4.313,0,1,1,4.313-4.313A4.314,4.314,0,0,1,43.125,41.688ZM50.313,23H37.375V12.938h3.962l8.975,8.975Z" fill="#fff"/>
</svg>
