<svg xmlns="http://www.w3.org/2000/svg" width="20.09" height="18.272" viewBox="0 0 20.09 18.272">
  <g id="support-service" transform="translate(-0.659 -1.94)">
    <g id="Group_9739" data-name="Group 9739" transform="translate(0.659 1.94)">
      <path id="Path_12840" data-name="Path 12840" d="M32.309,29.395V23.682A1.884,1.884,0,0,0,30.427,21.8H20.982A1.884,1.884,0,0,0,19.1,23.682v5.712a1.881,1.881,0,0,0,1.525,1.85v1.688a.766.766,0,0,0,.227.519.661.661,0,0,0,.487.195.8.8,0,0,0,.519-.195L24,31.309h6.491A1.9,1.9,0,0,0,32.309,29.395Zm-6.1-.195a.291.291,0,0,1-.292.292h-.746a.291.291,0,0,1-.292-.292v-.487a.291.291,0,0,1,.292-.292h.746a.291.291,0,0,1,.292.292Zm1.2-2.921a2.046,2.046,0,0,1-.746.649.939.939,0,0,0-.357.357,2.632,2.632,0,0,0-.1.357.209.209,0,0,1-.195.195h-.941a.183.183,0,0,1-.195-.227,1.534,1.534,0,0,1,.195-.617,2.9,2.9,0,0,1,.714-.649,1.055,1.055,0,0,0,.422-.422,1.121,1.121,0,0,0,.162-.584.819.819,0,0,0-.195-.552.685.685,0,0,0-.519-.195.6.6,0,0,0-.617.422.312.312,0,0,1-.292.227h-.876a.209.209,0,0,1-.195-.195,1.422,1.422,0,0,1,.519-1.071,2.2,2.2,0,0,1,1.428-.422,2.121,2.121,0,0,1,1.493.487,1.665,1.665,0,0,1,.552,1.3A1.389,1.389,0,0,1,27.409,26.279Z" transform="translate(-19.1 -21.8)" fill="#c3c3c3"/>
      <path id="Path_12841" data-name="Path 12841" d="M51.527,41.7h-3.6v1.136a3.255,3.255,0,0,1-3.246,3.246H40.2v3.213a1.884,1.884,0,0,0,1.882,1.882h6.491l2.142,2.142a.737.737,0,0,0,.519.195.661.661,0,0,0,.487-.195.766.766,0,0,0,.227-.519V51.112a1.788,1.788,0,0,0,1.493-1.785V43.582A1.891,1.891,0,0,0,51.527,41.7Z" transform="translate(-33.352 -35.241)" fill="#c3c3c3"/>
    </g>
  </g>
</svg>
