<svg xmlns="http://www.w3.org/2000/svg" width="18" height="18" viewBox="0 0 18 18">
  <g id="_7fb8ceb3bd59c7956b1df66729296a4c" data-name="7fb8ceb3bd59c7956b1df66729296a4c" transform="translate(-10 -10)">
    <g id="Group_65976" data-name="Group 65976" transform="translate(10 10)">
      <path id="Path_31193" data-name="Path 31193" d="M19,28a9,9,0,1,1,9-9A9,9,0,0,1,19,28Zm7.294-9.755a.056.056,0,0,0,.028-.039.27.27,0,0,0,.086.158c0,.006,0,0,0,.013s.007,0,.011,0a.273.273,0,0,0,.171.064.279.279,0,0,0,.235-.136.069.069,0,0,1,.011.013.142.142,0,0,0,0-.028.275.275,0,0,0,.037-.132.281.281,0,0,0-.281-.281.274.274,0,0,0-.231.13s0-.009-.006-.006a.253.253,0,0,0-.044-.134v.292a.2.2,0,0,1-.015.088ZM13.37,18.161c0-.084-.193-.23-.244-.23,0-.015-.079-.189-.108-.189,0-.059-.206-.321-.239-.206-.022.073.156.174.156.261.033,0,.173.264.2.31.3.516-.228.163-.228-.055a.72.72,0,0,1-.176-.364,1.149,1.149,0,0,1-.149-.283c0-.163-.09-.242-.27-.242-.009-.017-.16-.23-.163-.23a.592.592,0,0,0-.189-.31,2.23,2.23,0,0,1-.04-.457,1.557,1.557,0,0,0-.059-.481A7.86,7.86,0,0,0,16.3,26.39c0-.279.024-.613.088-.613,0-.042.035-.217.068-.217a3.424,3.424,0,0,0,0-.364c-.04-.081.053-.184.081-.31.156-.079.046-.861.163-.861a5.248,5.248,0,0,0,.026-.985c.029,0-.176-.22-.176-.217-.2,0-.338-.318-.338-.457a.86.86,0,0,1-.068-.23c.046,0-.285-.481-.285-.472-.174-.1.009-.231.028-.391-.151-.05,0-.459.068-.459a.126.126,0,0,1,.081-.107c.033.134.191-.066.068-.066a3.129,3.129,0,0,1,0-.323c0-.138-.121-.406-.217-.121-.1-.05-.356-.04-.378-.2.017-.079-.145-.241-.2-.27.053-.138-.274-.323-.391-.323,0-.029-.062-.017-.081-.053-.121,0-.149-.162-.285-.162-.156,0-.314-.107-.459-.107-.048-.1-.274-.059-.325-.162-.118,0-.163-.222-.167-.3-.006-.1-.084-.452-.226-.452Zm11.394-4.513s0,0,0,.013.018.009.028.013A.305.305,0,0,0,24.764,13.648Zm.171.186a.168.168,0,0,1,.029.1c.02,0,.029-.011.046-.015C24.984,13.887,24.959,13.861,24.935,13.833Zm.489,2.562c.009-.242-.2-.2-.27-.338-.07,0-.1-.053-.189-.053a.117.117,0,0,0-.145.044c-.145.055-.057-.07-.165-.07.006-.14-.05-.176-.2-.162-.088.2-.222.316-.2.54.064.015.053.029.04.094.086,0,.608-.028.608-.081.018,0,.108.186.108.028.073,0,.11.171.285.121C25.289,16.552,25.578,16.4,25.423,16.4Zm.028,2.871c.011-.05-.024-.072-.053-.121.077,0-.244-.6-.244-.687-.05-.024-.112-.195-.123-.255a.633.633,0,0,1-.162-.27,1.011,1.011,0,0,1-.257-.336c.1.011.242.031.242-.094-.066,0-.075-.081-.013-.081-.02-.083.044-.141.059-.208a1.562,1.562,0,0,0,.05-.292.456.456,0,0,0-.189.04c0,.055-.165-.013-.189-.013-.035-.072-.292.092-.364-.053-.116-.1-.084-.186-.123-.334-.018-.075-.121-.079-.184-.092-.176-.035-.05.209-.059.266.108,0-.068.134-.068.2-.182-.039-.121-.242-.23-.3-.031-.053-.007-.094-.081-.094,0-.072.039-.2-.04-.23,0-.035-.152-.05-.176-.094-.1,0-.321-.366-.391-.242-.044.079.037.1.053.162.14-.028.127.231.3.2a.427.427,0,0,0,.013.108c.127-.029.112.094.176.094-.046.061-.193-.1-.152.037.024.077.011.143-.09.22,0-.084-.007-.31-.094-.31-.059-.119-.237-.09-.312-.2-.061,0-.084-.189-.189-.2a.213.213,0,0,1-.121.053c-.057.114-.378.011-.378.028s-.18.428-.191.485c-.02.121-.118.123-.147.239-.015.057-.367.031-.367.073a.361.361,0,0,1-.285-.323,2.5,2.5,0,0,1,.055-.485c.031.009.037.018.055.053.094-.035.31.024.31-.081.09,0,.118.039.081.108.084.017.23.037.23-.081-.05,0-.055,0-.055-.053.162-.169-.121-.32-.121-.4-.057-.018-.174-.143-.092-.1s.327.119.226-.051a.018.018,0,0,0,.013-.013c.029.02.149.145.149.028.033,0,.162-.081.053-.081.011-.061.007-.112.013-.149.171.092.075-.062.163-.121,0,.112.092-.053.149-.053.066-.1.22-.022.257-.136-.083-.028-.068-.233-.068-.309.1.017.211-.134.226-.031.006.04.011.151.031.165.149.077.108-.044.108-.121-.05,0-.116-.173-.121-.257-.04.006-.107.022-.121.053-.147,0-.248-.053-.364-.053a2.054,2.054,0,0,1-.134-.176c-.083-.141.083-.1.108-.107,0-.134.557-.11.582-.323-.184,0,.189-.31.189-.309.125-.107.191-.2.345-.209.066,0,.792-.2.792-.114.029,0,.127,0,.226.006a7.831,7.831,0,0,0-10.573-.13.2.2,0,0,1,.022.073c.073-.006.18-.051.2.04a.428.428,0,0,1-.108-.015c.026.209-.092.081-.189.081a.281.281,0,0,0-.09-.035c-.029.028-.061.055-.092.083,0,.009,0,.009,0,.02.031,0,.015.05.1.079a2.186,2.186,0,0,0,.329.073,1.018,1.018,0,0,0,.217-.017c0-.011.186-.094.055-.094.018-.073-.015-.094-.1-.094.007-.079.195-.028.27-.028.059-.1,0-.086.053-.176.062-.11.136-.015.176-.119a.189.189,0,0,1,.136.134c.05.04.3.408.3.149.088.029.134.2.136.283.162-.024.176-.145.176-.27.037,0-.013-.061-.013-.081.061-.022.136.057.136-.026.026,0,.028.026.028.053.084.017.138-.009.189.009.035.013.017.2,0,.261-.02.083-.176.083-.176.121-.178.132.209.2.27.283a.826.826,0,0,1-.176-.026c-.088,0-.3.094-.378.026.108,0,.145-.13.163-.255a.193.193,0,0,0-.248.125c-.048.165-.156-.007-.211.1-.022.007-.217.1-.217.066-.219.031-.162.217-.162.419.086.051.264.2.257.283.2.035.268.055.446.081a.21.21,0,0,0,.108.066c0,.116.1.1.2.1,0-.149.173.123.189.174-.024,0,.04.151.053.2-.028-.009-.035,0-.028.028.086.031.22.022.244-.068-.083,0-.055-.094-.055-.149a.1.1,0,0,1,.013-.189c0,.077.279-.048.121-.107a.3.3,0,0,0,0-.294c-.04-.048-.09,0-.11-.072.107-.026.028-.23.028-.323.033-.013.121.022.121,0,.1,0,.277.132.338-.028.174.079.035.154.217.094a.787.787,0,0,0,.23.242c0,.009-.006.068.04.068,0,.044-.028-.024-.028.053.026,0,.163.028.163-.026.086,0,.149-.107.149-.189.055-.035.151.3.217.3.048.075.2.186.2.255.033.033.066.024.066.121.04,0,.121-.162.121-.013a.261.261,0,0,1,.163.149c-.1,0-.006.094-.055.094,0,.094-.209.018-.255.013-.064.29-.456.081-.691.156a.8.8,0,0,0-.377.45c.151,0,.217-.13.351-.176.11,0,.13-.066.23-.094,0,.028.028.013.028.04-.193,0-.075.125-.018.215a.235.235,0,0,0,.119.1.712.712,0,0,0-.046.1h0c-.037.013-.108.039-.121.068-.219.024-.11.009-.1-.042.007.018.086,0,.083,0-.013-.066-.033-.057-.013-.094-.118,0-.176.053-.27.053-.017.031-.1.108-.136.108a.632.632,0,0,1-.163.283c0-.022-.193.121-.176.121-.042.07-.09.066-.108.174a.924.924,0,0,0-.068.215c-.084.055-.114.283-.257.283-.086.173-.244.151-.244.377a1.184,1.184,0,0,1,.09.369c.02.1.051.195-.075.2-.009-.015-.1-.149-.081-.149a.865.865,0,0,0-.108-.29c-.053-.075-.152.011-.23-.02-.033-.066-.257-.081-.338-.081.013.05.05.066.053.121a.3.3,0,0,1-.173.048c-.118-.017-.1-.108-.233-.1a.39.39,0,0,0-.351.4,1.149,1.149,0,0,0,0,.4c0,.114.094.2.094.283.092,0,.195.2.285.2.011.072-.046.083.108.081,0-.007.083-.051.094-.108-.107-.026,0-.162.068-.189,0,.1.134-.031.134-.04l.149-.053c0-.108.1.011.028.053-.073,0-.068.121-.108.121-.017.086-.051.162-.072.246-.026.1.059.114.031.211a1.748,1.748,0,0,0,.325,0,.1.1,0,0,0-.013-.053c.156,0,.013.3.108.3,0,.112.053.2.053.27a.177.177,0,0,1,.094.2c.09.011.283.035.283-.081.136,0,.147.094.136.189.272,0,.1-.27.215-.27.011-.044.029-.051.055-.024.055.029.1-.055.141-.083a.41.41,0,0,1,.073-.039c.039.024.042.017.059.042a.406.406,0,0,0,.213-.086c.1.011.066.22.248.233a.629.629,0,0,0,.3-.018c.017-.011.073.037.079.057.061,0,.057.053.083.051a.022.022,0,0,0,.028.013c.007.024.057.029.081.094,0,.059.121.068.121.107.086.044-.029.055.1.1a.924.924,0,0,0,.22.066c.026-.1.107.013.149.013.022.044.033.011.053.053.125.1.042.064.094.176.061.039.079.176.1.255-.048,0-.015.186-.015.2-.059,0,.149.11.149-.028.086.015.141.107.2.107-.035.081.094.143.094.015.129.013.094.2.081.27.1,0,.123-.053.2-.062a.555.555,0,0,1,.3-.1.557.557,0,0,1,.084,1.108.975.975,0,0,1-.072.077,2.762,2.762,0,0,1-.015.3c0,.053-.04.351-.081.351,0,.152-.1.18-.136.323-.083.061-.3.162-.338.23-.064,0-.11.053-.176.053-.009.018-.147.149-.121.149-.011.1.007.321-.044.384-.035.042-.084.037-.062.1-.075,0,0,.053-.116.053a.265.265,0,0,0-.213.2.3.3,0,0,1-.13.259c0,.039-.176.05-.176.149.017,0,0,.184,0,.2a.325.325,0,0,0-.2.094c-.176,0-.156.018-.27.094,0,.024-.017.107-.04.107,0,.136-.1.013-.176.081.031,0,.07.134.053.134,0,.119-.073.129-.149.217-.035.024-.07.121-.094.121,0,.079-.04.152-.04.23.017,0,0,.035.013.066.039-.011.039-.053.053-.053,0-.068.107.04.04.04-.055.084-.116.086-.149.2-.033,0-.062.033-.088.072a7.828,7.828,0,0,0,8.684-3.31,2.234,2.234,0,0,1,.061-.456c.055.04.1.116.136,0-.1-.018-.073-.053-.04-.134a.348.348,0,0,0,.173.046c.018-.035.033-.072.051-.107-.055-.042.02-.154.048-.1.015-.028.026-.055.039-.083-.006,0,0,0-.013,0,0-.05.009-.042.04-.068a.014.014,0,0,0,0,.009,7.845,7.845,0,0,0,.775-3.389c0-.04-.006-.079-.006-.118-.015.055-.042.114-.081.129,0,.035-.4.211-.378.283-.072,0-.32.072-.366.162a.625.625,0,0,0-.27.108c-.246.013-.2-.285-.32-.285Zm1.142-3.078h-.3s0,0-.007-.007-.079-.143-.053-.176a.278.278,0,0,1,.048,0c-.026-.062-.053-.123-.081-.184a.385.385,0,0,1-.2.1c0,.024-.119.255,0,.255a.026.026,0,0,0,0,.011.28.28,0,0,0,.024.558h.11c.007.051.035.1.132.118.031.13.263.176.3.04-.1,0-.066-.094-.057-.158h.079a.282.282,0,0,0,.281-.281A.278.278,0,0,0,26.594,16.188Zm-.819,3.657c.02,0,.149,0,.149-.026a1.352,1.352,0,0,0,.391-.055c0,.174-.147.272-.121.445-.1,0-.055.1-.055.134-.062.039-.073.11-.149.149,0,.079-.176.208-.228.274s-.235.2-.257.3c.006-.022-.321.342-.246.342,0,.068-.092.606.028.606,0,.048.1.5.04.5,0,.145-.094.233-.094.349-.046.031-.112.05-.134.1-.083,0-.123.176-.162.176,0,.187-.055.327-.055.538.015,0-.108.3-.108.323-.1.066-.351.307-.351.432l-.2.283a1.755,1.755,0,0,0-.461.108c-.086,0-.31.068-.364-.013,0-.086-.046-.195-.053-.31-.042,0-.048-.174-.094-.174a4.522,4.522,0,0,1-.217-.553.944.944,0,0,0-.053-.23c0-.186-.136-.34-.136-.512-.04,0-.123-.377-.081-.377a4.428,4.428,0,0,1,.1-.547,1.316,1.316,0,0,0-.057-.558c-.024,0-.1-.129-.108-.162a.409.409,0,0,1-.149-.349.9.9,0,0,0,.081-.485.605.605,0,0,0-.338-.04c-.086-.174-.672-.066-.839-.066,0,.1-.408-.018-.446-.094-.1,0-.3-.211-.3-.31a1.117,1.117,0,0,1-.283-.553c-.094-.048-.066-.23-.015-.23a.954.954,0,0,0-.055-.287c-.017-.057.055-.118.055-.186a.807.807,0,0,1,.11-.476,1.824,1.824,0,0,0,.107-.2c.057-.141.073-.007.149-.132.073-.037.114-.156.189-.215.033-.044.033-.061,0-.094a.811.811,0,0,0,.094-.255c.107-.147.031-.079.136-.068.039-.042.1-.149.162-.149a.172.172,0,0,1,.149-.081c0,.081.22-.026.244-.026a.63.63,0,0,1,.338-.162c0-.092.479.026.555.013V16.9c.1.024.288.435.27.525a1.069,1.069,0,0,1,.2,0c0,.086.163.108.239.112.1.006.41-.011.41-.152a.126.126,0,0,1,.136.149c.092.011.634.02.6.134.079,0,.1.136.176.136-.015.094.094.336.176.336a.435.435,0,0,0,.121.283,1,1,0,0,0,.283.432c-.051.1.077.174.108.27-.007,0,.028.141.066.162,0,.1.2.485.312.485C25.741,19.814,25.631,19.834,25.774,19.845Zm-2.92-3.018c.02-.081.068-.018.112,0,.1.033.068,0,.145-.037,0,.22-.125.053-.257.04Zm-.285-.4c.055,0,.07.248-.081.2,0-.061-.039-.174.04-.174C22.553,16.546,22.569,16.506,22.569,16.423Zm-.066-.162c.062.028.09.018.081-.028.083.028-.011.086-.028.149-.042-.042-.029-.057-.053-.121Zm-1.447-1.2c-.132-.035.136-.073.149-.107a.064.064,0,0,1-.059-.086c.02-.046.053.055.1.033.055-.006.162-.086.107.07s-.107.277-.31.279C20.969,15.178,21.039,15.139,21.056,15.062Zm.5-.553c.108,0,.013.081-.011.081.018.007,0,.073,0,.094.1,0,.1-.062.176-.081-.015.09-.116.108-.017.186.051.04.107.09.084.152.129,0,.149.123.121.27.072,0,.068,0,.068-.068.07.018.064.081,0,.081-.064.127-.231.121-.351.121,0-.1-.02-.1-.11-.077-.123.039-.028-.1-.024-.165.013,0,.281.013.121-.04-.009-.145-.04-.189-.176-.189,0-.1-.035-.092-.051-.2C21.361,14.513,21.509,14.684,21.557,14.509Zm-.042.876c0,.033-.068.059-.081.013.013,0,.018,0,.013-.013Zm-1.108-1.447h-.562a.281.281,0,0,1,0-.562h.562a.281.281,0,1,1,0,.562Zm-3.279,4.978c.031,0,.068.013.068.04C17.156,18.956,17.1,18.995,17.129,18.916Zm-.512.028c-.022.042-.2.035-.23-.015.068,0,.119.028.189,0,0-.037-.031-.066-.053-.107.073,0,.156.057.257.053,0-.062-.028.013,0-.068a.316.316,0,0,1,.149.149,2.175,2.175,0,0,0-.312-.013Zm-.6-.323a.385.385,0,0,1-.244-.121c.066,0,.134.031.176-.04.171.017.187.136.325.136.026.046.173.151.031.163a.318.318,0,0,1-.288-.138Zm.108.377c-.05,0-.132.022-.094-.081C16.1,18.925,16.133,18.952,16.129,19Zm.094-.013L16.142,19C16.151,18.934,16.21,18.864,16.223,18.984Zm.5.593c-.011.039-.009.04-.053.04,0-.017.009-.035.013-.053Zm-1.218-1.119.04.013c.017.066.053.033.094.013C15.643,18.563,15.461,18.585,15.507,18.458Z" transform="translate(-10 -10)" fill="#8f95a3"/>
    </g>
  </g>
</svg>
